<svg xmlns="http://www.w3.org/2000/svg" width="750" height="573" fill="none" viewBox="0 0 750 573">
  <g>
    <g>
      <path fill="#262A34"
        d="M137.5 378a12 12 0 0 0 12 12h453.92a12 12 0 0 0 12-12.07l-.84-134.85a12 12 0 0 1 12-12.08H732a12 12 0 0 0 12-12v-7.5a12 12 0 0 0-12-12H626.5a12 12 0 0 1-12-12V156a12 12 0 0 0-12-12h-90.39a12 12 0 0 0-12 12.11l.28 29.38a12 12 0 0 1-12 12.1H260.1a12 12 0 0 1-12-12.1l.28-29.38a12 12 0 0 0-12-12.11H149.5a12 12 0 0 0-12 12v222Z" />
    </g>
    <g data-object="Сокол__s__2369:879">
      <rect width="134" height="170" y="206" fill="#fff" rx="12" />
      <g>
        <path fill="#000"
          d="M89.45 274h-7.49v7.5c0 .13-.01.22-.04.28a1.48 1.48 0 0 1-1.46 1.22h-7.49v7.5c0 .13-.01.22-.05.28a1.48 1.48 0 0 1-1.45 1.22h-7.49v7.5c0 .13-.02.22-.05.28a1.48 1.48 0 0 1-1.45 1.22h-7.5v7.5c0 .13 0 .22-.04.28A1.48 1.48 0 0 1 53.5 310h-9c-.4 0-.75-.15-1.05-.44a1.5 1.5 0 0 1 0-2.12c.3-.3.65-.44 1.06-.44H52v-7.5c0-.13 0-.22.04-.28.06-.35.23-.63.51-.87.28-.23.6-.35.94-.35h7.5v-7.5c0-.13 0-.22.04-.28.06-.35.23-.63.51-.87.29-.23.6-.35.94-.35h7.5v-7.5c0-.1 0-.19.04-.28.06-.35.23-.63.52-.87.28-.23.59-.35.93-.35h7.5v-7.5c0-.13.01-.22.04-.28a1.48 1.48 0 0 1 1.45-1.22h9c.4 0 .75.15 1.05.44a1.5 1.5 0 0 1 0 2.12c-.3.3-.65.44-1.06.44Z" />
      </g>
    </g>
    <g>
      <rect width="18" height="14" x="128" y="173" fill="#262A34" rx="3"
        transform="rotate(-90 128 173)" />
    </g>
    <g>
      <rect width="18" height="14" x="174.19" y="400" fill="#262A34" rx="3"
        transform="rotate(179.2 174.2 400)" />
    </g>
    <g>
      <rect width="18" height="15" x="243" y="173" fill="#262A34" rx="3"
        transform="rotate(-90 243 173)" />
    </g>
    <g>
      <rect width="18" height="7" x="134" y="231" fill="#262A34" rx="3"
        transform="rotate(-90 134 231)" />
    </g>
    <g>
      <rect width="18" height="7" x="245" y="172" fill="#262A34" rx="3"
        transform="rotate(-90 245 172)" />
    </g>
    <g>
      <rect width="18" height="8" x="154" y="137" fill="#262A34" rx="3" />
    </g>
    <g>
      <rect width="18" height="11" x="212" y="138" fill="#262A34" rx="3" />
    </g>
    <g>
      <rect width="18" height="8" x="216" y="387" fill="#262A34" rx="3" />
    </g>
    <g>
      <rect width="18" height="7" x="132" y="172" fill="#262A34" rx="3"
        transform="rotate(-90 132 172)" />
    </g>
    <g>
      <rect width="18" height="12" x="522" y="385" fill="#262A34" rx="3" />
    </g>
    <g>
      <rect width="18" height="10" x="576" y="140" fill="#262A34" rx="3" />
    </g>
    <g>
      <rect width="18" height="14" x="606" y="172" fill="#262A34" rx="3"
        transform="rotate(-90 606 172)" />
    </g>
    <g>
      <rect width="18" height="15" x="490" y="171" fill="#262A34" rx="3"
        transform="rotate(-90 490 171)" />
    </g>
    <g>
      <rect width="18" height="14" x="671" y="63" fill="#262A34" rx="3" />
    </g>
    <g>
      <rect width="62" height="7" x="646" y="65" fill="#262A34" rx="3" />
    </g>
    <g>
      <rect width="18" height="8" x="582" y="387" fill="#262A34" rx="3" />
    </g>
    <g>
      <rect width="18" height="7" x="494" y="173" fill="#262A34" rx="3"
        transform="rotate(-90 494 173)" />
    </g>
    <g>
      <rect width="18" height="7" x="494" y="173" fill="#262A34" rx="3"
        transform="rotate(-90 494 173)" />
    </g>
    <g>
      <rect width="18" height="16" x="555" y="426" fill="#262A34" rx="3"
        transform="rotate(-90 555 426)" />
    </g>
    <g>
      <rect width="18" height="14" x="612" y="426" fill="#262A34" rx="3"
        transform="rotate(-90 612 426)" />
    </g>
    <g data-object="Сокол__r__2369:765">
      <rect width="130" height="190" x="620" y="383" fill="#78B500" rx="12" />
      <path fill="#fff"
        d="M639.34 490.78v-23.27h8.9a9.6 9.6 0 0 1 4.2.8 5.6 5.6 0 0 1 2.51 2.14c.56.91.84 1.94.84 3.1a4.59 4.59 0 0 1-2.01 4.06c-.61.4-1.3.7-2.05.89v.23a5.29 5.29 0 0 1 4.25 2.7c.48.82.72 1.83.72 3.01 0 1.2-.29 2.29-.87 3.25a5.95 5.95 0 0 1-2.64 2.26 10.4 10.4 0 0 1-4.43.83h-9.42Zm4.21-3.52h4.54c1.53 0 2.63-.3 3.3-.88a2.87 2.87 0 0 0 1.03-2.27 3.48 3.48 0 0 0-1.97-3.18 4.84 4.84 0 0 0-2.25-.49h-4.65v6.82Zm0-9.85h4.18a4.7 4.7 0 0 0 1.96-.4 3.08 3.08 0 0 0 1.89-2.92c0-.9-.32-1.65-.96-2.23-.63-.58-1.56-.87-2.8-.87h-4.27v6.42ZM661 490.78l9.9-19.59v-.16h-11.5v-3.52h15.86v3.6l-9.89 19.67h-4.38Zm28.55-13.33v3.39h-10.48v-3.39h10.48Zm12.88 13.78a8.14 8.14 0 0 1-4.82-1.43 9.05 9.05 0 0 1-3.08-4.12 17.73 17.73 0 0 1-1.06-6.51c0-2.54.36-4.7 1.08-6.48a8.9 8.9 0 0 1 3.08-4.09 8.16 8.16 0 0 1 4.8-1.4 8.1 8.1 0 0 1 4.8 1.4 8.8 8.8 0 0 1 3.09 4.1 17.34 17.34 0 0 1 1.08 6.47c0 2.54-.36 4.72-1.08 6.52a8.87 8.87 0 0 1-3.08 4.12 8.09 8.09 0 0 1-4.8 1.42Zm0-3.56c1.46 0 2.6-.72 3.45-2.15.84-1.44 1.27-3.56 1.27-6.35 0-1.85-.2-3.4-.58-4.66a6.17 6.17 0 0 0-1.64-2.84 3.58 3.58 0 0 0-2.5-.97c-1.44 0-2.59.72-3.43 2.16-.84 1.43-1.26 3.54-1.27 6.3a16.7 16.7 0 0 0 .55 4.7 6.27 6.27 0 0 0 1.64 2.85c.7.64 1.54.96 2.51.96Zm21.02 3.43c-1.7 0-3.2-.28-4.5-.85a7.5 7.5 0 0 1-3.07-2.33c-.74-1-1.1-2.12-1.1-3.38 0-.97.21-1.87.64-2.69a6 6 0 0 1 4.23-3.1v-.16a4.92 4.92 0 0 1-2.9-1.83 5.28 5.28 0 0 1-1.1-3.33c0-1.2.33-2.26 1-3.2a6.81 6.81 0 0 1 2.77-2.22 9.44 9.44 0 0 1 4.03-.82 9.2 9.2 0 0 1 3.98.82 6.83 6.83 0 0 1 2.78 2.22c.68.94 1.02 2 1.02 3.2 0 1.26-.38 2.37-1.13 3.33a4.9 4.9 0 0 1-2.87 1.83v.16a6.01 6.01 0 0 1 4.86 5.8 5.5 5.5 0 0 1-1.11 3.37 7.5 7.5 0 0 1-3.07 2.33c-1.3.57-2.78.85-4.46.85Zm0-3.25c.87 0 1.63-.15 2.27-.44a3.44 3.44 0 0 0 2.04-3.16c0-.74-.2-1.4-.58-1.97a3.81 3.81 0 0 0-1.53-1.35 4.83 4.83 0 0 0-2.2-.49c-.84 0-1.58.17-2.23.49a4 4 0 0 0-1.55 1.35 3.44 3.44 0 0 0-.54 1.97 3.3 3.3 0 0 0 2.02 3.15c.65.3 1.42.45 2.3.45Zm0-10.6c.7 0 1.34-.14 1.88-.43a3.29 3.29 0 0 0 1.8-3 3.33 3.33 0 0 0-.48-1.74c-.31-.51-.74-.9-1.3-1.17a4.16 4.16 0 0 0-1.9-.42 4.3 4.3 0 0 0-1.95.42 3.07 3.07 0 0 0-1.74 2.92c0 .67.15 1.27.46 1.78.32.51.75.91 1.3 1.2.57.3 1.2.44 1.93.44Z" />
    </g>
    <g data-object="Сокол__r__2365:745">
      <rect width="132" height="191" fill="#78B500" rx="12" />
      <path fill="#fff"
        d="M22.32 108.11V84.84h8.91a9.8 9.8 0 0 1 4.2.8 5.6 5.6 0 0 1 2.5 2.14c.57.91.85 1.94.85 3.1a4.59 4.59 0 0 1-2.01 4.06 6.2 6.2 0 0 1-2.06.89v.23a5.28 5.28 0 0 1 4.25 2.7c.48.82.73 1.83.73 3.01 0 1.2-.3 2.29-.88 3.25a5.95 5.95 0 0 1-2.63 2.26c-1.18.56-2.66.83-4.44.83h-9.42Zm4.22-3.52h4.53c1.53 0 2.64-.3 3.31-.88a2.87 2.87 0 0 0 1.02-2.27 3.48 3.48 0 0 0-1.96-3.18 4.83 4.83 0 0 0-2.25-.49h-4.65v6.82Zm0-9.85h4.17a4.7 4.7 0 0 0 1.97-.4 3.07 3.07 0 0 0 1.89-2.92c0-.9-.33-1.64-.96-2.23-.63-.58-1.57-.87-2.8-.87h-4.27v6.42Zm17.44 13.37 9.9-19.59v-.16h-11.5v-3.52h15.86v3.6l-9.89 19.67h-4.37Zm28.55-13.33v3.39H62.06v-3.39h10.47Zm12.89 13.78a8.14 8.14 0 0 1-4.82-1.42 9.05 9.05 0 0 1-3.08-4.13 17.73 17.73 0 0 1-1.07-6.51c0-2.54.37-4.7 1.08-6.48a8.9 8.9 0 0 1 3.08-4.09 8.16 8.16 0 0 1 4.8-1.4c1.87 0 3.47.46 4.81 1.4a8.8 8.8 0 0 1 3.08 4.1 17.35 17.35 0 0 1 1.08 6.47c0 2.54-.36 4.72-1.08 6.52a8.87 8.87 0 0 1-3.08 4.12 8.08 8.08 0 0 1-4.8 1.42Zm0-3.56c1.45 0 2.6-.72 3.44-2.15.85-1.44 1.27-3.56 1.27-6.35 0-1.85-.19-3.4-.58-4.66A6.18 6.18 0 0 0 87.92 89a3.58 3.58 0 0 0-2.5-.97c-1.45 0-2.6.72-3.43 2.16-.85 1.43-1.27 3.54-1.28 6.3 0 1.87.18 3.43.56 4.7a6.27 6.27 0 0 0 1.64 2.86c.7.63 1.54.95 2.5.95Zm22.2-20.16v23.27h-4.21V88.94h-.14l-5.44 3.48v-3.86l5.78-3.72h4.02Z" />
    </g>
    <g data-object="Сокол__r__2369:770">
      <rect width="192" height="178" y="395" fill="#78B500" rx="12" />
      <path fill="#fff"
        d="M53.4 495.82v-23.27h8.9c1.69 0 3.09.26 4.2.79a5.6 5.6 0 0 1 2.51 2.15c.56.9.84 1.94.84 3.09a4.6 4.6 0 0 1-2.01 4.06c-.61.41-1.3.71-2.06.9v.22a5.27 5.27 0 0 1 4.25 2.7c.49.83.73 1.84.73 3.02 0 1.2-.3 2.28-.87 3.25a5.95 5.95 0 0 1-2.64 2.26 10.4 10.4 0 0 1-4.43.83H53.4Zm4.21-3.52h4.54c1.53 0 2.63-.3 3.3-.88a2.87 2.87 0 0 0 1.03-2.27 3.48 3.48 0 0 0-1.97-3.19 4.83 4.83 0 0 0-2.25-.48h-4.65v6.81Zm0-9.86h4.17a4.7 4.7 0 0 0 1.97-.4 3.07 3.07 0 0 0 1.89-2.92c0-.9-.32-1.64-.96-2.22-.63-.59-1.56-.88-2.8-.88H57.6v6.42Zm17.44 13.38 9.9-19.6v-.15H73.46v-3.52h15.86v3.6l-9.9 19.67h-4.37Zm28.56-13.33v3.38H93.13v-3.38h10.48Zm13.75-9.94v23.27h-4.22v-19.17H113l-5.44 3.47v-3.86l5.78-3.71h4.02Zm5.9 23.27v-3.05l8.08-7.92c.78-.78 1.42-1.47 1.94-2.08.51-.6.9-1.2 1.15-1.76.26-.57.4-1.17.4-1.82 0-.73-.18-1.36-.5-1.88-.34-.53-.8-.94-1.38-1.23a4.44 4.44 0 0 0-2-.43c-.76 0-1.43.16-2 .47-.58.31-1.03.76-1.34 1.33a4.27 4.27 0 0 0-.47 2.06h-4.01c0-1.48.34-2.76 1-3.85a6.82 6.82 0 0 1 2.8-2.54c1.18-.6 2.55-.9 4.08-.9 1.56 0 2.94.3 4.12.88a6.72 6.72 0 0 1 2.75 2.4c.66 1.01.99 2.17.99 3.48a6.9 6.9 0 0 1-.5 2.56 10.9 10.9 0 0 1-1.77 2.8c-.83 1.02-2 2.26-3.5 3.72l-4.02 4.08v.16h10.14v3.52h-15.96Z" />
    </g>
    <g data-object="Сокол__r__2369:759">
      <rect width="176" height="178" x="197" y="395" fill="#78B500" rx="12" />
      <path fill="#fff"
        d="M244.89 495.82v-23.27h8.9c1.7 0 3.09.26 4.2.79a5.6 5.6 0 0 1 2.51 2.15c.56.9.85 1.94.85 3.09a4.59 4.59 0 0 1-2.01 4.06c-.62.41-1.3.71-2.06.9v.22a5.27 5.27 0 0 1 4.25 2.7c.48.83.72 1.84.72 3.02a6.2 6.2 0 0 1-.87 3.25 5.95 5.95 0 0 1-2.64 2.26 10.4 10.4 0 0 1-4.43.83h-9.42Zm4.22-3.52h4.53c1.53 0 2.63-.3 3.3-.88a2.87 2.87 0 0 0 1.03-2.27 3.48 3.48 0 0 0-1.97-3.19 4.83 4.83 0 0 0-2.25-.48h-4.64v6.81Zm0-9.86h4.17a4.7 4.7 0 0 0 1.96-.4 3.08 3.08 0 0 0 1.89-2.92c0-.9-.32-1.64-.96-2.22-.62-.59-1.56-.88-2.8-.88h-4.26v6.42Zm17.44 13.38 9.9-19.6v-.15h-11.5v-3.52h15.86v3.6l-9.89 19.67h-4.37Zm28.55-13.33v3.38h-10.48v-3.38h10.48Zm13.75-9.94v23.27h-4.22v-19.17h-.13l-5.45 3.47v-3.86l5.79-3.71h4Zm15.37 0v23.27h-4.21v-19.17h-.14l-5.44 3.47v-3.86l5.78-3.71h4.01Z" />
    </g>
    <g data-object="Сокол__r__2369:948">
      <rect width="130" height="119" x="618" y="72" fill="#78B500" rx="12" />
      <path fill="#fff"
        d="M638.59 143.32v-23.27h8.9a9.6 9.6 0 0 1 4.2.8 5.6 5.6 0 0 1 2.51 2.14c.56.91.84 1.94.84 3.1a4.58 4.58 0 0 1-2.01 4.06 6.2 6.2 0 0 1-2.05.89v.22a5.29 5.29 0 0 1 4.25 2.7c.48.83.72 1.84.72 3.02 0 1.2-.29 2.29-.87 3.25a5.95 5.95 0 0 1-2.64 2.26 10.4 10.4 0 0 1-4.43.83h-9.42Zm4.21-3.52h4.54c1.53 0 2.63-.3 3.3-.88a2.87 2.87 0 0 0 1.03-2.27 3.48 3.48 0 0 0-1.97-3.18 4.84 4.84 0 0 0-2.25-.49h-4.65v6.82Zm0-9.85h4.18a4.7 4.7 0 0 0 1.96-.4 3.08 3.08 0 0 0 1.89-2.92c0-.9-.32-1.65-.96-2.23-.63-.58-1.56-.87-2.8-.87h-4.27v6.42Zm17.45 13.37 9.9-19.59v-.16h-11.5v-3.52h15.86v3.6l-9.89 19.67h-4.38ZM688.8 130v3.39h-10.48V130h10.48Zm12.88 13.77a8.14 8.14 0 0 1-4.82-1.42 9.05 9.05 0 0 1-3.08-4.12 17.73 17.73 0 0 1-1.06-6.51c0-2.54.36-4.7 1.08-6.48a8.9 8.9 0 0 1 3.08-4.09 8.17 8.17 0 0 1 4.8-1.4 8.1 8.1 0 0 1 4.8 1.4 8.8 8.8 0 0 1 3.09 4.1 17.34 17.34 0 0 1 1.08 6.47c0 2.54-.36 4.72-1.08 6.52a8.87 8.87 0 0 1-3.08 4.11 8.09 8.09 0 0 1-4.8 1.42Zm0-3.55c1.46 0 2.6-.72 3.45-2.15.84-1.44 1.27-3.56 1.27-6.35 0-1.85-.2-3.4-.58-4.66a6.17 6.17 0 0 0-1.64-2.84 3.58 3.58 0 0 0-2.5-.97c-1.44 0-2.59.72-3.43 2.16-.84 1.43-1.26 3.53-1.27 6.3-.01 1.86.18 3.43.55 4.69a6.27 6.27 0 0 0 1.64 2.86c.7.64 1.54.96 2.51.96Zm12.97 3.11 9.9-19.59v-.16h-11.49v-3.52h15.85v3.6l-9.88 19.67h-4.38Z" />
    </g>
    <g data-object="Сокол__r__2369:762">
      <rect width="182" height="178" x="378" y="395" fill="#78B500" rx="12" />
      <path fill="#fff"
        d="M425.44 495.82v-23.27h8.9c1.7 0 3.09.26 4.2.79a5.6 5.6 0 0 1 2.51 2.15c.56.9.84 1.94.84 3.09a4.6 4.6 0 0 1-2.01 4.06c-.61.41-1.3.71-2.05.9v.22a5.27 5.27 0 0 1 4.25 2.7c.48.83.72 1.84.72 3.02a6.2 6.2 0 0 1-.87 3.25 5.95 5.95 0 0 1-2.64 2.26 10.4 10.4 0 0 1-4.43.83h-9.42Zm4.22-3.52h4.53c1.53 0 2.63-.3 3.3-.88a2.87 2.87 0 0 0 1.03-2.27 3.48 3.48 0 0 0-1.97-3.19 4.83 4.83 0 0 0-2.25-.48h-4.64v6.81Zm0-9.86h4.17a4.7 4.7 0 0 0 1.96-.4 3.07 3.07 0 0 0 1.89-2.92c0-.9-.32-1.64-.96-2.22-.63-.59-1.56-.88-2.8-.88h-4.26v6.42Zm17.44 13.38 9.9-19.6v-.15h-11.5v-3.52h15.86v3.6l-9.89 19.67h-4.37Zm28.55-13.33v3.38h-10.48v-3.38h10.48Zm13.75-9.94v23.27h-4.22v-19.17h-.13l-5.45 3.47v-3.86l5.79-3.71h4Zm14.5 23.71a8.14 8.14 0 0 1-4.81-1.42 9.05 9.05 0 0 1-3.08-4.13 17.73 17.73 0 0 1-1.07-6.5c.01-2.54.37-4.7 1.08-6.48a8.9 8.9 0 0 1 3.08-4.1 8.16 8.16 0 0 1 4.8-1.4c1.87 0 3.47.47 4.81 1.4a8.8 8.8 0 0 1 3.09 4.1 17.35 17.35 0 0 1 1.07 6.47c0 2.55-.36 4.72-1.07 6.53a8.87 8.87 0 0 1-3.09 4.11 8.08 8.08 0 0 1-4.8 1.42Zm0-3.56c1.46 0 2.61-.71 3.45-2.14.85-1.44 1.27-3.56 1.27-6.36 0-1.84-.19-3.4-.57-4.65a6.18 6.18 0 0 0-1.64-2.85 3.58 3.58 0 0 0-2.5-.96c-1.45 0-2.6.72-3.43 2.16-.84 1.43-1.27 3.53-1.28 6.3 0 1.86.18 3.42.56 4.69a6.27 6.27 0 0 0 1.64 2.86c.7.64 1.54.95 2.5.95Z" />
    </g>
    <g data-object="Сокол__r__2365:756">
      <rect width="113" height="140" x="499" fill="#78B500" rx="12" />
      <path fill="#fff"
        d="M510.11 82.26V59h8.91c1.68 0 3.08.26 4.2.8a5.6 5.6 0 0 1 2.5 2.14c.57.91.85 1.94.85 3.1a4.59 4.59 0 0 1-2.01 4.06 6.2 6.2 0 0 1-2.06.89v.22a5.28 5.28 0 0 1 4.25 2.7c.48.83.73 1.84.73 3.02 0 1.2-.3 2.29-.88 3.25a5.96 5.96 0 0 1-2.64 2.26 10.4 10.4 0 0 1-4.43.83h-9.42Zm4.22-3.52h4.53c1.53 0 2.63-.3 3.3-.88a2.87 2.87 0 0 0 1.03-2.27 3.48 3.48 0 0 0-1.96-3.18 4.83 4.83 0 0 0-2.25-.49h-4.65v6.82Zm0-9.85h4.17a4.7 4.7 0 0 0 1.96-.4 3.07 3.07 0 0 0 1.89-2.92c0-.9-.32-1.65-.95-2.23-.63-.58-1.57-.87-2.81-.87h-4.26v6.42Zm17.44 13.37 9.9-19.59v-.16h-11.5V59h15.86v3.6l-9.89 19.67h-4.37Zm28.55-13.33v3.39h-10.48v-3.39h10.48Zm12.89 13.77a8.14 8.14 0 0 1-4.82-1.42 9.05 9.05 0 0 1-3.08-4.12 17.74 17.74 0 0 1-1.07-6.51c0-2.54.37-4.7 1.08-6.48a8.91 8.91 0 0 1 3.08-4.1 8.16 8.16 0 0 1 4.8-1.4c1.87 0 3.47.47 4.81 1.4a8.8 8.8 0 0 1 3.08 4.1 17.34 17.34 0 0 1 1.08 6.48c0 2.54-.36 4.72-1.08 6.52a8.87 8.87 0 0 1-3.08 4.11 8.08 8.08 0 0 1-4.8 1.42Zm0-3.55c1.45 0 2.6-.72 3.44-2.15.85-1.44 1.27-3.56 1.27-6.35 0-1.85-.2-3.4-.58-4.66a6.18 6.18 0 0 0-1.63-2.84 3.58 3.58 0 0 0-2.5-.97c-1.45 0-2.6.72-3.44 2.16-.84 1.43-1.26 3.53-1.27 6.3 0 1.86.18 3.42.56 4.69a6.27 6.27 0 0 0 1.63 2.86c.7.64 1.55.96 2.52.96Zm21.26 3.43c-1.11 0-2.2-.2-3.26-.58a7.67 7.67 0 0 1-2.87-1.88 9.21 9.21 0 0 1-2.02-3.46c-.5-1.45-.74-3.24-.74-5.38 0-1.99.22-3.77.64-5.33a11.79 11.79 0 0 1 1.83-3.95 8.08 8.08 0 0 1 2.87-2.48 8.3 8.3 0 0 1 3.79-.85c1.46 0 2.76.29 3.88.86a7.32 7.32 0 0 1 4.05 5.73h-4.15c-.21-.9-.64-1.6-1.3-2.14a3.76 3.76 0 0 0-2.48-.8c-1.62 0-2.86.7-3.73 2.1-.86 1.4-1.3 3.33-1.3 5.77h.15c.38-.66.86-1.24 1.45-1.71a7.07 7.07 0 0 1 4.38-1.5 6.98 6.98 0 0 1 6.25 3.67 7.8 7.8 0 0 1 .95 3.9c0 1.54-.35 2.91-1.05 4.13a7.6 7.6 0 0 1-2.94 2.86 8.84 8.84 0 0 1-4.4 1.04Zm-.02-3.41c.82 0 1.56-.2 2.21-.6a4.5 4.5 0 0 0 2.1-3.93 4.46 4.46 0 0 0-.54-2.25 4.16 4.16 0 0 0-5.43-1.84 4.58 4.58 0 0 0-.56 8.01c.65.4 1.4.61 2.22.61Z" />
    </g>
    <g data-object="Сокол__r__2369:957">
      <rect width="132" height="67" x="616" fill="#78B500" rx="12" />
      <path fill="#fff"
        d="M628.04 45.14V21.87h8.91c1.68 0 3.08.26 4.2.8a5.6 5.6 0 0 1 2.5 2.14c.57.9.85 1.94.85 3.1a4.59 4.59 0 0 1-2.01 4.06c-.62.4-1.3.7-2.06.88v.23a5.28 5.28 0 0 1 4.25 2.7c.48.83.73 1.84.73 3.02 0 1.2-.3 2.29-.88 3.25a5.95 5.95 0 0 1-2.63 2.26 10.4 10.4 0 0 1-4.44.83h-9.42Zm4.22-3.52h4.53c1.53 0 2.63-.3 3.3-.88a2.87 2.87 0 0 0 1.03-2.27 3.49 3.49 0 0 0-1.96-3.18 4.83 4.83 0 0 0-2.25-.5h-4.65v6.83Zm0-9.86h4.17a4.7 4.7 0 0 0 1.97-.4 3.07 3.07 0 0 0 1.89-2.92c0-.9-.33-1.64-.96-2.22-.63-.58-1.57-.88-2.81-.88h-4.26v6.42Zm17.44 13.38 9.9-19.6v-.15h-11.5v-3.52h15.86v3.6l-9.89 19.67h-4.37Zm28.55-13.33v3.39h-10.48v-3.4h10.48Zm12.89 13.77a8.14 8.14 0 0 1-4.82-1.42 9.05 9.05 0 0 1-3.08-4.12 17.74 17.74 0 0 1-1.07-6.51c0-2.54.37-4.7 1.08-6.48a8.9 8.9 0 0 1 3.08-4.1 8.16 8.16 0 0 1 4.8-1.4c1.87 0 3.47.47 4.81 1.4a8.8 8.8 0 0 1 3.08 4.1 17.34 17.34 0 0 1 1.08 6.48c0 2.54-.36 4.72-1.08 6.52a8.87 8.87 0 0 1-3.08 4.11 8.09 8.09 0 0 1-4.8 1.42Zm0-3.55c1.45 0 2.6-.72 3.44-2.15.85-1.44 1.27-3.56 1.27-6.35 0-1.85-.2-3.4-.58-4.66a6.17 6.17 0 0 0-1.63-2.84 3.58 3.58 0 0 0-2.5-.97c-1.45 0-2.6.72-3.44 2.16-.84 1.43-1.26 3.53-1.27 6.3 0 1.86.18 3.42.56 4.69a6.27 6.27 0 0 0 1.63 2.86c.7.64 1.55.96 2.52.96Zm12.97 3.1 9.9-19.58v-.16h-11.5v-3.52h15.86v3.6l-9.89 19.67h-4.38Zm16.5.26a2.4 2.4 0 0 1-1.77-.73 2.36 2.36 0 0 1-.73-1.77c0-.68.24-1.27.73-1.75.5-.49 1.08-.73 1.77-.73.67 0 1.25.24 1.74.73a2.39 2.39 0 0 1 .4 3.01 2.42 2.42 0 0 1-2.14 1.24Zm13.3-23.52v23.27h-4.22V25.97h-.14l-5.44 3.48v-3.87l5.78-3.71h4.02Z" />
    </g>
    <g data-object="Сокол__r__2365:753">
      <rect width="115" height="178" x="379" fill="#78B500" rx="12" />
      <path fill="#fff"
        d="M391.2 100.82V77.54h8.92c1.68 0 3.07.27 4.19.8a5.6 5.6 0 0 1 2.51 2.15c.56.9.84 1.94.84 3.09a4.6 4.6 0 0 1-2.01 4.06 6.2 6.2 0 0 1-2.06.9v.22a5.28 5.28 0 0 1 4.25 2.7c.49.83.73 1.83.73 3.02 0 1.2-.3 2.28-.88 3.25a5.95 5.95 0 0 1-2.63 2.26 10.4 10.4 0 0 1-4.43.83h-9.42Zm4.22-3.53h4.54c1.53 0 2.63-.29 3.3-.87a2.87 2.87 0 0 0 1.03-2.27 3.48 3.48 0 0 0-1.97-3.18 4.84 4.84 0 0 0-2.25-.5h-4.65v6.82Zm0-9.85h4.17a4.7 4.7 0 0 0 1.97-.4 3.07 3.07 0 0 0 1.89-2.92c0-.9-.32-1.64-.96-2.22-.63-.59-1.56-.88-2.8-.88h-4.27v6.42Zm17.44 13.38 9.9-19.6v-.15h-11.49v-3.53h15.85v3.6l-9.88 19.68h-4.38Zm28.56-13.33v3.38h-10.48V87.5h10.48Zm12.88 13.77a8.14 8.14 0 0 1-4.82-1.42 9.05 9.05 0 0 1-3.08-4.12 17.71 17.71 0 0 1-1.07-6.52c.01-2.53.37-4.7 1.08-6.47a8.9 8.9 0 0 1 3.08-4.1 8.16 8.16 0 0 1 4.81-1.4c1.86 0 3.47.47 4.8 1.4a8.8 8.8 0 0 1 3.09 4.1 17.36 17.36 0 0 1 1.08 6.47c0 2.55-.36 4.72-1.08 6.53a8.87 8.87 0 0 1-3.08 4.11 8.08 8.08 0 0 1-4.81 1.42Zm0-3.56c1.45 0 2.6-.71 3.44-2.14.85-1.44 1.28-3.56 1.28-6.36 0-1.84-.2-3.4-.58-4.66a6.18 6.18 0 0 0-1.64-2.84 3.58 3.58 0 0 0-2.5-.96c-1.45 0-2.6.72-3.43 2.16-.84 1.43-1.27 3.53-1.27 6.3-.01 1.86.17 3.42.55 4.69a6.26 6.26 0 0 0 1.64 2.86c.7.64 1.54.95 2.51.95Zm20.83 3.44a9.38 9.38 0 0 1-4.06-.86 7.26 7.26 0 0 1-2.86-2.36c-.7-1-1.07-2.14-1.11-3.43h4.09c.07.95.49 1.73 1.24 2.34.75.6 1.65.9 2.7.9a4.07 4.07 0 0 0 3.73-2.15c.37-.68.55-1.44.55-2.3 0-.89-.18-1.67-.56-2.35a4.17 4.17 0 0 0-1.56-1.6 4.3 4.3 0 0 0-2.27-.6c-.7 0-1.38.13-2.06.4-.67.26-1.2.6-1.6 1.04l-3.8-.63 1.2-12h13.5v3.53h-10l-.67 6.17h.13a4.8 4.8 0 0 1 1.83-1.26 6.46 6.46 0 0 1 2.6-.51 7.16 7.16 0 0 1 6.38 3.72c.64 1.16.96 2.49.96 3.98 0 1.54-.36 2.9-1.07 4.11a7.56 7.56 0 0 1-2.95 2.83 8.92 8.92 0 0 1-4.34 1.03Z" />
    </g>
    <g data-object="Сокол__r__2369:974">
      <rect width="140" height="53" x="138" y="140" fill="#78B500" rx="12"
        transform="rotate(-90 138 140)" />
      <path fill="#fff"
        d="M176.51 115.55h-23.27v-8.91c0-1.68.26-3.08.8-4.2a5.6 5.6 0 0 1 2.14-2.5 5.7 5.7 0 0 1 3.1-.85 4.57 4.57 0 0 1 4.06 2.01c.4.62.7 1.3.89 2.06h.23a5.28 5.28 0 0 1 2.7-4.25 5.92 5.92 0 0 1 3.01-.73c1.2 0 2.29.3 3.25.88a5.86 5.86 0 0 1 2.26 2.64c.56 1.17.83 2.65.83 4.43v9.42Zm-3.52-4.22v-4.53c0-1.53-.3-2.63-.88-3.3a2.87 2.87 0 0 0-2.27-1.03 3.48 3.48 0 0 0-3.18 1.96 4.83 4.83 0 0 0-.49 2.25v4.65H173Zm-9.85 0v-4.17a4.7 4.7 0 0 0-.4-1.96 3.07 3.07 0 0 0-2.92-1.89c-.9 0-1.64.32-2.23.95-.58.63-.87 1.57-.87 2.81v4.26h6.42ZM176.5 93.9 156.92 84h-.16v11.5h-3.52V79.62h3.6l19.67 9.89v4.37Zm-13.33-28.55h3.39V75.8h-3.39V65.34Zm13.78-12.89c0 1.88-.48 3.48-1.42 4.82a9.05 9.05 0 0 1-4.13 3.08c-1.8.71-3.97 1.07-6.51 1.07-2.54 0-4.7-.37-6.48-1.08a8.9 8.9 0 0 1-4.09-3.08 8.17 8.17 0 0 1-1.4-4.8c0-1.87.46-3.47 1.4-4.81a8.8 8.8 0 0 1 4.1-3.08 17.35 17.35 0 0 1 6.47-1.08c2.54 0 4.72.36 6.52 1.08a8.87 8.87 0 0 1 4.12 3.08 8.08 8.08 0 0 1 1.42 4.8Zm-3.56 0c0-1.45-.72-2.6-2.15-3.44-1.44-.85-3.56-1.27-6.35-1.27-1.85 0-3.4.2-4.66.58-1.26.38-2.2.93-2.84 1.63-.65.7-.97 1.54-.97 2.5 0 1.45.72 2.6 2.16 3.44 1.43.84 3.54 1.26 6.3 1.27 1.87 0 3.43-.18 4.7-.56a6.27 6.27 0 0 0 2.85-1.63c.64-.7.96-1.55.96-2.52Zm3.11-12.74h-3.04l-7.92-8.08a38.02 38.02 0 0 0-2.08-1.93c-.6-.51-1.2-.9-1.76-1.16a4.35 4.35 0 0 0-1.82-.38 3.32 3.32 0 0 0-3.11 1.88 4.45 4.45 0 0 0-.44 1.98c0 .76.16 1.43.48 2.01.31.58.75 1.02 1.33 1.34.57.31 1.26.47 2.06.47v4a6.82 6.82 0 0 1-6.39-3.8 8.97 8.97 0 0 1-.9-4.08c0-1.56.3-2.93.88-4.11a6.7 6.7 0 0 1 2.4-2.75 6.24 6.24 0 0 1 3.47-.99 7 7 0 0 1 2.57.5c.84.33 1.77.92 2.8 1.76 1.02.83 2.26 2 3.71 3.51l4.08 4.01h.16V23.76h3.52V39.7Z" />
    </g>
    <g data-object="Сокол__r__2369:994">
      <rect width="140" height="53" x="196" y="140" fill="#78B500" rx="12"
        transform="rotate(-90 196 140)" />
      <path fill="#fff"
        d="M234.51 115.53h-23.27v-8.9c0-1.69.26-3.09.8-4.2a5.6 5.6 0 0 1 2.14-2.51 5.79 5.79 0 0 1 3.1-.84 4.58 4.58 0 0 1 4.06 2.01c.4.61.7 1.3.89 2.06h.23a5.28 5.28 0 0 1 2.7-4.25 5.92 5.92 0 0 1 3.01-.73c1.2 0 2.29.29 3.25.87a5.97 5.97 0 0 1 2.26 2.64c.56 1.17.83 2.65.83 4.43v9.42Zm-3.52-4.21v-4.54c0-1.53-.3-2.63-.88-3.3a2.87 2.87 0 0 0-2.27-1.03 3.48 3.48 0 0 0-3.18 1.97 4.83 4.83 0 0 0-.49 2.25v4.65H231Zm-9.85 0v-4.17a4.7 4.7 0 0 0-.4-1.97 3.07 3.07 0 0 0-2.92-1.89c-.9 0-1.64.32-2.23.96-.58.63-.87 1.56-.87 2.8v4.27h6.42Zm13.37-17.44-19.59-9.9h-.16v11.49h-3.52V79.6h3.6l19.67 9.9v4.37Zm-13.33-28.56h3.39V75.8h-3.39V65.32Zm13.78-12.88a8.2 8.2 0 0 1-1.42 4.82 9.05 9.05 0 0 1-4.13 3.08c-1.8.7-3.97 1.06-6.51 1.06-2.54 0-4.7-.36-6.48-1.08a8.9 8.9 0 0 1-4.09-3.07 8.17 8.17 0 0 1-1.4-4.81 8.1 8.1 0 0 1 1.4-4.8 8.8 8.8 0 0 1 4.1-3.09 17.35 17.35 0 0 1 6.47-1.08c2.54 0 4.72.36 6.52 1.08a8.87 8.87 0 0 1 4.12 3.08 8.08 8.08 0 0 1 1.42 4.8Zm-3.56 0c0-1.46-.72-2.6-2.15-3.44-1.44-.85-3.56-1.28-6.35-1.28-1.85 0-3.4.2-4.66.58-1.26.39-2.2.93-2.84 1.64-.65.7-.97 1.54-.97 2.5 0 1.45.72 2.59 2.16 3.43 1.43.84 3.54 1.27 6.3 1.27a16.3 16.3 0 0 0 4.7-.55 6.27 6.27 0 0 0 2.85-1.64c.64-.7.96-1.54.96-2.51Zm3.43-21.1c0 1.64-.28 3.1-.84 4.37a7.29 7.29 0 0 1-2.34 3 6.07 6.07 0 0 1-3.47 1.17V35.6a2.83 2.83 0 0 0 1.65-.63c.46-.38.82-.88 1.08-1.51.26-.63.39-1.33.39-2.11 0-.84-.15-1.58-.44-2.22a3.6 3.6 0 0 0-1.22-1.51 3.03 3.03 0 0 0-1.8-.54 3.2 3.2 0 0 0-1.87.55c-.54.37-.96.9-1.26 1.61-.3.7-.46 1.54-.46 2.53v2.05H221v-2.05a5 5 0 0 0-.42-2.13 3.43 3.43 0 0 0-1.18-1.44 3.04 3.04 0 0 0-1.78-.51 3.1 3.1 0 0 0-1.72.44c-.5.3-.88.72-1.15 1.26a5 5 0 0 0-.02 3.88c.26.6.62 1.1 1.1 1.46a2.8 2.8 0 0 0 1.68.6v4.05a5.9 5.9 0 0 1-3.43-1.12 7.3 7.3 0 0 1-2.32-2.91 9.6 9.6 0 0 1-.84-4.08c0-1.56.3-2.9.88-4.05a6.6 6.6 0 0 1 2.33-2.67 5.86 5.86 0 0 1 3.24-.94 4.8 4.8 0 0 1 3.3 1.16 5.44 5.44 0 0 1 1.73 3.04h.18a5.9 5.9 0 0 1 1.82-3.76 5.21 5.21 0 0 1 3.65-1.3c1.3 0 2.47.36 3.5 1.1a7.38 7.38 0 0 1 2.4 3.05c.59 1.3.88 2.77.88 4.43Z" />
    </g>
    <g data-object="Сокол__r__2369:1005">
      <rect width="178" height="54" x="564" y="573" fill="#78B500" rx="12"
        transform="rotate(-90 564 573)" />
      <path fill="#fff"
        d="M602.84 529.44h-23.27v-8.91c0-1.68.27-3.08.8-4.2a5.6 5.6 0 0 1 2.14-2.5 5.7 5.7 0 0 1 3.1-.85 4.6 4.6 0 0 1 4.06 2.01c.4.62.7 1.3.89 2.06h.23a5.27 5.27 0 0 1 2.7-4.25 5.91 5.91 0 0 1 3.01-.73c1.2 0 2.29.3 3.25.88a5.89 5.89 0 0 1 2.26 2.63c.56 1.18.83 2.66.83 4.44v9.42Zm-3.52-4.22v-4.53c0-1.53-.3-2.64-.87-3.31a2.87 2.87 0 0 0-2.28-1.02 3.48 3.48 0 0 0-3.18 1.96 4.83 4.83 0 0 0-.49 2.25v4.65h6.82Zm-9.85 0v-4.17a4.7 4.7 0 0 0-.4-1.96 3.07 3.07 0 0 0-2.92-1.89c-.9 0-1.64.32-2.23.95-.58.63-.87 1.57-.87 2.81v4.26h6.42Zm13.37-17.44-19.59-9.9h-.16v11.5h-3.52v-15.86h3.6l19.67 9.89v4.37Zm-13.33-28.55h3.39v10.47h-3.39v-10.47Zm13.78-12.89a8.2 8.2 0 0 1-1.42 4.82 9.04 9.04 0 0 1-4.13 3.08c-1.8.71-3.97 1.07-6.51 1.07-2.54 0-4.7-.37-6.48-1.08a8.9 8.9 0 0 1-4.09-3.08 8.16 8.16 0 0 1-1.4-4.8c0-1.87.46-3.47 1.4-4.81a8.8 8.8 0 0 1 4.1-3.08 17.34 17.34 0 0 1 6.47-1.08c2.54 0 4.72.36 6.52 1.08a8.87 8.87 0 0 1 4.12 3.08 8.09 8.09 0 0 1 1.42 4.8Zm-3.56 0c0-1.45-.72-2.6-2.15-3.44-1.44-.85-3.56-1.27-6.35-1.27-1.85 0-3.4.19-4.66.58-1.26.38-2.2.93-2.84 1.63a3.6 3.6 0 0 0-.97 2.5c0 1.45.72 2.6 2.16 3.44 1.44.84 3.54 1.26 6.31 1.27 1.86 0 3.42-.18 4.68-.56a6.27 6.27 0 0 0 2.87-1.63c.63-.71.95-1.55.95-2.52Zm-20.48-20.82c.01-1.11.2-2.2.6-3.25.37-1.06 1-2.01 1.86-2.86a9 9 0 0 1 3.44-2.02c1.44-.5 3.22-.75 5.34-.75 2-.01 3.79.2 5.37.63 1.56.43 2.89 1.04 3.97 1.83a8.2 8.2 0 0 1 2.48 2.88c.57 1.12.85 2.38.85 3.78 0 1.47-.29 2.77-.86 3.91a7.35 7.35 0 0 1-5.8 4.02v-4.14a3.92 3.92 0 0 0 2.2-1.3 3.8 3.8 0 0 0 .81-2.49c0-1.61-.7-2.86-2.1-3.73-1.4-.87-3.35-1.3-5.84-1.3v.16a5.98 5.98 0 0 1 2.83 3.45c.26.74.39 1.53.39 2.36a7.04 7.04 0 0 1-3.66 6.26 8.01 8.01 0 0 1-3.9.96 8 8 0 0 1-4.08-1.05 7.58 7.58 0 0 1-2.86-2.94 8.7 8.7 0 0 1-1.04-4.4Zm3.41 0a4.17 4.17 0 0 0 2.22 3.75 4.76 4.76 0 0 0 4.51 0 4.14 4.14 0 0 0 2.2-3.72 4.2 4.2 0 0 0-1.34-3.1 4.64 4.64 0 0 0-3.14-1.26 4.54 4.54 0 0 0-3.84 2.11c-.4.64-.6 1.38-.6 2.21Z" />
    </g>
    <g data-object="Сокол__s__2369:882">
      <rect width="124" height="132" x="622" y="240" fill="#fff" rx="12" />
      <g>
        <path fill="#000"
          d="M706.46 289h-7.5v7.5c0 .13-.01.22-.05.28a1.47 1.47 0 0 1-1.45 1.22h-7.49v7.5c0 .13-.01.22-.05.28a1.48 1.48 0 0 1-1.45 1.22h-7.49v7.5c0 .13-.02.22-.05.28-.06.35-.22.63-.49.87a1.4 1.4 0 0 1-.96.35h-7.5v7.5c0 .13 0 .22-.04.28a1.48 1.48 0 0 1-1.45 1.22h-9c-.4 0-.75-.15-1.04-.44-.3-.3-.45-.65-.45-1.06 0-.4.15-.76.45-1.06.3-.3.64-.44 1.05-.44h7.5v-7.5c0-.13 0-.22.04-.28.06-.35.23-.63.51-.87.28-.23.6-.35.94-.35h7.5v-7.5c0-.13 0-.22.04-.28.06-.35.23-.63.51-.87.29-.23.6-.35.94-.35h7.5v-7.5c0-.1 0-.19.04-.28.06-.35.24-.63.52-.87.28-.23.59-.35.93-.35h7.5v-7.5c0-.13.01-.22.04-.28a1.48 1.48 0 0 1 1.45-1.22h9c.4 0 .75.15 1.05.44a1.5 1.5 0 0 1 0 2.12c-.3.3-.65.44-1.05.44Z" />
      </g>
    </g>
    <g data-object="Сокол__r__2365:750">
      <rect width="121" height="178" x="254" fill="#78B500" rx="12" />
      <path fill="#fff"
        d="M267.7 100.82V77.54h8.92a9.8 9.8 0 0 1 4.2.8 5.6 5.6 0 0 1 2.5 2.15c.56.9.84 1.94.84 3.09a4.58 4.58 0 0 1-2.01 4.06 6.2 6.2 0 0 1-2.05.9v.22a5.28 5.28 0 0 1 4.25 2.7c.48.83.72 1.83.72 3.02a6.2 6.2 0 0 1-.87 3.25 5.95 5.95 0 0 1-2.64 2.26 10.4 10.4 0 0 1-4.43.83h-9.42Zm4.23-3.53h4.53c1.53 0 2.63-.29 3.3-.87a2.87 2.87 0 0 0 1.03-2.27 3.48 3.48 0 0 0-1.97-3.18 4.84 4.84 0 0 0-2.25-.5h-4.64v6.82Zm0-9.85h4.17a4.7 4.7 0 0 0 1.96-.4 3.08 3.08 0 0 0 1.89-2.92c0-.9-.32-1.64-.96-2.22-.63-.59-1.56-.88-2.8-.88h-4.26v6.42Zm17.44 13.38 9.9-19.6v-.15h-11.5v-3.53h15.86v3.6l-9.89 19.68h-4.37Zm28.55-13.33v3.38h-10.48V87.5h10.48Zm12.88 13.77a8.14 8.14 0 0 1-4.81-1.42 9.05 9.05 0 0 1-3.09-4.12 17.74 17.74 0 0 1-1.06-6.52c0-2.53.37-4.7 1.08-6.47a8.9 8.9 0 0 1 3.08-4.1 8.16 8.16 0 0 1 4.8-1.4c1.87 0 3.47.47 4.81 1.4a8.8 8.8 0 0 1 3.08 4.1 17.34 17.34 0 0 1 1.08 6.47c0 2.55-.36 4.72-1.08 6.53a8.87 8.87 0 0 1-3.08 4.11 8.09 8.09 0 0 1-4.8 1.42Zm0-3.56c1.46 0 2.6-.71 3.45-2.14.85-1.44 1.27-3.56 1.27-6.36 0-1.84-.2-3.4-.58-4.66a6.17 6.17 0 0 0-1.64-2.84 3.58 3.58 0 0 0-2.5-.96c-1.44 0-2.59.72-3.43 2.16-.84 1.43-1.26 3.53-1.27 6.3a17 17 0 0 0 .55 4.69 6.27 6.27 0 0 0 1.64 2.86c.7.64 1.54.95 2.51.95Zm12.32-1.2v-3.35l9.88-15.6h2.8v4.77h-1.71l-6.65 10.53v.18h13.79v3.47h-18.1Zm11.1 4.32v-5.34l.05-1.5V77.54h3.98v23.28h-4.02Z" />
    </g>
    <g data-object="Сокол__e__2369:842">
      <rect width="50" height="99" x="382" y="236" fill="#fff" rx="12" />
      <g>
        <g>
          <mask id="a" fill="#fff">
            <path
              d="M383 255.5a3 3 0 0 1 3-3h42a3 3 0 0 1 3 3v59a3 3 0 0 1-3 3h-42a3 3 0 0 1-3-3v-59Z" />
          </mask>
          <path fill="#000"
            d="M380 255.5a6 6 0 0 1 6-6h52a6 6 0 0 1 6 6h-64Zm64 59a6 6 0 0 1-6 6h-52a6 6 0 0 1-6-6h64Zm-58 6a6 6 0 0 1-6-6v-59a6 6 0 0 1 6-6v71Zm52-71a6 6 0 0 1 6 6v59a6 6 0 0 1-6 6l-20-6v-59l20-6Z"
            mask="url(#a)" />
        </g>
        <path fill="#fff"
          d="m422.71 279.7.8-.8v4.6a1 1 0 1 0 1.99 0v-4.6l.79.8a.99.99 0 0 0 1.09.23 1 1 0 0 0 .32-1.64l-2.5-2.5a.87.87 0 0 0-.32-.22 1 1 0 0 0-.76 0 1 1 0 0 0-.33.22l-2.5 2.5a1 1 0 0 0 1.42 1.42Zm3.58 11.59-.8.8v-4.6a1 1 0 1 0-1.99 0v4.6l-.79-.8a1.01 1.01 0 0 0-1.1-.22 1.01 1.01 0 0 0-.53 1.31c.05.13.12.24.21.33l2.5 2.5c.1.1.2.16.33.21a.93.93 0 0 0 .76 0c.12-.05.23-.12.33-.21l2.5-2.5a1 1 0 0 0-1.42-1.42Z" />
        <path fill="#000"
          d="M401.5 273a5.25 5.25 0 1 0 0-10.5 5.25 5.25 0 0 0 0 10.5Zm4.5 0h-9a6.01 6.01 0 0 0-6 6v10.08a1.9 1.9 0 0 0 1.8 1.92 1.88 1.88 0 0 0 1.95-1.88v-9.35a.77.77 0 0 1 .7-.77.74.74 0 0 1 .74.45c.04.1.06.2.06.3v27.1a2.15 2.15 0 1 0 4.31 0v-13.38a.96.96 0 0 1 .88-.97.93.93 0 0 1 1 .94v13.4a2.15 2.15 0 1 0 4.31 0v-27.06a.77.77 0 0 1 .7-.78.74.74 0 0 1 .74.45c.04.1.06.2.06.3v9.33a1.9 1.9 0 0 0 1.8 1.92 1.88 1.88 0 0 0 1.95-1.88V279a6.01 6.01 0 0 0-6-6Z" />
      </g>
    </g>
    <g data-object="Сокол__e__2369:836">
      <rect width="96" height="99" x="209" y="236" fill="#fff" rx="12" />
      <g>
        <g>
          <mask id="b" fill="#fff">
            <path
              d="M233 255.5a3 3 0 0 1 3-3h42a3 3 0 0 1 3 3v59a3 3 0 0 1-3 3h-42a3 3 0 0 1-3-3v-59Z" />
          </mask>
          <path fill="#000"
            d="M230 255.5a6 6 0 0 1 6-6h52a6 6 0 0 1 6 6h-64Zm64 59a6 6 0 0 1-6 6h-52a6 6 0 0 1-6-6h64Zm-58 6a6 6 0 0 1-6-6v-59a6 6 0 0 1 6-6v71Zm52-71a6 6 0 0 1 6 6v59a6 6 0 0 1-6 6l-20-6v-59l20-6Z"
            mask="url(#b)" />
        </g>
        <path fill="#fff"
          d="m272.71 279.7.8-.8v4.6a1 1 0 1 0 1.99 0v-4.6l.79.8a.99.99 0 0 0 1.09.23 1 1 0 0 0 .32-1.64l-2.5-2.5a.87.87 0 0 0-.32-.22 1 1 0 0 0-.76 0 1 1 0 0 0-.33.22l-2.5 2.5a1 1 0 0 0 1.42 1.42Zm3.58 11.59-.8.8v-4.6a1 1 0 1 0-1.99 0v4.6l-.79-.8a1.01 1.01 0 0 0-1.1-.22 1.01 1.01 0 0 0-.53 1.31c.05.13.12.24.21.33l2.5 2.5c.1.1.2.16.33.21a.93.93 0 0 0 .76 0c.12-.05.23-.12.33-.21l2.5-2.5a1 1 0 0 0-1.42-1.42Z" />
        <path fill="#000"
          d="M251.5 273a5.25 5.25 0 1 0 0-10.5 5.25 5.25 0 0 0 0 10.5Zm4.5 0h-9a6.01 6.01 0 0 0-6 6v10.08a1.9 1.9 0 0 0 1.8 1.92 1.88 1.88 0 0 0 1.95-1.88v-9.35a.77.77 0 0 1 .7-.77.74.74 0 0 1 .74.45c.04.1.06.2.06.3v27.1a2.15 2.15 0 1 0 4.31 0v-13.38a.96.96 0 0 1 .88-.97.93.93 0 0 1 1 .94v13.4a2.15 2.15 0 1 0 4.31 0v-27.06a.77.77 0 0 1 .7-.78.74.74 0 0 1 .74.45c.04.1.06.2.06.3v9.33a1.9 1.9 0 0 0 1.8 1.92 1.88 1.88 0 0 0 1.95-1.88V279a6.01 6.01 0 0 0-6-6Z" />
      </g>
    </g>
    <g data-object="Сокол__t__2392:960">
      <rect width="48" height="57" x="492" y="287" fill="#60A5FA" rx="12"
        transform="rotate(90 492 287)" />
      <g fill="#fff" clip-path="url(#c)">
        <path
          d="M477 311a5.25 5.25 0 1 0 10.5 0 5.25 5.25 0 0 0-10.5 0Zm-1.5 4.5v-9a6.01 6.01 0 0 0-6-6h-10.08a1.9 1.9 0 0 0-1.92 1.8 1.88 1.88 0 0 0 1.88 1.95h9.35a.77.77 0 0 1 .77.7.74.74 0 0 1-.45.74.8.8 0 0 1-.3.06h-27.1a2.15 2.15 0 1 0 0 4.31h13.38a.96.96 0 0 1 .97.88.93.93 0 0 1-.94 1h-13.4a2.15 2.15 0 1 0 0 4.31h27.06a.77.77 0 0 1 .78.7.74.74 0 0 1-.45.74.8.8 0 0 1-.3.06h-9.33a1.9 1.9 0 0 0-1.92 1.8 1.88 1.88 0 0 0 1.88 1.95h10.12a6.01 6.01 0 0 0 6-6Z" />
      </g>
    </g>
    <g data-object="Сокол__t__2392:961">
      <rect width="48" height="57" x="492" y="236" fill="#60A5FA" rx="12"
        transform="rotate(90 492 236)" />
      <g fill="#fff" clip-path="url(#d)">
        <path
          d="M477 259.98a5.25 5.25 0 1 0 10.5 0 5.25 5.25 0 0 0-10.5 0ZM461.45 273l3.22-.97h.01l7.02-2.1v-.01l.8-.24a4.2 4.2 0 0 0 3-4.03V254.4a4.2 4.2 0 0 0-3-4.03l-.8-.24-7.02-2.1-3.23-.98a1.87 1.87 0 1 0-1.12 3.58l7.99 2.4.68.2a.75.75 0 0 1 .48.83.75.75 0 0 1-.73.63.7.7 0 0 1-.15-.02l-13.67-4.1a1.48 1.48 0 0 0-1.32.24 1.5 1.5 0 0 0-.61 1.2v2.72h-10.75c-1.55 0-2.75.98-2.75 2.25 0 1.26 1.2 2.25 2.75 2.25H453v1.5h-10.75c-1.55 0-2.75.98-2.75 2.25 0 1.26 1.2 2.25 2.75 2.25H453v2.8a1.51 1.51 0 0 0 .6 1.21 1.5 1.5 0 0 0 1.33.24l13.67-4.1.15-.02a.75.75 0 0 1 .74.63.75.75 0 0 1-.5.83l-.67.2-8 2.4a1.87 1.87 0 0 0-1.23 2.4 1.9 1.9 0 0 0 2.36 1.18Z" />
      </g>
    </g>
  </g>
  <defs>
    <clipPath id="c">
      <path fill="#fff" d="M487.5 287v48h-48v-48z" />
    </clipPath>
    <clipPath id="d">
      <path fill="#fff" d="M487.5 236v48h-48v-48z" />
    </clipPath>
  </defs>
</svg>