<svg xmlns="http://www.w3.org/2000/svg" width="742" height="576" fill="none" viewBox="0 0 742 576">
  <g>
    <g>
      <rect width="23" height="29" x="326" y="174" fill="#262A34" rx="3" />
    </g>
    <g>
      <rect width="15" height="29" x="456" y="319" fill="#262A34" rx="3" />
    </g>
    <g>
      <rect width="13" height="29" x="114" y="170" fill="#262A34" rx="3" />
    </g>
    <g>
      <rect width="23" height="29" x="275" y="385" fill="#262A34" rx="3" />
    </g>
    <g>
      <rect width="15" height="29" x="456" y="213" fill="#262A34" rx="3" />
    </g>
    <g>
      <rect width="17" height="29" x="183" y="425" fill="#262A34" rx="3" />
    </g>
    <g>
      <rect width="23" height="29" x="454" y="172" fill="#262A34" rx="3" />
    </g>
    <g>
      <rect width="27" height="29" x="513" y="172" fill="#262A34" rx="3" />
    </g>
    <g data-object="Сокол__t__2471:15681">
      <rect width="48" height="57" x="490" y="286" fill="#60A5FA" rx="12"
        transform="rotate(90 490 286)" />
      <g fill="#fff" clip-path="url(#a)">
        <path
          d="M475 310a5.25 5.25 0 1 0 10.5 0 5.25 5.25 0 0 0-10.5 0Zm-1.5 4.5v-9a6.01 6.01 0 0 0-6-6h-10.08a1.9 1.9 0 0 0-1.92 1.8 1.88 1.88 0 0 0 1.88 1.95h9.35a.77.77 0 0 1 .77.7.74.74 0 0 1-.45.74.8.8 0 0 1-.3.06h-27.1a2.15 2.15 0 1 0 0 4.31h13.38a.96.96 0 0 1 .97.88.93.93 0 0 1-.94 1h-13.4a2.15 2.15 0 1 0 0 4.31h27.06a.77.77 0 0 1 .78.7.74.74 0 0 1-.45.74.8.8 0 0 1-.3.06h-9.33a1.9 1.9 0 0 0-1.92 1.8 1.88 1.88 0 0 0 1.88 1.95h10.12a6.01 6.01 0 0 0 6-6Z" />
      </g>
    </g>
    <g data-object="Сокол__t__2471:15682">
      <rect width="48" height="57" x="490" y="235" fill="#60A5FA" rx="12"
        transform="rotate(90 490 235)" />
      <g fill="#fff" clip-path="url(#b)">
        <path
          d="M475 258.98a5.25 5.25 0 1 0 10.5 0 5.25 5.25 0 0 0-10.5 0ZM459.45 272l3.22-.97h.01l7.02-2.1v-.01l.8-.24a4.2 4.2 0 0 0 3-4.03V253.4a4.2 4.2 0 0 0-3-4.03l-.8-.24-7.02-2.1-3.23-.98a1.87 1.87 0 1 0-1.12 3.58l7.99 2.4.68.2a.75.75 0 0 1 .48.83.75.75 0 0 1-.73.63.7.7 0 0 1-.15-.02l-13.67-4.1a1.48 1.48 0 0 0-1.32.24 1.5 1.5 0 0 0-.61 1.2v2.72h-10.75c-1.55 0-2.75.98-2.75 2.25 0 1.26 1.2 2.25 2.75 2.25H451v1.5h-10.75c-1.55 0-2.75.98-2.75 2.25 0 1.26 1.2 2.25 2.75 2.25H451v2.8a1.51 1.51 0 0 0 .6 1.21 1.5 1.5 0 0 0 1.33.24l13.67-4.1.15-.02a.75.75 0 0 1 .74.63.75.75 0 0 1-.5.83l-.67.2-8 2.4a1.87 1.87 0 0 0-1.23 2.4 1.9 1.9 0 0 0 2.36 1.18Z" />
      </g>
    </g>
    <g data-object="Сокол__e__2471:15683">
      <rect width="50" height="99" x="380" y="235" fill="#fff" rx="12" />
      <g>
        <g>
          <mask id="c" fill="#fff">
            <path
              d="M381 254.5a3 3 0 0 1 3-3h42a3 3 0 0 1 3 3v59a3 3 0 0 1-3 3h-42a3 3 0 0 1-3-3v-59Z" />
          </mask>
          <path fill="#000"
            d="M378 254.5a6 6 0 0 1 6-6h52a6 6 0 0 1 6 6h-64Zm64 59a6 6 0 0 1-6 6h-52a6 6 0 0 1-6-6h64Zm-58 6a6 6 0 0 1-6-6v-59a6 6 0 0 1 6-6v71Zm52-71a6 6 0 0 1 6 6v59a6 6 0 0 1-6 6l-20-6v-59l20-6Z"
            mask="url(#c)" />
        </g>
        <path fill="#fff"
          d="m420.71 278.7.8-.8v4.6a1 1 0 1 0 1.99 0v-4.6l.79.8a.99.99 0 0 0 1.09.23 1 1 0 0 0 .32-1.64l-2.5-2.5a.87.87 0 0 0-.32-.22 1 1 0 0 0-.76 0 1 1 0 0 0-.33.22l-2.5 2.5a1 1 0 0 0 1.42 1.42Zm3.58 11.59-.8.8v-4.6a1 1 0 1 0-1.99 0v4.6l-.79-.8a1.01 1.01 0 0 0-1.1-.22 1.01 1.01 0 0 0-.53 1.31c.05.13.12.24.21.33l2.5 2.5c.1.1.2.16.33.21a.93.93 0 0 0 .76 0c.12-.05.23-.12.33-.21l2.5-2.5a1 1 0 0 0-1.42-1.42Z" />
        <path fill="#000"
          d="M399.5 272a5.25 5.25 0 1 0 0-10.5 5.25 5.25 0 0 0 0 10.5Zm4.5 0h-9a6.01 6.01 0 0 0-6 6v10.08a1.9 1.9 0 0 0 1.8 1.92 1.88 1.88 0 0 0 1.95-1.88v-9.35a.77.77 0 0 1 .7-.77.74.74 0 0 1 .74.45c.04.1.06.2.06.3v27.1a2.15 2.15 0 1 0 4.31 0v-13.38a.96.96 0 0 1 .88-.97.93.93 0 0 1 1 .94v13.4a2.15 2.15 0 1 0 4.31 0v-27.06a.77.77 0 0 1 .7-.78.74.74 0 0 1 .74.45c.04.1.06.2.06.3v9.33a1.9 1.9 0 0 0 1.8 1.92 1.88 1.88 0 0 0 1.95-1.88V278a6.01 6.01 0 0 0-6-6Z" />
      </g>
    </g>
    <g data-object="Сокол__r__6059:1110">
      <path fill="#45B1B8"
        d="M130.5 385a6 6 0 0 1 6 6v39a6 6 0 0 0 6 6H241a6 6 0 0 1 6 6v121a6 6 0 0 1-6 6H6a6 6 0 0 1-6-6V391a6 6 0 0 1 6-6h124.5Z" />
      <path fill="#fff"
        d="M92.77 478.67c0 2.5-.47 4.65-1.4 6.44a9.98 9.98 0 0 1-3.83 4.09c-1.6.95-3.43 1.42-5.46 1.42-2.04 0-3.87-.47-5.48-1.42a10.16 10.16 0 0 1-3.82-4.1 13.76 13.76 0 0 1-1.4-6.44c0-2.5.47-4.65 1.4-6.43a10.06 10.06 0 0 1 3.82-4.1 10.62 10.62 0 0 1 5.48-1.42c2.03 0 3.86.47 5.46 1.42a9.96 9.96 0 0 1 3.82 4.1 13.64 13.64 0 0 1 1.41 6.44Zm-4.24 0c0-1.77-.28-3.26-.83-4.47a6.15 6.15 0 0 0-2.27-2.76 6.03 6.03 0 0 0-3.35-.95c-1.27 0-2.39.32-3.36.95a6.22 6.22 0 0 0-2.28 2.76c-.55 1.21-.82 2.7-.82 4.47 0 1.76.27 3.25.82 4.47a6.3 6.3 0 0 0 2.28 2.76c.97.63 2.1.94 3.36.94 1.26 0 2.38-.31 3.35-.94a6.22 6.22 0 0 0 2.27-2.76c.55-1.22.83-2.71.83-4.47Zm15.96 17.56v-29.2h4.13v29.2h-4.13Zm0-5.59a9.23 9.23 0 0 1-3.5-.65 7.98 7.98 0 0 1-4.54-4.68c-.42-1.1-.63-2.33-.63-3.67 0-1.34.21-2.56.63-3.67a7.9 7.9 0 0 1 4.53-4.7 9.23 9.23 0 0 1 3.51-.65h.88v18.02h-.88Zm0-3.32h.52v-11.38h-.52a4 4 0 0 0-3.32 1.7 5.9 5.9 0 0 0-.86 1.8 8.14 8.14 0 0 0-.28 2.2c0 1.04.17 2 .51 2.85a4.8 4.8 0 0 0 1.5 2.06 3.9 3.9 0 0 0 2.45.77Zm4.13 3.32h-.88v-18.02h.88c1.28 0 2.45.21 3.51.65a8.16 8.16 0 0 1 4.52 4.7c.43 1.1.64 2.33.64 3.67 0 1.34-.21 2.57-.64 3.67a8.17 8.17 0 0 1-1.78 2.84 7.83 7.83 0 0 1-2.74 1.84 9.23 9.23 0 0 1-3.51.65Zm0-3.32c.73 0 1.38-.14 1.93-.44a4 4 0 0 0 1.39-1.23c.38-.52.66-1.12.85-1.8a8.31 8.31 0 0 0-.22-5.06 4.66 4.66 0 0 0-1.5-2.07 3.83 3.83 0 0 0-2.45-.78h-.51v11.38h.5Zm16.1-2.59 7-11.88h4.22v17.45h-3.97v-11.9L125 490.3h-4.24v-17.45h3.97v11.88Zm23.06 5.91a8.43 8.43 0 0 1-4.49-1.15 7.66 7.66 0 0 1-2.87-3.17 10.4 10.4 0 0 1-1-4.68c0-1.77.34-3.33 1.02-4.7a7.63 7.63 0 0 1 2.89-3.17 8.32 8.32 0 0 1 4.43-1.15c1.42 0 2.67.26 3.76.78a6.43 6.43 0 0 1 3.74 5.5h-3.93a3.75 3.75 0 0 0-1.14-2.11 3.28 3.28 0 0 0-2.38-.85c-.84 0-1.57.23-2.21.68a4.37 4.37 0 0 0-1.49 1.93 7.87 7.87 0 0 0-.52 3.02c0 1.2.17 2.22.52 3.07.35.85.84 1.5 1.47 1.97.63.45 1.38.68 2.23.68.61 0 1.15-.11 1.63-.34.49-.24.9-.57 1.22-1.01a4 4 0 0 0 .67-1.6h3.93a6.46 6.46 0 0 1-3.66 5.51 8.6 8.6 0 0 1-3.82.8Z" />
    </g>
    <g data-object="Сокол__r__6059:841">
      <path fill="#45B1B8"
        d="M179.5 2a6 6 0 0 1 6 6v164a6 6 0 0 1-6 6h-119a6 6 0 0 0-6 6 6 6 0 0 1-6 6H6a6 6 0 0 1-6-6V8a6 6 0 0 1 6-6h173.5Z" />
      <path fill="#fff"
        d="M75.1 96.36c0 2.51-.48 4.66-1.42 6.45a9.98 9.98 0 0 1-3.82 4.09c-1.6.94-3.42 1.42-5.46 1.42s-3.87-.47-5.48-1.42a10.16 10.16 0 0 1-3.82-4.1 13.75 13.75 0 0 1-1.4-6.44c0-2.5.47-4.65 1.4-6.43a10.06 10.06 0 0 1 3.82-4.1 10.62 10.62 0 0 1 5.48-1.42c2.04 0 3.86.47 5.46 1.42a9.96 9.96 0 0 1 3.82 4.1 13.63 13.63 0 0 1 1.41 6.43Zm-4.25 0c0-1.76-.27-3.25-.83-4.46a6.15 6.15 0 0 0-2.27-2.76 6.02 6.02 0 0 0-3.35-.95 6 6 0 0 0-3.35.95 6.21 6.21 0 0 0-2.29 2.76c-.54 1.21-.82 2.7-.82 4.46 0 1.77.28 3.26.82 4.48a6.3 6.3 0 0 0 2.29 2.76c.97.62 2.08.93 3.35.93 1.26 0 2.38-.3 3.35-.93a6.23 6.23 0 0 0 2.27-2.76c.56-1.22.83-2.71.83-4.48Zm15.97 17.57v-29.2h4.12v29.2h-4.12Zm0-5.59a9.22 9.22 0 0 1-3.52-.65 7.98 7.98 0 0 1-4.53-4.68c-.42-1.1-.63-2.33-.63-3.67 0-1.34.21-2.56.63-3.67a7.9 7.9 0 0 1 4.53-4.7 9.23 9.23 0 0 1 3.52-.65h.87v18.02h-.87Zm0-3.32h.5V93.64h-.5a4 4 0 0 0-3.33 1.69 5.92 5.92 0 0 0-.86 1.82 8.16 8.16 0 0 0-.28 2.2c0 1.03.17 1.98.51 2.84a4.8 4.8 0 0 0 1.5 2.06 3.9 3.9 0 0 0 2.46.77Zm4.12 3.32h-.87V90.32h.87c1.28 0 2.45.21 3.51.65a8.17 8.17 0 0 1 4.52 4.7c.43 1.1.64 2.33.64 3.67 0 1.34-.21 2.56-.64 3.67a8.18 8.18 0 0 1-1.78 2.84 7.74 7.74 0 0 1-2.74 1.84 9.23 9.23 0 0 1-3.51.65Zm0-3.32a3.96 3.96 0 0 0 3.32-1.67 5.6 5.6 0 0 0 .85-1.8c.19-.7.28-1.43.28-2.2 0-1.05-.16-2-.5-2.86a4.67 4.67 0 0 0-1.5-2.07 3.83 3.83 0 0 0-2.45-.78h-.51v11.38h.51Zm16.1-2.59 7-11.88h4.22V108h-3.97V96.1l-6.97 11.9h-4.24V90.55h3.97v11.88Zm23.06 5.91a8.43 8.43 0 0 1-4.49-1.15 7.66 7.66 0 0 1-2.87-3.17 10.4 10.4 0 0 1-1-4.68c0-1.77.34-3.34 1.02-4.7a7.63 7.63 0 0 1 2.89-3.17 8.32 8.32 0 0 1 4.43-1.15 8.6 8.6 0 0 1 3.76.78 6.43 6.43 0 0 1 3.74 5.5h-3.93a3.76 3.76 0 0 0-1.14-2.11 3.28 3.28 0 0 0-2.37-.85 3.7 3.7 0 0 0-2.22.68 4.37 4.37 0 0 0-1.49 1.93 7.87 7.87 0 0 0-.52 3.02c0 1.2.17 2.22.52 3.07.35.85.84 1.5 1.47 1.97.63.45 1.38.68 2.24.68.6 0 1.14-.11 1.62-.34.49-.24.9-.57 1.22-1.01a4 4 0 0 0 .67-1.6h3.93a6.45 6.45 0 0 1-3.66 5.51 8.6 8.6 0 0 1-3.82.8Z" />
    </g>
    <g data-object="Сокол__s__2379:1520">
      <rect width="75" height="115" x="52" y="259" fill="#fff" rx="12" />
      <g clip-path="url(#d)">
        <path fill="#000"
          d="M111.95 299.5h-7.49v7.5c0 .13-.01.22-.04.28a1.47 1.47 0 0 1-1.46 1.22h-7.49v7.5c0 .13-.01.22-.05.28a1.48 1.48 0 0 1-1.45 1.22h-7.49v7.5c0 .13-.02.22-.05.28a1.48 1.48 0 0 1-1.45 1.22h-7.5v7.5c0 .13 0 .22-.04.28A1.48 1.48 0 0 1 76 335.5h-9c-.4 0-.75-.15-1.05-.44a1.5 1.5 0 0 1 0-2.12c.3-.3.65-.44 1.06-.44h7.5V325c0-.13 0-.22.04-.28.06-.35.23-.63.51-.87.28-.23.6-.35.94-.35h7.5V316c0-.13 0-.22.04-.28.06-.35.23-.63.51-.87.29-.23.6-.35.94-.35h7.5V307c0-.1 0-.19.04-.28.06-.35.23-.63.52-.87.28-.23.59-.35.93-.35h7.5V298c0-.13.01-.22.04-.28a1.48 1.48 0 0 1 1.45-1.22h9c.4 0 .75.15 1.05.44.3.3.44.65.44 1.06 0 .4-.14.76-.44 1.06-.3.3-.65.44-1.06.44Z" />
      </g>
    </g>
    <g>
      <path fill="#262A34"
        d="M54 252.5a3.5 3.5 0 0 0 3.5 3.5H124a3.5 3.5 0 0 0 3.5-3.5V237a6 6 0 0 1 6-6h18a4 4 0 0 1 4 4 1 1 0 0 1-1 1h-11a6 6 0 0 0-6 6v86a6 6 0 0 0 6 6h9.75a2.25 2.25 0 1 1 0 4.5h-9.75a6 6 0 0 0-6 6v79.56a6 6 0 0 0 5.94 6l96.5.88a6 6 0 0 0 6.06-6V396.5a6 6 0 0 1 6-6h352.25a6 6 0 0 0 6-5.75l1.68-40a6 6 0 0 0-6-6.25H174.26a2.25 2.25 0 1 1 0-4.5h19.25a6 6 0 0 0 6-6v-86a6 6 0 0 0-6-6H173a1 1 0 0 1-1-1 4 4 0 0 1 4-4h154a2.5 2.5 0 1 1 0 5h-17a6 6 0 0 0-6 6v86a6 6 0 0 0 6 6h16.5a6 6 0 0 1 6 6v1.13a6 6 0 0 0 6.36 5.98l4.5-.27a6 6 0 0 0 5.64-5.99V340a6 6 0 0 1 6-6h13.5a6 6 0 0 0 6-6v-86a6 6 0 0 0-6-6H352a2.5 2.5 0 1 1 0-5h203a6 6 0 0 1 6 6v130a6 6 0 0 0 6 6h37.83a6 6 0 0 0 6-5.9L613 231v-28.5a6 6 0 0 0-6-6H324.5a6 6 0 0 1-6-6V187a2.5 2.5 0 0 0-2.5-2.5H141.5a4 4 0 0 0-4 4v17a3.5 3.5 0 0 1-3.5 3.5h-3a3.5 3.5 0 0 1-3.5-3.5v-20a3 3 0 0 0-3-3h-63A2.5 2.5 0 0 0 59 185v4.5c0 .83-.67 1.5-1.5 1.5H52a3 3 0 0 0-3 3v39.99a2.78 2.78 0 0 0 2.5 2.76 2.78 2.78 0 0 1 2.5 2.76v12.99Z" />
    </g>
    <g data-object="Сокол__r__2387:238">
      <rect width="106" height="48" x="562" y="338" fill="#78B500" rx="12"
        transform="rotate(-90 562 338)" />
      <path fill="#fff"
        d="M583.26 304.52v2.92a3.63 3.63 0 0 0-2.23 1.3 4.3 4.3 0 0 0-.78 2.5 4.14 4.14 0 0 0 2.56 3.9c.83.38 1.85.56 3.05.56 1.23 0 2.26-.19 3.1-.56a4.33 4.33 0 0 0 1.88-1.58 4.66 4.66 0 0 0 .45-3.65 3.69 3.69 0 0 0-1.5-1.99c-.36-.23-.77-.4-1.24-.48l.01-2.92a6.28 6.28 0 0 1 3.91 2.12 6.81 6.81 0 0 1 1.61 4.65 6.81 6.81 0 0 1-3.8 6.38c-1.23.63-2.7.95-4.42.95-1.72 0-3.2-.32-4.42-.96a6.86 6.86 0 0 1-3.8-6.37c0-.89.13-1.72.38-2.48a6.24 6.24 0 0 1 2.86-3.53 6.6 6.6 0 0 1 2.38-.76Zm10.6-2.53h-12v-2.83h4.85v-1.03l-4.85-3.61v-3.4l5.9 4.44 6.1-4.5v3.43l-4.52 3.29v1.38h4.52v2.83Zm0-11.7-2.33.02v-.42c0-.31-.07-.57-.2-.79a1.62 1.62 0 0 0-.71-.53 5.53 5.53 0 0 0-1.35-.33 21.5 21.5 0 0 0-2.1-.16l-5.3-.21v-8.75h12v2.73h-9.69v3.45l3.87.19c1 .04 1.87.15 2.6.33.73.17 1.33.42 1.8.74.48.3.83.7 1.07 1.18.23.47.34 1.03.34 1.68v.87Zm.24-17.47a5 5 0 0 1-.4 2.05c-.28.6-.69 1.09-1.22 1.44-.54.35-1.2.52-1.99.52a2.9 2.9 0 0 1-2.74-1.4 5.18 5.18 0 0 1-.6-1.45 11.9 11.9 0 0 1-.3-1.7 68.4 68.4 0 0 0-.2-1.71 2.55 2.55 0 0 0-.28-.95c-.13-.2-.33-.3-.6-.3h-.05c-.59 0-1.04.17-1.37.51-.32.35-.48.86-.48 1.51 0 .7.15 1.24.45 1.65.3.4.66.67 1.07.81l-.37 2.64a4.23 4.23 0 0 1-2.94-2.79 7.45 7.45 0 0 1-.17-4.02c.13-.57.36-1.1.67-1.57.3-.47.73-.85 1.26-1.14a4.1 4.1 0 0 1 1.99-.44h8.03v2.72h-1.65v.1a3.44 3.44 0 0 1 1.63 1.89c.18.46.26 1 .26 1.63Zm-2.08-.74c0-.56-.1-1.06-.33-1.47a2.48 2.48 0 0 0-.9-.96 2.3 2.3 0 0 0-1.23-.35h-1.42c.08.1.14.24.2.46.07.2.12.44.17.7a20.36 20.36 0 0 1 .22 1.44c.05.42.15.8.28 1.13.13.33.31.6.55.79.23.2.52.29.89.29.52 0 .91-.2 1.18-.57.26-.38.4-.87.4-1.46Zm5.33-7.38h-5.82v-.95c-.2-.26-.46-.47-.8-.64a5.54 5.54 0 0 0-1.21-.42c-.47-.12-1-.21-1.57-.29l-1.89-.2-4.2-.33v-8.68h9.67v-1.86h5.82v2.74h-3.49v7.85h3.49v2.78Zm-5.82-3.86v-4.94h-7.39v3.51l1.92.19c1.28.1 2.36.24 3.27.41.9.18 1.64.45 2.2.83Z" />
    </g>
    <g data-object="Сокол__e__2387:265">
      <rect width="99" height="99" x="204" y="235" fill="#fff" rx="12" />
      <g clip-path="url(#e)">
        <g>
          <mask id="f" fill="#fff">
            <path
              d="M229.5 254.5a3 3 0 0 1 3-3h42a3 3 0 0 1 3 3v59a3 3 0 0 1-3 3h-42a3 3 0 0 1-3-3v-59Z" />
          </mask>
          <path fill="#000"
            d="M226.5 254.5a6 6 0 0 1 6-6h52a6 6 0 0 1 6 6h-64Zm64 59a6 6 0 0 1-6 6h-52a6 6 0 0 1-6-6h64Zm-58 6a6 6 0 0 1-6-6v-59a6 6 0 0 1 6-6v71Zm52-71a6 6 0 0 1 6 6v59a6 6 0 0 1-6 6l-20-6v-59l20-6Z"
            mask="url(#f)" />
        </g>
        <path fill="#fff"
          d="m269.21 278.7.8-.8v4.6a1 1 0 1 0 1.99 0v-4.6l.79.8a.99.99 0 0 0 1.09.23 1 1 0 0 0 .32-1.64l-2.5-2.5a.87.87 0 0 0-.32-.22 1 1 0 0 0-.76 0 1 1 0 0 0-.33.22l-2.5 2.5a1 1 0 0 0 1.42 1.42Zm3.58 11.59-.8.8v-4.6a1 1 0 1 0-1.99 0v4.6l-.79-.8a1.01 1.01 0 0 0-1.1-.22 1.01 1.01 0 0 0-.53 1.31c.05.13.12.24.21.33l2.5 2.5c.1.1.2.16.33.21a.93.93 0 0 0 .76 0c.12-.05.23-.12.33-.21l2.5-2.5a1 1 0 0 0-1.42-1.42Z" />
        <path fill="#000"
          d="M248 272a5.25 5.25 0 1 0 0-10.5 5.25 5.25 0 0 0 0 10.5Zm4.5 0h-9a6.01 6.01 0 0 0-6 6v10.08a1.9 1.9 0 0 0 1.8 1.92 1.88 1.88 0 0 0 1.95-1.88v-9.35a.77.77 0 0 1 .7-.77.74.74 0 0 1 .74.45c.04.1.06.2.06.3v27.1a2.15 2.15 0 1 0 4.31 0v-13.38a.96.96 0 0 1 .88-.97.93.93 0 0 1 1 .94v13.4a2.15 2.15 0 1 0 4.31 0v-27.06a.77.77 0 0 1 .7-.78.74.74 0 0 1 .74.45c.04.1.06.2.06.3v9.33a1.9 1.9 0 0 0 1.8 1.92 1.88 1.88 0 0 0 1.95-1.88V278a6.01 6.01 0 0 0-6-6Z" />
      </g>
    </g>
    <g data-object="Сокол__r__2392:1136">
      <rect width="489" height="181" x="253" y="395" fill="#78B500" rx="12" />
      <path fill="#fff"
        d="M452.17 497.8v-23.26h8.91c1.68 0 3.08.26 4.2.8a5.6 5.6 0 0 1 2.5 2.14c.57.9.85 1.94.85 3.09a4.6 4.6 0 0 1-2.01 4.06 6.2 6.2 0 0 1-2.06.9v.22a5.29 5.29 0 0 1 4.25 2.7c.48.83.73 1.84.73 3.02 0 1.2-.3 2.29-.88 3.25a5.95 5.95 0 0 1-2.64 2.26 10.4 10.4 0 0 1-4.43.83h-9.42Zm4.22-3.51h4.53c1.53 0 2.63-.3 3.3-.88a2.87 2.87 0 0 0 1.03-2.27 3.48 3.48 0 0 0-1.96-3.18 4.84 4.84 0 0 0-2.25-.5h-4.65v6.83Zm0-9.86h4.17a4.7 4.7 0 0 0 1.96-.4 3.07 3.07 0 0 0 1.89-2.92c0-.9-.32-1.64-.95-2.22-.63-.58-1.57-.88-2.81-.88h-4.26v6.42Zm24.67-10.21c1.1 0 2.2.2 3.25.59a7.6 7.6 0 0 1 2.86 1.86 9 9 0 0 1 2.02 3.45c.5 1.44.75 3.21.75 5.34 0 2-.2 3.78-.63 5.36a11.9 11.9 0 0 1-1.83 3.98 8.08 8.08 0 0 1-2.88 2.47 8.26 8.26 0 0 1-3.78.86 8.53 8.53 0 0 1-3.91-.87 7.35 7.35 0 0 1-4.03-5.8h4.15c.22.93.65 1.67 1.3 2.21.66.54 1.49.8 2.49.8 1.61 0 2.85-.7 3.72-2.1.88-1.4 1.31-3.34 1.31-5.83h-.16a5.99 5.99 0 0 1-3.45 2.83 7.4 7.4 0 0 1-2.37.38 7.04 7.04 0 0 1-6.26-3.66 8.01 8.01 0 0 1-.95-3.9 8 8 0 0 1 1.04-4.07 7.58 7.58 0 0 1 2.95-2.87 8.7 8.7 0 0 1 4.4-1.03Zm0 3.4a4.18 4.18 0 0 0-3.75 2.22 4.77 4.77 0 0 0 0 4.51 4.14 4.14 0 0 0 3.72 2.2 4.19 4.19 0 0 0 3.1-1.33 4.61 4.61 0 0 0 1.25-3.15 4.43 4.43 0 0 0-2.1-3.83 4.03 4.03 0 0 0-2.21-.61Zm23.3 6.86v3.39h-10.49v-3.4h10.48Zm12.87 13.77a8.14 8.14 0 0 1-4.81-1.42 9.05 9.05 0 0 1-3.08-4.12 17.73 17.73 0 0 1-1.07-6.51c0-2.54.37-4.7 1.08-6.48a8.9 8.9 0 0 1 3.08-4.1 8.16 8.16 0 0 1 4.8-1.4c1.87 0 3.47.47 4.81 1.4a8.8 8.8 0 0 1 3.08 4.1 17.36 17.36 0 0 1 1.08 6.47c0 2.55-.36 4.73-1.08 6.53a8.88 8.88 0 0 1-3.08 4.11 8.09 8.09 0 0 1-4.8 1.42Zm0-3.56c1.46 0 2.6-.71 3.45-2.14.85-1.44 1.27-3.56 1.27-6.36 0-1.84-.2-3.4-.58-4.65a6.18 6.18 0 0 0-1.64-2.85 3.58 3.58 0 0 0-2.5-.96c-1.44 0-2.59.72-3.43 2.16-.84 1.43-1.26 3.53-1.27 6.3 0 1.86.18 3.42.56 4.69a6.27 6.27 0 0 0 1.63 2.86c.7.64 1.54.95 2.51.95Zm20.84 3.44a9.38 9.38 0 0 1-4.07-.86 7.26 7.26 0 0 1-2.85-2.36c-.7-1-1.07-2.14-1.12-3.43h4.1a3.2 3.2 0 0 0 1.23 2.34c.75.6 1.65.9 2.7.9a4.08 4.08 0 0 0 3.73-2.15c.38-.67.56-1.44.55-2.3 0-.89-.18-1.67-.56-2.35a4.16 4.16 0 0 0-1.55-1.6c-.66-.4-1.42-.6-2.28-.6-.7 0-1.38.13-2.05.4a4.2 4.2 0 0 0-1.6 1.04l-3.81-.62 1.21-12h13.5v3.52h-10l-.68 6.17h.14c.43-.5 1.04-.93 1.83-1.26a6.46 6.46 0 0 1 2.59-.51 7.17 7.17 0 0 1 6.38 3.72c.64 1.16.96 2.49.96 3.98 0 1.54-.36 2.91-1.07 4.11a7.55 7.55 0 0 1-2.94 2.83 8.92 8.92 0 0 1-4.34 1.03Z" />
    </g>
    <g data-object="Сокол__r__2387:281">
      <rect width="175" height="178" x="194" fill="#78B500" rx="12" />
      <path fill="#fff"
        d="M235.25 100.82V77.54h8.9c1.69 0 3.09.27 4.2.8a5.6 5.6 0 0 1 2.51 2.15c.56.9.84 1.94.84 3.09a4.58 4.58 0 0 1-2.01 4.06 6.2 6.2 0 0 1-2.05.9v.22a5.28 5.28 0 0 1 4.25 2.7c.48.83.72 1.83.72 3.02a6.2 6.2 0 0 1-.87 3.25 5.95 5.95 0 0 1-2.64 2.26 10.4 10.4 0 0 1-4.43.83h-9.42Zm4.22-3.53H244c1.53 0 2.63-.29 3.3-.87a2.87 2.87 0 0 0 1.03-2.27 3.48 3.48 0 0 0-1.97-3.18 4.84 4.84 0 0 0-2.25-.5h-4.65v6.82Zm0-9.85h4.17a4.7 4.7 0 0 0 1.96-.4 3.07 3.07 0 0 0 1.89-2.92c0-.9-.32-1.64-.96-2.22-.63-.59-1.56-.88-2.8-.88h-4.26v6.42Zm24.66-10.21c1.12 0 2.2.2 3.25.59 1.06.38 2.02 1 2.87 1.86a9 9 0 0 1 2.02 3.44c.5 1.44.75 3.22.75 5.35 0 2-.2 3.78-.64 5.36a11.91 11.91 0 0 1-1.83 3.98 8.07 8.07 0 0 1-2.87 2.47 8.25 8.25 0 0 1-3.79.86 8.53 8.53 0 0 1-3.9-.87 7.34 7.34 0 0 1-4.03-5.8h4.15c.21.93.64 1.67 1.3 2.21.65.54 1.48.8 2.48.8 1.62 0 2.86-.7 3.73-2.1.87-1.4 1.3-3.34 1.3-5.84h-.15a5.97 5.97 0 0 1-3.45 2.83c-.75.26-1.54.4-2.37.4a7.04 7.04 0 0 1-6.26-3.67 8 8 0 0 1-.95-3.9 8 8 0 0 1 1.04-4.08 7.59 7.59 0 0 1 2.94-2.86 8.7 8.7 0 0 1 4.41-1.03Zm.01 3.4a4.18 4.18 0 0 0-3.76 2.22 4.75 4.75 0 0 0 0 4.51 4.14 4.14 0 0 0 3.72 2.2 4.2 4.2 0 0 0 3.1-1.33 4.64 4.64 0 0 0 1.26-3.15c0-.8-.19-1.53-.57-2.2a4.38 4.38 0 0 0-1.53-1.63 4.04 4.04 0 0 0-2.22-.61Zm23.29 6.86v3.38h-10.48V87.5h10.48Zm12.88 13.77a8.13 8.13 0 0 1-4.82-1.42 9.05 9.05 0 0 1-3.08-4.12 17.74 17.74 0 0 1-1.06-6.52c0-2.53.36-4.7 1.07-6.47a8.91 8.91 0 0 1 3.08-4.1 8.16 8.16 0 0 1 4.81-1.4c1.87 0 3.47.47 4.8 1.4a8.8 8.8 0 0 1 3.09 4.1 17.34 17.34 0 0 1 1.08 6.47c0 2.55-.36 4.72-1.08 6.53a8.88 8.88 0 0 1-3.08 4.11 8.09 8.09 0 0 1-4.8 1.42Zm0-3.56c1.46 0 2.6-.71 3.44-2.14.85-1.44 1.28-3.56 1.28-6.36 0-1.84-.2-3.4-.58-4.66a6.18 6.18 0 0 0-1.64-2.84 3.58 3.58 0 0 0-2.5-.96c-1.44 0-2.59.72-3.43 2.16-.84 1.43-1.26 3.53-1.27 6.3-.01 1.86.18 3.42.55 4.69a6.27 6.27 0 0 0 1.64 2.86c.7.64 1.54.95 2.51.95Zm12.74 3.12v-3.05l8.08-7.92a38.7 38.7 0 0 0 1.94-2.08c.51-.6.9-1.2 1.15-1.76.26-.57.39-1.17.39-1.82a3.32 3.32 0 0 0-1.88-3.11 4.43 4.43 0 0 0-1.98-.43 4.1 4.1 0 0 0-2.01.47c-.58.31-1.03.76-1.35 1.33a4.27 4.27 0 0 0-.46 2.06h-4.01a7.2 7.2 0 0 1 1-3.85 6.82 6.82 0 0 1 2.8-2.54c1.18-.6 2.54-.9 4.08-.9 1.56 0 2.94.3 4.12.88a6.7 6.7 0 0 1 2.75 2.4c.66 1.01.98 2.17.98 3.48a6.9 6.9 0 0 1-.5 2.56 10.9 10.9 0 0 1-1.76 2.8 44.5 44.5 0 0 1-3.5 3.72l-4.02 4.08v.15h10.14v3.53h-15.96Z" />
    </g>
    <g data-object="Сокол__r__2387:284">
      <rect width="111" height="176" x="379" y="2" fill="#78B500" rx="12" />
      <path fill="#fff"
        d="M387.24 102.16V78.88h8.9c1.69 0 3.09.27 4.2.8a5.6 5.6 0 0 1 2.51 2.15c.56.9.84 1.94.84 3.09a4.59 4.59 0 0 1-2.01 4.06 6.2 6.2 0 0 1-2.06.9v.22a5.27 5.27 0 0 1 4.25 2.7c.49.83.73 1.83.73 3.02 0 1.2-.3 2.28-.88 3.25a5.95 5.95 0 0 1-2.63 2.26 10.4 10.4 0 0 1-4.43.83h-9.42Zm4.21-3.53H396c1.53 0 2.63-.29 3.3-.87a2.87 2.87 0 0 0 1.03-2.27 3.48 3.48 0 0 0-1.97-3.19 4.83 4.83 0 0 0-2.25-.48h-4.65v6.81Zm0-9.85h4.17a4.7 4.7 0 0 0 1.97-.4 3.07 3.07 0 0 0 1.89-2.92c0-.9-.32-1.64-.96-2.22-.63-.59-1.56-.88-2.8-.88h-4.27v6.42Zm24.67-10.21c1.11 0 2.2.2 3.25.59a7.6 7.6 0 0 1 2.86 1.86 9 9 0 0 1 2.03 3.44c.5 1.44.75 3.22.75 5.34 0 2-.2 3.8-.64 5.37a11.93 11.93 0 0 1-1.83 3.98 8.07 8.07 0 0 1-2.88 2.47 8.24 8.24 0 0 1-3.78.85 8.53 8.53 0 0 1-3.9-.86 7.35 7.35 0 0 1-4.03-5.8h4.15c.2.93.64 1.66 1.3 2.21.65.54 1.48.8 2.48.8 1.62 0 2.86-.7 3.73-2.1.87-1.4 1.3-3.34 1.3-5.84h-.15a5.97 5.97 0 0 1-3.46 2.83c-.74.26-1.53.39-2.36.39a7.04 7.04 0 0 1-6.26-3.66 8 8 0 0 1-.96-3.9 8 8 0 0 1 1.05-4.08 7.6 7.6 0 0 1 2.94-2.86 8.71 8.71 0 0 1 4.41-1.03Zm.01 3.4a4.18 4.18 0 0 0-3.76 2.22 4.75 4.75 0 0 0 0 4.51 4.14 4.14 0 0 0 3.71 2.2 4.19 4.19 0 0 0 3.1-1.33 4.64 4.64 0 0 0 1.27-3.15c0-.8-.19-1.53-.57-2.2a4.39 4.39 0 0 0-1.53-1.63 4.05 4.05 0 0 0-2.22-.62Zm23.29 6.86v3.38h-10.48v-3.38h10.48Zm12.88 13.77a8.14 8.14 0 0 1-4.82-1.42 9.04 9.04 0 0 1-3.08-4.13 17.74 17.74 0 0 1-1.07-6.5c.01-2.55.37-4.7 1.08-6.48a8.9 8.9 0 0 1 3.08-4.1 8.16 8.16 0 0 1 4.8-1.4c1.87 0 3.47.47 4.81 1.4a8.8 8.8 0 0 1 3.08 4.1 17.34 17.34 0 0 1 1.08 6.47c0 2.55-.36 4.72-1.07 6.53a8.87 8.87 0 0 1-3.08 4.1 8.08 8.08 0 0 1-4.81 1.43Zm0-3.56c1.45 0 2.6-.71 3.44-2.14.85-1.44 1.27-3.56 1.27-6.36 0-1.85-.19-3.4-.57-4.66a6.18 6.18 0 0 0-1.64-2.84 3.58 3.58 0 0 0-2.5-.96c-1.45 0-2.6.72-3.43 2.16-.84 1.43-1.27 3.53-1.28 6.3 0 1.86.18 3.42.56 4.68a6.27 6.27 0 0 0 1.64 2.87c.7.63 1.54.95 2.5.95Zm21.1 3.43c-1.64 0-3.1-.28-4.37-.84a7.29 7.29 0 0 1-3-2.34 6.07 6.07 0 0 1-1.17-3.46h4.27c.04.63.25 1.17.63 1.64s.88.83 1.5 1.08c.64.26 1.34.4 2.12.4a5.4 5.4 0 0 0 2.22-.44 3.6 3.6 0 0 0 1.5-1.23c.37-.52.55-1.12.54-1.8.01-.71-.17-1.33-.54-1.87s-.91-.96-1.62-1.26c-.7-.3-1.54-.45-2.52-.45h-2.06v-3.25h2.06c.81 0 1.52-.15 2.13-.43a3.5 3.5 0 0 0 1.44-1.18c.35-.51.52-1.1.51-1.78a3.1 3.1 0 0 0-.44-1.72 3 3 0 0 0-1.27-1.14 5 5 0 0 0-3.88-.02c-.6.25-1.08.62-1.45 1.1a2.78 2.78 0 0 0-.6 1.68h-4.05a5.9 5.9 0 0 1 1.12-3.44 7.27 7.27 0 0 1 2.91-2.31 9.6 9.6 0 0 1 4.08-.84c1.55 0 2.9.29 4.05.87a6.6 6.6 0 0 1 2.67 2.33c.63.98.94 2.06.94 3.24 0 1.3-.38 2.4-1.16 3.3a5.44 5.44 0 0 1-3.04 1.73v.18a5.9 5.9 0 0 1 3.76 1.82 5.2 5.2 0 0 1 1.3 3.65c0 1.3-.37 2.47-1.11 3.5a7.39 7.39 0 0 1-3.05 2.41c-1.28.58-2.76.88-4.43.88Z" />
    </g>
    <g data-object="Сокол__r__2387:289">
      <rect width="243" height="176" x="499" y="2" fill="#78B500" rx="12" />
      <path fill="#fff"
        d="M573.25 102.16V78.88h8.9c1.69 0 3.09.27 4.2.8a5.6 5.6 0 0 1 2.51 2.15c.56.9.84 1.94.84 3.09a4.6 4.6 0 0 1-2.01 4.06c-.61.41-1.3.71-2.05.9v.22a5.28 5.28 0 0 1 4.25 2.7c.48.83.72 1.83.72 3.02a6.2 6.2 0 0 1-.87 3.25 5.95 5.95 0 0 1-2.64 2.26 10.4 10.4 0 0 1-4.43.83h-9.42Zm4.21-3.53H582c1.53 0 2.63-.29 3.3-.87a2.87 2.87 0 0 0 1.03-2.27 3.48 3.48 0 0 0-1.97-3.19 4.83 4.83 0 0 0-2.25-.48h-4.65v6.81Zm0-9.85h4.17a4.7 4.7 0 0 0 1.97-.4 3.07 3.07 0 0 0 1.89-2.92c0-.9-.32-1.64-.96-2.22-.63-.59-1.56-.88-2.8-.88h-4.27v6.42Zm24.67-10.21c1.12 0 2.2.2 3.25.59 1.06.38 2.02 1 2.87 1.86a9 9 0 0 1 2.02 3.44c.5 1.44.75 3.22.75 5.34 0 2-.2 3.8-.64 5.37a11.9 11.9 0 0 1-1.83 3.98 8.07 8.07 0 0 1-2.87 2.47 8.24 8.24 0 0 1-3.79.85 8.53 8.53 0 0 1-3.9-.86 7.35 7.35 0 0 1-4.03-5.8h4.15c.21.93.64 1.66 1.3 2.21.65.54 1.48.8 2.48.8 1.62 0 2.86-.7 3.73-2.1.87-1.4 1.3-3.34 1.3-5.84h-.15a5.97 5.97 0 0 1-3.46 2.83c-.74.26-1.53.39-2.36.39a7.04 7.04 0 0 1-6.26-3.66 8 8 0 0 1-.96-3.9 8 8 0 0 1 1.05-4.08 7.58 7.58 0 0 1 2.94-2.86 8.7 8.7 0 0 1 4.41-1.03Zm.01 3.4a4.18 4.18 0 0 0-3.76 2.22 4.76 4.76 0 0 0 0 4.51 4.14 4.14 0 0 0 3.72 2.2 4.19 4.19 0 0 0 3.1-1.33 4.63 4.63 0 0 0 1.26-3.15c0-.8-.19-1.53-.57-2.2a4.38 4.38 0 0 0-1.53-1.63 4.04 4.04 0 0 0-2.22-.62Zm23.29 6.86v3.38h-10.48v-3.38h10.48Zm12.88 13.77a8.14 8.14 0 0 1-4.82-1.42 9.05 9.05 0 0 1-3.08-4.13 17.74 17.74 0 0 1-1.06-6.5c0-2.55.36-4.7 1.07-6.48a8.9 8.9 0 0 1 3.08-4.1 8.16 8.16 0 0 1 4.81-1.4c1.87 0 3.47.47 4.8 1.4a8.8 8.8 0 0 1 3.09 4.1 17.34 17.34 0 0 1 1.08 6.47c0 2.55-.36 4.72-1.08 6.53a8.87 8.87 0 0 1-3.08 4.1 8.09 8.09 0 0 1-4.8 1.43Zm0-3.56c1.46 0 2.6-.71 3.44-2.14.85-1.44 1.28-3.56 1.28-6.36 0-1.85-.2-3.4-.58-4.66a6.17 6.17 0 0 0-1.64-2.84 3.58 3.58 0 0 0-2.5-.96c-1.45 0-2.59.72-3.43 2.16-.84 1.43-1.27 3.53-1.27 6.3-.01 1.86.17 3.42.55 4.68a6.27 6.27 0 0 0 1.64 2.87c.7.63 1.54.95 2.51.95Zm12.32-1.2v-3.35l9.88-15.6h2.8v4.77h-1.71l-6.65 10.53v.18h13.78v3.47h-18.1Zm11.1 4.32v-5.34l.05-1.5V78.88h3.98v23.28h-4.03Z" />
    </g>
  </g>
  <defs>
    <clipPath id="a">
      <path fill="#fff" d="M485.5 286v48h-48v-48z" />
    </clipPath>
    <clipPath id="b">
      <path fill="#fff" d="M485.5 235v48h-48v-48z" />
    </clipPath>
    <clipPath id="d">
      <path fill="#fff" d="M65.5 292.5h48v48h-48z" />
    </clipPath>
    <clipPath id="e">
      <path fill="#fff" d="M229.5 246.5h48v76h-48z" />
    </clipPath>
  </defs>
</svg>