<svg width="280" height="280" viewBox="0 0 280 280" fill="none" xmlns="http://www.w3.org/2000/svg">
<path d="M52.6631 127.029C52.6631 127.029 91.434 125.477 99.8125 61.7456C107.253 5.14629 172.631 30.9082 191.529 53.4701C216.01 82.6971 202.96 132.974 234.629 139.325C266.299 145.676 245.618 216.292 197.546 209.533C137.746 201.125 152.214 236.069 134.262 250.859C121.379 261.475 68.5515 251.256 66.7908 212.723C65.3092 180.297 51.6315 180.4 41.9366 176.723C27.9544 171.421 19.1441 133.017 52.6631 127.029Z" fill="#DEE9FF"/>
<path d="M184.462 197.807L146.371 160.168L138.828 167.801L176.92 205.44L184.462 197.807Z" fill="#699CFF"/>
<path d="M199.013 207.92L169.378 178.637C169.213 178.474 168.947 178.476 168.784 178.641L157.568 189.992C157.405 190.157 157.406 190.423 157.571 190.586L187.206 219.869C187.371 220.032 187.637 220.031 187.8 219.866L199.017 208.514C199.18 208.349 199.178 208.083 199.013 207.92Z" fill="#0E84E5"/>
<path d="M112.611 179.097C138.816 179.097 160.06 157.853 160.06 131.648C160.06 105.442 138.816 84.1982 112.611 84.1982C86.4051 84.1982 65.1613 105.442 65.1613 131.648C65.1613 157.853 86.4051 179.097 112.611 179.097Z" fill="#0E84E5"/>
<path d="M112.611 171.355C134.54 171.355 152.318 153.578 152.318 131.648C152.318 109.718 134.54 91.9407 112.611 91.9407C90.6811 91.9407 72.9036 109.718 72.9036 131.648C72.9036 153.578 90.6811 171.355 112.611 171.355Z" fill="#D4E5FF"/>
</svg>
