<svg xmlns="http://www.w3.org/2000/svg" width="544" height="545" fill="none" viewBox="0 0 544 545">
  <g>
    <path fill="#262A34"
      d="M141 392a12 12 0 0 0 12 12h236a12 12 0 0 0 12-12V214.5a12 12 0 0 1 12-12h15a12 12 0 0 0 12-12V155a12 12 0 0 0-12-12h-10a11.5 11.5 0 0 0-11.5 11.5A11.5 11.5 0 0 1 395 166H153a12 12 0 0 0-12 12v214Z" />
    <g>
      <rect width="23" height="23" x="128" y="172" fill="#262A34" rx="3" />
    </g>
    <g>
      <rect width="23" height="23" x="128" y="221" fill="#262A34" rx="3" />
    </g>
    <g>
      <rect width="23" height="23" x="129" y="285" fill="#262A34" rx="3" />
    </g>
    <g>
      <rect width="23" height="23" x="129" y="361" fill="#262A34" rx="3" />
    </g>
    <g>
      <rect width="23" height="23" x="160" y="392" fill="#262A34" rx="3" />
    </g>
    <g>
      <rect width="23" height="23" x="128" y="432" fill="#262A34" rx="3" />
    </g>
    <g>
      <rect width="23" height="23" x="129" y="493" fill="#262A34" rx="3" />
    </g>
    <g>
      <rect width="23" height="23" x="331" y="392" fill="#262A34" rx="3" />
    </g>
    <g>
      <rect width="23" height="23" x="389" y="362" fill="#262A34" rx="3" />
    </g>
    <g>
      <rect width="23" height="23" x="389" y="287" fill="#262A34" rx="3" />
    </g>
    <g>
      <rect width="23" height="23" x="389" y="216" fill="#262A34" rx="3" />
    </g>
    <g>
      <rect width="23" height="22" x="430" y="162" fill="#262A34" rx="3" />
    </g>
    <g>
      <rect width="23" height="22" x="414" y="130" fill="#262A34" rx="3" />
    </g>
    <g>
      <rect width="23" height="23" x="339" y="150" fill="#262A34" rx="3" />
    </g>
    <g>
      <rect width="23" height="23" x="199" y="150" fill="#262A34" rx="3" />
    </g>
    <g data-object="Сокол__r__2127:379">
      <path fill="#78B500"
        d="M0 422a12 12 0 0 1 12-12h112a12 12 0 0 1 12 12v34a12 12 0 0 1-12 12H12a12 12 0 0 1-12-12v-34Z" />
      <path fill="#fff"
        d="M39.15 451.48a9.8 9.8 0 0 1-3.26-.58 7.69 7.69 0 0 1-2.86-1.87 9.22 9.22 0 0 1-2.03-3.47c-.5-1.44-.74-3.24-.73-5.37 0-2 .2-3.77.63-5.33a11.79 11.79 0 0 1 1.83-3.96 8.07 8.07 0 0 1 2.88-2.47 8.29 8.29 0 0 1 3.78-.86c1.46 0 2.76.3 3.89.87a7.32 7.32 0 0 1 4.04 5.73h-4.15c-.2-.9-.64-1.61-1.3-2.14a3.76 3.76 0 0 0-2.48-.8c-1.61 0-2.86.7-3.73 2.1-.86 1.4-1.3 3.32-1.3 5.77h.16c.37-.67.85-1.24 1.44-1.72s1.26-.84 2-1.1c.75-.27 1.54-.4 2.37-.4a6.99 6.99 0 0 1 6.27 3.67c.63 1.14.95 2.44.94 3.91 0 1.53-.34 2.9-1.05 4.13a7.59 7.59 0 0 1-2.94 2.86 8.84 8.84 0 0 1-4.4 1.03Zm-.02-3.4c.83 0 1.56-.2 2.22-.6a4.56 4.56 0 0 0 2.1-3.92c0-.84-.18-1.6-.55-2.27a4.16 4.16 0 0 0-3.71-2.2 4.19 4.19 0 0 0-3.1 1.34 4.59 4.59 0 0 0 .82 7.03c.66.41 1.4.61 2.22.61ZM62 437.83v3.38H51.53v-3.38H62Zm12.9 13.77a8.14 8.14 0 0 1-4.82-1.42 9.05 9.05 0 0 1-3.08-4.13 17.73 17.73 0 0 1-1.07-6.5c.01-2.55.37-4.7 1.08-6.49a8.9 8.9 0 0 1 3.08-4.09 8.17 8.17 0 0 1 4.8-1.4c1.87 0 3.47.46 4.81 1.4a8.8 8.8 0 0 1 3.08 4.1 17.35 17.35 0 0 1 1.08 6.47c0 2.55-.36 4.72-1.08 6.52a8.87 8.87 0 0 1-3.08 4.12 8.08 8.08 0 0 1-4.8 1.42Zm0-3.56c1.45 0 2.6-.71 3.44-2.15.85-1.44 1.27-3.55 1.27-6.35 0-1.85-.19-3.4-.58-4.66a6.18 6.18 0 0 0-1.63-2.84 3.58 3.58 0 0 0-2.5-.96c-1.45 0-2.6.72-3.43 2.16-.84 1.43-1.27 3.53-1.28 6.3 0 1.86.18 3.42.56 4.68a6.27 6.27 0 0 0 1.64 2.87c.7.63 1.54.95 2.5.95Zm20.82-20.48c1.11.01 2.2.2 3.25.6 1.06.37 2.01 1 2.86 1.86a9 9 0 0 1 2.03 3.44c.5 1.44.75 3.22.75 5.34 0 2-.2 3.8-.64 5.37a11.89 11.89 0 0 1-1.83 3.97 8.07 8.07 0 0 1-2.88 2.48 8.25 8.25 0 0 1-3.78.85 8.53 8.53 0 0 1-3.9-.86 7.35 7.35 0 0 1-4.03-5.8h4.15c.2.93.64 1.66 1.3 2.2.65.55 1.48.82 2.48.82 1.61 0 2.86-.7 3.73-2.1.87-1.4 1.3-3.36 1.3-5.85h-.16a5.97 5.97 0 0 1-3.45 2.83c-.74.26-1.53.39-2.36.39a7.04 7.04 0 0 1-6.26-3.66 8 8 0 0 1-.96-3.9 8 8 0 0 1 1.05-4.08 7.59 7.59 0 0 1 2.94-2.86 8.71 8.71 0 0 1 4.4-1.04Zm.01 3.41a4.17 4.17 0 0 0-3.76 2.22 4.76 4.76 0 0 0 0 4.51 4.14 4.14 0 0 0 3.72 2.2 4.2 4.2 0 0 0 3.1-1.34 4.62 4.62 0 0 0 1.26-3.14c0-.8-.2-1.53-.57-2.2a4.39 4.39 0 0 0-1.53-1.63 4.04 4.04 0 0 0-2.22-.62Z" />
    </g>
    <g data-object="Сокол__s__2103:297">
      <rect width="138" height="61" x="406" y="275" fill="#fff" rx="12" />
      <g>
        <path fill="#000"
          d="M497.45 288.5h-7.49v7.5c0 .13-.01.22-.04.28a1.47 1.47 0 0 1-1.46 1.22h-7.49v7.5c0 .13-.02.22-.05.28a1.48 1.48 0 0 1-1.45 1.22h-7.49v7.5c0 .13-.02.22-.05.28-.06.35-.22.63-.49.87a1.4 1.4 0 0 1-.96.35h-7.5v7.5c0 .13 0 .22-.04.28a1.48 1.48 0 0 1-1.45 1.22h-9c-.4 0-.75-.15-1.05-.44a1.5 1.5 0 0 1 0-2.12c.3-.3.65-.44 1.06-.44h7.5V314c0-.13 0-.22.04-.28.06-.35.23-.63.51-.87.28-.23.6-.35.94-.35h7.5V305c0-.13 0-.22.04-.28.06-.35.23-.63.51-.87.28-.23.6-.35.94-.35h7.5V296c0-.1 0-.19.04-.28.06-.35.24-.63.52-.87.28-.23.59-.35.93-.35h7.5V287c0-.13.01-.22.04-.28a1.48 1.48 0 0 1 1.45-1.22h9c.4 0 .75.15 1.05.44.3.3.44.65.44 1.06 0 .4-.14.76-.44 1.06-.3.3-.65.44-1.06.44Z" />
      </g>
    </g>
    <g data-object="Сокол__s__2103:303">
      <rect width="136" height="61" y="207" fill="#fff" rx="12" />
      <g>
        <path fill="#000"
          d="M90.45 220.5h-7.49v7.5c0 .13-.01.22-.04.28a1.48 1.48 0 0 1-1.46 1.22h-7.49v7.5c0 .13-.01.22-.05.28a1.48 1.48 0 0 1-1.45 1.22h-7.49v7.5c0 .13-.02.22-.05.28a1.48 1.48 0 0 1-1.45 1.22h-7.5v7.5c0 .13 0 .22-.04.28a1.48 1.48 0 0 1-1.45 1.22h-9c-.4 0-.75-.15-1.05-.44a1.5 1.5 0 0 1 0-2.12c.3-.3.65-.44 1.06-.44H53V246c0-.13 0-.22.04-.28.06-.34.23-.63.51-.87.28-.23.6-.35.94-.35h7.5V237c0-.13 0-.22.04-.28.06-.34.23-.63.51-.87.29-.23.6-.35.94-.35h7.5V228c0-.1 0-.19.04-.28.06-.34.23-.63.52-.87.28-.23.59-.35.93-.35h7.5V219c0-.13.01-.22.04-.28a1.48 1.48 0 0 1 1.45-1.22h9c.4 0 .75.15 1.05.44a1.5 1.5 0 0 1 0 2.12c-.3.3-.65.44-1.06.44Z" />
      </g>
    </g>
    <g data-object="Сокол__r__2127:367">
      <path fill="#78B500"
        d="M406 12a12 12 0 0 1 12-12h114a12 12 0 0 1 12 12v115a12 12 0 0 1-12 12H418a12 12 0 0 1-12-12V12Z" />
      <path fill="#fff"
        d="M446.95 82.25c-1.11 0-2.2-.2-3.26-.58a7.67 7.67 0 0 1-2.87-1.88 9.21 9.21 0 0 1-2.02-3.46c-.5-1.45-.74-3.24-.74-5.38 0-1.99.22-3.77.64-5.33a11.79 11.79 0 0 1 1.83-3.95 8.08 8.08 0 0 1 2.87-2.48 8.3 8.3 0 0 1 3.79-.85c1.46 0 2.76.29 3.88.86a7.32 7.32 0 0 1 4.05 5.73h-4.15c-.21-.9-.65-1.6-1.3-2.14a3.76 3.76 0 0 0-2.48-.8c-1.62 0-2.86.7-3.73 2.1-.86 1.4-1.3 3.33-1.3 5.77h.15c.38-.66.86-1.24 1.45-1.71a7.07 7.07 0 0 1 4.38-1.5 6.98 6.98 0 0 1 6.25 3.67 7.8 7.8 0 0 1 .95 3.9c0 1.54-.34 2.91-1.05 4.13a7.6 7.6 0 0 1-2.94 2.86 8.84 8.84 0 0 1-4.4 1.04Zm-.02-3.41c.82 0 1.56-.2 2.21-.6a4.55 4.55 0 0 0 2.1-3.92 4.47 4.47 0 0 0-.54-2.26 4.16 4.16 0 0 0-3.72-2.2 4.19 4.19 0 0 0-3.1 1.33 4.58 4.58 0 0 0 .83 7.04c.65.4 1.4.6 2.22.6ZM469.8 68.6V72h-10.48v-3.4h10.48Zm12.89 13.77a8.14 8.14 0 0 1-4.82-1.42 9.05 9.05 0 0 1-3.08-4.12 17.74 17.74 0 0 1-1.07-6.51c0-2.54.37-4.7 1.08-6.48a8.91 8.91 0 0 1 3.08-4.1 8.16 8.16 0 0 1 4.8-1.4c1.87 0 3.47.47 4.81 1.4a8.8 8.8 0 0 1 3.08 4.1 17.34 17.34 0 0 1 1.08 6.48c0 2.54-.36 4.72-1.08 6.52a8.87 8.87 0 0 1-3.08 4.11 8.08 8.08 0 0 1-4.8 1.42Zm0-3.55c1.45 0 2.6-.72 3.44-2.15.85-1.44 1.27-3.56 1.27-6.35 0-1.85-.2-3.4-.58-4.66a6.18 6.18 0 0 0-1.63-2.84 3.58 3.58 0 0 0-2.5-.97c-1.45 0-2.6.72-3.44 2.16-.84 1.43-1.26 3.53-1.27 6.3 0 1.86.18 3.42.56 4.69a6.27 6.27 0 0 0 1.63 2.86c.7.64 1.55.96 2.52.96Zm21.09 3.43c-1.64 0-3.1-.28-4.36-.84a7.3 7.3 0 0 1-3-2.34 6.07 6.07 0 0 1-1.18-3.47h4.28c.04.63.24 1.18.62 1.65.38.46.89.82 1.51 1.08.63.26 1.34.38 2.12.38.83 0 1.57-.14 2.21-.43.65-.3 1.15-.7 1.51-1.22a3 3 0 0 0 .54-1.81c0-.7-.17-1.33-.55-1.86-.37-.54-.9-.96-1.61-1.27a6.3 6.3 0 0 0-2.52-.45h-2.06v-3.25h2.06c.8 0 1.52-.14 2.12-.42.62-.28 1.1-.68 1.45-1.18a3.1 3.1 0 0 0 .5-1.79 3 3 0 0 0-1.7-2.86 5 5 0 0 0-3.88-.02c-.6.25-1.09.62-1.46 1.1a2.78 2.78 0 0 0-.59 1.68h-4.06a5.9 5.9 0 0 1 1.13-3.43c.73-1 1.7-1.77 2.9-2.32a9.6 9.6 0 0 1 4.09-.84c1.55 0 2.9.3 4.04.87a6.59 6.59 0 0 1 2.67 2.33c.63.98.95 2.06.95 3.24 0 1.31-.38 2.41-1.16 3.3a5.44 5.44 0 0 1-3.05 1.74V70a5.9 5.9 0 0 1 3.76 1.82 5.2 5.2 0 0 1 1.31 3.64c0 1.3-.37 2.47-1.11 3.5a7.38 7.38 0 0 1-3.05 2.41c-1.29.59-2.76.88-4.43.88Z" />
    </g>
    <g data-object="Сокол__r__2127:376">
      <path fill="#78B500"
        d="M0 484a12 12 0 0 1 12-12h112a12 12 0 0 1 12 12v48a12 12 0 0 1-12 12H12a12 12 0 0 1-12-12v-48Z" />
      <path fill="#fff"
        d="M39.2 520.1a9.8 9.8 0 0 1-3.26-.57 7.66 7.66 0 0 1-2.87-1.88 9.22 9.22 0 0 1-2.02-3.46 16.4 16.4 0 0 1-.74-5.38c0-1.99.21-3.76.64-5.33a11.79 11.79 0 0 1 1.83-3.95 8.07 8.07 0 0 1 2.87-2.48 8.29 8.29 0 0 1 3.79-.85c1.46 0 2.76.29 3.88.86a7.32 7.32 0 0 1 4.05 5.73h-4.15c-.21-.9-.65-1.6-1.3-2.14a3.76 3.76 0 0 0-2.48-.8c-1.62 0-2.86.7-3.73 2.1-.86 1.4-1.3 3.33-1.3 5.77h.15c.37-.66.85-1.24 1.45-1.71a7.08 7.08 0 0 1 4.38-1.5 6.99 6.99 0 0 1 6.25 3.67 7.8 7.8 0 0 1 .95 3.9c0 1.54-.35 2.91-1.05 4.13a7.59 7.59 0 0 1-2.94 2.87 8.84 8.84 0 0 1-4.4 1.03Zm-.02-3.4c.82 0 1.56-.2 2.21-.6a4.41 4.41 0 0 0 2.1-3.93 4.46 4.46 0 0 0-.54-2.25 4.16 4.16 0 0 0-3.72-2.2 4.2 4.2 0 0 0-3.1 1.33 4.58 4.58 0 0 0 .83 7.04c.65.4 1.39.61 2.22.61Zm22.87-10.24v3.39H51.57v-3.39h10.48Zm12.88 13.77a8.14 8.14 0 0 1-4.81-1.42 9.05 9.05 0 0 1-3.08-4.12 17.73 17.73 0 0 1-1.07-6.51c0-2.54.37-4.7 1.08-6.48a8.91 8.91 0 0 1 3.08-4.1 8.17 8.17 0 0 1 4.8-1.4c1.87 0 3.47.47 4.81 1.4a8.81 8.81 0 0 1 3.08 4.1 17.35 17.35 0 0 1 1.08 6.48c0 2.54-.36 4.72-1.08 6.52a8.87 8.87 0 0 1-3.08 4.11 8.08 8.08 0 0 1-4.8 1.42Zm0-3.55c1.46 0 2.6-.72 3.45-2.15.85-1.44 1.27-3.56 1.27-6.35 0-1.85-.2-3.4-.58-4.66a6.18 6.18 0 0 0-1.64-2.84 3.58 3.58 0 0 0-2.5-.97c-1.44 0-2.59.72-3.43 2.16-.84 1.43-1.26 3.53-1.27 6.3 0 1.86.18 3.42.56 4.69a6.27 6.27 0 0 0 1.63 2.86c.7.64 1.55.96 2.51.96Zm21.02 3.43c-1.69 0-3.19-.28-4.5-.85a7.49 7.49 0 0 1-3.07-2.33 5.5 5.5 0 0 1-1.09-3.38c0-.97.2-1.87.64-2.7a6 6 0 0 1 4.22-3.1v-.15a4.92 4.92 0 0 1-2.9-1.83 5.28 5.28 0 0 1-1.1-3.33c0-1.2.33-2.27 1-3.2a6.82 6.82 0 0 1 2.78-2.22 9.44 9.44 0 0 1 4.02-.82c1.5 0 2.82.27 3.99.82a6.81 6.81 0 0 1 2.77 2.21 5.33 5.33 0 0 1 1.02 3.2c0 1.27-.37 2.38-1.12 3.34a4.91 4.91 0 0 1-2.88 1.83v.16a6.01 6.01 0 0 1 4.2 3.1c.45.82.67 1.72.67 2.7a5.5 5.5 0 0 1-1.12 3.37 7.48 7.48 0 0 1-3.06 2.33c-1.3.57-2.79.85-4.47.85Zm0-3.25a5.4 5.4 0 0 0 2.27-.44 3.44 3.44 0 0 0 2.05-3.16c-.01-.75-.2-1.4-.58-1.97a3.81 3.81 0 0 0-1.54-1.35 4.81 4.81 0 0 0-2.2-.49c-.83 0-1.58.16-2.23.49a3.9 3.9 0 0 0-1.54 1.35 3.45 3.45 0 0 0-.55 1.97 3.31 3.31 0 0 0 2.02 3.14c.66.3 1.42.46 2.3.46Zm0-10.6a4 4 0 0 0 1.89-.44 3.28 3.28 0 0 0 1.8-2.98 3.44 3.44 0 0 0-.49-1.75c-.3-.51-.74-.9-1.3-1.17a4.17 4.17 0 0 0-1.9-.42 4.3 4.3 0 0 0-1.94.42 3.08 3.08 0 0 0-1.74 2.92c-.01.67.14 1.27.45 1.78.32.5.76.91 1.3 1.2.57.3 1.2.44 1.93.44Z" />
    </g>
    <g data-object="Сокол__r__2127:383">
      <path fill="#78B500"
        d="M444 156a12 12 0 0 1 12-12h76a12 12 0 0 1 12 12v35a12 12 0 0 1-12 12h-76a12 12 0 0 1-12-12v-35Z" />
      <path fill="#fff"
        d="M466.17 185.81c-1.12 0-2.2-.2-3.26-.58a7.66 7.66 0 0 1-2.87-1.87 9.22 9.22 0 0 1-2.02-3.47 16.3 16.3 0 0 1-.74-5.37c0-2 .21-3.77.64-5.33a11.77 11.77 0 0 1 1.83-3.96 8.06 8.06 0 0 1 2.87-2.47 8.3 8.3 0 0 1 3.79-.85c1.46 0 2.75.28 3.88.86a7.32 7.32 0 0 1 4.05 5.73h-4.15a3.78 3.78 0 0 0-1.3-2.14 3.76 3.76 0 0 0-2.48-.8c-1.62 0-2.86.7-3.73 2.1-.87 1.4-1.3 3.32-1.3 5.77h.15c.37-.67.85-1.24 1.44-1.72a7.08 7.08 0 0 1 4.38-1.5 6.97 6.97 0 0 1 6.26 3.67c.64 1.14.95 2.44.94 3.91a7.59 7.59 0 0 1-3.99 6.99 8.85 8.85 0 0 1-4.4 1.03Zm-.03-3.4a4.15 4.15 0 0 0 3.77-2.23c.38-.68.56-1.45.55-2.3a4.5 4.5 0 0 0-.54-2.26 4.15 4.15 0 0 0-3.72-2.2 4.2 4.2 0 0 0-3.1 1.34 4.57 4.57 0 0 0 .83 7.03c.65.41 1.39.62 2.21.62Zm22.88-10.24v3.38h-10.48v-3.38h10.48Zm12.88 13.77a8.14 8.14 0 0 1-4.81-1.42 9.04 9.04 0 0 1-3.08-4.13 17.73 17.73 0 0 1-1.07-6.5c0-2.55.36-4.7 1.08-6.48a8.9 8.9 0 0 1 3.08-4.1 8.16 8.16 0 0 1 4.8-1.4c1.87 0 3.47.46 4.81 1.4a8.8 8.8 0 0 1 3.08 4.1 17.34 17.34 0 0 1 1.08 6.47c0 2.55-.36 4.72-1.08 6.53a8.87 8.87 0 0 1-3.08 4.1 8.09 8.09 0 0 1-4.8 1.43Zm0-3.56c1.46 0 2.6-.71 3.45-2.15.84-1.44 1.27-3.55 1.27-6.35 0-1.85-.2-3.4-.58-4.66a6.18 6.18 0 0 0-1.64-2.84 3.58 3.58 0 0 0-2.5-.96c-1.44 0-2.59.72-3.43 2.16-.84 1.43-1.26 3.53-1.27 6.3 0 1.86.18 3.42.56 4.68a6.26 6.26 0 0 0 1.63 2.87c.7.63 1.54.95 2.51.95Zm12.32-1.2v-3.36l9.88-15.6h2.8V167h-1.71l-6.65 10.53v.18h13.79v3.47h-18.1Zm11.1 4.32v-5.34l.05-1.5v-16.44h3.98v23.28h-4.02Z" />
    </g>
    <g data-object="Сокол__r__2127:397">
      <path fill="#78B500"
        d="M406 354a12 12 0 0 1 12-12h114a12 12 0 0 1 12 12v35a12 12 0 0 1-12 12H418a12 12 0 0 1-12-12v-35Z" />
      <path fill="#fff"
        d="M447.25 383.81c-1.12 0-2.2-.2-3.26-.58a7.66 7.66 0 0 1-2.87-1.87 9.2 9.2 0 0 1-2.02-3.47c-.5-1.44-.75-3.24-.74-5.37 0-2 .21-3.77.64-5.33a11.79 11.79 0 0 1 1.83-3.96 8.08 8.08 0 0 1 2.87-2.47 8.3 8.3 0 0 1 3.79-.86c1.46 0 2.75.3 3.88.87a7.33 7.33 0 0 1 4.05 5.73h-4.15a3.78 3.78 0 0 0-1.3-2.14 3.76 3.76 0 0 0-2.49-.8c-1.6 0-2.85.7-3.72 2.1-.87 1.4-1.3 3.32-1.3 5.77h.15c.37-.67.85-1.24 1.44-1.72a7.07 7.07 0 0 1 4.38-1.5 6.98 6.98 0 0 1 6.26 3.67c.64 1.14.95 2.44.94 3.91a7.6 7.6 0 0 1-3.99 6.99 8.84 8.84 0 0 1-4.4 1.03Zm-.03-3.4c.83 0 1.57-.2 2.22-.6a4.55 4.55 0 0 0 2.1-3.92c.01-.84-.17-1.6-.54-2.27a4.16 4.16 0 0 0-3.72-2.2 4.19 4.19 0 0 0-3.1 1.34 4.57 4.57 0 0 0 .83 7.03c.65.41 1.39.61 2.21.61Zm22.88-10.24v3.38h-10.48v-3.38h10.48Zm12.88 13.77a8.14 8.14 0 0 1-4.82-1.42 9.04 9.04 0 0 1-3.08-4.13 17.73 17.73 0 0 1-1.06-6.5c0-2.55.36-4.7 1.08-6.49a8.9 8.9 0 0 1 3.08-4.09 8.16 8.16 0 0 1 4.8-1.4 8.1 8.1 0 0 1 4.8 1.4 8.8 8.8 0 0 1 3.09 4.1 17.34 17.34 0 0 1 1.08 6.47c0 2.55-.36 4.72-1.08 6.52a8.87 8.87 0 0 1-3.08 4.12 8.08 8.08 0 0 1-4.8 1.42Zm0-3.56c1.46 0 2.6-.71 3.45-2.15.84-1.44 1.27-3.55 1.27-6.35 0-1.85-.2-3.4-.58-4.66a6.18 6.18 0 0 0-1.64-2.84 3.58 3.58 0 0 0-2.5-.96c-1.44 0-2.59.72-3.43 2.15-.84 1.44-1.26 3.54-1.27 6.31-.01 1.86.18 3.42.56 4.68a6.26 6.26 0 0 0 1.63 2.87c.7.63 1.54.95 2.51.95Zm20.83 3.43a9.38 9.38 0 0 1-4.06-.85 7.26 7.26 0 0 1-2.86-2.36c-.7-1-1.06-2.15-1.1-3.43h4.08c.08.95.49 1.73 1.24 2.34.75.6 1.65.9 2.7.9a4.08 4.08 0 0 0 3.73-2.15c.37-.68.56-1.45.55-2.31 0-.88-.18-1.66-.56-2.34a4.16 4.16 0 0 0-1.56-1.6c-.66-.4-1.41-.6-2.27-.6-.7 0-1.38.13-2.06.4-.67.26-1.2.6-1.6 1.04l-3.8-.63 1.21-12h13.5v3.53h-10.01l-.67 6.17h.14a4.8 4.8 0 0 1 1.82-1.27 6.46 6.46 0 0 1 2.6-.5 7.17 7.17 0 0 1 6.38 3.72c.64 1.16.96 2.49.96 3.98 0 1.54-.36 2.9-1.07 4.11a7.56 7.56 0 0 1-2.94 2.83 8.92 8.92 0 0 1-4.35 1.02Z" />
    </g>
    <g data-object="Сокол__t__2127:400">
      <rect width="138" height="60" x="406" y="209" fill="#60A5FA" rx="12" />
      <g fill="#fff">
        <path
          d="M475 225.5a5.25 5.25 0 1 0 0-10.5 5.25 5.25 0 0 0 0 10.5Zm4.5 1.5h-9a6.01 6.01 0 0 0-6 6v10.08a1.9 1.9 0 0 0 1.8 1.92 1.88 1.88 0 0 0 1.95-1.88v-9.34a.77.77 0 0 1 .7-.78.74.74 0 0 1 .74.45c.04.1.06.2.06.3v27.1a2.15 2.15 0 1 0 4.31 0v-13.38a.96.96 0 0 1 .88-.97.93.93 0 0 1 1 .94v13.4a2.15 2.15 0 1 0 4.31 0v-27.06a.77.77 0 0 1 .7-.78.74.74 0 0 1 .74.45c.04.1.06.2.06.3v9.33a1.9 1.9 0 0 0 1.8 1.92 1.88 1.88 0 0 0 1.95-1.88V233a6.01 6.01 0 0 0-6-6Z" />
      </g>
    </g>
    <g data-object="Сокол__t__2127:404">
      <rect width="136" height="61" y="273" fill="#60A5FA" rx="12" />
      <g fill="#fff" clip-path="url(#a)">
        <path
          d="M67.98 290a5.25 5.25 0 1 0 0-10.5 5.25 5.25 0 0 0 0 10.5ZM81 305.55l-.97-3.22v-.01l-2.1-7.02h-.01l-.24-.8a4.2 4.2 0 0 0-4.03-3H62.4a4.2 4.2 0 0 0-4.03 3l-.24.8-2.1 7.02-.98 3.23a1.87 1.87 0 1 0 3.58 1.12l2.4-7.99.2-.68a.75.75 0 0 1 1.28-.23.75.75 0 0 1 .16.63l-4.1 13.67a1.5 1.5 0 0 0 1.44 1.93h2.72v10.75c0 1.55.98 2.75 2.25 2.75 1.26 0 2.25-1.2 2.25-2.75V314h1.5v10.75c0 1.55.98 2.75 2.25 2.75 1.26 0 2.25-1.2 2.25-2.75V314h2.8a1.51 1.51 0 0 0 1.21-.6 1.5 1.5 0 0 0 .24-1.33l-4.1-13.67a.75.75 0 0 1 1.44-.4l.2.68 2.4 8a1.88 1.88 0 0 0 2.4 1.23 1.9 1.9 0 0 0 1.18-2.36Z" />
      </g>
    </g>
    <g data-object="Сокол__r__2127:408">
      <path fill="#78B500"
        d="M0 352a12 12 0 0 1 12-12h112a12 12 0 0 1 12 12v43a12 12 0 0 1-12 12H12a12 12 0 0 1-12-12v-43Z" />
      <path fill="#fff"
        d="M42.34 385.46a9.8 9.8 0 0 1-3.26-.58A7.69 7.69 0 0 1 36.2 383a9.22 9.22 0 0 1-2.02-3.46c-.5-1.45-.74-3.24-.74-5.38 0-2 .22-3.77.64-5.33a11.79 11.79 0 0 1 1.83-3.95 8.08 8.08 0 0 1 2.87-2.48 8.3 8.3 0 0 1 3.79-.85c1.46 0 2.76.29 3.88.86a7.32 7.32 0 0 1 4.05 5.73h-4.15c-.21-.9-.65-1.6-1.3-2.14a3.76 3.76 0 0 0-2.48-.8c-1.62 0-2.86.7-3.73 2.1-.86 1.4-1.3 3.32-1.3 5.77h.15a5.7 5.7 0 0 1 1.45-1.71 7.08 7.08 0 0 1 4.38-1.5 6.99 6.99 0 0 1 6.25 3.66c.64 1.14.95 2.44.95 3.92 0 1.52-.34 2.9-1.05 4.12a7.59 7.59 0 0 1-2.94 2.86 8.84 8.84 0 0 1-4.4 1.04Zm-.02-3.41c.82 0 1.56-.2 2.21-.6a4.41 4.41 0 0 0 2.11-3.93c0-.83-.18-1.58-.55-2.26a4.16 4.16 0 0 0-3.72-2.19 4.19 4.19 0 0 0-3.1 1.33 4.6 4.6 0 0 0 .83 7.04c.65.4 1.4.6 2.22.6Zm22.87-10.24v3.39H54.71v-3.39H65.2Zm13.75-9.94v23.27h-4.22v-19.17h-.13l-5.45 3.48v-3.87l5.79-3.71h4Zm14.51 23.71a8.14 8.14 0 0 1-4.82-1.42 9.05 9.05 0 0 1-3.08-4.12 17.73 17.73 0 0 1-1.07-6.52c.01-2.53.37-4.7 1.08-6.47a8.9 8.9 0 0 1 3.08-4.1 8.17 8.17 0 0 1 4.81-1.4c1.86 0 3.47.47 4.8 1.4a8.8 8.8 0 0 1 3.09 4.1 17.36 17.36 0 0 1 1.08 6.47c0 2.55-.36 4.73-1.08 6.53a8.87 8.87 0 0 1-3.08 4.11 8.08 8.08 0 0 1-4.81 1.42Zm0-3.56c1.45 0 2.6-.71 3.44-2.14.85-1.44 1.28-3.56 1.28-6.36 0-1.84-.2-3.4-.58-4.65a6.19 6.19 0 0 0-1.64-2.85 3.59 3.59 0 0 0-2.5-.96c-1.45 0-2.6.72-3.43 2.16-.84 1.43-1.27 3.53-1.27 6.3-.01 1.86.17 3.42.55 4.69a6.27 6.27 0 0 0 1.64 2.86c.7.64 1.54.95 2.51.95Z" />
    </g>
    <g data-object="Сокол__r__2338:2442">
      <rect width="127" height="138" x="143" y="407" fill="#78B500" rx="12" />
      <path fill="#fff"
        d="M179.65 488.92c-1.12 0-2.2-.2-3.26-.58a7.69 7.69 0 0 1-2.87-1.88 9.23 9.23 0 0 1-2.02-3.46 16.4 16.4 0 0 1-.74-5.38c0-1.99.21-3.77.64-5.33a11.76 11.76 0 0 1 1.83-3.95 8.07 8.07 0 0 1 2.87-2.48 8.3 8.3 0 0 1 3.79-.85 8.5 8.5 0 0 1 3.88.86 7.32 7.32 0 0 1 4.05 5.73h-4.15c-.21-.9-.65-1.6-1.3-2.14a3.76 3.76 0 0 0-2.48-.8c-1.62 0-2.86.7-3.73 2.1-.86 1.4-1.3 3.32-1.3 5.77h.15c.37-.66.85-1.24 1.45-1.71a7.05 7.05 0 0 1 4.38-1.5 6.99 6.99 0 0 1 6.25 3.67c.64 1.13.95 2.44.94 3.9a7.59 7.59 0 0 1-3.99 6.99 8.84 8.84 0 0 1-4.4 1.04Zm-.03-3.41a4.15 4.15 0 0 0 3.77-2.23 4.5 4.5 0 0 0 .55-2.3 4.46 4.46 0 0 0-.54-2.25 4.16 4.16 0 0 0-3.72-2.2 4.19 4.19 0 0 0-3.1 1.33 4.58 4.58 0 0 0 .83 7.03 4 4 0 0 0 2.22.62Zm22.88-10.24v3.39h-10.48v-3.39h10.48Zm12.88 13.77a8.14 8.14 0 0 1-4.81-1.42 9.05 9.05 0 0 1-3.08-4.12 17.74 17.74 0 0 1-1.07-6.51c0-2.54.37-4.7 1.08-6.48a8.91 8.91 0 0 1 3.08-4.1 8.17 8.17 0 0 1 4.8-1.4c1.87 0 3.47.47 4.81 1.4a8.8 8.8 0 0 1 3.08 4.1 17.34 17.34 0 0 1 1.08 6.48c0 2.54-.36 4.72-1.08 6.52a8.87 8.87 0 0 1-3.08 4.11 8.09 8.09 0 0 1-4.8 1.42Zm0-3.55c1.46 0 2.6-.72 3.45-2.15.85-1.44 1.27-3.56 1.27-6.35 0-1.85-.2-3.4-.58-4.66a6.19 6.19 0 0 0-1.64-2.84 3.58 3.58 0 0 0-2.5-.97c-1.44 0-2.59.72-3.43 2.16-.84 1.43-1.26 3.53-1.27 6.3 0 1.86.18 3.42.56 4.69a6.27 6.27 0 0 0 1.63 2.86c.7.64 1.54.96 2.51.96Zm12.97 3.11 9.9-19.6v-.15h-11.49v-3.52h15.85v3.6l-9.88 19.67h-4.38Z" />
    </g>
    <g data-object="Сокол__e__2127:413">
      <rect width="94" height="123" x="268" y="208" fill="#fff" rx="12" />
      <g>
        <g>
          <mask id="b" fill="#fff">
            <path
              d="M291 239.5a3 3 0 0 1 3-3h42a3 3 0 0 1 3 3v59a3 3 0 0 1-3 3h-42a3 3 0 0 1-3-3v-59Z" />
          </mask>
          <path fill="#000"
            d="M288 239.5a6 6 0 0 1 6-6h52a6 6 0 0 1 6 6h-64Zm64 59a6 6 0 0 1-6 6h-52a6 6 0 0 1-6-6h64Zm-58 6a6 6 0 0 1-6-6v-59a6 6 0 0 1 6-6v71Zm52-71a6 6 0 0 1 6 6v59a6 6 0 0 1-6 6l-20-6v-59l20-6Z"
            mask="url(#b)" />
        </g>
        <path fill="#fff"
          d="m330.71 263.7.8-.8v4.6a1 1 0 1 0 1.99 0v-4.6l.79.8a.99.99 0 0 0 1.09.23 1 1 0 0 0 .32-1.64l-2.5-2.5a.87.87 0 0 0-.32-.22 1 1 0 0 0-.76 0 1 1 0 0 0-.33.22l-2.5 2.5a1 1 0 0 0 1.42 1.42Zm3.58 11.59-.8.8v-4.6a1 1 0 1 0-1.99 0v4.6l-.79-.8a1.01 1.01 0 0 0-1.1-.22 1.01 1.01 0 0 0-.53 1.31c.05.13.12.24.21.33l2.5 2.5c.1.1.2.16.33.21a.93.93 0 0 0 .76 0c.12-.05.23-.12.33-.21l2.5-2.5a1 1 0 0 0-1.42-1.42Z" />
        <path fill="#000"
          d="M309.5 257a5.25 5.25 0 1 0 0-10.5 5.25 5.25 0 0 0 0 10.5Zm4.5 0h-9a6.01 6.01 0 0 0-6 6v10.08a1.9 1.9 0 0 0 1.8 1.92 1.88 1.88 0 0 0 1.95-1.88v-9.35a.77.77 0 0 1 .7-.77.74.74 0 0 1 .74.45c.04.1.06.2.06.3v27.1a2.15 2.15 0 1 0 4.31 0v-13.38a.96.96 0 0 1 .88-.97.93.93 0 0 1 1 .94v13.4a2.15 2.15 0 1 0 4.31 0v-27.06a.77.77 0 0 1 .7-.78.74.74 0 0 1 .74.45c.04.1.06.2.06.3v9.33a1.9 1.9 0 0 0 1.8 1.92 1.88 1.88 0 0 0 1.95-1.88V263a6.01 6.01 0 0 0-6-6Z" />
      </g>
    </g>
    <g data-object="Сокол__r__2338:2392">
      <rect width="136" height="202" fill="#78B500" rx="12" />
      <path fill="#fff"
        d="M42.34 114.07a9.87 9.87 0 0 1-3.26-.58 7.66 7.66 0 0 1-2.87-1.88 9.22 9.22 0 0 1-2.02-3.46c-.5-1.45-.74-3.24-.74-5.38 0-2 .22-3.77.64-5.33a11.78 11.78 0 0 1 1.83-3.95A8.07 8.07 0 0 1 38.79 91a8.3 8.3 0 0 1 3.79-.85c1.46 0 2.76.28 3.88.86a7.32 7.32 0 0 1 4.05 5.73h-4.15c-.21-.9-.65-1.6-1.3-2.14a3.76 3.76 0 0 0-2.48-.8c-1.62 0-2.86.7-3.73 2.1-.86 1.4-1.3 3.32-1.3 5.77h.15c.37-.67.86-1.24 1.45-1.72a7.07 7.07 0 0 1 4.38-1.5 6.98 6.98 0 0 1 6.25 3.67c.64 1.14.95 2.44.95 3.91 0 1.53-.34 2.9-1.05 4.13a7.59 7.59 0 0 1-2.94 2.86 8.84 8.84 0 0 1-4.4 1.04Zm-.02-3.41c.82 0 1.56-.2 2.21-.6a4.41 4.41 0 0 0 2.11-3.93c0-.83-.18-1.58-.55-2.26a4.15 4.15 0 0 0-3.72-2.19 4.19 4.19 0 0 0-3.1 1.33 4.59 4.59 0 0 0 .83 7.03c.65.41 1.4.62 2.22.62Zm22.87-10.24v3.39H54.71v-3.4H65.2Zm12.89 13.77a8.14 8.14 0 0 1-4.82-1.42 9.05 9.05 0 0 1-3.08-4.12 17.73 17.73 0 0 1-1.07-6.52c0-2.53.37-4.7 1.08-6.47a8.9 8.9 0 0 1 3.08-4.1 8.16 8.16 0 0 1 4.8-1.4c1.87 0 3.47.47 4.81 1.4a8.8 8.8 0 0 1 3.08 4.1 17.35 17.35 0 0 1 1.08 6.47c0 2.55-.36 4.72-1.08 6.53a8.88 8.88 0 0 1-3.08 4.11 8.08 8.08 0 0 1-4.8 1.42Zm0-3.56c1.45 0 2.6-.71 3.44-2.14.85-1.44 1.27-3.56 1.27-6.36 0-1.84-.2-3.4-.58-4.65a6.18 6.18 0 0 0-1.63-2.85 3.58 3.58 0 0 0-2.5-.96c-1.45 0-2.6.72-3.44 2.16-.84 1.43-1.26 3.53-1.27 6.3 0 1.86.18 3.42.56 4.69a6.27 6.27 0 0 0 1.63 2.86c.7.64 1.55.95 2.52.95Zm22.2-20.15v23.27h-4.21V94.58h-.14l-5.44 3.47V94.2l5.78-3.71h4.01Z" />
    </g>
    <g data-object="Сокол__r__2338:2395">
      <rect width="260" height="160" x="141" fill="#78B500" rx="12" />
      <path fill="#fff"
        d="M244.46 92.19a9.82 9.82 0 0 1-3.26-.58 7.67 7.67 0 0 1-2.87-1.88 9.21 9.21 0 0 1-2.02-3.46 16.4 16.4 0 0 1-.74-5.38c0-1.99.21-3.77.64-5.33a11.79 11.79 0 0 1 1.83-3.95 8.08 8.08 0 0 1 2.87-2.48 8.3 8.3 0 0 1 3.79-.85 8.5 8.5 0 0 1 3.88.86 7.32 7.32 0 0 1 4.05 5.73h-4.15c-.21-.9-.65-1.6-1.3-2.14a3.76 3.76 0 0 0-2.48-.8c-1.62 0-2.86.7-3.73 2.1-.86 1.4-1.3 3.32-1.3 5.77h.15c.37-.67.85-1.24 1.44-1.71a7.07 7.07 0 0 1 4.38-1.5 6.98 6.98 0 0 1 6.26 3.67c.64 1.13.95 2.44.94 3.9a7.6 7.6 0 0 1-3.99 6.99 8.84 8.84 0 0 1-4.4 1.04Zm-.03-3.41c.83 0 1.57-.2 2.22-.6a4.55 4.55 0 0 0 2.1-3.92c.01-.84-.17-1.6-.54-2.27a4.16 4.16 0 0 0-3.72-2.19 4.19 4.19 0 0 0-3.1 1.33 4.58 4.58 0 0 0 .83 7.04c.65.4 1.39.6 2.22.6Zm22.88-10.24v3.39h-10.48v-3.39h10.48Zm12.88 13.77a8.14 8.14 0 0 1-4.81-1.42 9.05 9.05 0 0 1-3.08-4.12 17.74 17.74 0 0 1-1.07-6.51c0-2.54.37-4.7 1.08-6.48a8.9 8.9 0 0 1 3.08-4.1 8.16 8.16 0 0 1 4.8-1.4c1.87 0 3.47.47 4.81 1.4a8.8 8.8 0 0 1 3.08 4.1 17.34 17.34 0 0 1 1.08 6.48c0 2.54-.36 4.72-1.08 6.52a8.87 8.87 0 0 1-3.08 4.11 8.08 8.08 0 0 1-4.8 1.42Zm0-3.55c1.46 0 2.6-.72 3.45-2.15.85-1.44 1.27-3.56 1.27-6.35 0-1.85-.2-3.4-.58-4.66a6.18 6.18 0 0 0-1.64-2.84 3.58 3.58 0 0 0-2.5-.97c-1.44 0-2.59.72-3.43 2.16-.84 1.43-1.26 3.53-1.27 6.3 0 1.86.18 3.42.56 4.69a6.27 6.27 0 0 0 1.63 2.86c.7.64 1.54.96 2.51.96Zm12.75 3.11v-3.05L301 80.9c.78-.78 1.42-1.47 1.94-2.08.51-.6.9-1.19 1.16-1.76.25-.57.38-1.17.38-1.82a3.32 3.32 0 0 0-1.88-3.11 4.43 4.43 0 0 0-1.98-.43 4.1 4.1 0 0 0-2.01.48c-.58.3-1.03.75-1.34 1.33a4.27 4.27 0 0 0-.47 2.05h-4.01a6.82 6.82 0 0 1 3.8-6.39c1.18-.6 2.55-.9 4.08-.9 1.57 0 2.94.3 4.12.88a6.7 6.7 0 0 1 2.75 2.4c.66 1.02.99 2.18.99 3.48a6.9 6.9 0 0 1-.5 2.57 10.9 10.9 0 0 1-1.76 2.8 44.5 44.5 0 0 1-3.51 3.7l-4.02 4.09v.16h10.14v3.52h-15.95Z" />
    </g>
    <g data-object="Сокол__r__2338:2406">
      <rect width="269" height="138" x="275" y="407" fill="#78B500" rx="12" />
      <path fill="#fff"
        d="M381.32 488.92c-1.11 0-2.2-.2-3.26-.58a7.69 7.69 0 0 1-2.86-1.88 9.23 9.23 0 0 1-2.03-3.46c-.5-1.45-.74-3.24-.74-5.38 0-1.99.22-3.77.64-5.33a11.76 11.76 0 0 1 1.83-3.95 8.08 8.08 0 0 1 2.88-2.48 8.3 8.3 0 0 1 3.78-.85c1.46 0 2.76.29 3.89.86a7.3 7.3 0 0 1 4.04 5.73h-4.15c-.2-.9-.64-1.6-1.3-2.14a3.76 3.76 0 0 0-2.48-.8c-1.61 0-2.86.7-3.73 2.1-.86 1.4-1.3 3.32-1.3 5.77h.16c.37-.66.85-1.24 1.44-1.71a7.05 7.05 0 0 1 4.38-1.5 6.99 6.99 0 0 1 6.25 3.67 7.8 7.8 0 0 1 .95 3.9c0 1.54-.34 2.91-1.05 4.13a7.58 7.58 0 0 1-2.94 2.86 8.84 8.84 0 0 1-4.4 1.04Zm-.02-3.41c.82 0 1.56-.2 2.21-.6.66-.4 1.17-.95 1.55-1.63.38-.68.56-1.44.56-2.3 0-.83-.18-1.58-.55-2.25a4.15 4.15 0 0 0-3.71-2.2 4.2 4.2 0 0 0-3.1 1.33 4.6 4.6 0 0 0 .82 7.03c.65.42 1.4.62 2.22.62Zm22.87-10.24v3.39H393.7v-3.39h10.47Zm12.89 13.77a8.14 8.14 0 0 1-4.82-1.42 9.06 9.06 0 0 1-3.08-4.12 17.74 17.74 0 0 1-1.07-6.51c0-2.54.37-4.7 1.08-6.48a8.9 8.9 0 0 1 3.08-4.1 8.17 8.17 0 0 1 4.8-1.4c1.87 0 3.47.47 4.81 1.4a8.8 8.8 0 0 1 3.08 4.1 17.34 17.34 0 0 1 1.08 6.48c0 2.54-.36 4.72-1.08 6.52a8.87 8.87 0 0 1-3.08 4.11 8.08 8.08 0 0 1-4.8 1.42Zm0-3.55c1.45 0 2.6-.72 3.44-2.15.85-1.44 1.27-3.56 1.27-6.35 0-1.85-.19-3.4-.58-4.66a6.18 6.18 0 0 0-1.63-2.84 3.58 3.58 0 0 0-2.5-.97c-1.45 0-2.6.72-3.44 2.16-.84 1.43-1.26 3.53-1.27 6.3 0 1.86.18 3.42.56 4.69a6.27 6.27 0 0 0 1.64 2.86c.7.64 1.54.96 2.5.96Zm21.26 3.43c-1.11 0-2.2-.2-3.26-.58a7.69 7.69 0 0 1-2.86-1.88 9.23 9.23 0 0 1-2.03-3.46c-.5-1.45-.74-3.24-.74-5.38 0-1.99.22-3.77.64-5.33a11.76 11.76 0 0 1 1.83-3.95 8.08 8.08 0 0 1 2.88-2.48 8.3 8.3 0 0 1 3.78-.85c1.46 0 2.76.29 3.89.86a7.3 7.3 0 0 1 4.04 5.73h-4.15c-.2-.9-.64-1.6-1.3-2.14a3.76 3.76 0 0 0-2.48-.8c-1.61 0-2.86.7-3.73 2.1-.86 1.4-1.3 3.32-1.3 5.77h.16c.37-.66.85-1.24 1.44-1.71a7.05 7.05 0 0 1 4.38-1.5 6.99 6.99 0 0 1 6.25 3.67 7.8 7.8 0 0 1 .95 3.9c0 1.54-.34 2.91-1.05 4.13a7.58 7.58 0 0 1-2.94 2.86 8.84 8.84 0 0 1-4.4 1.04Zm-.02-3.41c.82 0 1.56-.2 2.21-.6.66-.4 1.17-.95 1.55-1.63.38-.68.56-1.44.56-2.3 0-.83-.18-1.58-.55-2.25a4.15 4.15 0 0 0-3.71-2.2 4.2 4.2 0 0 0-3.1 1.33 4.6 4.6 0 0 0 .82 7.03c.65.42 1.4.62 2.22.62Z" />
    </g>
  </g>
  <defs>
    <clipPath id="a">
      <path fill="#fff" d="M44 279.5h48v48H44z" />
    </clipPath>
  </defs>
</svg>