<svg xmlns="http://www.w3.org/2000/svg" width="746" height="573" fill="none" viewBox="0 0 746 573">
  <g>
    <g>
      <path fill="#262A34"
        d="M136.5 417a12 12 0 0 0 12 12H236a12 12 0 0 0 12-12v-15a12 12 0 0 1 12-12h226.5a12 12 0 0 1 12 12v15a12 12 0 0 0 12 12h95a5 5 0 0 0 5-5v-52.25c0-.69.56-1.25 1.25-1.25s1.25-.56 1.25-1.25V242a12 12 0 0 1 12-12h104.5a12 12 0 0 0 12-12v-7.5a12 12 0 0 0-12-12H620.75a7.75 7.75 0 0 1-7.75-7.75 7.75 7.75 0 0 0-7.75-7.75H148.5a12 12 0 0 0-12 12v222Z" />
    </g>
    <g>
      <rect width="11" height="17" x="246" y="396" fill="#262A34" rx="3" />
    </g>
    <g>
      <rect width="11" height="17" x="606" y="401" fill="#262A34" rx="3" />
    </g>
    <g>
      <rect width="19" height="8" x="521" y="427" fill="#262A34" rx="3" />
    </g>
    <g>
      <rect width="11" height="17" x="490" y="401" fill="#262A34" rx="3" />
    </g>
    <g>
      <rect width="23" height="14" x="181" y="169" fill="#262A34" rx="3" />
    </g>
    <g>
      <rect width="11" height="22" x="129" y="211" fill="#262A34" rx="3" />
    </g>
    <g>
      <rect width="23" height="14" x="386" y="171" fill="#262A34" rx="3" />
    </g>
    <g>
      <rect width="23" height="14" x="325" y="169" fill="#262A34" rx="3" />
    </g>
    <g>
      <rect width="23" height="14" x="667" y="104" fill="#262A34" rx="3" />
    </g>
    <g>
      <rect width="11" height="17" x="129" y="398" fill="#262A34" rx="3" />
    </g>
    <g>
      <rect width="24" height="9" x="535" y="175" fill="#262A34" rx="3" />
    </g>
    <g data-object="Сокол__r__6059:668">
      <path fill="#78B500"
        d="M.5 397a12 12 0 0 1 12-12H119a12 12 0 0 1 12 12v26.5a12 12 0 0 0 12 12h95a12 12 0 0 1 12 12V561a12 12 0 0 1-12 12H12.5a12 12 0 0 1-12-12V397Z" />
      <path fill="#fff"
        d="M77.45 491v-23.27h8.91c1.68 0 3.08.26 4.2.8a5.6 5.6 0 0 1 2.5 2.14c.57.91.85 1.94.85 3.1a4.58 4.58 0 0 1-2.01 4.06 6.2 6.2 0 0 1-2.06.89v.22a5.28 5.28 0 0 1 4.25 2.7c.48.83.73 1.84.73 3.02 0 1.2-.3 2.29-.88 3.25a5.95 5.95 0 0 1-2.64 2.26 10.4 10.4 0 0 1-4.43.83h-9.42Zm4.22-3.52h4.53c1.53 0 2.63-.3 3.3-.88a2.87 2.87 0 0 0 1.03-2.27 3.48 3.48 0 0 0-1.96-3.18 4.83 4.83 0 0 0-2.25-.5h-4.65v6.83Zm0-9.86h4.17a4.7 4.7 0 0 0 1.96-.4 3.07 3.07 0 0 0 1.89-2.92c0-.9-.32-1.64-.95-2.22-.63-.58-1.57-.88-2.81-.88h-4.26v6.43Zm25.1 13.7c-1.1 0-2.2-.2-3.25-.58a7.69 7.69 0 0 1-2.87-1.88 9.23 9.23 0 0 1-2.02-3.46 16.4 16.4 0 0 1-.74-5.38c0-1.99.21-3.77.64-5.33a11.78 11.78 0 0 1 1.83-3.95 8.08 8.08 0 0 1 2.87-2.48 8.3 8.3 0 0 1 3.79-.85c1.46 0 2.76.29 3.88.86a7.3 7.3 0 0 1 4.05 5.73h-4.15c-.21-.9-.65-1.6-1.3-2.14a3.76 3.76 0 0 0-2.48-.8c-1.62 0-2.86.7-3.73 2.1-.86 1.4-1.3 3.32-1.3 5.77h.15c.37-.67.85-1.24 1.44-1.71a7.05 7.05 0 0 1 4.38-1.5 6.99 6.99 0 0 1 6.26 3.67 7.8 7.8 0 0 1 .95 3.9c0 1.54-.35 2.91-1.05 4.13a7.58 7.58 0 0 1-2.94 2.86 8.84 8.84 0 0 1-4.4 1.04Zm-.01-3.41a4.15 4.15 0 0 0 3.76-2.23 4.5 4.5 0 0 0 .55-2.3 4.46 4.46 0 0 0-.54-2.25 4.15 4.15 0 0 0-3.72-2.2 4.18 4.18 0 0 0-3.1 1.33 4.6 4.6 0 0 0 .83 7.04c.65.4 1.39.6 2.22.6Zm22.87-10.24v3.39h-10.48v-3.39h10.48Zm12.88 13.77a8.14 8.14 0 0 1-4.81-1.42 9.06 9.06 0 0 1-3.08-4.12 17.74 17.74 0 0 1-1.07-6.51c0-2.54.37-4.7 1.08-6.48a8.9 8.9 0 0 1 3.08-4.1 8.17 8.17 0 0 1 4.8-1.4c1.87 0 3.47.47 4.81 1.4a8.81 8.81 0 0 1 3.08 4.1 17.36 17.36 0 0 1 1.08 6.48c0 2.54-.36 4.72-1.08 6.52a8.88 8.88 0 0 1-3.08 4.11 8.08 8.08 0 0 1-4.8 1.42Zm0-3.55c1.46 0 2.6-.72 3.45-2.15.85-1.44 1.27-3.56 1.27-6.35 0-1.85-.2-3.4-.58-4.66a6.2 6.2 0 0 0-1.64-2.84 3.58 3.58 0 0 0-2.5-.97c-1.44 0-2.59.72-3.43 2.16-.84 1.43-1.26 3.53-1.27 6.3 0 1.86.18 3.42.56 4.69a6.27 6.27 0 0 0 1.63 2.86c.7.64 1.54.96 2.51.96Zm21.02 3.43c-1.7 0-3.2-.29-4.5-.85a7.5 7.5 0 0 1-3.07-2.33c-.74-1-1.1-2.12-1.1-3.38 0-.98.21-1.87.65-2.7a5.99 5.99 0 0 1 4.22-3.1v-.15a4.92 4.92 0 0 1-2.9-1.83 5.28 5.28 0 0 1-1.1-3.33c0-1.2.33-2.27 1-3.2a6.82 6.82 0 0 1 2.78-2.22 9.45 9.45 0 0 1 4.02-.82c1.5 0 2.82.27 3.99.82a6.83 6.83 0 0 1 2.77 2.21 5.33 5.33 0 0 1 1.02 3.2c0 1.26-.37 2.38-1.12 3.34a4.9 4.9 0 0 1-2.88 1.83v.16a6 6 0 0 1 4.86 5.8c0 1.25-.37 2.37-1.1 3.37a7.48 7.48 0 0 1-3.08 2.33c-1.3.56-2.78.85-4.46.85Zm0-3.25c.87 0 1.63-.15 2.27-.44a3.44 3.44 0 0 0 2.05-3.16c-.01-.75-.2-1.4-.58-1.97a3.8 3.8 0 0 0-1.54-1.35 4.82 4.82 0 0 0-2.2-.5c-.84 0-1.58.17-2.23.5-.65.32-1.17.77-1.54 1.35a3.44 3.44 0 0 0-.55 1.97 3.3 3.3 0 0 0 2.02 3.14c.65.3 1.42.46 2.3.46Zm0-10.6c.71 0 1.34-.15 1.88-.44a3.3 3.3 0 0 0 1.8-2.98c0-.67-.17-1.25-.48-1.75-.3-.51-.74-.9-1.3-1.18a4.17 4.17 0 0 0-1.9-.42 4.3 4.3 0 0 0-1.94.43 3.08 3.08 0 0 0-1.74 2.92 3.3 3.3 0 0 0 .45 1.78c.32.5.75.9 1.3 1.2.57.3 1.2.44 1.93.44Z" />
    </g>
    <g data-object="Сокол__t__2370:577">
      <rect width="63" height="100" x="434" y="233" fill="#60A5FA" rx="12" />
      <g fill="#fff">
        <path
          d="M451.5 269.5a5.25 5.25 0 1 0 0-10.5 5.25 5.25 0 0 0 0 10.5Zm4.5 1.5h-9a6.01 6.01 0 0 0-6 6v10.08a1.9 1.9 0 0 0 1.8 1.92 1.88 1.88 0 0 0 1.95-1.88v-9.35a.77.77 0 0 1 .7-.77.74.74 0 0 1 .74.45c.04.1.06.2.06.3v27.1a2.15 2.15 0 1 0 4.31 0v-13.38a.96.96 0 0 1 .88-.97.93.93 0 0 1 1 .94v13.4a2.15 2.15 0 1 0 4.31 0v-27.06a.77.77 0 0 1 .7-.78.74.74 0 0 1 .74.45c.04.1.06.2.06.3v9.33a1.9 1.9 0 0 0 1.8 1.92 1.88 1.88 0 0 0 1.95-1.88V277a6.01 6.01 0 0 0-6-6Z" />
      </g>
      <g fill="#fff" clip-path="url(#a)">
        <path
          d="M479.48 269.5a5.25 5.25 0 1 0 0-10.5 5.25 5.25 0 0 0 0 10.5Zm13.02 15.55-.97-3.22v-.01l-2.1-7.02h-.01l-.24-.8a4.21 4.21 0 0 0-4.03-3H473.9a4.2 4.2 0 0 0-4.03 3l-.24.8-2.1 7.02-.98 3.23a1.9 1.9 0 0 0 1.18 2.36 1.89 1.89 0 0 0 2.05-.58c.16-.19.28-.41.35-.66l2.4-7.99.2-.68a.75.75 0 0 1 .83-.48.75.75 0 0 1 .63.73c0 .05 0 .1-.02.15l-4.1 13.67a1.48 1.48 0 0 0 .24 1.32 1.5 1.5 0 0 0 1.2.61h2.72v10.75c0 1.55.98 2.75 2.25 2.75 1.26 0 2.25-1.2 2.25-2.75V293.5h1.5v10.75c0 1.55.98 2.75 2.25 2.75 1.26 0 2.25-1.2 2.25-2.75V293.5h2.8a1.51 1.51 0 0 0 1.21-.6 1.5 1.5 0 0 0 .24-1.33l-4.1-13.67a.75.75 0 0 1 1.12-.8c.14.1.26.24.32.4l.2.68 2.4 8a1.87 1.87 0 0 0 2.4 1.23 1.9 1.9 0 0 0 1.18-2.36Z" />
      </g>
    </g>
    <g data-object="Сокол__r__2370:482">
      <rect width="129" height="191" x="617" y="382" fill="#78B500" rx="12" />
      <path fill="#fff"
        d="M635.13 490.11v-23.27h8.91c1.69 0 3.08.27 4.2.8a5.6 5.6 0 0 1 2.5 2.14c.57.91.85 1.94.85 3.1a4.58 4.58 0 0 1-2.01 4.06 6.2 6.2 0 0 1-2.06.89v.23a5.28 5.28 0 0 1 4.25 2.7c.49.82.73 1.83.73 3.01 0 1.2-.3 2.29-.88 3.25a5.95 5.95 0 0 1-2.63 2.26c-1.18.56-2.65.83-4.44.83h-9.41Zm4.22-3.52h4.53c1.53 0 2.64-.3 3.31-.88a2.87 2.87 0 0 0 1.02-2.27 3.48 3.48 0 0 0-1.96-3.18 4.83 4.83 0 0 0-2.25-.49h-4.65v6.82Zm0-9.85h4.17a4.7 4.7 0 0 0 1.97-.4 3.07 3.07 0 0 0 1.89-2.92c0-.9-.33-1.64-.96-2.23-.63-.58-1.57-.87-2.8-.87h-4.27v6.42Zm25.11 13.7c-1.11-.02-2.2-.21-3.26-.59a7.69 7.69 0 0 1-2.86-1.87 9.23 9.23 0 0 1-2.03-3.47 16.4 16.4 0 0 1-.73-5.37c0-2 .2-3.77.63-5.33a11.8 11.8 0 0 1 1.83-3.96 8.08 8.08 0 0 1 2.88-2.48 8.3 8.3 0 0 1 3.78-.85c1.46 0 2.76.29 3.89.87a7.32 7.32 0 0 1 4.04 5.72h-4.15c-.2-.9-.64-1.6-1.3-2.13a3.76 3.76 0 0 0-2.48-.81c-1.61 0-2.86.7-3.73 2.1-.86 1.4-1.3 3.33-1.3 5.78h.16c.37-.67.85-1.24 1.44-1.72a7.08 7.08 0 0 1 4.38-1.5 6.99 6.99 0 0 1 6.25 3.67 7.8 7.8 0 0 1 .95 3.9c0 1.54-.34 2.91-1.05 4.13a7.58 7.58 0 0 1-2.94 2.87 8.83 8.83 0 0 1-4.4 1.03Zm-.02-3.42a4.15 4.15 0 0 0 3.76-2.22c.38-.69.56-1.45.56-2.3 0-.83-.18-1.59-.55-2.26a4.15 4.15 0 0 0-3.71-2.2 4.19 4.19 0 0 0-3.1 1.33 4.6 4.6 0 0 0 .82 7.04c.65.4 1.4.61 2.22.61Zm22.87-10.24v3.39h-10.47v-3.39h10.47Zm12.89 13.78a8.14 8.14 0 0 1-4.82-1.42 9.06 9.06 0 0 1-3.08-4.13 17.74 17.74 0 0 1-1.07-6.51c0-2.54.37-4.7 1.08-6.48a8.91 8.91 0 0 1 3.08-4.09 8.17 8.17 0 0 1 4.8-1.4c1.87 0 3.47.46 4.81 1.4a8.81 8.81 0 0 1 3.08 4.1 17.36 17.36 0 0 1 1.08 6.47c0 2.55-.36 4.72-1.08 6.52a8.88 8.88 0 0 1-3.08 4.12 8.08 8.08 0 0 1-4.8 1.42Zm0-3.56c1.45 0 2.6-.72 3.44-2.15.85-1.44 1.27-3.56 1.27-6.35 0-1.85-.19-3.4-.58-4.66a6.2 6.2 0 0 0-1.63-2.84 3.58 3.58 0 0 0-2.5-.97c-1.45 0-2.6.72-3.44 2.16-.84 1.43-1.26 3.54-1.27 6.3 0 1.87.18 3.43.56 4.7a6.27 6.27 0 0 0 1.64 2.86c.7.63 1.54.95 2.5.95Zm20.83 3.43a9.38 9.38 0 0 1-4.07-.85 7.26 7.26 0 0 1-2.85-2.37c-.7-1-1.07-2.14-1.11-3.43h4.09c.07.96.49 1.74 1.24 2.34.75.6 1.65.9 2.7.9a4.07 4.07 0 0 0 3.73-2.15c.37-.67.55-1.44.54-2.3a4.7 4.7 0 0 0-.55-2.34 4.17 4.17 0 0 0-1.56-1.6 4.3 4.3 0 0 0-2.27-.6c-.7 0-1.39.13-2.06.39a4.2 4.2 0 0 0-1.6 1.04l-3.81-.62 1.22-12h13.5v3.52h-10.01l-.68 6.17h.14a4.8 4.8 0 0 1 1.83-1.26 6.46 6.46 0 0 1 2.6-.5 7.16 7.16 0 0 1 6.38 3.72c.63 1.16.95 2.48.95 3.97 0 1.54-.35 2.91-1.07 4.12a7.56 7.56 0 0 1-2.94 2.83 8.92 8.92 0 0 1-4.34 1.02Z" />
    </g>
    <g data-object="Сокол__r__2392:919">
      <rect width="112" height="139" x="500" y="434" fill="#78B500" rx="12" />
      <path fill="#fff"
        d="M507.77 514.93v-20.36h7.8c1.47 0 2.7.23 3.67.7a4.9 4.9 0 0 1 2.2 1.87c.48.8.73 1.7.73 2.7a4 4 0 0 1-1.76 3.55c-.54.37-1.14.63-1.8.8v.2a4.63 4.63 0 0 1 3.72 2.36c.42.72.63 1.6.63 2.63 0 1.06-.25 2-.76 2.85a5.2 5.2 0 0 1-2.3 1.98 9.12 9.12 0 0 1-3.88.72h-8.25Zm3.7-3.08h3.96c1.34 0 2.3-.26 2.9-.77.59-.51.89-1.18.89-1.99a3.05 3.05 0 0 0-1.72-2.78 4.23 4.23 0 0 0-1.97-.43h-4.07v5.97Zm0-8.62h3.64c.64 0 1.21-.12 1.72-.35a2.69 2.69 0 0 0 1.65-2.56 2.5 2.5 0 0 0-.84-1.94c-.54-.51-1.36-.77-2.45-.77h-3.73v5.62Zm21.96 11.98c-.97 0-1.92-.18-2.85-.5a6.71 6.71 0 0 1-2.5-1.65 8.07 8.07 0 0 1-1.78-3.03 14.38 14.38 0 0 1-.64-4.7c0-1.75.18-3.3.55-4.67.38-1.36.9-2.52 1.6-3.46a7.06 7.06 0 0 1 2.52-2.17c.99-.5 2.1-.74 3.31-.74 1.28 0 2.41.25 3.4.75a6.41 6.41 0 0 1 3.54 5.01h-3.63a3.3 3.3 0 0 0-1.14-1.86 3.26 3.26 0 0 0-2.17-.71c-1.41 0-2.5.61-3.26 1.84-.76 1.23-1.14 2.91-1.14 5.05h.14a5.1 5.1 0 0 1 1.26-1.5 6.19 6.19 0 0 1 3.83-1.31 6.1 6.1 0 0 1 5.48 3.2c.55 1 .83 2.14.82 3.43a6.64 6.64 0 0 1-3.49 6.11 7.7 7.7 0 0 1-3.85.9Zm-.02-2.98c.73 0 1.37-.18 1.94-.53a3.8 3.8 0 0 0 1.35-1.42c.33-.6.5-1.27.5-2.01 0-.73-.16-1.39-.49-1.98a3.63 3.63 0 0 0-3.25-1.92 3.67 3.67 0 0 0-2.71 1.16 4 4 0 0 0-.62 4.73c.33.6.77 1.07 1.34 1.43.57.36 1.22.54 1.94.54Zm20.02-8.96v2.96h-9.17v-2.96h9.17Zm11.27 12.05a7.11 7.11 0 0 1-4.21-1.25 7.92 7.92 0 0 1-2.7-3.6 15.52 15.52 0 0 1-.93-5.7c0-2.22.32-4.11.94-5.67a7.8 7.8 0 0 1 2.7-3.58 7.15 7.15 0 0 1 4.2-1.23c1.63 0 3.03.4 4.2 1.23a7.7 7.7 0 0 1 2.7 3.58c.63 1.56.95 3.45.95 5.67 0 2.23-.32 4.13-.95 5.7a7.75 7.75 0 0 1-2.7 3.6 7.07 7.07 0 0 1-4.2 1.25Zm0-3.11c1.27 0 2.28-.63 3.01-1.88.75-1.26 1.12-3.12 1.12-5.56 0-1.62-.17-2.98-.5-4.08a5.41 5.41 0 0 0-1.44-2.48 3.14 3.14 0 0 0-2.19-.85c-1.27 0-2.27.63-3 1.89-.74 1.25-1.1 3.1-1.12 5.52 0 1.62.16 2.99.5 4.1a5.5 5.5 0 0 0 1.42 2.5c.62.56 1.35.84 2.2.84Zm18.23 3a8.2 8.2 0 0 1-3.56-.75 6.36 6.36 0 0 1-2.5-2.07 5.48 5.48 0 0 1-.97-3h3.58c.07.84.43 1.52 1.08 2.05.66.52 1.45.79 2.37.79a3.57 3.57 0 0 0 3.26-1.88c.33-.6.48-1.27.48-2.02 0-.77-.16-1.45-.49-2.05a3.63 3.63 0 0 0-1.36-1.4 3.8 3.8 0 0 0-1.99-.52c-.6 0-1.2.1-1.8.34a3.7 3.7 0 0 0-1.4.91l-3.33-.54 1.06-10.5h11.81v3.08h-8.76l-.58 5.4h.12a4.2 4.2 0 0 1 1.6-1.1 6.27 6.27 0 0 1 7.86 2.81 7.1 7.1 0 0 1 .83 3.48 6.9 6.9 0 0 1-.94 3.6 6.61 6.61 0 0 1-2.57 2.47c-1.1.6-2.36.9-3.8.9Zm15.07.03c-.96 0-1.84-.17-2.61-.52a4.27 4.27 0 0 1-1.83-1.55 4.53 4.53 0 0 1-.67-2.52c0-.87.16-1.58.48-2.14a3.7 3.7 0 0 1 1.3-1.36 6.6 6.6 0 0 1 1.86-.76c.7-.18 1.42-.3 2.16-.39.9-.1 1.62-.17 2.18-.25.55-.08.96-.2 1.21-.36.26-.16.39-.42.39-.76v-.06c0-.75-.22-1.33-.67-1.74-.44-.41-1.08-.62-1.92-.62-.88 0-1.58.2-2.1.58-.5.38-.85.84-1.03 1.36l-3.36-.47a5.36 5.36 0 0 1 3.55-3.74 9.54 9.54 0 0 1 5.12-.22c.73.17 1.4.46 2 .85.6.4 1.09.93 1.45 1.6.37.68.56 1.52.56 2.54v10.22h-3.46v-2.1h-.12a4.4 4.4 0 0 1-2.4 2.08 6 6 0 0 1-2.09.33Zm.94-2.65c.72 0 1.35-.14 1.88-.42a3.18 3.18 0 0 0 1.66-2.72v-1.8c-.12.1-.3.18-.58.26a8.1 8.1 0 0 1-.9.2 25.75 25.75 0 0 1-1.82.29c-.54.07-1.02.19-1.44.36-.43.16-.76.4-1 .7-.25.28-.38.66-.38 1.13 0 .66.25 1.16.73 1.5.48.33 1.1.5 1.85.5Z" />
    </g>
    <g data-object="Сокол__r__6059:742">
      <path fill="#78B500"
        d="M496 12a12 12 0 0 1 12-12h46a12 12 0 0 1 12 12v87.43a12 12 0 0 0 12 12h153a12 12 0 0 1 12 12V167a12 12 0 0 1-12 12H508a12 12 0 0 1-12-12V12Z" />
      <path fill="#fff"
        d="M571.62 156v-23.27h8.91c1.68 0 3.08.26 4.2.8a5.6 5.6 0 0 1 2.5 2.14c.57.91.85 1.94.85 3.1a4.59 4.59 0 0 1-2.01 4.06 6.2 6.2 0 0 1-2.06.89v.22a5.28 5.28 0 0 1 4.25 2.7c.49.83.73 1.84.73 3.02 0 1.2-.3 2.29-.88 3.25a5.95 5.95 0 0 1-2.63 2.26 10.4 10.4 0 0 1-4.44.83h-9.42Zm4.22-3.52h4.53c1.53 0 2.64-.3 3.31-.88a2.87 2.87 0 0 0 1.02-2.27 3.48 3.48 0 0 0-1.96-3.18 4.83 4.83 0 0 0-2.25-.5h-4.65v6.83Zm0-9.85H580a4.7 4.7 0 0 0 1.97-.4 3.07 3.07 0 0 0 1.89-2.92c0-.9-.33-1.65-.96-2.23-.63-.58-1.57-.88-2.8-.88h-4.27v6.43Zm25.11 13.69c-1.11 0-2.2-.2-3.26-.58a7.69 7.69 0 0 1-2.87-1.88 9.23 9.23 0 0 1-2.02-3.46c-.5-1.45-.74-3.24-.74-5.38 0-1.99.22-3.77.64-5.33a11.78 11.78 0 0 1 1.83-3.95 8.08 8.08 0 0 1 2.88-2.48 8.3 8.3 0 0 1 3.78-.85c1.46 0 2.76.29 3.88.86a7.3 7.3 0 0 1 4.05 5.73h-4.15c-.2-.9-.64-1.6-1.3-2.14a3.76 3.76 0 0 0-2.48-.8c-1.62 0-2.86.7-3.73 2.1-.86 1.4-1.3 3.33-1.3 5.77h.15c.38-.67.86-1.24 1.45-1.71a7.05 7.05 0 0 1 4.38-1.5 6.99 6.99 0 0 1 6.25 3.67 7.8 7.8 0 0 1 .95 3.9c0 1.54-.34 2.91-1.05 4.13a7.58 7.58 0 0 1-2.94 2.86 8.84 8.84 0 0 1-4.4 1.04Zm-.02-3.41c.82 0 1.56-.2 2.21-.6a4.41 4.41 0 0 0 2.11-3.93c0-.83-.18-1.58-.55-2.25a4.15 4.15 0 0 0-3.72-2.2 4.2 4.2 0 0 0-3.1 1.33 4.6 4.6 0 0 0 .83 7.03c.65.42 1.4.62 2.22.62Zm22.87-10.24v3.39h-10.47v-3.39h10.47Zm12.89 13.77a8.14 8.14 0 0 1-4.82-1.42 9.06 9.06 0 0 1-3.08-4.12 17.74 17.74 0 0 1-1.07-6.51c0-2.54.37-4.7 1.08-6.48a8.9 8.9 0 0 1 3.08-4.1 8.17 8.17 0 0 1 4.8-1.4c1.87 0 3.47.47 4.81 1.4a8.8 8.8 0 0 1 3.08 4.1 17.34 17.34 0 0 1 1.08 6.48c0 2.54-.36 4.72-1.08 6.52a8.87 8.87 0 0 1-3.08 4.11 8.08 8.08 0 0 1-4.8 1.42Zm0-3.55c1.45 0 2.6-.72 3.44-2.15.85-1.44 1.27-3.56 1.27-6.35 0-1.85-.2-3.4-.58-4.66a6.18 6.18 0 0 0-1.63-2.84 3.58 3.58 0 0 0-2.5-.97c-1.45 0-2.6.72-3.44 2.16-.84 1.43-1.26 3.53-1.27 6.3 0 1.86.18 3.42.56 4.69a6.27 6.27 0 0 0 1.63 2.86c.7.64 1.55.96 2.52.96Zm12.32-1.2v-3.36l9.87-15.6h2.8v4.77h-1.7l-6.65 10.53v.19h13.78v3.46H649Zm11.1 4.31v-5.34l.04-1.5v-16.43h3.98V156h-4.02Z" />
    </g>
    <g data-object="Сокол__r__2370:478">
      <rect width="173" height="107" x="569" fill="#78B500" rx="12" />
      <path fill="#fff"
        d="M598.5 65.36V42.08h8.9c1.69 0 3.09.27 4.2.8a5.6 5.6 0 0 1 2.51 2.15c.56.9.84 1.94.84 3.09a4.58 4.58 0 0 1-2.01 4.06 6.2 6.2 0 0 1-2.05.9v.22a5.28 5.28 0 0 1 4.25 2.7c.48.83.72 1.83.72 3.02a6.2 6.2 0 0 1-.87 3.25 5.95 5.95 0 0 1-2.64 2.26 10.4 10.4 0 0 1-4.43.83h-9.42Zm4.21-3.53h4.54c1.53 0 2.63-.29 3.3-.87a2.87 2.87 0 0 0 1.03-2.27 3.48 3.48 0 0 0-1.97-3.19 4.84 4.84 0 0 0-2.25-.48h-4.65v6.81Zm0-9.85h4.17a4.7 4.7 0 0 0 1.97-.4 3.08 3.08 0 0 0 1.89-2.92c0-.9-.32-1.64-.96-2.22-.63-.59-1.56-.88-2.8-.88h-4.27v6.42Zm25.12 13.7a9.93 9.93 0 0 1-3.27-.58 7.67 7.67 0 0 1-2.86-1.88 9.21 9.21 0 0 1-2.02-3.47 16.3 16.3 0 0 1-.74-5.37c0-2 .21-3.77.63-5.33a11.77 11.77 0 0 1 1.83-3.95 8.06 8.06 0 0 1 2.88-2.48 8.3 8.3 0 0 1 3.78-.85c1.47 0 2.76.28 3.89.86a7.32 7.32 0 0 1 4.04 5.73h-4.14c-.21-.9-.65-1.6-1.3-2.14a3.76 3.76 0 0 0-2.49-.8c-1.61 0-2.85.7-3.72 2.1-.87 1.4-1.3 3.32-1.31 5.77h.16c.37-.67.85-1.24 1.44-1.72a7.07 7.07 0 0 1 4.38-1.5 6.98 6.98 0 0 1 6.26 3.67c.63 1.14.95 2.44.94 3.91a7.6 7.6 0 0 1-3.99 6.99 8.84 8.84 0 0 1-4.4 1.03Zm-.03-3.41c.83 0 1.57-.2 2.22-.6a4.56 4.56 0 0 0 2.1-3.92c0-.84-.17-1.6-.54-2.27a4.16 4.16 0 0 0-3.72-2.2 4.19 4.19 0 0 0-3.1 1.34 4.58 4.58 0 0 0 .83 7.03c.65.41 1.39.62 2.21.62Zm22.88-10.24v3.38H640.2v-3.38h10.48Zm12.88 13.77a8.14 8.14 0 0 1-4.82-1.42 9.05 9.05 0 0 1-3.08-4.13 17.74 17.74 0 0 1-1.06-6.5c0-2.55.36-4.7 1.07-6.48a8.91 8.91 0 0 1 3.08-4.1 8.16 8.16 0 0 1 4.81-1.4c1.86 0 3.47.47 4.8 1.4a8.8 8.8 0 0 1 3.09 4.1 17.34 17.34 0 0 1 1.08 6.47c0 2.55-.36 4.72-1.08 6.53a8.87 8.87 0 0 1-3.08 4.1 8.09 8.09 0 0 1-4.8 1.43Zm0-3.56c1.46 0 2.6-.71 3.44-2.14.85-1.44 1.28-3.56 1.28-6.36 0-1.85-.2-3.4-.58-4.66a6.18 6.18 0 0 0-1.64-2.84 3.58 3.58 0 0 0-2.5-.96c-1.45 0-2.59.72-3.43 2.16-.84 1.43-1.27 3.53-1.27 6.3-.01 1.86.17 3.42.55 4.68a6.27 6.27 0 0 0 1.64 2.87c.7.63 1.54.95 2.51.95Zm12.32-1.2v-3.35l9.88-15.6h2.8v4.77h-1.71l-6.65 10.53v.18h13.78v3.47h-18.1Zm11.1 4.32v-5.34l.05-1.5V42.08h3.98v23.28h-4.03Zm15.7.35c-1.1 0-2.1-.2-2.99-.6a4.92 4.92 0 0 1-2.09-1.76 5.19 5.19 0 0 1-.76-2.9c0-.98.18-1.79.55-2.43.36-.65.86-1.16 1.49-1.55a7.5 7.5 0 0 1 2.12-.87c.8-.2 1.62-.36 2.47-.45 1.02-.1 1.85-.2 2.49-.28.63-.1 1.1-.23 1.38-.41.3-.2.44-.48.44-.88v-.06a2.6 2.6 0 0 0-.76-2c-.5-.46-1.24-.7-2.19-.7-1 0-1.8.22-2.4.66-.58.44-.97.96-1.18 1.56l-3.84-.55a6.13 6.13 0 0 1 4.06-4.27 10.55 10.55 0 0 1 5.84-.25c.84.2 1.6.52 2.3.98a4.9 4.9 0 0 1 1.65 1.83c.43.77.64 1.74.64 2.9v11.68h-3.96v-2.4h-.13a5.01 5.01 0 0 1-2.75 2.37c-.68.25-1.47.38-2.38.38Zm1.07-3.02c.83 0 1.54-.17 2.15-.5.6-.33 1.07-.77 1.4-1.31.33-.55.5-1.14.5-1.78v-2.06c-.13.1-.35.2-.66.3-.3.08-.65.16-1.02.23a31.53 31.53 0 0 1-2.1.32 6.9 6.9 0 0 0-1.64.41c-.49.19-.87.45-1.15.8-.28.33-.42.76-.42 1.3 0 .75.27 1.32.83 1.7.55.4 1.25.59 2.11.59Z" />
    </g>
    <g data-object="Сокол__r__2271:126">
      <rect width="246" height="178" y="1" fill="#78B500" rx="12" />
      <path fill="#fff"
        d="M78.48 101.82V78.54h8.91c1.69 0 3.08.27 4.2.8a5.6 5.6 0 0 1 2.5 2.15c.57.9.85 1.94.85 3.09a4.59 4.59 0 0 1-2.01 4.06 6.2 6.2 0 0 1-2.06.9v.22a5.28 5.28 0 0 1 4.25 2.7c.49.83.73 1.83.73 3.02 0 1.2-.3 2.28-.88 3.25a5.95 5.95 0 0 1-2.63 2.26 10.4 10.4 0 0 1-4.44.83h-9.42Zm4.22-3.53h4.53c1.53 0 2.64-.29 3.31-.87a2.87 2.87 0 0 0 1.02-2.27 3.48 3.48 0 0 0-1.96-3.18 4.83 4.83 0 0 0-2.25-.5H82.7v6.82Zm0-9.85h4.17a4.7 4.7 0 0 0 1.97-.4 3.07 3.07 0 0 0 1.89-2.92c0-.9-.33-1.64-.96-2.22-.63-.59-1.57-.88-2.8-.88H82.7v6.42Zm25.11 13.7a9.87 9.87 0 0 1-3.26-.58 7.66 7.66 0 0 1-2.86-1.88 9.2 9.2 0 0 1-2.03-3.46c-.5-1.45-.74-3.24-.74-5.38 0-2 .22-3.77.64-5.33a11.8 11.8 0 0 1 1.83-3.95 8.08 8.08 0 0 1 2.88-2.48 8.3 8.3 0 0 1 3.78-.85 8.4 8.4 0 0 1 3.89.86 7.32 7.32 0 0 1 4.04 5.73h-4.15c-.2-.9-.64-1.6-1.3-2.14a3.76 3.76 0 0 0-2.48-.8c-1.61 0-2.86.7-3.73 2.1-.86 1.4-1.3 3.32-1.3 5.77h.16c.37-.67.85-1.24 1.44-1.72a7.07 7.07 0 0 1 4.38-1.5 6.98 6.98 0 0 1 6.25 3.67c.64 1.14.95 2.44.95 3.91 0 1.53-.34 2.9-1.05 4.13a7.59 7.59 0 0 1-2.94 2.86 8.85 8.85 0 0 1-4.4 1.04Zm-.02-3.41c.82 0 1.56-.2 2.21-.6.66-.4 1.17-.95 1.55-1.63.38-.68.56-1.45.56-2.3 0-.83-.18-1.58-.55-2.26a4.16 4.16 0 0 0-3.72-2.2 4.19 4.19 0 0 0-3.1 1.34 4.58 4.58 0 0 0 .83 7.03c.65.41 1.4.62 2.22.62Zm22.87-10.24v3.38H120.2V88.5h10.47Zm12.89 13.77a8.13 8.13 0 0 1-4.82-1.42 9.05 9.05 0 0 1-3.08-4.12 17.74 17.74 0 0 1-1.07-6.52c0-2.53.37-4.7 1.08-6.47a8.91 8.91 0 0 1 3.08-4.1 8.16 8.16 0 0 1 4.8-1.4c1.87 0 3.47.47 4.81 1.4a8.8 8.8 0 0 1 3.08 4.1 17.34 17.34 0 0 1 1.08 6.47c0 2.55-.36 4.72-1.08 6.53a8.88 8.88 0 0 1-3.08 4.11 8.09 8.09 0 0 1-4.8 1.42Zm0-3.56c1.45 0 2.6-.71 3.44-2.14.85-1.44 1.27-3.56 1.27-6.36 0-1.84-.2-3.4-.58-4.66a6.18 6.18 0 0 0-1.63-2.84 3.58 3.58 0 0 0-2.5-.96c-1.45 0-2.6.72-3.44 2.16-.84 1.43-1.26 3.53-1.27 6.3 0 1.86.18 3.42.56 4.69a6.27 6.27 0 0 0 1.63 2.86c.71.64 1.55.95 2.52.95Zm22.2-20.16v23.28h-4.21V82.65h-.14l-5.44 3.47v-3.86l5.78-3.72h4.01Z" />
    </g>
    <g data-object="Сокол__r__2271:129">
      <rect width="120" height="178" x="252" fill="#78B500" rx="12" />
      <path fill="#fff"
        d="M265.02 100.82V77.54h8.91a9.8 9.8 0 0 1 4.2.8 5.6 5.6 0 0 1 2.5 2.15c.57.9.85 1.94.85 3.09a4.58 4.58 0 0 1-2.01 4.06 6.2 6.2 0 0 1-2.06.9v.22a5.28 5.28 0 0 1 4.25 2.7c.48.83.73 1.83.73 3.02 0 1.2-.3 2.28-.88 3.25a5.95 5.95 0 0 1-2.64 2.26 10.4 10.4 0 0 1-4.43.83h-9.42Zm4.22-3.53h4.53c1.53 0 2.63-.29 3.3-.87a2.87 2.87 0 0 0 1.03-2.27 3.48 3.48 0 0 0-1.97-3.18 4.84 4.84 0 0 0-2.25-.5h-4.64v6.82Zm0-9.85h4.17a4.7 4.7 0 0 0 1.96-.4 3.08 3.08 0 0 0 1.89-2.92c0-.9-.32-1.64-.95-2.22-.63-.59-1.57-.88-2.81-.88h-4.26v6.42Zm25.1 13.7a9.8 9.8 0 0 1-3.25-.58 7.66 7.66 0 0 1-2.87-1.88 9.22 9.22 0 0 1-2.02-3.46 16.4 16.4 0 0 1-.74-5.38c0-2 .21-3.77.64-5.33a11.77 11.77 0 0 1 1.83-3.95 8.06 8.06 0 0 1 2.87-2.48 8.3 8.3 0 0 1 3.79-.85c1.46 0 2.75.28 3.88.86a7.32 7.32 0 0 1 4.05 5.73h-4.15c-.21-.9-.65-1.6-1.3-2.14a3.76 3.76 0 0 0-2.48-.8c-1.62 0-2.86.7-3.73 2.1-.86 1.4-1.3 3.32-1.3 5.77h.15c.37-.67.85-1.24 1.44-1.72a7.07 7.07 0 0 1 4.38-1.5 6.98 6.98 0 0 1 6.26 3.67c.64 1.14.95 2.44.94 3.91a7.59 7.59 0 0 1-3.99 6.99 8.85 8.85 0 0 1-4.4 1.04Zm-.01-3.41c.82 0 1.56-.2 2.21-.6a4.41 4.41 0 0 0 2.1-3.93 4.52 4.52 0 0 0-.54-2.26 4.16 4.16 0 0 0-3.72-2.2 4.19 4.19 0 0 0-3.1 1.34 4.58 4.58 0 0 0 .83 7.03c.65.41 1.39.62 2.21.62Zm22.87-10.24v3.38h-10.48V87.5h10.48Zm12.88 13.77a8.14 8.14 0 0 1-4.81-1.42 9.05 9.05 0 0 1-3.08-4.12 17.74 17.74 0 0 1-1.07-6.52c0-2.53.37-4.7 1.08-6.47a8.91 8.91 0 0 1 3.08-4.1 8.16 8.16 0 0 1 4.8-1.4c1.87 0 3.47.47 4.81 1.4a8.8 8.8 0 0 1 3.08 4.1 17.34 17.34 0 0 1 1.08 6.47c0 2.55-.36 4.72-1.08 6.53a8.87 8.87 0 0 1-3.08 4.11 8.09 8.09 0 0 1-4.8 1.42Zm0-3.56c1.46 0 2.6-.71 3.45-2.14.85-1.44 1.27-3.56 1.27-6.36 0-1.84-.2-3.4-.58-4.66a6.18 6.18 0 0 0-1.64-2.84 3.58 3.58 0 0 0-2.5-.96c-1.44 0-2.59.72-3.43 2.16-.84 1.43-1.26 3.53-1.27 6.3 0 1.86.18 3.42.56 4.69a6.27 6.27 0 0 0 1.63 2.86c.7.64 1.54.95 2.51.95Zm12.75 3.12v-3.05l8.07-7.92c.78-.78 1.42-1.47 1.94-2.08.51-.6.9-1.2 1.16-1.76.25-.57.38-1.17.38-1.82a3.32 3.32 0 0 0-1.88-3.11 4.43 4.43 0 0 0-1.98-.43 4.1 4.1 0 0 0-2.01.47c-.58.31-1.03.76-1.34 1.33a4.28 4.28 0 0 0-.47 2.06h-4.01a6.83 6.83 0 0 1 3.8-6.39c1.18-.6 2.55-.9 4.08-.9 1.57 0 2.94.3 4.12.88a6.7 6.7 0 0 1 2.75 2.4c.66 1.01.99 2.17.99 3.48 0 .87-.17 1.72-.5 2.56-.34.85-.92 1.78-1.76 2.8a44.5 44.5 0 0 1-3.52 3.72l-4 4.08v.15h10.13v3.53h-15.95Z" />
    </g>
    <g data-object="Сокол__r__2271:132">
      <rect width="114" height="178" x="377" fill="#78B500" rx="12" />
      <path fill="#fff"
        d="M387.5 100.82V77.54h8.91a9.8 9.8 0 0 1 4.2.8 5.6 5.6 0 0 1 2.5 2.15c.57.9.85 1.94.85 3.09a4.59 4.59 0 0 1-2.01 4.06 6.2 6.2 0 0 1-2.06.9v.22a5.28 5.28 0 0 1 4.25 2.7c.48.83.73 1.83.73 3.02 0 1.2-.3 2.28-.88 3.25a5.96 5.96 0 0 1-2.63 2.26 10.4 10.4 0 0 1-4.44.83h-9.42Zm4.22-3.53h4.53c1.53 0 2.64-.29 3.31-.87a2.87 2.87 0 0 0 1.02-2.27 3.48 3.48 0 0 0-1.96-3.18 4.84 4.84 0 0 0-2.25-.5h-4.65v6.82Zm0-9.85h4.17a4.7 4.7 0 0 0 1.97-.4 3.07 3.07 0 0 0 1.89-2.92c0-.9-.33-1.64-.96-2.22-.63-.59-1.57-.88-2.81-.88h-4.26v6.42Zm25.11 13.7a9.87 9.87 0 0 1-3.26-.58 7.66 7.66 0 0 1-2.87-1.88 9.21 9.21 0 0 1-2.02-3.46c-.5-1.45-.74-3.24-.74-5.38 0-2 .21-3.77.64-5.33a11.79 11.79 0 0 1 1.83-3.95 8.08 8.08 0 0 1 2.87-2.48 8.3 8.3 0 0 1 3.79-.85c1.46 0 2.76.28 3.88.86a7.32 7.32 0 0 1 4.05 5.73h-4.15c-.21-.9-.65-1.6-1.3-2.14a3.76 3.76 0 0 0-2.48-.8c-1.62 0-2.86.7-3.73 2.1-.86 1.4-1.3 3.32-1.3 5.77h.15c.38-.67.86-1.24 1.45-1.72a7.08 7.08 0 0 1 4.38-1.5 6.98 6.98 0 0 1 6.25 3.67c.64 1.14.95 2.44.95 3.91 0 1.53-.35 2.9-1.05 4.13a7.58 7.58 0 0 1-2.94 2.86 8.84 8.84 0 0 1-4.4 1.04Zm-.02-3.41c.82 0 1.56-.2 2.21-.6a4.55 4.55 0 0 0 2.1-3.92c.01-.84-.17-1.6-.54-2.27a4.16 4.16 0 0 0-3.72-2.2 4.19 4.19 0 0 0-3.1 1.34 4.6 4.6 0 0 0 .83 7.03c.65.41 1.4.62 2.22.62Zm22.87-10.24v3.38H429.2V87.5h10.48Zm12.88 13.77a8.14 8.14 0 0 1-4.81-1.42 9.05 9.05 0 0 1-3.08-4.12 17.74 17.74 0 0 1-1.07-6.52c0-2.53.37-4.7 1.08-6.47a8.9 8.9 0 0 1 3.08-4.1 8.16 8.16 0 0 1 4.8-1.4c1.87 0 3.47.47 4.81 1.4a8.8 8.8 0 0 1 3.08 4.1 17.34 17.34 0 0 1 1.08 6.47c0 2.55-.36 4.72-1.08 6.53a8.87 8.87 0 0 1-3.08 4.11 8.08 8.08 0 0 1-4.8 1.42Zm0-3.56c1.46 0 2.6-.71 3.45-2.14.85-1.44 1.27-3.56 1.27-6.36 0-1.84-.2-3.4-.58-4.66a6.18 6.18 0 0 0-1.63-2.84 3.58 3.58 0 0 0-2.5-.96c-1.45 0-2.6.72-3.44 2.16-.84 1.43-1.26 3.53-1.27 6.3 0 1.86.18 3.42.56 4.69a6.27 6.27 0 0 0 1.63 2.86c.7.64 1.55.95 2.51.95Zm21.1 3.44c-1.64 0-3.1-.28-4.36-.84a7.29 7.29 0 0 1-3-2.35 6.07 6.07 0 0 1-1.18-3.46h4.28c.04.63.24 1.18.62 1.65.38.46.88.82 1.51 1.08.63.25 1.34.38 2.12.38.83 0 1.57-.14 2.21-.43.65-.3 1.15-.7 1.51-1.23.37-.52.55-1.12.54-1.8a3.24 3.24 0 0 0-2.16-3.13 6.3 6.3 0 0 0-2.52-.45h-2.06V87.3h2.06c.8 0 1.52-.14 2.12-.42.62-.28 1.1-.68 1.45-1.19.34-.51.51-1.1.5-1.78a3.1 3.1 0 0 0-.44-1.72 3 3 0 0 0-1.26-1.14 5 5 0 0 0-3.88-.02c-.6.25-1.09.62-1.46 1.1a2.79 2.79 0 0 0-.59 1.68h-4.06a5.9 5.9 0 0 1 1.13-3.43c.73-1 1.7-1.77 2.9-2.32a9.6 9.6 0 0 1 4.09-.84c1.55 0 2.9.29 4.04.87a6.6 6.6 0 0 1 2.67 2.33c.63.98.95 2.06.95 3.24 0 1.31-.38 2.4-1.16 3.3a5.44 5.44 0 0 1-3.05 1.73v.19a5.9 5.9 0 0 1 3.76 1.81 5.2 5.2 0 0 1 1.31 3.65c0 1.3-.37 2.47-1.11 3.5a7.38 7.38 0 0 1-3.05 2.41c-1.29.58-2.76.88-4.43.88Z" />
    </g>
    <g data-object="Сокол__r__2274:148">
      <rect width="114" height="178" x="254" y="395" fill="#78B500" rx="12" />
      <path fill="#fff"
        d="M265.85 495.82v-23.27h8.9c1.69 0 3.08.26 4.2.79a5.6 5.6 0 0 1 2.51 2.15c.56.9.84 1.94.84 3.09a4.6 4.6 0 0 1-2.01 4.06c-.61.41-1.3.71-2.06.9v.22a5.27 5.27 0 0 1 4.25 2.7c.49.83.73 1.84.73 3.02 0 1.2-.3 2.28-.88 3.25a5.95 5.95 0 0 1-2.63 2.26 10.4 10.4 0 0 1-4.43.83h-9.42Zm4.21-3.52h4.54c1.53 0 2.63-.3 3.3-.88a2.87 2.87 0 0 0 1.03-2.27 3.48 3.48 0 0 0-1.97-3.19 4.83 4.83 0 0 0-2.25-.48h-4.65v6.81Zm0-9.86h4.17a4.7 4.7 0 0 0 1.97-.4 3.07 3.07 0 0 0 1.89-2.92c0-.9-.32-1.64-.96-2.22-.63-.59-1.56-.88-2.8-.88h-4.27v6.42Zm25.11 13.7a9.87 9.87 0 0 1-3.26-.58 7.66 7.66 0 0 1-2.86-1.88 9.22 9.22 0 0 1-2.02-3.47 16.3 16.3 0 0 1-.74-5.37c0-2 .2-3.77.63-5.33a11.8 11.8 0 0 1 1.83-3.95 8.07 8.07 0 0 1 2.88-2.48 8.3 8.3 0 0 1 3.78-.85 8.4 8.4 0 0 1 3.89.86 7.32 7.32 0 0 1 4.04 5.73h-4.14c-.22-.9-.65-1.6-1.31-2.14a3.76 3.76 0 0 0-2.48-.8c-1.61 0-2.85.7-3.73 2.1-.86 1.4-1.3 3.32-1.3 5.77h.16c.37-.67.85-1.24 1.44-1.72a7.08 7.08 0 0 1 4.38-1.5 6.98 6.98 0 0 1 6.26 3.67c.63 1.14.95 2.44.94 3.91 0 1.53-.34 2.9-1.05 4.13a7.57 7.57 0 0 1-2.94 2.86 8.84 8.84 0 0 1-4.4 1.04Zm-.02-3.41c.83 0 1.56-.2 2.22-.6a4.56 4.56 0 0 0 2.1-3.92c0-.84-.18-1.6-.55-2.27a4.15 4.15 0 0 0-3.71-2.2 4.2 4.2 0 0 0-3.1 1.34 4.59 4.59 0 0 0 .82 7.03c.66.41 1.4.62 2.22.62Zm22.88-10.24v3.38h-10.48v-3.38h10.48Zm12.88 13.77a8.14 8.14 0 0 1-4.82-1.42 9.05 9.05 0 0 1-3.08-4.13 17.73 17.73 0 0 1-1.07-6.5c.01-2.54.37-4.7 1.08-6.48a8.9 8.9 0 0 1 3.08-4.1 8.16 8.16 0 0 1 4.8-1.4c1.87 0 3.48.47 4.82 1.4a8.81 8.81 0 0 1 3.08 4.1 17.37 17.37 0 0 1 1.07 6.47c0 2.55-.36 4.72-1.07 6.53a8.88 8.88 0 0 1-3.08 4.11 8.09 8.09 0 0 1-4.81 1.42Zm0-3.56c1.45 0 2.6-.71 3.44-2.14.85-1.44 1.27-3.56 1.27-6.36 0-1.84-.19-3.4-.57-4.65a6.18 6.18 0 0 0-1.64-2.85 3.58 3.58 0 0 0-2.5-.96c-1.45 0-2.6.72-3.43 2.16-.84 1.43-1.27 3.53-1.28 6.3 0 1.86.18 3.42.56 4.69a6.27 6.27 0 0 0 1.64 2.86c.7.64 1.54.95 2.5.95Zm12.97 3.12 9.9-19.6v-.15h-11.5v-3.52h15.86v3.6l-9.89 19.67h-4.37Z" />
    </g>
    <g data-object="Сокол__r__2274:151">
      <rect width="120" height="178" x="375" y="395" fill="#78B500" rx="12" />
      <path fill="#fff"
        d="M388.08 495.82v-23.27H397c1.69 0 3.08.26 4.2.79a5.6 5.6 0 0 1 2.5 2.15c.57.9.85 1.94.85 3.09a4.6 4.6 0 0 1-2.01 4.06c-.62.41-1.3.71-2.06.9v.22a5.27 5.27 0 0 1 4.25 2.7c.48.83.73 1.84.73 3.02 0 1.2-.3 2.28-.88 3.25a5.95 5.95 0 0 1-2.63 2.26 10.4 10.4 0 0 1-4.44.83h-9.42Zm4.22-3.52h4.53c1.53 0 2.64-.3 3.31-.88a2.87 2.87 0 0 0 1.02-2.27 3.48 3.48 0 0 0-1.96-3.19 4.83 4.83 0 0 0-2.25-.48h-4.65v6.81Zm0-9.86h4.17a4.7 4.7 0 0 0 1.97-.4 3.07 3.07 0 0 0 1.89-2.92c0-.9-.33-1.64-.96-2.22-.63-.59-1.57-.88-2.8-.88h-4.27v6.42Zm25.11 13.7a9.87 9.87 0 0 1-3.26-.58 7.67 7.67 0 0 1-2.86-1.88 9.22 9.22 0 0 1-2.03-3.47c-.5-1.44-.74-3.23-.74-5.37 0-2 .22-3.77.64-5.33a11.8 11.8 0 0 1 1.83-3.95 8.07 8.07 0 0 1 2.88-2.48 8.3 8.3 0 0 1 3.78-.85 8.4 8.4 0 0 1 3.89.86 7.31 7.31 0 0 1 4.04 5.73h-4.15c-.2-.9-.64-1.6-1.3-2.14a3.76 3.76 0 0 0-2.48-.8c-1.61 0-2.86.7-3.73 2.1-.86 1.4-1.3 3.32-1.3 5.77h.15c.38-.67.86-1.24 1.45-1.72a7.08 7.08 0 0 1 4.38-1.5 6.98 6.98 0 0 1 6.25 3.67c.64 1.14.95 2.44.95 3.91 0 1.53-.34 2.9-1.05 4.13a7.57 7.57 0 0 1-2.94 2.86 8.84 8.84 0 0 1-4.4 1.04Zm-.02-3.41c.82 0 1.56-.2 2.21-.6a4.55 4.55 0 0 0 2.1-3.92c.01-.84-.17-1.6-.54-2.27a4.15 4.15 0 0 0-3.72-2.2 4.2 4.2 0 0 0-3.1 1.34 4.59 4.59 0 0 0 .83 7.03c.65.41 1.4.62 2.22.62Zm22.87-10.24v3.38H429.8v-3.38h10.47Zm12.89 13.77a8.14 8.14 0 0 1-4.82-1.42 9.04 9.04 0 0 1-3.08-4.13 17.71 17.71 0 0 1-1.07-6.5c0-2.54.37-4.7 1.08-6.48a8.9 8.9 0 0 1 3.08-4.1 8.16 8.16 0 0 1 4.8-1.4c1.87 0 3.47.47 4.81 1.4a8.8 8.8 0 0 1 3.08 4.1 17.37 17.37 0 0 1 1.08 6.47c0 2.55-.36 4.72-1.08 6.53a8.87 8.87 0 0 1-3.08 4.11 8.09 8.09 0 0 1-4.8 1.42Zm0-3.56c1.45 0 2.6-.71 3.44-2.14.85-1.44 1.27-3.56 1.27-6.36 0-1.84-.2-3.4-.58-4.65a6.18 6.18 0 0 0-1.63-2.85 3.58 3.58 0 0 0-2.5-.96c-1.45 0-2.6.72-3.44 2.16-.84 1.43-1.26 3.53-1.27 6.3 0 1.86.18 3.42.56 4.69a6.26 6.26 0 0 0 1.63 2.86c.7.64 1.55.95 2.52.95Zm21.26 3.44a9.87 9.87 0 0 1-3.26-.58 7.67 7.67 0 0 1-2.86-1.88 9.22 9.22 0 0 1-2.03-3.47c-.5-1.44-.74-3.23-.74-5.37 0-2 .22-3.77.64-5.33a11.8 11.8 0 0 1 1.83-3.95 8.07 8.07 0 0 1 2.88-2.48 8.3 8.3 0 0 1 3.78-.85 8.4 8.4 0 0 1 3.89.86 7.31 7.31 0 0 1 4.04 5.73h-4.15c-.2-.9-.64-1.6-1.3-2.14a3.76 3.76 0 0 0-2.48-.8c-1.61 0-2.86.7-3.73 2.1-.86 1.4-1.3 3.32-1.3 5.77h.15c.38-.67.86-1.24 1.45-1.72a7.08 7.08 0 0 1 4.38-1.5 6.98 6.98 0 0 1 6.25 3.67c.64 1.14.95 2.44.95 3.91 0 1.53-.34 2.9-1.05 4.13a7.57 7.57 0 0 1-2.94 2.86 8.84 8.84 0 0 1-4.4 1.04Zm-.02-3.41c.82 0 1.56-.2 2.21-.6a4.55 4.55 0 0 0 2.1-3.92c.01-.84-.17-1.6-.54-2.27a4.15 4.15 0 0 0-3.72-2.2 4.2 4.2 0 0 0-3.1 1.34 4.59 4.59 0 0 0 .83 7.03c.65.41 1.4.62 2.22.62Z" />
    </g>
    <g data-object="Сокол__s__2370:534">
      <rect width="120" height="171" x="9" y="204" fill="#fff" rx="12" />
      <g>
        <path fill="#000"
          d="M91.45 272.5h-7.49v7.5c0 .13-.01.22-.04.28a1.48 1.48 0 0 1-1.46 1.22h-7.49v7.5c0 .13-.01.22-.05.28a1.48 1.48 0 0 1-1.45 1.22h-7.49v7.5c0 .13-.02.22-.05.28a1.48 1.48 0 0 1-1.45 1.22h-7.5v7.5c0 .13 0 .22-.04.28a1.48 1.48 0 0 1-1.45 1.22h-9c-.4 0-.75-.15-1.05-.44a1.5 1.5 0 0 1 0-2.12c.3-.3.65-.44 1.06-.44H54V298c0-.13 0-.22.04-.28.06-.35.23-.63.51-.87.28-.23.6-.35.94-.35h7.5V289c0-.13 0-.22.04-.28.06-.35.23-.63.51-.87.29-.23.6-.35.94-.35h7.5V280c0-.1 0-.19.04-.28.06-.35.23-.63.52-.87.28-.23.59-.35.93-.35h7.5V271c0-.13.01-.22.04-.28a1.48 1.48 0 0 1 1.45-1.22h9c.4 0 .75.15 1.05.44a1.5 1.5 0 0 1 0 2.12c-.3.3-.65.44-1.06.44Z" />
      </g>
    </g>
    <g data-object="Сокол__s__2370:539">
      <rect width="121" height="138" x="621" y="233" fill="#fff" rx="12" />
      <g clip-path="url(#b)">
        <path fill="#000"
          d="M703.96 285h-7.5v7.5c0 .13-.01.22-.05.28a1.47 1.47 0 0 1-1.45 1.22h-7.49v7.5c0 .13-.01.22-.05.28a1.48 1.48 0 0 1-1.45 1.22h-7.49v7.5c0 .13-.02.22-.05.28-.06.35-.22.63-.49.87a1.4 1.4 0 0 1-.96.35h-7.5v7.5c0 .13 0 .22-.04.28A1.48 1.48 0 0 1 668 321h-9c-.4 0-.75-.15-1.04-.44-.3-.3-.45-.65-.45-1.06 0-.4.15-.76.45-1.06.3-.3.64-.44 1.05-.44h7.5v-7.5c0-.13 0-.22.04-.28.06-.35.23-.63.51-.87.28-.23.6-.35.94-.35h7.5v-7.5c0-.13 0-.22.04-.28.06-.35.23-.63.51-.87.29-.23.6-.35.94-.35h7.5v-7.5c0-.1 0-.19.04-.28.06-.35.24-.63.52-.87.28-.23.59-.35.93-.35h7.5v-7.5c0-.13.01-.22.04-.28a1.48 1.48 0 0 1 1.45-1.22h9c.4 0 .75.15 1.05.44a1.5 1.5 0 0 1 0 2.12c-.3.3-.65.44-1.05.44Z" />
      </g>
    </g>
    <g data-object="Сокол__e__2370:548">
      <rect width="100" height="100" x="202" y="233" fill="#fff" rx="12" />
      <g>
        <g>
          <mask id="c" fill="#fff">
            <path
              d="M228 253a3 3 0 0 1 3-3h42a3 3 0 0 1 3 3v59a3 3 0 0 1-3 3h-42a3 3 0 0 1-3-3v-59Z" />
          </mask>
          <path fill="#000"
            d="M225 253a6 6 0 0 1 6-6h52a6 6 0 0 1 6 6h-64Zm64 59a6 6 0 0 1-6 6h-52a6 6 0 0 1-6-6h64Zm-58 6a6 6 0 0 1-6-6v-59a6 6 0 0 1 6-6v71Zm52-71a6 6 0 0 1 6 6v59a6 6 0 0 1-6 6l-20-6v-59l20-6Z"
            mask="url(#c)" />
        </g>
        <path fill="#fff"
          d="m267.71 277.2.8-.8v4.6a1 1 0 1 0 1.99 0v-4.6l.79.8a.99.99 0 0 0 1.09.23 1 1 0 0 0 .32-1.64l-2.5-2.5a.87.87 0 0 0-.32-.22 1 1 0 0 0-.76 0 1 1 0 0 0-.33.22l-2.5 2.5a1 1 0 0 0 1.42 1.42Zm3.58 11.59-.8.8v-4.6a1 1 0 1 0-1.99 0v4.6l-.79-.8a1.01 1.01 0 0 0-1.1-.22 1.01 1.01 0 0 0-.53 1.31c.05.13.12.24.21.33l2.5 2.5c.1.1.2.16.33.21a.93.93 0 0 0 .76 0c.12-.05.23-.12.33-.21l2.5-2.5a1 1 0 0 0-1.42-1.42Z" />
        <path fill="#000"
          d="M246.5 270.5a5.25 5.25 0 1 0 0-10.5 5.25 5.25 0 0 0 0 10.5Zm4.5 0h-9a6.01 6.01 0 0 0-6 6v10.08a1.9 1.9 0 0 0 1.8 1.92 1.88 1.88 0 0 0 1.95-1.88v-9.35a.77.77 0 0 1 .7-.77.74.74 0 0 1 .74.45c.04.1.06.2.06.3v27.1a2.15 2.15 0 1 0 4.31 0v-13.38a.96.96 0 0 1 .88-.97.93.93 0 0 1 1 .94v13.4a2.15 2.15 0 1 0 4.31 0v-27.06a.77.77 0 0 1 .7-.78.74.74 0 0 1 .74.45c.04.1.06.2.06.3v9.33a1.9 1.9 0 0 0 1.8 1.92 1.88 1.88 0 0 0 1.95-1.88V276.5a6.01 6.01 0 0 0-6-6Z" />
      </g>
    </g>
    <g data-object="Сокол__e__2370:561">
      <rect width="53" height="100" x="379" y="233" fill="#fff" rx="12" />
      <g clip-path="url(#d)">
        <g>
          <mask id="e" fill="#fff">
            <path
              d="M381.5 253a3 3 0 0 1 3-3h42a3 3 0 0 1 3 3v59a3 3 0 0 1-3 3h-42a3 3 0 0 1-3-3v-59Z" />
          </mask>
          <path fill="#000"
            d="M378.5 253a6 6 0 0 1 6-6h52a6 6 0 0 1 6 6h-64Zm64 59a6 6 0 0 1-6 6h-52a6 6 0 0 1-6-6h64Zm-58 6a6 6 0 0 1-6-6v-59a6 6 0 0 1 6-6v71Zm52-71a6 6 0 0 1 6 6v59a6 6 0 0 1-6 6l-20-6v-59l20-6Z"
            mask="url(#e)" />
        </g>
        <path fill="#fff"
          d="m421.21 277.2.8-.8v4.6a1 1 0 1 0 1.99 0v-4.6l.79.8a.99.99 0 0 0 1.09.23 1 1 0 0 0 .32-1.64l-2.5-2.5a.87.87 0 0 0-.32-.22 1 1 0 0 0-.76 0 1 1 0 0 0-.33.22l-2.5 2.5a1 1 0 0 0 1.42 1.42Zm3.58 11.59-.8.8v-4.6a1 1 0 1 0-1.99 0v4.6l-.79-.8a1.01 1.01 0 0 0-1.1-.22 1.01 1.01 0 0 0-.53 1.31c.05.13.12.24.21.33l2.5 2.5c.1.1.2.16.33.21a.93.93 0 0 0 .76 0c.12-.05.23-.12.33-.21l2.5-2.5a1 1 0 0 0-1.42-1.42Z" />
        <path fill="#000"
          d="M400 270.5a5.25 5.25 0 1 0 0-10.5 5.25 5.25 0 0 0 0 10.5Zm4.5 0h-9a6.01 6.01 0 0 0-6 6v10.08a1.9 1.9 0 0 0 1.8 1.92 1.88 1.88 0 0 0 1.95-1.88v-9.35a.77.77 0 0 1 .7-.77.74.74 0 0 1 .74.45c.04.1.06.2.06.3v27.1a2.15 2.15 0 1 0 4.31 0v-13.38a.96.96 0 0 1 .88-.97.93.93 0 0 1 1 .94v13.4a2.15 2.15 0 1 0 4.31 0v-27.06a.77.77 0 0 1 .7-.78.74.74 0 0 1 .74.45c.04.1.06.2.06.3v9.33a1.9 1.9 0 0 0 1.8 1.92 1.88 1.88 0 0 0 1.95-1.88V276.5a6.01 6.01 0 0 0-6-6Z" />
      </g>
    </g>
  </g>
  <defs>
    <clipPath id="a">
      <path fill="#fff" d="M455.5 259h48v48h-48z" />
    </clipPath>
    <clipPath id="b">
      <path fill="#fff" d="M657.5 278h48v48h-48z" />
    </clipPath>
    <clipPath id="d">
      <path fill="#fff" d="M381.5 245h48v76h-48z" />
    </clipPath>
  </defs>
</svg>