<?xml version="1.0" encoding="UTF-8"?>
<svg id="Layer_2" data-name="Layer 2" xmlns="http://www.w3.org/2000/svg" viewBox="0 0 1639.1 522.6">
  <defs>
    <style>
      .cls-1, .cls-2, .cls-3 {
        stroke-width: 0px;
      }

      .cls-2 {
        fill: #93d500;
      }

      .cls-3 {
        fill-rule: evenodd;
      }
    </style>
  </defs>
  <g id="_Слой_1" data-name="Слой 1">
    <g>
      <g>
        <path class="cls-1" d="m675.8,224.5c-6.4-5.5-15.8-8.3-28.2-8.3h-58v90.2h22.9v-27.7h35c12.5,0,21.9-2.8,28.2-8.4,6.4-5.6,9.5-13.2,9.5-22.9.1-9.7-3-17.3-9.4-22.9Zm-17.4,32.3c-2.7,2.3-6.6,3.5-11.7,3.5h-35.3v-25.6h35.3c5.2,0,9.1,1.1,11.7,3.4,2.7,2.3,4,5.4,4,9.3s-1.3,7.1-4,9.4Z"/>
        <path class="cls-1" d="m790.2,220.7c-9-4.1-19.9-6.1-32.7-6.1s-23.7,2-32.7,6.1-15.8,9.6-20.4,16.7c-4.6,7-6.9,15-6.9,24s2.3,16.9,6.9,24c4.6,7,11.4,12.6,20.4,16.7s19.9,6.1,32.7,6.1,23.7-2,32.7-6.1,15.8-9.6,20.4-16.7c4.6-7,6.9-15,6.9-24s-2.3-16.9-6.9-24c-4.7-7.1-11.5-12.6-20.4-16.7Zm.1,55c-2.8,4.3-7,7.6-12.5,10.1-5.5,2.4-12.3,3.7-20.3,3.7s-14.8-1.2-20.3-3.7c-5.5-2.4-9.7-5.8-12.5-10.1-2.8-4.3-4.2-9-4.2-14.4s1.4-10.1,4.2-14.4,7-7.6,12.5-10,12.3-3.7,20.3-3.7,14.8,1.2,20.3,3.7c5.5,2.4,9.7,5.8,12.5,10,2.8,4.3,4.2,9,4.2,14.4s-1.4,10.1-4.2,14.4Z"/>
        <path class="cls-1" d="m869.7,236.9c5.5-2.4,12-3.7,19.6-3.7,10.8,0,19.2,1.8,25.3,5.5,6,3.7,9.7,8.2,11,13.5h22.9c-1.2-7.2-4.2-13.7-9-19.3-4.8-5.7-11.4-10.2-19.8-13.5-8.5-3.3-18.6-5-30.3-5-12.5,0-23.2,2-32.1,6.1-8.8,4-15.5,9.6-20.1,16.7s-6.8,15.1-6.8,24,2.3,16.9,6.8,24c4.6,7.1,11.3,12.6,20.1,16.7,8.8,4,19.5,6.1,32.1,6.1,11.9,0,22-1.6,30.5-4.9s15.1-7.7,19.8-13.4c4.7-5.7,7.7-12.2,8.9-19.5h-22.9c-1.3,5.3-4.9,9.8-11,13.5-6,3.7-14.4,5.5-25.3,5.5-7.6,0-14.2-1.2-19.6-3.7-5.5-2.4-9.6-5.8-12.3-10.1-2.8-4.3-4.1-9-4.1-14.4s1.4-10.1,4.1-14.4c2.6-3.9,6.7-7.2,12.2-9.7Z"/>
        <path class="cls-1" d="m1053.5,257.5c-5.8-5-14.3-7.5-25.4-7.5h-42.8v-16.1h71.8v-17.7h-93.2v90.2h64.2c11.2,0,19.6-2.5,25.4-7.5s8.7-11.9,8.7-20.7-2.9-15.6-8.7-20.7Zm-17.8,28.1c-2.4,2.1-5.8,3.2-10.3,3.2h-39.2v-23.1h39.2c4.5,0,7.9,1,10.3,3.1s3.6,4.9,3.6,8.4-1.2,6.3-3.6,8.4Z"/>
        <path class="cls-1" d="m1182.3,216.2h-35.7l-47,74.7v-74.7h-22v90.2h35.7l47-74.7v74.7h22v-84h0v-6.2Z"/>
        <path class="cls-1" d="m1291.6,220.7c-9-4.1-19.9-6.1-32.7-6.1s-23.7,2-32.7,6.1-15.8,9.6-20.4,16.7c-4.6,7-6.9,15-6.9,24s2.3,16.9,6.9,24c4.6,7,11.4,12.6,20.4,16.7s19.9,6.1,32.7,6.1,23.7-2,32.7-6.1,15.8-9.6,20.4-16.7c4.6-7,6.9-15,6.9-24s-2.3-16.9-6.9-24-11.4-12.6-20.4-16.7Zm.1,55c-2.8,4.3-7,7.6-12.5,10.1-5.5,2.4-12.3,3.7-20.3,3.7s-14.8-1.2-20.3-3.7c-5.5-2.4-9.7-5.8-12.5-10.1-2.8-4.3-4.2-9-4.2-14.4s1.4-10.1,4.2-14.4c2.8-4.3,7-7.6,12.5-10s12.3-3.7,20.3-3.7,14.8,1.2,20.3,3.7c5.5,2.4,9.7,5.8,12.5,10,2.8,4.3,4.2,9,4.2,14.4,0,5.4-1.4,10.1-4.2,14.4Z"/>
        <polygon class="cls-1" points="1321.7 235.3 1358.8 235.3 1358.8 306.4 1381.7 306.4 1381.7 235.3 1418.9 235.3 1418.9 216.2 1321.7 216.2 1321.7 235.3"/>
        <polygon class="cls-1" points="1430.7 306.4 1520.3 306.4 1520.3 288.4 1453.6 288.4 1453.6 268.7 1511.2 268.7 1511.2 252.6 1453.6 252.6 1453.6 234.3 1520.3 234.3 1520.3 216.2 1430.7 216.2 1430.7 306.4"/>
        <path class="cls-1" d="m1599.9,260.7l38-44.5h-28.4l-26.5,31.2-16.4-19.3-10.1-11.9h-28.4l38,44.5-39.3,45.7h28.9l21-24.7.1-.1,6.1-7.2,27.2,32.1h29l-39.2-45.8Z"/>
      </g>
      <g>
        <g>
          <path class="cls-1" d="m16.9,281.1H7.1v-30.7H0v-7.9h16.9v38.6h0Z"/>
          <path class="cls-1" d="m37.1,281.5c-4.8,0-8.9-1.1-12.4-3.2l3.7-6.8c2.3,1.6,5,2.5,8.1,2.5s5.3-.9,6.8-2.7c1.5-1.8,2.3-4.3,2.2-7.5-1.9,2.7-5,4.1-9.2,4.1-3.8,0-6.8-1.1-9-3.4-2.3-2.3-3.4-5.3-3.4-9,0-4.1,1.3-7.3,3.9-9.7,2.6-2.4,6.1-3.6,10.5-3.6,5.2,0,9.2,1.7,12.2,5.1,2.9,3.4,4.4,8.1,4.4,14s-1.6,11-4.8,14.7c-3.3,3.7-7.6,5.5-13,5.5Zm1.4-20.7c1.9,0,3.3-.5,4.4-1.5,1-1,1.6-2.3,1.6-3.9,0-1.5-.5-2.8-1.5-3.8s-2.4-1.5-4.3-1.5c-1.8,0-3.2.5-4.2,1.5s-1.5,2.3-1.5,4.1c0,1.6.5,2.9,1.5,3.8.9.8,2.3,1.3,4,1.3Z"/>
          <path class="cls-1" d="m74.6,258.3l1.8.3c2.9.4,5.2,1.6,6.9,3.4,1.7,1.8,2.6,4.2,2.6,7.1,0,3.7-1.3,6.7-4,9s-6.3,3.5-10.7,3.5c-2.6,0-5.2-.4-7.8-1.3-2.6-.8-4.8-2-6.5-3.4l4-7.4c2.9,3.1,6.1,4.7,9.6,4.7,1.9,0,3.4-.4,4.4-1.3s1.5-2.1,1.5-3.7c0-3.2-2-4.8-6-4.8h-6.2v-5.2l8.6-8.9h-14v-7.5h25.4v5.5l-9.6,10Z"/>
          <path class="cls-1" d="m107,242.3c5.5,0,9.7,1.7,12.6,5.1s4.4,8.2,4.4,14.4-1.5,11.1-4.4,14.5-7.1,5.1-12.6,5.1-9.7-1.7-12.7-5.1c-2.9-3.4-4.4-8.2-4.4-14.5s1.5-11.1,4.4-14.4c3-3.4,7.2-5.1,12.7-5.1Zm0,7.2c-2.5,0-4.3,1-5.4,2.9s-1.6,5.1-1.6,9.5.5,7.6,1.6,9.5,2.9,2.9,5.4,2.9,4.2-1,5.3-2.9c1.1-2,1.7-5.1,1.7-9.5s-.6-7.5-1.7-9.4c-1.1-2-2.9-3-5.3-3Z"/>
        </g>
        <g>
          <g>
            <path class="cls-3" d="m255.4,42.3c0,2.3,1.8,4.1,4.1,4.1s4.1-1.8,4.1-4.1-1.8-4.1-4.1-4.1-4.1,1.9-4.1,4.1Z"/>
            <circle class="cls-1" cx="258.1" cy="63.9" r="5.5"/>
            <circle class="cls-1" cx="240.6" cy="48.5" r="9.6"/>
            <circle class="cls-1" cx="217.2" cy="69.7" r="12.4"/>
            <circle class="cls-1" cx="169.6" cy="89.6" r="12.4"/>
            <circle class="cls-1" cx="128.7" cy="121.4" r="12.4"/>
            <circle class="cls-1" cx="96.9" cy="162.4" r="12.4"/>
            <circle class="cls-1" cx="77.2" cy="210.3" r="12.4"/>
            <circle class="cls-1" cx="164" cy="47.8" r="5.5"/>
            <circle class="cls-1" cx="192.7" cy="36" r="5.5"/>
            <circle class="cls-1" cx="222.7" cy="28.2" r="5.5"/>
            <path class="cls-3" d="m136.8,69c3,0,5.5-2.5,5.5-5.5s-2.5-5.5-5.5-5.5-5.5,2.5-5.5,5.5,2.5,5.5,5.5,5.5Z"/>
            <circle class="cls-1" cx="90.2" cy="104.6" r="5.5"/>
            <circle class="cls-1" cx="112.2" cy="82.4" r="5.5"/>
            <circle class="cls-1" cx="43.8" cy="184.6" r="5.5"/>
            <circle class="cls-1" cx="55.7" cy="156" r="5.5"/>
            <circle class="cls-1" cx="71.1" cy="128.9" r="5.5"/>
            <circle class="cls-1" cx="35.6" cy="214.9" r="5.5"/>
            <path class="cls-3" d="m253.9,29.8c3,0,5.5-2.5,5.5-5.5s-2.5-5.5-5.5-5.5-5.5,2.5-5.5,5.5,2.4,5.5,5.5,5.5Z"/>
            <circle class="cls-1" cx="32.5" cy="198.1" r="4.1"/>
            <path class="cls-3" d="m38.6,168.1c0,2.3,1.8,4.1,4.1,4.1s4.1-1.8,4.1-4.1-1.8-4.1-4.1-4.1c-2.3,0-4.1,1.9-4.1,4.1Z"/>
            <path class="cls-3" d="m52.7,139.1c0,2.3,1.8,4.1,4.1,4.1s4.1-1.8,4.1-4.1-1.8-4.1-4.1-4.1c-2.3,0-4.1,1.8-4.1,4.1Z"/>
            <circle class="cls-1" cx="74.8" cy="113.1" r="4.1" transform="translate(-48.82 168.82) rotate(-80.78)"/>
            <circle class="cls-1" cx="95.9" cy="88.7" r="4.1"/>
            <circle class="cls-1" cx="119.8" cy="67.6" r="4.1"/>
            <circle class="cls-1" cx="146.5" cy="49.7" r="4.1"/>
            <circle class="cls-1" cx="175.2" cy="35.8" r="4.1"/>
            <circle class="cls-1" cx="205.5" cy="25.6" r="4.1"/>
            <circle class="cls-1" cx="236.8" cy="19.3" r="4.1"/>
            <circle class="cls-1" cx="252.7" cy="4.1" r="4.1"/>
            <circle class="cls-1" cx="218.4" cy="8" r="4.1"/>
            <circle class="cls-1" cx="186.3" cy="16.8" r="4.1"/>
            <path class="cls-3" d="m154.5,34c2.3,0,4.1-1.8,4.1-4.1s-1.8-4.1-4.1-4.1-4.1,1.8-4.1,4.1,1.8,4.1,4.1,4.1Z"/>
            <path class="cls-3" d="m125.9,50.6c2.3,0,4.1-1.8,4.1-4.1s-1.8-4.1-4.1-4.1-4.1,1.8-4.1,4.1c-.1,2.2,1.8,4.1,4.1,4.1Z"/>
            <circle class="cls-1" cx="98.3" cy="67.2" r="4.1"/>
            <circle class="cls-1" cx="74.8" cy="90.5" r="4.1" transform="translate(-26.51 149.84) rotate(-80.78)"/>
            <circle class="cls-1" cx="53.9" cy="118" r="4.1"/>
            <circle class="cls-1" cx="37.3" cy="146.5" r="4.1"/>
            <circle class="cls-1" cx="24.1" cy="178.5" r="4.1"/>
            <circle class="cls-1" cx="15.6" cy="210.5" r="4.1"/>
            <path class="cls-3" d="m163,64.2c0-4.3-3.5-7.8-7.8-7.8s-7.8,3.5-7.8,7.8,3.5,7.8,7.8,7.8c4.3.1,7.8-3.4,7.8-7.8Z"/>
            <path class="cls-3" d="m202.3,41.4c0,4.3,3.5,7.8,7.8,7.8s7.8-3.5,7.8-7.8-3.5-7.8-7.8-7.8-7.8,3.4-7.8,7.8Z"/>
            <circle class="cls-1" cx="107.9" cy="100.2" r="7.8"/>
            <circle class="cls-1" cx="71.6" cy="147.3" r="7.8"/>
            <path class="cls-3" d="m49,194.2c-4.3,0-7.8,3.5-7.8,7.8s3.5,7.8,7.8,7.8,7.8-3.5,7.8-7.8-3.5-7.8-7.8-7.8Z"/>
            <circle class="cls-1" cx="186.3" cy="61.9" r="9.6"/>
            <circle class="cls-1" cx="137.1" cy="90.5" r="9.6"/>
            <circle class="cls-1" cx="97.1" cy="129.9" r="9.6"/>
            <path class="cls-3" d="m69.7,188.5c5.3,0,9.6-4.3,9.6-9.6s-4.3-9.6-9.6-9.6-9.6,4.3-9.6,9.6,4.3,9.6,9.6,9.6Z"/>
            <circle class="cls-1" cx="166.8" cy="125.6" r="15.1"/>
            <circle class="cls-1" cx="203.2" cy="103.8" r="15.1"/>
            <circle class="cls-1" cx="246.1" cy="90" r="15.1"/>
            <circle class="cls-1" cx="134.9" cy="157.1" r="15.1"/>
            <circle class="cls-1" cx="112.19" cy="196.11" r="15.1"/>
          </g>
          <g>
            <path class="cls-3" d="m255.4,480.3c0-2.3,1.8-4.1,4.1-4.1s4.1,1.8,4.1,4.1-1.8,4.1-4.1,4.1-4.1-1.9-4.1-4.1Z"/>
            <circle class="cls-1" cx="258.1" cy="458.7" r="5.5"/>
            <circle class="cls-1" cx="240.6" cy="474.1" r="9.6"/>
            <circle class="cls-1" cx="217.2" cy="452.9" r="12.4"/>
            <circle class="cls-1" cx="169.64" cy="432.97" r="12.4" transform="translate(-295.29 424) rotate(-67.5)"/>
            <circle class="cls-1" cx="128.7" cy="401.2" r="12.4"/>
            <circle class="cls-1" cx="96.9" cy="360.2" r="12.4"/>
            <circle class="cls-1" cx="77.2" cy="312.3" r="12.4"/>
            <circle class="cls-1" cx="164" cy="474.8" r="5.5"/>
            <circle class="cls-1" cx="192.7" cy="486.6" r="5.5"/>
            <circle class="cls-1" cx="222.7" cy="494.4" r="5.5"/>
            <path class="cls-3" d="m136.8,453.6c3,0,5.5,2.5,5.5,5.5s-2.5,5.5-5.5,5.5-5.5-2.5-5.5-5.5,2.5-5.5,5.5-5.5Z"/>
            <circle class="cls-1" cx="90.2" cy="418" r="5.5"/>
            <circle class="cls-1" cx="112.2" cy="440.2" r="5.5"/>
            <circle class="cls-1" cx="43.8" cy="338" r="5.5"/>
            <circle class="cls-1" cx="55.7" cy="366.6" r="5.5"/>
            <circle class="cls-1" cx="71.1" cy="393.7" r="5.5"/>
            <circle class="cls-1" cx="35.6" cy="307.7" r="5.5"/>
            <path class="cls-3" d="m253.9,492.8c3,0,5.5,2.5,5.5,5.5s-2.5,5.5-5.5,5.5-5.5-2.5-5.5-5.5,2.4-5.5,5.5-5.5Z"/>
            <circle class="cls-1" cx="32.5" cy="324.5" r="4.1"/>
            <path class="cls-3" d="m38.6,354.5c0-2.3,1.8-4.1,4.1-4.1s4.1,1.8,4.1,4.1-1.8,4.1-4.1,4.1-4.1-1.9-4.1-4.1Z"/>
            <path class="cls-3" d="m52.7,383.5c0-2.3,1.8-4.1,4.1-4.1s4.1,1.8,4.1,4.1-1.8,4.1-4.1,4.1-4.1-1.8-4.1-4.1Z"/>
            <circle class="cls-1" cx="74.8" cy="409.5" r="4.1" transform="translate(-39.99 9.36) rotate(-5.65)"/>
            <circle class="cls-1" cx="95.9" cy="433.9" r="4.1"/>
            <circle class="cls-1" cx="119.8" cy="455" r="4.1"/>
            <circle class="cls-1" cx="146.5" cy="472.9" r="4.1"/>
            <circle class="cls-1" cx="175.2" cy="486.8" r="4.1"/>
            <circle class="cls-1" cx="205.5" cy="497" r="4.1"/>
            <circle class="cls-1" cx="236.8" cy="503.3" r="4.1"/>
            <circle class="cls-1" cx="252.7" cy="518.5" r="4.1"/>
            <circle class="cls-1" cx="218.4" cy="514.6" r="4.1"/>
            <circle class="cls-1" cx="186.3" cy="505.8" r="4.1"/>
            <path class="cls-3" d="m154.5,488.6c2.3,0,4.1,1.8,4.1,4.1s-1.8,4.1-4.1,4.1-4.1-1.8-4.1-4.1,1.8-4.1,4.1-4.1Z"/>
            <path class="cls-3" d="m125.9,472c2.3,0,4.1,1.8,4.1,4.1s-1.8,4.1-4.1,4.1-4.1-1.8-4.1-4.1c-.1-2.2,1.8-4.1,4.1-4.1Z"/>
            <circle class="cls-1" cx="98.3" cy="455.4" r="4.1"/>
            <circle class="cls-1" cx="74.8" cy="432.1" r="4.1" transform="translate(-42.21 9.47) rotate(-5.65)"/>
            <circle class="cls-1" cx="53.9" cy="404.6" r="4.1"/>
            <circle class="cls-1" cx="37.3" cy="376.1" r="4.1"/>
            <circle class="cls-1" cx="24.1" cy="344.1" r="4.1"/>
            <circle class="cls-1" cx="15.6" cy="312.1" r="4.1"/>
            <path class="cls-3" d="m163,458.4c0,4.3-3.5,7.8-7.8,7.8s-7.8-3.5-7.8-7.8,3.5-7.8,7.8-7.8c4.3-.1,7.8,3.4,7.8,7.8Z"/>
            <path class="cls-3" d="m202.3,481.2c0-4.3,3.5-7.8,7.8-7.8s7.8,3.5,7.8,7.8-3.5,7.8-7.8,7.8-7.8-3.4-7.8-7.8Z"/>
            <circle class="cls-1" cx="107.9" cy="422.4" r="7.8"/>
            <circle class="cls-1" cx="71.6" cy="375.3" r="7.8"/>
            <path class="cls-3" d="m49,328.4c-4.3,0-7.8-3.5-7.8-7.8s3.5-7.8,7.8-7.8,7.8,3.5,7.8,7.8-3.5,7.8-7.8,7.8Z"/>
            <circle class="cls-1" cx="186.3" cy="460.7" r="9.6"/>
            <circle class="cls-1" cx="137.1" cy="432.1" r="9.6"/>
            <circle class="cls-1" cx="97.1" cy="392.7" r="9.6"/>
            <path class="cls-3" d="m69.7,334.1c5.3,0,9.6,4.3,9.6,9.6s-4.3,9.6-9.6,9.6-9.6-4.3-9.6-9.6,4.3-9.6,9.6-9.6Z"/>
            <circle class="cls-1" cx="166.8" cy="397" r="15.1"/>
            <circle class="cls-1" cx="203.2" cy="418.8" r="15.1"/>
            <circle class="cls-1" cx="246.1" cy="432.6" r="15.1"/>
            <circle class="cls-1" cx="134.9" cy="365.5" r="15.1"/>
            <circle class="cls-1" cx="112.26" cy="326.47" r="15.1" transform="translate(-232.32 305.25) rotate(-67.5)"/>
          </g>
          <circle class="cls-2" cx="272.9" cy="261.7" r="89.3"/>
          <path class="cls-1" d="m272.9,13.2h0v90.5h0c42.2,0,81.9,16.4,111.8,46.3,29.9,29.9,46.3,69.5,46.3,111.8s-16.4,81.9-46.3,111.8-69.5,46.3-111.8,46.3h0v90.5h0c137.2,0,248.5-111.3,248.5-248.5S410.2,13.2,272.9,13.2Z"/>
        </g>
      </g>
    </g>
  </g>
</svg>