<svg xmlns="http://www.w3.org/2000/svg" width="753" height="572" fill="none" viewBox="0 0 753 572">
  <g>
    <g>
      <path fill="#262A34"
        d="M139.37 376.9a12 12 0 0 0 12.07 12l450.64-2.76a12 12 0 0 0 11.93-11.97l.26-131.66a12 12 0 0 1 11.93-11.98l113.71-.7a12 12 0 0 0 11.93-12.07l-.05-7a12 12 0 0 0-12.07-11.92l-118.02.72c-4.79.03-8.59-4-8.28-8.78a8.24 8.24 0 0 0-8.22-8.78H151.37a12 12 0 0 0-12 12v182.9Z" />
    </g>
    <rect width="19" height="23" x="127" y="208" fill="#262A34" rx="3" />
    <g>
      <rect width="20" height="15" x="581" y="399" fill="#262A34" rx="3"
        transform="rotate(-90 581 399)" />
    </g>
    <g>
      <rect width="20" height="15" x="336" y="403" fill="#262A34" rx="3"
        transform="rotate(-90 336 403)" />
    </g>
    <g>
      <rect width="20" height="15" x="216" y="403" fill="#262A34" rx="3"
        transform="rotate(-90 216 403)" />
    </g>
    <g data-object="Сокол__e__2391:877">
      <rect width="97" height="99" x="207" y="236" fill="#fff" rx="12" />
      <g clip-path="url(#a)">
        <g>
          <mask id="b" fill="#fff">
            <path
              d="M231.5 255.5a3 3 0 0 1 3-3h42a3 3 0 0 1 3 3v59a3 3 0 0 1-3 3h-42a3 3 0 0 1-3-3v-59Z" />
          </mask>
          <path fill="#000"
            d="M228.5 255.5a6 6 0 0 1 6-6h52a6 6 0 0 1 6 6h-64Zm64 59a6 6 0 0 1-6 6h-52a6 6 0 0 1-6-6h64Zm-58 6a6 6 0 0 1-6-6v-59a6 6 0 0 1 6-6v71Zm52-71a6 6 0 0 1 6 6v59a6 6 0 0 1-6 6l-20-6v-59l20-6Z"
            mask="url(#b)" />
        </g>
        <path fill="#fff"
          d="m271.21 279.7.8-.8v4.6a1 1 0 1 0 1.99 0v-4.6l.79.8a.99.99 0 0 0 1.09.23 1 1 0 0 0 .32-1.64l-2.5-2.5a.87.87 0 0 0-.32-.22 1 1 0 0 0-.76 0 1 1 0 0 0-.33.22l-2.5 2.5a1 1 0 0 0 1.42 1.42Zm3.58 11.59-.8.8v-4.6a1 1 0 1 0-1.99 0v4.6l-.79-.8a1.01 1.01 0 0 0-1.1-.22 1.01 1.01 0 0 0-.53 1.31c.05.13.12.24.21.33l2.5 2.5c.1.1.2.16.33.21a.93.93 0 0 0 .76 0c.12-.05.23-.12.33-.21l2.5-2.5a1 1 0 0 0-1.42-1.42Z" />
        <path fill="#000"
          d="M250 273a5.25 5.25 0 1 0 0-10.5 5.25 5.25 0 0 0 0 10.5Zm4.5 0h-9a6.01 6.01 0 0 0-6 6v10.08a1.9 1.9 0 0 0 1.8 1.92 1.88 1.88 0 0 0 1.95-1.88v-9.35a.77.77 0 0 1 .7-.77.74.74 0 0 1 .74.45c.04.1.06.2.06.3v27.1a2.15 2.15 0 1 0 4.31 0v-13.38a.96.96 0 0 1 .88-.97.93.93 0 0 1 1 .94v13.4a2.15 2.15 0 1 0 4.31 0v-27.06a.77.77 0 0 1 .7-.78.74.74 0 0 1 .74.45c.04.1.06.2.06.3v9.33a1.9 1.9 0 0 0 1.8 1.92 1.88 1.88 0 0 0 1.95-1.88V279a6.01 6.01 0 0 0-6-6Z" />
      </g>
    </g>
    <g data-object="Сокол__e__2391:883">
      <rect width="58" height="99" x="374" y="236" fill="#fff" rx="12" />
      <g>
        <g>
          <mask id="c" fill="#fff">
            <path
              d="M379 255.5a3 3 0 0 1 3-3h42a3 3 0 0 1 3 3v59a3 3 0 0 1-3 3h-42a3 3 0 0 1-3-3v-59Z" />
          </mask>
          <path fill="#000"
            d="M376 255.5a6 6 0 0 1 6-6h52a6 6 0 0 1 6 6h-64Zm64 59a6 6 0 0 1-6 6h-52a6 6 0 0 1-6-6h64Zm-58 6a6 6 0 0 1-6-6v-59a6 6 0 0 1 6-6v71Zm52-71a6 6 0 0 1 6 6v59a6 6 0 0 1-6 6l-20-6v-59l20-6Z"
            mask="url(#c)" />
        </g>
        <path fill="#fff"
          d="m418.71 279.7.8-.8v4.6a1 1 0 1 0 1.99 0v-4.6l.79.8a.99.99 0 0 0 1.09.23 1 1 0 0 0 .32-1.64l-2.5-2.5a.87.87 0 0 0-.32-.22 1 1 0 0 0-.76 0 1 1 0 0 0-.33.22l-2.5 2.5a1 1 0 0 0 1.42 1.42Zm3.58 11.59-.8.8v-4.6a1 1 0 1 0-1.99 0v4.6l-.79-.8a1.01 1.01 0 0 0-1.1-.22 1.01 1.01 0 0 0-.53 1.31c.05.13.12.24.21.33l2.5 2.5c.1.1.2.16.33.21a.93.93 0 0 0 .76 0c.12-.05.23-.12.33-.21l2.5-2.5a1 1 0 0 0-1.42-1.42Z" />
        <path fill="#000"
          d="M397.5 273a5.25 5.25 0 1 0 0-10.5 5.25 5.25 0 0 0 0 10.5Zm4.5 0h-9a6.01 6.01 0 0 0-6 6v10.08a1.9 1.9 0 0 0 1.8 1.92 1.88 1.88 0 0 0 1.95-1.88v-9.35a.77.77 0 0 1 .7-.77.74.74 0 0 1 .74.45c.04.1.06.2.06.3v27.1a2.15 2.15 0 1 0 4.31 0v-13.38a.96.96 0 0 1 .88-.97.93.93 0 0 1 1 .94v13.4a2.15 2.15 0 1 0 4.31 0v-27.06a.77.77 0 0 1 .7-.78.74.74 0 0 1 .74.45c.04.1.06.2.06.3v9.33a1.9 1.9 0 0 0 1.8 1.92 1.88 1.88 0 0 0 1.95-1.88V279a6.01 6.01 0 0 0-6-6Z" />
      </g>
    </g>
    <g>
      <rect width="20" height="15" x="125.43" y="152.59" fill="#262A34" rx="3"
        transform="rotate(-.35 125.43 152.59)" />
    </g>
    <g>
      <rect width="20" height="15" x="125.1" y="98.59" fill="#262A34" rx="3"
        transform="rotate(-.35 125.1 98.6)" />
    </g>
    <g>
      <rect width="20" height="15" x="153.66" y="191.42" fill="#262A34" rx="3"
        transform="rotate(-90.35 153.66 191.42)" />
    </g>
    <g>
      <rect width="20" height="15" x="579.63" y="184.82" fill="#262A34" rx="3"
        transform="rotate(-90.35 579.63 184.82)" />
    </g>
    <g>
      <rect width="20" height="15" x="603.02" y="84.67" fill="#262A34" rx="3"
        transform="rotate(-.35 603.02 84.67)" />
    </g>
    <g>
      <rect width="20" height="15" x="603.42" y="149.67" fill="#262A34" rx="3"
        transform="rotate(-.35 603.42 149.67)" />
    </g>
    <g data-object="Сокол__s__2388:821">
      <rect width="132" height="170" x=".75" y="205.35" fill="#fff" rx="12"
        transform="rotate(-.35 .75 205.35)" />
      <g clip-path="url(#d)">
        <path fill="#000"
          d="m89.62 272.81-7.5.05.05 7.5a.7.7 0 0 1-.05.28 1.48 1.48 0 0 1-1.44 1.23l-7.5.04.05 7.5c0 .13-.01.22-.04.28a1.48 1.48 0 0 1-1.45 1.23l-7.49.05.05 7.5a.7.7 0 0 1-.05.28c-.06.34-.22.63-.48.87a1.4 1.4 0 0 1-.96.36l-7.5.04.05 7.5c0 .13-.01.22-.04.28-.06.35-.23.64-.5.87a1.4 1.4 0 0 1-.95.36l-8.99.06c-.4 0-.76-.15-1.06-.44a1.48 1.48 0 0 1-.01-2.11c.3-.3.65-.45 1.05-.46l7.5-.04-.05-7.5c0-.13.01-.22.04-.28.06-.35.23-.64.51-.87.28-.24.6-.36.94-.36l7.5-.05-.05-7.5c0-.12 0-.21.04-.28.06-.34.23-.63.51-.87.28-.23.6-.35.93-.35l7.5-.05-.05-7.5c0-.1.02-.19.05-.28.06-.35.23-.64.5-.87.29-.24.6-.36.94-.36l7.5-.05-.05-7.5c0-.12.01-.21.04-.28.06-.34.22-.63.49-.87.26-.23.58-.35.96-.35l8.99-.06c.4 0 .76.14 1.05.44.3.3.45.65.46 1.05 0 .4-.15.76-.44 1.06-.3.3-.65.45-1.05.45Z" />
      </g>
    </g>
    <g data-object="Сокол__s__2388:826">
      <rect width="132" height="137" x="619.94" y="234.57" fill="#fff" rx="12"
        transform="rotate(-.35 619.94 234.57)" />
      <g clip-path="url(#e)">
        <path fill="#000"
          d="m708.7 285.53-7.49.05.05 7.5a.7.7 0 0 1-.05.28 1.48 1.48 0 0 1-1.44 1.22l-7.5.05.05 7.5c0 .13-.01.22-.04.28a1.5 1.5 0 0 1-.49.87 1.4 1.4 0 0 1-.96.36l-7.49.05.05 7.5a.7.7 0 0 1-.05.28 1.48 1.48 0 0 1-1.44 1.22l-7.5.05.05 7.5c0 .12-.01.22-.05.28a1.48 1.48 0 0 1-1.44 1.23l-8.99.05c-.4 0-.76-.14-1.06-.44a1.46 1.46 0 0 1-.01-2.11c.3-.3.65-.44 1.05-.45l7.5-.04-.05-7.5c0-.13.01-.22.04-.28.06-.35.23-.64.51-.87.28-.24.6-.36.94-.36l7.49-.05-.05-7.5c0-.12.02-.22.05-.28a1.5 1.5 0 0 1 1.44-1.23l7.5-.04-.05-7.5c0-.1.01-.19.05-.28.06-.35.23-.64.5-.87.28-.24.6-.36.94-.36l7.5-.05-.05-7.5c0-.12.01-.21.04-.28a1.48 1.48 0 0 1 1.45-1.23l8.99-.05c.4 0 .75.14 1.05.44.3.3.45.64.46 1.05 0 .4-.15.76-.44 1.06-.3.3-.65.45-1.05.45Z" />
      </g>
    </g>
    <g data-object="Сокол__t__2391:891">
      <rect width="58" height="99" x="433" y="236" fill="#60A5FA" rx="12" />
      <g fill="#fff" clip-path="url(#f)">
        <path
          d="M448 272a5.25 5.25 0 1 0 0-10.5 5.25 5.25 0 0 0 0 10.5Zm4.5 1.5h-9a6.01 6.01 0 0 0-6 6v10.08a1.9 1.9 0 0 0 1.8 1.92 1.88 1.88 0 0 0 1.95-1.88v-9.35a.77.77 0 0 1 .7-.77.74.74 0 0 1 .74.45c.04.1.06.2.06.3v27.1a2.15 2.15 0 1 0 4.31 0v-13.38a.96.96 0 0 1 .88-.97.93.93 0 0 1 1 .94v13.4a2.15 2.15 0 1 0 4.31 0v-27.06a.77.77 0 0 1 .7-.78.74.74 0 0 1 .74.45c.04.1.06.2.06.3v9.33a1.9 1.9 0 0 0 1.8 1.92 1.88 1.88 0 0 0 1.95-1.88V279.5a6.01 6.01 0 0 0-6-6Z" />
      </g>
      <g fill="#fff" clip-path="url(#g)">
        <path
          d="M475.98 272a5.25 5.25 0 1 0 0-10.5 5.25 5.25 0 0 0 0 10.5ZM489 287.55l-.97-3.22v-.01l-2.1-7.02h-.01l-.24-.8a4.21 4.21 0 0 0-4.03-3H470.4a4.2 4.2 0 0 0-4.03 3l-.24.8-2.1 7.02-.98 3.23a1.9 1.9 0 0 0 1.18 2.36 1.89 1.89 0 0 0 2.05-.58c.16-.19.28-.41.35-.66l2.4-7.99.2-.68a.75.75 0 0 1 .83-.48.75.75 0 0 1 .63.73c0 .05 0 .1-.02.15l-4.1 13.67a1.48 1.48 0 0 0 .24 1.32 1.5 1.5 0 0 0 1.2.61h2.72v10.75c0 1.55.98 2.75 2.25 2.75 1.26 0 2.25-1.2 2.25-2.75V296h1.5v10.75c0 1.55.98 2.75 2.25 2.75 1.26 0 2.25-1.2 2.25-2.75V296h2.8a1.51 1.51 0 0 0 1.21-.6 1.5 1.5 0 0 0 .24-1.33l-4.1-13.67a.75.75 0 0 1 1.12-.8c.14.1.26.24.32.4l.2.68 2.4 8a1.87 1.87 0 0 0 2.4 1.23 1.9 1.9 0 0 0 1.18-2.36Z" />
      </g>
    </g>
    <g data-object="Сокол__r__2386:294">
      <path fill="#78B500"
        d="M256 406a12 12 0 0 1 12-12h92a12 12 0 0 1 12 12v154a12 12 0 0 1-12 12h-92a12 12 0 0 1-12-12V406Z" />
      <path fill="#fff"
        d="M264.58 494.82v-23.27h8.91a9.8 9.8 0 0 1 4.2.79 5.6 5.6 0 0 1 2.5 2.15c.57.9.85 1.94.85 3.09a4.6 4.6 0 0 1-2.01 4.06c-.62.41-1.3.71-2.06.9v.22a5.26 5.26 0 0 1 4.25 2.7c.48.83.73 1.84.73 3.02 0 1.2-.3 2.28-.88 3.25a5.95 5.95 0 0 1-2.64 2.26 10.4 10.4 0 0 1-4.43.83h-9.42Zm4.22-3.52h4.53c1.53 0 2.63-.3 3.3-.88a2.87 2.87 0 0 0 1.03-2.27 3.48 3.48 0 0 0-1.96-3.19 4.83 4.83 0 0 0-2.25-.48h-4.65v6.81Zm0-9.86h4.17a4.7 4.7 0 0 0 1.96-.4 3.07 3.07 0 0 0 1.89-2.92c0-.9-.32-1.64-.95-2.22-.63-.59-1.57-.88-2.81-.88h-4.26v6.42Zm26.05-9.9v23.28h-4.21v-19.17h-.14l-5.44 3.47v-3.86l5.78-3.71h4.01Zm15.38 0v23.28H306v-19.17h-.13l-5.45 3.47v-3.86l5.79-3.71h4Zm16.53 9.95v3.38h-10.48v-3.38h10.48Zm13.75-9.94v23.27h-4.22v-19.17h-.13l-5.45 3.47v-3.86l5.79-3.71h4Zm14.51 23.71a8.14 8.14 0 0 1-4.82-1.42 9.04 9.04 0 0 1-3.08-4.13 17.73 17.73 0 0 1-1.07-6.5c.01-2.54.37-4.7 1.08-6.48a8.9 8.9 0 0 1 3.08-4.1 8.16 8.16 0 0 1 4.81-1.4c1.86 0 3.47.47 4.8 1.4a8.8 8.8 0 0 1 3.09 4.1 17.35 17.35 0 0 1 1.07 6.47c0 2.55-.35 4.72-1.07 6.53a8.87 8.87 0 0 1-3.08 4.11 8.08 8.08 0 0 1-4.81 1.42Zm0-3.56c1.45 0 2.6-.71 3.44-2.14.85-1.44 1.28-3.56 1.28-6.36 0-1.84-.2-3.4-.58-4.65a6.18 6.18 0 0 0-1.64-2.85 3.58 3.58 0 0 0-2.5-.96c-1.45 0-2.6.72-3.43 2.16-.84 1.43-1.27 3.53-1.27 6.3-.01 1.86.17 3.42.55 4.69a6.27 6.27 0 0 0 1.64 2.86c.7.64 1.54.95 2.51.95Z" />
    </g>
    <g data-object="Сокол__r__2388:854">
      <path fill="#78B500"
        d="M1 406a12 12 0 0 1 12-12h226a12 12 0 0 1 12 12v154a12 12 0 0 1-12 12H13a12 12 0 0 1-12-12V406Z" />
      <path fill="#fff"
        d="M77.9 494.82v-23.27h8.92c1.68 0 3.08.26 4.19.79a5.6 5.6 0 0 1 2.51 2.15c.56.9.84 1.94.84 3.09a4.6 4.6 0 0 1-2.01 4.06c-.61.41-1.3.71-2.06.9v.22a5.27 5.27 0 0 1 4.25 2.7c.49.83.73 1.84.73 3.02a6.2 6.2 0 0 1-.87 3.25 5.95 5.95 0 0 1-2.64 2.26 10.4 10.4 0 0 1-4.43.83H77.9Zm4.22-3.52h4.54c1.53 0 2.63-.3 3.3-.88a2.87 2.87 0 0 0 1.03-2.27 3.48 3.48 0 0 0-1.97-3.19 4.83 4.83 0 0 0-2.25-.48h-4.65v6.81Zm0-9.86h4.17a4.7 4.7 0 0 0 1.97-.4 3.07 3.07 0 0 0 1.89-2.92c0-.9-.32-1.64-.96-2.22-.63-.59-1.56-.88-2.8-.88h-4.27v6.42Zm26.06-9.9v23.28h-4.22v-19.17h-.13l-5.45 3.47v-3.86l5.79-3.71h4Zm15.37 0v23.28h-4.21v-19.17h-.14l-5.44 3.47v-3.86l5.78-3.71h4.01Zm16.54 9.95v3.38H129.6v-3.38h10.48Zm13.74-9.94v23.27h-4.21v-19.17h-.14l-5.44 3.47v-3.86l5.78-3.71h4.01Zm5.91 23.27v-3.05l8.08-7.92c.78-.78 1.42-1.47 1.93-2.08.52-.6.9-1.2 1.16-1.76.26-.57.39-1.17.39-1.82a3.33 3.33 0 0 0-1.88-3.11 4.43 4.43 0 0 0-1.98-.43 4.1 4.1 0 0 0-2.01.47c-.58.31-1.03.76-1.35 1.33a4.27 4.27 0 0 0-.46 2.06h-4.01a7.2 7.2 0 0 1 1-3.85 6.82 6.82 0 0 1 2.8-2.54c1.18-.6 2.55-.9 4.08-.9 1.56 0 2.94.3 4.12.88a6.71 6.71 0 0 1 2.75 2.4c.66 1.01.98 2.17.98 3.48a6.9 6.9 0 0 1-.5 2.56 10.9 10.9 0 0 1-1.76 2.8c-.83 1.02-2 2.26-3.5 3.72l-4.02 4.08v.16h10.14v3.52h-15.96Z" />
    </g>
    <g data-object="Сокол__r__2386:290">
      <path fill="#78B500"
        d="M377 406a12 12 0 0 1 12-12h351a12 12 0 0 1 12 12v154a12 12 0 0 1-12 12H389a12 12 0 0 1-12-12V406Z" />
      <path fill="#fff"
        d="M515.07 494.82v-23.27h8.91a9.8 9.8 0 0 1 4.2.79 5.6 5.6 0 0 1 2.5 2.15c.57.9.85 1.94.85 3.09a4.6 4.6 0 0 1-2.01 4.06c-.62.41-1.3.71-2.06.9v.22a5.27 5.27 0 0 1 4.25 2.7c.49.83.73 1.84.73 3.02 0 1.2-.3 2.28-.88 3.25a5.95 5.95 0 0 1-2.63 2.26 10.4 10.4 0 0 1-4.44.83h-9.42Zm4.22-3.52h4.53c1.53 0 2.64-.3 3.31-.88a2.87 2.87 0 0 0 1.02-2.27 3.48 3.48 0 0 0-1.96-3.19 4.83 4.83 0 0 0-2.25-.48h-4.65v6.81Zm0-9.86h4.17a4.7 4.7 0 0 0 1.97-.4 3.07 3.07 0 0 0 1.89-2.92c0-.9-.33-1.64-.96-2.22-.63-.59-1.57-.88-2.8-.88h-4.27v6.42Zm26.05-9.9v23.28h-4.21v-19.17h-.14l-5.44 3.47v-3.86l5.78-3.71h4.01Zm15.38 0v23.28h-4.22v-19.17h-.13l-5.45 3.47v-3.86l5.79-3.71h4Zm16.53 9.95v3.38h-10.48v-3.38h10.48Zm12.89 13.77a8.14 8.14 0 0 1-4.82-1.42 9.05 9.05 0 0 1-3.08-4.13 17.73 17.73 0 0 1-1.07-6.5c0-2.54.37-4.7 1.08-6.48a8.9 8.9 0 0 1 3.08-4.1 8.16 8.16 0 0 1 4.8-1.4c1.87 0 3.47.47 4.81 1.4a8.8 8.8 0 0 1 3.08 4.1 17.34 17.34 0 0 1 1.08 6.47c0 2.55-.36 4.72-1.08 6.53a8.87 8.87 0 0 1-3.08 4.11 8.09 8.09 0 0 1-4.8 1.42Zm0-3.56c1.45 0 2.6-.71 3.44-2.14.85-1.44 1.27-3.56 1.27-6.36 0-1.84-.2-3.4-.58-4.65a6.17 6.17 0 0 0-1.63-2.85 3.58 3.58 0 0 0-2.5-.96c-1.45 0-2.6.72-3.44 2.16-.84 1.43-1.26 3.53-1.27 6.3 0 1.86.18 3.42.56 4.69a6.27 6.27 0 0 0 1.63 2.86c.7.64 1.55.95 2.52.95Zm12.97 3.12 9.9-19.6v-.15h-11.5v-3.52h15.86v3.6l-9.89 19.67h-4.38Z" />
    </g>
    <g data-object="Сокол__r__2386:287">
      <path fill="#78B500"
        d="M139 12a12 12 0 0 1 12-12h214a12 12 0 0 1 12 12v151a12 12 0 0 1-12 12H151a12 12 0 0 1-12-12V12Z" />
      <path fill="#fff"
        d="M209.1 99.83V76.55h8.91c1.69 0 3.08.27 4.2.8a5.6 5.6 0 0 1 2.5 2.15c.57.9.85 1.94.85 3.09a4.6 4.6 0 0 1-2.01 4.06 6.2 6.2 0 0 1-2.06.9v.22a5.28 5.28 0 0 1 4.25 2.7c.49.83.73 1.83.73 3.02 0 1.2-.3 2.28-.88 3.25a5.95 5.95 0 0 1-2.63 2.26 10.4 10.4 0 0 1-4.43.83h-9.42Zm4.22-3.53h4.54c1.53 0 2.63-.29 3.3-.87a2.87 2.87 0 0 0 1.03-2.27 3.48 3.48 0 0 0-1.97-3.19 4.83 4.83 0 0 0-2.25-.48h-4.65v6.81Zm0-9.85h4.17a4.7 4.7 0 0 0 1.97-.4 3.07 3.07 0 0 0 1.89-2.92c0-.9-.32-1.64-.96-2.22-.63-.59-1.56-.88-2.8-.88h-4.27v6.42Zm26.06-9.9v23.28h-4.22V80.66h-.14l-5.44 3.47v-3.86l5.78-3.72h4.02Zm15.37 0v23.28h-4.22V80.66h-.13l-5.44 3.47v-3.86l5.78-3.72h4.01Zm16.54 9.95v3.38H260.8V86.5h10.48Zm12.88 13.77a8.14 8.14 0 0 1-4.82-1.42 9.05 9.05 0 0 1-3.08-4.13 17.74 17.74 0 0 1-1.07-6.5c.01-2.55.37-4.7 1.08-6.48a8.9 8.9 0 0 1 3.08-4.1 8.16 8.16 0 0 1 4.8-1.4c1.87 0 3.47.46 4.81 1.4a8.8 8.8 0 0 1 3.08 4.1 17.34 17.34 0 0 1 1.08 6.47c0 2.55-.36 4.72-1.08 6.53a8.87 8.87 0 0 1-3.07 4.1 8.08 8.08 0 0 1-4.81 1.43Zm0-3.56c1.45 0 2.6-.71 3.44-2.15.85-1.43 1.27-3.55 1.27-6.35 0-1.85-.19-3.4-.58-4.66a6.17 6.17 0 0 0-1.63-2.84 3.58 3.58 0 0 0-2.5-.96c-1.45 0-2.6.72-3.43 2.16-.85 1.43-1.27 3.53-1.28 6.3 0 1.86.18 3.42.56 4.68a6.27 6.27 0 0 0 1.64 2.87c.7.63 1.54.95 2.5.95Zm22.2-20.16v23.28h-4.21V80.66h-.14l-5.44 3.47v-3.86l5.78-3.72h4.02Z" />
    </g>
    <g data-object="Сокол__r__2386:284">
      <path fill="#78B500"
        d="M618 12a12 12 0 0 1 12-12h110a12 12 0 0 1 12 12v105a12 12 0 0 1-12 12H630a12 12 0 0 1-12-12V12Z" />
      <path fill="#fff"
        d="M633.25 76.63V53.35h8.9c1.69 0 3.09.27 4.2.8a5.6 5.6 0 0 1 2.51 2.15c.56.9.84 1.94.84 3.09a4.59 4.59 0 0 1-2.01 4.06c-.61.41-1.3.71-2.06.9v.22a5.28 5.28 0 0 1 4.25 2.7c.49.83.73 1.83.73 3.02 0 1.2-.3 2.28-.88 3.25a5.95 5.95 0 0 1-2.63 2.26 10.4 10.4 0 0 1-4.43.83h-9.42Zm4.21-3.53H642c1.53 0 2.63-.29 3.3-.87a2.87 2.87 0 0 0 1.03-2.27 3.49 3.49 0 0 0-1.97-3.19 4.84 4.84 0 0 0-2.25-.48h-4.65v6.81Zm0-9.85h4.17a4.7 4.7 0 0 0 1.97-.4 3.07 3.07 0 0 0 1.89-2.92c0-.9-.32-1.64-.96-2.22-.63-.59-1.56-.88-2.8-.88h-4.27v6.42Zm26.06-9.9v23.28h-4.22V57.46h-.14l-5.44 3.47v-3.86l5.78-3.72h4.02Zm15.37 0v23.28h-4.22V57.46h-.13l-5.44 3.47v-3.86l5.78-3.72h4.01Zm16.53 9.95v3.38h-10.47V63.3h10.47Zm12.89 13.77a8.14 8.14 0 0 1-4.82-1.42 9.05 9.05 0 0 1-3.08-4.13 17.74 17.74 0 0 1-1.07-6.5c.01-2.55.37-4.7 1.08-6.48a8.91 8.91 0 0 1 3.08-4.1 8.16 8.16 0 0 1 4.8-1.4c1.87 0 3.48.46 4.82 1.4a8.8 8.8 0 0 1 3.08 4.1 17.34 17.34 0 0 1 1.07 6.47c0 2.55-.36 4.72-1.07 6.53a8.87 8.87 0 0 1-3.08 4.1 8.09 8.09 0 0 1-4.81 1.43Zm0-3.56c1.45 0 2.6-.71 3.44-2.15.85-1.43 1.27-3.55 1.27-6.35 0-1.85-.19-3.4-.57-4.66a6.18 6.18 0 0 0-1.64-2.84 3.58 3.58 0 0 0-2.5-.96c-1.45 0-2.6.72-3.43 2.16-.84 1.43-1.27 3.53-1.28 6.3 0 1.86.18 3.42.56 4.68a6.27 6.27 0 0 0 1.64 2.87c.7.63 1.54.95 2.5.95Zm20.83 3.43a9.37 9.37 0 0 1-4.07-.85 7.25 7.25 0 0 1-2.85-2.36 6.2 6.2 0 0 1-1.11-3.43h4.09c.07.95.49 1.73 1.24 2.34.75.6 1.65.9 2.7.9a4.08 4.08 0 0 0 3.73-2.15c.37-.68.55-1.45.54-2.3a4.62 4.62 0 0 0-.55-2.35 4.17 4.17 0 0 0-1.56-1.6 4.3 4.3 0 0 0-2.27-.6c-.7 0-1.38.13-2.06.4a4.2 4.2 0 0 0-1.6 1.04l-3.8-.63 1.2-12h13.5v3.53h-10l-.67 6.17h.13a4.72 4.72 0 0 1 1.83-1.26 6.45 6.45 0 0 1 2.6-.52 7.16 7.16 0 0 1 6.38 3.73c.63 1.16.95 2.49.95 3.98 0 1.54-.35 2.9-1.07 4.11a7.55 7.55 0 0 1-2.94 2.83 8.92 8.92 0 0 1-4.34 1.02Z" />
    </g>
    <g data-object="Сокол__r__2388:804">
      <path fill="#78B500"
        d="M380 12a12 12 0 0 1 12-12h209a12 12 0 0 1 12 12v151a12 12 0 0 1-12 12H392a12 12 0 0 1-12-12V12Z" />
      <path fill="#fff"
        d="M444.02 99.83V76.55h8.91c1.69 0 3.08.27 4.2.8a5.6 5.6 0 0 1 2.5 2.15c.57.9.85 1.94.85 3.09a4.58 4.58 0 0 1-2.01 4.06 6.2 6.2 0 0 1-2.06.9v.22a5.28 5.28 0 0 1 4.25 2.7c.49.83.73 1.83.73 3.02 0 1.2-.3 2.28-.88 3.25a5.95 5.95 0 0 1-2.63 2.26 10.4 10.4 0 0 1-4.43.83h-9.43Zm4.22-3.53h4.53c1.54 0 2.64-.29 3.31-.87a2.87 2.87 0 0 0 1.03-2.27 3.48 3.48 0 0 0-1.97-3.19 4.83 4.83 0 0 0-2.25-.48h-4.65v6.81Zm0-9.85h4.17a4.7 4.7 0 0 0 1.97-.4 3.08 3.08 0 0 0 1.89-2.92c0-.9-.32-1.64-.96-2.22-.63-.59-1.56-.88-2.8-.88h-4.27v6.42Zm26.06-9.9v23.28h-4.22V80.66h-.14l-5.44 3.47v-3.86l5.78-3.72h4.02Zm15.37 0v23.28h-4.22V80.66h-.13l-5.44 3.47v-3.86l5.78-3.72h4.01Zm16.53 9.95v3.38h-10.47V86.5h10.47Zm12.89 13.77a8.13 8.13 0 0 1-4.82-1.42 9.05 9.05 0 0 1-3.08-4.13 17.74 17.74 0 0 1-1.07-6.5c0-2.55.37-4.7 1.08-6.48a8.91 8.91 0 0 1 3.08-4.1 8.16 8.16 0 0 1 4.8-1.4c1.87 0 3.47.46 4.81 1.4a8.8 8.8 0 0 1 3.08 4.1 17.34 17.34 0 0 1 1.08 6.47c0 2.55-.36 4.72-1.08 6.53a8.88 8.88 0 0 1-3.08 4.1 8.09 8.09 0 0 1-4.8 1.43Zm0-3.56c1.45 0 2.6-.71 3.44-2.15.85-1.43 1.27-3.55 1.27-6.35 0-1.85-.19-3.4-.58-4.66a6.18 6.18 0 0 0-1.63-2.84 3.58 3.58 0 0 0-2.5-.96c-1.45 0-2.6.72-3.43 2.16-.84 1.43-1.27 3.53-1.28 6.3 0 1.86.18 3.42.56 4.68a6.27 6.27 0 0 0 1.64 2.87c.7.63 1.54.95 2.5.95Zm12.32-1.2v-3.35l9.87-15.6h2.8v4.77h-1.7l-6.65 10.53v.18h13.78v3.47h-18.1Zm11.1 4.32v-5.34l.05-1.5V76.55h3.97v23.28h-4.02Z" />
    </g>
    <g data-object="Сокол__r__2388:801">
      <path fill="#78B500"
        d="M618 148a12 12 0 0 1 12-12h110a12 12 0 0 1 12 12v31a12 12 0 0 1-12 12H630a12 12 0 0 1-12-12v-31Z" />
      <path fill="#fff"
        d="M633 175.17V151.9h8.9c1.69 0 3.09.27 4.2.8a5.6 5.6 0 0 1 2.51 2.14c.56.91.84 1.94.84 3.1a4.59 4.59 0 0 1-2.01 4.06c-.61.4-1.3.7-2.06.89v.23a5.29 5.29 0 0 1 4.25 2.7c.49.82.73 1.83.73 3.01 0 1.2-.3 2.3-.88 3.25a5.95 5.95 0 0 1-2.63 2.26 10.4 10.4 0 0 1-4.43.83H633Zm4.21-3.52h4.54c1.53 0 2.63-.29 3.3-.87a2.87 2.87 0 0 0 1.03-2.28 3.49 3.49 0 0 0-1.97-3.18 4.83 4.83 0 0 0-2.25-.49h-4.65v6.82Zm0-9.85h4.17a4.7 4.7 0 0 0 1.97-.4 3.07 3.07 0 0 0 1.89-2.92c0-.9-.32-1.64-.96-2.23-.63-.58-1.56-.87-2.8-.87h-4.27v6.42Zm26.06-9.9v23.27h-4.22V156h-.14l-5.44 3.48v-3.86l5.78-3.72h4.02Zm15.37 0v23.27h-4.22V156h-.13l-5.44 3.48v-3.86l5.78-3.72h4.01Zm16.53 9.94v3.4H684.7v-3.4h10.47Zm12.89 13.78a8.14 8.14 0 0 1-4.82-1.42 9.05 9.05 0 0 1-3.08-4.13 17.74 17.74 0 0 1-1.07-6.51c.01-2.54.37-4.7 1.08-6.48a8.9 8.9 0 0 1 3.08-4.09 8.17 8.17 0 0 1 4.8-1.4c1.87 0 3.48.46 4.82 1.4a8.8 8.8 0 0 1 3.08 4.1 17.34 17.34 0 0 1 1.07 6.47c0 2.55-.36 4.72-1.07 6.52a8.87 8.87 0 0 1-3.08 4.12 8.09 8.09 0 0 1-4.81 1.42Zm0-3.56c1.45 0 2.6-.72 3.44-2.15.85-1.44 1.27-3.55 1.27-6.35 0-1.85-.19-3.4-.57-4.66a6.19 6.19 0 0 0-1.64-2.84 3.58 3.58 0 0 0-2.5-.97c-1.45 0-2.6.72-3.43 2.16-.84 1.44-1.27 3.54-1.28 6.31 0 1.86.18 3.42.56 4.68a6.27 6.27 0 0 0 1.64 2.87c.7.63 1.54.95 2.5.95Zm21.26 3.43c-1.11 0-2.2-.2-3.26-.58a7.69 7.69 0 0 1-2.86-1.87 9.23 9.23 0 0 1-2.03-3.47c-.5-1.44-.74-3.24-.73-5.37 0-2 .2-3.77.63-5.33a11.75 11.75 0 0 1 1.83-3.96 8.06 8.06 0 0 1 2.88-2.47 8.3 8.3 0 0 1 3.78-.86c1.46 0 2.76.3 3.89.87a7.32 7.32 0 0 1 4.04 5.72h-4.14a3.8 3.8 0 0 0-1.31-2.13 3.76 3.76 0 0 0-2.48-.8c-1.61 0-2.85.7-3.73 2.1-.86 1.4-1.3 3.32-1.3 5.77h.16c.37-.67.85-1.24 1.44-1.72a7.05 7.05 0 0 1 4.38-1.5 6.98 6.98 0 0 1 6.26 3.67c.63 1.14.95 2.44.94 3.9a8 8 0 0 1-1.05 4.13 7.6 7.6 0 0 1-2.94 2.87 8.84 8.84 0 0 1-4.4 1.03Zm-.02-3.4c.83 0 1.57-.2 2.22-.6a4.57 4.57 0 0 0 2.1-3.92c0-.84-.18-1.6-.55-2.27a4.16 4.16 0 0 0-3.71-2.2 4.2 4.2 0 0 0-3.1 1.34 4.58 4.58 0 0 0 .82 7.03c.66.4 1.4.61 2.22.61Z" />
    </g>
    <g data-object="Сокол__r__2386:263">
      <path fill="#78B500"
        d="M1 12A12 12 0 0 1 13 0h108a12 12 0 0 1 12 12v105a12 12 0 0 1-12 12H13a12 12 0 0 1-12-12V12Z" />
      <path fill="#fff"
        d="M15.1 76.63V53.35h8.91c1.69 0 3.08.27 4.2.8a5.6 5.6 0 0 1 2.5 2.15c.57.9.85 1.94.85 3.09a4.59 4.59 0 0 1-2.01 4.06 6.2 6.2 0 0 1-2.06.9v.22a5.28 5.28 0 0 1 4.25 2.7c.49.83.73 1.83.73 3.02 0 1.2-.3 2.28-.88 3.25a5.95 5.95 0 0 1-2.63 2.26 10.4 10.4 0 0 1-4.43.83H15.1Zm4.22-3.53h4.53c1.54 0 2.64-.29 3.31-.87a2.87 2.87 0 0 0 1.02-2.27 3.48 3.48 0 0 0-1.96-3.19 4.83 4.83 0 0 0-2.25-.48h-4.65v6.81Zm0-9.85h4.17a4.7 4.7 0 0 0 1.97-.4 3.07 3.07 0 0 0 1.89-2.92c0-.9-.32-1.64-.96-2.22-.63-.59-1.57-.88-2.8-.88h-4.27v6.42Zm26.05-9.9v23.28h-4.21V57.46h-.14l-5.44 3.47v-3.86l5.78-3.72h4.01Zm15.38 0v23.28h-4.22V57.46h-.13l-5.45 3.47v-3.86l5.79-3.72h4.01Zm16.53 9.95v3.38H66.81V63.3h10.47Zm12.89 13.77a8.14 8.14 0 0 1-4.82-1.42 9.05 9.05 0 0 1-3.08-4.13 17.73 17.73 0 0 1-1.07-6.5c0-2.55.37-4.7 1.08-6.48a8.9 8.9 0 0 1 3.08-4.1 8.16 8.16 0 0 1 4.8-1.4c1.87 0 3.47.46 4.81 1.4a8.8 8.8 0 0 1 3.08 4.1A17.35 17.35 0 0 1 99.13 65c0 2.55-.36 4.72-1.08 6.53a8.87 8.87 0 0 1-3.08 4.1 8.08 8.08 0 0 1-4.8 1.43Zm0-3.56c1.45 0 2.6-.71 3.44-2.15.85-1.43 1.27-3.55 1.27-6.35 0-1.85-.19-3.4-.58-4.66a6.18 6.18 0 0 0-1.63-2.84 3.58 3.58 0 0 0-2.5-.96c-1.45 0-2.6.72-3.43 2.16-.85 1.43-1.27 3.53-1.28 6.3 0 1.86.18 3.42.56 4.68a6.27 6.27 0 0 0 1.64 2.87c.7.63 1.54.95 2.5.95Zm21.1 3.43c-1.64 0-3.1-.28-4.37-.84a7.3 7.3 0 0 1-3-2.34 6.07 6.07 0 0 1-1.17-3.46H107c.04.63.25 1.17.63 1.64.37.47.88.83 1.5 1.08.64.26 1.34.39 2.12.39a5.4 5.4 0 0 0 2.22-.43 3.6 3.6 0 0 0 1.5-1.23c.37-.52.55-1.12.54-1.8 0-.71-.17-1.33-.54-1.87a3.65 3.65 0 0 0-1.62-1.26 6.3 6.3 0 0 0-2.52-.46h-2.06v-3.25h2.06c.81 0 1.52-.14 2.12-.42a3.4 3.4 0 0 0 1.45-1.18c.35-.51.52-1.1.5-1.78a3.1 3.1 0 0 0-.43-1.72 3 3 0 0 0-1.27-1.15 5 5 0 0 0-3.88-.02c-.6.26-1.08.63-1.46 1.1a2.8 2.8 0 0 0-.59 1.69h-4.05a5.9 5.9 0 0 1 1.12-3.44 7.27 7.27 0 0 1 2.91-2.31 9.6 9.6 0 0 1 4.08-.84c1.55 0 2.9.29 4.05.87a6.6 6.6 0 0 1 2.67 2.33c.62.98.94 2.06.94 3.24 0 1.3-.38 2.4-1.16 3.3a5.44 5.44 0 0 1-3.05 1.73v.18a5.9 5.9 0 0 1 3.77 1.82 5.2 5.2 0 0 1 1.3 3.65c0 1.3-.37 2.47-1.11 3.5a7.38 7.38 0 0 1-3.05 2.4c-1.28.6-2.76.88-4.43.88Z" />
    </g>
    <g data-object="Сокол__r__2388:792">
      <path fill="#78B500"
        d="M1 146a12 12 0 0 1 12-12h108a12 12 0 0 1 12 12v33a12 12 0 0 1-12 12H13a12 12 0 0 1-12-12v-33Z" />
      <path fill="#fff"
        d="M15.09 173.84v-23.28h8.9c1.69 0 3.09.27 4.2.8a5.6 5.6 0 0 1 2.51 2.14c.56.91.84 1.94.84 3.1a4.59 4.59 0 0 1-2.01 4.06 6.2 6.2 0 0 1-2.05.9v.22a5.29 5.29 0 0 1 4.25 2.7c.48.82.72 1.83.72 3.01 0 1.2-.29 2.3-.87 3.25a5.96 5.96 0 0 1-2.64 2.26 10.4 10.4 0 0 1-4.43.84h-9.42Zm4.22-3.53h4.53c1.53 0 2.63-.29 3.3-.87a2.87 2.87 0 0 0 1.03-2.28 3.48 3.48 0 0 0-1.97-3.18 4.83 4.83 0 0 0-2.25-.49h-4.64v6.82Zm0-9.85h4.17a4.7 4.7 0 0 0 1.96-.4 3.07 3.07 0 0 0 1.89-2.92c0-.9-.32-1.64-.96-2.23-.63-.58-1.56-.87-2.8-.87H19.3v6.42Zm26.05-9.9v23.28h-4.22v-19.18h-.13l-5.45 3.48v-3.86l5.79-3.72h4Zm15.37 0v23.28h-4.21v-19.18h-.14l-5.44 3.48v-3.86l5.78-3.72h4.01Zm16.54 9.94v3.4H66.79v-3.4h10.48Zm12.88 13.78a8.14 8.14 0 0 1-4.82-1.42 9.05 9.05 0 0 1-3.08-4.13 17.74 17.74 0 0 1-1.06-6.5c0-2.55.36-4.7 1.08-6.49a8.9 8.9 0 0 1 3.07-4.09 8.17 8.17 0 0 1 4.81-1.4 8.1 8.1 0 0 1 4.8 1.4 8.8 8.8 0 0 1 3.09 4.1 17.35 17.35 0 0 1 1.08 6.47c0 2.55-.36 4.72-1.08 6.52a8.88 8.88 0 0 1-3.08 4.12 8.1 8.1 0 0 1-4.8 1.42Zm0-3.56c1.46 0 2.6-.72 3.44-2.15.85-1.44 1.28-3.55 1.28-6.35 0-1.85-.2-3.4-.58-4.66a6.18 6.18 0 0 0-1.64-2.84 3.58 3.58 0 0 0-2.5-.97c-1.45 0-2.59.72-3.43 2.16-.84 1.44-1.27 3.54-1.27 6.31a16.5 16.5 0 0 0 .55 4.68 6.27 6.27 0 0 0 1.64 2.87c.7.63 1.54.95 2.51.95Zm12.74 3.12v-3.05l8.08-7.92c.78-.78 1.42-1.47 1.94-2.08.51-.6.9-1.2 1.15-1.76.26-.57.39-1.18.39-1.82a3.27 3.27 0 0 0-1.88-3.11 4.43 4.43 0 0 0-1.98-.44 4.1 4.1 0 0 0-2.02.48c-.57.31-1.02.76-1.34 1.33a4.27 4.27 0 0 0-.46 2.06h-4.01a7.2 7.2 0 0 1 1-3.85 6.82 6.82 0 0 1 2.8-2.54c1.18-.6 2.55-.9 4.08-.9 1.56 0 2.94.3 4.12.88a6.7 6.7 0 0 1 2.75 2.4 6.2 6.2 0 0 1 .98 3.47 6.9 6.9 0 0 1-.5 2.57 10.9 10.9 0 0 1-1.76 2.8c-.83 1.02-2 2.26-3.5 3.71l-4.02 4.08v.16h10.14v3.53h-15.96Z" />
    </g>
  </g>
  <defs>
    <clipPath id="a">
      <path fill="#fff" d="M231.5 247.5h48v76h-48z" />
    </clipPath>
    <clipPath id="d">
      <path fill="#fff" d="m43.12 266.1 48-.3.3 48-48 .3z" />
    </clipPath>
    <clipPath id="e">
      <path fill="#fff" d="m662.2 278.81 48-.29.3 48-48 .3z" />
    </clipPath>
    <clipPath id="f">
      <path fill="#fff" d="M424 261.5h48v48h-48z" />
    </clipPath>
    <clipPath id="g">
      <path fill="#fff" d="M452 261.5h48v48h-48z" />
    </clipPath>
  </defs>
</svg>