<svg xmlns="http://www.w3.org/2000/svg" width="543" height="545" fill="none" viewBox="0 0 543 545">
  <g>
    <path fill="#262A34"
      d="M139 395a12 12 0 0 0 12 12h236.64a12 12 0 0 0 12-12V217.13a12 12 0 0 1 12-12H427a12 12 0 0 0 12-12V149a12 12 0 0 0-12-12h-11.84a12 12 0 0 0-12 12v7.56a12 12 0 0 1-12 12H151a12 12 0 0 0-12 12V395Z" />
    <g>
      <rect width="23" height="23" x="126" y="174" fill="#262A34" rx="3" />
    </g>
    <g>
      <rect width="23" height="23" x="126" y="223" fill="#262A34" rx="3" />
    </g>
    <g>
      <rect width="23" height="23" x="127" y="287" fill="#262A34" rx="3" />
    </g>
    <g>
      <rect width="23" height="23" x="127" y="363" fill="#262A34" rx="3" />
    </g>
    <g>
      <rect width="23" height="23" x="337" y="154" fill="#262A34" rx="3" />
    </g>
    <g>
      <rect width="23" height="23" x="385" y="218" fill="#262A34" rx="3" />
    </g>
    <g>
      <rect width="23" height="23" x="189" y="395" fill="#262A34" rx="3" />
    </g>
    <g>
      <rect width="23" height="23" x="174" y="154" fill="#262A34" rx="3" />
    </g>
    <g>
      <rect width="23" height="23" x="412" y="128" fill="#262A34" rx="3" />
    </g>
    <g>
      <rect width="23" height="23" x="329" y="395" fill="#262A34" rx="3" />
    </g>
    <g>
      <rect width="23" height="23" x="388" y="287" fill="#262A34" rx="3" />
    </g>
    <g>
      <rect width="23" height="23" x="385" y="363" fill="#262A34" rx="3" />
    </g>
    <g>
      <rect width="23" height="23" x="200" y="116" fill="#262A34" rx="3" />
    </g>
    <g>
      <rect width="23" height="23" x="428" y="162" fill="#262A34" rx="3" />
    </g>
    <g data-object="Сокол__s__2280:459">
      <rect width="140" height="62" x="403" y="273" fill="#fff" rx="12" />
      <g>
        <path fill="#000"
          d="M495.45 287h-7.49v7.5c0 .13-.01.22-.04.28a1.47 1.47 0 0 1-1.46 1.22h-7.49v7.5c0 .13-.02.22-.05.28a1.48 1.48 0 0 1-1.45 1.22h-7.49v7.5c0 .13-.02.22-.05.28-.06.35-.22.63-.49.87a1.4 1.4 0 0 1-.96.35h-7.5v7.5c0 .13 0 .22-.04.28a1.48 1.48 0 0 1-1.45 1.22h-9c-.4 0-.75-.15-1.05-.44a1.5 1.5 0 0 1 0-2.12c.3-.3.65-.44 1.06-.44h7.5v-7.5c0-.13 0-.22.04-.28.06-.35.23-.63.51-.87.28-.23.6-.35.94-.35h7.5v-7.5c0-.13 0-.22.04-.28.06-.35.23-.63.51-.87.28-.23.6-.35.94-.35h7.5v-7.5c0-.1 0-.19.04-.28.06-.35.24-.63.52-.87.28-.23.59-.35.93-.35h7.5v-7.5c0-.13.01-.22.04-.28a1.48 1.48 0 0 1 1.45-1.22h9c.4 0 .75.15 1.05.44.3.3.44.65.44 1.06 0 .4-.14.76-.44 1.06-.3.3-.65.44-1.06.44Z" />
      </g>
    </g>
    <g data-object="Сокол__s__2280:460">
      <rect width="136" height="62" y="208" fill="#fff" rx="12" />
      <g>
        <path fill="#000"
          d="M90.45 222h-7.49v7.5c0 .13-.01.22-.04.28a1.48 1.48 0 0 1-1.46 1.22h-7.49v7.5c0 .13-.01.22-.05.28a1.48 1.48 0 0 1-1.45 1.22h-7.49v7.5c0 .13-.02.22-.05.28a1.48 1.48 0 0 1-1.45 1.22h-7.5v7.5c0 .13 0 .22-.04.28A1.48 1.48 0 0 1 54.5 258h-9c-.4 0-.75-.15-1.05-.44a1.5 1.5 0 0 1 0-2.12c.3-.3.65-.44 1.06-.44H53v-7.5c0-.13 0-.22.04-.28.06-.34.23-.63.51-.87.28-.23.6-.35.94-.35h7.5v-7.5c0-.13 0-.22.04-.28.06-.34.23-.63.51-.87.29-.23.6-.35.94-.35h7.5v-7.5c0-.1 0-.19.04-.28.06-.34.23-.63.52-.87.28-.23.59-.35.93-.35h7.5v-7.5c0-.13.01-.22.04-.28a1.48 1.48 0 0 1 1.45-1.22h9c.4 0 .75.15 1.05.44a1.5 1.5 0 0 1 0 2.12c-.3.3-.65.44-1.06.44Z" />
      </g>
    </g>
    <g data-object="Сокол__r__2280:461">
      <path fill="#78B500"
        d="M214 12a12 12 0 0 1 12-12h45a12 12 0 0 1 12 12v137a12 12 0 0 1-12 12h-45a12 12 0 0 1-12-12V12Z" />
      <path fill="#fff"
        d="M225.34 86.35a4.4 4.4 0 0 1-1.9-.4 3.4 3.4 0 0 1-1.34-1.1 3.04 3.04 0 0 1-.53-1.62h1.92c.04.45.23.82.58 1.1a2 2 0 0 0 1.27.42 1.9 1.9 0 0 0 1.75-1c.17-.32.26-.68.25-1.09 0-.4-.08-.77-.26-1.1a1.95 1.95 0 0 0-.73-.75c-.3-.18-.66-.27-1.06-.27-.33 0-.65.05-.97.18-.31.12-.56.29-.75.49l-1.78-.3.57-5.62h6.33v1.65h-4.7l-.31 2.9h.06c.2-.24.5-.44.86-.6a3.36 3.36 0 0 1 4.2 1.5c.3.55.46 1.18.46 1.88a3.54 3.54 0 0 1-1.88 3.25c-.59.32-1.27.48-2.04.48Zm9.73.06c-.87 0-1.63-.22-2.25-.67a4.25 4.25 0 0 1-1.45-1.93 8.3 8.3 0 0 1-.5-3.05c0-1.2.17-2.2.5-3.04.34-.84.82-1.48 1.45-1.92a3.83 3.83 0 0 1 2.25-.66c.88 0 1.63.22 2.26.66.63.44 1.1 1.08 1.44 1.92.34.84.5 1.85.5 3.04s-.16 2.2-.5 3.05a4.16 4.16 0 0 1-1.44 1.93 3.8 3.8 0 0 1-2.26.67Zm0-1.67c.69 0 1.22-.34 1.62-1 .4-.68.6-1.67.6-2.98 0-.87-.1-1.6-.28-2.19a2.9 2.9 0 0 0-.76-1.33c-.34-.3-.73-.45-1.18-.45-.67 0-1.21.34-1.6 1.01-.4.67-.6 1.66-.6 2.96 0 .87.08 1.6.26 2.2.18.58.44 1.03.77 1.33.33.3.72.45 1.17.45Zm5.98 1.46v-1.43l3.78-3.71c.36-.37.67-.7.9-.98.25-.28.43-.55.55-.82.12-.27.18-.55.18-.85 0-.35-.08-.64-.23-.89a1.56 1.56 0 0 0-.65-.57c-.27-.14-.58-.2-.93-.2-.36 0-.67.07-.94.22a1.5 1.5 0 0 0-.63.62 2 2 0 0 0-.22.97h-1.88a3.2 3.2 0 0 1 1.78-3c.56-.28 1.2-.42 1.92-.42.73 0 1.37.14 1.93.41a2.96 2.96 0 0 1 1.75 2.76c0 .4-.08.8-.24 1.2-.15.4-.43.83-.82 1.31-.4.48-.94 1.06-1.65 1.74l-1.88 1.91v.08h4.75v1.65h-7.47Zm14.3-6.25v1.59h-4.92v-1.59h4.91Zm6.03 6.46c-.88 0-1.63-.22-2.26-.67a4.24 4.24 0 0 1-1.44-1.93 8.3 8.3 0 0 1-.5-3.05c0-1.2.17-2.2.5-3.04.34-.84.82-1.48 1.45-1.92a3.82 3.82 0 0 1 2.25-.66c.88 0 1.63.22 2.25.66a4.13 4.13 0 0 1 1.45 1.92c.34.84.5 1.85.5 3.04s-.16 2.2-.5 3.05a4.16 4.16 0 0 1-1.44 1.93c-.63.45-1.38.67-2.26.67Zm0-1.67c.68 0 1.22-.34 1.62-1 .4-.68.6-1.67.6-2.98 0-.87-.1-1.6-.28-2.19a2.9 2.9 0 0 0-.77-1.33c-.33-.3-.72-.45-1.17-.45-.68 0-1.21.34-1.6 1.01-.4.67-.6 1.66-.6 2.96 0 .87.08 1.6.26 2.2.18.58.43 1.03.76 1.33.34.3.73.45 1.18.45Zm5.98 1.46v-1.43l3.78-3.71c.36-.37.67-.7.9-.98.25-.28.43-.55.55-.82.12-.27.18-.55.18-.85 0-.35-.08-.64-.23-.89a1.56 1.56 0 0 0-.65-.57c-.27-.14-.58-.2-.93-.2-.36 0-.67.07-.94.22a1.5 1.5 0 0 0-.63.62c-.15.27-.22.6-.22.97h-1.88a3.2 3.2 0 0 1 1.78-3 4.2 4.2 0 0 1 1.92-.42c.73 0 1.37.14 1.93.41.55.28.98.65 1.28 1.13.31.47.47 1.01.47 1.63 0 .4-.08.8-.24 1.2-.15.4-.43.83-.82 1.31-.4.48-.94 1.06-1.65 1.74l-1.88 1.91v.08h4.75v1.65h-7.47Z" />
    </g>
    <g data-object="Сокол__r__2280:462">
      <path fill="#78B500"
        d="M275 423a12 12 0 0 1 12-12h244a12 12 0 0 1 12 12v110a12 12 0 0 1-12 12H287a12 12 0 0 1-12-12V423Z" />
      <path fill="#fff"
        d="M389.47 490.6a9.38 9.38 0 0 1-4.07-.86 7.25 7.25 0 0 1-2.85-2.36c-.7-1-1.07-2.14-1.12-3.43h4.1a3.2 3.2 0 0 0 1.23 2.34c.75.6 1.65.9 2.7.9a4.07 4.07 0 0 0 3.73-2.15 4.5 4.5 0 0 0 .55-2.3c0-.89-.18-1.67-.56-2.35a4.16 4.16 0 0 0-1.55-1.6c-.66-.4-1.42-.6-2.28-.6-.7 0-1.38.13-2.05.4a4.2 4.2 0 0 0-1.6 1.04l-3.81-.62 1.21-12h13.5v3.52h-10l-.68 6.17h.14c.43-.5 1.04-.93 1.83-1.26a6.45 6.45 0 0 1 2.59-.51 7.16 7.16 0 0 1 6.38 3.72c.64 1.16.96 2.49.96 3.98 0 1.54-.36 2.91-1.07 4.11a7.55 7.55 0 0 1-2.94 2.83 8.92 8.92 0 0 1-4.34 1.03Zm20.76.12a8.14 8.14 0 0 1-4.82-1.42 9.05 9.05 0 0 1-3.08-4.12 17.73 17.73 0 0 1-1.07-6.51c.01-2.54.37-4.7 1.08-6.48a8.9 8.9 0 0 1 3.08-4.1 8.17 8.17 0 0 1 4.8-1.4c1.87 0 3.47.47 4.81 1.4a8.8 8.8 0 0 1 3.09 4.1 17.35 17.35 0 0 1 1.07 6.48c0 2.54-.36 4.71-1.07 6.52a8.87 8.87 0 0 1-3.08 4.11 8.08 8.08 0 0 1-4.81 1.42Zm0-3.56c1.45 0 2.6-.71 3.44-2.14.85-1.44 1.27-3.56 1.27-6.35 0-1.85-.19-3.4-.57-4.66a6.18 6.18 0 0 0-1.64-2.84 3.58 3.58 0 0 0-2.5-.97c-1.45 0-2.6.72-3.43 2.16-.84 1.43-1.27 3.53-1.28 6.3 0 1.86.18 3.42.56 4.69a6.27 6.27 0 0 0 1.64 2.86c.7.64 1.54.96 2.5.96Zm12.97 3.12 9.9-19.6v-.15h-11.5V467h15.86v3.6l-9.89 19.67h-4.37Z" />
    </g>
    <g data-object="Сокол__r__2280:463">
      <path fill="#78B500"
        d="M0 356a12 12 0 0 1 12-12h112a12 12 0 0 1 12 12v177a12 12 0 0 1-12 12H12a12 12 0 0 1-12-12V356Z" />
      <path fill="#fff"
        d="M46.92 456.74a9.38 9.38 0 0 1-4.06-.86 7.25 7.25 0 0 1-2.86-2.36c-.7-1-1.07-2.14-1.11-3.43h4.09c.08.95.49 1.73 1.24 2.34.75.6 1.65.9 2.7.9a4.07 4.07 0 0 0 3.73-2.15c.37-.68.55-1.44.55-2.3 0-.89-.18-1.67-.56-2.35a4.16 4.16 0 0 0-1.56-1.6c-.66-.4-1.41-.6-2.27-.6-.7 0-1.38.13-2.06.4a4.2 4.2 0 0 0-1.6 1.04l-3.8-.63 1.21-12h13.5v3.53H44.05l-.67 6.17h.13a4.87 4.87 0 0 1 1.83-1.26 6.47 6.47 0 0 1 2.6-.51 7.16 7.16 0 0 1 6.38 3.72c.64 1.16.96 2.49.96 3.98 0 1.54-.36 2.9-1.07 4.11a7.56 7.56 0 0 1-2.95 2.83 8.92 8.92 0 0 1-4.34 1.03Zm20.76.12a8.14 8.14 0 0 1-4.81-1.42 9.04 9.04 0 0 1-3.08-4.13 17.73 17.73 0 0 1-1.07-6.5c0-2.54.37-4.7 1.08-6.48a8.9 8.9 0 0 1 3.08-4.1 8.16 8.16 0 0 1 4.8-1.4c1.87 0 3.47.47 4.81 1.4a8.8 8.8 0 0 1 3.08 4.1 17.35 17.35 0 0 1 1.08 6.47c0 2.55-.36 4.72-1.08 6.53a8.87 8.87 0 0 1-3.08 4.11 8.08 8.08 0 0 1-4.8 1.42Zm0-3.56c1.46 0 2.6-.71 3.45-2.14.85-1.44 1.27-3.56 1.27-6.36 0-1.85-.2-3.4-.58-4.66a6.18 6.18 0 0 0-1.64-2.84 3.58 3.58 0 0 0-2.5-.96c-1.44 0-2.59.72-3.43 2.16-.84 1.43-1.26 3.53-1.27 6.3 0 1.86.18 3.42.56 4.69a6.27 6.27 0 0 0 1.63 2.86c.7.64 1.55.95 2.51.95Zm20.83-20.47c1.1 0 2.2.2 3.25.59a7.6 7.6 0 0 1 2.86 1.86 9 9 0 0 1 2.02 3.44c.5 1.44.75 3.22.75 5.34.01 2-.2 3.8-.63 5.37a11.9 11.9 0 0 1-1.83 3.98 8.07 8.07 0 0 1-2.88 2.47 8.25 8.25 0 0 1-3.78.86 8.53 8.53 0 0 1-3.91-.87 7.35 7.35 0 0 1-4.02-5.8h4.14c.22.93.65 1.67 1.3 2.21.66.54 1.49.8 2.49.8 1.61 0 2.85-.7 3.72-2.1.88-1.4 1.31-3.34 1.31-5.84h-.16a5.98 5.98 0 0 1-3.45 2.83 7.1 7.1 0 0 1-2.37.4 7.04 7.04 0 0 1-6.26-3.67 8 8 0 0 1-.95-3.9 8 8 0 0 1 1.04-4.08 7.59 7.59 0 0 1 2.95-2.86 8.7 8.7 0 0 1 4.4-1.03Zm0 3.4a4.17 4.17 0 0 0-3.75 2.22 4.75 4.75 0 0 0 0 4.51 4.14 4.14 0 0 0 3.72 2.2 4.19 4.19 0 0 0 3.1-1.33 4.62 4.62 0 0 0 1.26-3.15c0-.8-.2-1.53-.57-2.2a4.39 4.39 0 0 0-1.54-1.63 4.04 4.04 0 0 0-2.21-.61Z" />
    </g>
    <g data-object="Сокол__r__2280:464">
      <path fill="#78B500"
        d="M285 12a12 12 0 0 1 12-12h90a12 12 0 0 1 12 12v137a12 12 0 0 1-12 12h-90a12 12 0 0 1-12-12V12Z" />
      <path fill="#fff"
        d="M321.58 92.52a9.37 9.37 0 0 1-4.06-.85 7.25 7.25 0 0 1-2.85-2.37c-.7-1-1.07-2.14-1.12-3.43h4.1c.07.95.48 1.74 1.23 2.34.75.6 1.65.9 2.7.9a4.08 4.08 0 0 0 3.73-2.15c.37-.67.56-1.44.55-2.3 0-.88-.18-1.66-.56-2.35a4.16 4.16 0 0 0-1.56-1.6 4.27 4.27 0 0 0-2.27-.59c-.7 0-1.38.12-2.06.39-.67.26-1.2.61-1.6 1.04l-3.8-.62 1.21-12h13.5v3.52h-10.01l-.67 6.17h.14c.43-.5 1.04-.93 1.83-1.26a6.45 6.45 0 0 1 2.59-.51 7.16 7.16 0 0 1 6.38 3.73c.64 1.15.96 2.48.96 3.97 0 1.54-.36 2.91-1.07 4.12a7.55 7.55 0 0 1-2.94 2.83 8.92 8.92 0 0 1-4.35 1.02Zm20.77.12a8.13 8.13 0 0 1-4.82-1.42 9.05 9.05 0 0 1-3.08-4.12 17.74 17.74 0 0 1-1.07-6.51c0-2.54.37-4.7 1.08-6.48a8.91 8.91 0 0 1 3.08-4.1 8.16 8.16 0 0 1 4.8-1.4c1.87 0 3.47.47 4.81 1.4a8.8 8.8 0 0 1 3.08 4.1 17.34 17.34 0 0 1 1.08 6.48c0 2.54-.36 4.72-1.08 6.52a8.88 8.88 0 0 1-3.08 4.11 8.09 8.09 0 0 1-4.8 1.42Zm0-3.55c1.45 0 2.6-.72 3.44-2.15.85-1.44 1.27-3.56 1.27-6.35 0-1.85-.2-3.4-.58-4.66a6.18 6.18 0 0 0-1.63-2.84 3.58 3.58 0 0 0-2.5-.97c-1.45 0-2.6.72-3.44 2.16-.84 1.43-1.26 3.53-1.27 6.3 0 1.86.18 3.42.56 4.69a6.27 6.27 0 0 0 1.63 2.86c.71.64 1.55.96 2.52.96Zm21.09 3.43a10.7 10.7 0 0 1-4.36-.84 7.3 7.3 0 0 1-3-2.34 6.07 6.07 0 0 1-1.17-3.47h4.27c.04.63.25 1.18.62 1.65.38.46.89.82 1.51 1.08.63.26 1.34.38 2.12.38.83 0 1.57-.14 2.21-.43.65-.3 1.15-.7 1.52-1.22.36-.53.54-1.13.53-1.81 0-.7-.17-1.33-.55-1.87-.37-.53-.9-.95-1.6-1.26a6.3 6.3 0 0 0-2.53-.45h-2.06v-3.25h2.06c.8 0 1.52-.14 2.12-.42.62-.28 1.1-.68 1.45-1.18.35-.52.52-1.11.5-1.79a3.1 3.1 0 0 0-.44-1.71 3 3 0 0 0-1.26-1.15 5 5 0 0 0-3.88-.02c-.6.25-1.09.62-1.46 1.1a2.8 2.8 0 0 0-.59 1.68h-4.06a5.9 5.9 0 0 1 1.13-3.43c.73-1 1.7-1.77 2.9-2.32a9.6 9.6 0 0 1 4.09-.84c1.55 0 2.9.3 4.04.87a6.6 6.6 0 0 1 2.68 2.33c.62.98.94 2.06.94 3.24 0 1.31-.38 2.41-1.16 3.3a5.44 5.44 0 0 1-3.05 1.74v.18a5.9 5.9 0 0 1 3.77 1.82c.87.97 1.3 2.19 1.3 3.64 0 1.3-.37 2.47-1.11 3.5a7.38 7.38 0 0 1-3.05 2.41c-1.29.59-2.76.88-4.43.88Z" />
    </g>
    <g data-object="Сокол__r__2280:465">
      <path fill="#78B500"
        d="M0 12A12 12 0 0 1 12 0h112a12 12 0 0 1 12 12v180a12 12 0 0 1-12 12H12a12 12 0 0 1-12-12V12Z" />
      <path fill="#fff"
        d="M49.61 114.73a9.38 9.38 0 0 1-4.07-.86 7.26 7.26 0 0 1-2.85-2.36c-.7-1-1.07-2.14-1.11-3.43h4.09c.07.95.49 1.73 1.24 2.34.75.6 1.65.9 2.7.9a4.08 4.08 0 0 0 3.73-2.15c.37-.67.55-1.44.54-2.3a4.62 4.62 0 0 0-.55-2.35 4.17 4.17 0 0 0-1.56-1.6 4.3 4.3 0 0 0-2.27-.6c-.7 0-1.39.13-2.06.4a4.2 4.2 0 0 0-1.6 1.04l-3.8-.62 1.2-12h13.5v3.52h-10l-.67 6.17h.13c.43-.5 1.04-.93 1.83-1.26a6.46 6.46 0 0 1 2.6-.51 7.17 7.17 0 0 1 6.38 3.72 8.1 8.1 0 0 1 .95 3.98 7.55 7.55 0 0 1-4.01 6.94 8.92 8.92 0 0 1-4.34 1.03Zm20.76.12a8.14 8.14 0 0 1-4.82-1.42 9.04 9.04 0 0 1-3.08-4.12 17.73 17.73 0 0 1-1.06-6.52c0-2.53.36-4.7 1.08-6.47a8.9 8.9 0 0 1 3.08-4.1 8.16 8.16 0 0 1 4.8-1.4c1.87 0 3.47.47 4.8 1.4a8.8 8.8 0 0 1 3.09 4.1 17.35 17.35 0 0 1 1.08 6.48c0 2.54-.36 4.72-1.08 6.52a8.87 8.87 0 0 1-3.08 4.11 8.08 8.08 0 0 1-4.8 1.42Zm0-3.55c1.46 0 2.6-.72 3.45-2.15.84-1.44 1.27-3.56 1.27-6.36 0-1.84-.2-3.4-.58-4.65a6.18 6.18 0 0 0-1.64-2.84 3.58 3.58 0 0 0-2.5-.97c-1.44 0-2.59.72-3.43 2.16-.84 1.43-1.26 3.53-1.27 6.3-.01 1.86.18 3.42.55 4.69a6.27 6.27 0 0 0 1.64 2.86c.7.64 1.54.95 2.51.95Zm22.21-20.16v23.27h-4.22V95.24h-.13l-5.45 3.48v-3.87l5.79-3.71h4.01Z" />
    </g>
    <g data-object="Сокол__r__2283:516">
      <path fill="#78B500"
        d="M403 12a12 12 0 0 1 12-12h116a12 12 0 0 1 12 12v111a12 12 0 0 1-12 12H415a12 12 0 0 1-12-12V12Z" />
      <path fill="#fff"
        d="M452.36 79.93a9.37 9.37 0 0 1-4.06-.86 7.26 7.26 0 0 1-2.86-2.36c-.7-1-1.07-2.14-1.11-3.43h4.09c.07.95.49 1.73 1.24 2.34.75.6 1.65.9 2.7.9a4.07 4.07 0 0 0 3.73-2.15c.37-.67.55-1.44.55-2.3 0-.89-.18-1.67-.56-2.35a4.17 4.17 0 0 0-1.56-1.6c-.66-.4-1.41-.6-2.27-.6-.7 0-1.38.13-2.06.4-.67.26-1.2.6-1.6 1.04l-3.8-.62 1.2-12h13.5v3.52h-10l-.67 6.17h.13a4.8 4.8 0 0 1 1.83-1.26 6.46 6.46 0 0 1 2.6-.51 7.17 7.17 0 0 1 6.38 3.72 8.1 8.1 0 0 1 .95 3.98 7.56 7.56 0 0 1-4.01 6.94 8.92 8.92 0 0 1-4.34 1.03Zm20.76.12a8.14 8.14 0 0 1-4.81-1.42 9.05 9.05 0 0 1-3.08-4.12 17.74 17.74 0 0 1-1.07-6.51c0-2.54.37-4.7 1.08-6.48a8.9 8.9 0 0 1 3.08-4.1 8.16 8.16 0 0 1 4.8-1.4c1.87 0 3.47.47 4.81 1.4a8.8 8.8 0 0 1 3.08 4.1 17.34 17.34 0 0 1 1.08 6.48c0 2.54-.36 4.71-1.08 6.52a8.87 8.87 0 0 1-3.08 4.11 8.08 8.08 0 0 1-4.8 1.42Zm0-3.55c1.46 0 2.6-.72 3.45-2.15.85-1.44 1.27-3.56 1.27-6.35 0-1.85-.2-3.4-.58-4.66a6.17 6.17 0 0 0-1.64-2.84 3.58 3.58 0 0 0-2.5-.97c-1.44 0-2.59.72-3.43 2.16-.84 1.43-1.26 3.53-1.27 6.3 0 1.86.18 3.42.56 4.69a6.27 6.27 0 0 0 1.63 2.86c.7.64 1.54.96 2.51.96Zm20.84 3.43a9.37 9.37 0 0 1-4.07-.86 7.26 7.26 0 0 1-2.85-2.36c-.7-1-1.07-2.14-1.12-3.43h4.1a3.2 3.2 0 0 0 1.23 2.34c.75.6 1.65.9 2.7.9a4.07 4.07 0 0 0 3.73-2.15c.38-.67.56-1.44.55-2.3 0-.89-.18-1.67-.56-2.35a4.16 4.16 0 0 0-1.55-1.6c-.66-.4-1.42-.6-2.28-.6a5.42 5.42 0 0 0-3.65 1.44l-3.81-.62 1.21-12h13.5v3.52h-10l-.68 6.17h.14c.43-.5 1.04-.93 1.83-1.26a6.45 6.45 0 0 1 2.59-.51 7.17 7.17 0 0 1 6.38 3.72c.64 1.16.96 2.49.96 3.98 0 1.54-.36 2.91-1.07 4.11a7.56 7.56 0 0 1-2.94 2.83 8.92 8.92 0 0 1-4.34 1.03Z" />
    </g>
    <g data-object="Сокол__r__2283:519">
      <path fill="#78B500"
        d="M442 152a12 12 0 0 1 12-12h77a12 12 0 0 1 12 12v39a12 12 0 0 1-12 12h-77a12 12 0 0 1-12-12v-39Z" />
      <path fill="#fff"
        d="M471.86 183.14a9.38 9.38 0 0 1-4.07-.86 7.25 7.25 0 0 1-2.85-2.36c-.7-1-1.07-2.14-1.11-3.43h4.09c.07.95.49 1.73 1.24 2.34.75.6 1.65.9 2.7.9a4.07 4.07 0 0 0 3.73-2.15c.37-.67.55-1.44.54-2.3a4.72 4.72 0 0 0-.55-2.35 4.16 4.16 0 0 0-1.56-1.6 4.3 4.3 0 0 0-2.27-.6c-.7 0-1.38.13-2.06.4a4.2 4.2 0 0 0-1.6 1.04l-3.8-.63 1.2-12H479v3.53h-10l-.68 6.17h.14a4.72 4.72 0 0 1 1.83-1.26 6.47 6.47 0 0 1 2.6-.51 7.16 7.16 0 0 1 6.38 3.72c.63 1.16.95 2.49.95 3.98a7.57 7.57 0 0 1-4.01 6.94 8.92 8.92 0 0 1-4.34 1.03Zm20.76.12a8.14 8.14 0 0 1-4.82-1.42 9.05 9.05 0 0 1-3.08-4.13 17.73 17.73 0 0 1-1.06-6.5c0-2.54.36-4.7 1.08-6.48a8.9 8.9 0 0 1 3.07-4.1 8.16 8.16 0 0 1 4.81-1.4c1.87 0 3.47.47 4.8 1.4a8.81 8.81 0 0 1 3.09 4.1 17.37 17.37 0 0 1 1.08 6.47c0 2.55-.36 4.72-1.08 6.53a8.88 8.88 0 0 1-3.08 4.11 8.09 8.09 0 0 1-4.8 1.42Zm0-3.56c1.46 0 2.6-.71 3.44-2.14.85-1.44 1.28-3.56 1.28-6.36 0-1.84-.2-3.4-.58-4.66a6.18 6.18 0 0 0-1.64-2.84 3.58 3.58 0 0 0-2.5-.96c-1.44 0-2.59.72-3.43 2.16-.84 1.43-1.26 3.53-1.27 6.3-.01 1.86.18 3.42.55 4.69a6.27 6.27 0 0 0 1.64 2.86c.7.64 1.54.95 2.51.95Zm12.32-1.2v-3.35l9.88-15.6h2.8v4.77h-1.71l-6.65 10.53v.18h13.78v3.47h-18.1Zm11.1 4.32v-5.34l.05-1.5v-16.44h3.98v23.28h-4.03Z" />
    </g>
    <g data-object="Сокол__r__2280:466">
      <path fill="#78B500"
        d="M142 423a12 12 0 0 1 12-12h105a12 12 0 0 1 12 12v110a12 12 0 0 1-12 12H154a12 12 0 0 1-12-12V423Z" />
      <path fill="#fff"
        d="M186.01 490.6a9.38 9.38 0 0 1-4.06-.86 7.25 7.25 0 0 1-2.86-2.36c-.7-1-1.06-2.14-1.11-3.43h4.1a3.2 3.2 0 0 0 1.23 2.34c.75.6 1.65.9 2.7.9a4.08 4.08 0 0 0 3.73-2.15c.37-.68.55-1.44.55-2.3 0-.89-.18-1.67-.56-2.35a4.16 4.16 0 0 0-1.56-1.6c-.66-.4-1.41-.6-2.27-.6-.7 0-1.38.13-2.06.4a4.2 4.2 0 0 0-1.6 1.04l-3.8-.62 1.21-12h13.5v3.52h-10.01l-.67 6.17h.13c.44-.5 1.05-.93 1.83-1.26a6.46 6.46 0 0 1 2.6-.51 7.16 7.16 0 0 1 6.38 3.72c.64 1.16.96 2.49.96 3.98 0 1.54-.36 2.91-1.07 4.11a7.56 7.56 0 0 1-2.95 2.83 8.92 8.92 0 0 1-4.34 1.03Zm20.77.12a8.14 8.14 0 0 1-4.82-1.42 9.05 9.05 0 0 1-3.08-4.12 17.73 17.73 0 0 1-1.07-6.51c0-2.54.37-4.7 1.08-6.48a8.9 8.9 0 0 1 3.08-4.1 8.16 8.16 0 0 1 4.8-1.4c1.87 0 3.47.47 4.81 1.4a8.8 8.8 0 0 1 3.08 4.1 17.37 17.37 0 0 1 1.08 6.48c0 2.54-.36 4.71-1.08 6.52a8.87 8.87 0 0 1-3.08 4.11 8.08 8.08 0 0 1-4.8 1.42Zm0-3.56c1.45 0 2.6-.71 3.44-2.14.85-1.44 1.27-3.56 1.27-6.35 0-1.85-.2-3.4-.58-4.66a6.18 6.18 0 0 0-1.63-2.84 3.58 3.58 0 0 0-2.5-.97c-1.45 0-2.6.72-3.44 2.16-.84 1.43-1.26 3.53-1.27 6.3 0 1.86.18 3.42.56 4.69a6.26 6.26 0 0 0 1.63 2.86c.7.64 1.55.96 2.52.96Zm21.01 3.44c-1.69 0-3.19-.29-4.5-.86a7.5 7.5 0 0 1-3.07-2.32 5.5 5.5 0 0 1-1.09-3.38c0-.98.2-1.88.64-2.7a6 6 0 0 1 4.22-3.1v-.16a4.92 4.92 0 0 1-2.9-1.82 5.28 5.28 0 0 1-1.1-3.33c0-1.2.33-2.27 1-3.2a6.82 6.82 0 0 1 2.78-2.22 9.44 9.44 0 0 1 4.02-.82c1.5 0 2.82.27 3.99.82a6.82 6.82 0 0 1 2.77 2.21c.68.94 1.02 2 1.02 3.2a5.3 5.3 0 0 1-1.12 3.34 4.91 4.91 0 0 1-2.88 1.82v.16a6 6 0 0 1 4.86 5.8 5.5 5.5 0 0 1-1.1 3.38 7.5 7.5 0 0 1-3.08 2.32c-1.29.57-2.78.86-4.46.86Zm0-3.25a5.4 5.4 0 0 0 2.27-.45c.65-.3 1.15-.72 1.5-1.27a3.53 3.53 0 0 0-.03-3.85 3.8 3.8 0 0 0-1.54-1.35 4.81 4.81 0 0 0-2.2-.5c-.83 0-1.58.17-2.23.5a3.9 3.9 0 0 0-1.54 1.35 3.45 3.45 0 0 0-.55 1.96 3.31 3.31 0 0 0 2.02 3.15c.66.3 1.42.46 2.3.46Zm0-10.6a4 4 0 0 0 1.89-.44 3.29 3.29 0 0 0 1.8-2.99 3.37 3.37 0 0 0-.49-1.75c-.3-.5-.74-.9-1.3-1.17a4.17 4.17 0 0 0-1.9-.42 4.3 4.3 0 0 0-1.94.42 3.08 3.08 0 0 0-1.74 2.92c-.01.68.14 1.27.45 1.79a3.58 3.58 0 0 0 3.23 1.63Z" />
    </g>
    <g data-object="Сокол__r__2280:467">
      <path fill="#78B500"
        d="M403 350a12 12 0 0 1 12-12h116a12 12 0 0 1 12 12v43a12 12 0 0 1-12 12H415a12 12 0 0 1-12-12v-43Z" />
      <path fill="#fff"
        d="M452.61 383.46a9.37 9.37 0 0 1-4.06-.85 7.26 7.26 0 0 1-2.86-2.37c-.7-1-1.07-2.14-1.11-3.43h4.09c.07.95.49 1.73 1.24 2.34.75.6 1.65.9 2.7.9a4.07 4.07 0 0 0 3.73-2.15c.37-.67.55-1.44.55-2.3 0-.89-.18-1.67-.56-2.35a4.17 4.17 0 0 0-1.56-1.6 4.35 4.35 0 0 0-2.27-.59c-.7 0-1.38.12-2.06.39-.67.26-1.2.61-1.6 1.04l-3.8-.62 1.2-12h13.5v3.52h-10l-.67 6.17h.13a4.8 4.8 0 0 1 1.83-1.26 6.46 6.46 0 0 1 2.6-.51 7.16 7.16 0 0 1 6.38 3.72 8.1 8.1 0 0 1 .95 3.98 7.57 7.57 0 0 1-4.01 6.94 8.93 8.93 0 0 1-4.34 1.03Zm20.76.12a8.14 8.14 0 0 1-4.81-1.42 9.06 9.06 0 0 1-3.08-4.12 17.74 17.74 0 0 1-1.07-6.52c0-2.53.37-4.7 1.08-6.47a8.9 8.9 0 0 1 3.08-4.1 8.17 8.17 0 0 1 4.8-1.4c1.87 0 3.47.47 4.81 1.4a8.8 8.8 0 0 1 3.08 4.1 17.34 17.34 0 0 1 1.08 6.47c0 2.55-.36 4.73-1.08 6.53a8.87 8.87 0 0 1-3.08 4.11 8.08 8.08 0 0 1-4.8 1.42Zm0-3.56c1.46 0 2.6-.71 3.45-2.14.85-1.44 1.27-3.56 1.27-6.36 0-1.84-.2-3.4-.58-4.65a6.18 6.18 0 0 0-1.64-2.85 3.59 3.59 0 0 0-2.5-.96c-1.44 0-2.59.72-3.43 2.16-.84 1.43-1.26 3.53-1.27 6.3 0 1.86.18 3.42.56 4.69a6.27 6.27 0 0 0 1.63 2.86c.7.64 1.54.95 2.51.95Zm21.27 3.44a9.82 9.82 0 0 1-3.26-.58 7.69 7.69 0 0 1-2.87-1.88 9.23 9.23 0 0 1-2.02-3.46 16.4 16.4 0 0 1-.74-5.38c0-2 .21-3.77.64-5.33a11.8 11.8 0 0 1 1.83-3.95 8.08 8.08 0 0 1 2.87-2.48 8.3 8.3 0 0 1 3.79-.85 8.5 8.5 0 0 1 3.88.86 7.32 7.32 0 0 1 4.05 5.73h-4.15c-.21-.9-.65-1.6-1.3-2.14a3.76 3.76 0 0 0-2.48-.8c-1.62 0-2.86.7-3.73 2.1-.86 1.4-1.3 3.32-1.3 5.77h.15c.37-.67.85-1.24 1.44-1.71a7.08 7.08 0 0 1 4.38-1.5 6.99 6.99 0 0 1 6.26 3.66c.64 1.14.95 2.44.94 3.92a8.04 8.04 0 0 1-1.04 4.12 7.58 7.58 0 0 1-2.94 2.86 8.84 8.84 0 0 1-4.4 1.04Zm-.02-3.41c.82 0 1.56-.2 2.21-.6a4.41 4.41 0 0 0 2.1-3.93 4.52 4.52 0 0 0-.54-2.26 4.15 4.15 0 0 0-3.72-2.19 4.2 4.2 0 0 0-3.1 1.33 4.61 4.61 0 0 0-.7 5.4c.37.68.88 1.22 1.53 1.63.65.41 1.39.62 2.22.62Z" />
    </g>
    <g data-object="Сокол__t__2280:468">
      <rect width="140" height="61" x="403" y="208" fill="#60A5FA" rx="12" />
      <g fill="#fff" clip-path="url(#a)">
        <path
          d="M473 225a5.25 5.25 0 1 0 0-10.5 5.25 5.25 0 0 0 0 10.5Zm4.5 1.5h-9a6.01 6.01 0 0 0-6 6v10.08a1.9 1.9 0 0 0 1.8 1.92 1.88 1.88 0 0 0 1.95-1.88v-9.34a.77.77 0 0 1 .7-.78.74.74 0 0 1 .74.45c.04.1.06.2.06.3v27.1a2.15 2.15 0 1 0 4.31 0v-13.38a.96.96 0 0 1 .88-.97.93.93 0 0 1 1 .94v13.4a2.15 2.15 0 1 0 4.31 0v-27.06a.77.77 0 0 1 .7-.78.74.74 0 0 1 .74.45c.04.1.06.2.06.3v9.33a1.9 1.9 0 0 0 1.8 1.92 1.88 1.88 0 0 0 1.95-1.88V232.5a6.01 6.01 0 0 0-6-6Z" />
      </g>
    </g>
    <g data-object="Сокол__t__2280:469">
      <rect width="134" height="65" y="273" fill="#60A5FA" rx="12" />
      <g fill="#fff" clip-path="url(#b)">
        <path
          d="M66.98 292a5.25 5.25 0 1 0 0-10.5 5.25 5.25 0 0 0 0 10.5ZM80 307.55l-.97-3.22v-.01l-2.1-7.02h-.01l-.24-.8a4.2 4.2 0 0 0-4.03-3H61.4a4.2 4.2 0 0 0-4.03 3l-.24.8-2.1 7.02-.98 3.23a1.9 1.9 0 0 0 1.18 2.36 1.89 1.89 0 0 0 2.05-.58c.16-.19.28-.41.35-.66l2.4-7.99.2-.68a.75.75 0 0 1 1.28-.23.75.75 0 0 1 .16.63l-4.1 13.67a1.5 1.5 0 0 0 1.44 1.93h2.72v10.75c0 1.55.98 2.75 2.25 2.75 1.26 0 2.25-1.2 2.25-2.75V316h1.5v10.75c0 1.55.98 2.75 2.25 2.75 1.26 0 2.25-1.2 2.25-2.75V316h2.8a1.51 1.51 0 0 0 1.21-.6 1.5 1.5 0 0 0 .24-1.33l-4.1-13.67a.75.75 0 0 1 1.44-.4l.2.68 2.4 8a1.88 1.88 0 0 0 2.4 1.23 1.9 1.9 0 0 0 1.18-2.36Z" />
      </g>
    </g>
    <g data-object="Сокол__r__2280:471">
      <path fill="#78B500"
        d="M139 12a12 12 0 0 1 12-12h48a12 12 0 0 1 12 12v138a12 12 0 0 1-12 12h-48a12 12 0 0 1-12-12V12Z" />
      <path fill="#fff"
        d="M153.83 93.85a9.37 9.37 0 0 1-4.07-.85 7.25 7.25 0 0 1-2.85-2.37c-.7-1-1.07-2.14-1.11-3.43h4.09c.08.96.49 1.74 1.24 2.34.75.6 1.65.9 2.7.9a4.07 4.07 0 0 0 3.73-2.15c.37-.67.55-1.44.54-2.3a4.67 4.67 0 0 0-.55-2.35 4.17 4.17 0 0 0-1.56-1.6 4.3 4.3 0 0 0-2.27-.59c-.7 0-1.38.12-2.06.39a4.2 4.2 0 0 0-1.6 1.04l-3.8-.62 1.2-12h13.5v3.52h-10l-.67 6.17h.13c.44-.5 1.05-.93 1.83-1.26a6.45 6.45 0 0 1 2.6-.51 7.16 7.16 0 0 1 6.38 3.73c.64 1.15.95 2.48.95 3.97 0 1.54-.35 2.91-1.06 4.12a7.55 7.55 0 0 1-2.95 2.83 8.92 8.92 0 0 1-4.34 1.02Zm20.76.12a8.14 8.14 0 0 1-4.81-1.42 9.05 9.05 0 0 1-3.08-4.12 17.74 17.74 0 0 1-1.07-6.51c0-2.54.37-4.7 1.08-6.48a8.9 8.9 0 0 1 3.08-4.1 8.16 8.16 0 0 1 4.8-1.4c1.87 0 3.47.47 4.81 1.4a8.8 8.8 0 0 1 3.08 4.1 17.34 17.34 0 0 1 1.08 6.48c0 2.54-.36 4.72-1.08 6.52a8.87 8.87 0 0 1-3.08 4.11 8.08 8.08 0 0 1-4.8 1.42Zm0-3.55c1.46 0 2.6-.72 3.45-2.15.84-1.44 1.27-3.56 1.27-6.35 0-1.85-.2-3.4-.58-4.66a6.18 6.18 0 0 0-1.64-2.84 3.58 3.58 0 0 0-2.5-.97c-1.44 0-2.59.72-3.43 2.16-.84 1.43-1.26 3.53-1.27 6.3 0 1.86.18 3.42.56 4.69a6.27 6.27 0 0 0 1.63 2.86c.7.64 1.54.96 2.51.96Zm12.75 3.11v-3.05l8.07-7.92c.78-.78 1.42-1.47 1.94-2.08.51-.6.9-1.19 1.16-1.76.25-.56.38-1.17.38-1.81 0-.74-.16-1.37-.5-1.9a3.38 3.38 0 0 0-1.37-1.22 4.44 4.44 0 0 0-2-.43 4.1 4.1 0 0 0-2 .48c-.58.3-1.03.75-1.34 1.33a4.27 4.27 0 0 0-.47 2.05h-4.01a6.82 6.82 0 0 1 3.8-6.39c1.18-.6 2.55-.9 4.09-.9 1.56 0 2.93.3 4.1.88a6.71 6.71 0 0 1 2.76 2.4c.66 1.02.99 2.18.99 3.48a6.9 6.9 0 0 1-.5 2.57 10.9 10.9 0 0 1-1.76 2.8 44.4 44.4 0 0 1-3.52 3.7l-4 4.09V90h10.13v3.52h-15.95Z" />
    </g>
    <g data-object="Сокол__e__2372:813">
      <rect width="94" height="123" x="280" y="212" fill="#fff" rx="12" />
      <g>
        <g>
          <mask id="c" fill="#fff">
            <path
              d="M303 243.5a3 3 0 0 1 3-3h42a3 3 0 0 1 3 3v59a3 3 0 0 1-3 3h-42a3 3 0 0 1-3-3v-59Z" />
          </mask>
          <path fill="#000"
            d="M300 243.5a6 6 0 0 1 6-6h52a6 6 0 0 1 6 6h-64Zm64 59a6 6 0 0 1-6 6h-52a6 6 0 0 1-6-6h64Zm-58 6a6 6 0 0 1-6-6v-59a6 6 0 0 1 6-6v71Zm52-71a6 6 0 0 1 6 6v59a6 6 0 0 1-6 6l-20-6v-59l20-6Z"
            mask="url(#c)" />
        </g>
        <path fill="#fff"
          d="m342.71 267.7.8-.8v4.6a1 1 0 1 0 1.99 0v-4.6l.79.8a.99.99 0 0 0 1.09.23 1 1 0 0 0 .32-1.64l-2.5-2.5a.87.87 0 0 0-.32-.22 1 1 0 0 0-.76 0 1 1 0 0 0-.33.22l-2.5 2.5a1 1 0 0 0 1.42 1.42Zm3.58 11.59-.8.8v-4.6a1 1 0 1 0-1.99 0v4.6l-.79-.8a1.01 1.01 0 0 0-1.1-.22 1.01 1.01 0 0 0-.53 1.31c.05.13.12.24.21.33l2.5 2.5c.1.1.2.16.33.21a.93.93 0 0 0 .76 0c.12-.05.23-.12.33-.21l2.5-2.5a1 1 0 0 0-1.42-1.42Z" />
        <path fill="#000"
          d="M321.5 261a5.25 5.25 0 1 0 0-10.5 5.25 5.25 0 0 0 0 10.5Zm4.5 0h-9a6.01 6.01 0 0 0-6 6v10.08a1.9 1.9 0 0 0 1.8 1.92 1.88 1.88 0 0 0 1.95-1.88v-9.35a.77.77 0 0 1 .7-.77.74.74 0 0 1 .74.45c.04.1.06.2.06.3v27.1a2.15 2.15 0 1 0 4.31 0v-13.38a.96.96 0 0 1 .88-.97.93.93 0 0 1 1 .94v13.4a2.15 2.15 0 1 0 4.31 0v-27.06a.77.77 0 0 1 .7-.78.74.74 0 0 1 .74.45c.04.1.06.2.06.3v9.33a1.9 1.9 0 0 0 1.8 1.92 1.88 1.88 0 0 0 1.95-1.88V267a6.01 6.01 0 0 0-6-6Z" />
      </g>
    </g>
  </g>
  <defs>
    <clipPath id="a">
      <path fill="#fff" d="M449 214.5h48v48h-48z" />
    </clipPath>
    <clipPath id="b">
      <path fill="#fff" d="M43 281.5h48v48H43z" />
    </clipPath>
  </defs>
</svg>