<svg xmlns="http://www.w3.org/2000/svg" width="748" height="574" fill="none" viewBox="0 0 748 574">
  <g>
    <g>
      <path fill="#262A34"
        d="M136 382a6 6 0 0 0 6 6h37.25a2.75 2.75 0 1 1 0 5.5H142a6 6 0 0 0-6 6v60a6 6 0 0 0 6 6h109.5a6 6 0 0 0 6-6v-60a6 6 0 0 0-6-6h-45.25a2.75 2.75 0 1 1 0-5.5H607a6 6 0 0 0 6-6V226.75a2.75 2.75 0 1 1 5.5 0v.5c0 1.8 1.46 3.25 3.25 3.25H736a6 6 0 0 0 6-6V206a6 6 0 0 0-6-6H622.75a4.25 4.25 0 0 0-4.25 4.25v1.5a2.75 2.75 0 1 1-5.5 0V201a6 6 0 0 0-6-6H180a6 6 0 0 1-6-6v-47.5a6 6 0 0 0-6-6h-26a6 6 0 0 0-6 6V382Z" />
    </g>
    <rect width="19" height="22" x="122" y="208" fill="#262A34" rx="3" />
    <g>
      <rect width="20" height="15" x="121" y="157" fill="#262A34" rx="3" />
    </g>
    <g>
      <rect width="23" height="15" x="472" y="175" fill="#262A34" rx="3"
        transform="rotate(90 472 175)" />
    </g>
    <g>
      <rect width="28" height="15" x="534" y="172" fill="#262A34" rx="3"
        transform="rotate(90 534 172)" />
    </g>
    <g>
      <rect width="28" height="15" x="598" y="378" fill="#262A34" rx="3"
        transform="rotate(90 598 378)" />
    </g>
    <g>
      <rect width="28" height="15" x="196" y="458" fill="#262A34" rx="3"
        transform="rotate(90 196 458)" />
    </g>
    <g>
      <rect width="28" height="15" x="117" y="408" fill="#262A34" rx="3" />
    </g>
    <g>
      <rect width="28" height="15" x="245" y="408" fill="#262A34" rx="3" />
    </g>
    <g>
      <rect width="20" height="15" x="162" y="126" fill="#262A34" rx="3"
        transform="rotate(90 162 126)" />
    </g>
    <g data-object="Сокол__t__2385:731">
      <rect width="48" height="57" x="489" y="286" fill="#60A5FA" rx="12"
        transform="rotate(90 489 286)" />
      <g fill="#fff" clip-path="url(#a)">
        <path
          d="M474 310a5.25 5.25 0 1 0 10.5 0 5.25 5.25 0 0 0-10.5 0Zm-1.5 4.5v-9a6.01 6.01 0 0 0-6-6h-10.08a1.9 1.9 0 0 0-1.92 1.8 1.88 1.88 0 0 0 1.88 1.95h9.35a.77.77 0 0 1 .77.7.74.74 0 0 1-.45.74.8.8 0 0 1-.3.06h-27.1a2.15 2.15 0 1 0 0 4.31h13.38a.96.96 0 0 1 .97.88.93.93 0 0 1-.94 1h-13.4a2.15 2.15 0 1 0 0 4.31h27.06a.77.77 0 0 1 .78.7.74.74 0 0 1-.45.74.8.8 0 0 1-.3.06h-9.33a1.9 1.9 0 0 0-1.92 1.8 1.88 1.88 0 0 0 1.88 1.95h10.12a6.01 6.01 0 0 0 6-6Z" />
      </g>
    </g>
    <g data-object="Сокол__t__2385:726">
      <rect width="48" height="57" x="489" y="235" fill="#60A5FA" rx="12"
        transform="rotate(90 489 235)" />
      <g fill="#fff" clip-path="url(#b)">
        <path
          d="M474 258.98a5.25 5.25 0 1 0 10.5 0 5.25 5.25 0 0 0-10.5 0ZM458.45 272l3.22-.97h.01l7.02-2.1v-.01l.8-.24a4.2 4.2 0 0 0 3-4.03V253.4a4.2 4.2 0 0 0-3-4.03l-.8-.24-7.02-2.1-3.23-.98a1.87 1.87 0 1 0-1.12 3.58l7.99 2.4.68.2a.75.75 0 0 1 .48.83.75.75 0 0 1-.73.63.7.7 0 0 1-.15-.02l-13.67-4.1a1.48 1.48 0 0 0-1.32.24 1.5 1.5 0 0 0-.61 1.2v2.72h-10.75c-1.55 0-2.75.98-2.75 2.25 0 1.26 1.2 2.25 2.75 2.25H450v1.5h-10.75c-1.55 0-2.75.98-2.75 2.25 0 1.26 1.2 2.25 2.75 2.25H450v2.8a1.51 1.51 0 0 0 .6 1.21 1.5 1.5 0 0 0 1.33.24l13.67-4.1.15-.02a.75.75 0 0 1 .74.63.75.75 0 0 1-.5.83l-.67.2-8 2.4a1.87 1.87 0 0 0-1.23 2.4 1.9 1.9 0 0 0 2.36 1.18Z" />
      </g>
    </g>
    <g data-object="Сокол__s__2385:705">
      <rect width="129" height="170" y="204" fill="#fff" rx="12" />
      <g clip-path="url(#c)">
        <path fill="#000"
          d="M86.95 272h-7.49v7.5c0 .13-.01.22-.04.28a1.48 1.48 0 0 1-1.46 1.22h-7.49v7.5c0 .13-.01.22-.05.28a1.48 1.48 0 0 1-1.45 1.22h-7.49v7.5c0 .13-.02.22-.05.28a1.48 1.48 0 0 1-1.45 1.22h-7.5v7.5c0 .13 0 .22-.04.28A1.48 1.48 0 0 1 51 308h-9c-.4 0-.75-.15-1.05-.44a1.5 1.5 0 0 1 0-2.12c.3-.3.65-.44 1.06-.44h7.5v-7.5c0-.13 0-.22.04-.28.06-.35.23-.63.51-.87.28-.23.6-.35.94-.35h7.5v-7.5c0-.13 0-.22.04-.28.06-.35.23-.63.51-.87.29-.23.6-.35.94-.35h7.5v-7.5c0-.1 0-.19.04-.28.06-.35.23-.63.52-.87.28-.23.59-.35.93-.35h7.5v-7.5c0-.13.01-.22.04-.28a1.48 1.48 0 0 1 1.45-1.22h9c.4 0 .75.15 1.05.44a1.5 1.5 0 0 1 0 2.12c-.3.3-.65.44-1.06.44Z" />
      </g>
    </g>
    <g data-object="Сокол__s__2385:708">
      <rect width="124" height="131" x="620" y="240" fill="#fff" rx="12" />
      <g>
        <path fill="#000"
          d="M704.46 288.5h-7.5v7.5c0 .13-.01.22-.05.28a1.47 1.47 0 0 1-1.45 1.22h-7.49v7.5c0 .13-.01.22-.05.28a1.48 1.48 0 0 1-1.45 1.22h-7.49v7.5c0 .13-.02.22-.05.28-.06.35-.22.63-.49.87a1.4 1.4 0 0 1-.96.35h-7.5v7.5c0 .13 0 .22-.04.28a1.48 1.48 0 0 1-1.45 1.22h-9c-.4 0-.75-.15-1.04-.44-.3-.3-.45-.65-.45-1.06 0-.4.15-.76.45-1.06.3-.3.64-.44 1.05-.44h7.5V314c0-.13 0-.22.04-.28.06-.35.23-.63.51-.87.28-.23.6-.35.94-.35h7.5V305c0-.13 0-.22.04-.28.06-.35.23-.63.51-.87.29-.23.6-.35.94-.35h7.5V296c0-.1 0-.19.04-.28.06-.35.24-.63.52-.87.28-.23.59-.35.93-.35h7.5V287c0-.13.01-.22.04-.28a1.48 1.48 0 0 1 1.45-1.22h9c.4 0 .75.15 1.05.44a1.5 1.5 0 0 1 0 2.12c-.3.3-.65.44-1.05.44Z" />
      </g>
    </g>
    <g data-object="Сокол__r__2384:628">
      <path fill="#78B500"
        d="M0 14A12 12 0 0 1 12 2h105a12 12 0 0 1 12 12v165a12 12 0 0 1-12 12H12a12 12 0 0 1-12-12V14Z" />
      <path fill="#fff"
        d="M23.26 108.45V85.18h8.9c1.7 0 3.09.26 4.2.8a5.6 5.6 0 0 1 2.51 2.14c.56.91.84 1.94.84 3.1a4.59 4.59 0 0 1-2.01 4.06 6.2 6.2 0 0 1-2.05.89v.23a5.28 5.28 0 0 1 4.25 2.7c.48.82.72 1.83.72 3.01 0 1.2-.29 2.29-.87 3.25a5.95 5.95 0 0 1-2.64 2.26 10.4 10.4 0 0 1-4.43.83h-9.42Zm4.22-3.52H32c1.53 0 2.63-.3 3.3-.88a2.87 2.87 0 0 0 1.03-2.27 3.48 3.48 0 0 0-1.97-3.18 4.83 4.83 0 0 0-2.25-.49h-4.64v6.82Zm0-9.85h4.17a4.7 4.7 0 0 0 1.96-.4 3.07 3.07 0 0 0 1.89-2.92c0-.9-.32-1.64-.96-2.23-.62-.58-1.56-.87-2.8-.87h-4.26v6.42Zm26.05-9.9v23.27h-4.22V89.28h-.13l-5.45 3.48V88.9l5.79-3.72h4.01Zm14.51 23.71a8.14 8.14 0 0 1-4.82-1.42 9.05 9.05 0 0 1-3.08-4.12 17.73 17.73 0 0 1-1.06-6.51c0-2.54.36-4.7 1.07-6.48a8.9 8.9 0 0 1 3.08-4.09 8.16 8.16 0 0 1 4.81-1.4c1.86 0 3.47.46 4.8 1.4a8.8 8.8 0 0 1 3.09 4.1A17.35 17.35 0 0 1 77 96.83c0 2.54-.36 4.72-1.08 6.52a8.87 8.87 0 0 1-3.08 4.11 8.08 8.08 0 0 1-4.8 1.42Zm0-3.55c1.46 0 2.6-.72 3.44-2.15.85-1.44 1.28-3.56 1.28-6.35 0-1.85-.2-3.4-.58-4.66a6.18 6.18 0 0 0-1.64-2.84 3.58 3.58 0 0 0-2.5-.97c-1.45 0-2.59.72-3.43 2.16-.84 1.43-1.27 3.54-1.27 6.3-.01 1.86.17 3.42.55 4.69a6.27 6.27 0 0 0 1.64 2.86c.7.64 1.54.96 2.51.96Zm23.37-10.22v3.39H80.93v-3.39h10.48Zm13.75-9.94v23.27h-4.22V89.28h-.14l-5.44 3.48V88.9l5.78-3.72h4.02Z" />
    </g>
    <g data-object="Сокол__r__2385:650">
      <path fill="#78B500"
        d="M377 14a12 12 0 0 1 12-12h91a12 12 0 0 1 12 12v152a12 12 0 0 1-12 12h-91a12 12 0 0 1-12-12V14Z" />
      <path fill="#fff"
        d="M390.22 102.16V78.88h8.91a9.8 9.8 0 0 1 4.2.8 5.6 5.6 0 0 1 2.5 2.15c.57.9.85 1.94.85 3.09a4.58 4.58 0 0 1-2.01 4.06 6.2 6.2 0 0 1-2.06.9v.22a5.28 5.28 0 0 1 4.25 2.7c.48.83.73 1.83.73 3.02 0 1.2-.3 2.28-.88 3.25a5.95 5.95 0 0 1-2.64 2.26 10.4 10.4 0 0 1-4.43.83h-9.42Zm4.22-3.53h4.53c1.53 0 2.63-.29 3.3-.87a2.87 2.87 0 0 0 1.03-2.27 3.48 3.48 0 0 0-1.96-3.19 4.83 4.83 0 0 0-2.25-.48h-4.65v6.81Zm0-9.85h4.17a4.7 4.7 0 0 0 1.96-.4 3.07 3.07 0 0 0 1.89-2.92c0-.9-.32-1.64-.95-2.22-.63-.59-1.57-.88-2.81-.88h-4.26v6.42Zm26.05-9.9v23.28h-4.21V82.99h-.14l-5.44 3.47V82.6l5.78-3.72h4.01ZM435 102.6a8.14 8.14 0 0 1-4.81-1.42 9.04 9.04 0 0 1-3.08-4.13 17.74 17.74 0 0 1-1.07-6.5c0-2.55.36-4.7 1.08-6.48a8.9 8.9 0 0 1 3.08-4.1 8.16 8.16 0 0 1 4.8-1.4c1.87 0 3.47.47 4.81 1.4a8.8 8.8 0 0 1 3.08 4.1 17.34 17.34 0 0 1 1.08 6.47c0 2.55-.36 4.72-1.08 6.53a8.87 8.87 0 0 1-3.08 4.1 8.08 8.08 0 0 1-4.8 1.43Zm0-3.56c1.46 0 2.6-.71 3.45-2.14.85-1.44 1.27-3.56 1.27-6.36 0-1.85-.2-3.4-.58-4.66a6.18 6.18 0 0 0-1.64-2.84 3.58 3.58 0 0 0-2.5-.96c-1.44 0-2.59.72-3.43 2.16-.84 1.43-1.26 3.53-1.27 6.3 0 1.86.18 3.42.56 4.68a6.27 6.27 0 0 0 1.63 2.87c.7.63 1.54.95 2.51.95Zm23.37-10.21v3.38h-10.48v-3.38h10.48Zm12.42 13.64c-1.64 0-3.1-.28-4.37-.84a7.3 7.3 0 0 1-3-2.34 6.06 6.06 0 0 1-1.17-3.46h4.27c.04.63.25 1.17.63 1.64s.88.83 1.51 1.08c.63.26 1.33.4 2.11.4.84 0 1.58-.15 2.22-.44.64-.3 1.15-.7 1.51-1.23.36-.52.54-1.12.54-1.8 0-.71-.18-1.33-.55-1.87a3.62 3.62 0 0 0-1.61-1.26 6.4 6.4 0 0 0-2.53-.45h-2.05v-3.25h2.05c.81 0 1.52-.15 2.13-.43.61-.28 1.1-.67 1.44-1.18.35-.51.52-1.1.51-1.78a3.1 3.1 0 0 0-.44-1.72 3 3 0 0 0-1.26-1.14 5 5 0 0 0-3.88-.02c-.6.25-1.1.62-1.46 1.1a2.8 2.8 0 0 0-.6 1.68h-4.05c.03-1.3.4-2.45 1.12-3.44a7.27 7.27 0 0 1 2.91-2.31 9.6 9.6 0 0 1 4.08-.84c1.56 0 2.9.29 4.05.87a6.6 6.6 0 0 1 2.67 2.33c.63.98.94 2.06.94 3.24a4.8 4.8 0 0 1-1.16 3.3 5.44 5.44 0 0 1-3.04 1.73v.18a5.9 5.9 0 0 1 3.76 1.82 5.2 5.2 0 0 1 1.3 3.65c0 1.3-.37 2.47-1.1 3.5a7.4 7.4 0 0 1-3.05 2.41c-1.3.58-2.77.88-4.44.88Z" />
    </g>
    <g data-object="Сокол__r__2385:653">
      <path fill="#78B500"
        d="M497 14a12 12 0 0 1 12-12h223a12 12 0 0 1 12 12v150a12 12 0 0 1-12 12H509a12 12 0 0 1-12-12V14Z" />
      <path fill="#fff"
        d="M575.63 101.5V78.22h8.9c1.69 0 3.08.27 4.2.8a5.6 5.6 0 0 1 2.5 2.15c.57.9.85 1.94.85 3.09a4.58 4.58 0 0 1-2.01 4.06c-.61.41-1.3.71-2.06.9v.22a5.28 5.28 0 0 1 4.25 2.7c.49.83.73 1.83.73 3.01 0 1.2-.3 2.3-.88 3.25a5.95 5.95 0 0 1-2.63 2.27 10.4 10.4 0 0 1-4.43.83h-9.42Zm4.21-3.53h4.53c1.54 0 2.64-.29 3.31-.87a2.87 2.87 0 0 0 1.03-2.27 3.49 3.49 0 0 0-1.97-3.19 4.83 4.83 0 0 0-2.25-.49h-4.65v6.82Zm0-9.85h4.17a4.7 4.7 0 0 0 1.97-.4 3.07 3.07 0 0 0 1.89-2.92c0-.9-.32-1.64-.96-2.22-.63-.59-1.56-.88-2.8-.88h-4.27v6.42Zm26.05-9.9v23.28h-4.21V82.33h-.14l-5.44 3.47v-3.86l5.78-3.72h4.01Zm14.52 23.72a8.14 8.14 0 0 1-4.82-1.42 9.05 9.05 0 0 1-3.08-4.13 17.74 17.74 0 0 1-1.07-6.5c0-2.55.37-4.7 1.08-6.49a8.9 8.9 0 0 1 3.08-4.09 8.16 8.16 0 0 1 4.8-1.4c1.87 0 3.47.46 4.81 1.4a8.8 8.8 0 0 1 3.08 4.1 17.34 17.34 0 0 1 1.08 6.47c0 2.55-.36 4.72-1.08 6.52a8.87 8.87 0 0 1-3.08 4.12 8.08 8.08 0 0 1-4.8 1.42Zm0-3.56c1.45 0 2.6-.71 3.44-2.15.85-1.44 1.27-3.55 1.27-6.35 0-1.85-.2-3.4-.58-4.66a6.18 6.18 0 0 0-1.63-2.84 3.58 3.58 0 0 0-2.5-.96c-1.45 0-2.6.72-3.43 2.16-.85 1.43-1.27 3.53-1.28 6.3 0 1.86.18 3.42.56 4.68a6.27 6.27 0 0 0 1.63 2.87c.71.63 1.55.95 2.52.95Zm23.36-10.21v3.38H633.3v-3.38h10.47Zm3.86 9v-3.34l9.88-15.6h2.8V83h-1.71l-6.65 10.53v.18h13.79v3.47h-18.1Zm11.1 4.33v-5.35l.05-1.5V78.22h3.98v23.28h-4.02Z" />
    </g>
    <g data-object="Сокол__r__2385:660">
      <path fill="#78B500"
        d="M373 409a12 12 0 0 1 12-12h351a12 12 0 0 1 12 12v153a12 12 0 0 1-12 12H385a12 12 0 0 1-12-12V409Z" />
      <path fill="#fff"
        d="M517.71 497.49V474.2h8.91a9.8 9.8 0 0 1 4.2.8 5.6 5.6 0 0 1 2.5 2.15c.57.9.85 1.94.85 3.09a4.58 4.58 0 0 1-2.01 4.06 6.2 6.2 0 0 1-2.06.9v.22a5.29 5.29 0 0 1 4.25 2.7c.49.83.73 1.83.73 3.02 0 1.2-.3 2.28-.88 3.25a5.95 5.95 0 0 1-2.63 2.26 10.4 10.4 0 0 1-4.44.83h-9.42Zm4.22-3.53h4.53c1.53 0 2.64-.29 3.31-.87a2.87 2.87 0 0 0 1.02-2.27 3.48 3.48 0 0 0-1.96-3.19 4.83 4.83 0 0 0-2.25-.48h-4.65v6.81Zm0-9.85h4.17a4.7 4.7 0 0 0 1.97-.4 3.07 3.07 0 0 0 1.89-2.92c0-.9-.33-1.64-.96-2.22-.63-.59-1.57-.88-2.8-.88h-4.27v6.42Zm26.05-9.9v23.28h-4.21v-19.17h-.14l-5.44 3.47v-3.86l5.78-3.72h4.01Zm14.51 23.72a8.14 8.14 0 0 1-4.81-1.42 9.05 9.05 0 0 1-3.08-4.13 17.74 17.74 0 0 1-1.07-6.5c0-2.55.37-4.7 1.08-6.48a8.9 8.9 0 0 1 3.08-4.1 8.16 8.16 0 0 1 4.8-1.4c1.87 0 3.47.47 4.81 1.4a8.8 8.8 0 0 1 3.08 4.1 17.36 17.36 0 0 1 1.08 6.47c0 2.55-.36 4.72-1.08 6.53a8.88 8.88 0 0 1-3.08 4.11 8.08 8.08 0 0 1-4.8 1.42Zm0-3.56c1.46 0 2.6-.71 3.45-2.14.85-1.44 1.27-3.56 1.27-6.36 0-1.85-.2-3.4-.58-4.66a6.2 6.2 0 0 0-1.63-2.84 3.58 3.58 0 0 0-2.5-.96c-1.45 0-2.6.72-3.44 2.16-.84 1.43-1.26 3.53-1.27 6.3 0 1.86.18 3.42.56 4.69a6.26 6.26 0 0 0 1.63 2.86c.7.63 1.55.95 2.51.95Zm23.37-10.21v3.38h-10.48v-3.38h10.48Zm12.37 13.64a9.38 9.38 0 0 1-4.06-.85 7.25 7.25 0 0 1-2.86-2.36c-.7-1-1.06-2.14-1.11-3.43h4.1a3.2 3.2 0 0 0 1.23 2.34c.75.6 1.65.9 2.7.9a4.07 4.07 0 0 0 3.73-2.15c.37-.68.55-1.44.55-2.3 0-.89-.18-1.67-.56-2.35a4.17 4.17 0 0 0-1.56-1.6c-.66-.4-1.41-.6-2.27-.6-.7 0-1.38.13-2.06.4a4.2 4.2 0 0 0-1.6 1.04l-3.8-.63 1.21-12h13.5v3.53h-10.01l-.67 6.17h.13a4.87 4.87 0 0 1 1.83-1.26 6.46 6.46 0 0 1 2.6-.51 7.16 7.16 0 0 1 6.38 3.72c.64 1.16.96 2.49.96 3.98 0 1.54-.36 2.9-1.07 4.11a7.54 7.54 0 0 1-2.94 2.83 8.92 8.92 0 0 1-4.35 1.03Z" />
    </g>
    <g data-object="Сокол__r__2385:663">
      <path fill="#78B500"
        d="M0 409a12 12 0 0 1 12-12h107a12 12 0 0 1 12 12v153a12 12 0 0 1-12 12H12a12 12 0 0 1-12-12V409Z" />
      <path fill="#fff"
        d="M20.96 497.49V474.2h8.91a9.8 9.8 0 0 1 4.2.8 5.6 5.6 0 0 1 2.5 2.15c.57.9.85 1.94.85 3.09a4.59 4.59 0 0 1-2.01 4.06 6.2 6.2 0 0 1-2.06.9v.22a5.29 5.29 0 0 1 4.25 2.7c.48.83.73 1.83.73 3.02 0 1.2-.3 2.28-.88 3.25a5.95 5.95 0 0 1-2.63 2.26 10.4 10.4 0 0 1-4.44.83h-9.42Zm4.22-3.53h4.53c1.53 0 2.64-.29 3.31-.87a2.87 2.87 0 0 0 1.02-2.27 3.48 3.48 0 0 0-1.96-3.19 4.83 4.83 0 0 0-2.25-.48h-4.65v6.81Zm0-9.85h4.17a4.7 4.7 0 0 0 1.97-.4 3.07 3.07 0 0 0 1.89-2.92c0-.9-.33-1.64-.96-2.22-.63-.59-1.57-.88-2.8-.88h-4.27v6.42Zm26.05-9.9v23.28h-4.21v-19.17h-.14l-5.44 3.47v-3.86l5.78-3.72h4.01Zm14.52 23.72a8.14 8.14 0 0 1-4.82-1.42 9.05 9.05 0 0 1-3.08-4.13 17.73 17.73 0 0 1-1.07-6.5c0-2.55.37-4.7 1.08-6.48a8.9 8.9 0 0 1 3.08-4.1 8.17 8.17 0 0 1 4.8-1.4c1.87 0 3.47.47 4.81 1.4a8.8 8.8 0 0 1 3.08 4.1 17.35 17.35 0 0 1 1.08 6.47c0 2.55-.36 4.72-1.08 6.53a8.88 8.88 0 0 1-3.08 4.11 8.08 8.08 0 0 1-4.8 1.42Zm0-3.56c1.45 0 2.6-.71 3.44-2.14.85-1.44 1.27-3.56 1.27-6.36 0-1.85-.2-3.4-.58-4.66a6.19 6.19 0 0 0-1.63-2.84 3.58 3.58 0 0 0-2.5-.96c-1.45 0-2.6.72-3.44 2.16-.84 1.43-1.26 3.53-1.27 6.3 0 1.86.18 3.42.56 4.69a6.27 6.27 0 0 0 1.63 2.86c.7.63 1.55.95 2.52.95Zm23.36-10.21v3.38H78.63v-3.38h10.48Zm12.56 13.64c-1.7 0-3.2-.28-4.5-.85a7.49 7.49 0 0 1-3.07-2.33 5.47 5.47 0 0 1-1.1-3.37c0-.98.21-1.88.64-2.7a6 6 0 0 1 4.23-3.1v-.16a4.92 4.92 0 0 1-2.9-1.83 5.28 5.28 0 0 1-1.1-3.32c0-1.2.33-2.27 1-3.21a6.83 6.83 0 0 1 2.77-2.22 9.45 9.45 0 0 1 4.03-.81c1.49 0 2.82.27 3.98.81a6.83 6.83 0 0 1 2.78 2.22c.68.94 1.02 2 1.02 3.2 0 1.26-.38 2.37-1.13 3.33a4.91 4.91 0 0 1-2.87 1.83v.16a6 6 0 0 1 4.86 5.8c0 1.26-.37 2.38-1.11 3.37a7.5 7.5 0 0 1-3.07 2.33c-1.3.57-2.78.86-4.46.86Zm0-3.25c.87 0 1.62-.14 2.27-.44a3.6 3.6 0 0 0 1.5-1.27c.35-.55.54-1.17.54-1.89 0-.74-.2-1.4-.58-1.96a3.8 3.8 0 0 0-1.53-1.36 4.82 4.82 0 0 0-2.2-.48c-.84 0-1.58.16-2.23.49-.65.32-1.17.77-1.55 1.35a3.44 3.44 0 0 0-.54 1.96 3.3 3.3 0 0 0 2.02 3.15c.65.3 1.42.45 2.3.45Zm0-10.6c.7 0 1.34-.14 1.88-.43a3.29 3.29 0 0 0 1.8-2.99 3.37 3.37 0 0 0-.48-1.75c-.31-.5-.74-.9-1.3-1.17a4.18 4.18 0 0 0-1.9-.42 4.3 4.3 0 0 0-1.95.42 3.08 3.08 0 0 0-1.74 2.92c0 .68.15 1.27.46 1.79.32.5.75.9 1.3 1.2.57.29 1.2.43 1.93.43Z" />
    </g>
    <g data-object="Сокол__r__2385:668">
      <path fill="#78B500"
        d="M136 480a12 12 0 0 1 12-12h96a12 12 0 0 1 12 12v82a12 12 0 0 1-12 12h-96a12 12 0 0 1-12-12v-82Z" />
      <path fill="#fff"
        d="M153.2 533.03v-23.28h8.9a9.8 9.8 0 0 1 4.2.8 5.6 5.6 0 0 1 2.5 2.15c.57.9.85 1.94.85 3.09a4.57 4.57 0 0 1-2.01 4.06 6.2 6.2 0 0 1-2.06.9v.22a5.28 5.28 0 0 1 4.25 2.7c.48.83.73 1.83.73 3.01 0 1.21-.3 2.3-.88 3.25a5.95 5.95 0 0 1-2.64 2.27 10.4 10.4 0 0 1-4.43.83h-9.42Zm4.2-3.53h4.54c1.53 0 2.64-.29 3.31-.87a2.87 2.87 0 0 0 1.02-2.27 3.48 3.48 0 0 0-1.96-3.19 4.83 4.83 0 0 0-2.25-.49h-4.65v6.82Zm0-9.85h4.18c.73 0 1.38-.13 1.96-.4a3.07 3.07 0 0 0 1.89-2.92c0-.9-.32-1.64-.95-2.22-.63-.59-1.57-.88-2.81-.88h-4.26v6.42Zm26.06-9.9v23.28h-4.21v-19.17h-.14l-5.44 3.47v-3.86l5.78-3.72h4.01Zm14.51 23.72a8.14 8.14 0 0 1-4.81-1.42 9.05 9.05 0 0 1-3.08-4.13 17.74 17.74 0 0 1-1.07-6.5c0-2.54.37-4.7 1.08-6.49a8.9 8.9 0 0 1 3.08-4.09 8.17 8.17 0 0 1 4.8-1.4c1.87 0 3.47.46 4.81 1.4a8.8 8.8 0 0 1 3.08 4.1 17.36 17.36 0 0 1 1.08 6.47c0 2.55-.36 4.72-1.08 6.52a8.87 8.87 0 0 1-3.08 4.12 8.08 8.08 0 0 1-4.8 1.42Zm0-3.56c1.46 0 2.6-.71 3.45-2.14.85-1.44 1.27-3.56 1.27-6.36 0-1.85-.2-3.4-.58-4.66a6.2 6.2 0 0 0-1.64-2.84 3.58 3.58 0 0 0-2.5-.96c-1.44 0-2.59.72-3.43 2.16-.84 1.43-1.26 3.53-1.27 6.3 0 1.86.18 3.42.56 4.68a6.27 6.27 0 0 0 1.63 2.87c.7.63 1.54.95 2.51.95Zm23.37-10.21v3.38h-10.48v-3.38h10.48Zm4.26 13.33 9.9-19.6v-.15H224v-3.53h15.86v3.6l-9.89 19.68h-4.37Z" />
    </g>
    <g data-object="Сокол__r__2385:671">
      <path fill="#78B500"
        d="M260 409a12 12 0 0 1 12-12h86a12 12 0 0 1 12 12v153a12 12 0 0 1-12 12h-86a12 12 0 0 1-12-12V409Z" />
      <path fill="#fff"
        d="M270.05 497.49V474.2h8.9c1.69 0 3.09.27 4.2.8a5.6 5.6 0 0 1 2.51 2.15c.56.9.84 1.94.84 3.09a4.58 4.58 0 0 1-2.01 4.06 6.2 6.2 0 0 1-2.06.9v.22a5.27 5.27 0 0 1 4.25 2.7c.49.83.73 1.83.73 3.02a6.2 6.2 0 0 1-.87 3.25 5.95 5.95 0 0 1-2.64 2.26 10.4 10.4 0 0 1-4.43.83h-9.42Zm4.21-3.53h4.54c1.53 0 2.63-.29 3.3-.87a2.87 2.87 0 0 0 1.03-2.27 3.48 3.48 0 0 0-1.97-3.19 4.83 4.83 0 0 0-2.25-.48h-4.65v6.81Zm0-9.85h4.17a4.7 4.7 0 0 0 1.97-.4 3.07 3.07 0 0 0 1.89-2.92c0-.9-.32-1.64-.96-2.22-.63-.59-1.56-.88-2.8-.88h-4.27v6.42Zm26.06-9.9v23.28h-4.22v-19.17h-.13l-5.45 3.47v-3.86l5.79-3.72h4Zm14.5 23.72a8.14 8.14 0 0 1-4.8-1.42 9.05 9.05 0 0 1-3.09-4.13 17.72 17.72 0 0 1-1.07-6.5c.01-2.55.37-4.7 1.08-6.48a8.9 8.9 0 0 1 3.08-4.1 8.16 8.16 0 0 1 4.8-1.4c1.87 0 3.48.47 4.82 1.4a8.8 8.8 0 0 1 3.08 4.1 17.36 17.36 0 0 1 1.07 6.47c0 2.55-.36 4.72-1.07 6.53a8.88 8.88 0 0 1-3.08 4.11 8.08 8.08 0 0 1-4.81 1.42Zm0-3.56c1.46 0 2.61-.71 3.45-2.14.85-1.44 1.28-3.56 1.28-6.36 0-1.85-.2-3.4-.58-4.66a6.2 6.2 0 0 0-1.64-2.84 3.58 3.58 0 0 0-2.5-.96c-1.45 0-2.6.72-3.43 2.16-.84 1.43-1.27 3.53-1.27 6.3-.01 1.86.17 3.42.55 4.69a6.26 6.26 0 0 0 1.64 2.86c.7.63 1.54.95 2.5.95Zm23.38-10.21v3.38h-10.48v-3.38h10.48ZM351 497.8c-1.11 0-2.2-.2-3.26-.57a7.68 7.68 0 0 1-2.87-1.88 9.22 9.22 0 0 1-2.02-3.47c-.5-1.44-.74-3.23-.74-5.37 0-2 .22-3.77.64-5.33a11.78 11.78 0 0 1 1.83-3.95 8.07 8.07 0 0 1 2.87-2.48 8.3 8.3 0 0 1 3.79-.85c1.46 0 2.76.28 3.88.86a7.32 7.32 0 0 1 4.05 5.73h-4.15c-.21-.9-.64-1.6-1.3-2.14a3.76 3.76 0 0 0-2.48-.8c-1.62 0-2.86.7-3.73 2.1-.86 1.4-1.3 3.32-1.3 5.77h.15c.38-.67.86-1.24 1.45-1.72a7.05 7.05 0 0 1 4.38-1.5 6.99 6.99 0 0 1 6.25 3.67c.64 1.14.95 2.44.95 3.91 0 1.53-.34 2.9-1.05 4.13a7.59 7.59 0 0 1-2.94 2.86 8.84 8.84 0 0 1-4.4 1.04Zm-.02-3.4a4.14 4.14 0 0 0 3.76-2.23c.38-.68.56-1.45.56-2.3 0-.83-.18-1.58-.55-2.26a4.16 4.16 0 0 0-3.72-2.2 4.19 4.19 0 0 0-3.1 1.34 4.58 4.58 0 0 0 .83 7.03c.65.41 1.4.62 2.22.62Z" />
    </g>
    <g data-object="Сокол__r__6043:2345">
      <path fill="#78B500"
        d="M136 12.47a12 12 0 0 1 12-12h210a12 12 0 0 1 12 12v153.47a12 12 0 0 1-12.06 12l-169.5-.88a12 12 0 0 1-11.94-12V144.5a12 12 0 0 0-12-12H148a12 12 0 0 1-12-12V12.47Z" />
      <path fill="#fff"
        d="M209.26 102.16V78.88h8.9c1.7 0 3.09.27 4.2.8a5.6 5.6 0 0 1 2.51 2.15c.56.9.84 1.94.84 3.09a4.58 4.58 0 0 1-2.01 4.06 6.2 6.2 0 0 1-2.05.9v.22a5.27 5.27 0 0 1 4.25 2.7c.48.83.72 1.83.72 3.02a6.2 6.2 0 0 1-.87 3.25 5.95 5.95 0 0 1-2.64 2.26 10.4 10.4 0 0 1-4.43.83h-9.42Zm4.22-3.53H218c1.53 0 2.63-.29 3.3-.87a2.87 2.87 0 0 0 1.03-2.27 3.48 3.48 0 0 0-1.97-3.19 4.83 4.83 0 0 0-2.25-.48h-4.64v6.81Zm0-9.85h4.17a4.7 4.7 0 0 0 1.96-.4 3.07 3.07 0 0 0 1.89-2.92c0-.9-.32-1.64-.96-2.22-.63-.59-1.56-.88-2.8-.88h-4.26v6.42Zm26.05-9.9v23.28h-4.22V82.99h-.13l-5.45 3.47V82.6l5.79-3.72h4.01Zm14.51 23.72a8.14 8.14 0 0 1-4.82-1.42 9.04 9.04 0 0 1-3.08-4.13 17.71 17.71 0 0 1-1.06-6.5c0-2.55.36-4.7 1.07-6.48a8.9 8.9 0 0 1 3.08-4.1 8.17 8.17 0 0 1 4.81-1.4c1.87 0 3.47.47 4.8 1.4a8.8 8.8 0 0 1 3.09 4.1 17.36 17.36 0 0 1 1.08 6.47c0 2.55-.36 4.72-1.08 6.53a8.87 8.87 0 0 1-3.08 4.1 8.08 8.08 0 0 1-4.8 1.43Zm0-3.56c1.46 0 2.6-.71 3.44-2.14.85-1.44 1.28-3.56 1.28-6.36 0-1.85-.2-3.4-.58-4.66a6.18 6.18 0 0 0-1.64-2.84 3.58 3.58 0 0 0-2.5-.96c-1.45 0-2.59.72-3.43 2.16-.84 1.43-1.27 3.53-1.27 6.3-.01 1.86.17 3.42.55 4.68a6.26 6.26 0 0 0 1.64 2.87c.7.63 1.54.95 2.51.95Zm23.37-10.21v3.38h-10.48v-3.38h10.48Zm3.47 13.33V99.1l8.08-7.92c.77-.78 1.41-1.47 1.93-2.08.51-.6.9-1.2 1.16-1.76.25-.57.38-1.17.38-1.82a3.32 3.32 0 0 0-1.88-3.11 4.43 4.43 0 0 0-1.98-.43 4.1 4.1 0 0 0-2.01.47 3.3 3.3 0 0 0-1.34 1.33 4.28 4.28 0 0 0-.47 2.06h-4.01a6.82 6.82 0 0 1 3.8-6.39c1.19-.6 2.55-.9 4.09-.9 1.56 0 2.93.3 4.11.88a6.7 6.7 0 0 1 2.75 2.4c.66 1.01.99 2.17.99 3.48 0 .87-.17 1.72-.5 2.56a11.1 11.1 0 0 1-1.76 2.8c-.84 1.02-2 2.26-3.51 3.72l-4.01 4.07v.16h10.13v3.53h-15.95Z" />
    </g>
    <g data-object="Сокол__e__2385:714">
      <rect width="97" height="99" x="206" y="235" fill="#fff" rx="12" />
      <g clip-path="url(#d)">
        <g>
          <mask id="e" fill="#fff">
            <path
              d="M230.5 254.5a3 3 0 0 1 3-3h42a3 3 0 0 1 3 3v59a3 3 0 0 1-3 3h-42a3 3 0 0 1-3-3v-59Z" />
          </mask>
          <path fill="#000"
            d="M227.5 254.5a6 6 0 0 1 6-6h52a6 6 0 0 1 6 6h-64Zm64 59a6 6 0 0 1-6 6h-52a6 6 0 0 1-6-6h64Zm-58 6a6 6 0 0 1-6-6v-59a6 6 0 0 1 6-6v71Zm52-71a6 6 0 0 1 6 6v59a6 6 0 0 1-6 6l-20-6v-59l20-6Z"
            mask="url(#e)" />
        </g>
        <path fill="#fff"
          d="m270.21 278.7.8-.8v4.6a1 1 0 1 0 1.99 0v-4.6l.79.8a.99.99 0 0 0 1.09.23 1 1 0 0 0 .32-1.64l-2.5-2.5a.87.87 0 0 0-.32-.22 1 1 0 0 0-.76 0 1 1 0 0 0-.33.22l-2.5 2.5a1 1 0 0 0 1.42 1.42Zm3.58 11.59-.8.8v-4.6a1 1 0 1 0-1.99 0v4.6l-.79-.8a1.01 1.01 0 0 0-1.1-.22 1.01 1.01 0 0 0-.53 1.31c.05.13.12.24.21.33l2.5 2.5c.1.1.2.16.33.21a.93.93 0 0 0 .76 0c.12-.05.23-.12.33-.21l2.5-2.5a1 1 0 0 0-1.42-1.42Z" />
        <path fill="#000"
          d="M249 272a5.25 5.25 0 1 0 0-10.5 5.25 5.25 0 0 0 0 10.5Zm4.5 0h-9a6.01 6.01 0 0 0-6 6v10.08a1.9 1.9 0 0 0 1.8 1.92 1.88 1.88 0 0 0 1.95-1.88v-9.35a.77.77 0 0 1 .7-.77.74.74 0 0 1 .74.45c.04.1.06.2.06.3v27.1a2.15 2.15 0 1 0 4.31 0v-13.38a.96.96 0 0 1 .88-.97.93.93 0 0 1 1 .94v13.4a2.15 2.15 0 1 0 4.31 0v-27.06a.77.77 0 0 1 .7-.78.74.74 0 0 1 .74.45c.04.1.06.2.06.3v9.33a1.9 1.9 0 0 0 1.8 1.92 1.88 1.88 0 0 0 1.95-1.88V278a6.01 6.01 0 0 0-6-6Z" />
      </g>
    </g>
    <g data-object="Сокол__e__2385:720">
      <rect width="53" height="99" x="377" y="235" fill="#fff" rx="12" />
      <g clip-path="url(#f)">
        <g>
          <mask id="g" fill="#fff">
            <path
              d="M379.5 254.5a3 3 0 0 1 3-3h42a3 3 0 0 1 3 3v59a3 3 0 0 1-3 3h-42a3 3 0 0 1-3-3v-59Z" />
          </mask>
          <path fill="#000"
            d="M376.5 254.5a6 6 0 0 1 6-6h52a6 6 0 0 1 6 6h-64Zm64 59a6 6 0 0 1-6 6h-52a6 6 0 0 1-6-6h64Zm-58 6a6 6 0 0 1-6-6v-59a6 6 0 0 1 6-6v71Zm52-71a6 6 0 0 1 6 6v59a6 6 0 0 1-6 6l-20-6v-59l20-6Z"
            mask="url(#g)" />
        </g>
        <path fill="#fff"
          d="m419.21 278.7.8-.8v4.6a1 1 0 1 0 1.99 0v-4.6l.79.8a.99.99 0 0 0 1.09.23 1 1 0 0 0 .32-1.64l-2.5-2.5a.87.87 0 0 0-.32-.22 1 1 0 0 0-.76 0 1 1 0 0 0-.33.22l-2.5 2.5a1 1 0 0 0 1.42 1.42Zm3.58 11.59-.8.8v-4.6a1 1 0 1 0-1.99 0v4.6l-.79-.8a1.01 1.01 0 0 0-1.1-.22 1.01 1.01 0 0 0-.53 1.31c.05.13.12.24.21.33l2.5 2.5c.1.1.2.16.33.21a.93.93 0 0 0 .76 0c.12-.05.23-.12.33-.21l2.5-2.5a1 1 0 0 0-1.42-1.42Z" />
        <path fill="#000"
          d="M398 272a5.25 5.25 0 1 0 0-10.5 5.25 5.25 0 0 0 0 10.5Zm4.5 0h-9a6.01 6.01 0 0 0-6 6v10.08a1.9 1.9 0 0 0 1.8 1.92 1.88 1.88 0 0 0 1.95-1.88v-9.35a.77.77 0 0 1 .7-.77.74.74 0 0 1 .74.45c.04.1.06.2.06.3v27.1a2.15 2.15 0 1 0 4.31 0v-13.38a.96.96 0 0 1 .88-.97.93.93 0 0 1 1 .94v13.4a2.15 2.15 0 1 0 4.31 0v-27.06a.77.77 0 0 1 .7-.78.74.74 0 0 1 .74.45c.04.1.06.2.06.3v9.33a1.9 1.9 0 0 0 1.8 1.92 1.88 1.88 0 0 0 1.95-1.88V278a6.01 6.01 0 0 0-6-6Z" />
      </g>
    </g>
  </g>
  <defs>
    <clipPath id="a">
      <path fill="#fff" d="M484.5 286v48h-48v-48z" />
    </clipPath>
    <clipPath id="b">
      <path fill="#fff" d="M484.5 235v48h-48v-48z" />
    </clipPath>
    <clipPath id="c">
      <path fill="#fff" d="M40.5 265h48v48h-48z" />
    </clipPath>
    <clipPath id="d">
      <path fill="#fff" d="M230.5 246.5h48v76h-48z" />
    </clipPath>
    <clipPath id="f">
      <path fill="#fff" d="M379.5 246.5h48v76h-48z" />
    </clipPath>
  </defs>
</svg>