<svg xmlns="http://www.w3.org/2000/svg" width="747" height="573" fill="none" viewBox="0 0 747 573">
  <g>
    <g>
      <rect width="44" height="14" x="552" y="531" fill="#262A34" rx="3"
        transform="rotate(-90 552 531)" />
    </g>
    <g>
      <path fill="#262A34"
        d="M137 384.5V424a8 8 0 0 0 8 8h96.79a8 8 0 0 0 8-8v-26.75a8 8 0 0 1 8-8H488a8 8 0 0 1 7.98 7.5l1.76 27.76a8 8 0 0 0 7.99 7.49H604a8 8 0 0 0 8-8V239a8 8 0 0 1 8-8h116a8 8 0 0 0 8-8v-13.5a8 8 0 0 0-8-8H619.5a8 8 0 0 1-8-8V154a8 8 0 0 0-8-8h-97.66a8 8 0 0 0-8 8.11l.26 18.78a8 8 0 0 1-8 8.11H255.78a8 8 0 0 1-8-8v-16.5a8 8 0 0 0-8-8h-94.32a8 8 0 0 0-8 7.98L137 384.5Z" />
    </g>
    <g>
      <rect width="39" height="15" x="185" y="102" fill="#262A34" rx="3"
        transform="rotate(-90 185 102)" />
    </g>
    <g>
      <rect width="10" height="17" x="209" y="151" fill="#262A34" rx="3"
        transform="rotate(-90 209 151)" />
    </g>
    <g>
      <rect width="12" height="17" x="154" y="152" fill="#262A34" rx="3"
        transform="rotate(-90 154 152)" />
    </g>
    <g>
      <rect width="18" height="16" x="127" y="172" fill="#262A34" rx="3"
        transform="rotate(-90 127 172)" />
    </g>
    <g>
      <rect width="21" height="14" x="127" y="231" fill="#262A34" rx="3"
        transform="rotate(-90 127 231)" />
    </g>
    <g>
      <rect width="18" height="14" x="127" y="418" fill="#262A34" rx="3"
        transform="rotate(-90 127 418)" />
    </g>
    <g>
      <rect width="11" height="16" x="152" y="439" fill="#262A34" rx="3"
        transform="rotate(-90 152 439)" />
    </g>
    <g>
      <rect width="18" height="16" x="247" y="419" fill="#262A34" rx="3"
        transform="rotate(-90 247 419)" />
    </g>
    <g>
      <rect width="18" height="13" x="608" y="420" fill="#262A34" rx="3"
        transform="rotate(-90 608 420)" />
    </g>
    <g>
      <rect width="18" height="22" x="485" y="420" fill="#262A34" rx="3"
        transform="rotate(-90 485 420)" />
    </g>
    <g>
      <rect width="19" height="13" x="485" y="174" fill="#262A34" rx="3"
        transform="rotate(-90 485 174)" />
    </g>
    <g>
      <rect width="44" height="12" x="554" y="102" fill="#262A34" rx="3"
        transform="rotate(-90 554 102)" />
    </g>
    <g>
      <rect width="13" height="18" x="575" y="149" fill="#262A34" rx="3"
        transform="rotate(-90 575 149)" />
    </g>
    <g>
      <rect width="13" height="22" x="519" y="150" fill="#262A34" rx="3"
        transform="rotate(-90 519 150)" />
    </g>
    <g>
      <rect width="18" height="18" x="603" y="168" fill="#262A34" rx="3"
        transform="rotate(-90 603 168)" />
    </g>
    <g>
      <rect width="18" height="14" x="609" y="224" fill="#262A34" rx="3"
        transform="rotate(-90 609 224)" />
    </g>
    <g>
      <rect width="13" height="17" x="524" y="440" fill="#262A34" rx="3"
        transform="rotate(-90 524 440)" />
    </g>
    <g>
      <rect width="11" height="16" x="575" y="440" fill="#262A34" rx="3"
        transform="rotate(-90 575 440)" />
    </g>
    <g>
      <rect width="20" height="18" x="244" y="174" fill="#262A34" rx="3"
        transform="rotate(-90 244 174)" />
    </g>
    <g data-object="Сокол__r__2379:1401">
      <rect width="117" height="179" x="376" y="394" fill="#78B500" rx="12" />
      <path fill="#fff"
        d="M390.79 496.15v-23.27h8.9c1.69 0 3.08.26 4.2.8a5.6 5.6 0 0 1 2.5 2.14c.57.9.85 1.94.85 3.09a4.6 4.6 0 0 1-2.01 4.06 6.2 6.2 0 0 1-2.06.9v.22a5.29 5.29 0 0 1 4.25 2.7c.49.83.73 1.83.73 3.02 0 1.2-.3 2.29-.88 3.25a5.95 5.95 0 0 1-2.63 2.26 10.4 10.4 0 0 1-4.43.83h-9.42Zm4.21-3.52h4.54c1.53 0 2.63-.3 3.3-.88a2.87 2.87 0 0 0 1.03-2.27 3.48 3.48 0 0 0-1.97-3.18 4.83 4.83 0 0 0-2.25-.5H395v6.82Zm0-9.86h4.17a4.7 4.7 0 0 0 1.97-.4 3.07 3.07 0 0 0 1.89-2.92c0-.9-.32-1.64-.96-2.22-.63-.59-1.56-.88-2.8-.88H395v6.42Zm24.86 13.7c-1.69 0-3.19-.29-4.5-.86a7.5 7.5 0 0 1-3.07-2.33 5.46 5.46 0 0 1-1.09-3.37c0-.98.2-1.88.64-2.7a5.99 5.99 0 0 1 4.23-3.1v-.16a4.92 4.92 0 0 1-2.91-1.82 5.28 5.28 0 0 1-1.1-3.33c0-1.2.33-2.27 1-3.2a6.82 6.82 0 0 1 2.78-2.23 9.45 9.45 0 0 1 4.02-.81c1.5 0 2.82.27 4 .81a6.83 6.83 0 0 1 2.76 2.22c.69.94 1.03 2 1.03 3.2 0 1.26-.38 2.37-1.13 3.33a4.91 4.91 0 0 1-2.87 1.83v.16a6 6 0 0 1 4.86 5.8c0 1.26-.37 2.38-1.11 3.37a7.48 7.48 0 0 1-3.07 2.33c-1.3.57-2.79.86-4.47.86Zm0-3.25c.87 0 1.63-.15 2.27-.45a3.44 3.44 0 0 0 2.05-3.16c0-.74-.2-1.4-.58-1.96a3.8 3.8 0 0 0-1.53-1.35 4.82 4.82 0 0 0-2.2-.5c-.84 0-1.58.17-2.24.5-.65.32-1.16.77-1.54 1.35a3.44 3.44 0 0 0-.55 1.96 3.3 3.3 0 0 0 2.03 3.15c.65.3 1.41.46 2.3.46Zm0-10.6a4 4 0 0 0 1.89-.44 3.28 3.28 0 0 0 1.8-2.99 3.14 3.14 0 0 0-1.78-2.92 4.17 4.17 0 0 0-1.9-.42 4.3 4.3 0 0 0-1.95.42 3.08 3.08 0 0 0-1.74 2.92c0 .68.14 1.27.45 1.79.32.5.76.9 1.31 1.2.56.29 1.2.43 1.92.43Zm23.01.2v3.38H432.4v-3.38h10.48Zm13.75-9.94v23.27h-4.22v-19.17h-.13l-5.45 3.47v-3.86l5.79-3.71h4Zm5.9 23.27v-3.05l8.09-7.92c.77-.78 1.41-1.47 1.93-2.08.51-.6.9-1.2 1.16-1.76.25-.57.38-1.17.38-1.82a3.33 3.33 0 0 0-1.88-3.11 4.43 4.43 0 0 0-1.98-.43c-.77 0-1.44.16-2.01.47a3.3 3.3 0 0 0-1.34 1.33 4.27 4.27 0 0 0-.47 2.06h-4a7.2 7.2 0 0 1 1-3.85 6.82 6.82 0 0 1 2.79-2.54c1.19-.6 2.55-.9 4.09-.9 1.56 0 2.93.3 4.11.88a6.7 6.7 0 0 1 2.75 2.4c.66 1.02.99 2.17.99 3.48a6.9 6.9 0 0 1-.5 2.56 10.9 10.9 0 0 1-1.76 2.8 44.7 44.7 0 0 1-3.51 3.72l-4.01 4.08v.15h10.13v3.53h-15.95Z" />
    </g>
    <g data-object="Сокол__r__2379:1413">
      <rect width="117" height="179" x="255" y="394" fill="#78B500" rx="12" />
      <path fill="#fff"
        d="M269.8 496.15v-23.27h8.91c1.68 0 3.08.26 4.2.8a5.6 5.6 0 0 1 2.5 2.14c.56.9.85 1.94.85 3.09a4.58 4.58 0 0 1-2.01 4.06 6.2 6.2 0 0 1-2.06.9v.22a5.29 5.29 0 0 1 4.25 2.7c.48.83.73 1.83.73 3.02 0 1.2-.3 2.29-.88 3.25a5.96 5.96 0 0 1-2.64 2.26 10.4 10.4 0 0 1-4.43.83h-9.42Zm4.22-3.52h4.53c1.53 0 2.63-.3 3.3-.88a2.87 2.87 0 0 0 1.03-2.27 3.48 3.48 0 0 0-1.96-3.18 4.83 4.83 0 0 0-2.25-.5h-4.65v6.82Zm0-9.86h4.17a4.7 4.7 0 0 0 1.96-.4 3.07 3.07 0 0 0 1.89-2.92c0-.9-.32-1.64-.95-2.22-.63-.59-1.57-.88-2.81-.88h-4.26v6.42Zm24.86 13.7c-1.7 0-3.2-.29-4.5-.86a7.48 7.48 0 0 1-3.07-2.33 5.47 5.47 0 0 1-1.1-3.37c0-.98.21-1.88.65-2.7a6 6 0 0 1 4.22-3.1v-.16a4.93 4.93 0 0 1-2.9-1.82 5.29 5.29 0 0 1-1.1-3.33c0-1.2.33-2.27 1-3.2a6.83 6.83 0 0 1 2.78-2.23 9.45 9.45 0 0 1 4.02-.81c1.49 0 2.82.27 3.99.81a6.82 6.82 0 0 1 2.77 2.22c.68.94 1.02 2 1.02 3.2 0 1.26-.37 2.37-1.12 3.33a4.91 4.91 0 0 1-2.88 1.83v.16a6.01 6.01 0 0 1 4.86 5.8 5.5 5.5 0 0 1-1.1 3.37 7.48 7.48 0 0 1-3.08 2.33c-1.3.57-2.78.86-4.46.86Zm0-3.25c.87 0 1.63-.15 2.27-.45a3.44 3.44 0 0 0 2.05-3.16 3.5 3.5 0 0 0-.58-1.96 3.8 3.8 0 0 0-1.54-1.35 4.8 4.8 0 0 0-2.2-.5 4.9 4.9 0 0 0-2.23.5c-.65.32-1.17.77-1.54 1.35a3.44 3.44 0 0 0-.55 1.96 3.3 3.3 0 0 0 2.02 3.15c.65.3 1.42.46 2.3.46Zm0-10.6c.71 0 1.34-.15 1.88-.44a3.28 3.28 0 0 0 1.8-2.99c0-.66-.17-1.25-.48-1.75-.3-.5-.74-.9-1.3-1.17a4.17 4.17 0 0 0-1.9-.42 4.3 4.3 0 0 0-1.94.42c-.56.28-.99.67-1.3 1.17-.3.5-.45 1.09-.44 1.75-.01.68.14 1.27.45 1.79.32.5.75.9 1.3 1.2.57.29 1.2.43 1.93.43Zm23 .2v3.38h-10.47v-3.38h10.48Zm13.75-9.94v23.27h-4.21v-19.17h-.14l-5.44 3.47v-3.86l5.78-3.71h4.01Zm14.26 23.59c-1.63 0-3.09-.28-4.36-.85a7.3 7.3 0 0 1-3-2.34 6.06 6.06 0 0 1-1.17-3.46h4.27c.04.63.25 1.18.63 1.65.38.46.88.82 1.51 1.08.63.25 1.33.38 2.11.38.84 0 1.58-.14 2.22-.43.64-.3 1.15-.7 1.51-1.23a3 3 0 0 0 .53-1.8c.01-.7-.17-1.33-.54-1.87s-.91-.96-1.61-1.26a6.4 6.4 0 0 0-2.53-.45h-2.05v-3.25h2.05c.81 0 1.52-.14 2.13-.42a3.4 3.4 0 0 0 1.44-1.19c.35-.51.52-1.1.51-1.78a3.1 3.1 0 0 0-.44-1.72 3 3 0 0 0-1.26-1.14 5 5 0 0 0-3.88-.02c-.6.25-1.1.62-1.46 1.1a2.8 2.8 0 0 0-.6 1.68h-4.05c.03-1.3.4-2.45 1.12-3.43.73-1 1.7-1.77 2.91-2.32a9.6 9.6 0 0 1 4.08-.84c1.56 0 2.9.29 4.05.87a6.6 6.6 0 0 1 2.67 2.33c.63.98.94 2.06.94 3.24a4.79 4.79 0 0 1-1.16 3.3 5.45 5.45 0 0 1-3.04 1.73v.19a5.9 5.9 0 0 1 3.76 1.81 5.2 5.2 0 0 1 1.3 3.65c0 1.3-.37 2.47-1.1 3.5a7.38 7.38 0 0 1-3.05 2.41c-1.3.58-2.77.88-4.44.88Z" />
    </g>
    <g data-object="Сокол__r__2379:1424">
      <rect width="114" height="137" x="137" y="436" fill="#78B500" rx="12" />
      <path fill="#fff"
        d="M149.8 516.27V493h8.9c1.7 0 3.09.26 4.2.8a5.6 5.6 0 0 1 2.51 2.14c.56.9.84 1.94.84 3.1a4.6 4.6 0 0 1-2.01 4.06 6.2 6.2 0 0 1-2.05.89v.22a5.29 5.29 0 0 1 4.25 2.7c.48.83.72 1.84.72 3.02 0 1.2-.29 2.29-.87 3.25a5.95 5.95 0 0 1-2.64 2.26 10.4 10.4 0 0 1-4.43.83h-9.42Zm4.22-3.52h4.53c1.53 0 2.63-.3 3.3-.88a2.87 2.87 0 0 0 1.03-2.27 3.48 3.48 0 0 0-1.97-3.18 4.84 4.84 0 0 0-2.25-.5h-4.64v6.83Zm0-9.86h4.17a4.7 4.7 0 0 0 1.96-.4 3.07 3.07 0 0 0 1.89-2.92c0-.9-.32-1.64-.96-2.22-.63-.58-1.56-.88-2.8-.88h-4.26v6.42Zm24.86 13.7a11.2 11.2 0 0 1-4.5-.86 7.5 7.5 0 0 1-3.07-2.32c-.74-1-1.1-2.12-1.1-3.38 0-.98.21-1.87.64-2.7a6.01 6.01 0 0 1 4.23-3.1v-.15a4.92 4.92 0 0 1-2.9-1.83 5.28 5.28 0 0 1-1.1-3.33c0-1.2.33-2.27 1-3.2a6.82 6.82 0 0 1 2.77-2.22 9.44 9.44 0 0 1 4.03-.82c1.49 0 2.82.27 3.99.82a6.82 6.82 0 0 1 2.77 2.21 5.33 5.33 0 0 1 1.02 3.2c0 1.26-.37 2.38-1.12 3.34a4.91 4.91 0 0 1-2.88 1.83v.16c.91.15 1.73.5 2.46 1.05a6.01 6.01 0 0 1 2.4 4.74c0 1.26-.37 2.38-1.1 3.38a7.5 7.5 0 0 1-3.08 2.33 11 11 0 0 1-4.46.85Zm0-3.25c.87 0 1.63-.15 2.27-.45a3.4 3.4 0 0 0 2.04-3.15c0-.75-.2-1.4-.57-1.97a3.8 3.8 0 0 0-1.54-1.35 4.83 4.83 0 0 0-2.2-.5c-.84 0-1.58.17-2.23.5a3.9 3.9 0 0 0-1.55 1.35 3.45 3.45 0 0 0-.54 1.97 3.31 3.31 0 0 0 2.02 3.14c.65.3 1.42.46 2.3.46Zm0-10.6c.7 0 1.34-.15 1.88-.44a3.29 3.29 0 0 0 1.8-2.99c0-.66-.17-1.25-.48-1.75-.31-.5-.74-.9-1.3-1.17a4.16 4.16 0 0 0-1.9-.42 4.3 4.3 0 0 0-1.95.42 3.07 3.07 0 0 0-1.74 2.93c0 .67.15 1.26.46 1.78.32.5.75.9 1.3 1.2.57.3 1.2.44 1.93.44Zm23 .2v3.39h-10.47v-3.39h10.47Zm13.75-9.94v23.27h-4.21V497.1h-.14l-5.44 3.48v-3.87l5.78-3.71h4.01Zm5.5 18.95v-3.35L231 493h2.8v4.77h-1.71l-6.65 10.53v.19h13.78v3.46h-18.1Zm11.1 4.32v-5.34l.04-1.5V493h3.98v23.27h-4.03Z" />
    </g>
    <g data-object="Сокол__r__2379:1417">
      <rect width="131" height="189" y="384" fill="#78B500" rx="12" />
      <path fill="#fff"
        d="M22.01 490.45v-23.27h8.91c1.68 0 3.08.26 4.2.8a5.6 5.6 0 0 1 2.5 2.14c.56.91.85 1.94.85 3.1a4.58 4.58 0 0 1-2.01 4.06 6.2 6.2 0 0 1-2.06.89v.22c.82.05 1.61.3 2.37.77a5.2 5.2 0 0 1 1.88 1.93c.48.83.72 1.84.72 3.02 0 1.2-.29 2.29-.87 3.25a5.95 5.95 0 0 1-2.64 2.26 10.4 10.4 0 0 1-4.43.83h-9.42Zm4.22-3.52h4.53c1.53 0 2.63-.3 3.3-.88a2.87 2.87 0 0 0 1.03-2.27 3.48 3.48 0 0 0-1.97-3.18 4.83 4.83 0 0 0-2.25-.49h-4.64v6.82Zm0-9.85h4.17c.72 0 1.38-.13 1.96-.4a3.07 3.07 0 0 0 1.89-2.92c0-.9-.32-1.64-.96-2.23-.62-.58-1.56-.87-2.8-.87h-4.26v6.42Zm24.86 13.69c-1.7 0-3.2-.28-4.5-.85a7.5 7.5 0 0 1-3.07-2.33c-.74-1-1.1-2.12-1.1-3.38 0-.97.21-1.87.64-2.69a6 6 0 0 1 4.23-3.1v-.16a4.92 4.92 0 0 1-2.9-1.83 5.28 5.28 0 0 1-1.1-3.33c0-1.2.33-2.27 1-3.2a6.83 6.83 0 0 1 2.77-2.22 9.45 9.45 0 0 1 4.03-.82c1.49 0 2.82.27 3.99.82a6.83 6.83 0 0 1 2.77 2.21 5.34 5.34 0 0 1 1.02 3.21c0 1.26-.37 2.37-1.12 3.33a4.9 4.9 0 0 1-2.88 1.83v.16a6 6 0 0 1 4.86 5.8 5.5 5.5 0 0 1-1.1 3.37 7.5 7.5 0 0 1-3.08 2.33c-1.3.57-2.78.85-4.46.85Zm0-3.25a5.4 5.4 0 0 0 2.27-.44 3.44 3.44 0 0 0 2.05-3.16c-.01-.74-.2-1.4-.58-1.97a3.8 3.8 0 0 0-1.54-1.35 4.81 4.81 0 0 0-2.2-.49c-.84 0-1.58.16-2.23.49a4 4 0 0 0-1.55 1.35 3.45 3.45 0 0 0-.54 1.97 3.3 3.3 0 0 0 2.02 3.15c.65.3 1.42.45 2.3.45Zm0-10.6c.7 0 1.34-.15 1.88-.43a3.29 3.29 0 0 0 1.8-3c0-.66-.17-1.24-.48-1.74-.3-.51-.74-.9-1.3-1.17a4.17 4.17 0 0 0-1.9-.42 4.3 4.3 0 0 0-1.95.42 3.08 3.08 0 0 0-1.73 2.92c-.01.67.14 1.27.45 1.78.32.5.75.91 1.3 1.2.57.3 1.2.44 1.93.44Zm23 .2v3.39H63.63v-3.39H74.1Zm13.75-9.94v23.27h-4.21v-19.17h-.14l-5.44 3.48v-3.87l5.78-3.71h4.01Zm14 23.59a9.38 9.38 0 0 1-4.07-.85 7.26 7.26 0 0 1-2.85-2.37c-.7-1-1.07-2.14-1.11-3.43h4.09c.08.96.49 1.74 1.24 2.34.75.6 1.65.9 2.7.9a4.08 4.08 0 0 0 3.73-2.15c.37-.67.55-1.44.55-2.3 0-.88-.18-1.66-.56-2.34a4.16 4.16 0 0 0-1.56-1.6 4.3 4.3 0 0 0-2.27-.6c-.7 0-1.38.12-2.06.39-.67.26-1.2.61-1.6 1.04l-3.8-.62 1.2-12h13.5v3.52h-10l-.67 6.17h.13c.44-.5 1.05-.93 1.83-1.26a6.46 6.46 0 0 1 2.6-.51 7.16 7.16 0 0 1 6.38 3.73c.64 1.16.95 2.48.95 3.97a7.56 7.56 0 0 1-4.01 6.94 8.93 8.93 0 0 1-4.34 1.03Z" />
    </g>
    <g data-object="Сокол__r__2379:1365">
      <rect width="144" height="53" x="136" y="144" fill="#78B500" rx="12"
        transform="rotate(-90 136 144)" />
      <path fill="#fff"
        d="M174.51 118.8h-23.27v-8.91c0-1.69.26-3.08.8-4.2a5.6 5.6 0 0 1 2.14-2.5 5.7 5.7 0 0 1 3.1-.85 4.58 4.58 0 0 1 4.06 2.01c.4.62.7 1.3.89 2.06h.23a5.28 5.28 0 0 1 2.7-4.25 5.92 5.92 0 0 1 3.01-.73c1.2 0 2.29.3 3.25.88a5.89 5.89 0 0 1 2.26 2.63c.56 1.18.83 2.66.83 4.44v9.42Zm-3.52-4.22v-4.53c0-1.53-.3-2.64-.88-3.31a2.87 2.87 0 0 0-2.27-1.02 3.48 3.48 0 0 0-3.18 1.96 4.83 4.83 0 0 0-.49 2.25v4.65H171Zm-9.85 0v-4.17a4.7 4.7 0 0 0-.4-1.97 3.07 3.07 0 0 0-2.92-1.89c-.9 0-1.64.33-2.23.96-.58.63-.87 1.57-.87 2.8v4.27h6.42Zm13.7-24.86c0 1.69-.3 3.19-.86 4.5a7.49 7.49 0 0 1-2.33 3.07 5.5 5.5 0 0 1-3.38 1.09 5.6 5.6 0 0 1-2.69-.64 6 6 0 0 1-3.1-4.23h-.16a4.92 4.92 0 0 1-1.83 2.91 5.28 5.28 0 0 1-3.33 1.1 5.3 5.3 0 0 1-3.2-1 6.83 6.83 0 0 1-2.22-2.78 9.45 9.45 0 0 1-.82-4.02c0-1.5.28-2.82.82-3.99a6.83 6.83 0 0 1 2.22-2.77 5.3 5.3 0 0 1 3.2-1.02c1.26 0 2.37.37 3.33 1.12a4.9 4.9 0 0 1 1.83 2.88h.16a6 6 0 0 1 5.8-4.86c1.25 0 2.38.36 3.37 1.1a7.49 7.49 0 0 1 2.33 3.07c.57 1.3.85 2.79.85 4.47Zm-3.26 0a5.4 5.4 0 0 0-.44-2.27 3.44 3.44 0 0 0-3.16-2.05c-.74 0-1.4.2-1.97.58a3.8 3.8 0 0 0-1.35 1.53 4.81 4.81 0 0 0-.49 2.2c0 .84.17 1.59.5 2.24.32.65.77 1.16 1.34 1.54.57.37 1.23.56 1.97.55a3.3 3.3 0 0 0 3.15-2.03c.3-.65.45-1.41.45-2.3Zm-10.6 0c0-.71-.14-1.34-.43-1.89a3.29 3.29 0 0 0-3-1.8c-.66.02-1.24.17-1.74.48-.5.32-.9.75-1.17 1.3a4.17 4.17 0 0 0-.42 1.9c0 .74.14 1.4.42 1.95a3.08 3.08 0 0 0 2.92 1.74c.67 0 1.27-.14 1.78-.45.51-.32.91-.76 1.2-1.31a4 4 0 0 0 .44-1.92Zm.2-23h3.39v10.47h-3.39V66.7Zm13.78-12.9c0 1.88-.48 3.48-1.42 4.83a9.05 9.05 0 0 1-4.13 3.08c-1.8.7-3.97 1.06-6.51 1.06-2.54 0-4.7-.36-6.48-1.08a8.9 8.9 0 0 1-4.09-3.08 8.17 8.17 0 0 1-1.4-4.8c0-1.87.46-3.47 1.4-4.81a8.8 8.8 0 0 1 4.1-3.08 17.35 17.35 0 0 1 6.47-1.08c2.54 0 4.72.36 6.52 1.08a8.87 8.87 0 0 1 4.12 3.08 8.08 8.08 0 0 1 1.42 4.8Zm-3.56 0c0-1.45-.72-2.6-2.15-3.44-1.44-.84-3.56-1.27-6.35-1.27-1.85 0-3.4.2-4.66.58-1.26.39-2.2.93-2.84 1.64-.65.7-.97 1.54-.97 2.5 0 1.44.72 2.59 2.16 3.43 1.43.84 3.54 1.26 6.3 1.27 1.87 0 3.43-.18 4.7-.55a6.27 6.27 0 0 0 2.85-1.64c.64-.7.96-1.54.96-2.51Zm3.11-12.73h-3.04L163.55 33a38.02 38.02 0 0 0-2.08-1.94c-.6-.51-1.2-.9-1.76-1.15a4.35 4.35 0 0 0-1.82-.4 3.32 3.32 0 0 0-3.11 1.88 4.45 4.45 0 0 0-.44 2c0 .76.16 1.43.48 2 .31.58.75 1.03 1.33 1.34.57.32 1.26.47 2.06.47v4.01a6.82 6.82 0 0 1-6.39-3.8 8.97 8.97 0 0 1-.9-4.08c0-1.56.3-2.94.88-4.12a6.7 6.7 0 0 1 2.4-2.75 6.24 6.24 0 0 1 3.47-.99 7 7 0 0 1 2.57.5c.84.34 1.77.92 2.8 1.76 1.02.84 2.26 2 3.71 3.52l4.08 4h.16V25.14h3.52V41.1Z" />
    </g>
    <g data-object="Сокол__r__2379:1383">
      <rect width="140" height="48" x="563" y="140" fill="#78B500" rx="12"
        transform="rotate(-90 563 140)" />
      <path fill="#fff"
        d="M598.86 115.13H575.6v-8.91c0-1.69.26-3.08.8-4.2a5.6 5.6 0 0 1 2.14-2.5 5.7 5.7 0 0 1 3.1-.85 4.58 4.58 0 0 1 4.06 2.01c.4.62.7 1.3.89 2.06h.22a5.28 5.28 0 0 1 2.7-4.25 5.92 5.92 0 0 1 3.02-.73c1.2 0 2.29.3 3.25.88.96.58 1.7 1.46 2.26 2.63.55 1.18.83 2.66.83 4.44v9.42Zm-3.52-4.22v-4.53c0-1.53-.3-2.64-.88-3.31a2.87 2.87 0 0 0-2.27-1.02 3.48 3.48 0 0 0-3.18 1.96 4.83 4.83 0 0 0-.49 2.25v4.65h6.82Zm-9.85 0v-4.17a4.7 4.7 0 0 0-.4-1.97 3.07 3.07 0 0 0-2.92-1.89c-.9 0-1.65.32-2.23.96-.58.63-.88 1.57-.88 2.8v4.27h6.43Zm13.69-24.86c0 1.69-.28 3.19-.85 4.5a7.49 7.49 0 0 1-2.33 3.07 5.5 5.5 0 0 1-3.38 1.09c-.98 0-1.87-.2-2.7-.64a6 6 0 0 1-3.1-4.23h-.15a4.92 4.92 0 0 1-1.83 2.91 5.28 5.28 0 0 1-3.33 1.1 5.3 5.3 0 0 1-3.2-1 6.83 6.83 0 0 1-2.22-2.78 9.45 9.45 0 0 1-.82-4.02c0-1.5.27-2.82.82-3.99a6.83 6.83 0 0 1 2.21-2.77 5.33 5.33 0 0 1 3.2-1.02c1.27 0 2.38.37 3.34 1.12a4.9 4.9 0 0 1 1.83 2.88h.16a6 6 0 0 1 5.8-4.86c1.25 0 2.38.36 3.37 1.1a7.49 7.49 0 0 1 2.33 3.07c.56 1.3.85 2.79.85 4.47Zm-3.25 0c0-.87-.15-1.63-.44-2.27a3.44 3.44 0 0 0-3.16-2.05c-.75 0-1.4.2-1.97.58a3.8 3.8 0 0 0-1.35 1.53 4.81 4.81 0 0 0-.49 2.2c0 .84.16 1.58.49 2.24.32.65.77 1.16 1.35 1.54.57.37 1.22.56 1.97.55a3.3 3.3 0 0 0 3.14-2.03c.3-.65.46-1.41.46-2.3Zm-10.6 0a4 4 0 0 0-.44-1.89 3.28 3.28 0 0 0-2.98-1.8 3.13 3.13 0 0 0-2.92 1.78 4.17 4.17 0 0 0-.42 1.9c0 .74.14 1.4.42 1.95a3.08 3.08 0 0 0 2.92 1.74 3.4 3.4 0 0 0 1.78-.45c.5-.32.91-.76 1.2-1.31a4 4 0 0 0 .44-1.92Zm.2-23h3.39v10.47h-3.39V63.04Zm13.77-12.9c0 1.88-.47 3.48-1.42 4.83a9.05 9.05 0 0 1-4.12 3.07c-1.8.72-3.98 1.07-6.51 1.07-2.54 0-4.7-.36-6.48-1.08a8.9 8.9 0 0 1-4.1-3.08 8.17 8.17 0 0 1-1.4-4.8c0-1.87.47-3.47 1.4-4.81a8.8 8.8 0 0 1 4.1-3.08 17.35 17.35 0 0 1 6.48-1.08c2.54 0 4.72.36 6.52 1.08a8.88 8.88 0 0 1 4.11 3.08 8.08 8.08 0 0 1 1.42 4.8Zm-3.55 0c0-1.45-.72-2.6-2.15-3.44-1.44-.84-3.56-1.27-6.35-1.27-1.85 0-3.4.2-4.66.58-1.26.39-2.2.93-2.84 1.64-.65.7-.97 1.54-.97 2.5 0 1.44.72 2.59 2.16 3.43 1.43.84 3.53 1.26 6.3 1.27 1.86 0 3.42-.18 4.69-.56a6.27 6.27 0 0 0 2.86-1.63c.64-.7.96-1.54.96-2.51Zm3.11-12.96-19.59-9.9h-.16v11.49h-3.52V22.93h3.6l19.67 9.88v4.38Z" />
    </g>
    <g data-object="Сокол__r__2379:1393">
      <rect width="137" height="48" x="563" y="573" fill="#78B500" rx="12"
        transform="rotate(-90 563 573)" />
      <path fill="#fff"
        d="M598.86 548.5H575.6v-8.9c0-1.69.26-3.09.8-4.2a5.6 5.6 0 0 1 2.14-2.51 5.79 5.79 0 0 1 3.1-.84 4.59 4.59 0 0 1 4.06 2.01c.4.61.7 1.3.89 2.06h.22a5.29 5.29 0 0 1 2.7-4.25 5.91 5.91 0 0 1 3.02-.73c1.2 0 2.29.29 3.25.87.96.59 1.7 1.47 2.26 2.64.55 1.17.83 2.65.83 4.43v9.42Zm-3.52-4.21v-4.54c0-1.53-.3-2.63-.88-3.3a2.87 2.87 0 0 0-2.27-1.03 3.48 3.48 0 0 0-3.18 1.97 4.83 4.83 0 0 0-.49 2.25v4.65h6.82Zm-9.85 0v-4.17a4.7 4.7 0 0 0-.4-1.97 3.07 3.07 0 0 0-2.92-1.89c-.9 0-1.65.32-2.23.96-.58.63-.88 1.56-.88 2.8v4.27h6.43Zm13.69-24.86c0 1.69-.28 3.19-.85 4.5a7.5 7.5 0 0 1-2.33 3.06c-1 .74-2.12 1.1-3.38 1.1-.98 0-1.87-.21-2.7-.64a6 6 0 0 1-3.1-4.23h-.15a4.92 4.92 0 0 1-1.83 2.91 5.28 5.28 0 0 1-3.33 1.1 5.3 5.3 0 0 1-3.2-1 6.82 6.82 0 0 1-2.22-2.78 9.45 9.45 0 0 1-.82-4.02c0-1.5.27-2.83.82-4a6.83 6.83 0 0 1 2.21-2.77 5.33 5.33 0 0 1 3.2-1.02 5.27 5.27 0 0 1 5.17 4h.16a6 6 0 0 1 5.8-4.86 5.5 5.5 0 0 1 3.37 1.11 7.5 7.5 0 0 1 2.33 3.07c.56 1.3.85 2.78.85 4.47Zm-3.25 0c0-.88-.15-1.63-.44-2.28a3.44 3.44 0 0 0-3.16-2.05c-.75.01-1.4.2-1.97.59a3.8 3.8 0 0 0-1.35 1.53 4.82 4.82 0 0 0-.49 2.2c0 .84.16 1.58.49 2.23.32.65.77 1.17 1.35 1.55.57.37 1.22.55 1.97.54a3.3 3.3 0 0 0 3.14-2.02c.3-.65.46-1.42.46-2.3Zm-10.6 0c0-.72-.15-1.34-.44-1.9a3.29 3.29 0 0 0-2.98-1.79c-.67.01-1.25.17-1.75.48-.51.31-.9.74-1.17 1.3a4.18 4.18 0 0 0-.42 1.9c0 .74.14 1.39.42 1.95a3.08 3.08 0 0 0 2.92 1.74 3.4 3.4 0 0 0 1.78-.46c.5-.31.91-.75 1.2-1.3.3-.57.44-1.2.44-1.92Zm.2-23.01h3.39v10.47h-3.39v-10.47Zm-9.94-13.75h23.27v4.22H579.7v.13l3.48 5.44h-3.87l-3.71-5.78v-4.01Zm23.71-14.51c0 1.87-.47 3.48-1.42 4.82a9.05 9.05 0 0 1-4.12 3.08 18 18 0 0 1-6.51 1.06c-2.54 0-4.7-.36-6.48-1.07a8.9 8.9 0 0 1-4.1-3.09 8.17 8.17 0 0 1-1.4-4.8c0-1.87.47-3.47 1.4-4.8a8.8 8.8 0 0 1 4.1-3.09 17.34 17.34 0 0 1 6.48-1.08c2.54 0 4.72.36 6.52 1.08a8.88 8.88 0 0 1 4.11 3.08 8.08 8.08 0 0 1 1.42 4.8Zm-3.55 0c0-1.46-.72-2.6-2.15-3.45-1.44-.84-3.56-1.27-6.35-1.27-1.85 0-3.4.2-4.66.58a6.2 6.2 0 0 0-2.84 1.64c-.65.7-.97 1.54-.97 2.5 0 1.45.72 2.59 2.16 3.43 1.43.84 3.53 1.27 6.3 1.27 1.86.01 3.42-.18 4.69-.55a6.27 6.27 0 0 0 2.86-1.64c.64-.7.96-1.54.96-2.51Z" />
    </g>
    <g data-object="Сокол__r__2379:1397">
      <rect width="137" height="58" x="498" y="573" fill="#78B500" rx="12"
        transform="rotate(-90 498 573)" />
      <path fill="#fff"
        d="M539.16 545.52H515.9v-8.91c0-1.68.27-3.08.8-4.2a5.6 5.6 0 0 1 2.15-2.5c.9-.57 1.93-.85 3.09-.85a4.57 4.57 0 0 1 4.06 2.01c.41.62.7 1.3.9 2.06h.22a5.26 5.26 0 0 1 2.7-4.25 5.9 5.9 0 0 1 3.01-.73c1.2 0 2.3.3 3.25.88a5.94 5.94 0 0 1 2.27 2.64c.55 1.17.82 2.65.82 4.43v9.42Zm-3.52-4.22v-4.53c0-1.53-.29-2.63-.87-3.3a2.87 2.87 0 0 0-2.27-1.03 3.48 3.48 0 0 0-3.19 1.96 4.83 4.83 0 0 0-.49 2.25v4.65h6.82Zm-9.85 0v-4.17c0-.73-.13-1.38-.4-1.96a3.07 3.07 0 0 0-2.92-1.89c-.9 0-1.64.32-2.23.95-.58.63-.87 1.57-.87 2.81v4.26h6.42Zm13.7-24.86c0 1.7-.3 3.2-.86 4.5a7.5 7.5 0 0 1-2.33 3.07 5.5 5.5 0 0 1-3.37 1.09 5.6 5.6 0 0 1-2.7-.64 6 6 0 0 1-3.1-4.22h-.16a4.92 4.92 0 0 1-1.83 2.9 5.28 5.28 0 0 1-3.33 1.1 5.3 5.3 0 0 1-3.2-1 6.83 6.83 0 0 1-2.22-2.78 9.45 9.45 0 0 1-.82-4.02c0-1.5.28-2.82.82-3.99a6.82 6.82 0 0 1 2.22-2.77 5.3 5.3 0 0 1 3.2-1.02c1.26 0 2.37.37 3.33 1.12.96.75 1.57 1.7 1.83 2.88h.16a5.99 5.99 0 0 1 5.8-4.86 5.5 5.5 0 0 1 3.37 1.1 7.5 7.5 0 0 1 2.33 3.08c.57 1.3.85 2.78.85 4.46Zm-3.26 0a5.4 5.4 0 0 0-.44-2.27 3.44 3.44 0 0 0-3.16-2.04c-.74 0-1.4.2-1.97.57a3.8 3.8 0 0 0-1.35 1.54 4.81 4.81 0 0 0-.49 2.2c0 .83.17 1.58.5 2.23a3.8 3.8 0 0 0 1.34 1.54c.57.38 1.23.56 1.97.55a3.3 3.3 0 0 0 3.15-2.02c.3-.65.45-1.42.45-2.3Zm-10.6 0c0-.71-.14-1.34-.43-1.89a3.29 3.29 0 0 0-2.99-1.8c-.67.02-1.25.18-1.75.49-.5.3-.9.74-1.17 1.3a4.17 4.17 0 0 0-.42 1.9c0 .74.14 1.38.42 1.94a3.08 3.08 0 0 0 2.92 1.74 3.3 3.3 0 0 0 1.78-.45c.51-.32.91-.75 1.2-1.3.3-.57.44-1.2.44-1.93Zm.2-23h3.4v10.47h-3.4v-10.48Zm-9.94-13.75h23.27v4.21H520v.14l3.47 5.44h-3.86l-3.72-5.78v-4.01Zm0-15.38h23.27v4.22H520v.13l3.47 5.45h-3.86l-3.72-5.79v-4Z" />
    </g>
    <g data-object="Сокол__r__2379:1380">
      <rect width="140" height="59" x="498" y="140" fill="#78B500" rx="12"
        transform="rotate(-90 498 140)" />
      <path fill="#fff"
        d="M539.5 116.42h-23.28v-8.9c0-1.69.27-3.09.8-4.2a5.6 5.6 0 0 1 2.15-2.51c.9-.56 1.94-.84 3.09-.84a4.58 4.58 0 0 1 4.06 2.01c.41.61.71 1.3.9 2.06h.22a5.28 5.28 0 0 1 2.7-4.25 5.91 5.91 0 0 1 3.01-.73c1.2 0 2.3.3 3.25.87a6.05 6.05 0 0 1 2.27 2.64c.55 1.18.83 2.65.83 4.43v9.42Zm-3.53-4.21v-4.54c0-1.53-.29-2.63-.87-3.3a2.87 2.87 0 0 0-2.27-1.03 3.48 3.48 0 0 0-3.19 1.97 4.84 4.84 0 0 0-.49 2.25v4.65h6.82Zm-9.85 0v-4.17a4.7 4.7 0 0 0-.4-1.97 3.07 3.07 0 0 0-2.92-1.89c-.9 0-1.64.32-2.23.96-.58.63-.87 1.56-.87 2.8v4.27h6.42Zm13.7-24.86c0 1.69-.29 3.19-.86 4.5a7.5 7.5 0 0 1-2.33 3.06 5.49 5.49 0 0 1-3.37 1.1 5.6 5.6 0 0 1-2.7-.64 6.01 6.01 0 0 1-3.1-4.23h-.16a4.92 4.92 0 0 1-1.83 2.91 5.28 5.28 0 0 1-3.33 1.1 5.3 5.3 0 0 1-3.2-1 6.82 6.82 0 0 1-2.22-2.78 9.44 9.44 0 0 1-.82-4.02c0-1.5.28-2.83.82-4a6.82 6.82 0 0 1 2.22-2.77 5.3 5.3 0 0 1 3.2-1.02 5.26 5.26 0 0 1 5.16 4h.16a6.01 6.01 0 0 1 5.8-4.86 5.5 5.5 0 0 1 3.37 1.11 7.5 7.5 0 0 1 2.33 3.07 11 11 0 0 1 .85 4.47Zm-3.26 0c0-.88-.14-1.63-.44-2.28a3.44 3.44 0 0 0-3.16-2.05c-.74.02-1.4.2-1.96.59a3.8 3.8 0 0 0-1.36 1.53 4.83 4.83 0 0 0-.49 2.2c0 .84.17 1.58.5 2.23a3.9 3.9 0 0 0 1.35 1.55 3.4 3.4 0 0 0 1.96.54 3.3 3.3 0 0 0 3.15-2.02c.3-.65.45-1.42.45-2.3Zm-10.6 0c0-.72-.14-1.34-.43-1.89a3.3 3.3 0 0 0-2.99-1.8c-.67.01-1.25.17-1.75.48-.5.31-.9.74-1.17 1.3a4.16 4.16 0 0 0-.42 1.9c0 .74.14 1.39.42 1.95a3.08 3.08 0 0 0 2.92 1.74 3.4 3.4 0 0 0 1.79-.46c.5-.31.9-.75 1.2-1.3.29-.56.43-1.2.43-1.92Zm.2-23.01h3.4V74.8h-3.4V64.34Zm13.78-12.89c0 1.88-.48 3.48-1.42 4.82a9.04 9.04 0 0 1-4.13 3.08c-1.8.71-3.97 1.07-6.5 1.07-2.55 0-4.7-.37-6.49-1.08a8.9 8.9 0 0 1-4.09-3.08 8.16 8.16 0 0 1-1.4-4.8c0-1.87.46-3.47 1.4-4.81a8.8 8.8 0 0 1 4.1-3.08 17.35 17.35 0 0 1 6.47-1.08c2.55 0 4.72.36 6.52 1.08a8.87 8.87 0 0 1 4.12 3.08 8.08 8.08 0 0 1 1.42 4.8Zm-3.56 0c0-1.45-.71-2.6-2.15-3.44-1.44-.85-3.55-1.27-6.35-1.27-1.85 0-3.4.2-4.66.58-1.25.38-2.2.93-2.84 1.63a3.6 3.6 0 0 0-.96 2.5c0 1.45.72 2.6 2.16 3.44 1.43.84 3.53 1.26 6.3 1.27 1.86 0 3.42-.18 4.68-.56a6.26 6.26 0 0 0 2.87-1.63c.63-.7.95-1.55.95-2.52Zm3.43-21.26c0 1.11-.2 2.2-.58 3.26a7.66 7.66 0 0 1-1.87 2.86 9.21 9.21 0 0 1-3.47 2.03c-1.44.5-3.24.74-5.37.74-2 0-3.77-.22-5.33-.64a11.78 11.78 0 0 1-3.96-1.83 8.07 8.07 0 0 1-2.47-2.87 8.3 8.3 0 0 1-.86-3.79c0-1.46.3-2.76.87-3.89a7.32 7.32 0 0 1 5.73-4.04v4.15c-.9.2-1.61.64-2.14 1.3-.54.66-.8 1.48-.8 2.48 0 1.61.7 2.86 2.1 3.73 1.4.86 3.32 1.3 5.77 1.3v-.15a5.83 5.83 0 0 1-1.72-1.45 7.08 7.08 0 0 1-1.5-4.38 6.98 6.98 0 0 1 3.67-6.25 7.78 7.78 0 0 1 3.91-.95c1.53 0 2.9.34 4.13 1.05a7.59 7.59 0 0 1 2.86 2.94 8.85 8.85 0 0 1 1.03 4.4Zm-3.4.02c0-.82-.2-1.56-.6-2.21a4.36 4.36 0 0 0-1.63-1.55 4.55 4.55 0 0 0-2.3-.56c-.83 0-1.59.18-2.26.55a4.15 4.15 0 0 0-2.2 3.72 4.19 4.19 0 0 0 1.34 3.1 4.58 4.58 0 0 0 7.03-.83c.41-.65.62-1.4.62-2.22Z" />
    </g>
    <g data-object="Сокол__r__2379:1370">
      <rect width="144" height="53" x="195" y="144" fill="#78B500" rx="12"
        transform="rotate(-90 195 144)" />
      <path fill="#fff"
        d="M233.51 118.78h-23.27v-8.9c0-1.7.26-3.09.8-4.2a5.6 5.6 0 0 1 2.14-2.51 5.79 5.79 0 0 1 3.1-.84 4.59 4.59 0 0 1 4.06 2.01c.4.61.7 1.3.89 2.05h.23a5.28 5.28 0 0 1 2.7-4.25 5.91 5.91 0 0 1 3.01-.72c1.2 0 2.29.29 3.25.87a5.86 5.86 0 0 1 2.26 2.64c.56 1.17.83 2.65.83 4.43v9.42Zm-3.52-4.22v-4.53c0-1.53-.3-2.63-.88-3.3a2.87 2.87 0 0 0-2.27-1.03 3.48 3.48 0 0 0-3.18 1.97 4.83 4.83 0 0 0-.49 2.25v4.64H230Zm-9.85 0v-4.17a4.7 4.7 0 0 0-.4-1.96 3.07 3.07 0 0 0-2.92-1.89c-.9 0-1.64.32-2.23.96-.58.63-.87 1.56-.87 2.8v4.26h6.42Zm13.7-24.86c0 1.7-.3 3.2-.86 4.5a7.49 7.49 0 0 1-2.33 3.07c-1 .74-2.12 1.1-3.38 1.1-.97 0-1.87-.21-2.69-.64a6 6 0 0 1-3.1-4.23h-.16a4.92 4.92 0 0 1-1.83 2.9 5.28 5.28 0 0 1-3.33 1.1 5.3 5.3 0 0 1-3.2-1 6.83 6.83 0 0 1-2.22-2.77 9.45 9.45 0 0 1-.82-4.03c0-1.49.28-2.82.82-3.98a6.83 6.83 0 0 1 2.22-2.78 5.3 5.3 0 0 1 3.2-1.02c1.26 0 2.37.37 3.33 1.12a4.9 4.9 0 0 1 1.83 2.88h.16a6 6 0 0 1 5.8-4.86 5.5 5.5 0 0 1 3.37 1.11 7.49 7.49 0 0 1 2.33 3.07c.57 1.3.85 2.78.85 4.46Zm-3.26 0a5.4 5.4 0 0 0-.44-2.27 3.44 3.44 0 0 0-3.16-2.05c-.74.01-1.4.2-1.97.59a3.8 3.8 0 0 0-1.35 1.53 4.81 4.81 0 0 0-.49 2.2c0 .84.17 1.58.5 2.23a3.9 3.9 0 0 0 1.34 1.55c.57.37 1.23.55 1.97.54a3.3 3.3 0 0 0 3.15-2.02c.3-.65.45-1.42.45-2.3Zm-10.6 0c0-.7-.14-1.34-.43-1.88a3.29 3.29 0 0 0-3-1.8c-.66 0-1.24.17-1.74.48-.5.31-.9.74-1.17 1.3a4.17 4.17 0 0 0-.42 1.9c0 .74.14 1.39.42 1.95a3.08 3.08 0 0 0 2.92 1.74c.67 0 1.27-.15 1.78-.46.51-.32.91-.75 1.2-1.3.3-.57.44-1.2.44-1.93Zm.2-23h3.39v10.47h-3.39V66.7Zm13.78-12.89a8.2 8.2 0 0 1-1.42 4.82 9.05 9.05 0 0 1-4.13 3.08c-1.8.71-3.97 1.07-6.51 1.07a17.7 17.7 0 0 1-6.48-1.08 8.9 8.9 0 0 1-4.09-3.08 8.17 8.17 0 0 1-1.4-4.8 8.2 8.2 0 0 1 1.4-4.82 8.8 8.8 0 0 1 4.1-3.07 17.35 17.35 0 0 1 6.47-1.08c2.54 0 4.72.36 6.52 1.08a8.87 8.87 0 0 1 4.12 3.07 8.08 8.08 0 0 1 1.42 4.81Zm-3.56 0c0-1.45-.72-2.6-2.15-3.44-1.44-.85-3.56-1.27-6.35-1.27-1.85 0-3.4.19-4.66.58-1.26.38-2.2.93-2.84 1.63-.65.7-.97 1.54-.97 2.5 0 1.45.72 2.6 2.16 3.43 1.43.84 3.54 1.27 6.3 1.28 1.87 0 3.43-.18 4.7-.56a6.27 6.27 0 0 0 2.85-1.64c.64-.7.96-1.54.96-2.5Zm3.43-21.1c0 1.64-.28 3.1-.84 4.37a7.29 7.29 0 0 1-2.34 3 6.07 6.07 0 0 1-3.47 1.17v-4.27a2.83 2.83 0 0 0 1.65-.63c.46-.37.82-.88 1.08-1.5.26-.64.39-1.34.39-2.12a5.4 5.4 0 0 0-.44-2.22 3.57 3.57 0 0 0-1.22-1.5 3.03 3.03 0 0 0-1.8-.54 3.12 3.12 0 0 0-1.87.54 3.6 3.6 0 0 0-1.26 1.62c-.3.7-.46 1.53-.46 2.52v2.06H220v-2.06a5 5 0 0 0-.42-2.13 3.43 3.43 0 0 0-1.18-1.44 3.04 3.04 0 0 0-1.78-.51 3.1 3.1 0 0 0-1.72.44c-.5.3-.88.72-1.15 1.26a5 5 0 0 0-.02 3.88c.26.6.62 1.1 1.1 1.47a2.8 2.8 0 0 0 1.68.59v4.05a5.9 5.9 0 0 1-3.43-1.12 7.3 7.3 0 0 1-2.32-2.91 9.6 9.6 0 0 1-.84-4.08c0-1.55.3-2.9.88-4.05a6.6 6.6 0 0 1 2.33-2.67 5.86 5.86 0 0 1 3.24-.94c1.3 0 2.4.38 3.3 1.16a5.44 5.44 0 0 1 1.73 3.05h.18a5.9 5.9 0 0 1 1.82-3.77 5.21 5.21 0 0 1 3.65-1.3c1.3 0 2.47.37 3.5 1.11a7.38 7.38 0 0 1 2.4 3.05c.59 1.28.88 2.76.88 4.43Z" />
    </g>
    <g data-object="Сокол__r__2379:1362">
      <rect width="130" height="191" fill="#78B500" rx="12" />
      <path fill="#fff"
        d="M20.54 108.11V84.84h8.91a9.8 9.8 0 0 1 4.2.8 5.6 5.6 0 0 1 2.5 2.14c.57.91.85 1.94.85 3.1a4.59 4.59 0 0 1-2.01 4.06 6.2 6.2 0 0 1-2.06.89v.23a5.28 5.28 0 0 1 4.25 2.7c.48.82.73 1.83.73 3.01 0 1.2-.3 2.29-.88 3.25a5.95 5.95 0 0 1-2.64 2.26c-1.17.56-2.65.83-4.43.83h-9.42Zm4.22-3.52h4.53c1.53 0 2.63-.3 3.3-.88a2.87 2.87 0 0 0 1.03-2.27 3.48 3.48 0 0 0-1.96-3.18 4.83 4.83 0 0 0-2.25-.49h-4.65v6.82Zm0-9.85h4.17a4.7 4.7 0 0 0 1.96-.4 3.07 3.07 0 0 0 1.89-2.92c0-.9-.32-1.64-.95-2.23-.63-.58-1.57-.87-2.81-.87h-4.26v6.42Zm24.86 13.7c-1.7 0-3.2-.3-4.5-.86a7.49 7.49 0 0 1-3.07-2.33c-.73-1-1.1-2.12-1.1-3.38 0-.97.21-1.87.65-2.69a6 6 0 0 1 4.22-3.1v-.16a4.92 4.92 0 0 1-2.9-1.83 5.28 5.28 0 0 1-1.1-3.33c0-1.2.33-2.26 1-3.2a6.82 6.82 0 0 1 2.78-2.22 9.45 9.45 0 0 1 4.02-.82c1.5 0 2.82.27 3.99.82a6.82 6.82 0 0 1 2.77 2.22c.68.94 1.02 2 1.02 3.2 0 1.26-.37 2.37-1.12 3.33a4.91 4.91 0 0 1-2.88 1.83v.16a6 6 0 0 1 4.86 5.8c0 1.25-.37 2.38-1.1 3.37a7.49 7.49 0 0 1-3.08 2.33c-1.3.57-2.78.85-4.46.85Zm0-3.26c.87 0 1.63-.15 2.27-.44a3.6 3.6 0 0 0 1.5-1.27 3.55 3.55 0 0 0-.03-3.86 3.8 3.8 0 0 0-1.54-1.35 4.82 4.82 0 0 0-2.2-.49c-.84 0-1.58.17-2.23.5a3.8 3.8 0 0 0-1.54 1.34 3.45 3.45 0 0 0-.55 1.97 3.3 3.3 0 0 0 2.02 3.15c.65.3 1.42.45 2.3.45Zm0-10.6c.71 0 1.34-.14 1.88-.43a3.29 3.29 0 0 0 1.8-3c0-.66-.17-1.24-.48-1.74-.3-.5-.74-.9-1.3-1.17a4.17 4.17 0 0 0-1.9-.42 4.3 4.3 0 0 0-1.95.42 3.08 3.08 0 0 0-1.73 2.92c-.01.67.14 1.27.45 1.78.32.51.75.91 1.3 1.2.57.3 1.2.44 1.93.44Zm23 .2v3.39H62.16v-3.39h10.48Zm12.89 13.78a8.14 8.14 0 0 1-4.82-1.42 9.05 9.05 0 0 1-3.08-4.13 17.73 17.73 0 0 1-1.07-6.51c.01-2.54.37-4.7 1.08-6.48a8.9 8.9 0 0 1 3.08-4.09 8.16 8.16 0 0 1 4.81-1.4c1.86 0 3.47.46 4.8 1.4a8.8 8.8 0 0 1 3.09 4.1 17.35 17.35 0 0 1 1.08 6.47c0 2.54-.36 4.72-1.08 6.52a8.87 8.87 0 0 1-3.08 4.12 8.08 8.08 0 0 1-4.81 1.42Zm0-3.56c1.45 0 2.6-.72 3.44-2.15.85-1.44 1.28-3.56 1.28-6.35 0-1.85-.2-3.4-.58-4.66A6.18 6.18 0 0 0 88 89a3.58 3.58 0 0 0-2.5-.97c-1.45 0-2.6.72-3.43 2.16-.84 1.43-1.27 3.54-1.27 6.3a16.3 16.3 0 0 0 .55 4.7 6.27 6.27 0 0 0 1.64 2.86c.7.63 1.54.95 2.51.95Zm22.2-20.16v23.27h-4.2V88.94h-.15l-5.44 3.48v-3.86l5.79-3.72h4Z" />
    </g>
    <g data-object="Сокол__r__2379:1377">
      <rect width="111" height="179" x="380" fill="#78B500" rx="12" />
      <path fill="#fff"
        d="M388.58 102.15V78.88h8.9c1.7 0 3.09.26 4.2.8a5.6 5.6 0 0 1 2.51 2.14c.56.9.84 1.94.84 3.09a4.59 4.59 0 0 1-2.01 4.06 6.2 6.2 0 0 1-2.05.9v.22a5.28 5.28 0 0 1 4.25 2.7c.48.83.72 1.84.72 3.02a6.2 6.2 0 0 1-.87 3.25 5.95 5.95 0 0 1-2.64 2.26 10.4 10.4 0 0 1-4.43.83h-9.42Zm4.22-3.52h4.53c1.53 0 2.63-.3 3.3-.88a2.87 2.87 0 0 0 1.03-2.27 3.48 3.48 0 0 0-1.97-3.18 4.83 4.83 0 0 0-2.25-.5h-4.64v6.83Zm0-9.86h4.17a4.7 4.7 0 0 0 1.96-.4 3.07 3.07 0 0 0 1.89-2.92c0-.9-.32-1.64-.96-2.22-.63-.59-1.56-.88-2.8-.88h-4.26v6.42Zm24.86 13.7c-1.7 0-3.2-.29-4.5-.86a7.5 7.5 0 0 1-3.07-2.33 5.47 5.47 0 0 1-1.1-3.37c0-.98.21-1.88.64-2.7a6 6 0 0 1 4.23-3.1v-.16a4.92 4.92 0 0 1-2.9-1.82 5.28 5.28 0 0 1-1.1-3.33c0-1.2.33-2.27 1-3.2a6.82 6.82 0 0 1 2.77-2.22 9.44 9.44 0 0 1 4.03-.82 9.2 9.2 0 0 1 3.98.82 6.82 6.82 0 0 1 2.78 2.21c.68.94 1.02 2 1.02 3.2a5.3 5.3 0 0 1-1.12 3.34 4.91 4.91 0 0 1-2.88 1.82v.16a6 6 0 0 1 4.86 5.8 5.5 5.5 0 0 1-1.1 3.37 7.5 7.5 0 0 1-3.08 2.33c-1.3.57-2.78.86-4.46.86Zm0-3.25a5.4 5.4 0 0 0 2.27-.45c.64-.3 1.14-.72 1.5-1.27a3.53 3.53 0 0 0-.03-3.85 3.8 3.8 0 0 0-1.54-1.35 4.82 4.82 0 0 0-2.2-.5c-.84 0-1.58.17-2.23.5a3.9 3.9 0 0 0-1.55 1.35 3.45 3.45 0 0 0-.54 1.96 3.31 3.31 0 0 0 2.02 3.15c.65.3 1.42.46 2.3.46Zm0-10.6c.7 0 1.34-.15 1.88-.44a3.3 3.3 0 0 0 1.8-2.99c0-.66-.17-1.25-.48-1.75-.31-.5-.74-.9-1.3-1.17a4.17 4.17 0 0 0-1.9-.42 4.3 4.3 0 0 0-1.95.42 3.08 3.08 0 0 0-1.73 2.92c-.01.68.14 1.27.45 1.79.32.5.75.9 1.3 1.2.57.29 1.2.43 1.93.43Zm23 .2v3.38H430.2v-3.38h10.48Zm12.89 13.77a8.14 8.14 0 0 1-4.82-1.42 9.05 9.05 0 0 1-3.08-4.12 17.74 17.74 0 0 1-1.07-6.52c.01-2.53.37-4.7 1.08-6.47a8.9 8.9 0 0 1 3.08-4.1 8.16 8.16 0 0 1 4.8-1.4c1.87 0 3.47.47 4.81 1.4a8.8 8.8 0 0 1 3.08 4.1 17.34 17.34 0 0 1 1.08 6.47c0 2.55-.36 4.72-1.07 6.53a8.87 8.87 0 0 1-3.08 4.11 8.08 8.08 0 0 1-4.81 1.42Zm0-3.56c1.45 0 2.6-.71 3.44-2.14.85-1.44 1.27-3.56 1.27-6.36 0-1.84-.19-3.4-.57-4.65a6.18 6.18 0 0 0-1.64-2.85 3.58 3.58 0 0 0-2.5-.96c-1.45 0-2.6.72-3.43 2.16-.84 1.43-1.27 3.53-1.28 6.3 0 1.86.18 3.42.56 4.69a6.27 6.27 0 0 0 1.64 2.86c.7.64 1.54.95 2.5.95Zm20.83 3.44a9.38 9.38 0 0 1-4.07-.86 7.26 7.26 0 0 1-2.85-2.36c-.7-1-1.07-2.14-1.11-3.43h4.09c.07.95.49 1.73 1.24 2.34.75.6 1.65.9 2.7.9a4.07 4.07 0 0 0 3.73-2.15 4.6 4.6 0 0 0 .54-2.3 4.62 4.62 0 0 0-.55-2.35 4.17 4.17 0 0 0-1.56-1.6 4.3 4.3 0 0 0-2.27-.6c-.7 0-1.38.13-2.06.4-.67.26-1.2.6-1.6 1.04l-3.8-.62 1.2-12h13.5v3.52h-10l-.68 6.17h.14a4.8 4.8 0 0 1 1.83-1.26 6.46 6.46 0 0 1 2.6-.51 7.16 7.16 0 0 1 6.38 3.72 8.1 8.1 0 0 1 .95 3.98 7.56 7.56 0 0 1-4.01 6.94 8.92 8.92 0 0 1-4.34 1.03Z" />
    </g>
    <g data-object="Сокол__r__2379:1387">
      <rect width="130" height="191" x="617" fill="#78B500" rx="12" />
      <path fill="#fff"
        d="M635.4 108.11V84.84h8.91a9.8 9.8 0 0 1 4.2.8 5.6 5.6 0 0 1 2.5 2.14c.57.91.85 1.94.85 3.1a4.59 4.59 0 0 1-2.01 4.06 6.2 6.2 0 0 1-2.06.89v.23a5.28 5.28 0 0 1 4.25 2.7c.48.82.72 1.83.72 3.01 0 1.2-.29 2.29-.87 3.25a5.95 5.95 0 0 1-2.64 2.26c-1.17.56-2.65.83-4.43.83h-9.42Zm4.22-3.52h4.53c1.53 0 2.63-.3 3.3-.88a2.87 2.87 0 0 0 1.03-2.27 3.48 3.48 0 0 0-1.97-3.18 4.83 4.83 0 0 0-2.25-.49h-4.64v6.82Zm0-9.85h4.17a4.7 4.7 0 0 0 1.96-.4 3.07 3.07 0 0 0 1.89-2.92c0-.9-.32-1.64-.96-2.23-.62-.58-1.56-.87-2.8-.87h-4.26v6.42Zm24.86 13.7c-1.7 0-3.2-.3-4.5-.86a7.49 7.49 0 0 1-3.07-2.33c-.74-1-1.1-2.12-1.1-3.38 0-.97.21-1.87.65-2.69a6 6 0 0 1 4.22-3.1v-.16a4.92 4.92 0 0 1-2.9-1.83 5.28 5.28 0 0 1-1.1-3.33c0-1.2.33-2.26 1-3.2a6.82 6.82 0 0 1 2.78-2.22 9.45 9.45 0 0 1 4.02-.82c1.49 0 2.82.27 3.99.82a6.82 6.82 0 0 1 2.77 2.22c.68.94 1.02 2 1.02 3.2 0 1.26-.37 2.37-1.12 3.33a4.91 4.91 0 0 1-2.88 1.83v.16a6 6 0 0 1 4.86 5.8c0 1.25-.37 2.38-1.1 3.37a7.5 7.5 0 0 1-3.08 2.33c-1.3.57-2.78.85-4.46.85Zm0-3.26c.87 0 1.63-.15 2.27-.44a3.6 3.6 0 0 0 1.5-1.27 3.55 3.55 0 0 0-.03-3.86 3.8 3.8 0 0 0-1.54-1.35 4.82 4.82 0 0 0-2.2-.49c-.84 0-1.58.17-2.23.5a3.9 3.9 0 0 0-1.54 1.34 3.45 3.45 0 0 0-.55 1.97 3.3 3.3 0 0 0 2.02 3.15c.65.3 1.42.45 2.3.45Zm0-10.6c.71 0 1.34-.14 1.88-.43a3.29 3.29 0 0 0 1.8-3c0-.66-.17-1.24-.48-1.74-.3-.5-.74-.9-1.3-1.17a4.17 4.17 0 0 0-1.9-.42 4.3 4.3 0 0 0-1.95.42 3.08 3.08 0 0 0-1.73 2.92c-.01.67.14 1.27.45 1.78.32.51.75.91 1.3 1.2.57.3 1.2.44 1.93.44Zm23 .2v3.39h-10.47v-3.39h10.48Zm12.89 13.78a8.14 8.14 0 0 1-4.82-1.42 9.06 9.06 0 0 1-3.08-4.13 17.74 17.74 0 0 1-1.07-6.51c.01-2.54.37-4.7 1.08-6.48a8.9 8.9 0 0 1 3.08-4.09 8.16 8.16 0 0 1 4.81-1.4c1.86 0 3.47.46 4.8 1.4a8.8 8.8 0 0 1 3.09 4.1 17.34 17.34 0 0 1 1.08 6.47c0 2.54-.36 4.72-1.08 6.52a8.87 8.87 0 0 1-3.08 4.12 8.08 8.08 0 0 1-4.81 1.42Zm0-3.56c1.45 0 2.6-.72 3.44-2.15.85-1.44 1.28-3.56 1.28-6.35 0-1.85-.2-3.4-.58-4.66a6.18 6.18 0 0 0-1.64-2.84 3.58 3.58 0 0 0-2.5-.97c-1.45 0-2.6.72-3.43 2.16-.84 1.43-1.27 3.54-1.28 6.3 0 1.87.18 3.43.56 4.7a6.27 6.27 0 0 0 1.64 2.86c.7.63 1.54.95 2.51.95Zm21.01 3.43c-1.69 0-3.19-.28-4.5-.85a7.48 7.48 0 0 1-3.06-2.33c-.74-1-1.1-2.12-1.1-3.38 0-.97.2-1.87.64-2.69a6 6 0 0 1 4.23-3.1v-.16a4.92 4.92 0 0 1-2.91-1.83 5.28 5.28 0 0 1-1.1-3.33c0-1.2.33-2.26 1-3.2a6.83 6.83 0 0 1 2.78-2.22 9.45 9.45 0 0 1 4.02-.82c1.5 0 2.83.27 4 .82a6.82 6.82 0 0 1 2.76 2.22c.69.94 1.03 2 1.03 3.2 0 1.26-.38 2.37-1.13 3.33a4.91 4.91 0 0 1-2.87 1.83v.16a6 6 0 0 1 4.86 5.8 5.5 5.5 0 0 1-1.11 3.37 7.5 7.5 0 0 1-3.07 2.33 11 11 0 0 1-4.47.85Zm0-3.25a5.4 5.4 0 0 0 2.28-.44 3.44 3.44 0 0 0 2.05-3.16c-.02-.74-.2-1.4-.59-1.97a3.8 3.8 0 0 0-1.53-1.35 4.81 4.81 0 0 0-2.2-.49c-.84 0-1.58.17-2.23.5a3.9 3.9 0 0 0-1.55 1.34 3.45 3.45 0 0 0-.54 1.97 3.3 3.3 0 0 0 2.02 3.15c.65.3 1.41.45 2.3.45Zm0-10.6c.72 0 1.35-.14 1.89-.43a3.29 3.29 0 0 0 1.8-3 3.33 3.33 0 0 0-.48-1.74c-.31-.5-.74-.9-1.3-1.17a4.17 4.17 0 0 0-1.9-.42 4.3 4.3 0 0 0-1.95.42 3.08 3.08 0 0 0-1.74 2.92c0 .67.15 1.27.46 1.78.32.51.75.91 1.3 1.2a4 4 0 0 0 1.92.44Z" />
    </g>
    <g data-object="Сокол__r__2379:1390">
      <rect width="130" height="189" x="617" y="384" fill="#78B500" rx="12" />
      <path fill="#fff"
        d="M635.35 490.45v-23.27h8.91c1.69 0 3.08.26 4.2.8a5.61 5.61 0 0 1 2.5 2.14c.57.91.85 1.94.85 3.1a4.58 4.58 0 0 1-2.01 4.06 6.2 6.2 0 0 1-2.06.89v.22a5.34 5.34 0 0 1 4.25 2.7c.49.83.73 1.84.73 3.02 0 1.2-.3 2.29-.88 3.25a5.96 5.96 0 0 1-2.63 2.26 10.4 10.4 0 0 1-4.44.83h-9.42Zm4.22-3.52h4.53c1.53 0 2.64-.3 3.31-.88a2.87 2.87 0 0 0 1.02-2.27 3.48 3.48 0 0 0-1.96-3.18 4.83 4.83 0 0 0-2.25-.49h-4.65v6.82Zm0-9.85h4.17c.73 0 1.38-.13 1.97-.4a3.07 3.07 0 0 0 1.89-2.92c0-.9-.33-1.64-.96-2.23-.63-.58-1.57-.87-2.8-.87h-4.27v6.42Zm24.86 13.69c-1.69 0-3.19-.28-4.5-.85a7.5 7.5 0 0 1-3.07-2.33 5.5 5.5 0 0 1-1.09-3.38c0-.97.2-1.87.64-2.69a6 6 0 0 1 4.23-3.1v-.16a4.92 4.92 0 0 1-2.91-1.83 5.28 5.28 0 0 1-1.1-3.33c0-1.2.33-2.27 1-3.2a6.83 6.83 0 0 1 2.78-2.22 9.45 9.45 0 0 1 4.02-.82c1.5 0 2.82.27 3.99.82a6.82 6.82 0 0 1 2.77 2.21 5.34 5.34 0 0 1 1.02 3.21c0 1.26-.37 2.37-1.12 3.33a4.91 4.91 0 0 1-2.88 1.83v.16a6 6 0 0 1 4.86 5.8 5.5 5.5 0 0 1-1.1 3.37 7.5 7.5 0 0 1-3.07 2.33c-1.3.57-2.79.85-4.47.85Zm0-3.25a5.4 5.4 0 0 0 2.27-.44 3.44 3.44 0 0 0 2.05-3.16c0-.74-.2-1.4-.58-1.97a3.8 3.8 0 0 0-1.53-1.35 4.81 4.81 0 0 0-2.2-.49c-.84 0-1.59.16-2.24.49a3.9 3.9 0 0 0-1.54 1.35 3.45 3.45 0 0 0-.55 1.97 3.3 3.3 0 0 0 2.02 3.15c.66.3 1.42.45 2.3.45Zm0-10.6c.71 0 1.34-.15 1.89-.43a3.29 3.29 0 0 0 1.8-3 3.25 3.25 0 0 0-1.78-2.91 4.17 4.17 0 0 0-1.9-.42 4.3 4.3 0 0 0-1.95.42 3.08 3.08 0 0 0-1.74 2.92c0 .67.14 1.27.45 1.78.32.5.76.91 1.31 1.2a4 4 0 0 0 1.92.44Zm23 .2v3.39h-10.47v-3.39h10.48Zm12.9 13.77a8.14 8.14 0 0 1-4.83-1.41 9.06 9.06 0 0 1-3.08-4.13 17.74 17.74 0 0 1-1.06-6.51c0-2.54.36-4.7 1.08-6.48a8.91 8.91 0 0 1 3.08-4.09 8.17 8.17 0 0 1 4.8-1.4 8.1 8.1 0 0 1 4.8 1.4 8.8 8.8 0 0 1 3.09 4.1 17.34 17.34 0 0 1 1.08 6.47c0 2.54-.36 4.72-1.08 6.52a8.87 8.87 0 0 1-3.08 4.12 8.08 8.08 0 0 1-4.8 1.41Zm0-3.55c1.45 0 2.6-.72 3.44-2.15.84-1.44 1.27-3.56 1.27-6.35 0-1.85-.2-3.4-.58-4.66a6.18 6.18 0 0 0-1.64-2.84 3.58 3.58 0 0 0-2.5-.97c-1.44 0-2.59.72-3.43 2.16-.84 1.43-1.26 3.54-1.27 6.3 0 1.87.18 3.43.55 4.69a6.27 6.27 0 0 0 1.64 2.86c.7.64 1.54.96 2.51.96Zm20.81-20.48c1.12 0 2.2.2 3.25.6 1.06.37 2.02 1 2.87 1.86a9 9 0 0 1 2.02 3.44c.5 1.44.75 3.22.75 5.34 0 2-.2 3.79-.64 5.36a11.92 11.92 0 0 1-1.83 3.98 8.07 8.07 0 0 1-2.87 2.48 8.25 8.25 0 0 1-3.79.85 8.54 8.54 0 0 1-3.9-.86 7.35 7.35 0 0 1-4.03-5.8h4.15c.21.93.64 1.66 1.3 2.2a3.8 3.8 0 0 0 2.49.81c1.6 0 2.85-.7 3.72-2.1.87-1.4 1.3-3.35 1.3-5.84h-.15a5.97 5.97 0 0 1-3.45 2.83c-.75.26-1.54.38-2.37.38a7.04 7.04 0 0 1-6.26-3.65 8 8 0 0 1-.95-3.9 8 8 0 0 1 1.04-4.08 7.6 7.6 0 0 1 2.95-2.87 8.71 8.71 0 0 1 4.4-1.03Zm.01 3.41a4.17 4.17 0 0 0-3.76 2.22 4.75 4.75 0 0 0 0 4.51 4.14 4.14 0 0 0 3.72 2.2 4.2 4.2 0 0 0 3.1-1.34 4.64 4.64 0 0 0 1.26-3.15c0-.8-.19-1.53-.57-2.2a4.39 4.39 0 0 0-1.53-1.63 4.05 4.05 0 0 0-2.22-.61Z" />
    </g>
    <g data-object="Сокол__r__2379:1374">
      <rect width="119" height="179" x="255" fill="#78B500" rx="12" />
      <path fill="#fff"
        d="M266.93 102.15V78.88h8.9a9.6 9.6 0 0 1 4.2.8 5.6 5.6 0 0 1 2.51 2.14c.56.9.84 1.94.84 3.09a4.58 4.58 0 0 1-2.01 4.06 6.2 6.2 0 0 1-2.06.9v.22a5.27 5.27 0 0 1 4.25 2.7c.49.83.73 1.84.73 3.02 0 1.2-.3 2.28-.87 3.25a5.96 5.96 0 0 1-2.64 2.26 10.4 10.4 0 0 1-4.43.83h-9.42Zm4.21-3.52h4.54c1.53 0 2.63-.3 3.3-.88a2.87 2.87 0 0 0 1.03-2.27 3.48 3.48 0 0 0-1.97-3.18 4.83 4.83 0 0 0-2.25-.5h-4.65v6.83Zm0-9.86h4.17a4.7 4.7 0 0 0 1.97-.4 3.07 3.07 0 0 0 1.89-2.92c0-.9-.32-1.64-.96-2.22-.63-.59-1.56-.88-2.8-.88h-4.27v6.42Zm24.86 13.7c-1.69 0-3.19-.29-4.5-.86a7.49 7.49 0 0 1-3.06-2.33 5.47 5.47 0 0 1-1.1-3.37c0-.98.2-1.88.64-2.7a6 6 0 0 1 4.23-3.1v-.16a4.92 4.92 0 0 1-2.91-1.82 5.28 5.28 0 0 1-1.1-3.33c0-1.2.33-2.27 1-3.2a6.83 6.83 0 0 1 2.78-2.22 9.44 9.44 0 0 1 4.02-.82c1.5 0 2.83.27 4 .82a6.82 6.82 0 0 1 2.76 2.21c.69.94 1.03 2 1.03 3.2a5.3 5.3 0 0 1-1.13 3.34 4.91 4.91 0 0 1-2.87 1.82v.16a6 6 0 0 1 4.86 5.8 5.5 5.5 0 0 1-1.11 3.37 7.5 7.5 0 0 1-3.07 2.33 11 11 0 0 1-4.47.86Zm0-3.25a5.4 5.4 0 0 0 2.28-.45c.64-.3 1.14-.72 1.5-1.27.35-.55.53-1.17.54-1.89 0-.74-.2-1.4-.58-1.96a3.8 3.8 0 0 0-1.53-1.35 4.81 4.81 0 0 0-2.2-.5 4.9 4.9 0 0 0-2.23.5c-.65.32-1.17.77-1.55 1.35a3.44 3.44 0 0 0-.54 1.96 3.3 3.3 0 0 0 2.02 3.15c.65.3 1.42.46 2.3.46Zm0-10.6c.72 0 1.35-.15 1.89-.44a3.29 3.29 0 0 0 1.8-2.99 3.37 3.37 0 0 0-.48-1.75c-.31-.5-.74-.9-1.3-1.17a4.17 4.17 0 0 0-1.9-.42 4.3 4.3 0 0 0-1.95.42 3.08 3.08 0 0 0-1.74 2.92c0 .68.15 1.27.46 1.79.32.5.75.9 1.3 1.2.56.29 1.2.43 1.92.43Zm23.01.2v3.38h-10.47v-3.38H319Zm12.89 13.77a8.14 8.14 0 0 1-4.82-1.42 9.05 9.05 0 0 1-3.08-4.12 17.74 17.74 0 0 1-1.07-6.52c0-2.53.37-4.7 1.08-6.47a8.91 8.91 0 0 1 3.08-4.1 8.16 8.16 0 0 1 4.8-1.4c1.87 0 3.47.47 4.81 1.4a8.8 8.8 0 0 1 3.08 4.1 17.34 17.34 0 0 1 1.08 6.47c0 2.55-.36 4.72-1.08 6.53a8.87 8.87 0 0 1-3.08 4.11 8.09 8.09 0 0 1-4.8 1.42Zm0-3.56c1.45 0 2.6-.71 3.44-2.14.85-1.44 1.27-3.56 1.27-6.36 0-1.84-.2-3.4-.58-4.65a6.18 6.18 0 0 0-1.63-2.85 3.58 3.58 0 0 0-2.5-.96c-1.45 0-2.6.72-3.44 2.16-.84 1.43-1.26 3.53-1.27 6.3 0 1.86.18 3.42.56 4.69a6.27 6.27 0 0 0 1.63 2.86c.7.64 1.55.95 2.52.95Zm12.32-1.2v-3.35l9.87-15.6h2.8v4.77h-1.7l-6.65 10.53v.18h13.78v3.47h-18.1Zm11.1 4.32V96.8l.05-1.5V78.88h3.97v23.27h-4.02Z" />
    </g>
    <g data-object="Сокол__t__2379:1353">
      <rect width="48" height="57" x="491" y="287" fill="#60A5FA" rx="12"
        transform="rotate(90 491 287)" />
      <g fill="#fff" clip-path="url(#a)">
        <path
          d="M476 311a5.25 5.25 0 1 0 10.5 0 5.25 5.25 0 0 0-10.5 0Zm-1.5 4.5v-9a6.01 6.01 0 0 0-6-6h-10.08a1.9 1.9 0 0 0-1.92 1.8 1.88 1.88 0 0 0 1.88 1.95h9.35a.77.77 0 0 1 .77.7.74.74 0 0 1-.45.74.8.8 0 0 1-.3.06h-27.1a2.15 2.15 0 1 0 0 4.31h13.38a.96.96 0 0 1 .97.88.93.93 0 0 1-.94 1h-13.4a2.15 2.15 0 1 0 0 4.31h27.06a.77.77 0 0 1 .78.7.74.74 0 0 1-.45.74.8.8 0 0 1-.3.06h-9.33a1.9 1.9 0 0 0-1.92 1.8 1.88 1.88 0 0 0 1.88 1.95h10.12a6.01 6.01 0 0 0 6-6Z" />
      </g>
    </g>
    <g data-object="Сокол__t__2379:1345">
      <rect width="48" height="57" x="491" y="236" fill="#60A5FA" rx="12"
        transform="rotate(90 491 236)" />
      <g fill="#fff" clip-path="url(#b)">
        <path
          d="M476 259.98a5.25 5.25 0 1 0 10.5 0 5.25 5.25 0 0 0-10.5 0ZM460.45 273l3.22-.97h.01l7.02-2.1v-.01l.8-.24a4.2 4.2 0 0 0 3-4.03V254.4a4.2 4.2 0 0 0-3-4.03l-.8-.24-7.02-2.1-3.23-.98a1.87 1.87 0 1 0-1.12 3.58l7.99 2.4.68.2a.75.75 0 0 1 .48.83.75.75 0 0 1-.73.63.7.7 0 0 1-.15-.02l-13.67-4.1a1.48 1.48 0 0 0-1.32.24 1.5 1.5 0 0 0-.61 1.2v2.72h-10.75c-1.55 0-2.75.98-2.75 2.25 0 1.26 1.2 2.25 2.75 2.25H452v1.5h-10.75c-1.55 0-2.75.98-2.75 2.25 0 1.26 1.2 2.25 2.75 2.25H452v2.8a1.51 1.51 0 0 0 .6 1.21 1.5 1.5 0 0 0 1.33.24l13.67-4.1.15-.02a.75.75 0 0 1 .74.63.75.75 0 0 1-.5.83l-.67.2-8 2.4a1.87 1.87 0 0 0-1.23 2.4 1.9 1.9 0 0 0 2.36 1.18Z" />
      </g>
    </g>
    <g data-object="Сокол__e__2379:1326">
      <rect width="50" height="99" x="381" y="236" fill="#fff" rx="12" />
      <g>
        <g>
          <mask id="c" fill="#fff">
            <path
              d="M382 255.5a3 3 0 0 1 3-3h42a3 3 0 0 1 3 3v59a3 3 0 0 1-3 3h-42a3 3 0 0 1-3-3v-59Z" />
          </mask>
          <path fill="#000"
            d="M379 255.5a6 6 0 0 1 6-6h52a6 6 0 0 1 6 6h-64Zm64 59a6 6 0 0 1-6 6h-52a6 6 0 0 1-6-6h64Zm-58 6a6 6 0 0 1-6-6v-59a6 6 0 0 1 6-6v71Zm52-71a6 6 0 0 1 6 6v59a6 6 0 0 1-6 6l-20-6v-59l20-6Z"
            mask="url(#c)" />
        </g>
        <path fill="#fff"
          d="m421.71 279.7.8-.8v4.6a1 1 0 1 0 1.99 0v-4.6l.79.8a.99.99 0 0 0 1.09.23 1 1 0 0 0 .32-1.64l-2.5-2.5a.87.87 0 0 0-.32-.22 1 1 0 0 0-.76 0 1 1 0 0 0-.33.22l-2.5 2.5a1 1 0 0 0 1.42 1.42Zm3.58 11.59-.8.8v-4.6a1 1 0 1 0-1.99 0v4.6l-.79-.8a1.01 1.01 0 0 0-1.1-.22 1.01 1.01 0 0 0-.53 1.31c.05.13.12.24.21.33l2.5 2.5c.1.1.2.16.33.21a.93.93 0 0 0 .76 0c.12-.05.23-.12.33-.21l2.5-2.5a1 1 0 0 0-1.42-1.42Z" />
        <path fill="#000"
          d="M400.5 273a5.25 5.25 0 1 0 0-10.5 5.25 5.25 0 0 0 0 10.5Zm4.5 0h-9a6.01 6.01 0 0 0-6 6v10.08a1.9 1.9 0 0 0 1.8 1.92 1.88 1.88 0 0 0 1.95-1.88v-9.35a.77.77 0 0 1 .7-.77.74.74 0 0 1 .74.45c.04.1.06.2.06.3v27.1a2.15 2.15 0 1 0 4.31 0v-13.38a.96.96 0 0 1 .88-.97.93.93 0 0 1 1 .94v13.4a2.15 2.15 0 1 0 4.31 0v-27.06a.77.77 0 0 1 .7-.78.74.74 0 0 1 .74.45c.04.1.06.2.06.3v9.33a1.9 1.9 0 0 0 1.8 1.92 1.88 1.88 0 0 0 1.95-1.88V279a6.01 6.01 0 0 0-6-6Z" />
      </g>
    </g>
    <g data-object="Сокол__e__2379:1320">
      <rect width="100" height="105" x="205" y="233" fill="#fff" rx="12" />
      <g>
        <g>
          <mask id="d" fill="#fff">
            <path
              d="M231 255.5a3 3 0 0 1 3-3h42a3 3 0 0 1 3 3v59a3 3 0 0 1-3 3h-42a3 3 0 0 1-3-3v-59Z" />
          </mask>
          <path fill="#000"
            d="M228 255.5a6 6 0 0 1 6-6h52a6 6 0 0 1 6 6h-64Zm64 59a6 6 0 0 1-6 6h-52a6 6 0 0 1-6-6h64Zm-58 6a6 6 0 0 1-6-6v-59a6 6 0 0 1 6-6v71Zm52-71a6 6 0 0 1 6 6v59a6 6 0 0 1-6 6l-20-6v-59l20-6Z"
            mask="url(#d)" />
        </g>
        <path fill="#fff"
          d="m270.71 279.7.8-.8v4.6a1 1 0 1 0 1.99 0v-4.6l.79.8a.99.99 0 0 0 1.09.23 1 1 0 0 0 .32-1.64l-2.5-2.5a.87.87 0 0 0-.32-.22 1 1 0 0 0-.76 0 1 1 0 0 0-.33.22l-2.5 2.5a1 1 0 0 0 1.42 1.42Zm3.58 11.59-.8.8v-4.6a1 1 0 1 0-1.99 0v4.6l-.79-.8a1.01 1.01 0 0 0-1.1-.22 1.01 1.01 0 0 0-.53 1.31c.05.13.12.24.21.33l2.5 2.5c.1.1.2.16.33.21a.93.93 0 0 0 .76 0c.12-.05.23-.12.33-.21l2.5-2.5a1 1 0 0 0-1.42-1.42Z" />
        <path fill="#000"
          d="M249.5 273a5.25 5.25 0 1 0 0-10.5 5.25 5.25 0 0 0 0 10.5Zm4.5 0h-9a6.01 6.01 0 0 0-6 6v10.08a1.9 1.9 0 0 0 1.8 1.92 1.88 1.88 0 0 0 1.95-1.88v-9.35a.77.77 0 0 1 .7-.77.74.74 0 0 1 .74.45c.04.1.06.2.06.3v27.1a2.15 2.15 0 1 0 4.31 0v-13.38a.96.96 0 0 1 .88-.97.93.93 0 0 1 1 .94v13.4a2.15 2.15 0 1 0 4.31 0v-27.06a.77.77 0 0 1 .7-.78.74.74 0 0 1 .74.45c.04.1.06.2.06.3v9.33a1.9 1.9 0 0 0 1.8 1.92 1.88 1.88 0 0 0 1.95-1.88V279a6.01 6.01 0 0 0-6-6Z" />
      </g>
    </g>
    <g data-object="Сокол__s__2369:1280">
      <rect width="130" height="171" y="203" fill="#fff" rx="12" />
      <g>
        <path fill="#000"
          d="M87.45 271.5h-7.49v7.5c0 .13-.01.22-.04.28a1.48 1.48 0 0 1-1.46 1.22h-7.49v7.5c0 .13-.01.22-.05.28a1.48 1.48 0 0 1-1.45 1.22h-7.49v7.5c0 .13-.02.22-.05.28a1.48 1.48 0 0 1-1.45 1.22h-7.5v7.5c0 .13 0 .22-.04.28a1.48 1.48 0 0 1-1.45 1.22h-9c-.4 0-.75-.15-1.05-.44a1.5 1.5 0 0 1 0-2.12c.3-.3.65-.44 1.06-.44H50V297c0-.13 0-.22.04-.28.06-.35.23-.63.51-.87.28-.23.6-.35.94-.35h7.5V288c0-.13 0-.22.04-.28.06-.35.23-.63.51-.87.29-.23.6-.35.94-.35h7.5V279c0-.1 0-.19.04-.28.06-.35.23-.63.52-.87.28-.23.59-.35.93-.35h7.5V270c0-.13.01-.22.04-.28a1.48 1.48 0 0 1 1.45-1.22h9c.4 0 .75.15 1.05.44a1.5 1.5 0 0 1 0 2.12c-.3.3-.65.44-1.06.44Z" />
      </g>
    </g>
    <g data-object="Сокол__s__2379:1358">
      <rect width="128" height="134" x="619" y="240" fill="#fff" rx="12" />
      <g>
        <path fill="#000"
          d="M705.46 290h-7.5v7.5c0 .13-.01.22-.05.28a1.47 1.47 0 0 1-1.45 1.22h-7.49v7.5c0 .13-.01.22-.05.28a1.48 1.48 0 0 1-1.45 1.22h-7.49v7.5c0 .13-.02.22-.05.28-.06.35-.22.63-.49.87a1.4 1.4 0 0 1-.96.35h-7.5v7.5c0 .13 0 .22-.04.28a1.48 1.48 0 0 1-1.45 1.22h-9c-.4 0-.75-.15-1.04-.44-.3-.3-.45-.65-.45-1.06 0-.4.15-.76.45-1.06.3-.3.64-.44 1.05-.44h7.5v-7.5c0-.13 0-.22.04-.28.06-.35.23-.63.51-.87.28-.23.6-.35.94-.35h7.5v-7.5c0-.13 0-.22.04-.28.06-.35.23-.63.51-.87.29-.23.6-.35.94-.35h7.5v-7.5c0-.1 0-.19.04-.28.06-.35.24-.63.52-.87.28-.23.59-.35.93-.35h7.5v-7.5c0-.13.01-.22.04-.28a1.48 1.48 0 0 1 1.45-1.22h9c.4 0 .75.15 1.05.44a1.5 1.5 0 0 1 0 2.12c-.3.3-.65.44-1.05.44Z" />
      </g>
    </g>
  </g>
  <defs>
    <clipPath id="a">
      <path fill="#fff" d="M486.5 287v48h-48v-48z" />
    </clipPath>
    <clipPath id="b">
      <path fill="#fff" d="M486.5 236v48h-48v-48z" />
    </clipPath>
  </defs>
</svg>