<svg xmlns="http://www.w3.org/2000/svg" width="745" height="572" fill="none" viewBox="0 0 745 572">
  <g>
    <g>
      <path fill="#262A34"
        d="M498.5 416a12 12 0 0 0 12 12h88a12 12 0 0 0 12-12V240.5a12 12 0 0 1 12-12h110a12 12 0 0 0 12-12V210a12 12 0 0 0-12-12h-110a12 12 0 0 1-12-12v-33.5a12 12 0 0 0-12-12H509a12 12 0 0 0-12 12V169a12 12 0 0 1-12 12H260.71a12 12 0 0 1-12-12v-14a12 12 0 0 0-12-12H148.5a12 12 0 0 0-12 12v263a12 12 0 0 0 12 12h88.21a12 12 0 0 0 12-12v-38a12 12 0 0 1 12-12H486.5a12 12 0 0 1 12 12v36Z" />
    </g>
    <g>
      <rect width="5" height="19" x="610" y="149" fill="#262A34" rx="2.5" />
    </g>
    <g>
      <rect width="26" height="14" x="155" y="133" fill="#262A34" rx="3" />
    </g>
    <g>
      <rect width="26" height="14" x="572" y="423" fill="#262A34" rx="3" />
    </g>
    <g>
      <rect width="4" height="16" x="133" y="158" fill="#262A34" rx="2" />
    </g>
    <g>
      <rect width="26" height="11" x="147" y="427" fill="#262A34" rx="3" />
    </g>
    <g>
      <rect width="26" height="15" x="572" y="131" fill="#262A34" rx="3" />
    </g>
    <g>
      <rect width="14" height="19" x="242" y="148" fill="#262A34" rx="3" />
    </g>
    <g>
      <rect width="4" height="17" x="611" y="400" fill="#262A34" rx="2" />
    </g>
    <g>
      <rect width="12" height="17" x="606" y="400" fill="#262A34" rx="3" />
    </g>
    <g>
      <rect width="12" height="22" x="128" y="398" fill="#262A34" rx="3" />
    </g>
    <g>
      <rect width="7" height="22" x="247" y="395" fill="#262A34" rx="3" />
    </g>
    <g>
      <rect width="15" height="18" x="488" y="399" fill="#262A34" rx="3" />
    </g>
    <g>
      <rect width="18" height="19" x="487" y="148" fill="#262A34" rx="3" />
    </g>
    <g>
      <rect width="18" height="17" x="124" y="211" fill="#262A34" rx="3" />
    </g>
    <g data-object="Сокол__r__6059:611">
      <rect width="112" height="136" x="135" fill="#78B500" rx="12" />
      <path fill="#fff"
        d="M144.9 79.94V56.67h8.9c1.68 0 3.08.26 4.2.8a5.6 5.6 0 0 1 2.5 2.14c.57.9.85 1.94.85 3.09a4.59 4.59 0 0 1-2.01 4.06 6.2 6.2 0 0 1-2.06.9v.22a5.28 5.28 0 0 1 4.25 2.7c.48.83.73 1.84.73 3.02 0 1.2-.3 2.29-.88 3.25a5.95 5.95 0 0 1-2.63 2.26 10.4 10.4 0 0 1-4.44.83h-9.42Zm4.2-3.52h4.54c1.53 0 2.64-.3 3.31-.88a2.87 2.87 0 0 0 1.02-2.27 3.48 3.48 0 0 0-1.96-3.18 4.83 4.83 0 0 0-2.25-.5h-4.65v6.83Zm0-9.86h4.18a4.7 4.7 0 0 0 1.97-.4 3.07 3.07 0 0 0 1.89-2.92c0-.9-.33-1.64-.96-2.22-.63-.58-1.57-.88-2.81-.88h-4.26v6.42Zm24.69 13.7a9.37 9.37 0 0 1-4.07-.86 7.26 7.26 0 0 1-2.85-2.36c-.7-1-1.07-2.14-1.12-3.43h4.1a3.2 3.2 0 0 0 1.23 2.34c.75.6 1.66.9 2.7.9a4.07 4.07 0 0 0 3.73-2.15c.38-.67.56-1.44.55-2.3 0-.89-.18-1.67-.56-2.35a4.16 4.16 0 0 0-1.55-1.6 4.3 4.3 0 0 0-2.28-.59c-.7 0-1.38.12-2.05.39-.68.26-1.21.61-1.6 1.04l-3.81-.62 1.21-12h13.5v3.52h-10l-.68 6.17h.14c.43-.5 1.04-.93 1.83-1.26a6.46 6.46 0 0 1 2.59-.51 7.16 7.16 0 0 1 6.38 3.72c.64 1.16.96 2.49.96 3.98 0 1.54-.36 2.91-1.07 4.11a7.56 7.56 0 0 1-2.94 2.83 8.92 8.92 0 0 1-4.34 1.03Zm22.78-13.65V70H186.1v-3.4h10.48Zm12.89 13.77a8.14 8.14 0 0 1-4.82-1.42 9.05 9.05 0 0 1-3.08-4.12 17.74 17.74 0 0 1-1.07-6.51c0-2.54.37-4.7 1.08-6.48a8.9 8.9 0 0 1 3.08-4.1 8.17 8.17 0 0 1 4.8-1.4c1.87 0 3.47.47 4.81 1.4a8.81 8.81 0 0 1 3.08 4.1 17.36 17.36 0 0 1 1.08 6.48c0 2.54-.36 4.72-1.08 6.52a8.88 8.88 0 0 1-3.08 4.11 8.09 8.09 0 0 1-4.8 1.42Zm0-3.55c1.45 0 2.6-.72 3.44-2.15.85-1.44 1.27-3.56 1.27-6.35 0-1.85-.2-3.4-.58-4.66a6.18 6.18 0 0 0-1.63-2.84 3.58 3.58 0 0 0-2.5-.97c-1.45 0-2.6.72-3.44 2.16-.84 1.43-1.26 3.53-1.27 6.3 0 1.86.18 3.42.56 4.69a6.27 6.27 0 0 0 1.63 2.86c.7.64 1.55.96 2.52.96Zm12.74 3.1V76.9l8.08-7.92c.77-.78 1.41-1.47 1.93-2.08.51-.6.9-1.19 1.16-1.76.25-.57.38-1.17.38-1.82a3.32 3.32 0 0 0-1.88-3.11 4.43 4.43 0 0 0-1.98-.43 4.1 4.1 0 0 0-2.01.48c-.58.3-1.02.75-1.34 1.33a4.27 4.27 0 0 0-.47 2.05h-4.01a6.82 6.82 0 0 1 3.8-6.39c1.19-.6 2.55-.9 4.09-.9 1.56 0 2.93.3 4.11.88a6.7 6.7 0 0 1 2.75 2.4c.66 1.02.99 2.18.99 3.48a7 7 0 0 1-.5 2.57c-.33.84-.92 1.77-1.76 2.8-.84 1.01-2 2.25-3.51 3.7L228 76.27v.16h10.14v3.52H222.2Z" />
    </g>
    <g data-object="Сокол__r__2237:45">
      <rect width="242" height="175" x="251" fill="#78B500" rx="12" />
      <path fill="#fff"
        d="M325.81 99.83V76.55h8.91a9.8 9.8 0 0 1 4.2.8 5.6 5.6 0 0 1 2.5 2.15c.56.9.84 1.94.84 3.09a4.6 4.6 0 0 1-2.01 4.06 6.2 6.2 0 0 1-2.05.9v.22a5.28 5.28 0 0 1 4.25 2.7c.48.83.72 1.83.72 3.02a6.2 6.2 0 0 1-.87 3.25 5.95 5.95 0 0 1-2.64 2.26 10.4 10.4 0 0 1-4.43.83h-9.42Zm4.22-3.53h4.53c1.53 0 2.63-.29 3.3-.87a2.87 2.87 0 0 0 1.03-2.27 3.48 3.48 0 0 0-1.97-3.19 4.83 4.83 0 0 0-2.25-.48h-4.64v6.81Zm0-9.85h4.17a4.7 4.7 0 0 0 1.96-.4 3.07 3.07 0 0 0 1.89-2.92c0-.9-.32-1.64-.95-2.22-.63-.59-1.57-.88-2.81-.88h-4.26v6.42Zm24.68 13.7a9.37 9.37 0 0 1-4.07-.86 7.26 7.26 0 0 1-2.85-2.36c-.7-1-1.07-2.15-1.12-3.43h4.1a3.2 3.2 0 0 0 1.23 2.34c.75.6 1.65.9 2.7.9a4.07 4.07 0 0 0 3.73-2.15c.37-.68.56-1.45.55-2.3 0-.89-.18-1.67-.56-2.35a4.16 4.16 0 0 0-1.56-1.6c-.66-.4-1.41-.6-2.27-.6-.7 0-1.38.13-2.05.4a4.2 4.2 0 0 0-1.6 1.04l-3.81-.63 1.21-12h13.5v3.53h-10.01l-.67 6.17h.14a4.72 4.72 0 0 1 1.83-1.26 6.45 6.45 0 0 1 2.59-.52 7.16 7.16 0 0 1 6.38 3.73c.64 1.16.96 2.49.96 3.98 0 1.54-.36 2.9-1.07 4.11a7.56 7.56 0 0 1-2.94 2.83 8.92 8.92 0 0 1-4.35 1.02Zm22.78-13.65v3.38h-10.48V86.5h10.48Zm12.88 13.77a8.14 8.14 0 0 1-4.81-1.42 9.05 9.05 0 0 1-3.08-4.13 17.74 17.74 0 0 1-1.07-6.5c0-2.55.36-4.7 1.08-6.48a8.9 8.9 0 0 1 3.08-4.1 8.16 8.16 0 0 1 4.8-1.4c1.87 0 3.47.46 4.81 1.4a8.8 8.8 0 0 1 3.08 4.1 17.34 17.34 0 0 1 1.08 6.47c0 2.55-.36 4.72-1.08 6.53a8.87 8.87 0 0 1-3.08 4.1 8.08 8.08 0 0 1-4.8 1.43Zm0-3.56c1.46 0 2.6-.71 3.45-2.15.85-1.43 1.27-3.55 1.27-6.35 0-1.85-.2-3.4-.58-4.66a6.17 6.17 0 0 0-1.64-2.84 3.58 3.58 0 0 0-2.5-.96c-1.44 0-2.59.72-3.43 2.16-.84 1.43-1.26 3.53-1.27 6.3 0 1.86.18 3.42.56 4.68a6.27 6.27 0 0 0 1.63 2.87c.7.63 1.54.95 2.51.95Zm21.1 3.43c-1.64 0-3.1-.28-4.37-.84a7.3 7.3 0 0 1-3-2.34 6.06 6.06 0 0 1-1.17-3.46h4.27c.04.63.25 1.17.63 1.64s.88.83 1.51 1.08c.63.26 1.34.39 2.12.39.83 0 1.57-.14 2.21-.43.64-.3 1.15-.7 1.51-1.23.37-.52.54-1.12.54-1.8 0-.71-.18-1.33-.55-1.87-.37-.54-.9-.96-1.61-1.26a6.3 6.3 0 0 0-2.52-.46h-2.06v-3.25h2.06c.8 0 1.51-.14 2.12-.42.61-.28 1.1-.67 1.44-1.18.35-.51.52-1.1.51-1.78a3.1 3.1 0 0 0-.44-1.72 3 3 0 0 0-1.26-1.15 5 5 0 0 0-3.88-.02 3.7 3.7 0 0 0-1.46 1.1 2.8 2.8 0 0 0-.6 1.69h-4.05c.03-1.3.4-2.45 1.13-3.44a7.24 7.24 0 0 1 2.9-2.31 9.6 9.6 0 0 1 4.09-.84c1.55 0 2.9.29 4.04.87a6.6 6.6 0 0 1 2.67 2.33c.63.98.94 2.06.94 3.24.01 1.3-.38 2.4-1.15 3.3a5.44 5.44 0 0 1-3.05 1.73v.18a5.9 5.9 0 0 1 3.76 1.82 5.2 5.2 0 0 1 1.3 3.65c0 1.3-.36 2.47-1.1 3.5a7.38 7.38 0 0 1-3.05 2.4c-1.29.6-2.77.88-4.43.88Z" />
    </g>
    <g data-object="Сокол__r__2237:82">
      <path fill="#78B500"
        d="M137 447a12 12 0 0 1 12-12h86a12 12 0 0 1 12 12v113a12 12 0 0 1-12 12h-86a12 12 0 0 1-12-12V447Z" />
      <path fill="#fff"
        d="M145.11 515.27V492h8.91c1.68 0 3.08.26 4.2.8a5.6 5.6 0 0 1 2.5 2.14c.56.9.84 1.94.84 3.1a4.6 4.6 0 0 1-2.01 4.06 6.2 6.2 0 0 1-2.05.89v.22a5.29 5.29 0 0 1 4.25 2.7c.48.83.72 1.84.72 3.02 0 1.2-.29 2.29-.87 3.25a5.95 5.95 0 0 1-2.64 2.26 10.4 10.4 0 0 1-4.43.83h-9.42Zm4.22-3.52h4.53c1.53 0 2.63-.3 3.3-.88a2.87 2.87 0 0 0 1.03-2.27 3.48 3.48 0 0 0-1.97-3.18 4.84 4.84 0 0 0-2.25-.5h-4.64v6.83Zm0-9.86h4.17a4.7 4.7 0 0 0 1.96-.4 3.07 3.07 0 0 0 1.89-2.92c0-.9-.32-1.64-.95-2.22-.63-.58-1.57-.88-2.81-.88h-4.26v6.42ZM174 515.6a9.36 9.36 0 0 1-4.06-.86 7.25 7.25 0 0 1-2.85-2.36c-.7-1-1.07-2.14-1.12-3.43h4.1c.07.95.48 1.74 1.23 2.34.75.6 1.65.9 2.7.9a4.07 4.07 0 0 0 3.73-2.15c.37-.67.56-1.44.55-2.3 0-.88-.18-1.67-.56-2.35a4.15 4.15 0 0 0-1.56-1.6 4.27 4.27 0 0 0-2.27-.59c-.7 0-1.38.12-2.05.39-.68.26-1.21.61-1.6 1.04l-3.81-.62 1.21-12h13.5v3.52h-10.01l-.67 6.17h.14a4.8 4.8 0 0 1 1.83-1.26 6.45 6.45 0 0 1 2.59-.51 7.17 7.17 0 0 1 6.38 3.72c.64 1.16.96 2.49.96 3.98 0 1.54-.36 2.91-1.07 4.12a7.56 7.56 0 0 1-2.94 2.83 8.92 8.92 0 0 1-4.34 1.02Zm22.79-13.65v3.39h-10.48v-3.39h10.48Zm12.88 13.77a8.14 8.14 0 0 1-4.81-1.42 9.05 9.05 0 0 1-3.09-4.12 17.73 17.73 0 0 1-1.06-6.51c0-2.54.36-4.7 1.08-6.48a8.9 8.9 0 0 1 3.08-4.1 8.16 8.16 0 0 1 4.8-1.4c1.87 0 3.47.47 4.81 1.4a8.8 8.8 0 0 1 3.08 4.1 17.34 17.34 0 0 1 1.08 6.48c0 2.54-.36 4.72-1.08 6.52a8.87 8.87 0 0 1-3.08 4.11 8.09 8.09 0 0 1-4.8 1.42Zm0-3.55c1.46 0 2.6-.72 3.45-2.15.84-1.44 1.27-3.56 1.27-6.35 0-1.85-.2-3.4-.58-4.66a6.17 6.17 0 0 0-1.64-2.84 3.58 3.58 0 0 0-2.5-.97c-1.44 0-2.59.72-3.43 2.16-.84 1.43-1.26 3.53-1.27 6.3 0 1.86.18 3.42.56 4.69a6.27 6.27 0 0 0 1.63 2.86c.7.64 1.54.96 2.51.96Zm20.82-20.48c1.12 0 2.2.2 3.25.59 1.06.38 2.02 1 2.87 1.86a9 9 0 0 1 2.02 3.45c.5 1.44.75 3.22.75 5.34 0 2-.2 3.78-.64 5.36a11.9 11.9 0 0 1-1.83 3.98 8.07 8.07 0 0 1-2.87 2.48 8.25 8.25 0 0 1-3.78.85 8.53 8.53 0 0 1-3.91-.87 7.35 7.35 0 0 1-4.03-5.8h4.15a3.9 3.9 0 0 0 1.3 2.21c.66.54 1.48.81 2.48.81 1.62 0 2.86-.7 3.73-2.1.87-1.4 1.31-3.35 1.31-5.84h-.16a5.97 5.97 0 0 1-3.45 2.83 7.4 7.4 0 0 1-2.37.38 7.04 7.04 0 0 1-6.26-3.66 8.01 8.01 0 0 1-.95-3.9 8 8 0 0 1 1.04-4.07 7.58 7.58 0 0 1 2.95-2.87 8.7 8.7 0 0 1 4.4-1.03Zm.01 3.4a4.18 4.18 0 0 0-3.76 2.22 4.76 4.76 0 0 0 0 4.51 4.14 4.14 0 0 0 3.72 2.2 4.19 4.19 0 0 0 3.1-1.33 4.64 4.64 0 0 0 1.26-3.15c0-.8-.19-1.53-.56-2.2a4.38 4.38 0 0 0-1.54-1.63 4.04 4.04 0 0 0-2.22-.61Z" />
    </g>
    <g data-object="Сокол__r__2237:85">
      <path fill="#78B500"
        d="M254 389a12 12 0 0 1 12-12h214a12 12 0 0 1 12 12v171a12 12 0 0 1-12 12H266a12 12 0 0 1-12-12V389Z" />
      <path fill="#fff"
        d="M327.21 486.44v-23.28h8.91c1.69 0 3.08.27 4.2.8a5.6 5.6 0 0 1 2.5 2.15c.57.9.85 1.94.85 3.09a4.59 4.59 0 0 1-2.01 4.06 6.2 6.2 0 0 1-2.06.9v.22a5.27 5.27 0 0 1 4.25 2.7c.49.82.73 1.83.73 3.01 0 1.2-.3 2.3-.88 3.25a5.96 5.96 0 0 1-2.63 2.27 10.4 10.4 0 0 1-4.44.82h-9.42Zm4.22-3.53h4.53c1.54 0 2.64-.29 3.31-.87a2.87 2.87 0 0 0 1.03-2.28 3.48 3.48 0 0 0-1.97-3.18 4.83 4.83 0 0 0-2.25-.49h-4.65v6.82Zm0-9.85h4.17a4.7 4.7 0 0 0 1.97-.4 3.07 3.07 0 0 0 1.89-2.92c0-.9-.32-1.64-.96-2.23-.63-.58-1.56-.87-2.8-.87h-4.27v6.42Zm24.68 13.7a9.38 9.38 0 0 1-4.07-.86 7.26 7.26 0 0 1-2.85-2.36 6.2 6.2 0 0 1-1.11-3.44h4.09c.07.96.48 1.74 1.23 2.35.75.6 1.66.9 2.71.9a4.08 4.08 0 0 0 3.73-2.15c.37-.68.55-1.45.54-2.31a4.7 4.7 0 0 0-.55-2.34 4.18 4.18 0 0 0-1.56-1.6 4.3 4.3 0 0 0-2.27-.6c-.7 0-1.39.13-2.06.4a4.2 4.2 0 0 0-1.6 1.04l-3.81-.63 1.22-12h13.5v3.52h-10.01l-.68 6.18h.14a4.8 4.8 0 0 1 1.83-1.27 6.46 6.46 0 0 1 2.6-.5 7.16 7.16 0 0 1 6.38 3.72c.63 1.16.95 2.49.95 3.98 0 1.53-.35 2.9-1.07 4.11a7.56 7.56 0 0 1-2.94 2.83 8.92 8.92 0 0 1-4.34 1.02Zm22.78-13.65v3.38h-10.47v-3.38h10.47Zm12.89 13.77a8.14 8.14 0 0 1-4.82-1.42 9.05 9.05 0 0 1-3.08-4.13 17.74 17.74 0 0 1-1.07-6.5c0-2.55.37-4.7 1.08-6.49a8.9 8.9 0 0 1 3.08-4.09 8.17 8.17 0 0 1 4.8-1.4c1.87 0 3.47.46 4.81 1.4a8.8 8.8 0 0 1 3.08 4.1 17.34 17.34 0 0 1 1.08 6.47c0 2.55-.36 4.72-1.08 6.52a8.88 8.88 0 0 1-3.08 4.12 8.09 8.09 0 0 1-4.8 1.42Zm0-3.56c1.45 0 2.6-.71 3.44-2.15.85-1.44 1.27-3.55 1.27-6.35 0-1.85-.19-3.4-.58-4.66a6.18 6.18 0 0 0-1.63-2.84 3.58 3.58 0 0 0-2.5-.96c-1.45 0-2.6.71-3.43 2.15-.85 1.44-1.27 3.54-1.28 6.31 0 1.86.18 3.42.56 4.68a6.27 6.27 0 0 0 1.64 2.87c.7.63 1.54.95 2.5.95Zm21.01 3.43c-1.69 0-3.19-.28-4.5-.85a7.48 7.48 0 0 1-3.07-2.33 5.5 5.5 0 0 1-1.09-3.37c0-.98.2-1.88.64-2.7a6 6 0 0 1 4.23-3.1v-.16a4.93 4.93 0 0 1-2.91-1.83 5.28 5.28 0 0 1-1.1-3.33c0-1.2.33-2.26 1-3.2a6.83 6.83 0 0 1 2.78-2.22 9.45 9.45 0 0 1 4.02-.82c1.5 0 2.82.28 3.99.82a6.82 6.82 0 0 1 2.77 2.22c.69.94 1.03 2 1.03 3.2 0 1.26-.38 2.37-1.13 3.33a4.92 4.92 0 0 1-2.87 1.83v.16a5.99 5.99 0 0 1 4.86 5.8 5.5 5.5 0 0 1-1.11 3.37 7.5 7.5 0 0 1-3.07 2.33c-1.3.57-2.79.85-4.47.85Zm0-3.25a5.4 5.4 0 0 0 2.27-.44 3.44 3.44 0 0 0 2.05-3.16c0-.74-.2-1.4-.58-1.97a3.8 3.8 0 0 0-1.53-1.35 4.81 4.81 0 0 0-2.2-.49c-.84 0-1.58.17-2.24.5-.65.32-1.16.77-1.54 1.35a3.44 3.44 0 0 0-.55 1.96 3.3 3.3 0 0 0 2.03 3.15c.65.3 1.41.45 2.3.45Zm0-10.6c.71 0 1.34-.14 1.89-.43a3.29 3.29 0 0 0 1.8-2.99 3.14 3.14 0 0 0-1.78-2.92 4.16 4.16 0 0 0-1.9-.42c-.74 0-1.4.14-1.95.42a3.07 3.07 0 0 0-1.74 2.92c0 .67.14 1.27.45 1.78.32.51.76.91 1.31 1.2a4 4 0 0 0 1.92.44Z" />
    </g>
    <g data-object="Сокол__r__2237:88">
      <path fill="#78B500"
        d="M498 446a12 12 0 0 1 12-12h89a12 12 0 0 1 12 12v114a12 12 0 0 1-12 12h-89a12 12 0 0 1-12-12V446Z" />
      <path fill="#fff"
        d="M509.17 515.6v-23.27h8.91c1.68 0 3.08.26 4.2.8a5.6 5.6 0 0 1 2.5 2.14c.57.91.85 1.94.85 3.1a4.59 4.59 0 0 1-2.01 4.06c-.62.4-1.3.7-2.06.89v.22a5.28 5.28 0 0 1 4.25 2.7c.49.83.73 1.84.73 3.02 0 1.2-.3 2.29-.88 3.25a5.95 5.95 0 0 1-2.63 2.26 10.4 10.4 0 0 1-4.43.83h-9.43Zm4.22-3.52h4.53c1.54 0 2.64-.3 3.31-.88a2.87 2.87 0 0 0 1.02-2.27 3.48 3.48 0 0 0-1.96-3.18 4.83 4.83 0 0 0-2.25-.5h-4.65v6.83Zm0-9.86h4.17a4.7 4.7 0 0 0 1.97-.4 3.07 3.07 0 0 0 1.89-2.92c0-.9-.32-1.64-.96-2.22-.63-.58-1.57-.88-2.8-.88h-4.27v6.43Zm24.68 13.7a9.38 9.38 0 0 1-4.07-.85 7.25 7.25 0 0 1-2.85-2.37c-.7-1-1.07-2.14-1.12-3.43h4.1c.07.96.49 1.74 1.24 2.34.75.6 1.65.9 2.7.9a4.08 4.08 0 0 0 3.73-2.15c.37-.67.55-1.44.54-2.3a4.64 4.64 0 0 0-.56-2.35 4.17 4.17 0 0 0-1.55-1.6 4.3 4.3 0 0 0-2.27-.59c-.7 0-1.39.12-2.06.39a4.2 4.2 0 0 0-1.6 1.04l-3.81-.62 1.22-12h13.5v3.52h-10.02l-.67 6.17h.14c.43-.5 1.04-.93 1.83-1.26a6.45 6.45 0 0 1 2.6-.51 7.16 7.16 0 0 1 6.38 3.73c.63 1.15.95 2.48.95 3.97 0 1.54-.35 2.91-1.07 4.12a7.54 7.54 0 0 1-2.94 2.82 8.92 8.92 0 0 1-4.34 1.03Zm22.78-13.65v3.39h-10.47v-3.39h10.47Zm12.89 13.77a8.14 8.14 0 0 1-4.82-1.42 9.05 9.05 0 0 1-3.08-4.12 17.74 17.74 0 0 1-1.07-6.51c0-2.54.37-4.7 1.08-6.48a8.9 8.9 0 0 1 3.08-4.1 8.17 8.17 0 0 1 4.8-1.4c1.87 0 3.47.47 4.81 1.4a8.8 8.8 0 0 1 3.08 4.1 17.34 17.34 0 0 1 1.08 6.48c0 2.54-.36 4.72-1.08 6.52a8.87 8.87 0 0 1-3.08 4.11 8.09 8.09 0 0 1-4.8 1.42Zm0-3.55c1.45 0 2.6-.72 3.44-2.15.85-1.44 1.27-3.56 1.27-6.35 0-1.85-.19-3.4-.58-4.66a6.19 6.19 0 0 0-1.63-2.84 3.58 3.58 0 0 0-2.5-.97c-1.45 0-2.6.72-3.44 2.16-.84 1.43-1.26 3.53-1.27 6.3 0 1.86.18 3.42.56 4.69a6.27 6.27 0 0 0 1.64 2.86c.7.64 1.54.96 2.5.96Zm12.97 3.11 9.9-19.6v-.15h-11.5v-3.52h15.86v3.6l-9.89 19.67h-4.37Z" />
    </g>
    <g data-object="Сокол__r__6059:599">
      <rect width="130" height="187" x="615" y="385" fill="#78B500" rx="12" />
      <path fill="#fff"
        d="M633.56 490.8v-23.28h8.9a9.6 9.6 0 0 1 4.2.8 5.6 5.6 0 0 1 2.51 2.14c.56.91.84 1.94.84 3.1a4.57 4.57 0 0 1-2.01 4.06 6.2 6.2 0 0 1-2.06.89v.22c.83.05 1.62.3 2.38.77.76.45 1.39 1.1 1.87 1.93.49.83.73 1.84.73 3.02 0 1.2-.3 2.29-.87 3.25a5.95 5.95 0 0 1-2.64 2.26 10.4 10.4 0 0 1-4.43.83h-9.42Zm4.21-3.53h4.54c1.53 0 2.63-.3 3.3-.88a2.87 2.87 0 0 0 1.03-2.27 3.48 3.48 0 0 0-1.97-3.18 4.83 4.83 0 0 0-2.25-.49h-4.65v6.82Zm0-9.85h4.17a4.7 4.7 0 0 0 1.97-.4 3.07 3.07 0 0 0 1.89-2.92c0-.9-.32-1.65-.96-2.23-.63-.58-1.56-.87-2.8-.87h-4.27v6.42Zm24.68 13.69a9.38 9.38 0 0 1-4.07-.85 7.26 7.26 0 0 1-2.85-2.37c-.7-1-1.07-2.14-1.11-3.43h4.09c.08.96.49 1.74 1.24 2.34.75.6 1.65.9 2.7.9a4.07 4.07 0 0 0 3.73-2.15c.37-.67.55-1.44.55-2.3 0-.88-.18-1.66-.56-2.35a4.16 4.16 0 0 0-1.56-1.6 4.3 4.3 0 0 0-2.27-.59c-.7 0-1.38.12-2.06.39a4.2 4.2 0 0 0-1.6 1.04l-3.8-.62 1.2-12h13.5v3.52h-10l-.67 6.17h.13c.44-.5 1.05-.93 1.83-1.26a6.46 6.46 0 0 1 2.6-.51 7.16 7.16 0 0 1 6.38 3.73c.64 1.15.95 2.48.95 3.97a7.57 7.57 0 0 1-4.01 6.94 8.92 8.92 0 0 1-4.34 1.03Zm22.79-13.65v3.39h-10.48v-3.39h10.48Zm12.88 13.77a8.14 8.14 0 0 1-4.82-1.42 9.06 9.06 0 0 1-3.08-4.12 17.73 17.73 0 0 1-1.07-6.51c.01-2.54.37-4.7 1.08-6.48a8.91 8.91 0 0 1 3.08-4.1 8.17 8.17 0 0 1 4.81-1.4c1.86 0 3.47.47 4.8 1.4a8.81 8.81 0 0 1 3.09 4.1 17.35 17.35 0 0 1 1.08 6.48c0 2.54-.36 4.72-1.08 6.52a8.87 8.87 0 0 1-3.08 4.11 8.08 8.08 0 0 1-4.81 1.42Zm0-3.55c1.45 0 2.6-.72 3.44-2.15.85-1.44 1.28-3.56 1.28-6.35 0-1.85-.2-3.4-.58-4.66a6.18 6.18 0 0 0-1.64-2.84 3.58 3.58 0 0 0-2.5-.97c-1.45 0-2.6.72-3.43 2.16-.84 1.43-1.27 3.53-1.28 6.3 0 1.86.18 3.42.56 4.69a6.27 6.27 0 0 0 1.64 2.86c.7.64 1.54.96 2.51.96Zm21.26 3.43c-1.11 0-2.2-.2-3.26-.58a7.66 7.66 0 0 1-2.86-1.88 9.21 9.21 0 0 1-2.02-3.46 16.4 16.4 0 0 1-.74-5.38c0-1.99.21-3.76.63-5.33a11.8 11.8 0 0 1 1.83-3.95 8.08 8.08 0 0 1 2.88-2.48 8.29 8.29 0 0 1 3.78-.85 8.5 8.5 0 0 1 3.89.86 7.33 7.33 0 0 1 4.04 5.73h-4.14c-.22-.9-.65-1.6-1.31-2.14a3.76 3.76 0 0 0-2.48-.8c-1.61 0-2.85.7-3.73 2.1-.86 1.4-1.3 3.33-1.3 5.77h.16c.37-.66.85-1.24 1.44-1.71a7.07 7.07 0 0 1 4.38-1.5 6.99 6.99 0 0 1 6.26 3.67 7.8 7.8 0 0 1 .94 3.9 7.59 7.59 0 0 1-3.99 6.99 8.83 8.83 0 0 1-4.4 1.04Zm-.02-3.41c.83 0 1.56-.2 2.22-.6a4.55 4.55 0 0 0 2.1-3.92c0-.84-.17-1.59-.55-2.26a4.16 4.16 0 0 0-3.71-2.2 4.2 4.2 0 0 0-3.1 1.33 4.58 4.58 0 0 0 .82 7.04c.66.4 1.4.61 2.22.61Z" />
    </g>
    <g data-object="Сокол__s__2370:252">
      <rect width="131" height="169" y="204" fill="#fff" rx="12" />
      <g clip-path="url(#a)">
        <path fill="#000"
          d="M87.95 271.5h-7.49v7.5c0 .13-.01.22-.04.28a1.48 1.48 0 0 1-1.46 1.22h-7.49v7.5c0 .13-.01.22-.05.28a1.48 1.48 0 0 1-1.45 1.22h-7.49v7.5c0 .13-.02.22-.05.28a1.48 1.48 0 0 1-1.45 1.22h-7.5v7.5c0 .13 0 .22-.04.28A1.48 1.48 0 0 1 52 307.5h-9c-.4 0-.75-.15-1.05-.44a1.5 1.5 0 0 1 0-2.12c.3-.3.65-.44 1.06-.44h7.5V297c0-.13 0-.22.04-.28.06-.35.23-.63.51-.87.28-.23.6-.35.94-.35h7.5V288c0-.13 0-.22.04-.28.06-.35.23-.63.51-.87.29-.23.6-.35.94-.35h7.5V279c0-.1 0-.19.04-.28.06-.35.23-.63.52-.87.28-.23.59-.35.93-.35h7.5V270c0-.13.01-.22.04-.28a1.48 1.48 0 0 1 1.45-1.22h9c.4 0 .75.15 1.05.44a1.5 1.5 0 0 1 0 2.12c-.3.3-.65.44-1.06.44Z" />
      </g>
    </g>
    <g data-object="Сокол__e__2370:292">
      <rect width="94" height="99" x="209" y="234" fill="#fff" rx="12" />
      <g>
        <g>
          <mask id="b" fill="#fff">
            <path
              d="M232 253.5a3 3 0 0 1 3-3h42a3 3 0 0 1 3 3v59a3 3 0 0 1-3 3h-42a3 3 0 0 1-3-3v-59Z" />
          </mask>
          <path fill="#000"
            d="M229 253.5a6 6 0 0 1 6-6h52a6 6 0 0 1 6 6h-64Zm64 59a6 6 0 0 1-6 6h-52a6 6 0 0 1-6-6h64Zm-58 6a6 6 0 0 1-6-6v-59a6 6 0 0 1 6-6v71Zm52-71a6 6 0 0 1 6 6v59a6 6 0 0 1-6 6l-20-6v-59l20-6Z"
            mask="url(#b)" />
        </g>
        <path fill="#fff"
          d="m271.71 277.7.8-.8v4.6a1 1 0 1 0 1.99 0v-4.6l.79.8a.99.99 0 0 0 1.09.23 1 1 0 0 0 .32-1.64l-2.5-2.5a.87.87 0 0 0-.32-.22 1 1 0 0 0-.76 0 1 1 0 0 0-.33.22l-2.5 2.5a1 1 0 0 0 1.42 1.42Zm3.58 11.59-.8.8v-4.6a1 1 0 1 0-1.99 0v4.6l-.79-.8a1.01 1.01 0 0 0-1.1-.22 1.01 1.01 0 0 0-.53 1.31c.05.13.12.24.21.33l2.5 2.5c.1.1.2.16.33.21a.93.93 0 0 0 .76 0c.12-.05.23-.12.33-.21l2.5-2.5a1 1 0 0 0-1.42-1.42Z" />
        <path fill="#000"
          d="M250.5 271a5.25 5.25 0 1 0 0-10.5 5.25 5.25 0 0 0 0 10.5Zm4.5 0h-9a6.01 6.01 0 0 0-6 6v10.08a1.9 1.9 0 0 0 1.8 1.92 1.88 1.88 0 0 0 1.95-1.88v-9.35a.77.77 0 0 1 .7-.77.74.74 0 0 1 .74.45c.04.1.06.2.06.3v27.1a2.15 2.15 0 1 0 4.31 0v-13.38a.96.96 0 0 1 .88-.97.93.93 0 0 1 1 .94v13.4a2.15 2.15 0 1 0 4.31 0v-27.06a.77.77 0 0 1 .7-.78.74.74 0 0 1 .74.45c.04.1.06.2.06.3v9.33a1.9 1.9 0 0 0 1.8 1.92 1.88 1.88 0 0 0 1.95-1.88V277a6.01 6.01 0 0 0-6-6Z" />
      </g>
    </g>
    <g data-object="Сокол__s__2370:255">
      <rect width="127" height="133" x="618" y="238" fill="#fff" rx="12" />
      <g clip-path="url(#c)">
        <path fill="#000"
          d="M703.96 287.5h-7.5v7.5c0 .13-.01.22-.05.28a1.47 1.47 0 0 1-1.45 1.22h-7.49v7.5c0 .13-.01.22-.05.28a1.48 1.48 0 0 1-1.45 1.22h-7.49v7.5c0 .13-.02.22-.05.28-.06.35-.22.63-.49.87a1.4 1.4 0 0 1-.96.35h-7.5v7.5c0 .13 0 .22-.04.28a1.48 1.48 0 0 1-1.45 1.22h-9c-.4 0-.75-.15-1.04-.44-.3-.3-.45-.65-.45-1.06 0-.4.15-.76.45-1.06.3-.3.64-.44 1.05-.44h7.5V313c0-.13 0-.22.04-.28.06-.35.23-.63.51-.87.28-.23.6-.35.94-.35h7.5V304c0-.13 0-.22.04-.28.06-.35.23-.63.51-.87.29-.23.6-.35.94-.35h7.5V295c0-.1 0-.19.04-.28.06-.35.24-.63.52-.87.28-.23.59-.35.93-.35h7.5V286c0-.13.01-.22.04-.28a1.48 1.48 0 0 1 1.45-1.22h9c.4 0 .75.15 1.05.44a1.5 1.5 0 0 1 0 2.12c-.3.3-.65.44-1.05.44Z" />
      </g>
    </g>
    <g data-object="Сокол__e__2370:322">
      <rect width="50" height="99" x="381" y="234" fill="#fff" rx="12" />
      <g>
        <g>
          <mask id="d" fill="#fff">
            <path
              d="M382 253.5a3 3 0 0 1 3-3h42a3 3 0 0 1 3 3v59a3 3 0 0 1-3 3h-42a3 3 0 0 1-3-3v-59Z" />
          </mask>
          <path fill="#000"
            d="M379 253.5a6 6 0 0 1 6-6h52a6 6 0 0 1 6 6h-64Zm64 59a6 6 0 0 1-6 6h-52a6 6 0 0 1-6-6h64Zm-58 6a6 6 0 0 1-6-6v-59a6 6 0 0 1 6-6v71Zm52-71a6 6 0 0 1 6 6v59a6 6 0 0 1-6 6l-20-6v-59l20-6Z"
            mask="url(#d)" />
        </g>
        <path fill="#fff"
          d="m421.71 277.7.8-.8v4.6a1 1 0 1 0 1.99 0v-4.6l.79.8a.99.99 0 0 0 1.09.23 1 1 0 0 0 .32-1.64l-2.5-2.5a.87.87 0 0 0-.32-.22 1 1 0 0 0-.76 0 1 1 0 0 0-.33.22l-2.5 2.5a1 1 0 0 0 1.42 1.42Zm3.58 11.59-.8.8v-4.6a1 1 0 1 0-1.99 0v4.6l-.79-.8a1.01 1.01 0 0 0-1.1-.22 1.01 1.01 0 0 0-.53 1.31c.05.13.12.24.21.33l2.5 2.5c.1.1.2.16.33.21a.93.93 0 0 0 .76 0c.12-.05.23-.12.33-.21l2.5-2.5a1 1 0 0 0-1.42-1.42Z" />
        <path fill="#000"
          d="M400.5 271a5.25 5.25 0 1 0 0-10.5 5.25 5.25 0 0 0 0 10.5Zm4.5 0h-9a6.01 6.01 0 0 0-6 6v10.08a1.9 1.9 0 0 0 1.8 1.92 1.88 1.88 0 0 0 1.95-1.88v-9.35a.77.77 0 0 1 .7-.77.74.74 0 0 1 .74.45c.04.1.06.2.06.3v27.1a2.15 2.15 0 1 0 4.31 0v-13.38a.96.96 0 0 1 .88-.97.93.93 0 0 1 1 .94v13.4a2.15 2.15 0 1 0 4.31 0v-27.06a.77.77 0 0 1 .7-.78.74.74 0 0 1 .74.45c.04.1.06.2.06.3v9.33a1.9 1.9 0 0 0 1.8 1.92 1.88 1.88 0 0 0 1.95-1.88V277a6.01 6.01 0 0 0-6-6Z" />
      </g>
    </g>
    <g data-object="Сокол__t__2370:330">
      <rect width="58" height="99" x="433" y="234" fill="#60A5FA" rx="12" />
      <g fill="#fff" clip-path="url(#e)">
        <path
          d="M448 270a5.25 5.25 0 1 0 0-10.5 5.25 5.25 0 0 0 0 10.5Zm4.5 1.5h-9a6.01 6.01 0 0 0-6 6v10.08a1.9 1.9 0 0 0 1.8 1.92 1.88 1.88 0 0 0 1.95-1.88v-9.35a.77.77 0 0 1 .7-.77.74.74 0 0 1 .74.45c.04.1.06.2.06.3v27.1a2.15 2.15 0 1 0 4.31 0v-13.38a.96.96 0 0 1 .88-.97.93.93 0 0 1 1 .94v13.4a2.15 2.15 0 1 0 4.31 0v-27.06a.77.77 0 0 1 .7-.78.74.74 0 0 1 .74.45c.04.1.06.2.06.3v9.33a1.9 1.9 0 0 0 1.8 1.92 1.88 1.88 0 0 0 1.95-1.88V277.5a6.01 6.01 0 0 0-6-6Z" />
      </g>
      <g fill="#fff" clip-path="url(#f)">
        <path
          d="M475.98 270a5.25 5.25 0 1 0 0-10.5 5.25 5.25 0 0 0 0 10.5ZM489 285.55l-.97-3.22v-.01l-2.1-7.02h-.01l-.24-.8a4.21 4.21 0 0 0-4.03-3H470.4a4.2 4.2 0 0 0-4.03 3l-.24.8-2.1 7.02-.98 3.23a1.9 1.9 0 0 0 1.18 2.36 1.89 1.89 0 0 0 2.05-.58c.16-.19.28-.41.35-.66l2.4-7.99.2-.68a.75.75 0 0 1 .83-.48.75.75 0 0 1 .63.73c0 .05 0 .1-.02.15l-4.1 13.67a1.48 1.48 0 0 0 .24 1.32 1.5 1.5 0 0 0 1.2.61h2.72v10.75c0 1.55.98 2.75 2.25 2.75 1.26 0 2.25-1.2 2.25-2.75V294h1.5v10.75c0 1.55.98 2.75 2.25 2.75 1.26 0 2.25-1.2 2.25-2.75V294h2.8a1.51 1.51 0 0 0 1.21-.6 1.5 1.5 0 0 0 .24-1.33l-4.1-13.67a.75.75 0 0 1 1.12-.8c.14.1.26.24.32.4l.2.68 2.4 8a1.87 1.87 0 0 0 2.4 1.23 1.9 1.9 0 0 0 1.18-2.36Z" />
      </g>
    </g>
    <g data-object="Сокол__r__6059:602">
      <rect width="133" height="187" y="385" fill="#78B500" rx="12" />
      <path fill="#fff"
        d="M22.51 490.8v-23.28h8.91c1.68 0 3.08.26 4.2.8a5.6 5.6 0 0 1 2.5 2.14c.57.91.85 1.94.85 3.1a4.58 4.58 0 0 1-2.01 4.06 6.2 6.2 0 0 1-2.06.89v.22a5 5 0 0 1 2.37.77 5.2 5.2 0 0 1 1.88 1.93c.48.83.73 1.84.73 3.02 0 1.2-.3 2.29-.88 3.25a5.95 5.95 0 0 1-2.64 2.26 10.4 10.4 0 0 1-4.43.83h-9.42Zm4.22-3.53h4.53c1.53 0 2.63-.3 3.3-.88a2.87 2.87 0 0 0 1.03-2.27 3.48 3.48 0 0 0-1.96-3.18 4.83 4.83 0 0 0-2.25-.49h-4.65v6.82Zm0-9.85h4.17a4.7 4.7 0 0 0 1.96-.4 3.07 3.07 0 0 0 1.89-2.92c0-.9-.32-1.65-.95-2.23-.63-.58-1.57-.87-2.81-.87h-4.26v6.42ZM51.4 491.1a9.38 9.38 0 0 1-4.07-.85 7.25 7.25 0 0 1-2.85-2.37c-.7-1-1.07-2.14-1.12-3.43h4.1c.07.96.48 1.74 1.23 2.34.75.6 1.65.9 2.7.9a4.07 4.07 0 0 0 3.73-2.15c.37-.67.56-1.44.55-2.3 0-.88-.18-1.66-.56-2.35a4.16 4.16 0 0 0-1.55-1.6 4.3 4.3 0 0 0-2.28-.59c-.7 0-1.38.12-2.05.39a4.2 4.2 0 0 0-1.6 1.04l-3.81-.62 1.21-12h13.5v3.52h-10l-.68 6.17H48c.43-.5 1.04-.93 1.83-1.26a6.45 6.45 0 0 1 2.59-.51 7.16 7.16 0 0 1 6.38 3.73c.64 1.15.96 2.48.96 3.97 0 1.54-.36 2.91-1.07 4.12a7.56 7.56 0 0 1-2.94 2.83 8.92 8.92 0 0 1-4.34 1.02Zm22.78-13.65v3.39H63.71v-3.39H74.2Zm13.75-9.94v23.27h-4.22v-19.17h-.13l-5.45 3.48v-3.87l5.79-3.71h4Zm14.5 23.71a8.14 8.14 0 0 1-4.8-1.42 9.05 9.05 0 0 1-3.09-4.12 17.73 17.73 0 0 1-1.07-6.51c.01-2.54.37-4.7 1.08-6.48a8.91 8.91 0 0 1 3.08-4.1 8.17 8.17 0 0 1 4.8-1.4c1.87 0 3.48.47 4.82 1.4a8.81 8.81 0 0 1 3.07 4.1 17.34 17.34 0 0 1 1.09 6.48c0 2.54-.36 4.72-1.09 6.52a8.87 8.87 0 0 1-3.07 4.11 8.08 8.08 0 0 1-4.81 1.42Zm0-3.55c1.46 0 2.61-.72 3.45-2.15.85-1.44 1.28-3.56 1.28-6.35 0-1.85-.2-3.4-.59-4.66a6.17 6.17 0 0 0-1.63-2.84 3.58 3.58 0 0 0-2.5-.97c-1.45 0-2.6.72-3.43 2.16-.84 1.43-1.27 3.53-1.28 6.3 0 1.86.18 3.42.56 4.69a6.27 6.27 0 0 0 1.64 2.86c.7.64 1.54.96 2.5.96Z" />
    </g>
    <g data-object="Сокол__r__6059:605">
      <rect width="130" height="195" x="615" fill="#78B500" rx="12" />
      <path fill="#fff"
        d="M633.3 109.44V86.16h8.92c1.68 0 3.08.27 4.19.8a5.6 5.6 0 0 1 2.51 2.15c.56.9.84 1.93.84 3.09a4.58 4.58 0 0 1-2.01 4.06 6.2 6.2 0 0 1-2.06.9v.22a5.27 5.27 0 0 1 4.25 2.7c.49.82.73 1.83.73 3.01 0 1.2-.3 2.3-.87 3.25a5.96 5.96 0 0 1-2.64 2.27 10.4 10.4 0 0 1-4.43.83h-9.42Zm4.22-3.53h4.54c1.53 0 2.63-.29 3.3-.87a2.87 2.87 0 0 0 1.03-2.28 3.48 3.48 0 0 0-1.97-3.18 4.84 4.84 0 0 0-2.25-.49h-4.65v6.82Zm0-9.85h4.17a4.7 4.7 0 0 0 1.97-.4 3.07 3.07 0 0 0 1.89-2.92c0-.9-.32-1.64-.96-2.23-.63-.58-1.56-.87-2.8-.87h-4.27v6.42Zm24.68 13.7a9.38 9.38 0 0 1-4.07-.86 7.26 7.26 0 0 1-2.85-2.36 6.2 6.2 0 0 1-1.11-3.44h4.09c.08.96.49 1.74 1.24 2.35.75.6 1.65.9 2.7.9a4.08 4.08 0 0 0 3.73-2.15c.37-.68.55-1.45.55-2.31 0-.88-.18-1.66-.56-2.34a4.17 4.17 0 0 0-1.56-1.6 4.3 4.3 0 0 0-2.27-.6c-.7 0-1.38.13-2.06.4-.67.26-1.2.6-1.6 1.04l-3.8-.63 1.2-12h13.5v3.52h-10l-.67 6.18h.13a5 5 0 0 1 1.83-1.27 6.46 6.46 0 0 1 2.6-.5 7.16 7.16 0 0 1 6.38 3.72c.64 1.16.95 2.48.95 3.98a7.56 7.56 0 0 1-4.01 6.94 8.92 8.92 0 0 1-4.34 1.02ZM685 96.1v3.38h-10.5V96.1h10.48Zm12.88 13.77a8.14 8.14 0 0 1-4.82-1.42 9.06 9.06 0 0 1-3.08-4.13 17.74 17.74 0 0 1-1.07-6.5c.01-2.55.37-4.7 1.08-6.49a8.9 8.9 0 0 1 3.08-4.09 8.16 8.16 0 0 1 4.81-1.4c1.86 0 3.47.46 4.8 1.4a8.8 8.8 0 0 1 3.09 4.1 17.34 17.34 0 0 1 1.08 6.47c0 2.55-.36 4.72-1.08 6.52a8.88 8.88 0 0 1-3.08 4.12 8.09 8.09 0 0 1-4.81 1.42Zm0-3.56c1.45 0 2.6-.71 3.44-2.15.85-1.44 1.28-3.55 1.28-6.35 0-1.85-.2-3.4-.58-4.66a6.18 6.18 0 0 0-1.64-2.84 3.58 3.58 0 0 0-2.5-.96c-1.45 0-2.6.71-3.43 2.15-.84 1.44-1.27 3.54-1.28 6.31 0 1.86.18 3.42.56 4.68a6.27 6.27 0 0 0 1.64 2.87c.7.63 1.54.95 2.51.95Zm20.83 3.43a9.38 9.38 0 0 1-4.07-.85 7.26 7.26 0 0 1-2.85-2.36 6.2 6.2 0 0 1-1.11-3.44h4.09c.08.96.49 1.74 1.24 2.35.75.6 1.65.9 2.7.9a4.08 4.08 0 0 0 3.73-2.15c.37-.68.55-1.45.55-2.31 0-.88-.18-1.66-.56-2.34a4.17 4.17 0 0 0-1.56-1.6 4.3 4.3 0 0 0-2.27-.6c-.7 0-1.38.13-2.06.4-.67.26-1.2.6-1.6 1.04l-3.8-.63 1.2-12h13.5v3.52h-10l-.67 6.18h.13a5 5 0 0 1 1.83-1.27 6.46 6.46 0 0 1 2.6-.5 7.16 7.16 0 0 1 6.38 3.72c.64 1.16.95 2.48.95 3.98a7.56 7.56 0 0 1-4.01 6.94 8.92 8.92 0 0 1-4.34 1.02Z" />
    </g>
    <g data-object="Сокол__r__6059:608">
      <rect width="113" height="136" x="497" fill="#78B500" rx="12" />
      <path fill="#fff"
        d="M507.1 79.94V56.67h8.9a9.6 9.6 0 0 1 4.2.8 5.6 5.6 0 0 1 2.51 2.14c.56.9.84 1.94.84 3.09a4.58 4.58 0 0 1-2.01 4.06 6.2 6.2 0 0 1-2.06.9v.22a5.28 5.28 0 0 1 4.25 2.7c.49.83.73 1.84.73 3.02 0 1.2-.3 2.29-.88 3.25a5.95 5.95 0 0 1-2.63 2.26 10.4 10.4 0 0 1-4.43.83h-9.42Zm4.21-3.52h4.54c1.53 0 2.63-.3 3.3-.88a2.87 2.87 0 0 0 1.03-2.27 3.48 3.48 0 0 0-1.97-3.18 4.83 4.83 0 0 0-2.25-.5h-4.65v6.83Zm0-9.86h4.17a4.7 4.7 0 0 0 1.97-.4 3.08 3.08 0 0 0 1.89-2.92c0-.9-.32-1.64-.96-2.22-.63-.58-1.56-.88-2.8-.88h-4.27v6.42ZM536 80.26a9.37 9.37 0 0 1-4.07-.86 7.25 7.25 0 0 1-2.85-2.36c-.7-1-1.07-2.14-1.11-3.43h4.09c.07.95.49 1.73 1.24 2.34.75.6 1.65.9 2.7.9a4.07 4.07 0 0 0 3.73-2.15c.37-.67.55-1.44.54-2.3a4.62 4.62 0 0 0-.55-2.35 4.17 4.17 0 0 0-1.56-1.6 4.3 4.3 0 0 0-2.27-.59c-.7 0-1.38.12-2.06.39a4.2 4.2 0 0 0-1.6 1.04l-3.8-.62 1.2-12h13.5v3.52h-10l-.67 6.17h.13c.43-.5 1.04-.93 1.83-1.26a6.45 6.45 0 0 1 2.6-.51 7.16 7.16 0 0 1 6.38 3.72c.63 1.16.95 2.49.95 3.98 0 1.54-.35 2.91-1.07 4.11a7.55 7.55 0 0 1-2.94 2.83 8.92 8.92 0 0 1-4.34 1.03Zm22.78-13.65V70H548.3v-3.4h10.48Zm12.89 13.77a8.14 8.14 0 0 1-4.82-1.42 9.05 9.05 0 0 1-3.08-4.12 17.74 17.74 0 0 1-1.07-6.51c.01-2.54.37-4.7 1.08-6.48a8.91 8.91 0 0 1 3.08-4.1 8.16 8.16 0 0 1 4.8-1.4c1.87 0 3.48.47 4.82 1.4a8.8 8.8 0 0 1 3.07 4.1 17.34 17.34 0 0 1 1.09 6.48c0 2.54-.37 4.72-1.09 6.52a8.87 8.87 0 0 1-3.07 4.11 8.09 8.09 0 0 1-4.81 1.42Zm0-3.55c1.45 0 2.6-.72 3.44-2.15.85-1.44 1.27-3.56 1.27-6.35 0-1.85-.19-3.4-.58-4.66a6.18 6.18 0 0 0-1.63-2.84 3.58 3.58 0 0 0-2.5-.97c-1.45 0-2.6.72-3.43 2.16-.84 1.43-1.27 3.53-1.28 6.3 0 1.86.18 3.42.56 4.69a6.27 6.27 0 0 0 1.64 2.86c.7.64 1.54.96 2.5.96Zm12.32-1.2v-3.36l9.88-15.6h2.79v4.77h-1.7l-6.65 10.53v.19h13.78v3.46h-18.1Zm11.1 4.3V74.6l.05-1.5V56.67h3.98v23.27h-4.03Z" />
    </g>
    <g data-object="Сокол__r__6059:614">
      <rect width="130" height="195" x="1" fill="#78B500" rx="12" />
      <path fill="#fff"
        d="M22.24 109.44V86.16h8.91c1.69 0 3.08.27 4.2.8a5.6 5.6 0 0 1 2.5 2.15c.57.9.85 1.93.85 3.09a4.59 4.59 0 0 1-2.01 4.06 6.2 6.2 0 0 1-2.06.9v.22a5.28 5.28 0 0 1 4.25 2.7c.49.82.73 1.83.73 3.01 0 1.2-.3 2.3-.88 3.25a5.95 5.95 0 0 1-2.63 2.27 10.4 10.4 0 0 1-4.44.83h-9.42Zm4.22-3.53H31c1.53 0 2.64-.29 3.31-.87a2.87 2.87 0 0 0 1.02-2.28 3.48 3.48 0 0 0-1.96-3.18 4.83 4.83 0 0 0-2.25-.49h-4.65v6.82Zm0-9.85h4.17a4.7 4.7 0 0 0 1.97-.4 3.07 3.07 0 0 0 1.89-2.92c0-.9-.33-1.64-.96-2.23-.63-.58-1.57-.87-2.8-.87h-4.27v6.42Zm24.68 13.7a9.38 9.38 0 0 1-4.07-.86 7.26 7.26 0 0 1-2.85-2.36 6.2 6.2 0 0 1-1.11-3.44h4.09c.07.96.48 1.74 1.23 2.35.75.6 1.66.9 2.7.9a4.08 4.08 0 0 0 3.73-2.15c.38-.68.56-1.45.55-2.31a4.7 4.7 0 0 0-.55-2.34 4.16 4.16 0 0 0-1.56-1.6 4.3 4.3 0 0 0-2.27-.6c-.7 0-1.39.13-2.06.4a4.2 4.2 0 0 0-1.6 1.04l-3.81-.63 1.22-12h13.5v3.52H48.26l-.67 6.18h.14a4.84 4.84 0 0 1 1.83-1.27 6.46 6.46 0 0 1 2.6-.5 7.16 7.16 0 0 1 6.38 3.72c.63 1.16.95 2.48.95 3.98 0 1.53-.35 2.9-1.07 4.11a7.55 7.55 0 0 1-2.94 2.83 8.92 8.92 0 0 1-4.34 1.02ZM73.92 96.1v3.38H63.45V96.1h10.47Zm12.89 13.77a8.14 8.14 0 0 1-4.82-1.42 9.05 9.05 0 0 1-3.08-4.13 17.74 17.74 0 0 1-1.07-6.5c0-2.55.37-4.7 1.08-6.49A8.9 8.9 0 0 1 82 87.25a8.16 8.16 0 0 1 4.8-1.4c1.87 0 3.47.46 4.81 1.4a8.8 8.8 0 0 1 3.08 4.1 17.35 17.35 0 0 1 1.08 6.47c0 2.55-.36 4.72-1.08 6.52a8.88 8.88 0 0 1-3.08 4.12 8.1 8.1 0 0 1-4.8 1.42Zm0-3.56c1.45 0 2.6-.71 3.44-2.15.85-1.44 1.27-3.55 1.27-6.35 0-1.85-.19-3.4-.58-4.66a6.18 6.18 0 0 0-1.63-2.84 3.58 3.58 0 0 0-2.5-.96c-1.45 0-2.6.71-3.43 2.15-.85 1.44-1.27 3.54-1.28 6.31 0 1.86.18 3.42.56 4.68a6.27 6.27 0 0 0 1.64 2.87c.7.63 1.54.95 2.5.95ZM109 86.16v23.28h-4.21V90.25h-.14l-5.44 3.48v-3.86l5.78-3.72H109Z" />
    </g>
  </g>
  <defs>
    <clipPath id="a">
      <path fill="#fff" d="M41.5 264.5h48v48h-48z" />
    </clipPath>
    <clipPath id="c">
      <path fill="#fff" d="M657.5 280.5h48v48h-48z" />
    </clipPath>
    <clipPath id="e">
      <path fill="#fff" d="M424 259.5h48v48h-48z" />
    </clipPath>
    <clipPath id="f">
      <path fill="#fff" d="M452 259.5h48v48h-48z" />
    </clipPath>
  </defs>
</svg>