<svg xmlns="http://www.w3.org/2000/svg" width="1705" height="1485" fill="none"
  viewBox="0 0 1705 1485">
  <g>
    <g>
      <path fill="#262A34"
        d="M792 1013.5a12 12 0 0 0 12 12h104.5a12 12 0 0 0 12-12V840a4.5 4.5 0 0 0-4.5-4.5 4.5 4.5 0 0 1-4.5-4.5v-1a4.5 4.5 0 0 1 4.5-4.5 4.5 4.5 0 0 0 4.5-4.5v-53.5a12 12 0 0 0-12-12h-91a12 12 0 0 0-12 12v44.3a12 12 0 0 0 11.7 12l62.86 1.58a5.06 5.06 0 0 1-.12 10.12H859.5a12 12 0 0 0-12 12v106a12 12 0 0 1-12 12H804a12 12 0 0 0-12 12v36Z" />
    </g>
    <g>
      <rect width="11" height="14" x="141" y="94" fill="#262A34" rx="3"
        transform="rotate(90 141 94)" />
    </g>
    <g>
      <rect width="13" height="13" x="158" y="72" fill="#262A34" rx="3" />
    </g>
    <g>
      <rect width="13" height="13" x="222" y="72" fill="#262A34" rx="3" />
    </g>
    <g>
      <rect width="13" height="13" x="293" y="73" fill="#262A34" rx="3" />
    </g>
    <g>
      <rect width="13" height="13" x="366" y="73" fill="#262A34" rx="3" />
    </g>
    <g>
      <rect width="13" height="13" x="552" y="73" fill="#262A34" rx="3" />
    </g>
    <g>
      <rect width="37" height="48" x="643" y="934" fill="#262A34" rx="3" />
    </g>
    <g>
      <rect width="14" height="13" x="589" y="163" fill="#262A34" rx="3" />
    </g>
    <g>
      <rect width="16" height="15" x="113" y="53" fill="#262A34" rx="3"
        transform="rotate(90 113 53)" />
    </g>
    <g>
      <rect width="21" height="13" x="94" y="103" fill="#262A34" rx="3"
        transform="rotate(-180 94 103)" />
    </g>
    <g>
      <rect width="21" height="20" x="226" y="305" fill="#262A34" rx="3"
        transform="rotate(90 226 305)" />
    </g>
    <g>
      <rect width="16" height="12" x="133" y="550" fill="#262A34" rx="3"
        transform="rotate(90 133 550)" />
    </g>
    <g>
      <rect width="16" height="15" x="225" y="550" fill="#262A34" rx="3"
        transform="rotate(90 225 550)" />
    </g>
    <g>
      <rect width="21" height="13" x="190" y="623" fill="#262A34" rx="3"
        transform="rotate(90 190 623)" />
    </g>
    <g>
      <rect width="20" height="18" x="226" y="433" fill="#262A34" rx="3"
        transform="rotate(90 226 433)" />
    </g>
    <g>
      <rect width="20" height="50" x="781" y="971" fill="#262A34" rx="3" />
    </g>
    <g>
      <rect width="21" height="5.59" x="694.09" y="706.69" fill="#262A34" rx="2.8"
        transform="rotate(47 694.1 706.69)" />
    </g>
    <g>
      <rect width="13" height="13" x="233" y="168.34" fill="#262A34" rx="3"
        transform="rotate(-52.73 233 168.34)" />
    </g>
    <g>
      <rect width="6" height="19" x="655" y="619" fill="#262A34" rx="3" />
    </g>
    <g>
      <rect width="15" height="15" x="99" y="123" fill="#262A34" rx="3" />
    </g>
    <g data-object="Сокол__r__6056:3414">
      <path fill="#78B500"
        d="M694 685a12 12 0 0 1 12-12h72a12 12 0 0 1 12 12v27a12 12 0 0 1-12 12h-63.22a12 12 0 0 1-8.77-3.81l-8.78-9.42a12 12 0 0 1-3.23-8.18V685Z" />
      <path fill="#fff"
        d="M726.65 710.32c-1.63 0-3.09-.28-4.36-.84a7.3 7.3 0 0 1-3-2.34 6.06 6.06 0 0 1-1.17-3.47h4.27c.04.63.25 1.18.63 1.65.38.46.88.82 1.51 1.08.63.25 1.33.38 2.11.38.84 0 1.58-.14 2.22-.43.64-.3 1.15-.7 1.51-1.23a3 3 0 0 0 .53-1.8c.01-.7-.17-1.33-.54-1.87a3.76 3.76 0 0 0-1.61-1.26 6.4 6.4 0 0 0-2.53-.45h-2.05v-3.25h2.05c.81 0 1.52-.14 2.13-.42.61-.28 1.1-.68 1.44-1.18.35-.52.52-1.11.51-1.79a3.1 3.1 0 0 0-.44-1.71c-.3-.5-.72-.88-1.26-1.15a5 5 0 0 0-3.88-.02c-.6.25-1.1.62-1.46 1.1a2.8 2.8 0 0 0-.6 1.68h-4.05c.03-1.3.4-2.45 1.12-3.43.73-1 1.7-1.77 2.91-2.32a9.6 9.6 0 0 1 4.08-.84c1.56 0 2.9.3 4.05.87a6.6 6.6 0 0 1 2.67 2.33c.63.98.94 2.06.94 3.24a4.77 4.77 0 0 1-1.16 3.3 5.44 5.44 0 0 1-3.04 1.74v.18a5.9 5.9 0 0 1 3.76 1.82 5.17 5.17 0 0 1 1.3 3.64c0 1.3-.37 2.47-1.1 3.5a7.38 7.38 0 0 1-3.05 2.41c-1.3.59-2.77.88-4.44.88Zm12.08-4.64v-3.35l9.87-15.6h2.8v4.77h-1.7l-6.66 10.53v.19h13.79v3.46h-18.1Zm11.1 4.32v-5.34l.04-1.5v-16.43h3.98V710h-4.02Zm15.7.35c-1.1 0-2.1-.2-3-.59-.87-.4-1.57-1-2.08-1.77a5.2 5.2 0 0 1-.76-2.89c0-.98.18-1.8.54-2.44a4.2 4.2 0 0 1 1.49-1.55 7.5 7.5 0 0 1 2.13-.87c.8-.2 1.61-.35 2.46-.45 1.02-.1 1.85-.2 2.49-.28.64-.09 1.1-.23 1.39-.4.3-.2.44-.49.44-.88v-.07c0-.86-.25-1.52-.76-1.99s-1.24-.7-2.2-.7c-1 0-1.8.22-2.4.65-.58.44-.97.96-1.17 1.56l-3.85-.54a6.13 6.13 0 0 1 4.06-4.28 10.88 10.88 0 0 1 5.85-.25c.84.2 1.6.53 2.29.98a4.91 4.91 0 0 1 1.66 1.83c.42.77.63 1.74.63 2.9V710h-3.95v-2.4h-.14a5.01 5.01 0 0 1-2.75 2.38c-.67.25-1.46.37-2.37.37Zm1.07-3.02a4.4 4.4 0 0 0 2.14-.49 3.57 3.57 0 0 0 1.9-3.1v-2.06c-.13.1-.35.2-.66.3-.3.09-.64.17-1.02.24a32 32 0 0 1-2.1.31c-.6.09-1.15.22-1.64.41-.49.2-.87.46-1.15.8-.28.33-.42.76-.42 1.3 0 .75.28 1.32.83 1.71a3.6 3.6 0 0 0 2.12.58Z" />
    </g>
    <g>
      <rect width="21" height="18" x="535" y="494" fill="#262A34" rx="3"
        transform="rotate(90 535 494)" />
    </g>
    <g>
      <rect width="21" height="18" x="276" y="494" fill="#262A34" rx="3"
        transform="rotate(90 276 494)" />
    </g>
    <g>
      <rect width="21" height="9" x="278" y="588" fill="#262A34" rx="3" />
    </g>
    <g>
      <rect width="21" height="14" x="421" y="585" fill="#262A34" rx="3" />
    </g>
    <g>
      <rect width="21" height="15" x="485" y="585" fill="#262A34" rx="3" />
    </g>
    <g>
      <rect width="21" height="17" x="562" y="633" fill="#262A34" rx="3" />
    </g>
    <g>
      <rect width="21" height="17" x="720" y="328" fill="#262A34" rx="3" />
    </g>
    <g>
      <rect width="21" height="20" x="609" y="325" fill="#262A34" rx="3" />
    </g>
    <g data-object="Сокол__r__6056:3421">
      <path fill="#78B500"
        d="M532 12a12 12 0 0 1 12-12h94a12 12 0 0 1 12 12v116a12 12 0 0 1-12 12h-27.5a12 12 0 0 1-12-12V87.5a12 12 0 0 0-12-12H544a12 12 0 0 1-12-12V12Z" />
      <path fill="#fff" d="m584.86 53.8 9.9-19.6v-.15h-11.49v-3.52h15.86v3.6l-9.9 19.67h-4.37Z" />
    </g>
    <g data-object="Сокол__r__2596:512">
      <path fill="#78B500"
        d="M599 155a12 12 0 0 1 12-12h27a12 12 0 0 1 12 12v23a12 12 0 0 1-12 12h-27a12 12 0 0 1-12-12v-23Z" />
      <path fill="#fff"
        d="M625.25 178.85c-1.1 0-2.2-.2-3.26-.58a7.67 7.67 0 0 1-2.86-1.88 9.22 9.22 0 0 1-2.02-3.46 16.4 16.4 0 0 1-.74-5.38c0-1.99.21-3.77.63-5.33a11.8 11.8 0 0 1 1.83-3.95 8.07 8.07 0 0 1 2.88-2.48 8.3 8.3 0 0 1 3.78-.85 8.5 8.5 0 0 1 3.89.86 7.31 7.31 0 0 1 4.04 5.73h-4.14c-.21-.9-.65-1.6-1.31-2.14a3.76 3.76 0 0 0-2.48-.8c-1.61 0-2.85.7-3.72 2.1-.87 1.4-1.3 3.32-1.31 5.77h.16c.37-.66.85-1.24 1.44-1.71a7.08 7.08 0 0 1 4.38-1.5 6.98 6.98 0 0 1 6.26 3.67 7.8 7.8 0 0 1 .94 3.9c0 1.54-.34 2.91-1.04 4.13a7.57 7.57 0 0 1-2.95 2.86 8.84 8.84 0 0 1-4.4 1.04Zm-.02-3.41c.83 0 1.57-.2 2.22-.6a4.55 4.55 0 0 0 2.1-3.92c0-.84-.17-1.59-.55-2.27a4.15 4.15 0 0 0-3.71-2.19 4.2 4.2 0 0 0-3.1 1.33 4.59 4.59 0 0 0 .83 7.04c.65.4 1.39.6 2.21.6Z" />
    </g>
    <g data-object="Сокол__r__2596:475">
      <path fill="#78B500"
        d="M337 12a12 12 0 0 1 12-12h168a12 12 0 0 1 12 12v52a12 12 0 0 1-12 12H349a12 12 0 0 1-12-12V12Z" />
      <path fill="#fff"
        d="M433.6 50.43c-1.69 0-3.19-.28-4.5-.85a7.49 7.49 0 0 1-3.07-2.33 5.5 5.5 0 0 1-1.09-3.38c0-.97.2-1.87.64-2.69a6.01 6.01 0 0 1 4.22-3.1v-.16a4.92 4.92 0 0 1-2.9-1.83 5.28 5.28 0 0 1-1.1-3.33c0-1.2.33-2.26 1-3.2a6.82 6.82 0 0 1 2.78-2.22 9.45 9.45 0 0 1 4.02-.82c1.5 0 2.82.27 3.99.82a6.83 6.83 0 0 1 2.77 2.22c.68.94 1.02 2 1.02 3.2 0 1.26-.37 2.37-1.12 3.33a4.9 4.9 0 0 1-2.88 1.83v.16a6 6 0 0 1 4.86 5.8c0 1.25-.36 2.38-1.1 3.37a7.49 7.49 0 0 1-3.07 2.33c-1.3.57-2.79.85-4.47.85Zm0-3.25a5.4 5.4 0 0 0 2.27-.44 3.44 3.44 0 0 0 2.04-3.16c0-.74-.2-1.4-.57-1.97a3.8 3.8 0 0 0-1.54-1.35 4.82 4.82 0 0 0-2.2-.49c-.83 0-1.58.16-2.23.5a3.8 3.8 0 0 0-1.54 1.34 3.44 3.44 0 0 0-.55 1.97 3.3 3.3 0 0 0 2.02 3.15c.65.3 1.42.45 2.3.45Zm0-10.6c.71 0 1.34-.14 1.89-.43a3.29 3.29 0 0 0 1.8-3 3.43 3.43 0 0 0-.49-1.74c-.3-.5-.74-.9-1.3-1.17a4.17 4.17 0 0 0-1.9-.42c-.74 0-1.38.14-1.94.42a3.08 3.08 0 0 0-1.74 2.92c-.01.67.14 1.27.45 1.78.32.51.76.91 1.3 1.2.57.3 1.21.44 1.93.44Z" />
    </g>
    <g data-object="Сокол__r__2609:344">
      <path fill="#78B500"
        d="M661 604a12 12 0 0 1 12-12h105a12 12 0 0 1 12 12v52a12 12 0 0 1-12 12H673a12 12 0 0 1-12-12v-52Z" />
      <path fill="#fff"
        d="M715.32 642.43c-1.63 0-3.09-.28-4.36-.84a7.28 7.28 0 0 1-3-2.34 6.07 6.07 0 0 1-1.17-3.47h4.27c.04.63.25 1.18.63 1.65.38.46.88.82 1.5 1.08.64.26 1.34.39 2.12.39.83 0 1.57-.15 2.22-.43a3.6 3.6 0 0 0 1.5-1.23c.37-.52.55-1.13.54-1.8a3.12 3.12 0 0 0-.54-1.87 3.6 3.6 0 0 0-1.62-1.26c-.7-.3-1.53-.46-2.52-.46h-2.06v-3.25h2.06a5 5 0 0 0 2.13-.42 3.5 3.5 0 0 0 1.44-1.18c.35-.52.52-1.11.51-1.78a3.1 3.1 0 0 0-.44-1.72c-.3-.5-.72-.88-1.26-1.15a5 5 0 0 0-3.88-.02c-.6.26-1.1.62-1.47 1.1a2.8 2.8 0 0 0-.59 1.68h-4.05a5.9 5.9 0 0 1 1.12-3.43 7.3 7.3 0 0 1 2.91-2.32 9.6 9.6 0 0 1 4.08-.84c1.55 0 2.9.3 4.05.88a6.6 6.6 0 0 1 2.67 2.33c.63.97.94 2.05.94 3.24 0 1.3-.38 2.4-1.16 3.3a5.44 5.44 0 0 1-3.04 1.73v.18a5.9 5.9 0 0 1 3.76 1.82 5.2 5.2 0 0 1 1.3 3.65c0 1.3-.37 2.47-1.11 3.5a7.37 7.37 0 0 1-3.05 2.4c-1.28.59-2.76.88-4.43.88Zm12.07-4.63v-3.36l9.88-15.6h2.8v4.77h-1.71l-6.65 10.54v.18h13.78v3.46h-18.1Zm11.1 4.31v-5.34l.05-1.5v-16.43h3.98v23.27h-4.02Z" />
    </g>
    <g data-object="Сокол__r__2609:355">
      <path fill="#78B500"
        d="M538 657a12 12 0 0 1 12-12h48a12 12 0 0 1 12 12v126a12 12 0 0 1-12 12h-48a12 12 0 0 1-12-12V657Z" />
      <path fill="#fff"
        d="M563.03 732.88c-1.63 0-3.09-.28-4.36-.84a7.3 7.3 0 0 1-3-2.34 6.06 6.06 0 0 1-1.17-3.46h4.27c.04.62.25 1.17.63 1.64.37.47.88.83 1.5 1.08.63.26 1.34.39 2.12.39a5.4 5.4 0 0 0 2.22-.43 3.6 3.6 0 0 0 1.5-1.23c.37-.52.55-1.13.54-1.8 0-.71-.17-1.33-.54-1.87a3.65 3.65 0 0 0-1.62-1.26c-.7-.3-1.54-.46-2.52-.46h-2.06v-3.25h2.06a5 5 0 0 0 2.12-.42 3.4 3.4 0 0 0 1.45-1.18c.35-.51.52-1.1.5-1.78a3.1 3.1 0 0 0-1.7-2.87 5.01 5.01 0 0 0-3.88-.02 3.7 3.7 0 0 0-1.46 1.1 2.8 2.8 0 0 0-.59 1.69H555c.03-1.3.4-2.45 1.12-3.44a7.27 7.27 0 0 1 2.91-2.31 9.61 9.61 0 0 1 4.08-.85c1.55 0 2.9.3 4.04.88a6.6 6.6 0 0 1 2.68 2.33c.62.98.94 2.06.94 3.24 0 1.3-.38 2.4-1.16 3.3a5.45 5.45 0 0 1-3.05 1.73v.18a5.9 5.9 0 0 1 3.77 1.82 5.3 5.3 0 0 1 1.3 3.65c0 1.3-.37 2.47-1.11 3.5a7.38 7.38 0 0 1-3.05 2.4c-1.29.6-2.76.88-4.43.88Zm21.01 0a9.8 9.8 0 0 1-3.26-.58 7.69 7.69 0 0 1-2.86-1.87 9.23 9.23 0 0 1-2.02-3.47c-.5-1.44-.75-3.24-.74-5.37 0-2 .21-3.77.63-5.33a11.77 11.77 0 0 1 1.84-3.96 8.05 8.05 0 0 1 2.87-2.47 8.28 8.28 0 0 1 3.78-.86c1.47 0 2.76.3 3.89.87a7.33 7.33 0 0 1 4.05 5.73h-4.15a3.78 3.78 0 0 0-1.3-2.14 3.76 3.76 0 0 0-2.49-.8c-1.61 0-2.85.7-3.72 2.1-.87 1.4-1.3 3.32-1.31 5.77h.16c.37-.67.85-1.24 1.44-1.72a7.08 7.08 0 0 1 4.38-1.5 6.98 6.98 0 0 1 6.26 3.67c.63 1.14.95 2.44.94 3.91a8 8 0 0 1-1.04 4.13 7.6 7.6 0 0 1-2.95 2.86 8.84 8.84 0 0 1-4.4 1.03Zm-.02-3.4c.83 0 1.57-.2 2.22-.6a4.56 4.56 0 0 0 2.1-3.92c0-.84-.17-1.6-.54-2.27a4.16 4.16 0 0 0-3.72-2.2 4.2 4.2 0 0 0-3.1 1.34 4.58 4.58 0 0 0 .83 7.03c.65.41 1.39.61 2.21.61Z" />
    </g>
    <g data-object="Сокол__r__2596:483">
      <path fill="#78B500"
        d="M196 12a12 12 0 0 1 12-12h43a12 12 0 0 1 12 12v52a12 12 0 0 1-12 12h-43a12 12 0 0 1-12-12V12Z" />
      <path fill="#fff"
        d="M222.97 26.84v23.27h-4.22V30.94h-.13l-5.44 3.48v-3.86l5.78-3.72h4.01Zm14.51 23.72a8.14 8.14 0 0 1-4.82-1.42 9.05 9.05 0 0 1-3.08-4.13 17.74 17.74 0 0 1-1.06-6.51c0-2.54.36-4.7 1.07-6.48a8.91 8.91 0 0 1 3.09-4.09 8.16 8.16 0 0 1 4.8-1.4 8.1 8.1 0 0 1 4.8 1.4 8.8 8.8 0 0 1 3.09 4.1 17.34 17.34 0 0 1 1.08 6.47c0 2.54-.36 4.72-1.08 6.52a8.87 8.87 0 0 1-3.08 4.12 8.09 8.09 0 0 1-4.8 1.42Zm0-3.56c1.46 0 2.6-.72 3.45-2.15.84-1.44 1.27-3.56 1.27-6.35 0-1.85-.2-3.4-.58-4.66a6.18 6.18 0 0 0-1.64-2.84 3.58 3.58 0 0 0-2.5-.97c-1.44 0-2.59.72-3.43 2.16-.84 1.43-1.27 3.54-1.27 6.3-.01 1.87.18 3.43.55 4.7a6.27 6.27 0 0 0 1.64 2.85c.7.64 1.54.96 2.51.96Z" />
    </g>
    <g data-object="Сокол__r__2596:509">
      <path fill="#78B500"
        d="M269 12a12 12 0 0 1 12-12h40a12 12 0 0 1 12 12v52a12 12 0 0 1-12 12h-40a12 12 0 0 1-12-12V12Z" />
      <path fill="#fff"
        d="M301.3 26.52c1.12.01 2.2.2 3.25.6 1.06.37 2.02 1 2.87 1.86a9 9 0 0 1 2.02 3.44c.5 1.44.75 3.22.75 5.34 0 2-.2 3.79-.64 5.36a11.93 11.93 0 0 1-1.83 3.98 8.07 8.07 0 0 1-2.87 2.48 8.25 8.25 0 0 1-3.79.85 8.53 8.53 0 0 1-3.9-.86 7.34 7.34 0 0 1-4.03-5.8h4.15c.21.93.64 1.66 1.3 2.2.65.54 1.48.81 2.48.81 1.62 0 2.86-.7 3.73-2.1.87-1.4 1.3-3.35 1.3-5.84h-.15a5.97 5.97 0 0 1-3.46 2.83c-.74.26-1.53.39-2.36.39a7.04 7.04 0 0 1-6.26-3.66 8 8 0 0 1-.96-3.9 8 8 0 0 1 1.05-4.08 7.6 7.6 0 0 1 2.94-2.86 8.71 8.71 0 0 1 4.41-1.04Zm.01 3.41a4.18 4.18 0 0 0-3.76 2.22 4.75 4.75 0 0 0 0 4.51 4.14 4.14 0 0 0 3.71 2.2 4.19 4.19 0 0 0 3.11-1.34 4.64 4.64 0 0 0 1.26-3.15c0-.8-.19-1.53-.57-2.2a4.39 4.39 0 0 0-1.53-1.63 4.04 4.04 0 0 0-2.22-.6Z" />
    </g>
    <g data-object="Сокол__r__6056:3431">
      <path fill="#78B500"
        d="M136 91a12 12 0 0 1 12-12h102a12 12 0 0 1 12 12v41.43a12 12 0 0 1-2.48 7.3L224.6 185.3a12 12 0 0 1-9.52 4.7H148a12 12 0 0 1-12-12V91Z" />
      <path fill="#fff"
        d="M192.93 120.08v23.27h-4.21v-19.17h-.14l-5.44 3.47v-3.86l5.78-3.72h4.01Zm14 23.59a9.38 9.38 0 0 1-4.06-.86 7.26 7.26 0 0 1-2.86-2.36c-.7-1-1.06-2.14-1.11-3.43h4.1a3.2 3.2 0 0 0 1.23 2.34c.75.6 1.65.9 2.7.9a4.08 4.08 0 0 0 3.73-2.15c.37-.67.56-1.44.55-2.3 0-.89-.18-1.67-.56-2.35a4.17 4.17 0 0 0-1.56-1.6c-.66-.4-1.41-.6-2.27-.6-.7 0-1.38.13-2.06.4a4.2 4.2 0 0 0-1.6 1.04l-3.8-.63 1.21-12h13.5v3.53h-10.01l-.67 6.17h.14c.43-.5 1.04-.93 1.82-1.26a6.45 6.45 0 0 1 2.6-.51 7.16 7.16 0 0 1 6.38 3.72c.64 1.16.96 2.49.96 3.98 0 1.54-.36 2.9-1.07 4.11a7.55 7.55 0 0 1-2.94 2.83 8.92 8.92 0 0 1-4.35 1.03Z" />
    </g>
    <g data-object="Сокол__r__2596:489">
      <path fill="#78B500"
        d="M136 13a12 12 0 0 1 12-12h33a12 12 0 0 1 12 12v51a12 12 0 0 1-12 12h-33a12 12 0 0 1-12-12V13Z" />
      <path fill="#fff"
        d="M160.73 27.51v23.27h-4.21V31.61h-.14l-5.44 3.48v-3.86l5.78-3.72h4.01Zm15.38 0v23.27h-4.22V31.61h-.14l-5.44 3.48v-3.86l5.78-3.72h4.02Z" />
    </g>
    <g data-object="Сокол__r__2596:493">
      <path fill="#78B500"
        d="M5 12A12 12 0 0 1 17 0h101a12 12 0 0 1 12 12v35a12 12 0 0 1-12 12H17A12 12 0 0 1 5 47V12Z" />
      <path fill="#fff"
        d="M61.7 18.22V41.5h-4.22V22.33h-.13L51.9 25.8v-3.86l5.79-3.72h4.01Zm5.9 23.28v-3.05l8.09-7.92c.77-.78 1.42-1.47 1.93-2.08.52-.6.9-1.2 1.16-1.76.26-.57.39-1.18.39-1.82a3.32 3.32 0 0 0-1.88-3.11 4.43 4.43 0 0 0-1.99-.43 4.1 4.1 0 0 0-2 .47c-.59.31-1.03.76-1.35 1.33a4.27 4.27 0 0 0-.47 2.06h-4a7.2 7.2 0 0 1 1-3.85 6.83 6.83 0 0 1 2.79-2.54c1.19-.6 2.55-.9 4.09-.9 1.56 0 2.93.3 4.11.88a6.7 6.7 0 0 1 2.75 2.4c.66 1.01 1 2.17 1 3.47 0 .88-.18 1.73-.5 2.57a10.9 10.9 0 0 1-1.77 2.8c-.83 1.02-2 2.26-3.51 3.71l-4.01 4.08v.16h10.13v3.53H67.61Z" />
    </g>
    <g data-object="Сокол__r__2596:499">
      <path fill="#78B500"
        d="M5 76a12 12 0 0 1 12-12h49a12 12 0 0 1 12 12v42a12 12 0 0 1-12 12H17a12 12 0 0 1-12-12V76Z" />
      <path fill="#fff"
        d="M34.75 85.54v23.27h-4.21V89.64h-.14l-5.44 3.48v-3.87l5.78-3.71h4.01Zm14.27 23.59c-1.64 0-3.1-.28-4.37-.84a7.3 7.3 0 0 1-3-2.35 6.07 6.07 0 0 1-1.17-3.46h4.27c.04.63.25 1.18.63 1.65.38.46.88.82 1.51 1.08.63.25 1.33.38 2.11.38.84 0 1.58-.14 2.22-.43.64-.3 1.15-.7 1.51-1.23.37-.52.54-1.12.54-1.8A3.24 3.24 0 0 0 51.11 99a6.3 6.3 0 0 0-2.53-.45h-2.05V95.3h2.05c.81 0 1.52-.14 2.13-.42.61-.28 1.1-.68 1.44-1.18.35-.52.52-1.11.51-1.79a3.1 3.1 0 0 0-.44-1.71 3 3 0 0 0-1.26-1.15 5 5 0 0 0-3.88-.02c-.6.25-1.1.62-1.46 1.1a2.8 2.8 0 0 0-.6 1.68h-4.05a5.9 5.9 0 0 1 1.13-3.43c.72-1 1.7-1.77 2.9-2.32a9.6 9.6 0 0 1 4.08-.84c1.56 0 2.9.29 4.05.87a6.6 6.6 0 0 1 2.67 2.33c.63.98.94 2.06.94 3.24a4.77 4.77 0 0 1-1.16 3.3 5.44 5.44 0 0 1-3.04 1.74v.18a5.9 5.9 0 0 1 3.76 1.82 5.17 5.17 0 0 1 1.3 3.64c0 1.3-.36 2.47-1.1 3.5a7.38 7.38 0 0 1-3.05 2.41c-1.29.58-2.77.88-4.43.88Z" />
    </g>
    <g data-object="Сокол__r__2596:496">
      <path fill="#78B500"
        d="M5 145a12 12 0 0 1 12-12h100a12 12 0 0 1 12 12v33a12 12 0 0 1-12 12H17a12 12 0 0 1-12-12v-33Z" />
      <path fill="#fff"
        d="M61.06 149.56v23.28h-4.22v-19.18h-.13l-5.45 3.48v-3.86l5.79-3.72h4Zm5.49 18.96v-3.36l9.87-15.6h2.8v4.78h-1.7l-6.65 10.53v.18h13.78v3.47h-18.1Zm11.1 4.31v-5.34l.04-1.5v-16.43h3.98v23.28h-4.02Z" />
    </g>
    <g data-object="Сокол__r__2604:83">
      <path fill="#78B500"
        d="M5 215a12 12 0 0 1 12-12h187a12 12 0 0 1 12 12v163a12 12 0 0 1-12 12H17a12 12 0 0 1-12-12V215Z" />
      <path fill="#fff"
        d="M106.07 285.52v23.27h-4.22v-19.17h-.14l-5.44 3.48v-3.87l5.79-3.71h4Zm6.76 23.27 9.9-19.59v-.16h-11.5v-3.52h15.86v3.6l-9.89 19.67h-4.37Z" />
    </g>
    <g data-object="Сокол__r__6056:3425">
      <path fill="#78B500"
        d="M190.5 607.28a12 12 0 0 1 12-12H380a12 12 0 0 1 12 12V783a12 12 0 0 1-12 12H155a12 12 0 0 1-12-12v-88.37a12 12 0 0 1 12-12h23.5a12 12 0 0 0 12-12v-63.35Z" />
      <path fill="#fff"
        d="m212.4 707.29-7.66-10.17h-2.07v10.17h-4.22V684h4.22v9.57h1.05L212 684h5.19l-9.2 10.62 9.6 12.66h-5.2Zm12.9.35c-1.11 0-2.11-.2-3-.6a4.93 4.93 0 0 1-2.09-1.76 5.18 5.18 0 0 1-.76-2.9c0-.98.18-1.8.55-2.43.36-.65.86-1.16 1.49-1.55a7.5 7.5 0 0 1 2.12-.88c.8-.2 1.62-.35 2.47-.44 1.02-.1 1.85-.2 2.48-.28.64-.1 1.1-.23 1.4-.41.29-.2.44-.48.44-.88v-.06a2.6 2.6 0 0 0-.77-2c-.5-.46-1.23-.7-2.19-.7-1 0-1.8.22-2.4.66-.58.44-.97.96-1.18 1.56l-3.84-.55a6.13 6.13 0 0 1 4.06-4.27 10.55 10.55 0 0 1 5.84-.25c.84.2 1.6.52 2.3.98a4.91 4.91 0 0 1 1.65 1.83c.43.77.64 1.74.64 2.9v11.68h-3.96v-2.4h-.13a5.03 5.03 0 0 1-2.75 2.37c-.68.25-1.47.38-2.38.38Zm1.06-3.02c.83 0 1.54-.17 2.15-.5.6-.33 1.07-.77 1.4-1.31.33-.55.5-1.14.5-1.78v-2.06c-.13.1-.35.2-.66.3-.3.08-.65.16-1.03.23a31.26 31.26 0 0 1-2.09.32c-.61.08-1.16.22-1.64.4-.49.2-.87.46-1.15.8-.28.34-.42.77-.42 1.3 0 .76.27 1.33.83 1.72.55.38 1.25.58 2.11.58Zm20.2 8.6v-29.2h4.13v29.2h-4.13Zm0-5.6a9.23 9.23 0 0 1-3.5-.64 7.98 7.98 0 0 1-4.54-4.68c-.42-1.1-.63-2.33-.63-3.67 0-1.34.21-2.57.63-3.67a7.9 7.9 0 0 1 4.53-4.7 9.23 9.23 0 0 1 3.51-.66h.88v18.03h-.88Zm0-3.31h.52v-11.39h-.52a4 4 0 0 0-3.32 1.7 5.89 5.89 0 0 0-.86 1.81 8.14 8.14 0 0 0-.28 2.2c0 1.03.17 1.99.51 2.85a4.8 4.8 0 0 0 1.5 2.06 3.9 3.9 0 0 0 2.45.77Zm4.13 3.32h-.88V689.6h.88c1.28 0 2.45.22 3.51.65a8.16 8.16 0 0 1 4.52 4.7c.43 1.11.64 2.34.64 3.68 0 1.34-.21 2.56-.64 3.67a8.17 8.17 0 0 1-1.78 2.84c-.76.8-1.68 1.4-2.74 1.84a9.23 9.23 0 0 1-3.51.65Zm0-3.32c.74 0 1.38-.15 1.93-.44a4 4 0 0 0 1.39-1.23c.38-.52.66-1.13.85-1.8a8.31 8.31 0 0 0-.22-5.07 4.66 4.66 0 0 0-1.5-2.06 3.83 3.83 0 0 0-2.45-.79h-.51v11.39h.51Zm19.87 3.32a8.99 8.99 0 0 1-4.53-1.1 7.39 7.39 0 0 1-2.92-3.1 10.42 10.42 0 0 1-1.03-4.77c0-1.8.34-3.37 1.03-4.73a7.74 7.74 0 0 1 7.23-4.33c1.08 0 2.1.18 3.05.53.96.34 1.81.87 2.55 1.59a7.47 7.47 0 0 1 1.75 2.75c.42 1.1.63 2.42.63 3.95v1.26h-14.3v-2.77h10.36a4.47 4.47 0 0 0-.51-2.1 3.72 3.72 0 0 0-1.4-1.47 3.93 3.93 0 0 0-2.07-.53 4 4 0 0 0-2.21.61 4.2 4.2 0 0 0-1.5 1.6 4.6 4.6 0 0 0-.53 2.14v2.42c0 1.02.19 1.89.56 2.62.37.71.89 1.27 1.56 1.65.66.38 1.44.57 2.34.57.6 0 1.14-.08 1.62-.25.49-.17.9-.43 1.26-.76s.63-.75.81-1.24l3.84.43a5.99 5.99 0 0 1-1.39 2.66 6.75 6.75 0 0 1-2.59 1.75 9.86 9.86 0 0 1-3.61.62Zm9.79-14.42v-3.38h15.27v3.38h-5.65v14.08H286V693.2h-5.64Zm25.55 14.42a9 9 0 0 1-4.53-1.1 7.39 7.39 0 0 1-2.92-3.1 10.42 10.42 0 0 1-1.02-4.77c0-1.8.34-3.37 1.02-4.73a7.73 7.73 0 0 1 7.24-4.33 8.8 8.8 0 0 1 3.04.53c.96.34 1.81.87 2.55 1.59a7.45 7.45 0 0 1 1.75 2.75c.42 1.1.64 2.42.64 3.95v1.26h-14.31v-2.77h10.36c0-.79-.18-1.49-.51-2.1a3.71 3.71 0 0 0-1.4-1.47 3.93 3.93 0 0 0-2.07-.53 4 4 0 0 0-2.21.61c-.64.4-1.13.93-1.49 1.6a4.57 4.57 0 0 0-.53 2.14v2.42c0 1.02.18 1.89.55 2.62.37.71.9 1.27 1.56 1.65.67.38 1.45.57 2.34.57.6 0 1.14-.08 1.63-.25a3.2 3.2 0 0 0 2.06-2l3.84.43a5.98 5.98 0 0 1-1.38 2.66 6.75 6.75 0 0 1-2.6 1.75 9.84 9.84 0 0 1-3.6.62Zm11.25 6.2v-24h4.04v2.89h.24c.21-.43.51-.88.9-1.35.38-.49.9-.9 1.56-1.24.66-.35 1.5-.53 2.53-.53a6.65 6.65 0 0 1 6.24 4.07c.64 1.34.96 2.97.96 4.91 0 1.92-.31 3.55-.94 4.89a7.18 7.18 0 0 1-2.57 3.07 6.6 6.6 0 0 1-3.68 1.05 5.06 5.06 0 0 1-4.08-1.7 7.8 7.8 0 0 1-.92-1.35h-.17v9.3h-4.12Zm4.03-15.27c0 1.13.16 2.12.48 2.97.32.84.79 1.5 1.4 1.98.6.47 1.35.7 2.22.7.91 0 1.67-.24 2.29-.72a4.49 4.49 0 0 0 1.38-2.01c.32-.86.48-1.83.48-2.92 0-1.08-.16-2.05-.47-2.89a4.34 4.34 0 0 0-1.38-1.97 3.63 3.63 0 0 0-2.3-.72c-.88 0-1.62.23-2.24.7a4.26 4.26 0 0 0-1.4 1.94 8.4 8.4 0 0 0-.46 2.94Zm19.93 3.16 6.99-11.89h4.23v17.46h-3.98v-11.9l-6.97 11.9h-4.24v-17.46h3.97v11.89Zm19.4 0 7-11.89h4.22v17.46h-3.97v-11.9l-6.97 11.9h-4.24v-17.46h3.97v11.89Zm5.87-17.89h3.08c0 1.33-.48 2.4-1.44 3.23a5.77 5.77 0 0 1-3.89 1.23 5.76 5.76 0 0 1-3.87-1.23 4.03 4.03 0 0 1-1.43-3.23h3.06c0 .55.17 1.04.5 1.47.34.42.92.63 1.74.63.8 0 1.38-.2 1.72-.63.34-.43.52-.91.53-1.47Z" />
    </g>
    <g data-object="Сокол__r__2604:86">
      <path fill="#78B500"
        d="M5 411a12 12 0 0 1 12-12h187a12 12 0 0 1 12 12v106a12 12 0 0 1-12 12H17a12 12 0 0 1-12-12V411Z" />
      <path fill="#fff"
        d="M105.13 452.68v23.28h-4.22v-19.17h-.13l-5.45 3.47v-3.86l5.79-3.72h4Zm14.18 23.6a11.2 11.2 0 0 1-4.5-.86 7.48 7.48 0 0 1-3.07-2.33 5.46 5.46 0 0 1-1.09-3.37c0-.98.2-1.88.64-2.7a6.01 6.01 0 0 1 4.22-3.1v-.16a4.93 4.93 0 0 1-2.9-1.83 5.28 5.28 0 0 1-1.1-3.33c0-1.2.33-2.26 1-3.2a6.83 6.83 0 0 1 2.78-2.22 9.44 9.44 0 0 1 4.02-.81c1.5 0 2.82.27 3.99.81a6.82 6.82 0 0 1 2.77 2.22c.68.94 1.03 2 1.03 3.2 0 1.26-.38 2.37-1.13 3.33a4.91 4.91 0 0 1-2.88 1.83v.16a6.02 6.02 0 0 1 4.2 3.1c.45.82.67 1.72.67 2.7a5.5 5.5 0 0 1-1.11 3.37 7.48 7.48 0 0 1-3.07 2.33c-1.3.57-2.79.85-4.47.85Zm0-3.25c.87 0 1.63-.15 2.27-.45.65-.3 1.15-.73 1.5-1.27a3.54 3.54 0 0 0-.03-3.85 3.81 3.81 0 0 0-1.53-1.36 4.82 4.82 0 0 0-2.2-.48c-.84 0-1.58.16-2.24.48a3.9 3.9 0 0 0-1.54 1.36 3.44 3.44 0 0 0-.55 1.96 3.3 3.3 0 0 0 2.03 3.15c.65.3 1.41.45 2.3.45Zm0-10.6a4 4 0 0 0 1.89-.44A3.29 3.29 0 0 0 123 459a3.14 3.14 0 0 0-1.78-2.92 4.16 4.16 0 0 0-1.9-.42c-.74 0-1.4.14-1.95.42a3.08 3.08 0 0 0-1.74 2.92c0 .68.14 1.27.45 1.79.32.5.76.9 1.31 1.2.56.29 1.2.43 1.92.43Z" />
    </g>
    <g data-object="Сокол__r__2604:90">
      <path fill="#78B500"
        d="M5 543a12 12 0 0 1 12-12h96a12 12 0 0 1 12 12v31a12 12 0 0 1-12 12H17a12 12 0 0 1-12-12v-31Z" />
      <path fill="#fff"
        d="M58.65 546.9v23.27h-4.22V551h-.13l-5.44 3.48v-3.86l5.78-3.72h4.01Zm13.99-.32c1.11.01 2.2.2 3.25.6 1.06.37 2.01 1 2.86 1.86a9 9 0 0 1 2.03 3.44c.5 1.44.75 3.22.75 5.34 0 2-.2 3.79-.64 5.36a11.92 11.92 0 0 1-1.83 3.98 8.07 8.07 0 0 1-2.88 2.48 8.25 8.25 0 0 1-3.78.85 8.53 8.53 0 0 1-3.9-.86 7.34 7.34 0 0 1-4.03-5.8h4.15c.2.93.64 1.66 1.3 2.2a3.7 3.7 0 0 0 2.48.81c1.61 0 2.86-.7 3.73-2.1.87-1.4 1.3-3.35 1.3-5.84h-.15a5.96 5.96 0 0 1-3.46 2.83c-.74.26-1.53.39-2.36.39a7.05 7.05 0 0 1-6.26-3.66 8 8 0 0 1-.96-3.9 8 8 0 0 1 1.05-4.08 7.59 7.59 0 0 1 2.94-2.86 8.71 8.71 0 0 1 4.4-1.04Zm.01 3.41a4.18 4.18 0 0 0-3.76 2.22 4.75 4.75 0 0 0 0 4.51 4.14 4.14 0 0 0 3.72 2.2 4.19 4.19 0 0 0 3.1-1.34 4.62 4.62 0 0 0 1.26-3.15c0-.79-.2-1.52-.57-2.2a4.38 4.38 0 0 0-1.53-1.62 4.04 4.04 0 0 0-2.22-.62Z" />
    </g>
    <g data-object="Сокол__r__2609:96">
      <path fill="#78B500"
        d="M129 543a12 12 0 0 1 12-12h63a12 12 0 0 1 12 12v31a12 12 0 0 1-12 12h-63a12 12 0 0 1-12-12v-31Z" />
      <path fill="#fff"
        d="M154.2 570.17v-3.04l8.08-7.92c.77-.78 1.42-1.48 1.93-2.08.52-.6.9-1.2 1.16-1.76.26-.57.39-1.18.39-1.82a3.32 3.32 0 0 0-1.88-3.11 4.43 4.43 0 0 0-1.99-.44 4.1 4.1 0 0 0-2 .48c-.58.31-1.03.75-1.35 1.33a4.27 4.27 0 0 0-.46 2.06h-4.02a6.82 6.82 0 0 1 3.8-6.39c1.19-.6 2.55-.9 4.1-.9 1.55 0 2.92.3 4.1.88a6.7 6.7 0 0 1 2.75 2.4c.66 1.01 1 2.17 1 3.47a6.9 6.9 0 0 1-.5 2.57 10.9 10.9 0 0 1-1.77 2.8 44.7 44.7 0 0 1-3.5 3.71l-4.02 4.08v.16h10.14v3.52H154.2Zm28.48.45a8.14 8.14 0 0 1-4.82-1.42 9.05 9.05 0 0 1-3.08-4.13 17.74 17.74 0 0 1-1.07-6.51c.01-2.54.37-4.7 1.08-6.48a8.9 8.9 0 0 1 3.08-4.09 8.16 8.16 0 0 1 4.8-1.4 8.2 8.2 0 0 1 4.82 1.4 8.8 8.8 0 0 1 3.07 4.1 17.36 17.36 0 0 1 1.08 6.47c0 2.55-.36 4.72-1.07 6.52a8.88 8.88 0 0 1-3.08 4.12 8.08 8.08 0 0 1-4.81 1.42Zm0-3.56c1.45 0 2.6-.72 3.44-2.15.85-1.44 1.27-3.55 1.27-6.35 0-1.85-.19-3.4-.57-4.66a6.2 6.2 0 0 0-1.64-2.84 3.58 3.58 0 0 0-2.5-.97c-1.45 0-2.6.72-3.43 2.16-.84 1.43-1.27 3.54-1.28 6.31 0 1.86.18 3.42.56 4.68a6.26 6.26 0 0 0 1.64 2.87c.7.63 1.54.95 2.5.95Z" />
    </g>
    <g data-object="Сокол__t__2609:115">
      <rect width="66" height="199" x="467" y="596" fill="#60A5FA" rx="12" />
      <g fill="#fff" clip-path="url(#a)">
        <path
          d="M499.98 682a5.25 5.25 0 1 0 0-10.5 5.25 5.25 0 0 0 0 10.5ZM513 697.55l-.97-3.22v-.01l-2.1-7.02h-.01l-.24-.8a4.21 4.21 0 0 0-4.03-3H494.4a4.2 4.2 0 0 0-4.03 3l-.24.8-2.1 7.02-.98 3.23a1.87 1.87 0 1 0 3.58 1.12l2.4-7.99.2-.68a.75.75 0 0 1 .83-.48.75.75 0 0 1 .63.73c0 .05 0 .1-.02.15l-4.1 13.67a1.48 1.48 0 0 0 .24 1.32 1.5 1.5 0 0 0 1.2.61h2.72v10.75c0 1.54.98 2.75 2.25 2.75 1.26 0 2.25-1.2 2.25-2.75V706h1.5v10.75c0 1.54.98 2.75 2.25 2.75 1.26 0 2.25-1.2 2.25-2.75V706h2.8a1.51 1.51 0 0 0 1.21-.6 1.5 1.5 0 0 0 .24-1.33l-4.1-13.67a.75.75 0 0 1 .6-.88.75.75 0 0 1 .84.48l.2.68 2.4 8a1.87 1.87 0 0 0 2.4 1.23 1.9 1.9 0 0 0 1.18-2.36Z" />
      </g>
    </g>
    <g data-object="Сокол__t__2609:338">
      <rect width="65" height="200" x="397" y="595" fill="#60A5FA" rx="12" />
      <g fill="#fff">
        <path
          d="M429.5 681.5a5.25 5.25 0 1 0 0-10.5 5.25 5.25 0 0 0 0 10.5Zm4.5 1.5h-9a6.01 6.01 0 0 0-6 6v10.08a1.9 1.9 0 0 0 1.8 1.92 1.88 1.88 0 0 0 1.95-1.88v-9.35a.77.77 0 0 1 .7-.77.74.74 0 0 1 .74.45c.04.1.06.2.06.3v27.1a2.15 2.15 0 1 0 4.31 0v-13.38a.96.96 0 0 1 .88-.97.93.93 0 0 1 1 .94v13.4a2.15 2.15 0 1 0 4.31 0v-27.07a.77.77 0 0 1 .7-.77.74.74 0 0 1 .74.45c.04.1.06.2.06.3v9.33a1.9 1.9 0 0 0 1.8 1.92 1.88 1.88 0 0 0 1.95-1.88V689a6.01 6.01 0 0 0-6-6Z" />
      </g>
    </g>
    <g data-object="Сокол__r__2065:289" filter="url(#b)">
      <path fill="#78B500"
        d="M669 828a12 12 0 0 1 12-12h95a12 12 0 0 1 12 12v577a12 12 0 0 1-12 12h-95a12 12 0 0 1-12-12V828Z" />
      <path fill="#fff"
        d="M704.9 1130.59v-23.27h8.9c1.69 0 3.08.26 4.2.79a5.65 5.65 0 0 1 2.5 2.15c.57.91.85 1.94.85 3.09a4.6 4.6 0 0 1-2.01 4.06 6.1 6.1 0 0 1-2.06.9v.22c.83.05 1.62.3 2.38.77a5.2 5.2 0 0 1 1.87 1.93c.49.83.73 1.84.73 3.02 0 1.2-.3 2.29-.88 3.25a5.96 5.96 0 0 1-2.63 2.26c-1.18.55-2.65.83-4.43.83h-9.42Zm4.21-3.52h4.54c1.53 0 2.63-.29 3.3-.88a2.86 2.86 0 0 0 1.02-2.27 3.46 3.46 0 0 0-1.96-3.18 4.78 4.78 0 0 0-2.25-.49h-4.65v6.82Zm0-9.85h4.17c.73 0 1.38-.14 1.97-.4a3.06 3.06 0 0 0 1.89-2.92c0-.9-.32-1.65-.96-2.23-.63-.58-1.56-.87-2.8-.87h-4.27v6.42Zm27.22.04v3.39h-10.48v-3.39h10.48Zm13.74-9.94v23.27h-4.21v-19.17h-.14l-5.44 3.48v-3.87l5.78-3.71h4.01Z" />
    </g>
    <g data-object="Сокол__s__2076:292">
      <rect width="120" height="91" x="805" y="734" fill="#fff" rx="8.6" />
      <g clip-path="url(#c)">
        <path fill="#000"
          d="M881.1 767.31h-5.37v5.38c0 .09-.01.15-.04.2a1.06 1.06 0 0 1-1.04.87h-5.37v5.38c0 .1-.01.16-.03.2a1.06 1.06 0 0 1-1.04.88h-5.38v5.37c0 .1 0 .16-.03.2-.04.25-.16.46-.35.63a1 1 0 0 1-.69.25h-5.37v5.38c0 .09-.01.15-.04.2-.04.25-.16.45-.35.62a1 1 0 0 1-.69.25h-6.44a1 1 0 0 1-.76-.32 1.04 1.04 0 0 1-.32-.75c0-.3.1-.55.32-.76.21-.21.47-.32.76-.32h5.37v-5.38c0-.09.01-.15.03-.2a1.09 1.09 0 0 1 1.04-.87h5.38v-5.38c0-.09 0-.15.03-.2a1 1 0 0 1 .37-.62 1 1 0 0 1 .67-.25h5.37v-5.38c0-.07.01-.14.04-.2a.99.99 0 0 1 .37-.63c.2-.16.42-.25.67-.25h5.37v-5.37c0-.1.01-.16.03-.2.05-.25.16-.46.36-.63a1 1 0 0 1 .68-.25h6.45c.3 0 .54.1.75.32a1 1 0 0 1 .32.76c0 .29-.1.54-.31.75-.22.22-.47.32-.76.32Z" />
      </g>
    </g>
    <g data-object="Сокол__s__2583:620">
      <rect width="123" height="122" x="667" y="209" fill="#fff" rx="8.6" />
      <g clip-path="url(#d)">
        <path fill="#000"
          d="M744.6 257.81h-5.37v5.38c0 .09-.01.16-.04.2a1.06 1.06 0 0 1-1.04.87h-5.37v5.38c0 .1-.01.16-.03.2a1.06 1.06 0 0 1-1.04.88h-5.38v5.37c0 .1 0 .16-.03.2-.04.25-.16.46-.35.63a1 1 0 0 1-.69.25h-5.37v5.38c0 .09-.01.15-.04.2-.04.25-.16.45-.35.62a1 1 0 0 1-.69.25h-6.44a1 1 0 0 1-.76-.32 1.03 1.03 0 0 1-.32-.75c0-.3.1-.55.32-.76.21-.21.47-.32.76-.32h5.37v-5.38c0-.08.01-.15.03-.2a1.09 1.09 0 0 1 1.04-.87h5.38v-5.38c0-.09 0-.15.03-.2a1 1 0 0 1 .37-.62 1 1 0 0 1 .67-.25h5.37v-5.38c0-.07.01-.14.04-.2a.99.99 0 0 1 .37-.63c.2-.16.42-.25.67-.25h5.37v-5.37c0-.1.01-.16.03-.2.05-.25.16-.46.36-.63a1 1 0 0 1 .68-.25h6.45c.3 0 .54.1.75.32a1 1 0 0 1 .32.76c0 .29-.1.54-.31.75-.22.21-.47.32-.76.32Z" />
      </g>
    </g>
    <g data-object="Сокол__s__2605:163">
      <rect width="172" height="75" x="5" y="592" fill="#fff" rx="8.6" />
      <g clip-path="url(#e)">
        <path fill="#000"
          d="M107.1 617.31h-5.37v5.38c0 .09-.01.15-.04.2a1.06 1.06 0 0 1-1.04.87h-5.37v5.38c0 .1-.01.16-.03.2a1.06 1.06 0 0 1-1.04.88h-5.38v5.37c0 .1 0 .16-.03.2a1.06 1.06 0 0 1-1.04.88h-5.37v5.38c0 .09-.01.15-.04.2-.04.25-.16.45-.35.62a1 1 0 0 1-.69.25h-6.44a1 1 0 0 1-.76-.32 1.04 1.04 0 0 1-.32-.75c0-.3.1-.55.32-.76.21-.21.47-.32.76-.32h5.37v-5.38c0-.09.01-.15.03-.2a1.09 1.09 0 0 1 1.04-.87h5.38v-5.38c0-.09 0-.15.03-.2a1 1 0 0 1 .37-.62 1 1 0 0 1 .67-.25h5.37v-5.38c0-.07.01-.14.04-.2.04-.25.16-.46.36-.63.2-.16.43-.25.68-.25h5.37v-5.37c0-.1.01-.16.03-.2.05-.25.16-.46.35-.63a1 1 0 0 1 .7-.25h6.44c.3 0 .54.1.76.32.2.21.31.46.31.76 0 .29-.1.54-.31.75-.22.22-.47.32-.76.32Z" />
      </g>
    </g>
    <g data-object="Сокол__s__2387:718">
      <rect width="67" height="73" x="850" y="881" fill="#fff" rx="12" />
      <g clip-path="url(#f)">
        <path fill="#000"
          d="M905.96 900.5h-7.5v7.5c0 .13-.01.22-.05.28a1.47 1.47 0 0 1-1.45 1.22h-7.49v7.5c0 .13-.01.22-.05.28a1.48 1.48 0 0 1-1.45 1.22h-7.49v7.5c0 .13-.02.22-.05.28-.06.35-.22.63-.49.87a1.4 1.4 0 0 1-.96.35h-7.5v7.5c0 .13 0 .22-.04.28a1.48 1.48 0 0 1-1.45 1.22h-9c-.4 0-.75-.15-1.04-.45-.3-.3-.45-.64-.45-1.05 0-.4.15-.76.45-1.05.3-.3.64-.45 1.05-.45h7.5V926c0-.13 0-.22.04-.28.06-.35.23-.63.51-.87.28-.23.6-.35.94-.35h7.5V917c0-.13 0-.22.04-.28.06-.35.23-.63.51-.87.29-.23.6-.35.94-.35h7.5V908c0-.1 0-.19.04-.28.06-.35.24-.63.52-.87.28-.23.59-.35.93-.35h7.5V899c0-.13.01-.22.04-.28a1.48 1.48 0 0 1 1.45-1.22h9c.4 0 .75.15 1.05.45.3.3.44.64.44 1.05 0 .4-.15.76-.44 1.05-.3.3-.65.45-1.05.45Z" />
      </g>
    </g>
    <g>
      <path fill="#262A34"
        d="M82 116a12 12 0 0 0 12 12h25a12 12 0 0 0 12-12V76a12 12 0 0 0-12-12H94a12 12 0 0 0-12 12v40Z" />
    </g>
    <g>
      <path fill="#262A34"
        d="M760 789.5a5.5 5.5 0 0 0 5.5 5.5H778a12 12 0 0 0 12-12v-43.5a12 12 0 0 0-12-12h-6a12 12 0 0 0-12 12v18a2 2 0 1 1-4 0v-18a12 12 0 0 0-12-12h-30.43a12 12 0 0 1-8.6-3.63L693.4 712a12 12 0 0 1-3.4-8.37V685.5a12 12 0 0 0-12-12h-9.5a12 12 0 0 1-12-12v-60.7a12 12 0 0 1 12-12H778a12 12 0 0 0 12-12V352a12 12 0 0 0-12-12H540a12 12 0 0 0-12 12v175.5a12 12 0 0 0 12 12h72a12 12 0 0 1 12 12v42a12 12 0 0 1-12 12h-33.5a12 12 0 0 1-12-12V557a12 12 0 0 0-12-12H276.57a12 12 0 0 1-12-12.07l1.86-326a12 12 0 0 1 12-11.93H583.5a12 12 0 0 0 12-12V91.5a12 12 0 0 0-12-12h-307a12 12 0 0 0-12 12v42.33a12 12 0 0 1-2.58 7.44l-39.84 50.46a12 12 0 0 0-2.58 7.44V578a12 12 0 0 0 12 12H522a12 12 0 0 1 12 12v26a12 12 0 0 0 12 12h78a12 12 0 0 1 12 12v10.25c0 6.21-5.04 11.25-11.25 11.25a11.25 11.25 0 0 0-11.25 11.25V783a12 12 0 0 0 12 12h125a5.5 5.5 0 0 0 5.5-5.5V786a2 2 0 1 1 4 0v3.5Z" />
    </g>
    <g data-object="Сокол__r__2672:1294">
      <rect width="252" height="339" x="270" y="201" fill="#78B500" rx="12" />
      <path fill="#fff"
        d="M375.2 383.34c-1.63 0-3.08-.28-4.36-.84a7.3 7.3 0 0 1-3-2.35 6.06 6.06 0 0 1-1.17-3.46h4.27c.04.63.25 1.18.63 1.65.38.46.88.82 1.51 1.08.63.25 1.33.38 2.11.38.84 0 1.58-.14 2.22-.43.64-.3 1.15-.7 1.51-1.23.37-.52.54-1.12.54-1.8a3.24 3.24 0 0 0-2.16-3.13 6.4 6.4 0 0 0-2.53-.45h-2.05v-3.25h2.05c.81 0 1.52-.14 2.13-.42a3.4 3.4 0 0 0 1.44-1.19c.35-.51.52-1.1.51-1.78a3.1 3.1 0 0 0-.44-1.72c-.3-.49-.72-.87-1.26-1.14a5.01 5.01 0 0 0-3.88-.02c-.6.25-1.1.62-1.46 1.1a2.8 2.8 0 0 0-.6 1.68h-4.05c.03-1.3.4-2.45 1.13-3.43.72-1 1.7-1.77 2.9-2.32a9.62 9.62 0 0 1 4.08-.84c1.56 0 2.9.29 4.05.87a6.6 6.6 0 0 1 2.67 2.33c.63.98.94 2.06.94 3.24a4.79 4.79 0 0 1-1.16 3.3 5.45 5.45 0 0 1-3.04 1.73v.19a5.9 5.9 0 0 1 3.76 1.81 5.2 5.2 0 0 1 1.3 3.65c0 1.3-.37 2.47-1.1 3.5a7.39 7.39 0 0 1-3.05 2.41c-1.29.58-2.77.88-4.43.88Zm14.8 0v-3.55h1.33c.6 0 1.1-.09 1.48-.26.39-.17.7-.42.93-.75.25-.33.45-.7.6-1.14l.31-.78-8.32-17.12h4.41l5.8 12.46 5-12.45h4.35l-8.02 18.97c-.37.82-.8 1.58-1.29 2.29a5.54 5.54 0 0 1-1.9 1.69c-.77.42-1.77.64-3.02.64H390Zm37.5-15.74h-4.25a5.3 5.3 0 0 0-1.88-3.24 5.08 5.08 0 0 0-1.66-.85c-.62-.2-1.28-.3-2-.3a6 6 0 0 0-3.36.96 6.26 6.26 0 0 0-2.3 2.77c-.55 1.21-.82 2.7-.82 4.44 0 1.78.27 3.28.83 4.5a6.3 6.3 0 0 0 2.3 2.75 6.8 6.8 0 0 0 5.3.65 5.36 5.36 0 0 0 1.65-.83 5.06 5.06 0 0 0 1.94-3.16l4.25.02a9.15 9.15 0 0 1-3.09 5.69 9.49 9.49 0 0 1-2.98 1.72c-1.13.41-2.4.62-3.78.62-2.05 0-3.87-.48-5.48-1.42a9.91 9.91 0 0 1-3.8-4.1 13.85 13.85 0 0 1-1.38-6.44c0-2.5.47-4.65 1.4-6.43a9.98 9.98 0 0 1 9.26-5.52c1.3 0 2.5.18 3.61.54 1.12.37 2.1.9 2.98 1.6.87.7 1.59 1.56 2.15 2.57a9.45 9.45 0 0 1 1.11 3.46Z" />
    </g>
    <g>
      <path fill="#63656A"
        d="M925 1405a12 12 0 0 0 12 12h756a12 12 0 0 0 12-12V847a12 12 0 0 0-12-12H937a12 12 0 0 0-12 12v558Z" />
    </g>
    <g data-object="Сокол__r__2709:1074">
      <rect width="653" height="656" y="829" fill="#78B500" rx="12" />
      <path fill="#fff"
        d="M232.13 1171.77h-4.5l8.19-23.28h5.2l8.2 23.28h-4.5l-6.2-18.5h-.2l-6.2 18.5Zm.14-9.13h12.27v3.39h-12.27v-3.39Zm19.84 9.13v-17.46h4.11v7.05h1.5l5.25-7.05h4.96l-6.47 8.57 6.54 8.89h-4.98l-4.78-6.58h-2.02v6.58h-4.11Zm17.26-14.08v-3.38h15.28v3.38H279v14.08h-3.98v-14.08h-5.64Zm25.45 14.42c-1.7 0-3.18-.38-4.43-1.13a7.63 7.63 0 0 1-2.91-3.15 10.33 10.33 0 0 1-1.03-4.72c0-1.81.35-3.39 1.03-4.74a7.6 7.6 0 0 1 2.9-3.16 8.45 8.45 0 0 1 4.44-1.13c1.7 0 3.18.38 4.43 1.13a7.52 7.52 0 0 1 2.9 3.16 10.28 10.28 0 0 1 1.03 4.74c0 1.8-.34 3.37-1.03 4.72a7.55 7.55 0 0 1-2.9 3.15 8.46 8.46 0 0 1-4.43 1.13Zm.02-3.3c.93 0 1.7-.25 2.32-.76a4.64 4.64 0 0 0 1.38-2.07c.32-.86.47-1.82.47-2.89a8.5 8.5 0 0 0-.46-2.89 4.57 4.57 0 0 0-1.4-2.08 3.49 3.49 0 0 0-2.3-.78c-.96 0-1.74.26-2.37.78a4.65 4.65 0 0 0-1.4 2.08c-.3.86-.45 1.83-.45 2.89 0 1.07.15 2.03.45 2.89.31.86.78 1.55 1.4 2.07.63.51 1.41.76 2.36.76Zm11.83 2.96v-17.46H314c2.07 0 3.7.41 4.9 1.24 1.2.83 1.8 1.98 1.8 3.45a3.1 3.1 0 0 1-1.02 2.4 5.38 5.38 0 0 1-2.76 1.24c.92.08 1.72.31 2.41.69.7.39 1.24.9 1.64 1.53.4.62.59 1.35.59 2.17 0 .96-.25 1.8-.76 2.51-.5.7-1.23 1.25-2.2 1.65a9.4 9.4 0 0 1-3.47.58h-8.46Zm3.85-3.24h4.6a2.7 2.7 0 0 0 1.8-.54c.42-.36.64-.85.64-1.47 0-.72-.22-1.29-.65-1.7a2.49 2.49 0 0 0-1.78-.62h-4.6v4.33Zm0-6.99h3.56a3.9 3.9 0 0 0 1.44-.24c.4-.17.71-.4.93-.69.2-.31.31-.67.31-1.08 0-.6-.24-1.07-.74-1.41a3.48 3.48 0 0 0-2.02-.51h-3.48v3.93Zm17.22-1.55h5.15c2.22 0 3.95.54 5.17 1.63a5.45 5.45 0 0 1 1.84 4.26 5.58 5.58 0 0 1-3.23 5.14c-1.04.5-2.3.75-3.78.75h-7.94v-17.46h3.97v14.08h3.97c.89 0 1.63-.23 2.2-.68.58-.46.86-1.05.86-1.77a2.3 2.3 0 0 0-.86-1.86 3.38 3.38 0 0 0-2.2-.71h-5.15v-3.38Zm14.33 11.78v-17.46h4.11v17.46h-4.11Zm12.32-5.57 6.99-11.89h4.23v17.46h-3.98v-11.9l-6.97 11.9h-4.24v-17.46h3.97v11.89Zm5.86-17.89h3.08c0 1.33-.48 2.4-1.44 3.23a5.77 5.77 0 0 1-3.89 1.23 5.77 5.77 0 0 1-3.87-1.23 4.04 4.04 0 0 1-1.42-3.23h3.05c0 .55.17 1.03.5 1.47.35.42.92.63 1.74.63.8 0 1.38-.21 1.72-.63.35-.43.52-.92.53-1.47Zm16.55 18.67h4.08c.04.65.33 1.16.88 1.51a3.8 3.8 0 0 0 2.12.54c.89 0 1.63-.2 2.24-.58a2 2 0 0 0 .92-1.79 2.2 2.2 0 0 0-1.34-2.08 3.65 3.65 0 0 0-1.5-.29h-2.67v-2.92h2.67c.86 0 1.5-.2 1.94-.59.45-.4.67-.89.67-1.49 0-.65-.23-1.17-.7-1.57-.46-.4-1.1-.6-1.92-.6-.82 0-1.5.18-2.05.55-.54.38-.82.85-.84 1.44h-4.06a4.3 4.3 0 0 1 .91-2.65c.6-.75 1.4-1.33 2.41-1.75a8.9 8.9 0 0 1 3.43-.63c1.37 0 2.55.21 3.54.62 1 .41 1.76.98 2.3 1.71.53.73.8 1.59.8 2.57 0 .95-.3 1.73-.89 2.35a4.92 4.92 0 0 1-2.38 1.32v.18a3.84 3.84 0 0 1 3.18 2.01c.32.6.49 1.3.49 2.08 0 1.07-.3 2-.92 2.78a5.89 5.89 0 0 1-2.54 1.78 9.94 9.94 0 0 1-3.67.63c-1.34 0-2.54-.2-3.6-.61a5.88 5.88 0 0 1-2.51-1.76 4.48 4.48 0 0 1-.99-2.76Zm22.49 5.14c-1.1 0-2.1-.2-2.99-.59a4.9 4.9 0 0 1-2.09-1.78 5.17 5.17 0 0 1-.76-2.88 5 5 0 0 1 .54-2.45c.37-.64.86-1.15 1.5-1.54a7.49 7.49 0 0 1 2.12-.88c.8-.2 1.62-.35 2.46-.44l2.5-.28a3.7 3.7 0 0 0 1.38-.41c.3-.19.44-.48.44-.88v-.07c0-.85-.25-1.51-.76-1.98-.5-.47-1.24-.71-2.2-.71-1 0-1.8.22-2.4.66a3.3 3.3 0 0 0-1.17 1.56l-3.84-.55a6.13 6.13 0 0 1 4.05-4.27 10.74 10.74 0 0 1 5.85-.25 7 7 0 0 1 2.29.98 4.81 4.81 0 0 1 1.66 1.83c.42.77.63 1.73.63 2.89v11.69h-3.95v-2.4h-.14a5.02 5.02 0 0 1-2.75 2.37c-.67.25-1.46.38-2.37.38Zm1.07-3.03a4.5 4.5 0 0 0 2.14-.48 3.64 3.64 0 0 0 1.4-1.32c.34-.55.5-1.14.5-1.79v-2.05c-.13.1-.34.2-.66.29-.3.09-.64.17-1.02.24l-1.12.18-.97.14c-.61.08-1.16.22-1.65.41-.48.19-.87.45-1.15.79-.27.34-.42.77-.42 1.3 0 .76.28 1.33.83 1.72.56.38 1.26.57 2.12.57Zm11.08 2.68-.03-3.39h.6a2 2 0 0 0 1.15-.31c.31-.2.57-.54.78-1.02.2-.49.36-1.14.47-1.96.12-.81.2-1.83.24-3.05l.31-7.73h12.73v17.46h-3.98v-14.08h-5.01l-.27 5.62a20.14 20.14 0 0 1-.5 3.78 7.94 7.94 0 0 1-1.06 2.63 4.43 4.43 0 0 1-1.72 1.55c-.69.33-1.5.5-2.44.5h-1.27Z" />
    </g>
    <g data-object="Сокол__cl__2709:1077">
      <rect width="133" height="128" x="529" y="201" fill="#63656A" rx="12" />
      <g clip-path="url(#g)">
        <path fill="#fff"
          d="M599.5 270.33v.27c3.48.49 6.35 1.5 8.6 3.03 2.27 1.54 3.4 3.28 3.4 5.24 0 .57-.3 1.07-.88 1.5-.58.42-1.29.63-2.12.63-.83 0-1.54-.21-2.13-.63-.58-.43-.87-.93-.87-1.5 0-.78-.45-1.5-1.34-2.15-.9-.66-2.11-1.18-3.64-1.55-1.54-.38-3.2-.57-5.02-.57-1.81 0-3.48.19-5.02.57-1.53.37-2.74.9-3.64 1.55-.9.65-1.34 1.37-1.34 2.15 0 .57-.3 1.07-.88 1.5-.58.42-1.29.63-2.12.63-.83 0-1.54-.21-2.13-.63-.58-.43-.87-.93-.87-1.5 0-1.98 1.13-3.73 3.4-5.25 2.25-1.53 5.12-2.53 8.6-3.02v-.27c0-.57.2-1.07.6-1.5.39-.42.86-.63 1.4-.63v-4.27c0-.57.2-1.07.6-1.5.39-.42.86-.63 1.4-.63 1.1 0 2.05-.42 2.83-1.25a4.25 4.25 0 0 0 1.17-3.02 4.3 4.3 0 0 0-1.17-3.01 3.73 3.73 0 0 0-2.83-1.25c-1.1 0-2.05.41-2.83 1.25a4.25 4.25 0 0 0-1.17 3.01c0 .58-.2 1.08-.58 1.5a1.88 1.88 0 0 1-2.83 0 2.1 2.1 0 0 1-.59-1.5 8.5 8.5 0 0 1 2.34-6.03 7.47 7.47 0 0 1 5.66-2.5c2.2 0 4.1.83 5.66 2.5a8.5 8.5 0 0 1 2.34 6.03c0 1.96-.56 3.7-1.69 5.24a7.86 7.86 0 0 1-4.31 3.03v2.4c.56 0 1.04.21 1.42.63.39.43.58.93.58 1.5Z" />
      </g>
    </g>
  </g>
  <defs>
    <clipPath id="a">
      <path fill="#fff" d="M476 671.5h48v48h-48z" />
    </clipPath>
    <clipPath id="c">
      <path fill="#fff" d="M847.8 762.3h34.42v34.42H847.8z" />
    </clipPath>
    <clipPath id="d">
      <path fill="#fff" d="M711.3 252.8h34.42v34.42H711.3z" />
    </clipPath>
    <clipPath id="e">
      <path fill="#fff" d="M73.8 612.3h34.42v34.42H73.8z" />
    </clipPath>
    <clipPath id="f">
      <path fill="#fff" d="M859.5 893.5h48v48h-48z" />
    </clipPath>
    <clipPath id="g">
      <path fill="#fff" d="M579.5 249h32v32h-32z" />
    </clipPath>
    <filter id="b" width="127" height="609" x="665" y="816" color-interpolation-filters="sRGB"
      filterUnits="userSpaceOnUse">
      <feFlood flood-opacity="0" result="BackgroundImageFix" />
      <feColorMatrix in="SourceAlpha" result="hardAlpha"
        values="0 0 0 0 0 0 0 0 0 0 0 0 0 0 0 0 0 0 127 0" />
      <feOffset dy="4" />
      <feGaussianBlur stdDeviation="2" />
      <feComposite in2="hardAlpha" operator="out" />
      <feColorMatrix values="0 0 0 0 0 0 0 0 0 0 0 0 0 0 0 0 0 0 0.25 0" />
      <feBlend in2="BackgroundImageFix" result="effect1_dropShadow_6056_3468" />
      <feBlend in="SourceGraphic" in2="effect1_dropShadow_6056_3468" result="shape" />
    </filter>
  </defs>
</svg>