<svg xmlns="http://www.w3.org/2000/svg" width="746" height="572" fill="none" viewBox="0 0 746 572">
  <g>
    <g>
      <path fill="#262A34"
        d="M139 376.9a12 12 0 0 0 7.67 11.19l89.38 34.59a12 12 0 0 0 16.33-11.2v-14.36a12 12 0 0 1 12-12h222.24a12 12 0 0 1 12 12V417a12 12 0 0 0 12 12H603a12 12 0 0 0 12-12V157a12 12 0 0 0-12-12h-92.38a12 12 0 0 0-12 12v15a12 12 0 0 1-12 12H260a12 12 0 0 1-12-12v-15a12 12 0 0 0-12-12h-85a12 12 0 0 0-12 12v219.9Z" />
    </g>
    <g>
      <rect width="6" height="19" x="614" y="400" fill="#262A34" rx="3" />
    </g>
    <g>
      <rect width="55" height="38" x="167" y="388" fill="#262A34" rx="3" />
    </g>
    <g>
      <rect width="22" height="28" x="231" y="145" fill="#262A34" rx="3" />
    </g>
    <g>
      <rect width="7" height="20" x="492" y="151" fill="#262A34" rx="3" />
    </g>
    <g>
      <rect width="20" height="7" x="518" y="141" fill="#262A34" rx="3" />
    </g>
    <g>
      <rect width="20" height="9" x="577" y="139" fill="#262A34" rx="3" />
    </g>
    <g>
      <rect width="10" height="19" x="490" y="403" fill="#262A34" rx="3" />
    </g>
    <g>
      <rect width="18" height="9" x="575" y="429" fill="#262A34" rx="3" />
    </g>
    <g>
      <rect width="7" height="22" x="612" y="209" fill="#262A34" rx="3" />
    </g>
    <g>
      <rect width="19" height="22" x="126" y="211" fill="#262A34" rx="3" />
    </g>
    <g>
      <rect width="7" height="23" x="612" y="150" fill="#262A34" rx="3" />
    </g>
    <g data-object="Сокол__t__2100:178">
      <rect width="48" height="66" x="432" y="336" fill="#60A5FA" rx="12"
        transform="rotate(-90 432 336)" />
      <g fill="#fff">
        <path
          d="M451.5 312a5.25 5.25 0 1 0-10.5 0 5.25 5.25 0 0 0 10.5 0Zm1.5-4.5v9a6.01 6.01 0 0 0 6 6h10.08a1.9 1.9 0 0 0 1.92-1.8 1.88 1.88 0 0 0-1.88-1.95h-9.35a.77.77 0 0 1-.77-.7.74.74 0 0 1 .45-.74.8.8 0 0 1 .3-.06h27.1a2.15 2.15 0 1 0 0-4.31h-13.38a.96.96 0 0 1-.97-.88.93.93 0 0 1 .94-1h13.4a2.15 2.15 0 1 0 0-4.31h-27.06a.77.77 0 0 1-.78-.7.74.74 0 0 1 .45-.74.8.8 0 0 1 .3-.06h9.33a1.9 1.9 0 0 0 1.92-1.8 1.88 1.88 0 0 0-1.88-1.95H459a6.01 6.01 0 0 0-6 6Z" />
      </g>
    </g>
    <g data-object="Сокол__t__2100:165">
      <rect width="51" height="66" x="432" y="288" fill="#60A5FA" rx="12"
        transform="rotate(-90 432 288)" />
      <g fill="#fff" clip-path="url(#a)">
        <path
          d="M451.5 262.52a5.25 5.25 0 1 0-10.5 0 5.25 5.25 0 0 0 10.5 0Zm15.55-13.02-3.22.97h-.01l-7.02 2.1v.01l-.8.24a4.2 4.2 0 0 0-3 4.03v11.25a4.2 4.2 0 0 0 3 4.03l.8.24 7.02 2.1 3.23.98a1.87 1.87 0 1 0 1.12-3.58l-7.99-2.4-.68-.2a.75.75 0 0 1-.48-.83.75.75 0 0 1 .73-.63c.05 0 .1 0 .15.02l13.67 4.1a1.48 1.48 0 0 0 1.32-.24 1.5 1.5 0 0 0 .61-1.2v-2.72h10.75c1.55 0 2.75-.98 2.75-2.25 0-1.26-1.2-2.25-2.75-2.25H475.5v-1.5h10.75c1.55 0 2.75-.98 2.75-2.25 0-1.26-1.2-2.25-2.75-2.25H475.5v-2.8a1.51 1.51 0 0 0-.6-1.21 1.5 1.5 0 0 0-1.33-.24l-13.67 4.1a.75.75 0 0 1-.88-.6.75.75 0 0 1 .48-.84l.68-.2 8-2.4a1.87 1.87 0 0 0 1.23-2.4 1.9 1.9 0 0 0-2.36-1.18Z" />
      </g>
    </g>
    <g data-object="Сокол__r__2098:127">
      <path fill="#78B500"
        d="M499 12a12 12 0 0 1 12-12h32a12 12 0 0 1 12 12v117a12 12 0 0 1-12 12h-32a12 12 0 0 1-12-12V12Z" />
      <path fill="#fff"
        d="M502.82 76.6V64.94h4.46c.84 0 1.54.14 2.1.4.55.26.97.62 1.25 1.08.28.45.42.97.42 1.54 0 .48-.1.88-.27 1.22-.19.33-.43.6-.74.81-.3.2-.65.36-1.03.45v.11a2.64 2.64 0 0 1 2.13 1.35c.24.42.36.92.36 1.51 0 .6-.14 1.14-.43 1.63-.3.47-.74.85-1.32 1.13a5.2 5.2 0 0 1-2.22.41h-4.7Zm2.1-1.77h2.28c.76 0 1.31-.15 1.65-.44.34-.3.51-.67.51-1.13a1.74 1.74 0 0 0-.98-1.6 2.41 2.41 0 0 0-1.13-.24h-2.32v3.41Zm0-4.93h2.1c.36 0 .69-.06.98-.2a1.54 1.54 0 0 0 .94-1.46c0-.45-.16-.82-.48-1.1-.31-.3-.78-.45-1.4-.45h-2.13v3.21Zm8.1 4.53v-1.67l4.93-7.8h1.4v2.38h-.85l-3.33 5.27v.09h6.9v1.73H513Zm5.54 2.16v-2.67l.03-.75v-8.22h1.99V76.6h-2.02Zm10.63-6.66v1.69h-5.24v-1.7h5.24Zm6.44 6.88c-.93 0-1.74-.23-2.4-.7a4.52 4.52 0 0 1-1.55-2.07 8.87 8.87 0 0 1-.53-3.26c0-1.26.19-2.34.54-3.23.36-.9.87-1.58 1.54-2.05.67-.47 1.47-.7 2.4-.7.94 0 1.74.23 2.4.7a4.4 4.4 0 0 1 1.55 2.05c.36.89.54 1.97.54 3.23a8.8 8.8 0 0 1-.54 3.27 4 4 0 0 1-3.94 2.76Zm0-1.78c.73 0 1.3-.35 1.73-1.07.42-.72.63-1.78.63-3.18 0-.92-.1-1.7-.29-2.33a3.1 3.1 0 0 0-.82-1.42 1.8 1.8 0 0 0-1.25-.48c-.72 0-1.3.36-1.71 1.08a6.36 6.36 0 0 0-.64 3.15c0 .93.1 1.71.28 2.35.2.63.47 1.1.82 1.43.35.32.77.47 1.25.47Zm6.16-.6v-1.67l4.94-7.8h1.4v2.38h-.85l-3.33 5.27v.09h6.9v1.73h-9.06Zm5.56 2.16v-2.67l.02-.75v-8.22h1.99V76.6h-2.01Z" />
    </g>
    <g data-object="Сокол__r__2098:139">
      <path fill="#78B500"
        d="M619 12a12 12 0 0 1 12-12h103a12 12 0 0 1 12 12v172a12 12 0 0 1-12 12H631a12 12 0 0 1-12-12V12Z" />
      <path fill="#fff"
        d="M658.95 104.77V93.13h4.45c.84 0 1.54.13 2.1.4a2.77 2.77 0 0 1 1.67 2.62 2.3 2.3 0 0 1-1 2.03c-.3.2-.65.35-1.03.44v.12a2.64 2.64 0 0 1 2.13 1.35c.24.41.36.91.36 1.5 0 .6-.15 1.15-.44 1.63-.29.48-.73.85-1.32 1.13a5.2 5.2 0 0 1-2.21.42h-4.71Zm2.1-1.77h2.27c.77 0 1.32-.14 1.65-.43.35-.3.52-.68.52-1.14a1.74 1.74 0 0 0-.99-1.6 2.42 2.42 0 0 0-1.12-.24h-2.33V103Zm0-4.92h2.09c.36 0 .7-.07.98-.2.3-.14.52-.33.7-.57.16-.25.25-.55.25-.9 0-.44-.16-.81-.48-1.1-.32-.3-.78-.44-1.4-.44h-2.14v3.2Zm8.09 4.53v-1.68l4.94-7.8h1.4v2.39h-.86l-3.32 5.26v.1h6.89v1.73h-9.05Zm5.55 2.16v-2.67l.02-.75v-8.22h2v11.64h-2.02Zm10.63-6.67v1.7h-5.24v-1.7h5.24Zm6.44 6.89c-.94 0-1.74-.24-2.41-.71a4.53 4.53 0 0 1-1.54-2.07 8.87 8.87 0 0 1-.53-3.25c0-1.27.18-2.35.54-3.24.36-.9.87-1.58 1.54-2.05.67-.47 1.47-.7 2.4-.7.93 0 1.73.23 2.4.7a4.4 4.4 0 0 1 1.54 2.05c.36.9.54 1.97.54 3.24a8.8 8.8 0 0 1-.54 3.26c-.35.9-.87 1.58-1.54 2.06-.66.47-1.46.7-2.4.7Zm0-1.78c.73 0 1.3-.36 1.72-1.07.42-.72.64-1.78.64-3.18 0-.93-.1-1.7-.3-2.33a3.1 3.1 0 0 0-.81-1.42 1.8 1.8 0 0 0-1.25-.48c-.72 0-1.3.36-1.72 1.08a6.36 6.36 0 0 0-.63 3.15c0 .93.09 1.7.28 2.34.19.63.46 1.1.81 1.43.36.32.77.48 1.26.48Zm10.63 1.71c-.55 0-1.1-.1-1.63-.28a4 4 0 0 1-1.43-.94 4.61 4.61 0 0 1-1.01-1.74 8.24 8.24 0 0 1-.37-2.68c0-1 .1-1.89.32-2.67a5.9 5.9 0 0 1 .91-1.98 4.04 4.04 0 0 1 3.33-1.66c.73 0 1.38.14 1.94.43a3.66 3.66 0 0 1 2.03 2.87h-2.08c-.1-.45-.32-.8-.65-1.07s-.74-.4-1.24-.4c-.8 0-1.43.34-1.86 1.04-.43.7-.65 1.67-.66 2.9h.08c.19-.34.43-.63.72-.87a3.54 3.54 0 0 1 2.19-.75 3.5 3.5 0 0 1 3.13 1.84c.32.57.48 1.22.48 1.95a3.79 3.79 0 0 1-2 3.5c-.63.35-1.36.52-2.2.51Zm-.01-1.7a2.08 2.08 0 0 0 1.88-1.11c.19-.34.28-.73.28-1.15 0-.42-.09-.8-.27-1.13a2.08 2.08 0 0 0-1.86-1.1 2.1 2.1 0 0 0-1.55.67 2.28 2.28 0 0 0-.36 2.7 2.1 2.1 0 0 0 1.88 1.12Z" />
    </g>
    <g data-object="Сокол__r__2098:148">
      <path fill="#78B500"
        d="M499 447a12 12 0 0 1 12-12h89a12 12 0 0 1 12 12v113a12 12 0 0 1-12 12h-89a12 12 0 0 1-12-12V447Z" />
      <path fill="#fff"
        d="M532.06 509.27v-11.64h4.45c.84 0 1.54.14 2.1.4s.98.62 1.25 1.08c.28.45.42.96.42 1.54a2.3 2.3 0 0 1-1 2.03c-.3.2-.65.36-1.03.45v.11a2.64 2.64 0 0 1 2.13 1.35c.24.41.36.92.36 1.5a2.9 2.9 0 0 1-1.76 2.76 5.2 5.2 0 0 1-2.21.42h-4.71Zm2.1-1.76h2.27c.77 0 1.32-.15 1.66-.44.34-.3.5-.67.5-1.14a1.74 1.74 0 0 0-.98-1.59 2.43 2.43 0 0 0-1.12-.24h-2.32v3.4Zm0-4.93h2.1c.36 0 .68-.06.97-.2a1.54 1.54 0 0 0 .94-1.46c0-.45-.15-.82-.47-1.11-.31-.3-.78-.44-1.4-.44h-2.13v3.21Zm8.09 4.53v-1.68l4.94-7.8h1.4v2.39h-.86l-3.32 5.27v.09h6.9v1.73h-9.06Zm5.55 2.16v-2.67l.02-.75v-8.22h2v11.64h-2.02Zm10.63-6.66v1.69h-5.24v-1.7h5.24Zm6.44 6.88a4.1 4.1 0 0 1-2.4-.7 4.52 4.52 0 0 1-1.55-2.07 8.86 8.86 0 0 1-.53-3.26c0-1.27.18-2.35.54-3.24.36-.89.87-1.57 1.54-2.04s1.47-.7 2.4-.7c.93 0 1.73.23 2.4.7a4.4 4.4 0 0 1 1.54 2.04c.36.9.54 1.98.54 3.24 0 1.28-.18 2.36-.54 3.26-.35.9-.87 1.59-1.54 2.06-.66.47-1.46.71-2.4.71Zm0-1.78c.73 0 1.3-.35 1.72-1.07a6.3 6.3 0 0 0 .64-3.18c0-.92-.1-1.7-.3-2.33a3 3 0 0 0-.81-1.42 1.79 1.79 0 0 0-1.25-.48c-.72 0-1.3.36-1.72 1.08a6.36 6.36 0 0 0-.63 3.15c0 .93.09 1.71.28 2.34.19.64.46 1.11.82 1.44.35.31.77.47 1.25.47Zm10.5 1.72a5.6 5.6 0 0 1-2.24-.43 3.76 3.76 0 0 1-1.54-1.16 2.74 2.74 0 0 1-.54-1.69c0-.49.1-.94.32-1.35a3.01 3.01 0 0 1 2.11-1.55v-.08a2.46 2.46 0 0 1-1.46-.91 2.64 2.64 0 0 1-.54-1.67c0-.6.16-1.13.5-1.6.34-.47.8-.84 1.39-1.1.58-.28 1.25-.42 2-.42s1.42.14 2 .41a3.4 3.4 0 0 1 1.39 1.11c.34.47.51 1 .51 1.6a2.63 2.63 0 0 1-2 2.58v.08a3.01 3.01 0 0 1 2.43 2.9c0 .63-.18 1.2-.56 1.69-.37.49-.88.88-1.53 1.16-.65.29-1.4.43-2.23.43Zm0-1.63c.44 0 .82-.07 1.14-.22.33-.15.58-.36.75-.63a1.77 1.77 0 0 0-.02-1.93 1.9 1.9 0 0 0-.76-.68 2.42 2.42 0 0 0-1.1-.24 2.12 2.12 0 0 0-1.89.92c-.18.28-.27.61-.27.98a1.66 1.66 0 0 0 1.01 1.58c.33.15.7.22 1.15.22Zm0-5.3c.36 0 .68-.07.95-.21a1.64 1.64 0 0 0 .9-1.5c0-.33-.09-.62-.24-.87a1.54 1.54 0 0 0-.65-.59c-.27-.14-.6-.2-.95-.2-.37 0-.7.06-.97.2-.28.14-.5.33-.65.59-.15.25-.23.54-.22.87 0 .34.07.64.22.9.16.25.38.45.66.6.28.14.6.21.96.21Z" />
    </g>
    <g data-object="Сокол__r__2098:142">
      <path fill="#78B500"
        d="M619 397a12 12 0 0 1 12-12h103a12 12 0 0 1 12 12v163a12 12 0 0 1-12 12H631a12 12 0 0 1-12-12V397Z" />
      <path fill="#fff"
        d="M660.1 484.8v-11.65h4.45c.84 0 1.54.14 2.1.4a2.8 2.8 0 0 1 1.67 2.62 2.3 2.3 0 0 1-1 2.03c-.31.2-.65.36-1.03.45v.11a2.64 2.64 0 0 1 2.13 1.35c.24.42.36.92.36 1.51 0 .6-.15 1.14-.44 1.63-.3.47-.73.85-1.32 1.13-.59.27-1.32.41-2.21.41h-4.71Zm2.1-1.77h2.27c.77 0 1.32-.15 1.65-.44.35-.3.51-.67.51-1.13a1.74 1.74 0 0 0-.98-1.6 2.41 2.41 0 0 0-1.12-.24h-2.33v3.41Zm0-4.93h2.09c.36 0 .69-.06.98-.2a1.53 1.53 0 0 0 .94-1.46c0-.45-.15-.82-.47-1.1-.32-.3-.78-.45-1.4-.45h-2.14v3.21Zm8.09 4.53v-1.67l4.94-7.8h1.4v2.38h-.86l-3.32 5.27v.09h6.89v1.73h-9.05Zm5.55 2.16v-2.67l.02-.75v-8.22h1.99v11.64h-2.01Zm10.63-6.66v1.69h-5.24v-1.7h5.24Zm6.44 6.88c-.94 0-1.74-.23-2.41-.7a4.53 4.53 0 0 1-1.54-2.07 8.87 8.87 0 0 1-.54-3.26c0-1.26.19-2.34.55-3.23.36-.9.87-1.58 1.53-2.05a4.1 4.1 0 0 1 2.4-.7c.94 0 1.74.23 2.41.7a4.4 4.4 0 0 1 1.54 2.05c.36.89.54 1.97.54 3.23a8.8 8.8 0 0 1-.54 3.27 3.98 3.98 0 0 1-3.94 2.76Zm0-1.78c.73 0 1.3-.35 1.72-1.07.42-.72.64-1.78.64-3.18 0-.92-.1-1.7-.3-2.33a3.1 3.1 0 0 0-.81-1.42 1.8 1.8 0 0 0-1.25-.48c-.73 0-1.3.36-1.72 1.08a6.36 6.36 0 0 0-.63 3.15c0 .93.09 1.71.27 2.34.2.64.47 1.12.82 1.44.36.31.77.47 1.26.47Zm6.48 1.56 4.95-9.8v-.07h-5.74v-1.77h7.92v1.8l-4.94 9.84h-2.19Z" />
    </g>
    <g data-object="Сокол__r__2098:136">
      <path fill="#78B500"
        d="M559 12a12 12 0 0 1 12-12h29a12 12 0 0 1 12 12v117a12 12 0 0 1-12 12h-29a12 12 0 0 1-12-12V12Z" />
      <path fill="#fff"
        d="M561.82 76.6V64.94h4.45c.85 0 1.54.14 2.1.4a2.8 2.8 0 0 1 1.68 2.62c0 .48-.1.88-.27 1.22-.19.33-.43.6-.74.81-.3.2-.65.36-1.03.45v.11a2.64 2.64 0 0 1 2.13 1.35c.24.42.36.92.36 1.51 0 .6-.14 1.14-.44 1.63-.29.47-.73.85-1.31 1.13a5.2 5.2 0 0 1-2.22.41h-4.71Zm2.1-1.77h2.28c.76 0 1.31-.15 1.65-.44.34-.3.51-.67.51-1.13a1.74 1.74 0 0 0-.98-1.6 2.42 2.42 0 0 0-1.13-.24h-2.32v3.41Zm0-4.93h2.1c.36 0 .68-.06.98-.2a1.54 1.54 0 0 0 .94-1.46c0-.45-.16-.82-.48-1.1-.31-.3-.78-.45-1.4-.45h-2.13v3.21Zm8.1 4.53v-1.67l4.93-7.8h1.4v2.38h-.86l-3.32 5.27v.09h6.9v1.73H572Zm5.54 2.16v-2.67l.03-.75v-8.22h1.98V76.6h-2Zm10.63-6.66v1.69h-5.24v-1.7h5.24Zm6.44 6.88c-.93 0-1.74-.23-2.4-.7a4.52 4.52 0 0 1-1.55-2.07 8.87 8.87 0 0 1-.53-3.26c0-1.26.18-2.34.54-3.23.36-.9.87-1.58 1.54-2.05.67-.47 1.47-.7 2.4-.7.93 0 1.74.23 2.4.7a4.4 4.4 0 0 1 1.55 2.05c.36.89.53 1.97.53 3.23a8.8 8.8 0 0 1-.53 3.27 4 4 0 0 1-3.94 2.76Zm0-1.78c.73 0 1.3-.35 1.72-1.07a6.3 6.3 0 0 0 .64-3.18c0-.92-.1-1.7-.29-2.33a3.1 3.1 0 0 0-.82-1.42 1.79 1.79 0 0 0-1.25-.48c-.72 0-1.3.36-1.71 1.08a6.36 6.36 0 0 0-.64 3.15c0 .93.09 1.71.28 2.35.2.63.47 1.1.82 1.43.35.32.77.47 1.25.47Zm10.42 1.72c-.76 0-1.44-.14-2.03-.43a3.63 3.63 0 0 1-1.43-1.18 3.12 3.12 0 0 1-.56-1.71h2.05c.03.47.24.86.62 1.17.37.3.82.45 1.35.45.41 0 .78-.1 1.1-.29a2 2 0 0 0 .76-.79c.19-.34.28-.72.27-1.15 0-.44-.08-.83-.27-1.17a2.17 2.17 0 0 0-1.92-1.1 2.66 2.66 0 0 0-1.83.72l-1.9-.32.6-6h6.76v1.77h-5l-.34 3.08h.06c.22-.25.52-.46.92-.63.4-.17.83-.25 1.3-.25a3.58 3.58 0 0 1 3.19 1.86c.32.58.48 1.24.48 1.99a3.9 3.9 0 0 1-2.01 3.47c-.63.34-1.35.51-2.17.51Z" />
    </g>
    <g data-object="Сокол__r__2098:124">
      <path fill="#78B500"
        d="M253 12a12 12 0 0 1 12-12h215a12 12 0 0 1 12 12v156a12 12 0 0 1-12 12H265a12 12 0 0 1-12-12V12Z" />
      <path fill="#fff"
        d="M325.51 102.48V79.2h8.91c1.68 0 3.08.26 4.2.8a5.6 5.6 0 0 1 2.5 2.14c.57.9.85 1.94.85 3.09a4.58 4.58 0 0 1-2.01 4.06 6.2 6.2 0 0 1-2.06.9v.22a5.28 5.28 0 0 1 4.25 2.7c.48.83.73 1.84.73 3.02 0 1.2-.3 2.29-.88 3.25a5.95 5.95 0 0 1-2.63 2.26 10.4 10.4 0 0 1-4.44.83h-9.42Zm4.22-3.52h4.53c1.53 0 2.63-.3 3.3-.88a2.87 2.87 0 0 0 1.03-2.27 3.48 3.48 0 0 0-1.96-3.18 4.83 4.83 0 0 0-2.25-.5h-4.65v6.83Zm0-9.86h4.17a4.7 4.7 0 0 0 1.97-.4 3.08 3.08 0 0 0 1.89-2.92c0-.9-.33-1.64-.96-2.22-.63-.59-1.57-.88-2.81-.88h-4.26v6.42Zm16.17 9.06v-3.35l9.87-15.6h2.8v4.77h-1.7L350.2 94.5v.18H364v3.47h-18.1Zm11.1 4.32v-5.34l.04-1.5V79.2h3.98v23.27H357Zm21.25-13.33v3.39h-10.47v-3.4h10.47Zm12.89 13.77a8.14 8.14 0 0 1-4.82-1.42 9.05 9.05 0 0 1-3.08-4.12 17.71 17.71 0 0 1-1.07-6.52c0-2.53.37-4.7 1.08-6.47a8.9 8.9 0 0 1 3.08-4.1 8.17 8.17 0 0 1 4.8-1.4c1.87 0 3.47.47 4.81 1.4a8.8 8.8 0 0 1 3.08 4.1 17.36 17.36 0 0 1 1.08 6.47c0 2.55-.36 4.72-1.08 6.53a8.87 8.87 0 0 1-3.08 4.11 8.08 8.08 0 0 1-4.8 1.42Zm0-3.56c1.45 0 2.6-.71 3.44-2.14.85-1.44 1.27-3.56 1.27-6.36 0-1.84-.19-3.4-.58-4.65a6.18 6.18 0 0 0-1.63-2.85 3.58 3.58 0 0 0-2.5-.96c-1.45 0-2.6.72-3.44 2.16-.83 1.43-1.26 3.53-1.27 6.3 0 1.86.18 3.42.56 4.69a6.26 6.26 0 0 0 1.64 2.86c.7.64 1.54.95 2.5.95Zm21.1 3.44c-1.64 0-3.1-.28-4.37-.84a7.3 7.3 0 0 1-3-2.35 6.07 6.07 0 0 1-1.17-3.46h4.27c.04.63.25 1.18.63 1.65.37.46.88.82 1.5 1.08.63.25 1.34.38 2.12.38a5.4 5.4 0 0 0 2.22-.43 3.6 3.6 0 0 0 1.5-1.23c.37-.52.55-1.12.54-1.8 0-.7-.17-1.33-.54-1.87a3.65 3.65 0 0 0-1.62-1.26c-.7-.3-1.54-.45-2.52-.45h-2.06v-3.25h2.06c.81 0 1.52-.14 2.12-.42.62-.28 1.1-.68 1.45-1.19.35-.51.52-1.1.5-1.78a3.1 3.1 0 0 0-.43-1.72 3 3 0 0 0-1.27-1.14 5 5 0 0 0-3.88-.02c-.6.25-1.08.62-1.46 1.1a2.8 2.8 0 0 0-.59 1.68h-4.05a5.9 5.9 0 0 1 1.12-3.43c.73-1 1.7-1.77 2.91-2.32a9.6 9.6 0 0 1 4.08-.84c1.55 0 2.9.29 4.05.87A6.6 6.6 0 0 1 419 82.1c.63.98.95 2.06.95 3.24 0 1.31-.38 2.41-1.16 3.3a5.44 5.44 0 0 1-3.05 1.73v.19a5.9 5.9 0 0 1 3.76 1.81 5.2 5.2 0 0 1 1.31 3.65c0 1.3-.37 2.47-1.11 3.5a7.38 7.38 0 0 1-3.05 2.41c-1.29.58-2.76.88-4.43.88Z" />
    </g>
    <g data-object="Сокол__r__2098:156">
      <path fill="#78B500"
        d="M258 406a12 12 0 0 1 12-12h210a12 12 0 0 1 12 12v154a12 12 0 0 1-12 12H270a12 12 0 0 1-12-12V406Z" />
      <path fill="#fff"
        d="M327.45 494.82v-23.27h8.9c1.69 0 3.09.26 4.2.79a5.6 5.6 0 0 1 2.51 2.15c.56.9.84 1.94.84 3.09 0 .95-.18 1.76-.54 2.43a4.6 4.6 0 0 1-1.47 1.63c-.61.41-1.3.71-2.06.9v.22a5.27 5.27 0 0 1 4.25 2.7c.49.83.73 1.84.73 3.02a6.2 6.2 0 0 1-.87 3.25 5.95 5.95 0 0 1-2.64 2.26 10.4 10.4 0 0 1-4.43.83h-9.42Zm4.21-3.52h4.54c1.53 0 2.63-.3 3.3-.88a2.87 2.87 0 0 0 1.03-2.27 3.48 3.48 0 0 0-1.97-3.19 4.83 4.83 0 0 0-2.25-.48h-4.65v6.81Zm0-9.86h4.17a4.7 4.7 0 0 0 1.97-.4 3.07 3.07 0 0 0 1.89-2.92c0-.9-.32-1.64-.96-2.22-.63-.59-1.56-.88-2.8-.88h-4.27v6.42Zm16.17 9.06v-3.35l9.88-15.6h2.8v4.77h-1.71l-6.65 10.53v.18h13.78v3.47h-18.1Zm11.1 4.32v-5.34l.05-1.5v-16.44h3.98v23.28h-4.03Zm21.26-13.33v3.38H369.7v-3.38h10.48Zm12.88 13.77a8.14 8.14 0 0 1-4.82-1.42 9.05 9.05 0 0 1-3.07-4.13 17.73 17.73 0 0 1-1.07-6.5c0-2.54.36-4.7 1.08-6.48a8.9 8.9 0 0 1 3.08-4.1 8.16 8.16 0 0 1 4.8-1.4c1.87 0 3.47.47 4.8 1.4a8.8 8.8 0 0 1 3.09 4.1 17.35 17.35 0 0 1 1.08 6.47c0 2.55-.36 4.72-1.08 6.53a8.87 8.87 0 0 1-3.08 4.11 8.08 8.08 0 0 1-4.8 1.42Zm0-3.56c1.46 0 2.6-.71 3.45-2.14.84-1.44 1.27-3.56 1.27-6.36 0-1.84-.2-3.4-.58-4.65a6.18 6.18 0 0 0-1.64-2.85 3.58 3.58 0 0 0-2.5-.96c-1.44 0-2.59.72-3.43 2.16-.84 1.43-1.26 3.53-1.27 6.3-.01 1.86.18 3.42.56 4.69a6.27 6.27 0 0 0 1.63 2.86c.7.64 1.54.95 2.51.95Zm20.82-20.47c1.12 0 2.2.2 3.25.59 1.06.38 2.02 1 2.87 1.86a9 9 0 0 1 2.02 3.44c.5 1.44.75 3.22.75 5.34 0 2-.2 3.8-.64 5.37a11.93 11.93 0 0 1-1.83 3.98 8.07 8.07 0 0 1-2.87 2.47 8.26 8.26 0 0 1-3.79.86 8.53 8.53 0 0 1-3.9-.87 7.35 7.35 0 0 1-4.03-5.8h4.15c.21.93.64 1.67 1.3 2.21.65.54 1.48.8 2.48.8 1.62 0 2.86-.7 3.73-2.1.87-1.4 1.3-3.34 1.3-5.83h-.15a5.98 5.98 0 0 1-3.45 2.82c-.75.26-1.53.4-2.37.4a7.04 7.04 0 0 1-6.26-3.67 8 8 0 0 1-.95-3.9 8 8 0 0 1 1.04-4.08 7.6 7.6 0 0 1 2.94-2.86 8.7 8.7 0 0 1 4.41-1.03Zm.01 3.4a4.17 4.17 0 0 0-3.76 2.22 4.6 4.6 0 0 0-.55 2.26c0 .83.19 1.58.55 2.25a4.14 4.14 0 0 0 3.71 2.2 4.19 4.19 0 0 0 3.11-1.33 4.64 4.64 0 0 0 1.26-3.15c0-.8-.19-1.53-.57-2.2a4.39 4.39 0 0 0-1.53-1.63 4.04 4.04 0 0 0-2.22-.61Z" />
    </g>
    <g data-object="Сокол__e__2096:115">
      <rect width="96" height="99" x="209" y="237" fill="#fff" rx="10.1" />
      <g clip-path="url(#b)">
        <g>
          <mask id="c" fill="#fff">
            <path
              d="M236.8 263.77a5.05 5.05 0 0 1 5.05-5.04h30.3a5.05 5.05 0 0 1 5.05 5.04v44.61a5.05 5.05 0 0 1-5.05 5.05h-30.3a5.05 5.05 0 0 1-5.05-5.05v-44.6Z" />
          </mask>
          <path fill="#000"
            d="M234.28 263.77a7.57 7.57 0 0 1 7.57-7.57h38.72c4.18 0 7.57 3.4 7.57 7.57h-21.88v-2.52h-24.41a2.52 2.52 0 0 0-2.53 2.52h-5.04Zm53.86 44.61a7.57 7.57 0 0 1-7.57 7.58h-38.72a7.58 7.58 0 0 1-7.57-7.58h5.04c0 1.4 1.14 2.53 2.53 2.53h24.4v-2.53h21.9Zm-46.29 7.58a7.58 7.58 0 0 1-7.57-7.58v-44.6a7.57 7.57 0 0 1 7.57-7.58v5.05a2.52 2.52 0 0 0-2.53 2.52v44.61c0 1.4 1.14 2.53 2.53 2.53v5.05Zm38.72-59.76c4.18 0 7.57 3.4 7.57 7.57v44.61a7.57 7.57 0 0 1-7.57 7.58l-14.31-5.05v-49.66l14.3-5.05Z"
            mask="url(#c)" />
        </g>
        <path fill="#fff"
          d="m270.22 281.62.67-.67v3.86a.85.85 0 0 0 .84.85.84.84 0 0 0 .84-.85v-3.86l.66.67a.84.84 0 0 0 1.38-.27.83.83 0 0 0-.18-.92l-2.1-2.1a.85.85 0 0 0-.28-.18.84.84 0 0 0-.64 0 1 1 0 0 0-.28.17l-2.1 2.1a.84.84 0 0 0 .6 1.45c.22 0 .44-.09.6-.25Zm3.01 9.75-.66.68v-3.87a.85.85 0 0 0-.84-.84.84.84 0 0 0-.84.84v3.87l-.67-.68a.83.83 0 0 0-.6-.25.85.85 0 0 0-.59.25.84.84 0 0 0-.18.92c.04.1.1.2.18.28l2.1 2.1c.08.08.18.14.28.18a.79.79 0 0 0 .64 0c.1-.04.2-.1.27-.18l2.1-2.1a.85.85 0 0 0-1.19-1.2Z" />
        <path fill="#000"
          d="M252.37 275.98a4.42 4.42 0 1 0 0-8.84 4.42 4.42 0 0 0 0 8.84Zm3.79 0h-7.58a5.06 5.06 0 0 0-5.05 5.05v8.48c0 .86.67 1.59 1.52 1.62a1.57 1.57 0 0 0 1.51-.96c.09-.2.13-.4.13-.62v-7.87a.65.65 0 0 1 .59-.65.63.63 0 0 1 .62.38.7.7 0 0 1 .05.25v22.8a1.81 1.81 0 1 0 3.63 0v-11.25a.8.8 0 0 1 .74-.82c.1 0 .21 0 .32.05a.78.78 0 0 1 .52.74v11.28a1.82 1.82 0 1 0 3.63 0v-22.78a.64.64 0 0 1 .59-.65.63.63 0 0 1 .62.38c.04.08.05.16.05.25v7.85c0 .86.67 1.59 1.52 1.62a1.57 1.57 0 0 0 1.51-.96c.09-.2.13-.4.13-.62v-8.52a5.06 5.06 0 0 0-5.05-5.05Z" />
      </g>
    </g>
    <g data-object="Сокол__e__2096:127">
      <rect width="48" height="99" x="382" y="237" fill="#fff" rx="10.1" />
      <g clip-path="url(#d)">
        <g>
          <mask id="e" fill="#fff">
            <path
              d="M385.8 263.77a5.05 5.05 0 0 1 5.05-5.04h30.3a5.05 5.05 0 0 1 5.05 5.04v44.61a5.05 5.05 0 0 1-5.05 5.05h-30.3a5.05 5.05 0 0 1-5.05-5.05v-44.6Z" />
          </mask>
          <path fill="#000"
            d="M383.27 263.77c0-4.18 3.4-7.57 7.58-7.57h38.72c4.18 0 7.57 3.4 7.57 7.57h-21.88v-2.52h-24.41a2.52 2.52 0 0 0-2.53 2.52h-5.05Zm53.87 44.61a7.57 7.57 0 0 1-7.57 7.58h-38.72a7.58 7.58 0 0 1-7.58-7.58h5.06c0 1.4 1.13 2.53 2.52 2.53h24.4v-2.53h21.9Zm-46.29 7.58a7.58 7.58 0 0 1-7.58-7.58v-44.6c0-4.19 3.4-7.58 7.58-7.58v5.05a2.52 2.52 0 0 0-2.53 2.52v44.61c0 1.4 1.13 2.53 2.53 2.53v5.05Zm38.72-59.76c4.18 0 7.57 3.4 7.57 7.57v44.61a7.57 7.57 0 0 1-7.57 7.58l-14.31-5.05v-49.66l14.3-5.05Z"
            mask="url(#e)" />
        </g>
        <path fill="#fff"
          d="m419.22 281.62.67-.67v3.86a.85.85 0 0 0 .84.85.84.84 0 0 0 .84-.85v-3.86l.66.67a.84.84 0 0 0 1.38-.27.83.83 0 0 0-.18-.92l-2.1-2.1a.85.85 0 0 0-.28-.18.84.84 0 0 0-.64 0 1 1 0 0 0-.28.17l-2.1 2.1a.84.84 0 0 0 .6 1.45c.22 0 .44-.09.6-.25Zm3.01 9.75-.66.68v-3.87a.85.85 0 0 0-.84-.84.84.84 0 0 0-.84.84v3.87l-.67-.68a.83.83 0 0 0-.6-.25.85.85 0 0 0-.59.25.84.84 0 0 0-.18.92c.04.1.1.2.18.28l2.1 2.1c.08.08.18.14.28.18a.79.79 0 0 0 .64 0c.1-.04.2-.1.27-.18l2.1-2.1a.85.85 0 0 0-1.19-1.2Z" />
        <path fill="#000"
          d="M401.37 275.98a4.42 4.42 0 1 0 0-8.84 4.42 4.42 0 0 0 0 8.84Zm3.79 0h-7.58a5.06 5.06 0 0 0-5.05 5.05v8.48c0 .86.67 1.59 1.52 1.62a1.57 1.57 0 0 0 1.51-.96c.09-.2.13-.4.13-.62v-7.87a.65.65 0 0 1 .59-.65.63.63 0 0 1 .62.38c.04.08.05.16.05.25v22.8a1.81 1.81 0 1 0 3.63 0v-11.25a.8.8 0 0 1 .74-.82c.1 0 .21 0 .32.05a.78.78 0 0 1 .52.74v11.28a1.82 1.82 0 1 0 3.63 0v-22.78a.64.64 0 0 1 .59-.65.63.63 0 0 1 .62.38c.04.08.05.16.05.25v7.85c0 .86.67 1.59 1.52 1.62a1.57 1.57 0 0 0 1.51-.96c.09-.2.13-.4.13-.62v-8.52a5.06 5.06 0 0 0-5.05-5.05Z" />
      </g>
    </g>
    <g data-object="Сокол__r__6059:596">
      <path fill="#78B500" d="M0 385h130.08l55.1 22.44L252 435.86V572H0V385Z" />
      <path fill="#fff"
        d="M64.31 508v-23.27h8.91c1.68 0 3.08.26 4.2.8a5.6 5.6 0 0 1 2.5 2.14c.57.91.85 1.94.85 3.1a4.58 4.58 0 0 1-2.01 4.06 6.2 6.2 0 0 1-2.06.89v.22a5.28 5.28 0 0 1 4.25 2.7c.48.83.72 1.84.72 3.02 0 1.2-.29 2.29-.87 3.25a5.95 5.95 0 0 1-2.64 2.26 10.4 10.4 0 0 1-4.43.83h-9.42Zm4.22-3.52h4.53c1.53 0 2.63-.3 3.3-.88a2.87 2.87 0 0 0 1.03-2.27 3.48 3.48 0 0 0-1.97-3.18 4.83 4.83 0 0 0-2.25-.5h-4.64v6.83Zm0-9.86h4.17a4.7 4.7 0 0 0 1.96-.4 3.07 3.07 0 0 0 1.89-2.92c0-.9-.32-1.64-.95-2.22-.63-.58-1.57-.88-2.81-.88h-4.26v6.43Zm16.16 9.06v-3.35l9.88-15.6h2.8v4.77h-1.71l-6.65 10.53v.19h13.79v3.46H84.7ZM95.8 508v-5.34l.05-1.5v-16.43h3.98V508H95.8Zm21.26-13.33v3.39h-10.47v-3.39h10.47Zm13.75-9.94V508h-4.22v-19.17h-.13l-5.45 3.48v-3.87l5.79-3.71h4.01Zm14.51 23.71a8.14 8.14 0 0 1-4.82-1.42 9.06 9.06 0 0 1-3.08-4.12 17.74 17.74 0 0 1-1.06-6.51c0-2.54.36-4.7 1.08-6.48a8.9 8.9 0 0 1 3.07-4.1 8.17 8.17 0 0 1 4.81-1.4c1.87 0 3.47.47 4.8 1.4a8.8 8.8 0 0 1 3.09 4.1 17.34 17.34 0 0 1 1.08 6.48c0 2.54-.36 4.72-1.08 6.52a8.87 8.87 0 0 1-3.08 4.11 8.08 8.08 0 0 1-4.8 1.42Zm0-3.55c1.46 0 2.6-.72 3.44-2.15.85-1.44 1.28-3.56 1.28-6.35 0-1.85-.2-3.4-.58-4.66a6.18 6.18 0 0 0-1.64-2.84 3.58 3.58 0 0 0-2.5-.97c-1.45 0-2.59.72-3.43 2.16-.84 1.43-1.27 3.53-1.27 6.3-.01 1.86.17 3.42.55 4.69a6.27 6.27 0 0 0 1.64 2.86c.7.64 1.54.96 2.51.96Z" />
    </g>
    <g data-object="Сокол__r__2098:117">
      <path fill="#78B500"
        d="M0 12A12 12 0 0 1 12 0h108a12 12 0 0 1 12 12v166a12 12 0 0 1-12 12H12a12 12 0 0 1-12-12V12Z" />
      <path fill="#fff"
        d="M21.06 107.78V84.51h8.9c1.69 0 3.09.27 4.2.8a5.6 5.6 0 0 1 2.51 2.14c.56.91.84 1.94.84 3.1a4.59 4.59 0 0 1-2.01 4.06 6.2 6.2 0 0 1-2.06.89v.23a5.28 5.28 0 0 1 4.25 2.7c.49.82.73 1.83.73 3.01 0 1.2-.29 2.29-.87 3.25a5.95 5.95 0 0 1-2.64 2.26 10.4 10.4 0 0 1-4.43.83h-9.42Zm4.21-3.52h4.54c1.53 0 2.63-.3 3.3-.88a2.87 2.87 0 0 0 1.03-2.27 3.48 3.48 0 0 0-1.97-3.18 4.83 4.83 0 0 0-2.25-.49h-4.65v6.82Zm0-9.85h4.17a4.7 4.7 0 0 0 1.97-.4 3.07 3.07 0 0 0 1.89-2.92c0-.9-.32-1.64-.96-2.23-.63-.58-1.56-.87-2.8-.87h-4.27v6.42Zm16.17 9.05v-3.35l9.88-15.6h2.8v4.77H52.4l-6.65 10.54v.18h13.78v3.46h-18.1Zm11.1 4.32v-5.34l.05-1.5V84.51h3.98v23.27h-4.03ZM73.8 94.45v3.39H63.32v-3.39H73.8Zm12.88 13.78a8.14 8.14 0 0 1-4.82-1.42 9.04 9.04 0 0 1-3.07-4.13 17.73 17.73 0 0 1-1.07-6.51c0-2.54.36-4.7 1.08-6.48a8.9 8.9 0 0 1 3.08-4.09 8.16 8.16 0 0 1 4.8-1.4c1.87 0 3.47.46 4.81 1.4a8.8 8.8 0 0 1 3.08 4.1 17.35 17.35 0 0 1 1.08 6.47c0 2.54-.36 4.72-1.08 6.52a8.87 8.87 0 0 1-3.08 4.12 8.08 8.08 0 0 1-4.8 1.42Zm0-3.56c1.46 0 2.6-.72 3.45-2.15.84-1.44 1.27-3.56 1.27-6.35 0-1.85-.2-3.4-.58-4.66a6.18 6.18 0 0 0-1.64-2.84 3.58 3.58 0 0 0-2.5-.97c-1.44 0-2.59.72-3.43 2.16-.84 1.43-1.26 3.54-1.27 6.3 0 1.87.18 3.43.56 4.7a6.27 6.27 0 0 0 1.63 2.85c.7.64 1.54.96 2.51.96ZM108.9 84.5v23.27h-4.22V88.61h-.13l-5.45 3.48v-3.86l5.79-3.72h4.01Z" />
    </g>
    <g data-object="Сокол__r__2098:121">
      <path fill="#78B500"
        d="M139 12a12 12 0 0 1 12-12h83a12 12 0 0 1 12 12v113a12 12 0 0 1-12 12h-83a12 12 0 0 1-12-12V12Z" />
      <path fill="#fff"
        d="M151.62 79.27V58.91h7.8c1.46 0 2.69.23 3.66.7a4.9 4.9 0 0 1 2.2 1.87c.49.8.73 1.7.73 2.7a4.4 4.4 0 0 1-.47 2.13 4.02 4.02 0 0 1-1.28 1.43c-.54.36-1.14.62-1.8.78v.2a4.62 4.62 0 0 1 3.72 2.36c.42.73.63 1.6.63 2.64 0 1.06-.25 2-.77 2.84a5.21 5.21 0 0 1-2.3 1.98 9.1 9.1 0 0 1-3.88.73h-8.24Zm3.69-3.08h3.96c1.34 0 2.3-.26 2.9-.77.6-.52.9-1.18.9-1.99a3.04 3.04 0 0 0-1.73-2.78 4.23 4.23 0 0 0-1.97-.43h-4.06v5.97Zm0-8.62h3.65a4.1 4.1 0 0 0 1.72-.35 2.69 2.69 0 0 0 1.65-2.56c0-.79-.28-1.44-.84-1.95-.55-.5-1.37-.76-2.46-.76h-3.72v5.62Zm14.14 7.92v-2.93l8.64-13.65h2.45v4.17h-1.5l-5.8 9.22v.16h12.05v3.03h-15.84Zm9.72 3.78V74.6l.04-1.32V58.91h3.48v20.36h-3.52Zm18.6-11.66v2.96h-9.17V67.6h9.17Zm11.27 12.05a7.12 7.12 0 0 1-4.22-1.25 7.92 7.92 0 0 1-2.7-3.6 15.5 15.5 0 0 1-.93-5.7c.01-2.22.32-4.11.95-5.67a7.78 7.78 0 0 1 2.7-3.58 7.14 7.14 0 0 1 4.2-1.23c1.63 0 3.03.4 4.2 1.23a7.7 7.7 0 0 1 2.7 3.58c.63 1.56.94 3.45.94 5.67 0 2.22-.31 4.13-.94 5.7a7.77 7.77 0 0 1-2.7 3.6 7.08 7.08 0 0 1-4.2 1.25Zm0-3.11c1.27 0 2.28-.63 3.01-1.88.74-1.26 1.12-3.12 1.12-5.56a14 14 0 0 0-.51-4.08 5.41 5.41 0 0 0-1.43-2.48 3.14 3.14 0 0 0-2.2-.85c-1.26 0-2.26.63-3 1.89-.73 1.25-1.1 3.1-1.1 5.52-.01 1.62.15 2.99.48 4.1.34 1.1.81 1.94 1.43 2.5.62.56 1.35.84 2.2.84Zm11.15 2.72V76.6l7.07-6.93a31 31 0 0 0 1.69-1.82c.45-.53.79-1.04 1.01-1.54.23-.5.34-1.02.34-1.59a2.9 2.9 0 0 0-1.64-2.72 3.88 3.88 0 0 0-1.74-.38c-.67 0-1.26.14-1.76.42-.5.27-.9.66-1.17 1.16-.28.5-.41 1.1-.41 1.8h-3.51a5.97 5.97 0 0 1 3.32-5.59 7.86 7.86 0 0 1 3.58-.78c1.37 0 2.56.25 3.6.76a5.87 5.87 0 0 1 2.4 2.1c.58.89.87 1.9.87 3.04 0 .77-.15 1.52-.44 2.25a9.4 9.4 0 0 1-1.54 2.45 38.9 38.9 0 0 1-3.07 3.25l-3.51 3.57v.14h8.87v3.08h-13.96Z" />
    </g>
    <g data-object="Сокол__s__2098:162">
      <rect width="127" height="181" x="5" y="190" fill="#fff" rx="12" />
      <g clip-path="url(#f)">
        <path fill="#000"
          d="M90.95 263.5h-7.49v7.5c0 .13-.01.22-.04.28a1.48 1.48 0 0 1-1.46 1.22h-7.49v7.5c0 .13-.01.22-.05.28a1.48 1.48 0 0 1-1.45 1.22h-7.49v7.5c0 .13-.02.22-.05.28a1.48 1.48 0 0 1-1.45 1.22h-7.5v7.5c0 .13 0 .22-.04.28A1.48 1.48 0 0 1 55 299.5h-9c-.4 0-.75-.15-1.05-.44a1.5 1.5 0 0 1 0-2.12c.3-.3.65-.44 1.06-.44h7.5V289c0-.13 0-.22.04-.28.06-.35.23-.63.51-.87.28-.23.6-.35.94-.35h7.5V280c0-.13 0-.22.04-.28.06-.35.23-.63.51-.87.29-.23.6-.35.94-.35h7.5V271c0-.1 0-.19.04-.28.06-.35.23-.63.52-.87.28-.23.59-.35.93-.35h7.5V262c0-.13.01-.22.04-.28a1.48 1.48 0 0 1 1.45-1.22h9c.4 0 .75.15 1.05.44a1.5 1.5 0 0 1 0 2.12c-.3.3-.65.44-1.06.44Z" />
      </g>
    </g>
    <g data-object="Сокол__s__2379:1568">
      <rect width="127" height="176" x="619" y="201" fill="#fff" rx="12" />
      <g clip-path="url(#g)">
        <path fill="#000"
          d="M704.96 272h-7.5v7.5c0 .13-.01.22-.05.28a1.47 1.47 0 0 1-1.45 1.22h-7.49v7.5c0 .13-.01.22-.05.28a1.48 1.48 0 0 1-1.45 1.22h-7.49v7.5c0 .13-.02.22-.05.28-.06.35-.22.63-.49.87a1.4 1.4 0 0 1-.96.35h-7.5v7.5c0 .13 0 .22-.04.28A1.48 1.48 0 0 1 669 308h-9c-.4 0-.75-.15-1.04-.44-.3-.3-.45-.65-.45-1.06 0-.4.15-.76.45-1.06.3-.3.64-.44 1.05-.44h7.5v-7.5c0-.13 0-.22.04-.28.06-.35.23-.63.51-.87.28-.23.6-.35.94-.35h7.5v-7.5c0-.13 0-.22.04-.28.06-.35.23-.63.51-.87.29-.23.6-.35.94-.35h7.5v-7.5c0-.1 0-.19.04-.28.06-.35.24-.63.52-.87.28-.23.59-.35.93-.35h7.5v-7.5c0-.13.01-.22.04-.28a1.48 1.48 0 0 1 1.45-1.22h9c.4 0 .75.15 1.05.44a1.5 1.5 0 0 1 0 2.12c-.3.3-.65.44-1.05.44Z" />
      </g>
    </g>
    <g>
      <rect width="21" height="12" x="162" y="137" fill="#262A34" rx="3" />
    </g>
    <g>
      <rect width="7" height="12" x="132" y="160" fill="#262A34" rx="3" />
    </g>
  </g>
  <defs>
    <clipPath id="a">
      <path fill="#fff" d="M441 286.5v-48h48v48z" />
    </clipPath>
    <clipPath id="b">
      <path fill="#fff" d="M236.8 254.52h40.4v63.97h-40.4z" />
    </clipPath>
    <clipPath id="d">
      <path fill="#fff" d="M385.8 254.52h40.4v63.97h-40.4z" />
    </clipPath>
    <clipPath id="f">
      <path fill="#fff" d="M44.5 256.5h48v48h-48z" />
    </clipPath>
    <clipPath id="g">
      <path fill="#fff" d="M658.5 265h48v48h-48z" />
    </clipPath>
  </defs>
</svg>