<svg xmlns="http://www.w3.org/2000/svg" width="546" height="547" fill="none" viewBox="0 0 546 547">
  <g>
    <g>
      <path fill="#262A34"
        d="M144 391a12 12 0 0 0 12 12h234a12 12 0 0 0 12-12V179a12 12 0 0 0-12-12H156a12 12 0 0 0-12 12v212Z" />
    </g>
    <g>
      <rect width="18" height="19" x="132" y="298" fill="#262A34" rx="3" />
    </g>
    <g>
      <rect width="18" height="19" x="132" y="174" fill="#262A34" rx="3" />
    </g>
    <g>
      <rect width="18" height="19" x="129" y="226" fill="#262A34" rx="3" />
    </g>
    <g>
      <rect width="18" height="19" x="135" y="374" fill="#262A34" rx="3" />
    </g>
    <g>
      <rect width="20" height="19" x="185" y="157" fill="#262A34" rx="3" />
    </g>
    <g>
      <rect width="20" height="19" x="340" y="155" fill="#262A34" rx="3" />
    </g>
    <g>
      <rect width="20" height="19" x="392" y="177" fill="#262A34" rx="3" />
    </g>
    <g>
      <rect width="20" height="19" x="392" y="218" fill="#262A34" rx="3" />
    </g>
    <g>
      <rect width="20" height="19" x="331" y="393" fill="#262A34" rx="3" />
    </g>
    <g>
      <rect width="20" height="19" x="192" y="393" fill="#262A34" rx="3" />
    </g>
    <g>
      <rect width="20" height="19" x="392" y="363" fill="#262A34" rx="3" />
    </g>
    <g>
      <rect width="20" height="19" x="392" y="287" fill="#262A34" rx="3" />
    </g>
    <g data-object="Сокол__r__2336:778">
      <rect width="127" height="162" x="275" fill="#78B500" rx="12" />
      <path fill="#fff"
        d="M308.53 89.21v-3.35l9.88-15.6h2.8v4.77h-1.71l-6.65 10.53v.19h13.78v3.46h-18.1Zm11.1 4.32v-5.34l.05-1.5V70.26h3.98v23.27h-4.03Zm19.24.44a8.14 8.14 0 0 1-4.82-1.42 9.05 9.05 0 0 1-3.08-4.12 17.74 17.74 0 0 1-1.07-6.51c.01-2.54.37-4.7 1.08-6.48a8.9 8.9 0 0 1 3.08-4.1 8.17 8.17 0 0 1 4.8-1.4c1.87 0 3.47.47 4.81 1.4a8.81 8.81 0 0 1 3.08 4.1 17.36 17.36 0 0 1 1.08 6.48c0 2.54-.36 4.72-1.07 6.52a8.88 8.88 0 0 1-3.08 4.11 8.09 8.09 0 0 1-4.81 1.42Zm0-3.55c1.45 0 2.6-.72 3.44-2.15.85-1.44 1.27-3.56 1.27-6.35 0-1.85-.19-3.4-.57-4.66a6.18 6.18 0 0 0-1.64-2.84 3.58 3.58 0 0 0-2.5-.97c-1.45 0-2.6.72-3.43 2.16-.84 1.43-1.27 3.53-1.28 6.3 0 1.86.18 3.42.56 4.69a6.27 6.27 0 0 0 1.64 2.86c.7.64 1.54.96 2.5.96Zm21.1 3.43c-1.64 0-3.1-.28-4.37-.84a7.3 7.3 0 0 1-3-2.34 6.06 6.06 0 0 1-1.17-3.47h4.27c.04.63.25 1.18.63 1.65.37.46.88.82 1.5 1.08.64.26 1.34.38 2.12.38a5.4 5.4 0 0 0 2.22-.43c.64-.3 1.14-.7 1.5-1.22a3 3 0 0 0 .54-1.81 3.1 3.1 0 0 0-.54-1.86 3.66 3.66 0 0 0-1.62-1.27c-.7-.3-1.54-.45-2.52-.45h-2.06v-3.25h2.06c.81 0 1.52-.14 2.13-.42.6-.28 1.09-.68 1.44-1.18.35-.52.52-1.11.51-1.79a3.1 3.1 0 0 0-.44-1.71 3 3 0 0 0-1.27-1.15 5 5 0 0 0-3.88-.02c-.6.25-1.08.62-1.46 1.1a2.8 2.8 0 0 0-.59 1.68h-4.05a5.9 5.9 0 0 1 1.12-3.43c.73-1 1.7-1.77 2.91-2.32a9.6 9.6 0 0 1 4.08-.84c1.55 0 2.9.3 4.05.87a6.6 6.6 0 0 1 2.67 2.33c.63.98.94 2.06.94 3.24 0 1.31-.38 2.41-1.16 3.3a5.44 5.44 0 0 1-3.04 1.74v.18a5.9 5.9 0 0 1 3.76 1.82 5.17 5.17 0 0 1 1.3 3.64c0 1.3-.37 2.47-1.11 3.5a7.38 7.38 0 0 1-3.05 2.41c-1.28.59-2.76.88-4.43.88Z" />
    </g>
    <g data-object="Сокол__r__2336:2212">
      <rect width="137" height="205" x="407" y="341" fill="#78B500" rx="12" />
      <path fill="#fff"
        d="M446.55 451.42v-3.35l9.88-15.6h2.8v4.77h-1.71l-6.65 10.53v.19h13.78v3.46h-18.1Zm11.1 4.32v-5.34l.05-1.5v-16.43h3.98v23.27h-4.03Zm19.24.44a8.14 8.14 0 0 1-4.82-1.42 9.05 9.05 0 0 1-3.08-4.12 17.72 17.72 0 0 1-1.07-6.51c.01-2.54.37-4.7 1.08-6.48a8.9 8.9 0 0 1 3.08-4.1 8.16 8.16 0 0 1 4.8-1.4c1.87 0 3.47.47 4.81 1.4a8.8 8.8 0 0 1 3.08 4.1 17.36 17.36 0 0 1 1.08 6.48c0 2.54-.36 4.72-1.08 6.52a8.87 8.87 0 0 1-3.07 4.11 8.08 8.08 0 0 1-4.81 1.42Zm0-3.56c1.45 0 2.6-.71 3.44-2.14.85-1.44 1.27-3.56 1.27-6.36 0-1.84-.19-3.4-.58-4.65a6.2 6.2 0 0 0-1.63-2.85 3.59 3.59 0 0 0-2.5-.96c-1.45 0-2.6.72-3.43 2.16-.84 1.43-1.27 3.53-1.28 6.3 0 1.86.18 3.42.56 4.69a6.26 6.26 0 0 0 1.64 2.86c.7.64 1.54.95 2.5.95Zm20.83 3.44a9.38 9.38 0 0 1-4.07-.86 7.26 7.26 0 0 1-2.85-2.36c-.7-1-1.07-2.14-1.11-3.43h4.09c.07.95.49 1.73 1.24 2.34.75.6 1.65.9 2.7.9a4.07 4.07 0 0 0 3.73-2.15c.37-.67.55-1.44.54-2.3a4.77 4.77 0 0 0-.55-2.35 4.17 4.17 0 0 0-1.56-1.6 4.35 4.35 0 0 0-2.27-.59c-.7 0-1.38.12-2.06.39-.67.26-1.2.61-1.6 1.04l-3.8-.62 1.2-12h13.5v3.52h-10l-.68 6.17h.14a4.8 4.8 0 0 1 1.83-1.26 6.46 6.46 0 0 1 2.6-.51 7.16 7.16 0 0 1 6.38 3.72c.63 1.16.95 2.49.95 3.98a7.57 7.57 0 0 1-4.01 6.94 8.93 8.93 0 0 1-4.34 1.03Z" />
    </g>
    <g data-object="Сокол__r__2336:2215">
      <rect width="139" height="204" x="407" fill="#78B500" rx="12" />
      <path fill="#fff"
        d="M446.37 110.1v-3.36l9.87-15.6h2.8v4.77h-1.7l-6.65 10.53v.19h13.78v3.46h-18.1Zm11.1 4.3v-5.33l.04-1.5V91.14h3.98v23.27h-4.02Zm19.23.45a8.13 8.13 0 0 1-4.82-1.42 9.04 9.04 0 0 1-3.08-4.12 17.73 17.73 0 0 1-1.06-6.52c0-2.53.36-4.7 1.07-6.47a8.91 8.91 0 0 1 3.08-4.1 8.16 8.16 0 0 1 4.81-1.4c1.87 0 3.47.47 4.8 1.4a8.8 8.8 0 0 1 3.09 4.1 17.34 17.34 0 0 1 1.08 6.48c0 2.54-.36 4.72-1.08 6.52a8.88 8.88 0 0 1-3.08 4.11 8.09 8.09 0 0 1-4.8 1.42Zm0-3.55c1.46 0 2.6-.72 3.44-2.15.85-1.44 1.28-3.56 1.28-6.36 0-1.84-.2-3.4-.58-4.65a6.18 6.18 0 0 0-1.64-2.84 3.58 3.58 0 0 0-2.5-.97c-1.44 0-2.59.72-3.43 2.16-.84 1.43-1.26 3.53-1.27 6.3-.01 1.86.18 3.42.55 4.69a6.27 6.27 0 0 0 1.64 2.86c.7.64 1.54.95 2.51.95Zm12.32-1.2v-3.36l9.88-15.6h2.8v4.77h-1.71l-6.65 10.53v.19h13.79v3.46h-18.1Zm11.1 4.3v-5.33l.05-1.5V91.14h3.98v23.27h-4.02Z" />
    </g>
    <g data-object="Сокол__r__2336:781">
      <rect width="127" height="162" x="143" fill="#78B500" rx="12" />
      <path fill="#fff"
        d="M177.52 89.21v-3.35l9.87-15.6h2.8v4.77h-1.7l-6.65 10.53v.19h13.78v3.46h-18.1Zm11.1 4.32v-5.34l.04-1.5V70.26h3.98v23.27h-4.02Zm19.23.44a8.14 8.14 0 0 1-4.82-1.42 9.05 9.05 0 0 1-3.07-4.12 17.74 17.74 0 0 1-1.07-6.51c0-2.54.36-4.7 1.08-6.48a8.9 8.9 0 0 1 3.08-4.1 8.16 8.16 0 0 1 4.8-1.4c1.87 0 3.47.47 4.8 1.4a8.8 8.8 0 0 1 3.09 4.1 17.34 17.34 0 0 1 1.08 6.48c0 2.54-.36 4.72-1.08 6.52a8.87 8.87 0 0 1-3.08 4.11 8.08 8.08 0 0 1-4.8 1.42Zm0-3.55c1.46 0 2.6-.72 3.45-2.15.84-1.44 1.27-3.56 1.27-6.35 0-1.85-.2-3.4-.58-4.66a6.18 6.18 0 0 0-1.64-2.84 3.58 3.58 0 0 0-2.5-.97c-1.44 0-2.59.72-3.43 2.16-.84 1.43-1.26 3.53-1.27 6.3-.01 1.86.18 3.42.56 4.69a6.27 6.27 0 0 0 1.63 2.86c.7.64 1.54.96 2.51.96Zm12.74 3.11v-3.05l8.08-7.92c.78-.78 1.42-1.47 1.94-2.08.51-.6.9-1.19 1.15-1.76.26-.56.4-1.17.4-1.81a3.6 3.6 0 0 0-.5-1.9c-.34-.52-.8-.93-1.38-1.22a4.43 4.43 0 0 0-2-.43 4.1 4.1 0 0 0-2 .48c-.58.3-1.03.75-1.34 1.33a4.27 4.27 0 0 0-.47 2.05h-4.01c0-1.47.33-2.76 1-3.85a6.82 6.82 0 0 1 2.8-2.53c1.18-.6 2.55-.9 4.08-.9 1.56 0 2.94.3 4.12.87a6.7 6.7 0 0 1 2.75 2.4c.66 1.02.99 2.18.99 3.48a6.9 6.9 0 0 1-.5 2.57 10.9 10.9 0 0 1-1.76 2.8c-.84 1.02-2 2.25-3.52 3.7l-4 4.09V90h10.13v3.52h-15.96Z" />
    </g>
    <g data-object="Сокол__r__2336:2206">
      <rect width="138" height="204" fill="#78B500" rx="12" />
      <path fill="#fff"
        d="M42.41 110.1v-3.36l9.88-15.6h2.8v4.77h-1.71l-6.65 10.53v.19h13.79v3.46h-18.1Zm11.1 4.3v-5.33l.05-1.5V91.14h3.98v23.27h-4.02Zm19.24.45a8.14 8.14 0 0 1-4.82-1.42 9.04 9.04 0 0 1-3.08-4.12 17.73 17.73 0 0 1-1.07-6.52c.01-2.53.37-4.7 1.08-6.47a8.9 8.9 0 0 1 3.08-4.1 8.16 8.16 0 0 1 4.8-1.4c1.87 0 3.47.47 4.82 1.4a8.8 8.8 0 0 1 3.07 4.1 17.35 17.35 0 0 1 1.08 6.48c0 2.54-.36 4.72-1.08 6.52a8.87 8.87 0 0 1-3.07 4.11 8.08 8.08 0 0 1-4.81 1.42Zm0-3.55c1.45 0 2.6-.72 3.44-2.15.85-1.44 1.27-3.56 1.27-6.36 0-1.84-.19-3.4-.58-4.65a6.18 6.18 0 0 0-1.63-2.84 3.58 3.58 0 0 0-2.5-.97c-1.45 0-2.6.72-3.43 2.16-.84 1.43-1.27 3.53-1.28 6.3 0 1.86.18 3.42.56 4.69a6.27 6.27 0 0 0 1.64 2.86c.7.64 1.54.95 2.5.95Zm22.2-20.16v23.27h-4.21V95.24h-.14l-5.44 3.48v-3.87l5.78-3.71h4.02Z" />
    </g>
    <g data-object="Сокол__t__2873:2492">
      <rect width="137" height="60" x="407" y="210" fill="#60A5FA" rx="12" />
      <g fill="#fff">
        <path
          d="M461.5 226.5a5.25 5.25 0 1 0 0-10.5 5.25 5.25 0 0 0 0 10.5Zm4.5 1.5h-9a6.01 6.01 0 0 0-6 6v10.08a1.9 1.9 0 0 0 1.8 1.92 1.88 1.88 0 0 0 1.95-1.88v-9.34a.77.77 0 0 1 .7-.78.74.74 0 0 1 .74.45c.04.1.06.2.06.3v27.1a2.15 2.15 0 1 0 4.31 0v-13.38a.96.96 0 0 1 .88-.97.93.93 0 0 1 1 .94v13.4a2.15 2.15 0 1 0 4.31 0v-27.06a.77.77 0 0 1 .7-.78.74.74 0 0 1 .74.45c.04.1.06.2.06.3v9.33a1.9 1.9 0 0 0 1.8 1.92 1.88 1.88 0 0 0 1.95-1.88V234a6.01 6.01 0 0 0-6-6Z" />
      </g>
      <g fill="#fff" clip-path="url(#a)">
        <path
          d="M489.48 226.5a5.25 5.25 0 1 0 0-10.5 5.25 5.25 0 0 0 0 10.5Zm13.02 15.55-.97-3.22v-.01l-2.1-7.02h-.01l-.24-.8a4.2 4.2 0 0 0-4.03-3H483.9a4.2 4.2 0 0 0-4.03 3l-.24.8-2.1 7.02-.98 3.23a1.9 1.9 0 0 0 1.18 2.36 1.89 1.89 0 0 0 2.05-.58c.16-.19.28-.41.35-.66l2.4-7.99.2-.68a.75.75 0 0 1 .83-.48.75.75 0 0 1 .63.73c0 .05 0 .1-.02.15l-4.1 13.67a1.48 1.48 0 0 0 .24 1.33 1.5 1.5 0 0 0 1.2.6h2.72v10.75c0 1.55.98 2.75 2.25 2.75 1.26 0 2.25-1.2 2.25-2.75V250.5h1.5v10.75c0 1.55.98 2.75 2.25 2.75 1.26 0 2.25-1.2 2.25-2.75V250.5h2.8a1.51 1.51 0 0 0 1.21-.6 1.5 1.5 0 0 0 .24-1.33l-4.1-13.67a.75.75 0 0 1 1.12-.8c.14.1.26.24.32.4l.2.68 2.4 8a1.87 1.87 0 0 0 2.4 1.23 1.9 1.9 0 0 0 1.18-2.36Z" />
      </g>
    </g>
    <g data-object="Сокол__s__2280:79">
      <rect width="141" height="62" x="405" y="275" fill="#fff" rx="12" />
      <g clip-path="url(#b)">
        <path fill="#000"
          d="M497.95 289h-7.49v7.5c0 .13-.01.22-.04.28a1.47 1.47 0 0 1-1.46 1.22h-7.49v7.5c0 .13-.02.22-.05.28a1.48 1.48 0 0 1-1.45 1.22h-7.49v7.5c0 .13-.02.22-.05.28-.06.35-.22.63-.49.87a1.4 1.4 0 0 1-.96.35h-7.5v7.5c0 .13 0 .22-.04.28A1.48 1.48 0 0 1 462 325h-9c-.4 0-.75-.15-1.05-.44a1.5 1.5 0 0 1 0-2.12c.3-.3.65-.44 1.06-.44h7.5v-7.5c0-.13 0-.22.04-.28.06-.35.23-.63.51-.87.28-.23.6-.35.94-.35h7.5v-7.5c0-.13 0-.22.04-.28.06-.35.23-.63.51-.87.28-.23.6-.35.94-.35h7.5v-7.5c0-.1 0-.19.04-.28.06-.35.24-.63.52-.87.28-.23.59-.35.93-.35h7.5v-7.5c0-.13.01-.22.04-.28a1.48 1.48 0 0 1 1.45-1.22h9c.4 0 .75.15 1.05.44.3.3.44.65.44 1.06 0 .4-.14.76-.44 1.06-.3.3-.65.44-1.06.44Z" />
      </g>
    </g>
    <g data-object="Сокол__r__2280:81">
      <path fill="#78B500"
        d="M276 421a12 12 0 0 1 12-12h102a12 12 0 0 1 12 12v114a12 12 0 0 1-12 12H288a12 12 0 0 1-12-12V421Z" />
      <path fill="#fff"
        d="M309.16 486.28v-3.35l9.87-15.6h2.8v4.77h-1.7l-6.65 10.53v.19h13.78v3.46h-18.1Zm11.1 4.32v-5.34l.05-1.5v-16.43h3.97v23.27h-4.02Zm19.23.44a8.13 8.13 0 0 1-4.81-1.42 9.05 9.05 0 0 1-3.08-4.12 17.74 17.74 0 0 1-1.07-6.51c0-2.54.36-4.7 1.08-6.48a8.91 8.91 0 0 1 3.08-4.1 8.17 8.17 0 0 1 4.8-1.4c1.87 0 3.47.47 4.81 1.4a8.81 8.81 0 0 1 3.08 4.1 17.34 17.34 0 0 1 1.08 6.48c0 2.54-.36 4.72-1.08 6.52a8.88 8.88 0 0 1-3.08 4.11 8.09 8.09 0 0 1-4.8 1.42Zm0-3.55c1.46 0 2.6-.72 3.45-2.15.84-1.44 1.27-3.56 1.27-6.35 0-1.85-.2-3.4-.58-4.66a6.19 6.19 0 0 0-1.64-2.84 3.58 3.58 0 0 0-2.5-.97c-1.44 0-2.59.72-3.43 2.16-.84 1.43-1.26 3.53-1.27 6.3 0 1.86.18 3.42.56 4.69a6.27 6.27 0 0 0 1.63 2.86c.7.64 1.54.96 2.51.96Zm21.27 3.43c-1.12 0-2.2-.2-3.26-.58a7.68 7.68 0 0 1-2.87-1.88 9.22 9.22 0 0 1-2.02-3.46 16.4 16.4 0 0 1-.74-5.38c0-1.99.21-3.77.64-5.33a11.76 11.76 0 0 1 1.83-3.95 8.07 8.07 0 0 1 2.87-2.48 8.3 8.3 0 0 1 3.79-.85 8.5 8.5 0 0 1 3.88.86 7.32 7.32 0 0 1 4.05 5.73h-4.15c-.21-.9-.65-1.6-1.3-2.14a3.76 3.76 0 0 0-2.48-.8c-1.62 0-2.86.7-3.73 2.1-.87 1.4-1.3 3.32-1.3 5.77h.15c.37-.66.85-1.24 1.44-1.71a7.05 7.05 0 0 1 4.38-1.5 6.99 6.99 0 0 1 6.26 3.67c.64 1.13.95 2.44.94 3.9a7.59 7.59 0 0 1-3.99 6.99 8.84 8.84 0 0 1-4.4 1.04Zm-.03-3.41a4.15 4.15 0 0 0 3.77-2.23 4.6 4.6 0 0 0 .55-2.3 4.46 4.46 0 0 0-.54-2.25 4.16 4.16 0 0 0-3.72-2.2 4.19 4.19 0 0 0-3.1 1.33 4.58 4.58 0 0 0 .83 7.03c.65.42 1.39.62 2.21.62Z" />
    </g>
    <g data-object="Сокол__r__2280:82">
      <path fill="#78B500"
        d="M144 421a12 12 0 0 1 12-12h101a12 12 0 0 1 12 12v114a12 12 0 0 1-12 12H156a12 12 0 0 1-12-12V421Z" />
      <path fill="#fff"
        d="M178.53 486.28v-3.35l9.88-15.6h2.8v4.77h-1.71l-6.65 10.53v.19h13.78v3.46h-18.1Zm11.1 4.32v-5.34l.05-1.5v-16.43h3.98v23.27h-4.03Zm19.24.44a8.14 8.14 0 0 1-4.82-1.42 9.05 9.05 0 0 1-3.08-4.12 17.72 17.72 0 0 1-1.07-6.51c0-2.54.37-4.7 1.08-6.48a8.91 8.91 0 0 1 3.08-4.1 8.17 8.17 0 0 1 4.8-1.4c1.87 0 3.47.47 4.81 1.4a8.8 8.8 0 0 1 3.08 4.1 17.36 17.36 0 0 1 1.08 6.48c0 2.54-.36 4.72-1.08 6.52a8.87 8.87 0 0 1-3.08 4.11 8.08 8.08 0 0 1-4.8 1.42Zm0-3.55c1.45 0 2.6-.72 3.44-2.15.85-1.44 1.27-3.56 1.27-6.35 0-1.85-.19-3.4-.58-4.66a6.2 6.2 0 0 0-1.63-2.84 3.58 3.58 0 0 0-2.5-.97c-1.45 0-2.6.72-3.44 2.16-.84 1.43-1.26 3.53-1.27 6.3 0 1.86.18 3.42.56 4.69a6.26 6.26 0 0 0 1.64 2.86c.7.64 1.54.96 2.5.96Zm12.97 3.11 9.9-19.6v-.15h-11.5v-3.52h15.86v3.6l-9.89 19.67h-4.37Z" />
    </g>
    <g data-object="Сокол__r__2280:84">
      <path fill="#78B500"
        d="M0 351a12 12 0 0 1 12-12h114a12 12 0 0 1 12 12v184a12 12 0 0 1-12 12H12a12 12 0 0 1-12-12V351Z" />
      <path fill="#fff"
        d="M39.27 451.41v-3.35l9.88-15.6h2.8v4.77h-1.71l-6.65 10.53v.19h13.78v3.46h-18.1Zm11.1 4.32v-5.34l.05-1.5v-16.43h3.98v23.27h-4.03Zm19.24.44a8.14 8.14 0 0 1-4.82-1.42 9.04 9.04 0 0 1-3.08-4.12 17.73 17.73 0 0 1-1.07-6.51c0-2.54.37-4.7 1.08-6.48a8.9 8.9 0 0 1 3.08-4.1 8.16 8.16 0 0 1 4.8-1.4c1.87 0 3.47.47 4.81 1.4a8.8 8.8 0 0 1 3.08 4.1 17.34 17.34 0 0 1 1.08 6.48c0 2.54-.36 4.72-1.08 6.52a8.87 8.87 0 0 1-3.08 4.11 8.08 8.08 0 0 1-4.8 1.42Zm0-3.55c1.45 0 2.6-.72 3.44-2.15.85-1.44 1.27-3.56 1.27-6.35 0-1.85-.19-3.4-.58-4.66a6.18 6.18 0 0 0-1.63-2.84 3.58 3.58 0 0 0-2.5-.97c-1.45 0-2.6.72-3.43 2.16-.85 1.43-1.27 3.53-1.28 6.3 0 1.86.18 3.42.56 4.69a6.27 6.27 0 0 0 1.64 2.86c.7.64 1.54.96 2.5.96Zm21.01 3.43a11.2 11.2 0 0 1-4.5-.85 7.49 7.49 0 0 1-3.07-2.33 5.5 5.5 0 0 1-1.09-3.38c0-.98.2-1.87.64-2.7a6 6 0 0 1 4.23-3.1v-.15a4.92 4.92 0 0 1-2.91-1.83 5.28 5.28 0 0 1-1.1-3.33c0-1.2.33-2.27 1-3.2a6.82 6.82 0 0 1 2.78-2.22 9.44 9.44 0 0 1 4.02-.82c1.5 0 2.82.27 3.99.82a6.82 6.82 0 0 1 2.77 2.21 5.34 5.34 0 0 1 1.03 3.2c0 1.27-.38 2.38-1.13 3.34a4.91 4.91 0 0 1-2.87 1.83v.16a6 6 0 0 1 4.86 5.8 5.5 5.5 0 0 1-1.11 3.37 7.49 7.49 0 0 1-3.07 2.33c-1.3.56-2.79.85-4.47.85Zm0-3.25a5.4 5.4 0 0 0 2.27-.44 3.45 3.45 0 0 0 2.05-3.16c0-.75-.2-1.4-.58-1.97a3.81 3.81 0 0 0-1.53-1.35 4.81 4.81 0 0 0-2.2-.49c-.84 0-1.58.16-2.24.49a3.9 3.9 0 0 0-1.54 1.35 3.45 3.45 0 0 0-.55 1.97 3.3 3.3 0 0 0 2.03 3.14c.65.3 1.41.46 2.3.46Zm0-10.6a4 4 0 0 0 1.89-.44 3.3 3.3 0 0 0 1.8-2.98 3.34 3.34 0 0 0-.48-1.75c-.31-.51-.75-.9-1.3-1.17a4.17 4.17 0 0 0-1.9-.43 4.3 4.3 0 0 0-1.95.43 3.08 3.08 0 0 0-1.74 2.92c0 .67.14 1.27.45 1.78.32.5.76.9 1.31 1.2a4 4 0 0 0 1.92.44Z" />
    </g>
    <g data-object="Сокол__r__2873:2489">
      <path fill="#78B500"
        d="M0 286a12 12 0 0 1 12-12h114a12 12 0 0 1 12 12v36a12 12 0 0 1-12 12H12a12 12 0 0 1-12-12v-36Z" />
      <path fill="#fff"
        d="M39.23 311.5v-3.34l9.87-15.6h2.8v4.77h-1.7l-6.66 10.53v.18h13.79v3.47h-18.1Zm11.1 4.33v-5.34l.04-1.5v-16.44h3.98v23.28h-4.02Zm19.23.44a8.14 8.14 0 0 1-4.82-1.42 9.05 9.05 0 0 1-3.08-4.13 17.74 17.74 0 0 1-1.07-6.5c.01-2.55.37-4.7 1.08-6.49a8.9 8.9 0 0 1 3.08-4.09 8.17 8.17 0 0 1 4.81-1.4c1.86 0 3.47.46 4.8 1.4a8.8 8.8 0 0 1 3.09 4.1 17.35 17.35 0 0 1 1.08 6.47c0 2.55-.36 4.72-1.08 6.53a8.87 8.87 0 0 1-3.08 4.1 8.08 8.08 0 0 1-4.8 1.43Zm0-3.56c1.46 0 2.6-.71 3.44-2.14.85-1.44 1.28-3.56 1.28-6.36 0-1.85-.2-3.4-.58-4.66a6.19 6.19 0 0 0-1.64-2.84 3.59 3.59 0 0 0-2.5-.96c-1.45 0-2.59.72-3.43 2.16-.84 1.43-1.27 3.53-1.27 6.3-.01 1.86.17 3.42.55 4.68a6.27 6.27 0 0 0 1.64 2.87c.7.63 1.54.95 2.51.95Zm20.82-20.47c1.12 0 2.2.2 3.25.59 1.06.38 2.02 1 2.87 1.86a9 9 0 0 1 2.02 3.44c.5 1.44.75 3.22.75 5.34 0 2-.2 3.8-.64 5.37a11.91 11.91 0 0 1-1.83 3.98 8.07 8.07 0 0 1-2.87 2.47 8.25 8.25 0 0 1-3.79.85 8.54 8.54 0 0 1-3.9-.86 7.35 7.35 0 0 1-4.03-5.8h4.15c.21.93.64 1.66 1.3 2.21.65.54 1.48.8 2.48.8 1.62 0 2.86-.7 3.73-2.1.87-1.4 1.3-3.34 1.3-5.84h-.15a5.98 5.98 0 0 1-3.46 2.83c-.74.26-1.53.39-2.36.39a7.04 7.04 0 0 1-6.26-3.66 8 8 0 0 1-.96-3.9 8 8 0 0 1 1.05-4.08 7.59 7.59 0 0 1 2.94-2.86 8.71 8.71 0 0 1 4.41-1.03Zm.01 3.4a4.17 4.17 0 0 0-3.76 2.22 4.76 4.76 0 0 0 0 4.51 4.14 4.14 0 0 0 3.72 2.2 4.19 4.19 0 0 0 3.1-1.34 4.62 4.62 0 0 0 1.26-3.14c0-.8-.19-1.53-.57-2.2a4.39 4.39 0 0 0-1.53-1.63 4.04 4.04 0 0 0-2.22-.62Z" />
    </g>
    <g data-object="Сокол__s__2280:86">
      <rect width="138" height="63" y="207" fill="#fff" rx="12" />
      <g>
        <path fill="#000"
          d="M91.45 221.5h-7.49v7.5c0 .13-.01.22-.04.28a1.48 1.48 0 0 1-1.46 1.22h-7.49v7.5c0 .13-.01.22-.05.28a1.48 1.48 0 0 1-1.45 1.22h-7.49v7.5c0 .13-.02.22-.05.28a1.48 1.48 0 0 1-1.45 1.22h-7.5v7.5c0 .13 0 .22-.04.28a1.48 1.48 0 0 1-1.45 1.22h-9c-.4 0-.75-.15-1.05-.44a1.5 1.5 0 0 1 0-2.12c.3-.3.65-.44 1.06-.44H54V247c0-.13 0-.22.04-.28.06-.34.23-.63.51-.87.28-.23.6-.35.94-.35h7.5V238c0-.13 0-.22.04-.28.06-.34.23-.63.51-.87.29-.23.6-.35.94-.35h7.5V229c0-.1 0-.19.04-.28.06-.34.23-.63.52-.87.28-.23.59-.35.93-.35h7.5V220c0-.13.01-.22.04-.28a1.48 1.48 0 0 1 1.45-1.22h9c.4 0 .75.15 1.05.44a1.5 1.5 0 0 1 0 2.12c-.3.3-.65.44-1.06.44Z" />
      </g>
    </g>
    <g data-object="Сокол__e__2280:87">
      <rect width="92" height="127" x="269" y="207" fill="#fff" rx="12" />
      <g>
        <g>
          <mask id="c" fill="#fff">
            <path
              d="M291 240.5a3 3 0 0 1 3-3h42a3 3 0 0 1 3 3v59a3 3 0 0 1-3 3h-42a3 3 0 0 1-3-3v-59Z" />
          </mask>
          <path fill="#000"
            d="M288 240.5a6 6 0 0 1 6-6h52a6 6 0 0 1 6 6h-64Zm64 59a6 6 0 0 1-6 6h-52a6 6 0 0 1-6-6h64Zm-58 6a6 6 0 0 1-6-6v-59a6 6 0 0 1 6-6v71Zm52-71a6 6 0 0 1 6 6v59a6 6 0 0 1-6 6l-20-6v-59l20-6Z"
            mask="url(#c)" />
        </g>
        <path fill="#fff"
          d="m330.71 264.7.8-.8v4.6a1 1 0 1 0 1.99 0v-4.6l.79.8a.99.99 0 0 0 1.09.23 1 1 0 0 0 .32-1.64l-2.5-2.5a.87.87 0 0 0-.32-.22 1 1 0 0 0-.76 0 1 1 0 0 0-.33.22l-2.5 2.5a1 1 0 0 0 1.42 1.42Zm3.58 11.59-.8.8v-4.6a1 1 0 1 0-1.99 0v4.6l-.79-.8a1.01 1.01 0 0 0-1.1-.22 1.01 1.01 0 0 0-.53 1.31c.05.13.12.24.21.33l2.5 2.5c.1.1.2.16.33.21a.93.93 0 0 0 .76 0c.12-.05.23-.12.33-.21l2.5-2.5a1 1 0 0 0-1.42-1.42Z" />
        <path fill="#000"
          d="M309.5 258a5.25 5.25 0 1 0 0-10.5 5.25 5.25 0 0 0 0 10.5Zm4.5 0h-9a6.01 6.01 0 0 0-6 6v10.08a1.9 1.9 0 0 0 1.8 1.92 1.88 1.88 0 0 0 1.95-1.88v-9.35a.77.77 0 0 1 .7-.77.74.74 0 0 1 .74.45c.04.1.06.2.06.3v27.1a2.15 2.15 0 1 0 4.31 0v-13.38a.96.96 0 0 1 .88-.97.93.93 0 0 1 1 .94v13.4a2.15 2.15 0 1 0 4.31 0v-27.06a.77.77 0 0 1 .7-.78.74.74 0 0 1 .74.45c.04.1.06.2.06.3v9.33a1.9 1.9 0 0 0 1.8 1.92 1.88 1.88 0 0 0 1.95-1.88V264a6.01 6.01 0 0 0-6-6Z" />
      </g>
    </g>
  </g>
  <defs>
    <clipPath id="a">
      <path fill="#fff" d="M465.5 216h48v48h-48z" />
    </clipPath>
    <clipPath id="b">
      <path fill="#fff" d="M451.5 282h48v48h-48z" />
    </clipPath>
  </defs>
</svg>