<svg xmlns="http://www.w3.org/2000/svg" width="549" height="548" fill="none" viewBox="0 0 549 548">
  <g>
    <g>
      <path fill="#262A34"
        d="M148 394.5c0 5.8 4.7 10.5 10.5 10.5h10.75c2.9 0 5.25 2.35 5.25 5.25s2.35 5.25 5.25 5.25h13c2.9 0 5.25-2.35 5.25-5.25s2.35-5.25 5.25-5.25h126a5.75 5.75 0 0 1 5.75 5.75 5.75 5.75 0 0 0 5.75 5.75h9a5.75 5.75 0 0 0 5.75-5.75 5.75 5.75 0 0 1 5.75-5.75H400a9.5 9.5 0 0 1 9.5 9.5v53.58a3.42 3.42 0 0 0 3.42 3.42c1.95 0 3.5 1.63 3.43 3.57l-.1 2.18a5.51 5.51 0 0 0 5.5 5.75h3.5a5.75 5.75 0 0 0 5.75-5.75 5.75 5.75 0 0 1 5.75-5.75h.5c3.45 0 6.25-2.8 6.25-6.25V454a4.5 4.5 0 0 1 4.5-4.5 4.5 4.5 0 0 0 4.5-4.5v-8.5a4.5 4.5 0 0 0-4.5-4.5 4.5 4.5 0 0 1-4.5-4.5v-34a4.5 4.5 0 0 1 4.5-4.5 4.5 4.5 0 0 0 4.5-4.5V375a4.5 4.5 0 0 0-4.5-4.5 4.5 4.5 0 0 1-4.5-4.5v-10a12 12 0 0 0-12-12H412a12 12 0 0 1-12-12v-16.25c0-3.45 2.8-6.25 6.25-6.25s6.25-2.8 6.25-6.25v-5.5c0-3.45-2.8-6.25-6.25-6.25a6.25 6.25 0 0 1-6.25-6.25v-39.5c0-3.45 2.8-6.25 6.25-6.25s6.25-2.8 6.25-6.25v-6.5c0-3.45-2.8-6.25-6.25-6.25a6.25 6.25 0 0 1-6.25-6.25v-1c0-4 3.25-7.25 7.25-7.25h27.5c5.1 0 9.25-4.14 9.25-9.25v-3.25a6 6 0 0 1 6-6 6 6 0 0 0 6-6v-9a6 6 0 0 0-6-6 6 6 0 0 1-6-6v-32.25a7.75 7.75 0 0 1 7.75-7.75 7.75 7.75 0 0 0 7.75-7.75v-3a7.75 7.75 0 0 0-7.75-7.75 7.75 7.75 0 0 1-7.75-7.75V81.5a3 3 0 0 0-3-3 3 3 0 0 1-3-3v-.75a3.75 3.75 0 0 0-3.75-3.75h-10a3.75 3.75 0 0 0-3.75 3.75 3.75 3.75 0 0 1-3.75 3.75h-1.5a5.25 5.25 0 0 0-5.25 5.25V158a12 12 0 0 1-12 12h-27.25a6.25 6.25 0 0 1-6.25-6.25c0-3.45-2.8-6.25-6.25-6.25h-8.5a6.25 6.25 0 0 0-6.25 6.25c0 3.45-2.8 6.25-6.25 6.25h-105a5.25 5.25 0 0 1-5.25-5.25c0-2.9-2.35-5.25-5.25-5.25h-11a5.25 5.25 0 0 0-5.25 5.25c0 2.9-2.35 5.25-5.25 5.25H155a12 12 0 0 1-12-12V82.75a4.75 4.75 0 0 0-4.75-4.75 4.75 4.75 0 0 1-4.75-4.75V73a5 5 0 0 0-5-5H120a5 5 0 0 0-5 5v1a4 4 0 0 1-4 4 4 4 0 0 0-4 4v14.25c0 2.9-2.35 5.25-5.25 5.25a5.25 5.25 0 0 0-5.25 5.25v8c0 2.9 2.35 5.25 5.25 5.25s5.25 2.35 5.25 5.25v34.25a6.5 6.5 0 0 1-6.5 6.5 6.5 6.5 0 0 0-6.5 6.5v5.5a6.5 6.5 0 0 0 6.5 6.5 6.5 6.5 0 0 1 6.5 6.5v3.5a10 10 0 0 0 10 10h19.25c6.49 0 11.75 5.26 11.75 11.75V223a5 5 0 0 1-5 5 5 5 0 0 0-5 5v8a5 5 0 0 0 5 5 5 5 0 0 1 5 5v45.5a6 6 0 0 1-6 6 6 6 0 0 0-6 6v6.5a6 6 0 0 0 6 6 6 6 0 0 1 6 6v33a6 6 0 0 1-6 6 6 6 0 0 0-6 6v6a6 6 0 0 0 6 6 6 6 0 0 1 6 6v4.5Z" />
    </g>
    <g>
      <rect width="28" height="20" x="132" y="437" fill="#262A34" rx="3" />
    </g>
    <g>
      <rect width="28" height="20" x="133" y="498" fill="#262A34" rx="3" />
    </g>
    <g data-object="Сокол__s__2088:1556">
      <rect width="61" height="137" x="142" y="209" fill="#fff" rx="20"
        transform="rotate(90 142 209)" />
      <g clip-path="url(#a)">
        <path fill="#000"
          d="M90.5 261.95v-7.49H83a.66.66 0 0 1-.28-.05 1.48 1.48 0 0 1-1.22-1.45v-7.49H74a.66.66 0 0 1-.28-.05 1.48 1.48 0 0 1-1.22-1.45v-7.49H65a.66.66 0 0 1-.28-.05 1.49 1.49 0 0 1-.87-.49 1.4 1.4 0 0 1-.35-.96v-7.5H56a.64.64 0 0 1-.28-.04 1.48 1.48 0 0 1-.87-.49 1.4 1.4 0 0 1-.35-.96v-9c0-.4.15-.75.45-1.05.3-.3.64-.44 1.05-.44.4 0 .76.15 1.05.44.3.3.45.65.45 1.06v7.5H65c.13 0 .22 0 .28.04.34.06.63.23.87.51.23.28.35.6.35.94v7.5H74c.13 0 .22 0 .28.04.34.06.63.23.87.51.23.28.35.6.35.94v7.5H83c.1 0 .19 0 .28.04.34.06.63.23.87.52.23.28.35.59.35.93v7.5H92c.13 0 .22.01.28.04a1.5 1.5 0 0 1 1.22 1.45v9c0 .4-.15.75-.45 1.05-.3.3-.64.44-1.05.44-.4 0-.76-.14-1.05-.44-.3-.3-.45-.65-.45-1.06Z" />
      </g>
    </g>
    <g data-object="Сокол__s__2088:1929">
      <rect width="61" height="141" x="549" y="278" fill="#fff" rx="20"
        transform="rotate(90 549 278)" />
      <g clip-path="url(#b)">
        <path fill="#000"
          d="M495.5 330.95v-7.49H488a.65.65 0 0 1-.28-.04 1.47 1.47 0 0 1-1.22-1.46v-7.49H479a.65.65 0 0 1-.28-.05 1.48 1.48 0 0 1-1.22-1.45v-7.49H470a.65.65 0 0 1-.28-.05 1.48 1.48 0 0 1-.87-.49 1.4 1.4 0 0 1-.35-.96v-7.5H461a.64.64 0 0 1-.28-.04 1.48 1.48 0 0 1-1.22-1.45v-9c0-.4.15-.75.44-1.05a1.5 1.5 0 0 1 2.12 0c.3.3.44.65.44 1.06v7.5h7.5c.13 0 .22 0 .28.04.35.06.63.23.87.51.23.28.35.6.35.94v7.5h7.5c.13 0 .22 0 .28.04.35.06.63.23.87.51.23.28.35.6.35.94v7.5h7.5c.1 0 .19 0 .28.04.35.06.63.24.87.52.23.28.35.59.35.93v7.5h7.5c.13 0 .22.01.28.04a1.48 1.48 0 0 1 1.22 1.45v9c0 .4-.15.75-.44 1.05-.3.3-.65.44-1.06.44-.4 0-.76-.14-1.06-.44-.3-.3-.44-.65-.44-1.06Z" />
      </g>
    </g>
    <g data-object="Сокол__t__2123:213">
      <rect width="139" height="65" x="4" y="273" fill="#60A5FA" rx="12" />
      <g fill="#fff" clip-path="url(#c)">
        <path
          d="M73.48 292a5.25 5.25 0 1 0 0-10.5 5.25 5.25 0 0 0 0 10.5Zm13.02 15.55-.97-3.22v-.01l-2.1-7.02h-.01l-.24-.8a4.2 4.2 0 0 0-4.03-3H67.9a4.2 4.2 0 0 0-4.03 3l-.24.8-2.1 7.02-.98 3.23a1.9 1.9 0 0 0 1.18 2.36 1.89 1.89 0 0 0 2.05-.58c.16-.19.28-.41.35-.66l2.4-7.99.2-.68a.75.75 0 0 1 1.28-.23.75.75 0 0 1 .16.63l-4.1 13.67a1.5 1.5 0 0 0 1.44 1.93h2.72v10.75c0 1.55.98 2.75 2.25 2.75 1.26 0 2.25-1.2 2.25-2.75V316h1.5v10.75c0 1.55.98 2.75 2.25 2.75 1.26 0 2.25-1.2 2.25-2.75V316h2.8a1.51 1.51 0 0 0 1.21-.6 1.5 1.5 0 0 0 .24-1.33l-4.1-13.67a.75.75 0 0 1 1.44-.4l.2.68 2.4 8a1.88 1.88 0 0 0 2.4 1.23 1.9 1.9 0 0 0 1.18-2.36Z" />
      </g>
    </g>
    <g data-object="Сокол__t__2123:217">
      <rect width="144" height="61" x="405" y="212" fill="#60A5FA" rx="12" />
      <g fill="#fff" clip-path="url(#d)">
        <path
          d="M477 229a5.25 5.25 0 1 0 0-10.5 5.25 5.25 0 0 0 0 10.5Zm4.5 1.5h-9a6.01 6.01 0 0 0-6 6v10.08a1.9 1.9 0 0 0 1.8 1.92 1.88 1.88 0 0 0 1.95-1.88v-9.34a.77.77 0 0 1 .7-.78.74.74 0 0 1 .74.45c.04.1.06.2.06.3v27.1a2.15 2.15 0 1 0 4.31 0v-13.38a.96.96 0 0 1 .88-.97.93.93 0 0 1 1 .94v13.4a2.15 2.15 0 1 0 4.31 0v-27.06a.77.77 0 0 1 .7-.78.74.74 0 0 1 .74.45c.04.1.06.2.06.3v9.33a1.9 1.9 0 0 0 1.8 1.92 1.88 1.88 0 0 0 1.95-1.88V236.5a6.01 6.01 0 0 0-6-6Z" />
      </g>
    </g>
    <g data-object="Сокол__e__2213:150">
      <rect width="84" height="77" x="276" y="210" fill="#fff" rx="12" />
      <g>
        <g>
          <mask id="e" fill="#fff">
            <path
              d="M294 218.5a3 3 0 0 1 3-3h42a3 3 0 0 1 3 3v59a3 3 0 0 1-3 3h-42a3 3 0 0 1-3-3v-59Z" />
          </mask>
          <path fill="#000"
            d="M291 218.5a6 6 0 0 1 6-6h52a6 6 0 0 1 6 6h-64Zm64 59a6 6 0 0 1-6 6h-52a6 6 0 0 1-6-6h64Zm-58 6a6 6 0 0 1-6-6v-59a6 6 0 0 1 6-6v71Zm52-71a6 6 0 0 1 6 6v59a6 6 0 0 1-6 6l-20-6v-59l20-6Z"
            mask="url(#e)" />
        </g>
        <path fill="#fff"
          d="m333.71 242.7.8-.8v4.6a1 1 0 1 0 1.99 0v-4.6l.79.8a.99.99 0 0 0 1.09.23 1 1 0 0 0 .32-1.64l-2.5-2.5a.87.87 0 0 0-.32-.22 1 1 0 0 0-.76 0 1 1 0 0 0-.33.22l-2.5 2.5a1 1 0 0 0 1.42 1.42Zm3.58 11.59-.8.8v-4.6a1 1 0 1 0-1.99 0v4.6l-.79-.8a1.01 1.01 0 0 0-1.1-.22 1.01 1.01 0 0 0-.53 1.31c.05.13.12.24.21.33l2.5 2.5c.1.1.2.16.33.21a.93.93 0 0 0 .76 0c.12-.05.23-.12.33-.21l2.5-2.5a1 1 0 0 0-1.42-1.42Z" />
        <path fill="#000"
          d="M312.5 236a5.25 5.25 0 1 0 0-10.5 5.25 5.25 0 0 0 0 10.5Zm4.5 0h-9a6.01 6.01 0 0 0-6 6v10.08a1.9 1.9 0 0 0 1.8 1.92 1.88 1.88 0 0 0 1.95-1.88v-9.34a.77.77 0 0 1 .7-.78.74.74 0 0 1 .74.45c.04.1.06.2.06.3v27.1a2.15 2.15 0 1 0 4.31 0v-13.38a.96.96 0 0 1 .88-.97.93.93 0 0 1 1 .94v13.4a2.15 2.15 0 1 0 4.31 0v-27.06a.77.77 0 0 1 .7-.78.74.74 0 0 1 .74.45c.04.1.06.2.06.3v9.33a1.9 1.9 0 0 0 1.8 1.92 1.88 1.88 0 0 0 1.95-1.88V242a6.01 6.01 0 0 0-6-6Z" />
      </g>
    </g>
    <g data-object="Сокол__r__2358:286">
      <g data-object="Сокол__r__I2358:286;2219:182">
        <path fill="#78B500"
          d="M0 157a12 12 0 0 1 12-12h79a12 12 0 0 1 12 12v35a12 12 0 0 1-12 12H12a12 12 0 0 1-12-12v-35Z" />
        <path fill="#fff"
          d="M25.21 162.9c1.11.01 2.2.2 3.25.6 1.06.37 2.01 1 2.86 1.86a9 9 0 0 1 2.03 3.44c.5 1.44.75 3.22.75 5.34 0 2-.2 3.8-.64 5.37a11.9 11.9 0 0 1-1.83 3.97 8.08 8.08 0 0 1-2.87 2.48 8.25 8.25 0 0 1-3.79.85 8.53 8.53 0 0 1-3.9-.86 7.34 7.34 0 0 1-4.03-5.8h4.15c.2.93.64 1.66 1.3 2.2.65.55 1.48.82 2.48.82 1.61 0 2.86-.7 3.73-2.1.87-1.4 1.3-3.35 1.3-5.85h-.15a5.97 5.97 0 0 1-3.46 2.83c-.74.26-1.53.39-2.36.39a7.05 7.05 0 0 1-6.26-3.66 8 8 0 0 1-.96-3.9 8 8 0 0 1 1.05-4.08 7.59 7.59 0 0 1 2.94-2.86 8.7 8.7 0 0 1 4.41-1.03Zm.01 3.41a4.18 4.18 0 0 0-3.76 2.22 4.75 4.75 0 0 0 0 4.51 4.14 4.14 0 0 0 3.72 2.2 4.19 4.19 0 0 0 3.1-1.33 4.65 4.65 0 0 0 1.26-3.15c0-.8-.19-1.53-.57-2.2a4.4 4.4 0 0 0-1.53-1.63 4.04 4.04 0 0 0-2.22-.62Zm23.29 6.86v3.38H38.03v-3.38H48.5Zm12.88 13.77a8.14 8.14 0 0 1-4.82-1.42 9.04 9.04 0 0 1-3.08-4.13 17.73 17.73 0 0 1-1.07-6.5c.01-2.55.37-4.7 1.08-6.48a8.9 8.9 0 0 1 3.08-4.1 8.16 8.16 0 0 1 4.8-1.4 8.2 8.2 0 0 1 4.82 1.4 8.8 8.8 0 0 1 3.08 4.1 17.35 17.35 0 0 1 1.07 6.47c0 2.55-.36 4.72-1.07 6.53a8.87 8.87 0 0 1-3.08 4.1 8.08 8.08 0 0 1-4.81 1.43Zm0-3.56c1.45 0 2.6-.71 3.44-2.15.85-1.44 1.27-3.55 1.27-6.35 0-1.85-.19-3.4-.57-4.66a6.18 6.18 0 0 0-1.64-2.84 3.58 3.58 0 0 0-2.5-.96c-1.45 0-2.6.72-3.43 2.16-.84 1.43-1.27 3.53-1.28 6.3 0 1.86.18 3.42.56 4.68a6.26 6.26 0 0 0 1.64 2.87c.7.63 1.54.95 2.5.95Zm22.2-20.16v23.28h-4.21v-19.18h-.14l-5.44 3.48v-3.86l5.78-3.72h4.02Z" />
      </g>
    </g>
    <g data-object="Сокол__r__2358:291">
      <g data-object="Сокол__r__I2358:291;2219:182">
        <path fill="#78B500"
          d="M0 89a12 12 0 0 1 12-12h80a12 12 0 0 1 12 12v39a12 12 0 0 1-12 12H12a12 12 0 0 1-12-12V89Z" />
        <path fill="#fff"
          d="M23.13 96.23c1.12 0 2.2.2 3.25.59 1.06.38 2.02 1 2.87 1.86a9 9 0 0 1 2.02 3.44c.5 1.44.75 3.22.75 5.34 0 2-.2 3.8-.64 5.37a11.9 11.9 0 0 1-1.83 3.98 8.07 8.07 0 0 1-2.87 2.47 8.25 8.25 0 0 1-3.79.86 8.53 8.53 0 0 1-3.9-.87 7.35 7.35 0 0 1-4.03-5.8h4.15c.21.93.64 1.67 1.3 2.21.65.54 1.48.8 2.48.8 1.62 0 2.86-.7 3.73-2.1.87-1.4 1.3-3.34 1.3-5.83h-.15a5.99 5.99 0 0 1-3.46 2.82c-.74.26-1.53.4-2.36.4a7.04 7.04 0 0 1-6.26-3.67 8 8 0 0 1-.96-3.9 8 8 0 0 1 1.05-4.08 7.59 7.59 0 0 1 2.94-2.86 8.7 8.7 0 0 1 4.41-1.03Zm.01 3.4a4.17 4.17 0 0 0-3.76 2.22 4.76 4.76 0 0 0 0 4.51 4.14 4.14 0 0 0 3.72 2.2 4.19 4.19 0 0 0 3.1-1.33 4.62 4.62 0 0 0 1.26-3.15c0-.8-.19-1.53-.57-2.2a4.39 4.39 0 0 0-1.53-1.63 4.04 4.04 0 0 0-2.22-.61Zm23.29 6.86v3.38H35.95v-3.38h10.48Zm12.88 13.77a8.14 8.14 0 0 1-4.82-1.42 9.04 9.04 0 0 1-3.08-4.13 17.73 17.73 0 0 1-1.06-6.5c0-2.54.36-4.7 1.07-6.48a8.9 8.9 0 0 1 3.08-4.1 8.16 8.16 0 0 1 4.81-1.4c1.86 0 3.47.47 4.8 1.4a8.8 8.8 0 0 1 3.09 4.1 17.35 17.35 0 0 1 1.08 6.47c0 2.55-.36 4.72-1.08 6.53a8.87 8.87 0 0 1-3.08 4.11 8.08 8.08 0 0 1-4.8 1.42Zm0-3.56c1.46 0 2.6-.71 3.44-2.14.85-1.44 1.28-3.56 1.28-6.36 0-1.84-.2-3.4-.58-4.66a6.18 6.18 0 0 0-1.64-2.84 3.58 3.58 0 0 0-2.5-.96c-1.45 0-2.59.72-3.43 2.16-.84 1.43-1.27 3.53-1.27 6.3-.01 1.86.17 3.42.55 4.69a6.27 6.27 0 0 0 1.64 2.86c.7.64 1.54.95 2.51.95Zm12.74 3.12v-3.05l8.08-7.92c.77-.78 1.42-1.47 1.93-2.08.52-.6.9-1.2 1.16-1.76.26-.57.39-1.17.39-1.82a3.33 3.33 0 0 0-1.88-3.11 4.43 4.43 0 0 0-1.98-.43 4.1 4.1 0 0 0-2.02.47c-.57.31-1.02.76-1.34 1.33a4.27 4.27 0 0 0-.46 2.06h-4.01a7.2 7.2 0 0 1 1-3.85 6.82 6.82 0 0 1 2.8-2.54c1.18-.6 2.54-.9 4.08-.9 1.56 0 2.93.3 4.12.88a6.7 6.7 0 0 1 2.75 2.4 6.74 6.74 0 0 1 .48 6.04 10.9 10.9 0 0 1-1.76 2.8c-.83 1.02-2 2.26-3.5 3.72l-4.02 4.08v.16h10.14v3.52H72.05Z" />
      </g>
    </g>
    <g data-object="Сокол__r__2358:296">
      <g data-object="Сокол__r__I2358:296;2219:182">
        <path fill="#78B500"
          d="M0 12A12 12 0 0 1 12 0h119a12 12 0 0 1 12 12v49a12 12 0 0 1-12 12H12A12 12 0 0 1 0 61V12Z" />
        <path fill="#fff"
          d="M41.87 24.53c1.11 0 2.2.2 3.25.6 1.06.37 2.01 1 2.86 1.86A9 9 0 0 1 50 30.43c.5 1.44.75 3.22.75 5.34.01 2-.2 3.79-.63 5.36a11.9 11.9 0 0 1-1.83 3.98 8.07 8.07 0 0 1-2.88 2.48 8.25 8.25 0 0 1-3.78.85 8.53 8.53 0 0 1-3.9-.86 7.34 7.34 0 0 1-4.03-5.8h4.15c.2.93.64 1.66 1.3 2.2.65.54 1.48.81 2.48.81 1.61 0 2.86-.7 3.73-2.1.87-1.4 1.3-3.35 1.3-5.84h-.16a5.98 5.98 0 0 1-3.45 2.83c-.74.26-1.53.38-2.36.38a7.04 7.04 0 0 1-6.26-3.65 8 8 0 0 1-.96-3.9 8 8 0 0 1 1.05-4.08 7.59 7.59 0 0 1 2.94-2.87 8.7 8.7 0 0 1 4.4-1.03Zm.01 3.41a4.17 4.17 0 0 0-3.76 2.22 4.76 4.76 0 0 0 0 4.51 4.14 4.14 0 0 0 3.72 2.2 4.19 4.19 0 0 0 3.1-1.34 4.63 4.63 0 0 0 1.26-3.15c0-.8-.2-1.53-.57-2.2a4.39 4.39 0 0 0-1.53-1.63 4.04 4.04 0 0 0-2.22-.61Zm23.28 6.85v3.39H54.7v-3.39h10.47Zm12.89 13.77a8.14 8.14 0 0 1-4.82-1.42 9.05 9.05 0 0 1-3.08-4.12 17.73 17.73 0 0 1-1.07-6.51c0-2.54.37-4.7 1.08-6.48a8.9 8.9 0 0 1 3.08-4.09 8.16 8.16 0 0 1 4.8-1.4c1.87 0 3.47.46 4.81 1.4a8.8 8.8 0 0 1 3.08 4.1 17.35 17.35 0 0 1 1.08 6.47c0 2.54-.36 4.72-1.08 6.52a8.87 8.87 0 0 1-3.08 4.11 8.08 8.08 0 0 1-4.8 1.42Zm0-3.55c1.45 0 2.6-.72 3.44-2.15.85-1.44 1.27-3.56 1.27-6.35 0-1.85-.19-3.4-.58-4.66A6.18 6.18 0 0 0 80.55 29a3.58 3.58 0 0 0-2.5-.97c-1.45 0-2.6.72-3.43 2.16-.85 1.43-1.27 3.54-1.28 6.3 0 1.86.18 3.42.56 4.69a6.27 6.27 0 0 0 1.64 2.86c.7.64 1.54.96 2.5.96Zm21.1 3.43c-1.65 0-3.1-.28-4.37-.84a7.3 7.3 0 0 1-3-2.34 6.07 6.07 0 0 1-1.17-3.47h4.27c.04.63.25 1.18.62 1.65.38.46.89.82 1.52 1.08.62.26 1.33.39 2.11.39a5.4 5.4 0 0 0 2.22-.44c.64-.3 1.14-.7 1.5-1.22a3 3 0 0 0 .54-1.81c0-.7-.17-1.33-.54-1.86a3.66 3.66 0 0 0-1.62-1.27 6.3 6.3 0 0 0-2.52-.45h-2.06v-3.25h2.06c.81 0 1.52-.14 2.12-.42a3.4 3.4 0 0 0 1.45-1.18c.35-.52.52-1.11.5-1.79a3.1 3.1 0 0 0-.43-1.71 3 3 0 0 0-1.27-1.15 5 5 0 0 0-3.87-.02c-.6.26-1.1.62-1.47 1.1a2.8 2.8 0 0 0-.59 1.68H91.1a5.9 5.9 0 0 1 1.12-3.43c.73-1 1.7-1.77 2.91-2.32a9.6 9.6 0 0 1 4.08-.84c1.55 0 2.9.3 4.05.88a6.6 6.6 0 0 1 2.66 2.33c.63.97.95 2.05.95 3.23 0 1.31-.38 2.41-1.16 3.3a5.44 5.44 0 0 1-3.05 1.74v.18a5.9 5.9 0 0 1 3.77 1.82 5.2 5.2 0 0 1 1.3 3.65c0 1.3-.37 2.47-1.11 3.5a7.38 7.38 0 0 1-3.05 2.4c-1.28.59-2.76.88-4.43.88Z" />
      </g>
    </g>
    <g data-object="Сокол__r__2358:301">
      <g data-object="Сокол__r__I2358:301;2219:182">
        <path fill="#78B500"
          d="M146 12a12 12 0 0 1 12-12h106a12 12 0 0 1 12 12v140a12 12 0 0 1-12 12H158a12 12 0 0 1-12-12V12Z" />
        <path fill="#fff"
          d="M181.9 70.6c1.1 0 2.2.2 3.24.6 1.06.37 2.02 1 2.87 1.86a9 9 0 0 1 2.02 3.44c.5 1.44.75 3.22.75 5.34 0 2-.2 3.79-.64 5.36a11.91 11.91 0 0 1-1.83 3.98 8.07 8.07 0 0 1-2.87 2.48 8.25 8.25 0 0 1-3.78.85 8.53 8.53 0 0 1-3.91-.86 7.34 7.34 0 0 1-4.03-5.8h4.15c.21.92.64 1.66 1.3 2.2a3.8 3.8 0 0 0 2.49.81c1.6 0 2.85-.7 3.72-2.1.87-1.4 1.3-3.35 1.3-5.84h-.15a5.97 5.97 0 0 1-3.45 2.83c-.75.26-1.54.38-2.37.38a7.04 7.04 0 0 1-6.26-3.65 8 8 0 0 1-.95-3.9 8 8 0 0 1 1.04-4.08 7.59 7.59 0 0 1 2.95-2.87 8.7 8.7 0 0 1 4.4-1.03Zm0 3.41a4.18 4.18 0 0 0-3.76 2.22 4.75 4.75 0 0 0 0 4.51 4.14 4.14 0 0 0 3.72 2.2 4.2 4.2 0 0 0 3.1-1.34 4.64 4.64 0 0 0 1.26-3.15c0-.8-.19-1.53-.56-2.2a4.39 4.39 0 0 0-1.54-1.63 4.04 4.04 0 0 0-2.22-.61Zm23.29 6.85v3.39H194.7v-3.39h10.48Zm12.88 13.77a8.14 8.14 0 0 1-4.82-1.42 9.05 9.05 0 0 1-3.07-4.12 17.74 17.74 0 0 1-1.07-6.51c0-2.54.36-4.7 1.08-6.48a8.91 8.91 0 0 1 3.08-4.09 8.16 8.16 0 0 1 4.8-1.41 8.1 8.1 0 0 1 4.8 1.41 8.8 8.8 0 0 1 3.09 4.09 17.34 17.34 0 0 1 1.08 6.48c0 2.54-.36 4.72-1.08 6.52a8.87 8.87 0 0 1-3.08 4.11 8.08 8.08 0 0 1-4.8 1.42Zm0-3.55c1.46 0 2.6-.72 3.45-2.15.84-1.44 1.27-3.56 1.27-6.35 0-1.85-.2-3.4-.58-4.66a6.18 6.18 0 0 0-1.64-2.84 3.58 3.58 0 0 0-2.5-.97c-1.44 0-2.59.72-3.43 2.16-.84 1.43-1.26 3.54-1.27 6.3 0 1.86.18 3.42.56 4.69a6.27 6.27 0 0 0 1.63 2.86c.7.64 1.54.96 2.51.96Zm12.32-1.2v-3.36l9.88-15.6h2.8v4.77h-1.71l-6.65 10.54v.18h13.79v3.46h-18.1Zm11.1 4.31v-5.34l.05-1.5V70.92h3.98v23.27h-4.02Z" />
      </g>
    </g>
    <g data-object="Сокол__r__2358:306">
      <g data-object="Сокол__r__I2358:306;2219:182">
        <path fill="#78B500"
          d="M280 12a12 12 0 0 1 12-12h101a12 12 0 0 1 12 12v140a12 12 0 0 1-12 12H292a12 12 0 0 1-12-12V12Z" />
        <path fill="#fff"
          d="M313.06 70.6c1.12 0 2.2.2 3.25.6 1.06.37 2.02 1 2.87 1.86a9 9 0 0 1 2.02 3.44c.5 1.44.75 3.22.75 5.34 0 2-.2 3.79-.64 5.36a11.91 11.91 0 0 1-1.83 3.98 8.08 8.08 0 0 1-2.87 2.48 8.25 8.25 0 0 1-3.79.85 8.53 8.53 0 0 1-3.9-.86 7.34 7.34 0 0 1-4.03-5.8h4.15c.21.92.64 1.66 1.3 2.2a3.8 3.8 0 0 0 2.49.81c1.6 0 2.85-.7 3.72-2.1.87-1.4 1.3-3.35 1.3-5.84h-.15a6 6 0 0 1-3.45 2.83c-.75.26-1.54.38-2.37.38a7.04 7.04 0 0 1-6.26-3.65 8 8 0 0 1-.95-3.9 8 8 0 0 1 1.04-4.08 7.6 7.6 0 0 1 2.94-2.87 8.71 8.71 0 0 1 4.41-1.03Zm.01 3.41a4.18 4.18 0 0 0-3.76 2.22 4.76 4.76 0 0 0 0 4.51 4.14 4.14 0 0 0 3.72 2.2 4.19 4.19 0 0 0 3.1-1.34 4.62 4.62 0 0 0 1.26-3.15 4.43 4.43 0 0 0-2.1-3.83 4.04 4.04 0 0 0-2.22-.61Zm23.29 6.85v3.39h-10.48v-3.39h10.48Zm12.88 13.77a8.14 8.14 0 0 1-4.82-1.42 9.05 9.05 0 0 1-3.07-4.12 17.71 17.71 0 0 1-1.07-6.51c0-2.54.36-4.7 1.08-6.48a8.9 8.9 0 0 1 3.07-4.09 8.17 8.17 0 0 1 4.81-1.41 8.1 8.1 0 0 1 4.8 1.41 8.8 8.8 0 0 1 3.09 4.09 17.36 17.36 0 0 1 1.08 6.48c0 2.54-.36 4.72-1.08 6.52a8.87 8.87 0 0 1-3.08 4.11 8.08 8.08 0 0 1-4.8 1.42Zm0-3.55c1.46 0 2.6-.72 3.44-2.15.85-1.44 1.28-3.56 1.28-6.35 0-1.85-.2-3.4-.58-4.66a6.18 6.18 0 0 0-1.64-2.84 3.58 3.58 0 0 0-2.5-.97c-1.44 0-2.59.72-3.43 2.16-.84 1.43-1.26 3.54-1.27 6.3-.01 1.86.18 3.42.56 4.69a6.26 6.26 0 0 0 1.63 2.86c.7.64 1.54.96 2.51.96Zm20.83 3.43a9.37 9.37 0 0 1-4.06-.85 7.26 7.26 0 0 1-2.86-2.37c-.7-1-1.06-2.14-1.1-3.43h4.08c.08.96.49 1.74 1.24 2.34.75.6 1.65.9 2.7.9a4.07 4.07 0 0 0 3.73-2.15c.37-.67.56-1.44.55-2.3 0-.88-.18-1.66-.56-2.34a4.17 4.17 0 0 0-1.56-1.6c-.66-.4-1.41-.6-2.27-.6-.7 0-1.38.12-2.06.39-.67.26-1.2.61-1.6 1.04l-3.8-.62 1.21-12h13.5v3.52H367.2l-.67 6.17h.14a4.8 4.8 0 0 1 1.82-1.26 6.46 6.46 0 0 1 2.6-.51 7.17 7.17 0 0 1 6.38 3.73c.64 1.16.96 2.48.96 3.97 0 1.54-.36 2.91-1.07 4.12a7.56 7.56 0 0 1-2.94 2.83 8.92 8.92 0 0 1-4.35 1.02Z" />
      </g>
    </g>
    <g data-object="Сокол__r__2358:310">
      <g data-object="Сокол__r__I2358:310;2219:182">
        <path fill="#78B500"
          d="M411 12a12 12 0 0 1 12-12h114a12 12 0 0 1 12 12v51a12 12 0 0 1-12 12H423a12 12 0 0 1-12-12V12Z" />
        <path fill="#fff"
          d="M450.05 26.2c1.12 0 2.2.2 3.25.58 1.06.38 2.02 1 2.87 1.87a9 9 0 0 1 2.02 3.44c.5 1.44.75 3.22.75 5.34 0 2-.2 3.79-.64 5.36a11.93 11.93 0 0 1-1.83 3.98 8.07 8.07 0 0 1-2.87 2.48 8.25 8.25 0 0 1-3.79.85 8.53 8.53 0 0 1-3.9-.86 7.34 7.34 0 0 1-4.03-5.8h4.15c.21.93.65 1.66 1.3 2.2a3.8 3.8 0 0 0 2.49.81c1.6 0 2.85-.7 3.72-2.1.87-1.4 1.3-3.35 1.3-5.84h-.15a5.97 5.97 0 0 1-3.45 2.83c-.75.26-1.54.39-2.37.39a7.04 7.04 0 0 1-6.26-3.66 8 8 0 0 1-.95-3.9 8 8 0 0 1 1.04-4.08 7.6 7.6 0 0 1 2.94-2.86 8.71 8.71 0 0 1 4.41-1.04Zm.01 3.4a4.18 4.18 0 0 0-3.76 2.22 4.75 4.75 0 0 0 0 4.51 4.14 4.14 0 0 0 3.72 2.2 4.19 4.19 0 0 0 3.1-1.34 4.64 4.64 0 0 0 1.26-3.15c0-.8-.19-1.53-.56-2.2a4.39 4.39 0 0 0-1.54-1.63 4.04 4.04 0 0 0-2.21-.6Zm23.29 6.85v3.39h-10.48v-3.39h10.48Zm12.88 13.78a8.14 8.14 0 0 1-4.82-1.42 9.05 9.05 0 0 1-3.08-4.13 17.74 17.74 0 0 1-1.06-6.51c0-2.54.36-4.7 1.08-6.48a8.9 8.9 0 0 1 3.08-4.09 8.16 8.16 0 0 1 4.8-1.4 8.1 8.1 0 0 1 4.8 1.4 8.8 8.8 0 0 1 3.09 4.1 17.34 17.34 0 0 1 1.08 6.47c0 2.54-.36 4.72-1.08 6.52a8.87 8.87 0 0 1-3.08 4.12 8.08 8.08 0 0 1-4.8 1.42Zm0-3.56c1.46 0 2.6-.72 3.45-2.15.84-1.44 1.27-3.56 1.27-6.35 0-1.85-.2-3.4-.58-4.66a6.18 6.18 0 0 0-1.64-2.84 3.58 3.58 0 0 0-2.5-.97c-1.44 0-2.59.72-3.43 2.16-.84 1.43-1.26 3.54-1.27 6.3-.01 1.87.18 3.43.56 4.7a6.27 6.27 0 0 0 1.63 2.85c.7.64 1.54.96 2.51.96Zm21.27 3.43c-1.12 0-2.2-.2-3.26-.58a7.67 7.67 0 0 1-2.87-1.87 9.21 9.21 0 0 1-2.02-3.47c-.5-1.45-.75-3.24-.74-5.37 0-2 .21-3.77.64-5.33a11.79 11.79 0 0 1 1.83-3.96 8.08 8.08 0 0 1 2.87-2.48 8.3 8.3 0 0 1 3.79-.85c1.46 0 2.75.29 3.88.87a7.32 7.32 0 0 1 4.05 5.72h-4.15c-.21-.9-.65-1.6-1.3-2.13a3.76 3.76 0 0 0-2.49-.81c-1.6 0-2.85.7-3.72 2.1-.87 1.4-1.3 3.33-1.3 5.77h.15c.37-.66.85-1.23 1.44-1.71a7.07 7.07 0 0 1 4.38-1.5 6.98 6.98 0 0 1 6.26 3.67c.64 1.14.95 2.44.94 3.9a7.59 7.59 0 0 1-3.99 6.99 8.84 8.84 0 0 1-4.4 1.04Zm-.03-3.4c.83 0 1.57-.2 2.22-.61a4.55 4.55 0 0 0 2.1-3.92 4.5 4.5 0 0 0-.54-2.26 4.16 4.16 0 0 0-5.44-1.84 4.58 4.58 0 0 0-.56 8.01c.66.4 1.4.61 2.22.61Z" />
      </g>
    </g>
    <g data-object="Сокол__r__2358:314">
      <g data-object="Сокол__r__I2358:314;2219:182">
        <path fill="#78B500"
          d="M450 92a12 12 0 0 1 12-12h75a12 12 0 0 1 12 12v38a12 12 0 0 1-12 12h-75a12 12 0 0 1-12-12V92Z" />
        <path fill="#fff"
          d="M471.63 98.9c1.11 0 2.2.2 3.25.59a7.6 7.6 0 0 1 2.86 1.86 9 9 0 0 1 2.03 3.44c.5 1.44.75 3.22.75 5.34 0 2-.2 3.8-.64 5.37a11.9 11.9 0 0 1-1.83 3.98 8.07 8.07 0 0 1-2.88 2.47 8.25 8.25 0 0 1-3.78.86 8.54 8.54 0 0 1-3.9-.87 7.35 7.35 0 0 1-4.03-5.8h4.15c.2.93.64 1.67 1.3 2.21.65.54 1.48.8 2.48.8 1.62 0 2.86-.7 3.73-2.1.87-1.4 1.3-3.34 1.3-5.84h-.15a5.97 5.97 0 0 1-3.46 2.83c-.74.26-1.53.39-2.36.39a7.05 7.05 0 0 1-6.26-3.66 8 8 0 0 1-.96-3.9 8 8 0 0 1 1.05-4.08 7.59 7.59 0 0 1 2.94-2.86 8.7 8.7 0 0 1 4.41-1.03Zm.01 3.4a4.18 4.18 0 0 0-3.76 2.22 4.76 4.76 0 0 0 0 4.51 4.14 4.14 0 0 0 3.72 2.2 4.2 4.2 0 0 0 3.1-1.33 4.64 4.64 0 0 0 1.26-3.15c0-.8-.19-1.53-.57-2.2a4.38 4.38 0 0 0-1.53-1.63 4.05 4.05 0 0 0-2.22-.61Zm23.29 6.86v3.38h-10.48v-3.38h10.48Zm12.88 13.77a8.13 8.13 0 0 1-4.82-1.42 9.05 9.05 0 0 1-3.08-4.13 17.74 17.74 0 0 1-1.07-6.5c.01-2.55.37-4.7 1.08-6.48a8.91 8.91 0 0 1 3.08-4.1 8.17 8.17 0 0 1 4.8-1.4c1.87 0 3.47.47 4.82 1.4a8.81 8.81 0 0 1 3.08 4.1 17.34 17.34 0 0 1 1.07 6.47c0 2.55-.36 4.72-1.07 6.53a8.88 8.88 0 0 1-3.08 4.11 8.09 8.09 0 0 1-4.81 1.42Zm0-3.56c1.45 0 2.6-.71 3.44-2.14.85-1.44 1.27-3.56 1.27-6.36 0-1.84-.19-3.4-.57-4.66a6.19 6.19 0 0 0-1.64-2.84 3.58 3.58 0 0 0-2.5-.96c-1.45 0-2.6.72-3.43 2.16-.84 1.43-1.27 3.53-1.28 6.3 0 1.86.18 3.42.56 4.69a6.27 6.27 0 0 0 1.64 2.86c.7.64 1.54.95 2.5.95Zm12.97 3.12 9.9-19.6v-.15h-11.5V99.2h15.86v3.6l-9.89 19.68h-4.37Z" />
      </g>
    </g>
    <g data-object="Сокол__r__2358:318">
      <g data-object="Сокол__r__I2358:318;2219:182">
        <path fill="#78B500"
          d="M450 159a12 12 0 0 1 12-12h75a12 12 0 0 1 12 12v36a12 12 0 0 1-12 12h-75a12 12 0 0 1-12-12v-36Z" />
        <path fill="#fff"
          d="M470.38 165.24c1.11 0 2.2.2 3.25.59a7.6 7.6 0 0 1 2.86 1.86 9 9 0 0 1 2.03 3.44c.5 1.44.75 3.22.75 5.34 0 2-.2 3.8-.64 5.37a11.9 11.9 0 0 1-1.83 3.97 8.07 8.07 0 0 1-2.88 2.48 8.25 8.25 0 0 1-3.78.85 8.54 8.54 0 0 1-3.9-.86 7.35 7.35 0 0 1-4.03-5.8h4.15c.2.93.64 1.66 1.3 2.21.65.54 1.48.8 2.48.8 1.62 0 2.86-.7 3.73-2.1.87-1.4 1.3-3.34 1.3-5.84h-.15a5.97 5.97 0 0 1-3.46 2.83c-.74.26-1.53.39-2.36.39a7.04 7.04 0 0 1-6.26-3.66 8 8 0 0 1-.96-3.9 8 8 0 0 1 1.05-4.08 7.6 7.6 0 0 1 2.94-2.86 8.71 8.71 0 0 1 4.41-1.03Zm.01 3.4a4.17 4.17 0 0 0-3.76 2.22 4.76 4.76 0 0 0 0 4.51 4.14 4.14 0 0 0 3.72 2.2 4.2 4.2 0 0 0 3.1-1.33 4.64 4.64 0 0 0 1.26-3.15c0-.8-.19-1.53-.57-2.2a4.38 4.38 0 0 0-1.53-1.63 4.05 4.05 0 0 0-2.22-.62Zm23.29 6.86v3.38H483.2v-3.38h10.48Zm12.88 13.77a8.13 8.13 0 0 1-4.82-1.42 9.05 9.05 0 0 1-3.08-4.13 17.74 17.74 0 0 1-1.07-6.5c.01-2.54.37-4.7 1.08-6.48a8.91 8.91 0 0 1 3.08-4.1 8.17 8.17 0 0 1 4.8-1.4c1.87 0 3.47.47 4.82 1.4a8.81 8.81 0 0 1 3.08 4.1 17.34 17.34 0 0 1 1.07 6.47c0 2.55-.36 4.72-1.07 6.53a8.88 8.88 0 0 1-3.08 4.1 8.09 8.09 0 0 1-4.81 1.43Zm0-3.56c1.45 0 2.6-.71 3.44-2.15.85-1.44 1.27-3.55 1.27-6.35 0-1.85-.19-3.4-.57-4.66a6.19 6.19 0 0 0-1.64-2.84 3.59 3.59 0 0 0-2.5-.96c-1.45 0-2.6.72-3.43 2.16-.84 1.43-1.27 3.53-1.28 6.3 0 1.86.18 3.42.56 4.68a6.27 6.27 0 0 0 1.64 2.87c.7.63 1.54.95 2.5.95Zm21.01 3.43c-1.69 0-3.19-.28-4.5-.85a7.48 7.48 0 0 1-3.07-2.33 5.48 5.48 0 0 1-1.09-3.37c0-.98.2-1.88.64-2.7a6 6 0 0 1 4.23-3.1v-.16a4.93 4.93 0 0 1-2.91-1.83 5.29 5.29 0 0 1-1.1-3.33c0-1.2.33-2.26 1-3.2a6.83 6.83 0 0 1 2.78-2.22 9.45 9.45 0 0 1 4.02-.81c1.5 0 2.82.27 4 .81a6.82 6.82 0 0 1 2.76 2.22c.69.94 1.03 2 1.03 3.2 0 1.26-.38 2.37-1.13 3.33a4.9 4.9 0 0 1-2.87 1.83v.16a6.01 6.01 0 0 1 4.86 5.8 5.5 5.5 0 0 1-1.11 3.37 7.48 7.48 0 0 1-3.07 2.33 11 11 0 0 1-4.47.85Zm0-3.25a5.4 5.4 0 0 0 2.28-.44 3.6 3.6 0 0 0 1.5-1.27c.35-.55.53-1.18.54-1.89 0-.74-.2-1.4-.58-1.96a3.81 3.81 0 0 0-1.53-1.36 4.8 4.8 0 0 0-2.2-.48 4.9 4.9 0 0 0-2.23.48c-.66.33-1.17.78-1.55 1.36a3.45 3.45 0 0 0-.54 1.96 3.3 3.3 0 0 0 2.02 3.15c.65.3 1.41.45 2.3.45Zm0-10.6c.71 0 1.34-.14 1.89-.43a3.29 3.29 0 0 0 1.8-2.99 3.14 3.14 0 0 0-1.78-2.92 4.17 4.17 0 0 0-1.9-.42 4.3 4.3 0 0 0-1.95.42 3.08 3.08 0 0 0-1.74 2.92c0 .68.14 1.27.46 1.79.31.5.75.9 1.3 1.2.56.29 1.2.43 1.92.43Z" />
      </g>
    </g>
    <g data-object="Сокол__r__2358:323">
      <g data-object="Сокол__r__I2358:323;2219:182">
        <path fill="#78B500"
          d="M448 356a12 12 0 0 1 12-12h77a12 12 0 0 1 12 12v38a12 12 0 0 1-12 12h-77a12 12 0 0 1-12-12v-38Z" />
        <path fill="#fff"
          d="M468.68 362.9c1.11 0 2.2.2 3.25.59a7.6 7.6 0 0 1 2.86 1.86c.85.86 1.52 2 2.02 3.44s.75 3.22.75 5.34c.01 2-.2 3.8-.63 5.37a11.94 11.94 0 0 1-1.83 3.98 8.07 8.07 0 0 1-2.88 2.47 8.25 8.25 0 0 1-3.78.86 8.53 8.53 0 0 1-3.91-.87 7.33 7.33 0 0 1-4.02-5.8h4.14c.22.93.65 1.67 1.3 2.21.66.54 1.49.8 2.49.8 1.61 0 2.86-.7 3.73-2.1.87-1.4 1.3-3.34 1.3-5.84h-.16a5.95 5.95 0 0 1-3.45 2.83c-.74.26-1.53.39-2.36.39a7.05 7.05 0 0 1-6.27-3.66 8 8 0 0 1-.95-3.9 8 8 0 0 1 1.05-4.08 7.6 7.6 0 0 1 2.94-2.86 8.72 8.72 0 0 1 4.4-1.03Zm0 3.4a4.18 4.18 0 0 0-3.75 2.22 4.75 4.75 0 0 0 0 4.51 4.14 4.14 0 0 0 3.71 2.2 4.19 4.19 0 0 0 3.1-1.33 4.64 4.64 0 0 0 1.27-3.15c0-.8-.2-1.53-.57-2.2a4.39 4.39 0 0 0-1.54-1.63 4.05 4.05 0 0 0-2.21-.62Zm23.3 6.86v3.38H481.5v-3.38h10.47Zm12.88 13.77a8.14 8.14 0 0 1-4.82-1.42 9.05 9.05 0 0 1-3.08-4.13 17.74 17.74 0 0 1-1.07-6.5c0-2.55.37-4.7 1.08-6.48a8.9 8.9 0 0 1 3.08-4.1 8.17 8.17 0 0 1 4.8-1.4c1.87 0 3.47.47 4.81 1.4a8.8 8.8 0 0 1 3.08 4.1 17.34 17.34 0 0 1 1.08 6.47c0 2.55-.36 4.72-1.08 6.53a8.88 8.88 0 0 1-3.08 4.11 8.08 8.08 0 0 1-4.8 1.42Zm0-3.56c1.45 0 2.6-.71 3.44-2.14.85-1.44 1.27-3.56 1.27-6.36 0-1.85-.2-3.4-.58-4.66a6.19 6.19 0 0 0-1.63-2.84 3.58 3.58 0 0 0-2.5-.96c-1.45 0-2.6.72-3.44 2.16-.84 1.43-1.26 3.53-1.27 6.3 0 1.86.18 3.42.56 4.69a6.27 6.27 0 0 0 1.64 2.86c.7.63 1.54.95 2.5.95Zm20.82-20.47c1.11 0 2.2.2 3.25.59a7.6 7.6 0 0 1 2.86 1.86c.85.86 1.52 2 2.02 3.44s.75 3.22.75 5.34c.01 2-.2 3.8-.63 5.37a11.94 11.94 0 0 1-1.83 3.98 8.07 8.07 0 0 1-2.88 2.47 8.25 8.25 0 0 1-3.78.86 8.53 8.53 0 0 1-3.91-.87 7.33 7.33 0 0 1-4.02-5.8h4.14c.22.93.65 1.67 1.3 2.21.66.54 1.49.8 2.49.8 1.61 0 2.85-.7 3.73-2.1.87-1.4 1.3-3.34 1.3-5.84h-.16a5.95 5.95 0 0 1-3.45 2.83c-.74.26-1.53.39-2.36.39a7.05 7.05 0 0 1-6.27-3.66 8 8 0 0 1-.95-3.9 8 8 0 0 1 1.05-4.08 7.6 7.6 0 0 1 2.94-2.86 8.72 8.72 0 0 1 4.4-1.03Zm0 3.4a4.18 4.18 0 0 0-3.75 2.22 4.75 4.75 0 0 0 0 4.51 4.14 4.14 0 0 0 3.72 2.2 4.19 4.19 0 0 0 3.1-1.33 4.64 4.64 0 0 0 1.26-3.15c0-.8-.2-1.53-.57-2.2a4.39 4.39 0 0 0-1.54-1.63 4.05 4.05 0 0 0-2.21-.62Z" />
      </g>
    </g>
    <g data-object="Сокол__r__2358:327">
      <g data-object="Сокол__r__I2358:327;2219:182">
        <path fill="#78B500"
          d="M448 422a12 12 0 0 1 12-12h77a12 12 0 0 1 12 12v39a12 12 0 0 1-12 12h-77a12 12 0 0 1-12-12v-39Z" />
        <path fill="#fff"
          d="M471.87 429.23c1.1 0 2.2.2 3.25.59a7.6 7.6 0 0 1 2.86 1.86 9 9 0 0 1 2.02 3.44c.5 1.44.75 3.22.75 5.34 0 2-.2 3.8-.63 5.37a11.89 11.89 0 0 1-1.83 3.98 8.06 8.06 0 0 1-2.88 2.47 8.25 8.25 0 0 1-3.78.86 8.53 8.53 0 0 1-3.91-.87 7.35 7.35 0 0 1-4.03-5.8h4.15a3.9 3.9 0 0 0 1.3 2.21c.66.54 1.49.8 2.49.8 1.61 0 2.85-.7 3.72-2.1.88-1.4 1.31-3.34 1.31-5.83h-.16a5.98 5.98 0 0 1-3.45 2.82c-.75.26-1.53.4-2.37.4a7.04 7.04 0 0 1-6.26-3.67 8 8 0 0 1-.95-3.9 8 8 0 0 1 1.04-4.08 7.58 7.58 0 0 1 2.95-2.86 8.7 8.7 0 0 1 4.4-1.03Zm0 3.4a4.17 4.17 0 0 0-3.75 2.22 4.76 4.76 0 0 0 0 4.51 4.14 4.14 0 0 0 3.72 2.2 4.19 4.19 0 0 0 3.1-1.33 4.62 4.62 0 0 0 1.25-3.15c0-.8-.19-1.53-.56-2.2a4.38 4.38 0 0 0-1.54-1.63 4.04 4.04 0 0 0-2.21-.61Zm23.29 6.86v3.38h-10.48v-3.38h10.48Zm13.75-9.94v23.27h-4.22v-19.17h-.13l-5.45 3.47v-3.86l5.79-3.71h4Zm14.5 23.71a8.14 8.14 0 0 1-4.8-1.42 9.05 9.05 0 0 1-3.09-4.13 17.73 17.73 0 0 1-1.07-6.5c.01-2.54.37-4.7 1.08-6.48a8.9 8.9 0 0 1 3.08-4.1 8.16 8.16 0 0 1 4.8-1.4c1.87 0 3.48.47 4.82 1.4a8.8 8.8 0 0 1 3.07 4.1 17.34 17.34 0 0 1 1.09 6.47c0 2.55-.37 4.72-1.09 6.53a8.87 8.87 0 0 1-3.07 4.11 8.09 8.09 0 0 1-4.81 1.42Zm0-3.56c1.46 0 2.61-.71 3.45-2.14.85-1.44 1.27-3.56 1.27-6.36 0-1.84-.19-3.4-.58-4.65a6.17 6.17 0 0 0-1.63-2.85 3.58 3.58 0 0 0-2.5-.96c-1.45 0-2.6.72-3.43 2.16-.84 1.43-1.27 3.53-1.28 6.3 0 1.86.18 3.42.56 4.69a6.27 6.27 0 0 0 1.64 2.86c.7.64 1.54.95 2.5.95Z" />
      </g>
    </g>
    <g data-object="Сокол__r__2358:331">
      <g data-object="Сокол__r__I2358:331;2219:182">
        <path fill="#78B500"
          d="M409 488a12 12 0 0 1 12-12h116a12 12 0 0 1 12 12v48a12 12 0 0 1-12 12H421a12 12 0 0 1-12-12v-48Z" />
        <path fill="#fff"
          d="M455.57 500.2c1.11 0 2.2.2 3.25.6 1.06.37 2.01 1 2.86 1.85a9 9 0 0 1 2.03 3.45c.5 1.44.75 3.22.75 5.34 0 2-.2 3.79-.64 5.36a11.9 11.9 0 0 1-1.83 3.98 8.08 8.08 0 0 1-2.87 2.48 8.26 8.26 0 0 1-3.79.85 8.53 8.53 0 0 1-3.9-.86 7.35 7.35 0 0 1-4.03-5.8h4.15c.2.92.64 1.66 1.3 2.2.65.54 1.48.81 2.48.81 1.62 0 2.86-.7 3.73-2.1.87-1.4 1.3-3.35 1.3-5.84h-.15a5.98 5.98 0 0 1-3.46 2.83c-.74.26-1.53.38-2.36.38a7.04 7.04 0 0 1-6.26-3.65 8 8 0 0 1-.96-3.9 8 8 0 0 1 1.05-4.08 7.58 7.58 0 0 1 2.94-2.87 8.71 8.71 0 0 1 4.41-1.03Zm.01 3.4a4.17 4.17 0 0 0-3.76 2.22 4.76 4.76 0 0 0 0 4.51 4.14 4.14 0 0 0 3.72 2.2 4.19 4.19 0 0 0 3.1-1.33 4.62 4.62 0 0 0 1.26-3.15c0-.8-.19-1.53-.57-2.2a4.38 4.38 0 0 0-1.53-1.63 4.04 4.04 0 0 0-2.22-.61Zm23.29 6.86v3.39h-10.48v-3.39h10.48Zm13.74-9.94v23.27h-4.21v-19.17h-.14l-5.44 3.48v-3.87l5.78-3.71h4.01Zm15.38 0v23.27h-4.22v-19.17h-.13l-5.45 3.48v-3.87l5.79-3.71h4Z" />
      </g>
    </g>
    <g data-object="Сокол__r__2358:338">
      <g data-object="Сокол__r__I2358:338;2219:182">
        <path fill="#78B500"
          d="M276 422a12 12 0 0 1 12-12h105a12 12 0 0 1 12 12v114a12 12 0 0 1-12 12H288a12 12 0 0 1-12-12V422Z" />
        <path fill="#fff"
          d="M314.43 468c1.1.02 2.2.21 3.25.6a7.6 7.6 0 0 1 2.86 1.86c.85.86 1.52 2 2.02 3.45.5 1.44.75 3.22.75 5.34 0 2-.2 3.79-.63 5.36a11.93 11.93 0 0 1-1.83 3.98 8.07 8.07 0 0 1-2.88 2.48 8.25 8.25 0 0 1-3.78.85 8.54 8.54 0 0 1-3.91-.87 7.35 7.35 0 0 1-4.03-5.8h4.15a3.9 3.9 0 0 0 1.3 2.21 3.8 3.8 0 0 0 2.49.81c1.61 0 2.85-.7 3.72-2.1.87-1.4 1.31-3.35 1.31-5.84h-.16a5.97 5.97 0 0 1-3.45 2.83 7.4 7.4 0 0 1-2.37.38 7.05 7.05 0 0 1-6.26-3.66 8 8 0 0 1-.95-3.9 8 8 0 0 1 1.04-4.07 7.6 7.6 0 0 1 2.94-2.87 8.72 8.72 0 0 1 4.42-1.03Zm0 3.42a4.18 4.18 0 0 0-3.75 2.21 4.75 4.75 0 0 0 0 4.51 4.14 4.14 0 0 0 3.71 2.2 4.19 4.19 0 0 0 3.1-1.33 4.64 4.64 0 0 0 1.26-3.15c0-.8-.19-1.53-.56-2.2a4.39 4.39 0 0 0-1.54-1.63 4.05 4.05 0 0 0-2.21-.61Zm23.29 6.85v3.39h-10.48v-3.39h10.48Zm13.75-9.94v23.27h-4.22v-19.17h-.13l-5.45 3.48v-3.87l5.79-3.71h4Zm5.9 23.27v-3.05l8.09-7.92c.77-.78 1.41-1.47 1.93-2.07.51-.61.9-1.2 1.16-1.77.25-.56.38-1.17.38-1.81a3.32 3.32 0 0 0-1.88-3.11 4.43 4.43 0 0 0-1.98-.44 4.1 4.1 0 0 0-2.01.48c-.58.3-1.02.75-1.34 1.33a4.28 4.28 0 0 0-.47 2.05h-4.01a6.82 6.82 0 0 1 3.8-6.39c1.19-.6 2.55-.9 4.09-.9 1.56 0 2.93.3 4.11.88a6.7 6.7 0 0 1 2.75 2.4c.66 1.02.99 2.18.99 3.48a6.9 6.9 0 0 1-.5 2.57 10.9 10.9 0 0 1-1.76 2.8 44.7 44.7 0 0 1-3.51 3.7l-4.02 4.09v.16h10.14v3.52h-15.95Z" />
      </g>
    </g>
    <g data-object="Сокол__r__2358:342">
      <g data-object="Сокол__r__I2358:342;2219:182">
        <path fill="#78B500"
          d="M0 353a12 12 0 0 1 12-12h119a12 12 0 0 1 12 12v38a12 12 0 0 1-12 12H12a12 12 0 0 1-12-12v-38Z" />
        <path fill="#fff"
          d="M44.9 359.9c1.11 0 2.2.2 3.25.59a7.6 7.6 0 0 1 2.86 1.86 9 9 0 0 1 2.03 3.44c.5 1.44.75 3.22.75 5.34 0 2-.2 3.8-.64 5.37a11.92 11.92 0 0 1-1.83 3.98 8.07 8.07 0 0 1-2.88 2.47 8.25 8.25 0 0 1-3.78.86 8.53 8.53 0 0 1-3.9-.87 7.33 7.33 0 0 1-4.03-5.8h4.15c.2.93.64 1.67 1.3 2.21.65.54 1.48.8 2.48.8 1.61 0 2.86-.7 3.73-2.1.87-1.4 1.3-3.34 1.3-5.84h-.15a5.96 5.96 0 0 1-3.46 2.83c-.74.26-1.53.39-2.36.39a7.05 7.05 0 0 1-6.26-3.66 8 8 0 0 1-.96-3.9 8 8 0 0 1 1.05-4.08 7.59 7.59 0 0 1 2.94-2.86 8.71 8.71 0 0 1 4.41-1.03Zm.01 3.4a4.18 4.18 0 0 0-3.76 2.22 4.76 4.76 0 0 0 0 4.51 4.14 4.14 0 0 0 3.72 2.2 4.19 4.19 0 0 0 3.1-1.33 4.62 4.62 0 0 0 1.26-3.15c0-.8-.19-1.53-.57-2.2a4.39 4.39 0 0 0-1.53-1.63 4.04 4.04 0 0 0-2.22-.62Zm23.28 6.86v3.38H57.72v-3.38h10.47Zm13.75-9.95v23.28h-4.21v-19.17h-.14l-5.44 3.47v-3.86l5.78-3.72h4.01Zm14.43 23.6a9.87 9.87 0 0 1-3.26-.58 7.69 7.69 0 0 1-2.86-1.88 9.23 9.23 0 0 1-2.02-3.47 16.3 16.3 0 0 1-.74-5.37c0-2 .21-3.77.63-5.33a11.78 11.78 0 0 1 1.83-3.95 8.07 8.07 0 0 1 2.88-2.48 8.3 8.3 0 0 1 3.78-.85 8.4 8.4 0 0 1 3.89.86 7.32 7.32 0 0 1 4.04 5.73h-4.14c-.22-.9-.65-1.6-1.31-2.14a3.76 3.76 0 0 0-2.48-.8c-1.61 0-2.85.7-3.72 2.1-.87 1.4-1.3 3.32-1.31 5.77h.16c.37-.67.85-1.24 1.44-1.72a7.05 7.05 0 0 1 4.38-1.5 6.99 6.99 0 0 1 6.26 3.67c.63 1.14.95 2.44.94 3.91 0 1.53-.34 2.9-1.05 4.13a7.59 7.59 0 0 1-2.94 2.86 8.84 8.84 0 0 1-4.4 1.04Zm-.02-3.41c.83 0 1.57-.2 2.22-.6a4.56 4.56 0 0 0 2.1-3.92c0-.84-.17-1.6-.55-2.27a4.16 4.16 0 0 0-3.71-2.2 4.19 4.19 0 0 0-3.1 1.34 4.59 4.59 0 0 0 .83 7.03c.65.41 1.39.62 2.21.62Z" />
      </g>
    </g>
    <g data-object="Сокол__r__2408:72">
      <g data-object="Сокол__r__I2408:72;2219:182">
        <path fill="#78B500"
          d="M0 421a12 12 0 0 1 12-12h119a12 12 0 0 1 12 12v38a12 12 0 0 1-12 12H12a12 12 0 0 1-12-12v-38Z" />
        <path fill="#fff"
          d="M45.15 427.9c1.11 0 2.2.2 3.25.59a7.6 7.6 0 0 1 2.86 1.86 9 9 0 0 1 2.03 3.44c.5 1.44.75 3.22.75 5.34 0 2-.2 3.8-.64 5.37a11.91 11.91 0 0 1-1.83 3.98 8.07 8.07 0 0 1-2.88 2.47 8.25 8.25 0 0 1-3.78.86 8.54 8.54 0 0 1-3.9-.87 7.35 7.35 0 0 1-4.03-5.8h4.15c.2.93.64 1.67 1.3 2.21.65.54 1.48.8 2.48.8 1.61 0 2.86-.7 3.73-2.1.87-1.4 1.3-3.34 1.3-5.84h-.15a5.98 5.98 0 0 1-3.46 2.83c-.74.26-1.53.39-2.36.39a7.05 7.05 0 0 1-6.26-3.66 8 8 0 0 1-.96-3.9 8 8 0 0 1 1.05-4.08 7.59 7.59 0 0 1 2.94-2.86 8.71 8.71 0 0 1 4.41-1.03Zm.01 3.4a4.18 4.18 0 0 0-3.76 2.22 4.76 4.76 0 0 0 0 4.51 4.14 4.14 0 0 0 3.72 2.2 4.19 4.19 0 0 0 3.1-1.33 4.62 4.62 0 0 0 1.26-3.15c0-.8-.19-1.53-.57-2.2a4.39 4.39 0 0 0-1.53-1.63 4.04 4.04 0 0 0-2.22-.62Zm23.28 6.86v3.38H57.97v-3.38h10.47Zm13.75-9.95v23.28h-4.21v-19.17h-.14l-5.44 3.47v-3.86l5.78-3.72h4.01Zm14 23.6a9.38 9.38 0 0 1-4.07-.86 7.26 7.26 0 0 1-2.85-2.36c-.7-1-1.07-2.14-1.11-3.43h4.09c.07.95.49 1.73 1.24 2.34.75.6 1.65.9 2.7.9a4.07 4.07 0 0 0 3.73-2.15c.37-.68.55-1.44.55-2.3 0-.89-.18-1.67-.56-2.35a4.17 4.17 0 0 0-1.56-1.6 4.3 4.3 0 0 0-2.27-.6c-.7 0-1.38.13-2.06.4a4.2 4.2 0 0 0-1.6 1.04l-3.8-.63 1.2-12h13.5v3.53h-10l-.67 6.17h.13a4.72 4.72 0 0 1 1.83-1.26 6.45 6.45 0 0 1 2.6-.51 7.16 7.16 0 0 1 6.38 3.72 8.1 8.1 0 0 1 .95 3.98c0 1.54-.35 2.9-1.06 4.11a7.54 7.54 0 0 1-2.95 2.83 8.92 8.92 0 0 1-4.34 1.03Z" />
      </g>
    </g>
    <g data-object="Сокол__r__2408:76">
      <path fill="#78B500"
        d="M0 488a12 12 0 0 1 12-12h119a12 12 0 0 1 12 12v48a12 12 0 0 1-12 12H12a12 12 0 0 1-12-12v-48Z" />
      <path fill="#fff"
        d="M45.6 500.2c1.12 0 2.2.2 3.25.6a7.6 7.6 0 0 1 2.87 1.85 9 9 0 0 1 2.02 3.45c.5 1.44.75 3.22.75 5.34 0 2-.2 3.79-.64 5.36a11.9 11.9 0 0 1-1.83 3.98 8.07 8.07 0 0 1-2.87 2.48 8.25 8.25 0 0 1-3.79.85 8.53 8.53 0 0 1-3.9-.86 7.35 7.35 0 0 1-4.03-5.8h4.15c.21.92.64 1.66 1.3 2.2.65.54 1.48.81 2.48.81 1.62 0 2.86-.7 3.73-2.1.87-1.4 1.3-3.35 1.3-5.84h-.15a5.98 5.98 0 0 1-3.46 2.83c-.74.26-1.53.38-2.36.38a7.04 7.04 0 0 1-6.26-3.65 8 8 0 0 1-.95-3.9 8 8 0 0 1 1.04-4.08 7.59 7.59 0 0 1 2.94-2.87 8.71 8.71 0 0 1 4.41-1.03Zm.01 3.4a4.17 4.17 0 0 0-3.76 2.22 4.75 4.75 0 0 0 0 4.51 4.14 4.14 0 0 0 3.72 2.2 4.19 4.19 0 0 0 3.1-1.33 4.62 4.62 0 0 0 1.26-3.15c0-.8-.19-1.53-.57-2.2a4.39 4.39 0 0 0-1.53-1.63 4.04 4.04 0 0 0-2.22-.61Zm23.29 6.86v3.39H58.42v-3.39H68.9Zm13.75-9.94v23.27h-4.22v-19.17h-.14l-5.44 3.48v-3.87l5.78-3.71h4.02ZM96.9 524.1c-1.64 0-3.1-.28-4.37-.84a7.3 7.3 0 0 1-3-2.34 6.07 6.07 0 0 1-1.17-3.47h4.28c.03.63.24 1.18.62 1.65.38.46.88.82 1.51 1.08.63.26 1.33.38 2.12.38a5.4 5.4 0 0 0 2.21-.43c.65-.3 1.15-.7 1.51-1.22.37-.53.54-1.13.54-1.81 0-.7-.18-1.33-.55-1.86-.37-.54-.9-.96-1.61-1.27a6.4 6.4 0 0 0-2.53-.45h-2.05v-3.25h2.05a5 5 0 0 0 2.13-.42c.61-.28 1.1-.68 1.44-1.18.35-.52.52-1.11.51-1.79a3.1 3.1 0 0 0-.44-1.71c-.3-.5-.71-.88-1.26-1.15a5.01 5.01 0 0 0-3.88-.02c-.6.25-1.09.62-1.46 1.1a2.8 2.8 0 0 0-.6 1.68h-4.05a5.9 5.9 0 0 1 1.13-3.43c.72-1 1.7-1.77 2.9-2.32a9.61 9.61 0 0 1 4.08-.84c1.56 0 2.9.3 4.05.88a6.6 6.6 0 0 1 2.67 2.32c.63.98.94 2.06.94 3.24a4.77 4.77 0 0 1-1.16 3.3 5.45 5.45 0 0 1-3.04 1.74v.18a5.9 5.9 0 0 1 3.76 1.82 5.2 5.2 0 0 1 1.3 3.65c0 1.3-.36 2.46-1.1 3.5a7.38 7.38 0 0 1-3.05 2.4c-1.29.59-2.77.88-4.43.88Z" />
    </g>
    <g data-object="Сокол__r__2408:79">
      <path fill="#78B500"
        d="M148 422a12 12 0 0 1 12-12h99a12 12 0 0 1 12 12v114a12 12 0 0 1-12 12h-99a12 12 0 0 1-12-12V422Z" />
      <path fill="#fff"
        d="M183.16 468c1.11.02 2.2.21 3.25.6a7.6 7.6 0 0 1 2.86 1.86 9 9 0 0 1 2.02 3.45c.5 1.44.75 3.22.75 5.34.01 2-.2 3.79-.63 5.36a11.91 11.91 0 0 1-1.83 3.98 8.08 8.08 0 0 1-2.88 2.48 8.26 8.26 0 0 1-3.78.85 8.55 8.55 0 0 1-3.91-.87 7.35 7.35 0 0 1-4.02-5.8h4.14c.22.93.65 1.67 1.3 2.21a3.8 3.8 0 0 0 2.49.81c1.61 0 2.85-.7 3.73-2.1.87-1.4 1.3-3.35 1.3-5.84h-.16a5.99 5.99 0 0 1-3.45 2.83c-.74.25-1.53.38-2.37.38a7.04 7.04 0 0 1-6.26-3.66 8 8 0 0 1-.95-3.9 8 8 0 0 1 1.04-4.07 7.59 7.59 0 0 1 2.95-2.87 8.71 8.71 0 0 1 4.4-1.03Zm0 3.42a4.18 4.18 0 0 0-3.75 2.21 4.77 4.77 0 0 0 0 4.51 4.13 4.13 0 0 0 3.72 2.2 4.19 4.19 0 0 0 3.1-1.33 4.62 4.62 0 0 0 1.26-3.15 4.43 4.43 0 0 0-2.1-3.83 4.04 4.04 0 0 0-2.22-.61Zm23.3 6.85v3.39h-10.49v-3.39h10.48Zm13.74-9.94v23.27h-4.22v-19.17h-.13l-5.45 3.48v-3.87l5.79-3.71h4Zm14.26 23.59c-1.64 0-3.1-.28-4.36-.84a7.28 7.28 0 0 1-3-2.34 6.07 6.07 0 0 1-1.17-3.47h4.27c.04.63.25 1.18.62 1.65.38.46.89.82 1.52 1.08.62.25 1.33.38 2.1.38.84 0 1.58-.14 2.22-.43.65-.3 1.15-.7 1.52-1.22.36-.53.54-1.13.53-1.81 0-.7-.17-1.33-.55-1.87-.37-.53-.9-.95-1.6-1.26-.7-.3-1.55-.45-2.53-.45h-2.06v-3.25h2.06c.8 0 1.52-.14 2.12-.42.62-.28 1.1-.68 1.45-1.18.34-.52.52-1.11.5-1.79a3.1 3.1 0 0 0-.44-1.71c-.3-.5-.71-.88-1.26-1.15a5 5 0 0 0-3.88-.02c-.6.25-1.09.62-1.46 1.1a2.79 2.79 0 0 0-.59 1.68h-4.06a5.9 5.9 0 0 1 1.13-3.43c.73-1 1.7-1.77 2.9-2.32a9.6 9.6 0 0 1 4.09-.84c1.55 0 2.9.3 4.04.87a6.6 6.6 0 0 1 2.67 2.33c.63.98.95 2.06.95 3.24 0 1.31-.38 2.41-1.16 3.3a5.44 5.44 0 0 1-3.05 1.74v.18a5.9 5.9 0 0 1 3.76 1.82 5.17 5.17 0 0 1 1.31 3.64c0 1.3-.37 2.47-1.11 3.5a7.37 7.37 0 0 1-3.05 2.41c-1.29.59-2.76.88-4.43.88Z" />
    </g>
  </g>
  <defs>
    <clipPath id="a">
      <path fill="#fff" d="M97.5 215.5v48h-48v-48z" />
    </clipPath>
    <clipPath id="b">
      <path fill="#fff" d="M502.5 284.5v48h-48v-48z" />
    </clipPath>
    <clipPath id="c">
      <path fill="#fff" d="M49.5 281.5h48v48h-48z" />
    </clipPath>
    <clipPath id="d">
      <path fill="#fff" d="M453 218.5h48v48h-48z" />
    </clipPath>
  </defs>
</svg>