<svg xmlns="http://www.w3.org/2000/svg" width="541" height="549" fill="none" viewBox="0 0 541 549">
  <g class="Ремонт">
    <path fill="#63656A" d="M0 537a12 12 0 0 0 12 12h517a12 12 0 0 0 12-12V12a12 12 0 0 0-12-12H12A12 12 0 0 0 0 12v525Z" class="Rectangle 52"/>
    <g class="construction helmet,construction hard hat,construction hat,worker,user hard hat,hard hat, / 24 / Outline">
      <path fill="#fff" d="M295.22 256.32v-.52a24.66 24.66 0 0 0-7.48-17.72 24.24 24.24 0 0 0-9.82-5.8h-.16a25.52 25.52 0 0 0-8-1.17 25.39 25.39 0 0 0-23.98 25.21 9.27 9.27 0 0 0-2.9 15.82 9.27 9.27 0 0 0 5.99 2.18h43.26a9.27 9.27 0 0 0 8.01-13.95 9.27 9.27 0 0 0-4.92-4.05Zm-3.09 11.83h-43.26a3.1 3.1 0 0 1 0-6.18h6.18a3.09 3.09 0 1 0 0-6.17h-3.1a19.76 19.76 0 0 1 9.28-15.9v9.73a3.08 3.08 0 0 0 5.27 2.18c.58-.58.91-1.36.91-2.18v-12.07c.84-.14 1.68-.23 2.53-.28h.56c1.04.01 2.07.12 3.09.31v12.04a3.08 3.08 0 0 0 5.28 2.18c.58-.58.9-1.36.9-2.18v-9.82c1.31.76 2.54 1.66 3.65 2.69a18.51 18.51 0 0 1 5.62 13.3h-3.09a3.09 3.09 0 1 0 0 6.17h6.18a3.1 3.1 0 0 1 0 6.18Z" class="Vector"/>
    </g>
    <path fill="#fff" d="M212.56 322.75v-23.27h8.72c1.79 0 3.29.33 4.5 1a6.67 6.67 0 0 1 2.76 2.75c.63 1.16.95 2.47.95 3.95 0 1.5-.32 2.82-.95 3.98a6.74 6.74 0 0 1-2.78 2.74 9.5 9.5 0 0 1-4.53.99h-5.79v-3.47h5.22c1.04 0 1.9-.18 2.56-.55a3.44 3.44 0 0 0 1.48-1.5c.33-.63.5-1.36.5-2.19 0-.82-.17-1.55-.5-2.18a3.32 3.32 0 0 0-1.49-1.47 5.46 5.46 0 0 0-2.58-.53h-3.86v19.75h-4.22Zm27.88.34a9 9 0 0 1-4.53-1.09 7.39 7.39 0 0 1-2.92-3.11 10.42 10.42 0 0 1-1.02-4.76c0-1.8.34-3.38 1.02-4.73a7.72 7.72 0 0 1 7.24-4.33c1.07 0 2.09.17 3.04.52.97.34 1.81.87 2.55 1.6a7.45 7.45 0 0 1 1.75 2.74c.42 1.1.64 2.43.64 3.96v1.26H233.9v-2.77h10.36c0-.8-.18-1.5-.5-2.1a3.71 3.71 0 0 0-1.4-1.47 3.93 3.93 0 0 0-2.08-.54 4 4 0 0 0-2.21.62c-.64.4-1.13.93-1.49 1.59a4.57 4.57 0 0 0-.53 2.14v2.43c0 1.01.18 1.88.55 2.6a4.07 4.07 0 0 0 3.9 2.24c.6 0 1.14-.09 1.63-.25a3.28 3.28 0 0 0 2.06-2l3.84.43a5.98 5.98 0 0 1-1.38 2.66 6.75 6.75 0 0 1-2.6 1.75c-1.05.4-2.25.61-3.6.61Zm21.3-5.12 5.17-12.68h3.32l-7.06 17.46h-2.87l-6.9-17.45h3.29l5.04 12.67Zm-6.09-12.68v17.46h-3.96V305.3h3.96Zm12.33 17.46V305.3h3.93v17.45h-3.93Zm15.7.34a8.47 8.47 0 0 1-4.44-1.12 7.64 7.64 0 0 1-2.9-3.15 10.36 10.36 0 0 1-1.03-4.73c0-1.8.34-3.38 1.02-4.74a7.63 7.63 0 0 1 2.91-3.16 8.45 8.45 0 0 1 4.43-1.12c1.7 0 3.19.37 4.44 1.12a7.55 7.55 0 0 1 2.9 3.16 10.33 10.33 0 0 1 1.03 4.74c0 1.8-.35 3.38-1.04 4.73a7.56 7.56 0 0 1-2.9 3.15 8.45 8.45 0 0 1-4.43 1.12Zm.02-3.3c.92 0 1.7-.25 2.31-.76a4.59 4.59 0 0 0 1.4-2.06 8.5 8.5 0 0 0 .46-2.89c0-1.07-.16-2.03-.47-2.9a4.59 4.59 0 0 0-1.38-2.08 3.51 3.51 0 0 0-2.32-.77 3.6 3.6 0 0 0-2.37.77 4.66 4.66 0 0 0-1.4 2.08 8.7 8.7 0 0 0-.45 2.9c0 1.06.15 2.02.46 2.89.3.86.77 1.55 1.4 2.06a3.6 3.6 0 0 0 2.36.77Zm23.82-7.47v3.37h-9.3v-3.37h9.3Zm-8.02-7.02v17.45h-3.97V305.3h3.97Zm10.71 0v17.45h-3.95V305.3h3.95Zm2.2 3.37v-3.38h15.28v3.38h-5.65v14.08h-3.97v-14.08h-5.65Z" class="Ремонт"/>
  </g>
</svg>
