<svg xmlns="http://www.w3.org/2000/svg" fill="none" viewBox="0 0 11000 9000" width="11000" height="9000">
  <defs>
    <path id="g" fill="#000" d="m3135.6 4274.4-7 2.8 2.8 7 .1.2-.1 1-.8.7-7 2.8 2.8 7v1.2l-.8.7-7 2.7 2.8 7v1.3l-.8.7-7 2.7 2.8 7v.3a1.4 1.4 0 0 1-.9 1.7l-8.3 3.3h-1.2a1.4 1.4 0 0 1-.8-.9v-1.1c.2-.4.5-.7.9-.8l7-2.8-2.8-7a.6.6 0 0 1-.1-.2c0-.4 0-.7.2-1 .1-.3.4-.6.7-.7l7-2.8-2.8-7a.6.6 0 0 1 0-.2c-.2-.4-.1-.7 0-1 .2-.3.5-.6.8-.7l7-2.8-2.8-7v-.2c-.1-.3 0-.7.1-1l.7-.7 7-2.7-2.8-7a.5.5 0 0 1 0-.3c-.1-.3 0-.7.1-1 .2-.3.4-.5.8-.7l8.3-3.3h1.2c.3.2.6.5.8.9v1.1c-.2.4-.5.6-.9.8Z"/>
    <path id="u" fill="#fff" d="m3089.9 4285 44.6-17.7 17.7 44.6-44.6 17.8z"/>
  </defs>
  <g data-object="В-78__r__2318:4222">
    <rect width="64" height="89" x="2497" y="4511.5" fill="#8E96FF" rx="12" transform="rotate(-21.7 2497 4511.5)"/>
    <path fill="#fff" d="m2560.2 4560.7-3.3 2.7 2.2 5.6 4.2-.4 1.4 3.4-17.9.8-1.5-3.8 13.5-11.8 1.4 3.5Zm-11.1 9 7.2-.5-1.6-4-5.6 4.5Zm1.3-19.2 2.8 7.2-2.8 1-2.8-7 2.8-1.2Zm.9-12.2-2.8 1.1 3 7.8-2.7 1.1c-3-.3-7.2-1-12.6-2.2l-1.9-4.7 10.3-4-.8-2.1 2.6-1 .8 2 2.8-1.1 1.3 3.1Zm-3.5 7-1.9-5-8 3.3a137.8 137.8 0 0 0 10 1.8Zm-7.8-15.3-2.4 1-.7-2c-.3-.8-.8-1.3-1.4-1.6a2 2 0 0 0-1.8 0 2 2 0 0 0-1.3 1.2 3 3 0 0 0 .2 2.1 3 3 0 0 0 1.3 1.6c.6.4 1.3.4 2 .2l1.2 3a5 5 0 0 1-4.2-.3 7.3 7.3 0 0 1-3-3.6 7 7 0 0 1-.3-4.4 4 4 0 0 1 2.4-2.8c1-.3 1.9-.4 2.8 0 .9.3 1.6 1 2.2 1.8a4.7 4.7 0 0 1 0-3.3c.5-1 1.2-1.6 2.3-2a4 4 0 0 1 4 .3c1.4.8 2.4 2.1 3.1 4a7 7 0 0 1 .4 4.8 5 5 0 0 1-2.8 3l-1.3-3c.7-.4 1.1-.9 1.3-1.5.2-.7.1-1.5-.2-2.3-.4-.9-.8-1.4-1.5-1.8-.6-.4-1.2-.4-1.9-.1a2 2 0 0 0-1.4 1.4c-.2.7-.1 1.4.2 2.3l.8 2Zm.6-19.6c.7 2 1 3.6.5 5.2a4.3 4.3 0 0 1-2.6 3 4 4 0 0 1-3 0c-1-.3-1.9-1-2.5-2 0 1 0 1.9-.5 2.7-.4.8-1 1.4-2 1.7-1.1.5-2.3.4-3.5-.4a7 7 0 0 1-2.8-3.6 7.4 7.4 0 0 1-.5-4.6 3.8 3.8 0 0 1 5-2.9c.8.3 1.5.9 2.1 1.7-.2-1.2 0-2.3.4-3.2a4 4 0 0 1 2.2-2.1c1.4-.6 2.7-.4 4 .4 1.4.9 2.4 2.2 3.2 4.1Zm-2.3 3.4c.3-.8.2-1.5-.1-2.4-.4-.9-.9-1.5-1.5-1.9-.7-.3-1.4-.3-2.1 0s-1.2.7-1.5 1.4c-.2.8-.2 1.6.2 2.4.3.9.8 1.5 1.5 1.9.7.3 1.4.4 2 .1.8-.3 1.3-.8 1.5-1.5Zm-7.3 2.5c.2-.6.2-1.3-.1-2-.3-.7-.7-1.2-1.3-1.6-.6-.3-1.2-.3-1.9 0-.6.2-1 .7-1.3 1.3-.2.6-.2 1.3.1 2 .3.7.8 1.3 1.4 1.6a2 2 0 0 0 1.8 0c.6-.2 1-.7 1.3-1.3Z"/>
  </g>
  <g data-object="В-78__r__2318:4225">
    <rect width="96" height="171" x="3178.4" y="4341.3" fill="#8E96FF" rx="12" transform="rotate(-21.7 3178.4 4341.3)"/>
    <path fill="#fff" d="m3277.2 4429.9-4.5 3.6 3 7.3 5.7-.4 1.7 4.5-23.8 1.1-2-5.2 18-15.6 1.9 4.7Zm-14.9 12 9.7-.7-2.2-5.5-7.5 6.1v.2Zm1.9-25.2 3.8 9.5-3.7 1.5-3.8-9.6 3.7-1.5Zm3.5-10.6-17 6.8h.1l5.8 4-4 1.5-5.8-4-1.8-4.3 21-8.3 1.7 4.3Zm-6.4-17.4a11 11 0 0 1 .7 6.8c-.5 2-1.7 3.4-3.5 4.1-1.3.6-2.7.6-4 0a6.5 6.5 0 0 1-3.3-2.8c.1 1.4 0 2.6-.6 3.7s-1.5 1.9-2.6 2.3a5 5 0 0 1-4.8-.5 9.8 9.8 0 0 1-3.8-5 9.8 9.8 0 0 1-.6-6 5 5 0 0 1 6.6-3.8c1.1.4 2 1.1 2.9 2.2-.3-1.6-.1-3 .5-4.3a5.3 5.3 0 0 1 3-2.8c1.8-.7 3.6-.5 5.3.6a11 11 0 0 1 4.2 5.5Zm-3 4.5a5 5 0 0 0-.2-3.2c-.5-1.2-1.1-2-2-2.5a3 3 0 0 0-2.8-.1c-1 .3-1.6 1-2 2-.3 1-.2 2 .3 3.2a4 4 0 0 0 2 2.4c1 .5 1.8.6 2.8.2s1.6-1 2-2Zm-9.8 3.3c.3-.8.3-1.7-.1-2.7-.4-1-1-1.6-1.8-2-.8-.4-1.6-.5-2.4-.1-.9.3-1.4.9-1.7 1.7-.3.9-.3 1.8 0 2.7.5 1 1 1.7 1.8 2 .8.5 1.7.5 2.5.2s1.4-1 1.7-1.8Zm-2.7-26 3.8 9.5-3.7 1.5-3.8-9.5 3.7-1.5Zm3.5-10.5-17 6.7h.1l5.8 4-4 1.5-5.8-3.9-1.8-4.3 21-8.4 1.7 4.4Z"/>
  </g>
  <g data-object="В-78__r__2318:4226">
    <rect width="64" height="89" x="2563.9" y="4484.9" fill="#8E96FF" rx="12" transform="rotate(-21.7 2563.9 4484.9)"/>
    <path fill="#fff" d="m2627 4534-3.3 2.7 2.2 5.5 4.3-.3 1.3 3.4-17.9.8-1.5-4 13.5-11.6 1.4 3.5Zm-11 9 7.2-.5-1.7-4.1-5.6 4.5v.1Zm1.2-19.2 2.8 7.1-2.7 1.1-2.9-7.1 2.8-1.1Zm.9-12.3-2.8 1.2 3.1 7.8-2.8 1c-3-.2-7.1-1-12.6-2.2l-1.9-4.6 10.3-4.1-.8-2 2.7-1.1.8 2 2.8-1 1.2 3Zm-3.4 7.1-2-5-8 3.2a122.4 122.4 0 0 0 10 1.8Zm-7.9-15.4-2.3 1-.8-2c-.3-.7-.7-1.2-1.3-1.5-.6-.3-1.2-.4-1.9-.1a2 2 0 0 0-1.3 1.3 3 3 0 0 0 .2 2 3 3 0 0 0 1.4 1.7c.6.3 1.2.3 2 0l1.1 3.1c-1.4.5-2.8.5-4.1-.3s-2.3-1.9-3-3.6a6.9 6.9 0 0 1-.4-4.4 4 4 0 0 1 2.4-2.7c1-.4 2-.4 2.8-.1.9.3 1.6 1 2.2 1.9a4.7 4.7 0 0 1 .1-3.3c.4-1 1.1-1.7 2.2-2.1 1.4-.6 2.8-.5 4.1.3 1.3.8 2.3 2.2 3 4a7 7 0 0 1 .4 4.8 5 5 0 0 1-2.8 3.1l-1.2-3.1c.6-.3 1-.8 1.2-1.5.2-.7.2-1.5-.2-2.3-.3-.8-.8-1.4-1.4-1.8-.7-.3-1.3-.4-2-.1-.7.3-1.1.8-1.3 1.4-.3.7-.2 1.5.2 2.4l.7 1.9Zm.6-19.6c.4 1 .6 2.2.5 3.3-.2 1-.6 2-1.3 3a10 10 0 0 1-4.7 3.4c-2.6 1-4.9 1.3-6.8.7-2-.6-3.4-2-4.2-4a6.4 6.4 0 0 1-.3-4.3 5.2 5.2 0 0 1 2.4-3.2l1.3 3.3c-.5.3-.8.8-1 1.4a3 3 0 0 0 .2 1.8 3 3 0 0 0 2.6 2 8 8 0 0 0 4.5-.8c-1 0-1.8-.4-2.6-.9a5.1 5.1 0 0 1-1.7-2.3c-.6-1.5-.6-3 0-4.3a5.4 5.4 0 0 1 3.1-3c1.6-.6 3.2-.6 4.7.1s2.6 2 3.3 3.7Zm-2.6 1a3 3 0 0 0-1.7-1.7 3 3 0 0 0-2.3 0 3 3 0 0 0-1.7 1.6 3 3 0 0 0 0 2.4c.4.8.9 1.4 1.6 1.7a3 3 0 0 0 2.3 0 3 3 0 0 0 1.8-4Z"/>
  </g>
  <g data-object="В-78__r__2318:4227">
    <rect width="64" height="89" x="2630.8" y="4458.2" fill="#8E96FF" rx="12" transform="rotate(-21.7 2630.8 4458.2)"/>
    <path fill="#fff" d="m2694 4507.4-3.4 2.7 2.2 5.5 4.3-.3 1.4 3.4-18 .8-1.5-3.9 13.6-11.7 1.4 3.5Zm-11.1 9 7.2-.5-1.6-4-5.7 4.5Zm1.2-19.2 2.9 7.2-2.8 1-2.9-7 2.8-1.2Zm1-12.2-2.9 1 3.1 8-2.8 1c-2.9-.3-7.1-1-12.6-2.3l-1.8-4.6 10.3-4-.9-2.1 2.7-1 .8 2 2.8-1.2 1.2 3.2Zm-3.5 7-2-5-8 3.2v.1a137.8 137.8 0 0 0 10 1.8Zm-7.8-15.4-2.4 1-.8-2c-.3-.7-.7-1.2-1.3-1.5-.6-.3-1.2-.3-1.9 0a2 2 0 0 0-1.2 1.2 3 3 0 0 0 .1 2.1c.3.8.8 1.3 1.4 1.6.6.3 1.3.4 2 .1l1.2 3a5 5 0 0 1-4.2-.2c-1.3-.7-2.3-2-3-3.6a6.8 6.8 0 0 1-.4-4.4 3.9 3.9 0 0 1 2.5-2.8c1-.4 1.8-.4 2.7 0 1 .3 1.7.9 2.2 1.8a4.7 4.7 0 0 1 .1-3.3c.4-1 1.2-1.7 2.2-2a4 4 0 0 1 4.1.3 7 7 0 0 1 3 4 7 7 0 0 1 .5 4.7 5 5 0 0 1-2.8 3.2l-1.3-3.2c.6-.3 1-.8 1.3-1.5.2-.6 0-1.4-.3-2.3a3 3 0 0 0-1.4-1.7c-.6-.4-1.3-.4-2-.2-.7.3-1.1.8-1.3 1.5-.2.6-.2 1.4.2 2.3l.8 2Zm-.3-20.7-2.8 1.1 3 7.8-2.7 1.2c-3-.3-7.2-1.1-12.7-2.3l-1.8-4.7 10.3-4-.8-2 2.6-1.1.8 2 2.8-1.1 1.3 3.1Zm-3.5 7.1-2-5-8 3.2a134.4 134.4 0 0 0 10 1.8Z"/>
  </g>
  <g data-object="В-78__r__2318:4228">
    <rect width="128" height="88.7" fill="#8E96FF" rx="12" transform="rotate(-21.7 12902 -4816.9) skewX(-.1)"/>
    <path fill="#fff" d="m2748 4471-3.5-4.4-7.4 3 .4 5.7-4.5 1.8-1-24 5.1-2 15.6 18.1-4.6 1.9Zm-12-14.8.7 9.7 5.5-2.2-6-7.5h-.2Zm25.3 1.9-9.5 3.8-1.5-3.7 9.5-3.8 1.5 3.7Zm16 1.3-1.6-3.7-10.4 4.2-1.5-3.8c.5-4 1.5-9.5 3.1-16.8l6.2-2.5 5.4 13.7 2.7-1 1.4 3.5-2.7 1 1.5 3.8-4.2 1.6Zm-9.5-4.6v.1l6.7-2.6-4.3-10.7a171.5 171.5 0 0 0-2.4 13.2Zm20.2-10.2-1.3-3.2 2.6-1c1-.4 1.7-1 2-1.8.5-.8.5-1.6.2-2.5-.4-.8-1-1.4-1.7-1.7a4 4 0 0 0-2.8.3 4 4 0 0 0-2.2 1.8c-.4.8-.4 1.6-.1 2.6l-4 1.6c-.8-2-.6-3.8.3-5.5a9 9 0 0 1 4.8-4c2.2-.9 4.2-1 6-.6 1.7.5 2.9 1.6 3.6 3.3a5 5 0 0 1 0 3.7 5.7 5.7 0 0 1-2.4 2.9c1.6-.4 3.1-.4 4.4.2a5 5 0 0 1 2.8 2.9c.7 1.9.5 3.7-.5 5.5-1.1 1.7-2.9 3-5.3 4a9.4 9.4 0 0 1-6.4.5c-2-.6-3.3-1.8-4.2-3.7l4.2-1.7a3 3 0 0 0 2 1.7c.9.2 2 .1 3-.3 1.2-.5 2-1 2.4-2 .5-.8.5-1.6.2-2.5a3 3 0 0 0-2-1.9c-.8-.2-1.8-.1-3 .3l-2.6 1Zm18.7-7.5-1.2-3.2 2.5-1a4 4 0 0 0 2.1-1.7 3 3 0 0 0 0-2.5c-.2-.9-.8-1.5-1.6-1.7a4 4 0 0 0-2.8.2c-1 .4-1.7 1-2.1 1.8a3 3 0 0 0-.2 2.6l-4 1.6c-.7-2-.6-3.8.3-5.5a9 9 0 0 1 4.8-4c2.2-.8 4.2-1 6-.5 1.7.5 3 1.6 3.6 3.2a5 5 0 0 1 0 3.7 5.7 5.7 0 0 1-2.4 3c1.7-.5 3.1-.4 4.4 0a5 5 0 0 1 2.8 3 6 6 0 0 1-.5 5.5 10.1 10.1 0 0 1-5.3 4 9.4 9.4 0 0 1-6.4.6 6.8 6.8 0 0 1-4.2-3.8l4.2-1.6a3 3 0 0 0 2 1.6c1 .3 2 .2 3-.3 1.2-.4 2-1 2.4-1.9.5-.8.6-1.7.2-2.6a3 3 0 0 0-1.9-1.8c-.9-.3-2-.2-3.1.3l-2.6 1Z"/>
  </g>
  <g data-object="В-78__r__2318:4229">
    <rect width="64" height="89" x="2824" y="4381.3" fill="#8E96FF" rx="12" transform="rotate(-21.7 2824 4381.3)"/>
    <path fill="#fff" d="m2887.2 4430.4-3.3 2.8 2.2 5.5 4.2-.3 1.4 3.3-17.9.9-1.5-4 13.5-11.6 1.4 3.5Zm-11.1 9.1 7.2-.5-1.6-4.1-5.6 4.5v.1Zm1.2-19.2 2.9 7.1-2.8 1.1-2.8-7.1 2.7-1.1Zm1-12.3-2.8 1.1 3 7.9-2.7 1c-3-.2-7.2-1-12.6-2.2l-1.9-4.6 10.3-4.1-.8-2 2.6-1.1.8 2 2.8-1.1 1.3 3.1Zm-3.5 7.1h.1l-2-5-8 3.2a140.4 140.4 0 0 0 10 1.8Zm-7.8-15.4-2.4 1-.7-2a3 3 0 0 0-1.4-1.5c-.6-.3-1.2-.4-1.8-.1a2 2 0 0 0-1.3 1.3 3 3 0 0 0 .2 2 3 3 0 0 0 1.3 1.7c.6.3 1.3.3 2 0l1.2 3.1c-1.5.5-2.9.4-4.1-.3a6.7 6.7 0 0 1-3-3.6 6.8 6.8 0 0 1-.4-4.4 3.9 3.9 0 0 1 2.4-2.7c1-.4 1.9-.4 2.8-.1.9.3 1.6 1 2.2 1.8a4.8 4.8 0 0 1 0-3.3c.5-1 1.2-1.6 2.3-2a4 4 0 0 1 4 .3c1.4.8 2.4 2.2 3.1 4 .7 1.7.9 3.3.4 4.8a5 5 0 0 1-2.8 3.1l-1.3-3.1a2.3 2.3 0 0 0 1.3-1.5c.2-.7.1-1.5-.2-2.3-.3-.8-.8-1.4-1.5-1.8-.6-.3-1.2-.4-1.9-.1-.7.3-1.2.7-1.4 1.4a4 4 0 0 0 .2 2.4l.8 1.9Zm-3.5-23.2a6 6 0 0 1 4.1 3.7 6 6 0 0 1-.3 5.6c-1 1.7-2.8 3-5.4 4-2.5 1-4.7 1.3-6.7.8a6 6 0 0 1-4-3.8 6 6 0 0 1 .3-5.5c1-1.8 2.8-3.1 5.3-4.1 2.6-1 4.8-1.3 6.7-.7Zm.9 7.6c.7-1 1-1.9.6-2.8-.4-1-1.2-1.5-2.4-1.6-1.2-.2-2.6.1-4.4.8-1.8.7-3 1.5-3.8 2.4-.8 1-1 1.9-.6 2.8.4 1 1.2 1.5 2.4 1.7 1.2.1 2.6-.2 4.4-.9 1.8-.7 3-1.5 3.8-2.4Z"/>
  </g>
  <g data-object="В-78__r__2318:4230">
    <rect width="64" height="89" x="2890.9" y="4354.6" fill="#8E96FF" rx="12" transform="rotate(-21.7 2891 4354.6)"/>
    <path fill="#fff" d="m2954 4403.6-3.3 2.7 2.2 5.5 4.2-.3 1.4 3.4-17.9.8-1.5-4 13.5-11.6 1.4 3.5Zm-11.1 9 7.2-.5-1.6-4.1-5.7 4.5v.1Zm1.2-19.2 2.9 7.1-2.8 1.1-2.8-7.1 2.7-1.1Zm1-12.3-2.8 1.1 3 7.9-2.7 1c-3-.2-7.2-1-12.7-2.2l-1.8-4.6 10.3-4.1-.8-2 2.6-1.1.8 2 2.8-1 1.3 3Zm-3.5 7.1-1.9-5-8 3.2a137.8 137.8 0 0 0 9.9 1.8Zm-10.3-9.7a5 5 0 0 1-4.3-.2 7 7 0 0 1-3.1-3.6c-.7-1.7-.8-3.2-.3-4.6s1.3-2.3 2.6-2.8l1.4-.3 1.6.1a14.3 14.3 0 0 1 3.4 1.2l5.2 2.3-2.8-7 2.6-1.1 4.6 11.4-2.2.9-8.1-3.7a12 12 0 0 0-2.6-.9c-.6 0-1.2 0-1.7.2a2 2 0 0 0-1.2 1.3c-.2.7-.2 1.3 0 2 .4.8.9 1.4 1.6 1.7.6.3 1.3.3 2 0h.1l1.2 3Zm3.3-24.6c.8 1.9 1 3.6.6 5a4.3 4.3 0 0 1-2.7 3.2 4 4 0 0 1-3 0 5 5 0 0 1-2.5-2.1c.1 1 0 2-.4 2.7-.5.8-1.1 1.4-2 1.8a4 4 0 0 1-3.6-.5c-1.2-.7-2.1-2-2.8-3.6a7.3 7.3 0 0 1-.5-4.6 3.8 3.8 0 0 1 5-2.9 5 5 0 0 1 2.1 1.7h.1a5 5 0 0 1 .3-3.2 4 4 0 0 1 2.3-2c1.3-.6 2.7-.5 4 .4a8 8 0 0 1 3.1 4Zm-2.2 3.3c.2-.7.2-1.5-.2-2.4-.3-.9-.8-1.5-1.5-1.8-.7-.4-1.4-.4-2.1-.1a2 2 0 0 0-1.4 1.5c-.3.7-.2 1.5.1 2.4a4 4 0 0 0 1.6 1.8c.6.4 1.3.4 2 .1.7-.3 1.2-.8 1.5-1.5Zm-7.4 2.5c.2-.6.2-1.3 0-2-.4-.7-.8-1.2-1.4-1.5-.6-.3-1.2-.3-1.8-.1-.7.3-1.1.7-1.3 1.3-.2.6-.2 1.3 0 2 .4.8.8 1.3 1.4 1.6a2 2 0 0 0 1.8 0c.7-.2 1-.6 1.3-1.3Z"/>
  </g>
  <g data-object="В-78__r__2318:4231">
    <rect width="128" height="89" x="5261.8" y="3601.4" fill="#8E96FF" rx="12" transform="rotate(-21.7 5261.8 3601.4)"/>
    <path fill="#fff" d="m5313.1 3640.6-3.6-4.4-7.3 3 .4 5.6-4.5 1.8-1-23.8 5-2 15.7 18-4.7 1.8Zm-12-14.8.7 9.7 5.5-2.2-6.1-7.5h-.1Zm25.3 1.8-9.6 3.8-1.4-3.7 9.5-3.7 1.5 3.6Zm16 1.4-1.6-3.7-10.4 4.1-1.5-3.7c.4-4 1.4-9.5 3-16.8l6.2-2.5 5.5 13.7 2.7-1 1.4 3.4-2.7 1.1 1.5 3.8-4.2 1.6Zm-9.5-4.6v.1l6.7-2.6-4.3-10.8a169.3 169.3 0 0 0-2.4 13.3Zm12.6-13.6c-.8-2-.7-4 .2-5.7a9 9 0 0 1 4.9-4.2 9 9 0 0 1 6-.4c1.9.6 3.1 1.8 3.8 3.5a6.3 6.3 0 0 1 .3 4 20.4 20.4 0 0 1-1.6 4.5l-3.1 7 9.4-3.7 1.4 3.5-15.2 6-1.2-3 4.9-10.7a16 16 0 0 0 1.2-3.4c0-.8 0-1.6-.3-2.3-.3-.8-.9-1.3-1.7-1.6-.9-.3-1.8-.3-2.7.1a4 4 0 0 0-2.2 2c-.4.9-.4 1.8 0 2.8l-4 1.7v-.1Zm18-7.2c-.8-2-.8-3.9.2-5.7a9 9 0 0 1 4.8-4.1c2.2-.9 4.2-1 6-.4 1.9.5 3.2 1.7 3.9 3.5a6.8 6.8 0 0 1 .2 4 17.7 17.7 0 0 1-1.6 4.5l-3.1 7 9.5-3.8 1.4 3.5-15.3 6-1.1-2.9 4.8-10.7a16 16 0 0 0 1.2-3.4c.1-.9 0-1.6-.2-2.3a3 3 0 0 0-1.8-1.7c-.8-.3-1.7-.2-2.7.2-1 .4-1.7 1-2.1 2-.4.8-.5 1.7 0 2.7l-4.1 1.7Z"/>
  </g>
  <g data-object="В-78__r__2318:4232">
    <rect width="146.7" height="89" x="5182" y="3441.3" fill="#8E96FF" rx="12" transform="rotate(-21.7 5182 3441.3)"/>
    <path fill="#fff" d="m5240.9 3474.9-2.7-3.4-5.5 2.2.3 4.3-3.4 1.4-.8-17.9 3.8-1.5 11.8 13.5-3.5 1.4Zm-9-11.1.5 7.2 4-1.6-4.5-5.7Zm19.2 1.2-7.2 2.9-1-2.8 7-2.8 1.2 2.7Zm12.2 1-1.1-2.8-7.8 3-1.1-2.7c.3-3 1-7.2 2.2-12.7l4.7-1.8 4 10.3 2.1-.8 1 2.6-2 .8 1.1 2.8-3 1.3Zm-7-3.5 5-2-3.3-8a122.4 122.4 0 0 0-1.8 10Zm9.7-10.3a5 5 0 0 1 .2-4.3 6.6 6.6 0 0 1 3.6-3.1c1.6-.7 3.1-.8 4.5-.4s2.3 1.4 2.9 2.7l.3 1.4c0 .5 0 1-.2 1.6a14.5 14.5 0 0 1-1.1 3.3l-2.4 5.3 7.1-2.8 1 2.6-11.3 4.6-1-2.2 3.7-8.1c.5-1.1.8-2 .9-2.6a3 3 0 0 0-.2-1.7 2 2 0 0 0-1.3-1.2c-.6-.2-1.3-.2-2 0-.8.4-1.3.9-1.6 1.5-.3.7-.3 1.4 0 2.1v.1l-3 1.2h-.1Zm28.3-.7a6 6 0 0 1-3.8 4 6 6 0 0 1-5.5-.3c-1.7-1-3.1-2.8-4.1-5.4-1-2.5-1.3-4.7-.7-6.6a6 6 0 0 1 3.8-4 6 6 0 0 1 5.5.2c1.7 1 3 2.8 4 5.3 1 2.6 1.3 4.8.8 6.8Zm-7.6.8c.9.8 1.8 1 2.8.6 1-.4 1.4-1.2 1.6-2.3.1-1.2-.2-2.7-.9-4.5-.7-1.8-1.5-3-2.4-3.8-1-.7-1.8-1-2.8-.6-1 .4-1.5 1.2-1.6 2.4-.1 1.2.1 2.6.8 4.4.7 1.8 1.5 3 2.5 3.8Zm16-4.5c.7-.3 1.2-.7 1.6-1.3a2 2 0 0 0 0-1.9l-.3-.8-2.4 1.1c-.5.3-1 .6-1.2 1-.2.4-.2.8 0 1.2.1.5.4.7.9.9.4 0 .9 0 1.4-.2Zm-.1 2.7c-1.1.5-2.2.5-3.2.2-1-.4-1.7-1.1-2.1-2.2-.4-1-.4-2 .2-3a7 7 0 0 1 3-2.3l2.8-1.3-.3-.8c-.2-.5-.6-.9-1-1a2.6 2.6 0 0 0-2.9 1c-.3.4-.4.9-.3 1.3l-2.9 1.2c-.4-1.2-.3-2.3.4-3.4.6-1 1.7-1.9 3.2-2.5a6 6 0 0 1 4-.3c1.2.3 2 1 2.5 2.3l3.2 8-3 1.2-.8-1.8a3 3 0 0 1-1 2c-.4.7-1 1.1-1.8 1.4Z"/>
  </g>
  <g data-object="В-78__r__2318:4233">
    <rect width="109.7" height="89.2" x="6331.1" y="3287.5" fill="#8E96FF" rx="12" transform="rotate(14.8 6331.1 3287.5)"/>
    <path fill="#fff" d="m6349.6 3347.3-.2-4.3-5.7-1.5-2.3 3.7-3.5-1 10-14.8 4 1 1.3 17.9-3.6-1Zm-.7-14.3-3.8 6.2 4.2 1-.3-7.2Zm14.8 12.5-7.5-2 .8-2.9 7.4 2-.7 2.9Zm9.3 8 .7-3-8.1-2 .7-3c2-2.2 5.2-5.1 9.4-8.8l4.8 1.3-2.8 10.7 2.1.5-.7 2.8-2.1-.6-.8 3-3.3-1Zm-3.7-7 5.2 1.4 2.2-8.3-4.3 3.8a59.9 59.9 0 0 0-3.1 3Zm15.2 10 3.5-13.2h-.1l-5 1.8.9-3.1 5-1.8 3.4.8-4.3 16.4-3.4-.9Zm8.2 2.2 10.6-11.7v-.1l-8.3-2.2.7-2.7 11.7 3-.7 2.8-10.4 11.8-3.6-1Z"/>
  </g>
  <g data-object="В-78__r__2318:4234">
    <rect width="129.7" height="89.2" x="6444.2" y="3317.3" fill="#8E96FF" rx="12" transform="rotate(14.8 6444.2 3317.3)"/>
    <path fill="#fff" d="m6465 3377.7-.2-4.3-5.8-1.5-2.3 3.6-3.5-1 10-14.8 4 1 1.4 18-3.6-1Zm-.7-14.3-3.9 6.1 4.3 1.1-.3-7.2h-.1Zm14.7 12.4-7.4-2 .7-2.8 7.5 2-.8 2.8Zm9.3 8 .8-2.9-8.1-2.1.7-3c2-2.1 5.1-5 9.4-8.7l4.8 1.2-2.8 10.7 2.1.6-.7 2.7-2.2-.5-.7 2.9-3.3-.9Zm-3.6-7v.1l5.2 1.4 2.2-8.4h-.1a131 131 0 0 0-7.3 7Zm15.1 10 3.5-13.2-5 1.8.8-3 5-1.9 3.4.9-4.3 16.4-3.4-1Zm13.9 4.1a6.2 6.2 0 0 1-4.6-4.5 10 10 0 0 1 0-5.7c.7-2.7 1.9-4.7 3.5-5.9a6.3 6.3 0 0 1 5.7-1c1.5.4 2.7 1.2 3.6 2.3a5.2 5.2 0 0 1 1.2 3.8l-3.4-.9c0-.6-.2-1-.6-1.5a3 3 0 0 0-1.6-1c-1.1-.3-2.2 0-3 .9a7 7 0 0 0-2.1 4c.6-.6 1.3-1.1 2.2-1.4 1-.3 1.9-.3 3 0a5.4 5.4 0 0 1 4 6.8 6.2 6.2 0 0 1-3 3.7c-1.4.7-3 .9-4.9.4Zm.7-2.7a3 3 0 0 0 2.3-.3 3 3 0 0 0 1.4-1.9 3 3 0 0 0-2.2-3.7 3 3 0 0 0-2.3.3c-.7.4-1.2 1-1.4 1.8a3 3 0 0 0 2.2 3.8Zm13.2 3.6c.7.2 1.4.2 2-.1a2 2 0 0 0 1.2-1.4l.3-1-2.6-.4c-.7-.2-1.2-.1-1.6 0-.4.2-.7.5-.8 1 0 .4 0 .8.3 1.2.2.3.6.6 1.2.7Zm-1.7 2.1c-1.2-.3-2-.9-2.6-1.8a3.5 3.5 0 0 1 1.5-5.2c.9-.4 2.1-.5 3.7-.2l3.1.7.2-.8c.2-.6 0-1-.2-1.5-.3-.4-.7-.7-1.4-.9-.6-.1-1-.1-1.6 0-.4.2-.7.5-1 1l-3-.8a4 4 0 0 1 2.3-2.5c1.2-.5 2.6-.5 4.1-.1a6 6 0 0 1 3.5 2.1c.7 1 1 2 .6 3.3l-2.2 8.4-3.2-.9.5-1.8c-.6.5-1.2.9-2 1-.7.2-1.5.2-2.3 0Z"/>
  </g>
  <g data-object="В-78__r__2318:4235">
    <rect width="124.7" height="89" x="6577.1" y="3352.3" fill="#8E96FF" rx="12" transform="rotate(14.8 6577 3352.3)"/>
    <path fill="#fff" d="m6595 3411.8-.2-4.3-5.8-1.5-2.3 3.6-3.5-.9 10-14.9 4 1.1 1.4 17.9-3.6-1Zm-.7-14.3-3.9 6.1 4.3 1.2-.3-7.3h-.1Zm14.7 12.4-7.4-2 .7-2.8 7.5 2-.8 2.8Zm9.3 8 .8-2.9-8.1-2.1.7-3c2-2.1 5.1-5 9.4-8.7l4.8 1.3-2.8 10.7 2.1.5-.7 2.8-2.2-.6-.7 3-3.3-1Zm-3.6-7v.1l5.2 1.4 2.2-8.4h-.1l-4.3 3.8a52.7 52.7 0 0 0-3 3.2Zm15.1 10 3.5-13.1-5 1.7.8-3 5-1.9 3.4 1-4.3 16.3-3.4-1Zm13.9 4.1a6.2 6.2 0 0 1-4.6-4.4 10 10 0 0 1 0-5.8c.7-2.7 1.9-4.6 3.5-5.9a6.3 6.3 0 0 1 5.6-1c1.6.4 2.8 1.2 3.7 2.4a5.2 5.2 0 0 1 1.2 3.8l-3.4-1c0-.5-.2-1-.6-1.5a3 3 0 0 0-1.6-1c-1.1-.3-2.2 0-3 .9-1 .9-1.7 2.2-2.1 4v.1a4.8 4.8 0 0 1 5.2-1.5 5.4 5.4 0 0 1 3.9 6.8c-.5 1.7-1.4 3-2.9 3.7a6 6 0 0 1-5 .4Zm.7-2.7a3 3 0 0 0 2.3-.3 3 3 0 0 0 1.4-1.9 3 3 0 0 0-.3-2.3 3 3 0 0 0-1.9-1.4c-.8-.2-1.6-.1-2.3.3s-1.2 1-1.4 1.8a3 3 0 0 0 .3 2.4 3 3 0 0 0 1.9 1.4Zm13.8 6.4a6 6 0 0 1-4.1-3c-.8-1.5-.8-3.5-.2-5.8a17 17 0 0 1 2.2-5.3c1-1.3 2-2.1 3-2.5 1.2-.4 2.6-.4 4 0l1.5.3a13.5 13.5 0 0 0 3.3.3l-.6 2.6h-1.1l-2-.3-1.4-.3c-1.5-.3-2.7-.2-3.5.3a7 7 0 0 0-2.2 3.1c1.3-1.3 2.8-1.7 4.8-1.2 1.6.5 2.8 1.3 3.5 2.6s.9 2.9.4 4.6c-.5 2-1.5 3.3-2.8 4.1a6 6 0 0 1-4.8.5Zm.6-2.6c.8.2 1.6 0 2.2-.4.6-.5 1-1.3 1.4-2.4.3-1 .2-2 0-2.6a3 3 0 0 0-1.8-1.5c-.9-.2-1.6 0-2.2.4a4 4 0 0 0-1.4 2.3c-.3 1.1-.3 2 0 2.8.3.7 1 1.2 1.8 1.4Z"/>
  </g>
  <g data-object="В-78__r__2318:4236">
    <rect width="149.4" height="87.7" x="5037" y="3501.3" fill="#8E96FF" rx="12" transform="rotate(-21.7 5037 3501.3)"/>
    <path fill="#fff" d="m5103.2 3531.2-2.7-3.3-5.5 2.2.3 4.3-3.4 1.3-.8-17.8 4-1.6 11.6 13.5-3.5 1.4Zm-9-11 .5 7.2 4.1-1.7-4.6-5.6Zm19.2 1.2-7.1 2.8-1.1-2.7 7.1-2.9 1.1 2.8Zm12.3.9-1.2-2.8-7.8 3.1-1-2.8c.2-3 1-7.1 2.2-12.6l4.6-1.9 4.1 10.3 2-.8 1.1 2.6-2 .9 1 2.8-3 1.2Zm-7.1-3.5v.1l5-2-3.2-8a137.8 137.8 0 0 0-1.8 10Zm9.7-10.3a5 5 0 0 1 .2-4.3c.7-1.4 2-2.4 3.6-3 1.7-.7 3.2-.8 4.6-.4 1.3.4 2.3 1.3 2.8 2.6l.3 1.5-.1 1.6a14.3 14.3 0 0 1-1.2 3.3l-2.3 5.2 7-2.7 1.1 2.6-11.4 4.5-.9-2.2 3.7-8c.5-1.2.7-2 .8-2.6.1-.6 0-1.2-.1-1.8a2 2 0 0 0-1.3-1.2c-.7-.2-1.3-.2-2 .1-.8.3-1.4.8-1.7 1.5-.3.7-.3 1.4 0 2v.1l-3 1.3v-.1Zm28.3-.7a6 6 0 0 1-3.7 4 6 6 0 0 1-5.6-.3c-1.7-1-3-2.8-4-5.3a11 11 0 0 1-.8-6.7 6 6 0 0 1 3.8-4 6 6 0 0 1 5.5.3c1.8 1 3.1 2.8 4.1 5.3 1 2.5 1.3 4.8.7 6.7Zm-7.6.8c1 .8 1.9 1 2.8.6 1-.3 1.5-1.1 1.6-2.3a9 9 0 0 0-.8-4.5c-.7-1.7-1.5-3-2.4-3.7-1-.8-1.9-1-2.8-.6-1 .4-1.5 1.1-1.7 2.3-.1 1.2.2 2.7.9 4.4.7 1.8 1.5 3 2.4 3.8Z"/>
  </g>
  <g data-object="В-78__r__2318:4237">
    <rect width="144.2" height="89.3" x="5467" y="3327.3" fill="#8E96FF" rx="12" transform="rotate(-21.7 5467 3327.3)"/>
    <path fill="#fff" d="m5530.9 3359.1-2.8-3.3-5.5 2.2.3 4.3-3.3 1.3-.8-17.9 3.8-1.5 11.7 13.6-3.4 1.3Zm-9.1-11 .5 7.2 4.1-1.7-4.5-5.6h-.1Zm19.2 1.2-7.1 2.8-1.1-2.7 7.1-2.9 1.1 2.8Zm12.3 1-1.1-2.9-7.9 3.1-1-2.8c.2-3 1-7.1 2.2-12.6l4.6-1.9 4.1 10.3 2-.8 1.1 2.7-2 .8 1.1 2.8-3.1 1.2Zm-7.1-3.6v.1l5-2-3.2-8c-.6 2.3-1 4.1-1.2 5.6a62.5 62.5 0 0 0-.6 4.4Zm15.4-7.8-1-2.3 2-.8c.7-.3 1.2-.7 1.6-1.3.3-.6.3-1.2 0-1.9a2 2 0 0 0-1.3-1.3 3 3 0 0 0-2 .2 3 3 0 0 0-1.7 1.4c-.3.6-.3 1.2 0 2l-3.1 1.1c-.5-1.4-.4-2.8.3-4.1a6.7 6.7 0 0 1 3.6-3c1.6-.6 3.1-.8 4.4-.4a4 4 0 0 1 2.7 2.4c.4 1 .4 2 .1 2.8-.3 1-1 1.6-1.8 2.2 1.2-.3 2.3-.3 3.3.1s1.6 1.1 2 2.2c.6 1.4.5 2.8-.3 4.1a7.8 7.8 0 0 1-4 3c-1.7.8-3.3.9-4.8.4a5 5 0 0 1-3.1-2.8l3.1-1.2c.3.6.8 1 1.5 1.2.7.2 1.5.2 2.3-.2.8-.3 1.4-.8 1.8-1.4.3-.6.4-1.3.1-2-.3-.7-.7-1.1-1.4-1.3-.7-.2-1.5-.2-2.3.2l-2 .7Zm19.1.8c-1.5.6-2.9.7-4.3.3a5.1 5.1 0 0 1-3.2-2.4l3.3-1.3c.3.5.8.8 1.4 1 .6 0 1.2 0 1.9-.3a3 3 0 0 0 2-2.5c.1-1.2-.1-2.7-.9-4.5a4 4 0 0 1-.9 2.5c-.5.8-1.3 1.4-2.3 1.8a5.5 5.5 0 0 1-7.3-3.1c-.6-1.6-.6-3.2.1-4.7a7 7 0 0 1 3.8-3.3c1.1-.4 2.2-.6 3.3-.4a6 6 0 0 1 3 1.2 10 10 0 0 1 3.4 4.7c1 2.6 1.3 4.9.7 6.8-.6 2-1.9 3.3-4 4.2Zm-5.5-8.2a3 3 0 0 0 2.4 0 3 3 0 0 0 1.7-1.6c.3-.8.3-1.6 0-2.4a3 3 0 0 0-1.6-1.6 3 3 0 0 0-2.4 0 3 3 0 0 0-1.7 1.6 3 3 0 0 0 0 2.3 3 3 0 0 0 1.6 1.7Z"/>
  </g>
  <g data-object="В-78__r__2318:4238">
    <rect width="144.6" height="88.4" x="5326" y="3384.5" fill="#8E96FF" rx="12" transform="rotate(-21.7 5326 3384.5)"/>
    <path fill="#fff" d="m5391.6 3415-2.7-3.2-5.5 2.2.3 4.2-3.4 1.4-.8-17.9 4-1.5 11.6 13.5-3.5 1.4Zm-9-11 .5 7.2 4.1-1.6-4.5-5.6h-.1Zm19.2 1.2-7.1 2.9-1.1-2.8 7.1-2.8 1.1 2.7Zm12.3 1-1.1-2.8-7.9 3-1-2.7c.2-3 1-7.2 2.2-12.6l4.6-1.9 4.1 10.3 2-.8 1.1 2.6-2 .8 1.1 2.8-3.1 1.3Zm-7.1-3.5 5-1.9-3.2-8a124.5 124.5 0 0 0-1.8 9.9Zm18.1-1-5-12.6-3 4.3-1.2-3 3-4.3 3.2-1.4 6.3 15.8-3.3 1.3Zm13-4.7c-1.6.6-3 .7-4.4.4a5.2 5.2 0 0 1-3.2-2.4l3.2-1.3c.4.5.9.8 1.5.9s1.2 0 1.8-.2a3 3 0 0 0 2-2.5 8 8 0 0 0-.8-4.5 4 4 0 0 1-.9 2.5c-.5.8-1.3 1.3-2.3 1.7a5.4 5.4 0 0 1-7.3-3.1c-.7-1.6-.6-3.1.1-4.6.7-1.5 2-2.6 3.7-3.3 1.2-.5 2.3-.6 3.4-.5a6 6 0 0 1 3 1.3 10 10 0 0 1 3.4 4.7c1 2.6 1.3 4.8.7 6.8a6 6 0 0 1-4 4.1Zm-5.6-8.1a3 3 0 0 0 2.3 0 3 3 0 0 0 1.8-1.7 3 3 0 0 0 0-2.3 3 3 0 0 0-1.6-1.7 3 3 0 0 0-2.4 0 3 3 0 0 0-1.7 1.6c-.3.8-.4 1.6 0 2.4a3 3 0 0 0 1.6 1.7Z"/>
  </g>
  <g data-object="В-78__r__2318:4239">
    <rect width="64" height="89" x="2957.8" y="4328" fill="#8E96FF" rx="12" transform="rotate(-21.7 2957.8 4328)"/>
    <path fill="#fff" d="m3020.8 4376.8-3.3 2.7 2.2 5.5 4.3-.3 1.3 3.4-17.9.8-1.5-3.9 13.5-11.7 1.4 3.5Zm-11 9 7.1-.5-1.6-4.1-5.6 4.6Zm1.2-19.2 2.8 7.2-2.8 1-2.8-7.1 2.8-1.1Zm.9-12.2-2.8 1 3.1 7.9-2.8 1.1c-3-.3-7.1-1-12.6-2.3l-1.9-4.6 10.3-4-.8-2.1 2.6-1 .9 2 2.8-1.2 1.2 3.2Zm-3.5 7h.1l-2-5-8 3.2a124.5 124.5 0 0 0 10 1.9Zm-10.3-9.7a5 5 0 0 1-4.3-.2 6 6 0 0 1-3-3.6 6.6 6.6 0 0 1-.4-4.5 4.3 4.3 0 0 1 2.6-2.9 5 5 0 0 1 3-.2 14.3 14.3 0 0 1 3.4 1.2l5.2 2.4-2.7-7.2 2.6-1 4.5 11.4-2.2.9-8-3.6-2.6-1c-.6 0-1.2 0-1.8.3a2 2 0 0 0-1.2 1.3c-.2.6-.2 1.3.1 2 .3.8.8 1.3 1.5 1.6.7.3 1.4.3 2 0h.1l1.3 3h-.1Zm3.3-24.7c.5 1.1.6 2.2.5 3.3a6.3 6.3 0 0 1-1.3 3 10 10 0 0 1-4.7 3.4c-2.6 1-4.8 1.3-6.8.7a6 6 0 0 1-4.1-4 6.4 6.4 0 0 1-.4-4.3 5.2 5.2 0 0 1 2.4-3.1l1.3 3.2c-.5.4-.8.8-.9 1.4a3 3 0 0 0 .2 1.8 3.1 3.1 0 0 0 2.5 2 8 8 0 0 0 4.5-.8c-1 0-1.8-.3-2.5-.9a5.1 5.1 0 0 1-1.8-2.3c-.6-1.5-.6-3 0-4.3a5.4 5.4 0 0 1 3.1-3c1.7-.6 3.2-.6 4.7.2 1.5.7 2.6 2 3.3 3.7Zm-2.6 1a3 3 0 0 0-1.6-1.6 3 3 0 0 0-2.4 0 3 3 0 0 0-1.7 3.9 3 3 0 0 0 1.7 1.7c.7.4 1.5.4 2.3 0a3 3 0 0 0 1.7-1.6 3 3 0 0 0 0-2.3Z"/>
  </g>
  <g data-object="В-78__r__2318:4240">
    <rect width="64" height="89" x="9153.1" y="4213.5" fill="#8E96FF" rx="12" transform="rotate(14.8 9153 4213.5)"/>
    <path fill="#fff" d="m9175.1 4288.8-4.3.2-1.5 5.8 3.7 2.3-1 3.5-14.8-10 1-4 17.9-1.4-1 3.6Zm-14.3.7 6.2 3.9 1-4.3-7.2.3v.1Zm12.5-14.7-2 7.4-2.9-.7 2-7.5 2.9.8Zm8-9.3-3-.8-2 8.2-3-.8c-2.2-2-5.1-5.1-8.8-9.4l1.3-4.8 10.7 2.8.6-2 2.7.6-.6 2.2 3 .7-1 3.3Zm-7 3.6 1.4-5.2-8.3-2.1a140.4 140.4 0 0 0 6.9 7.3Zm10-22.8a6 6 0 0 1 1 5.4 6 6 0 0 1-3.6 4.3c-1.8.7-4 .8-6.7 0a9.8 9.8 0 0 1-5.8-3.4 6 6 0 0 1-1-5.4 6 6 0 0 1 3.6-4.2c1.8-.8 4-.9 6.7-.2 2.6.7 4.5 1.9 5.8 3.5Zm-3.9 6.6c1.2-.3 1.9-1 2.2-2 .2-.9 0-1.8-1-2.6a9.5 9.5 0 0 0-4-2 9.2 9.2 0 0 0-4.5-.3c-1.2.3-1.9 1-2.1 2-.3.9 0 1.8.9 2.6.8.9 2.2 1.5 4 2a9 9 0 0 0 4.5.3Zm8-14.3-13.3-3.5v.1l1.8 5-3-.9-1.9-5 .9-3.4 16.4 4.3-1 3.4Z"/>
  </g>
  <g data-object="В-78__r__2318:4241">
    <rect width="64" height="89" x="9083.5" y="4195.2" fill="#8E96FF" rx="12" transform="rotate(14.8 9083.5 4195.2)"/>
    <path fill="#fff" d="m9105 4272.3-4.2.2-1.6 5.7 3.7 2.3-1 3.5-14.8-10 1-4 17.9-1.3-1 3.6Zm-14.3.7 6.2 3.8 1-4.3-7.2.4Zm12.5-14.8-2 7.5-2.9-.8 2-7.4 2.9.7Zm8-9.3-3-.7-2 8.1-3-.8c-2.2-2-5.1-5-8.8-9.3l1.3-4.8 10.7 2.8.6-2.1 2.7.7-.6 2.1 3 .8-1 3.2Zm-7 3.7 1.4-5.2-8.3-2.2a131 131 0 0 0 6.9 7.4Zm10-22.9a6 6 0 0 1 1 5.5 6 6 0 0 1-3.6 4.2c-1.8.8-4 .8-6.7.1-2.6-.7-4.6-1.8-5.8-3.4a6 6 0 0 1-1-5.4 6 6 0 0 1 3.6-4.3c1.8-.8 4-.8 6.7-.1 2.6.7 4.6 1.8 5.8 3.4Zm-3.9 6.7c1.2-.3 1.9-1 2.2-2 .2-1 0-1.8-1-2.7a9.5 9.5 0 0 0-4-2 9.2 9.2 0 0 0-4.5-.2c-1.2.3-1.9 1-2.1 1.9-.3 1 0 1.9.9 2.7.8.8 2.2 1.5 4 2 1.9.4 3.4.5 4.5.3Zm.8-16.2-2.5-.6.6-2c.2-.8.1-1.5-.2-2-.3-.7-.7-1-1.4-1.2-.7-.2-1.3-.1-1.8.2s-.9 1-1.1 1.8a3 3 0 0 0 .1 2.1c.3.6.8 1 1.5 1.3l-.8 3.1a5 5 0 0 1-3.2-2.7 6.7 6.7 0 0 1-.2-4.6c.5-1.7 1.2-3 2.3-3.8a4 4 0 0 1 3.6-.8c1 .3 1.7.8 2.2 1.6s.8 1.7.7 2.8a6 6 0 0 1 2-2.6c1-.5 2-.7 3-.4 1.5.4 2.6 1.3 3.1 2.8.6 1.4.7 3 .2 5a7.1 7.1 0 0 1-2.6 4 5 5 0 0 1-4.1.9l.8-3.3c.7.1 1.4 0 2-.4.5-.5.9-1.1 1.1-2 .2-.9.2-1.6 0-2.3-.4-.6-.9-1-1.6-1.2-.7-.2-1.4-.1-2 .3-.5.4-1 1-1.1 2l-.6 2Z"/>
  </g>
  <g data-object="В-78__r__2318:4242">
    <rect width="64" height="89" x="9013.8" y="4176.9" fill="#8E96FF" rx="12" transform="rotate(14.8 9013.8 4176.9)"/>
    <path fill="#fff" d="m9035.4 4253.9-4.2.2-1.6 5.7 3.7 2.3-1 3.5-14.8-10 1-4 17.9-1.4-1 3.7Zm-14.3.6 6.2 3.9 1-4.3-7.1.3v.1Zm12.5-14.7-2 7.4-2.9-.7 2-7.5 2.9.8Zm8-9.3-3-.8-2 8.2-3-.8a122 122 0 0 1-8.8-9.3l1.3-4.9 10.7 2.9.6-2.2 2.7.7-.6 2.2 3 .8-1 3.2Zm-7 3.7 1.5-5.2-8.4-2.2 3.8 4.3a53 53 0 0 0 3.1 3Zm10-23a6 6 0 0 1 1 5.5 6 6 0 0 1-3.6 4.3c-1.8.7-4 .8-6.7 0-2.6-.6-4.6-1.8-5.8-3.3a6 6 0 0 1-1-5.5 6 6 0 0 1 3.6-4.2c1.8-.8 4-.8 6.7-.1 2.6.7 4.6 1.8 5.8 3.4Zm-3.9 6.7c1.2-.3 2-1 2.2-1.9.2-1 0-1.9-1-2.7a9.5 9.5 0 0 0-4-2 9.3 9.3 0 0 0-4.5-.2c-1.2.2-1.9.9-2.1 1.8-.3 1 0 2 .9 2.7.8.9 2.2 1.5 4 2a9 9 0 0 0 4.5.3Zm8.9-16.4a7.1 7.1 0 0 1-2.5 4 4.9 4.9 0 0 1-4.2.9l.9-3.2c.7 0 1.4-.1 2-.5a4 4 0 0 0 1.1-1.9 3 3 0 0 0-.3-2.4 3 3 0 0 0-2-1.4c-.8-.3-1.6-.2-2.4.2a3 3 0 0 0-1.4 2c-.2.6-.2 1.2 0 1.8.1.5.4 1 .8 1.4l-.8 3-9.2-3.2 2.7-10.4 2.7.7-2 7.7 4.4 1.6a5 5 0 0 1-1-1.9 5 5 0 0 1 .1-2.3 5.3 5.3 0 0 1 2.6-3.4 5 5 0 0 1 4.3-.5c1.8.5 3 1.4 3.8 2.9.8 1.4.9 3 .4 5Z"/>
  </g>
  <g data-object="В-78__r__2318:4243">
    <rect width="64" height="89" x="8944.2" y="4158.5" fill="#8E96FF" rx="12" transform="rotate(14.8 8944.2 4158.5)"/>
    <path fill="#fff" d="m8966 4234.8-4.3.2-1.5 5.7 3.6 2.3-.9 3.5-14.8-10 1-4 17.9-1.4-1 3.6Zm-14.3.6 6.1 3.9 1.2-4.3-7.3.3v.1Zm12.4-14.7-2 7.4-2.8-.7 2-7.5 2.9.8Zm8-9.3-2.9-.8-2 8.2-3-.8a124 124 0 0 1-8.8-9.3l1.3-4.8 10.7 2.8.5-2.2 2.8.8-.6 2 3 .9-1 3.2Zm-7 3.7h.2l1.3-5.2-8.3-2.2a127.8 127.8 0 0 0 6.9 7.4Zm10-23a6 6 0 0 1 1 5.5 6 6 0 0 1-3.5 4.3c-1.8.8-4 .8-6.7 0a9.4 9.4 0 0 1-5.8-3.3 6 6 0 0 1-1-5.5 6 6 0 0 1 3.5-4.2c1.9-.8 4.1-.8 6.7-.1 2.7.7 4.6 1.8 5.9 3.4Zm-3.8 6.7c1.2-.3 1.9-1 2.1-1.9.3-1 0-1.9-.9-2.7a9.5 9.5 0 0 0-4-2 9.1 9.1 0 0 0-4.6-.2c-1.1.2-1.8.9-2 1.9-.3 1 0 1.8.8 2.7 1 .8 2.3 1.4 4 2 2 .4 3.4.5 4.6.2Zm7-10.7-11.7-10.6-2.3 8.3-2.7-.7 3-11.7 2.8.7 11.9 10.4-1 3.6Z"/>
  </g>
  <g data-object="В-78__r__2318:4244">
    <rect width="64" height="89" x="8874.6" y="4140.2" fill="#8E96FF" rx="12" transform="rotate(14.8 8874.6 4140.2)"/>
    <path fill="#fff" d="m8896.1 4217.5-4.3.2-1.5 5.7 3.6 2.3-.9 3.5-14.8-10 1-4 17.9-1.4-1 3.7Zm-14.3.7 6.1 3.8 1.2-4.3-7.3.4Zm12.5-14.8-2 7.5-2.9-.8 2-7.4 2.9.7Zm8-9.3-3-.7-2.1 8.1-3-.8a120 120 0 0 1-8.7-9.3l1.3-4.8 10.7 2.8.5-2.1 2.8.7-.6 2.1 3 .8-1 3.2Zm-7 3.7 1.4-5.2-8.3-2.2a131 131 0 0 0 6.9 7.4Zm10-22.9a6 6 0 0 1 1 5.5 6 6 0 0 1-3.6 4.2c-1.8.8-4 .8-6.7.1a10 10 0 0 1-5.8-3.4 6 6 0 0 1-1-5.5 6 6 0 0 1 3.5-4.2c1.9-.8 4.1-.8 6.7-.1 2.7.7 4.6 1.8 5.9 3.4Zm-4 6.6c1.3-.3 2-.9 2.2-1.9.3-1 0-1.9-.9-2.7a9.6 9.6 0 0 0-4-2 9.3 9.3 0 0 0-4.6-.2c-1.1.3-1.8.9-2 1.9-.3 1 0 1.9.8 2.7a10 10 0 0 0 4 2c2 .4 3.4.5 4.6.2Zm9-16.2a6.8 6.8 0 0 1-2.4 3.7 5.2 5.2 0 0 1-3.8 1.2l.9-3.4a2.5 2.5 0 0 0 1.6-.6c.4-.4.8-1 1-1.6a3 3 0 0 0-1-3 7 7 0 0 0-4-2.1 4 4 0 0 1 1.5 2.2c.3.9.3 1.9 0 3a5.4 5.4 0 0 1-6.8 4 5.5 5.5 0 0 1-3.7-3c-.8-1.4-1-3-.5-4.9.4-1.2.9-2.2 1.6-3a6 6 0 0 1 2.9-1.7 10 10 0 0 1 5.7.1c2.8.7 4.7 1.9 6 3.5a6.2 6.2 0 0 1 1 5.7Zm-10-.3a3 3 0 0 0 1.4-2 3 3 0 0 0-2-3.7 3 3 0 0 0-2.4.3 3 3 0 0 0-1.4 1.9 3 3 0 0 0 .3 2.3 3 3 0 0 0 1.8 1.5 3 3 0 0 0 2.3-.3Z"/>
  </g>
  <g data-object="В-78__r__2318:4245">
    <rect width="64" height="89" x="8805" y="4121.9" fill="#8E96FF" rx="12" transform="rotate(14.8 8805 4121.9)"/>
    <path fill="#fff" d="m8827.5 4195.2-4.3.2-1.5 5.8 3.7 2.3-1 3.5-14.8-10 1-4 17.9-1.4-1 3.6Zm-14.3.7 6.1 3.9 1.2-4.3-7.3.3v.1Zm12.4-14.7-2 7.4-2.8-.8 2-7.4 2.9.8Zm8-9.3-2.8-.8-2.2 8.1-3-.7a124 124 0 0 1-8.7-9.4l1.3-4.8 10.7 2.8.5-2 2.8.6-.6 2.2 3 .7-1 3.3Zm-7 3.6h.2l1.3-5.1-8.3-2.3v.1a129 129 0 0 0 3.8 4.3 53 53 0 0 0 3 3Zm10.1-15.1-13.2-3.5 1.7 5-3-.8-1.9-5 1-3.4 16.3 4.3-.9 3.4Zm3-11.5-13.2-3.5v.1l1.8 5-3.1-.9-1.8-5 .9-3.4 16.3 4.3-.9 3.4Z"/>
  </g>
  <g data-object="В-78__r__2318:4246">
    <rect width="64" height="89" x="8780.4" y="3932.4" fill="#8E96FF" rx="12" transform="rotate(14.8 8780.4 3932.4)"/>
    <path fill="#fff" d="m8802.6 4007.2-4.3.2-1.5 5.7 3.6 2.3-1 3.5-14.8-10 1-4 18-1.4-1 3.7Zm-14.3.6 6.1 3.9 1.1-4.3-7.2.3v.1Zm12.4-14.7-2 7.4-2.8-.7 2-7.5 2.8.8Zm8-9.3-2.9-.8-2.1 8.2-3-.8a122 122 0 0 1-8.7-9.3l1.2-4.8 10.7 2.8.6-2.2 2.7.8-.5 2 2.9.9-.9 3.2Zm-7 3.7h.1l1.4-5.2-8.4-2.2 3.8 4.3a53 53 0 0 0 3.1 3Zm10-15.2-13.2-3.5 1.8 5-3-.8-1.9-5 .9-3.4 16.4 4.3-1 3.4Zm-9.5-10.2a5 5 0 0 1-3.3-2.7c-.7-1.3-.8-3-.4-4.7.5-1.7 1.3-3 2.5-3.8a4.3 4.3 0 0 1 3.8-.8 4.8 4.8 0 0 1 2.5 1.7 15 15 0 0 1 2 2.9l2.8 5 2-7.4 2.7.7-3.1 12-2.3-.7-4.3-7.7a9 9 0 0 0-1.6-2.2 3.1 3.1 0 0 0-1.5-1 2 2 0 0 0-1.7.4c-.6.4-1 1-1.1 1.7-.3.8-.2 1.5.2 2.2.3.6.9 1 1.6 1.3h.1l-.8 3.1Z"/>
  </g>
  <g data-object="В-78__r__2318:4247">
    <rect width="64" height="89" x="8989.3" y="3987.4" fill="#8E96FF" rx="12" transform="rotate(14.8 8989.3 3987.4)"/>
    <path fill="#fff" d="m9010.8 4064.7-4.3.2-1.5 5.8 3.6 2.3-1 3.5-14.8-10 1-4 18-1.4-1 3.6Zm-14.3.7 6.1 3.9 1.1-4.3-7.2.3v.1Zm12.4-14.7-2 7.4-2.8-.8 2-7.4 2.8.8Zm8-9.3-2.9-.8-2.1 8.1-3-.7c-2.1-2-5-5.1-8.7-9.4l1.2-4.8 10.7 2.8.6-2.1 2.7.7-.5 2.1 2.9.8-.9 3.3Zm-7 3.6h.1l1.4-5.2-8.4-2.2v.1a140.4 140.4 0 0 0 7 7.3Zm10-22.9a6 6 0 0 1 1 5.5 6 6 0 0 1-3.5 4.2c-1.9.8-4.1.8-6.8.1a10 10 0 0 1-5.7-3.3 6 6 0 0 1-1-5.5 6 6 0 0 1 3.5-4.2c1.8-.8 4-.9 6.7-.2 2.6.7 4.6 1.9 5.8 3.5Zm-3.8 6.7c1.1-.3 1.8-1 2.1-2 .3-1 0-1.8-1-2.6a9.6 9.6 0 0 0-4-2 9.2 9.2 0 0 0-4.5-.3c-1.1.3-1.9 1-2.1 2-.3.9 0 1.8 1 2.6.8.8 2.1 1.5 4 2a9 9 0 0 0 4.5.3Zm8.9-16.6a8 8 0 0 1-2.6 4.4 4.3 4.3 0 0 1-4 1 4 4 0 0 1-2.4-1.8 5 5 0 0 1-.7-3.2c-.5.9-1.2 1.5-2 2-.9.3-1.7.4-2.6.2a3.8 3.8 0 0 1-2.7-2.5 7.3 7.3 0 0 1 0-4.6 6.9 6.9 0 0 1 2.3-4 3.8 3.8 0 0 1 3.5-.8c1 .2 1.6.7 2.1 1.4.6.8.8 1.7.8 2.7a4.9 4.9 0 0 1 2.2-2.4c1-.5 2-.6 3-.3 1.5.4 2.5 1.3 3 2.7.6 1.5.6 3.2.1 5.2Zm-3.8 1.3c.6-.4 1-1 1.3-2 .2-.9.2-1.7-.1-2.4-.4-.7-.9-1.1-1.6-1.3-.8-.2-1.5 0-2 .4-.7.4-1.2 1-1.4 2-.2.9-.2 1.7.2 2.4s.8 1.1 1.6 1.3c.7.2 1.4 0 2-.4Zm-7.4-2.3c.5-.4 1-1 1.1-1.7.2-.7.2-1.4-.1-2-.3-.6-.8-1-1.5-1.2-.6-.1-1.2 0-1.8.3-.5.4-1 1-1.1 1.7-.2.8-.1 1.5.1 2 .3.6.8 1 1.5 1.2.6.2 1.2 0 1.8-.3Z"/>
  </g>
  <g data-object="В-78__r__2318:4248">
    <rect width="64" height="89" x="9058.9" y="4005.7" fill="#8E96FF" rx="12" transform="rotate(14.8 9058.9 4005.7)"/>
    <path fill="#fff" d="m9080.4 4083-4.3.1-1.5 5.8 3.7 2.3-1 3.5-14.8-10 1-4 17.9-1.4-1 3.6Zm-14.3.6 6.2 3.9 1-4.3-7.2.3v.1Zm12.5-14.7-2 7.4-2.9-.7 2-7.5 2.9.8Zm8-9.3-3-.8-2 8.2-3-.8c-2.2-2-5.1-5.1-8.8-9.3l1.3-4.9 10.7 2.9.5-2.2 2.8.7-.6 2.2 3 .7-1 3.3Zm-7 3.6 1.5-5.1-8.4-2.2a153.6 153.6 0 0 0 6.9 7.4Zm10-22.8a6 6 0 0 1 1 5.4 6 6 0 0 1-3.6 4.3c-1.8.7-4 .8-6.7 0a9.7 9.7 0 0 1-5.8-3.3 6 6 0 0 1-1-5.5 6 6 0 0 1 3.6-4.2c1.8-.8 4-.8 6.7-.1 2.6.7 4.5 1.8 5.8 3.4Zm-3.9 6.6c1.2-.3 1.9-1 2.2-1.9.2-1 0-1.9-1-2.7a9.4 9.4 0 0 0-4-2 9 9 0 0 0-4.5-.2c-1.2.2-1.9.9-2.1 1.8-.3 1 0 2 .9 2.7.8.9 2.2 1.5 4 2a9 9 0 0 0 4.5.3Zm9-16.8a6.2 6.2 0 0 1-4.5 4.6 10 10 0 0 1-5.7 0c-2.7-.7-4.6-1.9-5.9-3.5a6.3 6.3 0 0 1-1-5.6 6.7 6.7 0 0 1 2.3-3.7 5.2 5.2 0 0 1 3.8-1.2l-.8 3.4c-.6 0-1.2.2-1.6.6a3 3 0 0 0-1 1.6c-.3 1.1 0 2.2.9 3.1.9 1 2.2 1.6 4 2a4.2 4.2 0 0 1-1.4-2.2c-.3-.9-.3-1.9 0-2.9a5.4 5.4 0 0 1 6.8-4c1.7.5 3 1.4 3.7 2.9.8 1.4.9 3.1.4 5Zm-2.7-.7a3 3 0 0 0-.3-2.3 3 3 0 0 0-1.9-1.4 3 3 0 0 0-2.3.3 3 3 0 0 0-1.4 1.9 3 3 0 0 0 .3 2.3c.4.8 1 1.2 1.8 1.4a3 3 0 0 0 3.8-2.2Z"/>
  </g>
  <g data-object="В-78__r__2318:4249">
    <rect width="136" height="89" x="9128.5" y="4024" fill="#8E96FF" rx="12" transform="rotate(14.8 9128.5 4024)"/>
    <path fill="#fff" d="m9149 4086.8-.3-5.7-7.7-2-3 4.8-4.7-1.2 13.3-19.8 5.4 1.4 1.8 23.8-4.8-1.3Zm-1-19.1-5 8.2 5.6 1.5-.4-9.7h-.1Zm19.3 16.5-10-2.6 1.1-3.9 10 2.7-1 3.8Zm12 10.6 1-3.9-10.8-2.9 1-3.8c2.7-3 6.8-6.9 12.5-11.8l6.4 1.7-3.8 14.3 2.9.7-1 3.7-2.8-.8-1 4-4.4-1.2Zm-4.8-9.3 6.9 1.9 2.9-11.2-5.8 5.1a69.2 69.2 0 0 0-4 4.2Zm30 13.2a8 8 0 0 1-7.2 1.3 8 8 0 0 1-5.6-4.7c-1-2.5-1.1-5.5-.2-9 1-3.5 2.4-6 4.5-7.7a8 8 0 0 1 7.3-1.4 8 8 0 0 1 5.7 4.8c1 2.4 1 5.4.1 9a14 14 0 0 1-4.5 7.7Zm-8.8-5.2c.4 1.6 1.3 2.5 2.6 2.9 1.3.3 2.5 0 3.6-1.2 1-1.2 2-3 2.6-5.5.6-2.4.8-4.4.4-6-.4-1.5-1.2-2.4-2.5-2.8-1.3-.3-2.5 0-3.6 1.2s-2 3-2.7 5.4c-.6 2.5-.8 4.5-.4 6Zm23.7 11.9 1-4-10.8-2.8 1-3.9a183 183 0 0 1 12.5-11.7l6.4 1.7-3.7 14.3 2.8.7-1 3.7-2.8-.8-1 3.9-4.3-1.1Zm-4.8-9.4v.1l6.9 1.9 3-11.2h-.2a172.8 172.8 0 0 0-9.7 9.2Z"/>
  </g>
  <g data-object="В-78__r__2318:4250">
    <rect width="136" height="89" x="8850" y="3950.7" fill="#8E96FF" rx="12" transform="rotate(14.8 8850 3950.7)"/>
    <path fill="#fff" d="m8873 4014.2-.2-5.8-7.6-2-3.1 4.9-4.7-1.3 13.3-19.8 5.4 1.4 1.8 23.8-4.8-1.2Zm-.8-19.1-5.2 8.2 5.7 1.5-.4-9.7h-.1Zm19.2 16.5-9.9-2.6 1-3.9 10 2.6-1 3.9Zm12 10.6 1-4-10.8-2.8 1-3.9a183 183 0 0 1 12.5-11.7l6.4 1.7-3.7 14.3 2.8.7-1 3.7-2.8-.8-1 3.9-4.4-1.1Zm-4.8-9.4v.2l6.9 1.8 3-11.2h-.2l-5.6 5a75.8 75.8 0 0 0-4.1 4.2Zm19.8 13.3 4.7-17.6h-.1l-6.6 2.3 1-4 6.7-2.5 4.6 1.2-5.8 21.8-4.5-1.2Zm25.1 3.8a8 8 0 0 1-7.3 1.4 8 8 0 0 1-5.6-4.7c-1-2.5-1.1-5.5-.2-9 1-3.5 2.5-6.1 4.6-7.7a8 8 0 0 1 7.2-1.4 8 8 0 0 1 5.7 4.8c1 2.4 1 5.4.2 8.9a14 14 0 0 1-4.6 7.7Zm-8.8-5.1a3.5 3.5 0 0 0 2.5 2.9c1.3.3 2.5-.1 3.6-1.3 1.1-1.1 2-3 2.6-5.4.7-2.5.8-4.5.4-6s-1.2-2.5-2.5-2.8c-1.3-.4-2.5 0-3.6 1.2s-2 3-2.6 5.4c-.7 2.4-.8 4.5-.4 6Z"/>
  </g>
  <g data-object="В-78__r__2318:4251">
    <rect width="64" height="89" x="9267.8" y="4060.7" fill="#8E96FF" rx="12" transform="rotate(14.8 9267.8 4060.7)"/>
    <path fill="#fff" d="m9289.5 4137.4-4.3.2-1.6 5.8 3.7 2.3-1 3.5-14.8-10 1-4 18-1.4-1 3.6Zm-14.4.7 6.2 3.9 1.1-4.3-7.2.3v.1Zm12.5-14.7-2 7.4-2.9-.7 2-7.5 2.9.8Zm8-9.3-3-.8-2 8.1-3-.7c-2.1-2-5-5.1-8.8-9.4l1.3-4.8 10.7 2.8.6-2.1 2.7.7-.5 2.2 2.9.7-.9 3.3Zm-7 3.6h.1l1.4-5.2-8.4-2.2v.1a153.6 153.6 0 0 0 7 7.3Zm10-22.8a6 6 0 0 1 1 5.4 6 6 0 0 1-3.5 4.2c-1.9.8-4.1.8-6.8.1-2.6-.6-4.5-1.8-5.8-3.4a6 6 0 0 1-1-5.4 6 6 0 0 1 3.6-4.3c1.8-.7 4-.8 6.7 0 2.6.6 4.6 1.8 5.8 3.4Zm-3.9 6.6c1.2-.3 2-1 2.2-2 .2-1 0-1.8-1-2.6a9.5 9.5 0 0 0-4-2 9 9 0 0 0-4.5-.3c-1.2.3-1.9 1-2.1 2-.3.9 0 1.8.9 2.6.8.8 2.2 1.5 4 2a9 9 0 0 0 4.5.3Zm-4.6-13a5 5 0 0 1-3.3-2.7c-.7-1.4-.8-3-.4-4.7.5-1.8 1.3-3 2.5-3.9a4.3 4.3 0 0 1 3.8-.7 4.7 4.7 0 0 1 2.5 1.7 14.7 14.7 0 0 1 2 2.9l2.8 5 2-7.4 2.7.7-3.1 11.9-2.3-.6-4.3-7.7a12 12 0 0 0-1.6-2.3c-.4-.4-.9-.7-1.5-.8a2 2 0 0 0-1.7.3c-.6.4-1 1-1.1 1.7-.3.8-.2 1.5.2 2.1.3.7.9 1.1 1.7 1.3l-.8 3.2Z"/>
  </g>
  <g data-object="В-78__r__2318:4252">
    <rect width="128" height="136" x="8476.5" y="3986.8" fill="#8E96FF" rx="12" transform="rotate(14.8 8476.5 3986.8)"/>
    <path fill="#fff" d="m8526.5 4091.3-5.7.3-2 7.7 4.9 3-1.3 4.7-19.8-13.3 1.4-5.4 23.8-1.8-1.2 4.8Zm-19 1 8.1 5 1.5-5.6-9.6.4v.1Zm16.5-19.3-2.7 10-3.8-1.1 2.6-10 3.9 1Zm10.4-9.5a9 9 0 0 1-3.1 5 7 7 0 0 1-5 1.5l1.1-4.5c.8 0 1.5-.3 2.1-.9.6-.5 1-1.2 1.3-2.1a4 4 0 0 0-1.1-4 11 11 0 0 0-5.5-2.8v.1c1 .7 1.6 1.6 2 2.8a7 7 0 0 1 0 4 7.2 7.2 0 0 1-9.1 5.3 7.4 7.4 0 0 1-4.9-3.8c-1-2-1.2-4.2-.6-6.6a9 9 0 0 1 2.2-4c1-1.1 2.2-1.8 3.7-2.3 2.2-.7 4.8-.7 7.7.1a14 14 0 0 1 7.9 4.7c1.6 2.1 2 4.6 1.3 7.5Zm-13.2-.5a4 4 0 0 0 1.9-2.6 4 4 0 0 0-.4-3c-.5-1-1.3-1.7-2.4-2a4 4 0 0 0-3.1.4 4 4 0 0 0-2 2.5 4 4 0 0 0 .5 3.2c.5 1 1.3 1.6 2.4 1.9a4 4 0 0 0 3.1-.4Zm14.6-18.7c.2-1 .2-1.8-.2-2.7a3 3 0 0 0-1.9-1.6l-1.2-.3-.7 3.5c-.1.8 0 1.5.1 2 .3.6.7 1 1.3 1.1.6.2 1.1 0 1.6-.3.4-.4.8-1 1-1.7Zm2.8 2.3a5.9 5.9 0 0 1-2.4 3.5 5 5 0 0 1-4 .7 4.2 4.2 0 0 1-3-2.6 9 9 0 0 1-.2-5l.8-4.2-1-.3c-.8-.2-1.4 0-2 .3-.5.4-.9 1-1.1 1.8-.2.8-.2 1.5 0 2.2.2.6.6 1 1.2 1.3l-1 4a5 5 0 0 1-3.3-3 8.5 8.5 0 0 1-.2-5.5 8 8 0 0 1 2.8-4.6 5 5 0 0 1 4.4-.9l11.2 3-1.1 4.2-2.5-.6a5 5 0 0 1 1.4 2.6c.3 1 .3 2 0 3.1Z"/>
  </g>
  <g data-object="В-78__r__2318:4253">
    <rect width="128" height="89" x="2629.4" y="4649.3" fill="#8E96FF" rx="12" transform="rotate(-21.7 2629.4 4649.3)"/>
    <path fill="#fff" d="m2680.1 4688.8-3.6-4.4-7.4 3 .5 5.6-4.5 1.8-1.1-23.8 5.1-2 15.7 18-4.7 1.8Zm-12-14.8.7 9.7 5.4-2.2-6-7.5h-.2Zm25.2 1.9-9.5 3.8-1.5-3.7 9.6-3.8 1.5 3.7Zm16 1.3-1.5-3.7-10.4 4.1-1.5-3.7c.4-4 1.4-9.5 3-16.8l6.2-2.5 5.5 13.7 2.7-1 1.4 3.5-2.7 1 1.5 3.8-4.2 1.6Zm-9.5-4.6v.1l6.7-2.6-4.2-10.7h-.1a169.3 169.3 0 0 0-2.4 13.2Zm12.7-13.6c-.8-2-.7-4 .2-5.7 1-1.9 2.5-3.3 4.8-4.2 2.2-.9 4.2-1 6-.4 2 .6 3.2 1.8 3.9 3.5.2.7.4 1.3.4 2a7 7 0 0 1-.2 2 18.1 18.1 0 0 1-1.5 4.5l-3.2 7 9.5-3.7 1.4 3.5-15.2 6-1.2-3 4.9-10.7a16 16 0 0 0 1.1-3.4c.2-.8 0-1.6-.2-2.3-.3-.8-.9-1.4-1.7-1.6-.9-.3-1.8-.3-2.7.1-1 .4-1.8 1-2.2 2-.4.9-.4 1.8 0 2.8l-4 1.7-.1-.1Zm31.9 4.8c-2 .8-4 1-5.8.4a7 7 0 0 1-4.3-3.1l4.4-1.8c.4.7 1.1 1 1.9 1.2.8.2 1.6.1 2.5-.2a4 4 0 0 0 2.6-3.4 11 11 0 0 0-1.1-6c0 1.3-.4 2.4-1.2 3.4a7 7 0 0 1-3.1 2.3 7.3 7.3 0 0 1-9.7-4.1c-.9-2.2-.8-4.2.2-6.2s2.6-3.5 5-4.4a9 9 0 0 1 4.4-.7 8 8 0 0 1 4 1.7c2 1.4 3.4 3.4 4.5 6.3a14 14 0 0 1 1 9 8.3 8.3 0 0 1-5.3 5.6Zm-7.4-11c1 .5 2 .5 3.1 0a4 4 0 0 0 2.3-2c.5-1 .5-2.1 0-3.2a4 4 0 0 0-2-2.2 4 4 0 0 0-3.2 0 4 4 0 0 0-2.3 2.1c-.5 1-.5 2 0 3.1a4 4 0 0 0 2 2.3Z"/>
  </g>
  <g data-object="В-78__r__2318:4254">
    <rect width="128" height="89" x="2755.7" y="4599" fill="#8E96FF" rx="12" transform="rotate(-21.7 2755.7 4599)"/>
    <path fill="#fff" d="m2807.6 4638-3.7-4.3-7.3 2.9.4 5.7-4.5 1.8-1-23.9 5-2 15.7 18-4.6 1.9Zm-12.1-14.7.7 9.6 5.5-2.2-6.1-7.5h-.1Zm25.3 1.8-9.6 3.8-1.4-3.7 9.5-3.8 1.5 3.7Zm16 1.4-1.6-3.7-10.4 4.1-1.5-3.7c.4-4 1.4-9.6 3-16.9l6.2-2.4 5.5 13.7 2.7-1.1 1.4 3.5-2.7 1 1.5 3.8-4.2 1.7Zm-9.5-4.6 6.7-2.6-4.3-10.7a169.3 169.3 0 0 0-2.4 13.3Zm12.6-13.7c-.8-2-.7-3.9.2-5.7 1-1.8 2.6-3.2 4.9-4.1 2.2-.9 4.2-1 6-.4 1.9.5 3.1 1.7 3.8 3.5a6.3 6.3 0 0 1 .3 4 20.4 20.4 0 0 1-1.6 4.4l-3.1 7 9.5-3.7 1.3 3.5-15.2 6-1.2-2.9 5-10.7c.6-1.5 1-2.7 1-3.5.2-.8.1-1.5-.2-2.3-.3-.8-.9-1.3-1.7-1.6-.8-.3-1.7-.2-2.7.1-1 .5-1.7 1.1-2.2 2-.4 1-.4 1.8 0 2.8l-4 1.7Zm25.1 7 2.1-21-10.7 4.2-1.3-3.5 15-6 1.4 3.6-1.9 20.9-4.6 1.8Z"/>
  </g>
  <g data-object="В-78__r__2318:4255">
    <rect width="128" height="89" x="2882.1" y="4548.7" fill="#8E96FF" rx="12" transform="rotate(-21.7 2882 4548.7)"/>
    <path fill="#fff" d="m2933.1 4588-3.6-4.4-7.4 3 .5 5.7-4.5 1.8-1.1-23.9 5.1-2 15.7 18-4.7 1.9Zm-12-14.7.7 9.6 5.4-2.2-6-7.5h-.2Zm25.2 1.8-9.5 3.8-1.5-3.7 9.6-3.8 1.5 3.7Zm16 1.4-1.5-3.8-10.4 4.2-1.5-3.7c.4-4 1.4-9.6 3-16.9l6.2-2.4 5.5 13.7 2.7-1.1 1.4 3.5-2.7 1 1.5 3.8-4.2 1.7Zm-9.5-4.6 6.7-2.6-4.2-10.7h-.1l-1.6 7.5a75.4 75.4 0 0 0-.8 5.8Zm12.7-13.7c-.8-2-.7-3.9.2-5.7 1-1.8 2.6-3.2 4.8-4.1 2.2-.9 4.3-1 6-.5 2 .6 3.2 1.8 3.9 3.6a6.6 6.6 0 0 1 .2 4 19.8 19.8 0 0 1-1.5 4.4l-3.2 7 9.5-3.7 1.4 3.5-15.2 6-1.2-2.9 4.9-10.7c.6-1.5 1-2.7 1.1-3.5.2-.8 0-1.5-.2-2.3-.3-.8-.9-1.3-1.7-1.6a4.2 4.2 0 0 0-4.9 2.1c-.4.9-.4 1.8 0 2.8l-4 1.7h-.1Zm32.3 4.7c-2.3.9-4.4 1-6.3.4-2-.6-3.4-1.9-4.2-3.7l4-1.7a4 4 0 0 0 2.2 1.7c1 .3 1.9.2 3-.2a4 4 0 0 0 2.3-2.2 4.4 4.4 0 0 0-2.3-5.6 4 4 0 0 0-3.2 0c-.8.3-1.4.7-2 1.3a4 4 0 0 0-.9 2l-3.9 1.6-3.8-12.4 13.4-5.3 1.3 3.4-9.8 4 1.8 5.9c.2-1 .6-1.7 1.2-2.5a7 7 0 0 1 2.6-1.7c2-.8 4-.8 5.7 0 1.8.8 3.2 2.3 4 4.3.9 2.2.8 4.3-.1 6.3a9 9 0 0 1-5 4.4Z"/>
  </g>
  <g data-object="В-78__r__2318:4256">
    <rect width="128" height="89" x="6301.3" y="3463.3" fill="#8E96FF" rx="12" transform="rotate(14.8 6301.3 3463.3)"/>
    <path fill="#fff" d="m6318.8 3525.3-.2-5.7-7.7-2-3 4.8-4.7-1.2 13.3-19.8 5.4 1.4 1.8 23.8-4.9-1.3Zm-.9-19-5.1 8.1 5.7 1.5-.5-9.6Zm19.3 16.5-10-2.6 1-3.9 10 2.6-1 3.9Zm12 10.5 1-3.8-10.8-2.9 1-3.9c2.7-2.9 6.8-6.8 12.4-11.7l6.5 1.7-3.8 14.2 2.9.8-1 3.6-2.8-.7-1 3.9-4.4-1.2Zm-4.9-9.3v.1l7 1.9 2.9-11.2h-.1l-5.7 5a76 76 0 0 0-4 4.2Zm18.3-3.4c.6-2 1.8-3.6 3.6-4.5 1.8-1 4-1 6.3-.4s4 1.6 5.2 3.2a5.8 5.8 0 0 1 1 5 6.4 6.4 0 0 1-2.3 3.5 20.6 20.6 0 0 1-3.9 2.6l-6.6 3.8 9.8 2.6-1 3.7-15.8-4.2.8-3 10.3-5.8c1.4-.8 2.4-1.5 3-2.1.5-.6 1-1.2 1.1-2 .2-.8.1-1.6-.4-2.3a3.8 3.8 0 0 0-2.2-1.5 4 4 0 0 0-3 .3c-.8.4-1.4 1.2-1.6 2.2l-4.3-1v-.1Zm22.8 12 .8-3.2 2.7.7c1 .3 2 .2 2.7-.2a3 3 0 0 0 1.6-2c.2-.8 0-1.6-.4-2.3a4 4 0 0 0-2.4-1.5 4 4 0 0 0-2.8.2c-.8.4-1.3 1-1.7 2l-4.2-1.1c.7-2 1.8-3.4 3.6-4.2a9 9 0 0 1 6.2-.3c2.3.6 4 1.6 5.1 3a5 5 0 0 1 1 4.8 5 5 0 0 1-2.1 3c-1 .7-2.3 1-3.7.9 1.6.7 2.7 1.5 3.4 2.7a5 5 0 0 1 .5 4c-.5 2-1.7 3.4-3.6 4.1-2 .8-4.2.9-6.7.2a9.5 9.5 0 0 1-5.4-3.4 6.7 6.7 0 0 1-1.2-5.5l4.4 1.1a3 3 0 0 0 .6 2.6c.6.7 1.5 1.2 2.6 1.5 1.2.3 2.2.3 3-.1 1-.4 1.5-1 1.8-2a3 3 0 0 0-.5-2.6 4.6 4.6 0 0 0-2.7-1.6l-2.7-.7Z"/>
  </g>
  <g data-object="В-78__r__2318:4257">
    <rect width="156.1" height="89" x="6172.4" y="3246" fill="#8E96FF" rx="12" transform="rotate(14.8 6172.4 3246)"/>
    <path fill="#fff" d="m6205.2 3312-.3-5.7-7.6-2-3 4.8-4.8-1.2 13.3-19.8 5.4 1.4 1.8 23.8-4.8-1.3Zm-1-19-5 8.1 5.6 1.5-.4-9.7h-.1Zm19.4 16.4-10-2.6 1-3.8 10 2.6-1 3.8Zm12 10.6 1-3.9-10.9-2.8 1-4c2.7-2.8 6.9-6.7 12.5-11.7l6.4 1.8-3.7 14.2 2.8.8-1 3.6-2.8-.7-1 3.8-4.3-1Zm-5-9.3v.1l7 1.8 3-11.1h-.2l-5.6 5a76 76 0 0 0-4.1 4.2Zm20 13.3 4.6-17.7h-.1l-6.6 2.4 1-4.1 6.8-2.5 4.5 1.2-5.8 21.8-4.5-1.1Zm17.8 5.2a11 11 0 0 1-6-3.5 5.7 5.7 0 0 1-1.2-5.2 5.4 5.4 0 0 1 2.4-3.3 6.6 6.6 0 0 1 4.2-1c-1.2-.7-2-1.6-2.6-2.7a4.8 4.8 0 0 1-.3-3.5 5 5 0 0 1 3.3-3.5 10 10 0 0 1 6.2-.1c2.3.6 4 1.7 5.3 3.1a5 5 0 0 1 1 4.8 4.8 4.8 0 0 1-1.9 2.8 6 6 0 0 1-3.5 1c1.4.7 2.5 1.7 3.1 3a5 5 0 0 1 .5 4 5.6 5.6 0 0 1-3.7 4c-2 .7-4.2.8-6.8 0Zm-1.9-5c.6.8 1.5 1.3 2.7 1.6 1.2.4 2.3.3 3.2-.1 1-.5 1.5-1.2 1.8-2.2s0-1.9-.5-2.7a4.5 4.5 0 0 0-2.7-1.8 4.6 4.6 0 0 0-3.2.2c-.9.5-1.5 1.2-1.7 2.2-.3 1-.2 1.9.4 2.7Zm3.2-10c.4.8 1.2 1.3 2.2 1.5 1 .3 2 .2 2.7-.2.8-.4 1.3-1 1.5-1.9.3-.9.1-1.7-.4-2.4a3.7 3.7 0 0 0-2.2-1.5c-1-.3-2-.2-2.7.2-.8.4-1.3 1-1.5 1.9-.3.9-.1 1.7.4 2.4Z"/>
  </g>
  <g data-object="В-78__r__2318:4258">
    <rect width="64" height="89" x="3008.4" y="4498.4" fill="#8E96FF" rx="12" transform="rotate(-21.7 3008.4 4498.4)"/>
    <path fill="#fff" d="m3072.2 4551.7-2.8 2.2 1.8 4.7 3.6-.3 1.1 2.8-14.9.7-1.3-3.3 11.3-9.7 1.2 2.9Zm-9.3 7.5 6-.4-1.3-3.4-4.7 3.8Zm1.2-15.8 2.3 6-2.3.9-2.4-6 2.4-.9Zm.8-10-2.3 1 2.6 6.5-2.3 1c-2.5-.3-6-1-10.6-2l-1.5-3.8 8.6-3.4-.7-1.7 2.2-1 .7 1.8 2.3-1 1 2.7Zm-2.9 6h.1l-1.7-4.2-6.7 2.7a100.1 100.1 0 0 0 8.3 1.5Zm-8.5-8c-1.2.6-2.4.5-3.6 0a6 6 0 0 1-2.5-3.1 5.5 5.5 0 0 1-.3-3.8c.4-1.1 1-2 2.2-2.4a4.4 4.4 0 0 1 2.5-.2 13.4 13.4 0 0 1 2.8 1l4.3 2-2.3-5.9 2.2-.9 3.8 9.6-1.8.7-6.8-3a10 10 0 0 0-2.1-.8c-.5 0-1 0-1.4.2-.5.2-.9.5-1 1a2.5 2.5 0 0 0 1.3 3.1 2 2 0 0 0 1.7 0l1 2.5Zm2.9-20.3a7 7 0 0 1 .4 2.8c-.2.9-.5 1.7-1.1 2.5a8.3 8.3 0 0 1-4 2.8c-2 .9-4 1-5.6.6a5.2 5.2 0 0 1-3.4-3.3 5.6 5.6 0 0 1-.3-3.6 4 4 0 0 1 2-2.6l1 2.7a2 2 0 0 0-.7 1.2c-.1.4 0 1 .1 1.5.4.9 1.1 1.4 2.1 1.6a7 7 0 0 0 3.8-.6v-.1c-.8 0-1.5-.3-2.1-.7a4.3 4.3 0 0 1-1.5-2 4.5 4.5 0 0 1 0-3.5c.5-1.2 1.4-2 2.6-2.5a5 5 0 0 1 4 .1 6 6 0 0 1 2.7 3.1Zm-2.2.9c-.3-.7-.7-1.1-1.4-1.4-.6-.3-1.3-.3-2 0-.6.2-1 .7-1.3 1.3-.3.6-.3 1.3 0 2a3 3 0 0 0 1.3 1.4c.6.3 1.3.3 2 0a2.5 2.5 0 0 0 1.4-1.3c.3-.7.3-1.3 0-2Zm-7.4-12 2.4 6-2.4 1-2.3-6 2.3-1Zm2.2-6.5-10.6 4.2 3.7 2.5-2.5 1-3.7-2.5-1-2.7 13-5.2 1 2.7Z"/>
  </g>
  <g data-object="В-78__t__2318:4259">
    <rect width="64" height="89" x="3142.2" y="4445.1" fill="#60A5FA" rx="12" transform="rotate(-21.7 3142.2 4445)"/>
    <g fill="#fff" clip-path="url(#a)">
      <path d="M3183.4 4462c2.7-1 4-4 3-6.8a5.2 5.2 0 0 0-6.9-2.9 5.2 5.2 0 0 0-3 6.8c1.1 2.7 4.2 4 6.9 3Zm17.8 9.7-2-2.6-4.6-5.8-.5-.7a4.3 4.3 0 0 0-2.2-1.4 4 4 0 0 0-2.7.2l-10.4 4.1a4.2 4.2 0 0 0-2.7 4.3l.1.8.6 7.3.3 3.4c.1 1 1 1.8 2 1.7l.7-.1.6-.5a1.9 1.9 0 0 0 .5-1.4l-.8-8.3v-.7l.1-.5.5-.3.5.1c.1 0 .3.2.3.4v.1l1.3 14.2a1.5 1.5 0 0 0 .7 1.2 1.5 1.5 0 0 0 1.4.1l2.5-1 4 10c.5 1.4 1.9 2.2 3 1.7s1.7-2 1.1-3.4l-4-10 1.5-.5 4 10c.5 1.4 1.9 2.2 3 1.7 1.2-.5 1.7-2 1.1-3.4l-4-10 2.6-1 .6-.4.3-.6a1.5 1.5 0 0 0-.2-1.4l-8.9-11.1v-.2a.7.7 0 0 1 0-.5l.2-.4a.7.7 0 0 1 1 .2l.4.5 5.2 6.6a2 2 0 0 0 1.3.7 2 2 0 0 0 1.4-.5c.8-.6.9-1.8.2-2.6Z"/>
    </g>
  </g>
  <path fill="#262A34" fill-rule="evenodd" d="M8651.3 3904a12 12 0 0 0-14.6 8.6l-22.6 85.8-13.7 51.8a12 12 0 0 0 8.6 14.7l48.6 12.8a9.7 9.7 0 0 1 7 11.8 9.7 9.7 0 0 0 6.9 11.9l43.1 11.3a9.7 9.7 0 0 0 11.8-6.9 9.7 9.7 0 0 1 11.9-6.9l476.4 125.4a9.7 9.7 0 0 1 6.9 11.9 9.7 9.7 0 0 0 6.9 11.8l40.9 10.8a12 12 0 0 0 14.6-8.5l2-7.2 16.6-63.4a12 12 0 0 0-8.5-14.7l-50.3-13.2-483.5-127.3a12 12 0 0 1-8.6-14.7l16.5-62.5a12 12 0 0 0-8.6-14.7l-108.3-28.5Zm-5596.2 473.7a12 12 0 0 1-6.7 15.6l-468.2 186.5-37.2 14.8a12 12 0 0 0-6.7 15.6l19.8 49.8 11.3 28.3a12 12 0 0 0 15.6 6.7l37.1-14.8a12 12 0 0 0 6.8-15.6l-2.4-6a12 12 0 0 1 6.7-15.6l431-171.7a12 12 0 0 1 15.6 6.7l.4.9a12 12 0 0 0 15.6 6.7l37.1-14.8a12 12 0 0 0 6.7-15.6l-.3-.9a12 12 0 0 1 6.7-15.6l44.6-17.7a12 12 0 0 0 6.7-15.6l-19.8-49.8-32.8-82.4a12 12 0 0 0-15.6-6.7l-89.2 35.5a12 12 0 0 0-6.7 15.6l23.9 60.1Z" clip-rule="evenodd"/>
  <g data-object="В-78__s__2318:4271">
    <rect width="64" height="89" x="2562.5" y="4675.9" fill="#fff" rx="12" transform="rotate(-21.7 2562.5 4676)"/>
    <g clip-path="url(#b)">
      <path fill="#000" d="m2623.3 4681.4-7 2.7 2.8 7v.3l-.1 1c-.2.3-.4.5-.8.6l-7 2.8 2.8 7 .1.3-.1 1c-.2.3-.5.5-.8.6l-7 2.8 2.8 7v1.2c-.2.3-.5.6-.8.7l-7 2.8 2.8 7v.2a1.5 1.5 0 0 1-.8 1.7l-8.4 3.3c-.4.2-.8.2-1.1 0-.4-.2-.7-.4-.8-.8-.2-.4-.2-.8 0-1.2.1-.3.4-.6.8-.8l7-2.7-2.8-7a.6.6 0 0 1 0-.3c-.2-.3-.1-.7 0-1 .2-.3.5-.5.8-.6l7-2.8-2.8-7a1 1 0 0 1 0-.3c-.1-.3 0-.6.1-1 .2-.3.4-.5.7-.6l7-2.8-2.8-7a.7.7 0 0 1 0-.3c-.1-.3 0-.6.1-1 .2-.3.4-.5.8-.6l7-2.8-2.9-7a.5.5 0 0 1 0-.3l.1-1c.2-.3.4-.5.8-.6l8.3-3.3c.4-.2.8-.2 1.2 0 .4.1.6.4.8.8v1.1c-.2.4-.5.7-.9.8Z"/>
    </g>
  </g>
  <g data-object="В-78__s__2318:4272">
    <rect width="64" height="89" x="3075.3" y="4471.7" fill="#fff" rx="12" transform="rotate(-21.7 3075.3 4471.7)"/>
    <g clip-path="url(#c)">
      <path fill="#000" d="m3136 4477.1-6.9 2.8 2.8 7v1.2c-.2.3-.5.6-.8.7l-7 2.8 2.8 7v.2c.1.4 0 .7-.1 1-.2.3-.4.6-.8.7l-7 2.8 2.8 7 .1.2a1.5 1.5 0 0 1-.9 1.7l-7 2.8 2.8 7v.2c.2.3.1.7 0 1l-.8.7-8.4 3.3c-.3.2-.7.1-1.1 0-.4-.2-.7-.5-.8-.8-.2-.4-.2-.8 0-1.2.2-.4.4-.6.8-.8l7-2.8-2.8-7a1 1 0 0 1 0-.2c-.1-.3 0-.7.1-1l.7-.7 7-2.7-2.8-7a.7.7 0 0 1 0-.3l.1-1c.2-.3.4-.5.8-.7l7-2.7-2.8-7a.6.6 0 0 1-.1-.3c0-.3 0-.7.2-1 .1-.3.4-.5.7-.7l7-2.7-2.8-7a1 1 0 0 1 0-.3c-.2-.3-.1-.6 0-1 .2-.3.5-.5.8-.6l8.4-3.4h1.1c.4.2.7.5.8.9.2.3.2.7 0 1.1-.2.4-.4.7-.8.8Z"/>
    </g>
  </g>
  <g data-object="В-78__s__2318:4273">
    <rect width="64" height="89" x="9222.7" y="4231.9" fill="#fff" rx="12" transform="rotate(14.8 9222.7 4231.9)"/>
    <g clip-path="url(#d)">
      <path fill="#000" d="m9268.4 4272.3-7.3-1.9-1.9 7.3-.1.2c-.1.3-.4.6-.7.7-.3.2-.6.2-1 .1l-7.3-1.9-1.9 7.3v.2c-.2.3-.5.6-.8.7-.3.2-.6.2-1 .1l-7.2-1.9-2 7.3v.2c-.2.4-.5.6-.8.8a1.4 1.4 0 0 1-1 0l-7.2-1.9-2 7.3v.3c-.2.3-.4.5-.8.7-.3.1-.6.2-1 0l-8.7-2.2c-.4-.1-.7-.4-.9-.7-.2-.4-.2-.8-.1-1.2 0-.3.3-.6.7-.9.3-.2.7-.2 1.1-.1l7.2 1.9 2-7.3v-.2c.2-.3.5-.6.8-.7.3-.2.6-.2 1-.1l7.2 1.9 2-7.3v-.2c.2-.4.4-.6.8-.7.3-.2.6-.2 1-.2l7.2 2 2-7.3v-.3c.2-.3.4-.5.8-.7.3-.1.6-.2 1 0l7.2 1.8 2-7.2v-.3l.7-.7c.3-.1.7-.2 1 0l8.7 2.2c.4.1.7.3 1 .7.2.4.2.7.1 1.1-.1.4-.3.7-.7 1-.4.2-.7.2-1.1.1Z"/>
    </g>
  </g>
  <g data-object="В-78__s__2318:4274">
    <rect width="64" height="89" x="8665.7" y="4085.2" fill="#fff" rx="12" transform="rotate(14.8 8665.7 4085.2)"/>
    <g clip-path="url(#e)">
      <path fill="#000" d="m8711.4 4125.7-7.3-2-1.9 7.3-.1.3-.7.7c-.3.1-.7.2-1 0l-7.3-1.8-1.9 7.2-.1.3-.7.7a1 1 0 0 1-1 0l-7.3-1.8-1.9 7.2v.3c-.2.3-.5.6-.8.7a1.4 1.4 0 0 1-1 .1l-7.3-2-1.9 7.4a.6.6 0 0 1 0 .2c-.2.3-.5.6-.8.7-.3.2-.6.2-1 .1l-8.7-2.3c-.4 0-.7-.3-.9-.7-.2-.3-.3-.7-.2-1.1.1-.4.4-.7.7-1 .4-.1.8-.2 1.2 0l7.2 1.8 2-7.2v-.3c.2-.3.4-.5.8-.7.3-.1.6-.2 1 0l7.2 1.8 2-7.2v-.3c.2-.3.4-.5.8-.7.3-.2.6-.2 1-.1l7.2 1.9 2-7.2v-.3c.2-.3.4-.6.7-.7.4-.2.7-.2 1-.1l7.3 1.9 1.9-7.3.1-.2c.2-.3.4-.6.7-.7.3-.2.7-.2 1-.1l8.7 2.3c.4 0 .7.3 1 .7.1.3.2.7 0 1a1.5 1.5 0 0 1-1.7 1.2Z"/>
    </g>
  </g>
  <path fill="#262A34" d="m2621.6 4564.8 14.8-5.9-2.4-6.1-14.9 5.9zm-67.1 26.3 14.9-6-2.3-5.7-14.9 6zm133.7-53.5 14.9-5.9-2.2-5.6-14.9 6zm96.4-39 14.9-5.9-2.2-5.6-14.9 6zm96.9-37.8 14.9-6-2.3-5.6-14.9 5.9zm66.9-26.7 14.9-5.9-2.3-5.7-14.9 6zm66.7-27.1 14.9-6-2.1-5.1-14.9 5.9zm170.3-26.5 7.4-3-4-10.2-7.5 3zm-154.7 109 14.9-6-2-5-14.9 6zm-130 51.8 14.8-6-2-5-14.9 5.8zm-131 52.1 14.8-5.9-2-5-14.8 6zm-125.5 50 14.9-6-2.2-5.5-14.9 6zm512.8-204.2 29.8-11.9-2.5-6.3-29.7 11.9z"/>
  <g data-object="В-78__s__2318:4288">
    <rect width="69.2" height="44" x="3080.8" y="4290.9" fill="#fff" rx="12" transform="rotate(-21.7 3080.8 4290.9)"/>
    <g clip-path="url(#f)">
      <use href="#g"/>
    </g>
  </g>
  <g data-object="В-78__s__2318:4289">
    <rect width="69.2" height="44" x="3080.8" y="4290.9" fill="#fff" rx="12" transform="rotate(-21.7 3080.8 4290.9)"/>
    <g clip-path="url(#h)">
      <use href="#g"/>
    </g>
  </g>
  <g data-object="В-78__s__2318:4290">
    <rect width="69.2" height="44" x="8602.2" y="3892" fill="#fff" rx="12" transform="rotate(14.8 8602.2 3892)"/>
    <g clip-path="url(#i)">
      <path fill="#000" d="m8656 3911.3-7.2-1.9-1.9 7.3v.3l-.8.7a1.4 1.4 0 0 1-1 0l-7.3-1.8-1.9 7.2v.3l-.8.7c-.3.2-.6.2-1 0l-7.2-1.8-2 7.2v.3c-.2.3-.4.5-.8.7-.3.2-.6.2-1 .1l-7.2-2-2 7.3v.3c-.2.3-.4.6-.8.7-.3.2-.6.2-1 .1l-8.7-2.3a1.4 1.4 0 0 1-.9-.7c-.2-.3-.2-.7-.1-1.1 0-.4.3-.7.7-1 .3-.1.7-.2 1.1 0l7.2 1.8 2-7.2v-.3l.8-.7c.3-.1.7-.2 1 0l7.2 1.8 2-7.2v-.3c.2-.3.4-.5.8-.7.3-.2.6-.2 1-.1l7.2 1.9 2-7.2v-.3c.2-.3.4-.6.8-.7.3-.2.6-.2 1-.1l7.2 1.9 2-7.3v-.2c.2-.3.4-.6.7-.7.3-.2.7-.2 1-.1l8.7 2.3c.4 0 .7.3 1 .7.2.3.2.7.1 1 0 .5-.3.8-.7 1-.4.2-.7.3-1.1.2Z"/>
    </g>
  </g>
  <g data-object="В-78__s__2318:4291">
    <rect width="69.2" height="44" x="8591.2" y="3938" fill="#fff" rx="12" transform="rotate(14.8 8591.2 3938)"/>
    <g clip-path="url(#j)">
      <path fill="#000" d="m8645 3957.3-7.2-1.9-1.9 7.3v.3l-.8.7a1.4 1.4 0 0 1-1 0l-7.3-1.8-1.9 7.2v.3l-.8.7c-.3.2-.6.2-1 0l-7.2-1.8-2 7.2v.3c-.2.3-.4.5-.8.7-.3.2-.6.2-1 .1l-7.2-2-2 7.3v.3c-.2.3-.4.6-.8.7-.3.2-.6.2-1 .1l-8.7-2.3a1.4 1.4 0 0 1-.9-.7c-.2-.3-.2-.7-.1-1.1 0-.4.3-.7.7-1 .3-.1.7-.2 1.1 0l7.2 1.8 2-7.2v-.3l.8-.7c.3-.1.7-.2 1 0l7.2 1.8 2-7.2v-.3c.2-.3.4-.5.8-.7.3-.2.6-.2 1-.1l7.2 1.9 2-7.2v-.3c.2-.3.4-.6.8-.7.3-.2.6-.2 1-.1l7.2 1.9 2-7.3v-.2c.2-.3.4-.6.7-.7.3-.2.7-.2 1-.1l8.7 2.3c.4 0 .7.3 1 .7.2.3.2.7.1 1 0 .5-.3.8-.7 1-.4.2-.7.3-1.1.2Z"/>
    </g>
  </g>
  <path fill="#777D89" fill-rule="evenodd" d="M3187.6 4332a12 12 0 0 1-15.6-6.8l-22-55a12 12 0 0 1 6.8-15.5l773.9-308.2a12 12 0 0 1 15.6 6.7l21.9 55 1.4 3.6 6.8 17a12 12 0 0 1-6.8 15.5l-215.5 85.9a12 12 0 0 1-15.6-6.7 10 10 0 0 0-13.2-5.7l-113.2 45a12 12 0 0 0-6.7 15.6l54.7 137.4a12 12 0 0 1-6.7 15.5l-305.7 121.8a12 12 0 0 1-15.5-6.7l-54.7-137.4a12 12 0 0 0-15.6-6.7l-74.3 29.6Z" clip-rule="evenodd"/>
  <rect width="254" height="733" x="4169.8" y="4125.2" fill="#777D89" rx="12" transform="rotate(-111.7 4169.8 4125.2)"/>
  <g data-object="В-78__s__2426:14842">
    <rect width="52" height="89" x="5851" y="3392" fill="#fff" rx="12"/>
    <path fill="#000" d="M5899.4 3419.5h-7.4v7.8l-.6.9a1.4 1.4 0 0 1-1 .3h-7.4v7.8l-.6.9a1.4 1.4 0 0 1-1 .3h-7.4v7.8l-.6.9a1.4 1.4 0 0 1-1 .3h-7.4v7.8a1.4 1.4 0 0 1-1.5 1.2h-9c-.4 0-.8-.1-1-.5-.3-.2-.5-.6-.5-1s.2-.8.4-1c.3-.4.7-.5 1.1-.5h7.5v-7.8l.6-.9c.2-.2.6-.3.9-.3h7.5v-7.8c0-.3.3-.6.5-.9.3-.2.6-.3 1-.3h7.5v-7.8c0-.3.3-.6.5-.9.3-.2.6-.3 1-.3h7.5v-7.8c0-.3.2-.6.5-.9.3-.2.6-.3 1-.3h9c.4 0 .7.1 1 .5.3.2.5.6.5 1s-.2.8-.5 1c-.3.4-.6.5-1 .5Z"/>
  </g>
  <g data-object="В-78__s__2426:14846">
    <rect width="52" height="89" x="5911" y="3392" fill="#fff" rx="12"/>
    <path fill="#000" d="M5959.4 3419.5h-7.4v7.8l-.6.9a1.4 1.4 0 0 1-1 .3h-7.4v7.8l-.6.9a1.4 1.4 0 0 1-1 .3h-7.4v7.8l-.6.9a1.4 1.4 0 0 1-1 .3h-7.4v7.8a1.4 1.4 0 0 1-1.5 1.2h-9c-.4 0-.8-.1-1-.5-.3-.2-.5-.6-.5-1s.2-.8.4-1c.3-.4.7-.5 1.1-.5h7.5v-7.8l.6-.9c.2-.2.6-.3.9-.3h7.5v-7.8c0-.3.3-.6.5-.9.3-.2.6-.3 1-.3h7.5v-7.8c0-.3.3-.6.5-.9.3-.2.6-.3 1-.3h7.5v-7.8c0-.3.2-.6.5-.9.3-.2.6-.3 1-.3h9c.4 0 .7.1 1 .5.3.2.5.6.5 1s-.2.8-.5 1c-.3.4-.6.5-1 .5Z"/>
  </g>
  <g data-object="В-78__s__2318:4298">
    <rect width="64" height="89" x="5128" y="3654.6" fill="#F75555" rx="12" transform="rotate(-21.7 5128 3654.6)"/>
    <g clip-path="url(#k)">
      <path fill="#fff" d="m5188.8 3660-7 2.8 2.8 7v.3c.1.3 0 .6-.1 1-.2.3-.4.5-.8.6l-7 2.8 2.9 7v.2l-.1 1c-.2.3-.4.6-.8.7l-7 2.8 2.8 7s.1.2 0 .2a1.5 1.5 0 0 1-.8 1.7l-7 2.8 2.8 7v1.2c-.2.3-.5.6-.8.7l-8.4 3.3a1 1 0 0 1-1.1 0 1.4 1.4 0 0 1-.8-.8c-.2-.4-.2-.8 0-1.2.2-.4.4-.6.8-.8l7-2.8-2.8-7a.7.7 0 0 1 0-.2 1.5 1.5 0 0 1 .8-1.7l7-2.7-2.8-7a.6.6 0 0 1 0-.3c-.1-.3 0-.7.1-1 .2-.3.4-.5.8-.7l7-2.7-2.9-7v-.3l.1-1c.2-.3.5-.5.8-.6l7-2.8-2.8-7a.6.6 0 0 1 0-.3 1.5 1.5 0 0 1 .8-1.6l8.4-3.4h1.1c.4.2.6.5.8.9v1.1c-.2.4-.5.7-.8.8Z"/>
    </g>
  </g>
  <path fill="#262A34" fill-rule="evenodd" d="M3756.2 4135.3a12 12 0 0 0-6.7 15.6l7.5 18.9a12 12 0 0 0 15.6 6.7l66-26.3a12 12 0 0 1 15.5 6.7l1.7 4.1a12 12 0 0 0 15.5 6.7l37.2-14.8a12 12 0 0 0 6.7-15.6l-1.6-4a12 12 0 0 1 6.7-15.6l67.8-27a12 12 0 0 0 6.7-15.6l-7.5-19a12 12 0 0 0-15.6-6.6l-215.5 85.8Z" clip-rule="evenodd"/>
  <path fill="#262A34" d="m3989 4060.5 7.4-3 4.1 10.3-7.4 3zm-245.3 97.7 7.5-3 4 10.2-7.4 3zm257.6-126.2 14.9-6 1.8 4.6-14.8 6zM9178 4213l15.5 4.1-1.7 6.6-15.5-4zm-69.9-17.2 15.5 4-1.5 5.6-15.4-4zm-69.4-19.1 15.5 4-1.7 6.3-15.5-4zm-69.7-18.4 15.6 4-1.7 6.4-15.5-4zm-69.6-18 15.5 4-1.6 6-15.5-4zm-69.6-18.6 15.5 4-1.7 6.3-15.4-4zm-48.8-97.2 15.4 4.1-1.4 5.5-15.5-4zM6559 3390l8.1 2.1-2 7.8-8.1-2.2zm-81.4 28 15.5 4-1.6 6.1-15.5-4zm315.1 122.4 7.7 2-3 11.6-7.8-2zM6353.5 3385l15.5 4-1.5 5.7-15.5-4zm-793.6 1.5 14.8-5.9 2 5-14.8 6zm-146.6 58.2 14.9-6 2.6 6.5-15 6zM5278 3499l14.9-6 2.2 5.7-14.8 5.9zm-144 58 14.9-6 1.9 4.8-14.9 6zm-58 66.4 11.1-4.4 3 7.4-11.1 4.5zm119.7 30.1 10-4 2.9 7.5-9.9 4zm65.7-26.2 9.5-3.8 3 7.5-9.6 3.8zm965.7-274.9 15.5 4.1-1.3 5.1-15.5-4zM5929 3387h16v5.3h-16zm-60 0h16v5.3h-16zm548 131.6 11.6 3-2 7.8-11.6-3zm58.4 41.3 21.3 5.6-2 7.7-21.3-5.6zM8858.3 4045l15.5 4-1.7 6.2-15.4-4zm131.5 34.5 15.5 4.1-1.5 5.6-15.5-4zm69.7 18.4 15.4 4-1.5 5.7-15.4-4zm77.3 20.3 15.5 4.1-1.5 5.5-15.4-4zm131.5 34.7 15.5 4-1.4 5.4-15.5-4zm-655.2-88 31 8.1-1.6 6.1-31-8.2zm-111.9-77.7 15.5 4.1-1.5 5.7-15.5-4zm251.2 114.5 30.9 8.1-1.6 6-31-8.2z"/>
  <path fill="#262A34" fill-rule="evenodd" d="M8505.7 3923a12 12 0 0 0-14.7 8.6l-10 38.4a12 12 0 0 0 8.5 14.7l38.7 10.2a12 12 0 0 0 14.6-8.6 7.4 7.4 0 0 1 9-5.2l9.3 2.4a12 12 0 0 0 14.7-8.5l5.2-19.7a12 12 0 0 0-8.6-14.7l-28-7.4-1-.2-37.7-10Z" clip-rule="evenodd"/>
  <rect width="136" height="89" x="6502.4" y="3516.3" fill="#60A5FA" rx="12" transform="rotate(14.8 6502.4 3516.3)"/>
  <g clip-path="url(#l)">
    <path fill="#fff" d="M6563.6 3550.8c-.3 0-.7 0-1 .2a1.3 1.3 0 0 0-.6.8l-1 3.9.1 1c.2.3.5.5.8.6l1-.1c.4-.2.6-.5.7-.8l1-4-.1-1a1.3 1.3 0 0 0-.8-.6Zm7.9-3.4.6-2.6c.5-1.7.2-3.5-.7-5a6.7 6.7 0 0 0-4-3.1 6.7 6.7 0 0 0-5 .7 6.7 6.7 0 0 0-3.2 4l-.6 2.6a4 4 0 0 0-3 .4 4 4 0 0 0-2 2.4l-2.3 9a4 4 0 0 0 2.8 5l13 3.3a4 4 0 0 0 3-.4 4 4 0 0 0 1.8-2.4l2.4-9a4 4 0 0 0-.4-3 4 4 0 0 0-2.4-2Zm-9.7-5.3a4 4 0 0 1 7.8 2l-.7 2.6-7.8-2 .7-2.6Zm7.5 18.5a1.3 1.3 0 0 1-.6.8c-.3.2-.6.3-1 .2l-12.9-3.4a1.3 1.3 0 0 1-1-1.7l2.4-9c.1-.3.4-.6.7-.8.3-.2.6-.2 1-.1l12.9 3.4c.3 0 .6.3.8.6.2.3.2.7.1 1l-2.4 9Z"/>
  </g>
  <g fill="#fff">
    <g clip-path="url(#m)">
      <path d="M6541.7 3579.4a5.3 5.3 0 1 0 2.6-10.2 5.3 5.3 0 0 0-2.6 10.2Zm4 2.6-8.8-2.3a6 6 0 0 0-4.5.6 6 6 0 0 0-2.8 3.6l-2.6 9.8a1.9 1.9 0 0 0 2 2.4 1.8 1.8 0 0 0 1.3-.7l.4-.7 2.3-9a.8.8 0 0 1 1-.6h.2c0 .2.2.2.2.3l.1.3v.3l-7 26.2c0 .6 0 1.1.3 1.6s.8.9 1.3 1a2.2 2.2 0 0 0 2.7-1.5l3.4-13c0-.2.2-.4.4-.5a1 1 0 0 1 .7-.2l.3.2a.9.9 0 0 1 .4.6v.4l-3.4 13c-.2.5 0 1.1.2 1.6a2.1 2.1 0 0 0 3 .8c.4-.3.8-.8 1-1.3l6.8-26.2c0-.2.2-.3.4-.5h.8l.2.3.1.3v.3l-2.4 9a2 2 0 0 0 1.3 2.3h.7c.3 0 .5 0 .7-.2.3 0 .5-.2.6-.4.2-.2.3-.5.3-.7l2.6-9.8a6 6 0 0 0-.6-4.6 6 6 0 0 0-3.7-2.7Z"/>
    </g>
    <g clip-path="url(#n)">
      <path d="M6568.7 3586.5a5.2 5.2 0 1 0 2.7-10.2 5.2 5.2 0 0 0-2.7 10.2Zm8.7 18.3-.2-3.3-.2-7.4v-.8a4 4 0 0 0-1-2.5 4.2 4.2 0 0 0-2.2-1.4l-10.8-2.9a4.2 4.2 0 0 0-4.7 1.9l-.4.7-3.9 6.2-1.7 3c-.6.8-.3 2 .5 2.5a2 2 0 0 0 1.4.3 2 2 0 0 0 1.2-.9l4.4-7 .4-.7a.8.8 0 0 1 .4-.3.8.8 0 0 1 .5 0l.4.4v.6l-7.5 12.2-.2.7a1.5 1.5 0 0 0 .5 1.2l.6.4 2.6.6-2.7 10.4c-.4 1.5.3 3 1.5 3.3 1.2.3 2.5-.6 2.9-2.1l2.7-10.4 1.4.4-2.7 10.4c-.4 1.5.3 2.9 1.5 3.2 1.2.3 2.5-.6 2.8-2l2.8-10.5 2.7.7a1.5 1.5 0 0 0 1.3-.2l.5-.6v-.7l-.4-14.2v-.2a.8.8 0 0 1 .3-.4l.5-.1c.2 0 .4 0 .5.2l.2.5v.7l.3 8.3c0 .3 0 .5.2.7 0 .3.2.5.4.6a2 2 0 0 0 1.4.5c1 0 1.8-1 1.8-2Z"/>
    </g>
  </g>
  <g data-object="В-78__r__2318:4338">
    <rect width="348.2" height="266" x="6704.9" y="3386" fill="#8E96FF" rx="12" transform="rotate(14.8 6705 3386)"/>
    <path fill="#fff" d="m6800.7 3563.2-.4-7.2-9.6-2.5-3.8 6-5.8-1.5 16.6-24.7 6.7 1.7 2.3 29.8-6-1.6Zm-1.2-23.9-6.4 10.3 7.1 1.8-.5-12h-.2Zm24.1 20.6-12.4-3.2 1.3-4.8 12.4 3.2-1.3 4.8Zm15 13.3 1.3-4.9-13.6-3.6 1.3-4.8a190 190 0 0 1 15.6-14.7l8 2.1-4.7 17.9 3.6 1-1.2 4.5-3.6-1-1.3 4.9-5.4-1.4Zm-6-11.7-.1.2 8.7 2.3 3.6-14-7.2 6.3a95.9 95.9 0 0 0-5 5.2Zm24.7 16.6 5.8-22-8.3 3 1.4-5.2 8.3-3 5.7 1.4-7.2 27.3-5.7-1.5Zm22.1 6.5c-2.9-.8-5.1-2.2-6.6-4.3a8 8 0 0 1-1.4-6.8l5.3 1.4c-.2 1.1.1 2.2.9 3.2.7 1 1.7 1.6 3 2a5 5 0 0 0 4-.5 5 5 0 0 0 2.4-3.3 5 5 0 0 0-3.7-6.5c-1-.2-2-.2-3 0-.9.2-1.7.7-2.4 1.3l-5-1.3 5.4-15.3 17.3 4.5-1.2 4.6-12.8-3.4-2.6 7.3h.1c.8-.8 1.8-1.3 3-1.5s2.5-.2 3.9.1c2.6.7 4.5 2.1 5.7 4.3a9.2 9.2 0 0 1 .8 7.2c-.8 3-2.4 5-4.8 6.3a11.1 11.1 0 0 1-8.3.7Z"/>
  </g>
  <g data-object="В-78__r__2318:4339">
    <rect width="287.3" height="266" x="4762" y="3609.5" fill="#8E96FF" rx="12" transform="rotate(-21.7 4762 3609.5)"/>
    <path fill="#fff" d="m4916.3 3706.3-4.5-5.6-9.2 3.7.5 7.1-5.6 2.3-1.3-29.8 6.4-2.6 19.6 22.5-5.9 2.4Zm-15-18.6.9 12.1 6.8-2.7-7.6-9.4h-.1Zm31.6 2.3-12 4.8-1.8-4.6 12-4.8 1.8 4.6Zm19.9 1.8-1.9-4.7-13 5.2-1.8-4.7c.5-4.9 1.7-12 3.7-21l7.8-3.1 6.8 17.1 3.4-1.3 1.8 4.4-3.5 1.3 1.9 4.7-5.2 2Zm-11.8-5.8v.1l8.4-3.3-5.4-13.4a227 227 0 0 0-2 9.4 89.8 89.8 0 0 0-1 7.2Zm15.8-17c-1-2.5-.9-5 .3-7.2a11 11 0 0 1 6-5.2 11 11 0 0 1 7.6-.5 7 7 0 0 1 4.7 4.4l.6 2.4c0 .8 0 1.7-.3 2.7a25.8 25.8 0 0 1-2 5.5l-3.8 8.7v.1l11.8-4.7 1.7 4.3-19 7.6-1.5-3.7 6.1-13.4c.8-1.9 1.3-3.3 1.5-4.3.1-1 0-2-.3-2.9-.4-1-1.1-1.6-2.2-2-1-.4-2.2-.3-3.4.2a4.7 4.7 0 0 0-2.7 2.4 4.2 4.2 0 0 0 0 3.5v.1l-5 2Zm36.6 6.6-8.4-21.2h-.2l-4.8 7.3-2-4.9 5-7.4 5.4-2.2 10.4 26.2-5.4 2.2Z"/>
  </g>
  <g data-object="В-78__r__2318:4340">
    <rect width="128" height="172" x="3610.4" y="4169.3" fill="#8E96FF" rx="12" transform="rotate(-21.7 3610.4 4169.3)"/>
    <path fill="#fff" d="m3672.1 4246.4-2.7-3.3-5.5 2.2.3 4.3-3.4 1.3-.8-17.8 3.9-1.6 11.7 13.5-3.5 1.4Zm-9-11 .5 7.2 4.1-1.7-4.6-5.6Zm19.2 1.2-7.1 2.8-1.1-2.7 7.1-2.9 1.1 2.8Zm12.2.9-1-2.8-7.9 3.1-1.1-2.8c.3-3 1-7.1 2.3-12.6l4.6-1.8 4.1 10.2 2-.8 1.1 2.6-2 .9 1 2.8-3 1.2Zm-7-3.5v.1l5-2-3.2-8a137.8 137.8 0 0 0-1.9 10Zm9.7-10.3a5 5 0 0 1 .2-4.3 6 6 0 0 1 3.6-3c1.7-.7 3.2-.8 4.5-.4s2.4 1.3 2.9 2.6l.3 1.5-.1 1.6a14.3 14.3 0 0 1-1.2 3.3l-2.3 5.2 7-2.7 1.1 2.6-11.4 4.5-.9-2.2 3.7-8 .8-2.6c.1-.6 0-1.2-.1-1.8a2 2 0 0 0-1.4-1.2c-.6-.2-1.3-.2-2 .1a3 3 0 0 0-1.6 1.5c-.3.7-.3 1.4 0 2v.1l-3 1.3v-.1Zm25.5 2.6-1-2.8-7.9 3-1.1-2.7c.3-3 1-7.2 2.3-12.6l4.6-1.9 4 10.3 2.1-.8 1 2.6-2 .8 1.2 2.8-3.2 1.3Zm-7-3.5v.1l5-2-3.2-8h-.1a137.8 137.8 0 0 0-1.8 10Zm19.7-7.3-7.2 2.8-1-2.8 7-2.8 1.2 2.8Zm8.1 2.5-5-12.7-3 4.4-1.2-3 3-4.4 3.3-1.3 6.2 15.7-3.3 1.3Z"/>
  </g>
  <g data-object="В-78__r__2318:4341">
    <rect width="128" height="111" x="3947.2" y="3934" fill="#8E96FF" rx="12" transform="rotate(-21.7 3947.2 3934)"/>
    <path fill="#fff" d="m3996 3983.4-2.7-3.3-5.5 2.2.3 4.3-3.3 1.3-.8-17.9 3.8-1.5 11.7 13.5-3.4 1.4Zm-9-11 .5 7.1 4.1-1.6-4.5-5.6h-.1Zm19.2 1.2-7.1 2.8-1.1-2.8 7.1-2.8 1.1 2.8Zm12.3.9-1.1-2.8-7.9 3.1-1-2.8c.2-3 1-7.2 2.2-12.6l4.6-1.9 4.1 10.3 2-.8 1.1 2.6-2 .8 1.1 2.8-3.1 1.3Zm-7.1-3.5v.1l5-2-3.2-8c-.6 2.3-1 4.1-1.2 5.6a62.3 62.3 0 0 0-.6 4.3Zm9.8-10.3a5 5 0 0 1 .1-4.3c.7-1.4 2-2.4 3.6-3 1.7-.7 3.2-.8 4.6-.4a4 4 0 0 1 2.8 2.6 4.8 4.8 0 0 1 .2 3 17.1 17.1 0 0 1-1.2 3.4l-2.3 5.2 7.1-2.7 1 2.6-11.4 4.5-.9-2.2 3.7-8c.5-1.2.8-2 .9-2.6 0-.6 0-1.2-.2-1.8a2 2 0 0 0-1.3-1.2c-.7-.2-1.3-.2-2 .1-.8.3-1.3.8-1.7 1.5-.3.7-.3 1.4 0 2v.1l-3 1.3v-.1Zm25.5 2.6-1.1-2.8-7.9 3-1-2.7c.2-3 1-7.2 2.2-12.6l4.6-1.9 4.1 10.3 2-.8 1.1 2.6-2 .8 1 2.8-3 1.3Zm-7.1-3.5v.1l5-2-3.2-8a121.6 121.6 0 0 0-1.8 10Zm19.7-7.4-7.1 2.9-1.1-2.8 7.1-2.8 1.1 2.7Zm.2-7a5 5 0 0 1 .1-4.3 7 7 0 0 1 3.7-3c1.6-.7 3.1-.8 4.5-.4a4.6 4.6 0 0 1 3.2 4.1c0 .5 0 1-.2 1.6 0 .6-.2 1-.4 1.6l-.7 1.7-2.4 5.2v.1l7.1-2.8 1 2.6-11.4 4.5-.8-2.2 3.6-8c.5-1.1.8-2 .9-2.6 0-.6 0-1.2-.2-1.7a2 2 0 0 0-1.3-1.2c-.6-.3-1.3-.2-2 0-.8.4-1.3.8-1.6 1.5-.3.7-.4 1.4 0 2.1l-3 1.3h-.1Z"/>
  </g>
  <g data-object="В-78__r__2318:4342">
    <rect width="128" height="150" x="3990.2" y="4041.7" fill="#8E96FF" rx="12" transform="rotate(-21.7 3990.2 4041.7)"/>
    <path fill="#fff" d="m4045.9 4109.4-2.7-3.3-5.5 2.2.3 4.3-3.4 1.3-.8-17.9 3.9-1.5 11.7 13.5-3.5 1.4Zm-9-11 .5 7.2 4-1.7-4.5-5.6Zm19.2 1.2-7.2 2.8-1-2.7 7-2.9 1.2 2.8Zm12.2.9-1.1-2.8-7.8 3.1-1.1-2.8c.3-3 1-7.1 2.2-12.6l4.7-1.9 4 10.3 2.1-.8 1 2.6-2 .9 1.1 2.7-3 1.3Zm-7-3.5v.1l5-2-3.3-8a127.4 127.4 0 0 0-1.8 10Zm9.7-10.3a5 5 0 0 1 .2-4.3 6 6 0 0 1 3.6-3c1.6-.7 3.1-.8 4.5-.4s2.3 1.3 2.9 2.6a5 5 0 0 1 .2 3 14.5 14.5 0 0 1-1.2 3.4l-2.4 5.2 7.1-2.7 1 2.6-11.3 4.5-1-2.2 3.7-8c.5-1.2.8-2 .9-2.6.1-.6 0-1.2-.2-1.8a2 2 0 0 0-1.3-1.2c-.6-.2-1.3-.2-2 .1-.8.3-1.3.8-1.6 1.5-.3.7-.3 1.4 0 2v.1l-3 1.3-.1-.1Zm25.5 2.6-1.1-2.8-7.8 3-1.1-2.7c.3-3 1-7.2 2.2-12.6l4.7-1.9 4 10.3 2.1-.8 1 2.6-2 .8 1.1 2.8-3.1 1.3Zm-7-3.5v.1l5-2-3.3-8a134.4 134.4 0 0 0-1.8 10Zm19.6-7.4-7.1 2.9-1.1-2.8 7.2-2.8 1 2.7Zm5.9-4.4-1-2.4 2-.8c.7-.3 1.2-.7 1.5-1.3.3-.6.3-1.2 0-1.9a2 2 0 0 0-1.2-1.2 3 3 0 0 0-2 .1 3 3 0 0 0-1.7 1.4c-.3.6-.3 1.3-.1 2l-3 1.2c-.6-1.5-.5-3 .2-4.2.7-1.3 2-2.3 3.6-3a8 8 0 0 1 4.5-.4 4 4 0 0 1 2.7 2.5c.4 1 .4 1.8 0 2.7-.3 1-.9 1.7-1.8 2.2 1.3-.3 2.4-.3 3.3.1 1 .4 1.7 1.2 2.1 2.2.6 1.4.4 2.8-.4 4.1a7.7 7.7 0 0 1-3.9 3c-1.8.8-3.4 1-4.8.5a5 5 0 0 1-3.2-2.9l3.2-1.2c.3.6.8 1 1.5 1.3.7.2 1.4 0 2.3-.3a3 3 0 0 0 1.7-1.4c.4-.6.4-1.3.2-2-.3-.7-.8-1.1-1.4-1.3-.7-.2-1.5-.2-2.4.2l-2 .8Z"/>
  </g>
  <g data-object="В-78__t__2318:4343">
    <rect width="64" height="89" x="8735.3" y="4103.5" fill="#60A5FA" rx="12" transform="rotate(14.8 8735.3 4103.5)"/>
    <g fill="#fff" clip-path="url(#o)">
      <path d="M8758.4 4141.6a5.2 5.2 0 1 0 2.6-10.1 5.2 5.2 0 0 0-2.6 10.1Zm8.6 18.4-.1-3.4-.3-7.3v-.8c0-1-.4-1.8-1-2.5a4.2 4.2 0 0 0-2.1-1.5l-11-2.8a4.2 4.2 0 0 0-2.6.2c-.8.3-1.5.9-2 1.7l-.4.7-3.8 6.2-1.8 2.9a2 2 0 0 0 .5 2.6 2 2 0 0 0 1.5.3 2 2 0 0 0 1.2-.9l4.3-7.1.4-.6c0-.2.2-.3.4-.3h.5c.2 0 .3.2.4.4v.6l-7.5 12.2-.2.7.1.6.4.6.6.3 2.7.7-2.8 10.4c-.4 1.5.3 3 1.5 3.3 1.2.3 2.5-.6 2.9-2.1l2.7-10.4 1.5.4-2.8 10.3c-.4 1.5.3 3 1.5 3.3 1.2.3 2.5-.6 2.9-2.1l2.7-10.4 2.7.7a1.5 1.5 0 0 0 1.4-.3l.4-.5.1-.7-.5-14.3v-.1l.4-.4.5-.2.4.3.2.4v.7l.3 8.4.2.7.5.6.6.4h.7c1 0 1.8-.9 1.8-1.9Z"/>
    </g>
  </g>
  <g data-object="В-78__t__2318:4344">
    <rect width="64" height="89" x="8596.1" y="4066.9" fill="#60A5FA" rx="12" transform="rotate(14.8 8596 4066.9)"/>
    <g fill="#fff" clip-path="url(#p)">
      <path d="M8619.1 4105a5.2 5.2 0 1 0 2.7-10.1 5.2 5.2 0 0 0-2.7 10.1Zm4 2.6-8.7-2.3a6 6 0 0 0-7.3 4.3l-2.6 9.7c-.3 1 .3 2 1.2 2.3l.8.1a1.8 1.8 0 0 0 1.6-1.4l2.4-9c0-.2.1-.4.3-.5h.8l.2.2.2.3v.3l-7 26.2a2.2 2.2 0 0 0 1.6 2.7 3 3 0 0 0 1.6-.2 2 2 0 0 0 1-1.4l3.4-12.9c0-.2.2-.4.4-.6l.7-.1a1 1 0 0 1 .6.4 1 1 0 0 1 .1.8l-3.4 13c-.1.5 0 1 .2 1.6.3.5.8.8 1.4 1 .5.1 1.1 0 1.6-.3s.8-.7 1-1.3l6.9-26.2a.8.8 0 0 1 .9-.5.7.7 0 0 1 .5.3v.6l-2.3 9a2 2 0 0 0 1.2 2.3l.8.1a2 2 0 0 0 1.3-.7l.3-.7 2.6-9.8a6 6 0 0 0-.7-4.5 6 6 0 0 0-3.6-2.8Z"/>
    </g>
  </g>
  <path fill="#777D89" fill-rule="evenodd" d="M8500.8 3910.3a12 12 0 0 0-14.7 8.6l-47.5 180.4a12 12 0 0 1-14.6 8.6l-1429.3-376.3a12 12 0 0 1-8.6-14.7l58.8-223.3a12 12 0 0 1 14.7-8.6L8482 3859.5l104.4 27.5a12 12 0 0 1 8.6 14.7l-5.2 19.7a12 12 0 0 1-14.6 8.5l-74.5-19.6Z" clip-rule="evenodd"/>
  <g data-object="В-78__s__2318:4349">
    <rect width="64" height="89" x="3855.7" y="4160.9" fill="#fff" rx="12" transform="rotate(-21.7 3855.7 4161)"/>
    <g clip-path="url(#q)">
      <path fill="#000" d="m3916.5 4166.3-7 2.8 2.8 7v1.3c-.2.3-.5.5-.9.6l-7 2.8 2.9 7v.3c.1.3 0 .6-.1 1-.2.3-.4.5-.8.6l-7 2.8 2.8 7 .1.2-.1 1c-.2.3-.5.6-.8.7l-7 2.8 2.8 7v1.2c-.2.3-.5.6-.8.7l-8.4 3.3a1 1 0 0 1-1.1 0 1.4 1.4 0 0 1-.8-.8c-.2-.4-.2-.8 0-1.2.2-.3.4-.6.8-.8l7-2.7-2.8-7a.5.5 0 0 1 0-.3c-.1-.3 0-.7.1-1 .2-.3.4-.5.7-.6l7-2.8-2.8-7a.6.6 0 0 1 0-.3c-.1-.3 0-.6.1-1 .2-.3.4-.5.8-.6l7-2.8-2.9-7v-.3l.1-1c.2-.3.5-.5.8-.6l7-2.8-2.8-7a.6.6 0 0 1 0-.3 1.5 1.5 0 0 1 .8-1.6l8.4-3.3c.3-.2.7-.2 1.1 0 .4.2.7.4.8.8.2.4.2.8 0 1.1-.2.4-.5.7-.8.8Z"/>
    </g>
  </g>
  <rect width="755.4" height="77.1" fill="#262A34" rx="12" transform="scale(1 -1) rotate(21.8 12053 11420.1)"/>
  <rect width="300" height="77" fill="#262A34" rx="12" transform="matrix(1 0 0 -1 5757 3387)"/>
  <rect width="62.5" height="101.3" fill="#262A34" rx="12" transform="scale(1 -1) rotate(21.8 12251.3 11728.5)"/>
  <rect width="663.6" height="77.4" fill="#262A34" rx="12" transform="matrix(.96705 .25457 .25448 -.96708 6019.1 3382.8)"/>
  <rect width="56.1" height="127.7" fill="#262A34" rx="12" transform="matrix(.96705 .25457 .25448 -.96708 6411.6 3584.5)"/>
  <rect width="1473.2" height="719.3" fill="#63656A" rx="12" transform="matrix(.90815 .41864 -.4249 .90524 9351.9 177.4)"/>
  <g clip-path="url(#r)">
    <path fill="#fff" d="M9823.8 769a20.2 20.2 0 0 0-22 3.5 20 20 0 0 0-5.3 21.5 19.8 19.8 0 0 0 7 9.2 20 20 0 0 0 11 3.8c3.9.2 7.8-.8 11.2-2.9a20.1 20.1 0 0 0 7.8-8.6 20 20 0 0 0 1.9-7.6 20 20 0 0 0-1.2-7.7 20 20 0 0 0-4-6.6 20 20 0 0 0-6.4-4.6Zm-1.7 3.6a15.7 15.7 0 0 1 8.1 8.7c-3.5.3-7 .3-10.6-.1-.3-3.3-.9-6.6-1.7-9.8 1.4.2 2.9.6 4.2 1.2Zm-8.4-1.3c.9 3 1.5 6.1 1.8 9.3a50.2 50.2 0 0 1-11.5-3.7l-.7-.3a16.2 16.2 0 0 1 10.4-5.3Zm-13.8 20.4c-1.1-3.7-.8-7.7.9-11.3l.2-.5 1.3.6a53.4 53.4 0 0 0 13.5 4v4.2a28.8 28.8 0 0 0-9.8.8l-.7.2a42.7 42.7 0 0 0-5.4 2Zm8.6 9.9a15.7 15.7 0 0 1-7-6.2 36.6 36.6 0 0 1 4.2-1.6l.9-.2a25.5 25.5 0 0 1 9.1-.8 64.4 64.4 0 0 1-1.7 10.3 16.1 16.1 0 0 1-5.5-1.5Zm9.7 1.2a70.7 70.7 0 0 0 1.5-9.2l.6.3.2.1.2.1.2.1.9.4c1.9.9 3.6 2 5.1 3.5a16 16 0 0 1-8.7 4.7Zm5.3-12c-.4 0-.8-.3-1.1-.4a3 3 0 0 0-.7-.4l-1.6-.5h-.2V785c3.8.4 7.6.3 11.4 0a15.9 15.9 0 0 1-1.4 8.7l-.5 1a23 23 0 0 0-5.9-4Z"/>
  </g>
  <g clip-path="url(#s)">
    <path fill="#fff" d="m9882.6 806.1-2.8-7.5a2 2 0 0 0-1-1.1 2 2 0 0 0-1.5 0 2 2 0 0 0-1.2 2.5l2 5.6-21.6 7.9-2-5.7a2 2 0 0 0-1-1 2 2 0 0 0-1.6-.1 2 2 0 0 0-.7.4 2 2 0 0 0-.6 1.4l.1.7 2.7 7.5 2.7 7.4a2 2 0 0 0 1 1.2 2 2 0 0 0 2.3-.4 2 2 0 0 0 .5-2.2l-2-5.5 21.6-7.9 2 5.7.4.6a2 2 0 0 0 2.2.5 2 2 0 0 0 1.1-1 2 2 0 0 0 .1-1.5l-2.7-7.5Zm-34.3 8.2a2 2 0 0 0-1-1 2 2 0 0 0-1.6-.1 2 2 0 0 0-1.1 1 2 2 0 0 0 0 1.5l2.6 7.5.5.7a2 2 0 0 0 2.1.5c.3 0 .5-.2.7-.4l.5-.6.2-.8a1.9 1.9 0 0 0-.2-.8l-2.7-7.5Zm43.2-7.2-2.8-7.5a2 2 0 0 0-.4-.7c-.1-.2-.4-.3-.6-.4a2 2 0 0 0-1.5-.1 2 2 0 0 0-.7.4 2 2 0 0 0-.7 1.4c0 .3 0 .5.2.8l2.7 7.5a2 2 0 0 0 1 1 2 2 0 0 0 1.6.1l.7-.4a2 2 0 0 0 .5-2.1Z"/>
  </g>
  <g clip-path="url(#t)">
    <path fill="#fff" d="M9940.6 833.6a2 2 0 0 0 0-.2 19.8 19.8 0 0 0-6.7-12.8 20 20 0 0 0-13.6-4.9h-.1a20.2 20.2 0 0 0-9.8 3 20.1 20.1 0 0 0-7 7.5 19.9 19.9 0 0 0-2.5 10 19.8 19.8 0 0 0 2.9 9.7l.4.7.1.2a19.8 19.8 0 0 0 7.9 7l.4.2a20.1 20.1 0 0 0 10.2 1.5 20.2 20.2 0 0 0 9.6-3.7 20 20 0 0 0 6.5-8 20 20 0 0 0 1.7-10.2Zm-3.9.8c.1 1 .1 2.1 0 3.2a20 20 0 0 0-5-3.4l-.6-.3a19.7 19.7 0 0 0-7.1-1.6 16 16 0 0 1-2-4.5 16.4 16.4 0 0 1 8.2 1.4 16.2 16.2 0 0 1 6.5 5.2Zm-9.2-13.2a15.7 15.7 0 0 1 6.3 5.3l-1.7-1a20.1 20.1 0 0 0-10.7-1.7 16.3 16.3 0 0 1 .5-4c1.9.1 3.8.6 5.6 1.4Zm-13.2-.1c1-.5 2.2-.8 3.4-1a20 20 0 0 0 .1 7.7 19.7 19.7 0 0 0 3.2 7.2 15.9 15.9 0 0 1-3.8 4.5 15.8 15.8 0 0 1-4.4-8.4 16 16 0 0 1 1.2-9.5l.3-.5Zm-8.2 7.9a16.5 16.5 0 0 1 2.7-4 19.7 19.7 0 0 0 .5 8.9c.8 2.8 2.3 5.5 4.3 7.7a15.8 15.8 0 0 1-7.2 1.5 15.8 15.8 0 0 1-1.7-7c-.1-2.5.4-4.9 1.4-7.1Zm7.5 21a15.7 15.7 0 0 1-4.3-3 20.1 20.1 0 0 0 8.6-3.2 20 20 0 0 0 6.9-7.5c1.2.1 2.4.4 3.5.8a16 16 0 0 1-5.1 9 16.1 16.1 0 0 1-9.6 4Zm8.6 1.5a20 20 0 0 0 8.5-9c.6-1.1 1-2.3 1.3-3.5 1.2.8 2.4 1.9 3.3 3l-.1.4a16 16 0 0 1-5.3 6.2 16.2 16.2 0 0 1-7.7 3Z"/>
  </g>
  <rect width="1446" height="806.4" x="93.8" y="3999.2" fill="#777D89" rx="12" transform="rotate(-21.4 93.8 3999.2)"/>
  <path fill="#fff" d="m1006.2 4150.6 13.4 34.1-130.4 51-77-196.8 130.3-51 13.3 34-89.2 34.9 18.6 47.4 84.2-32.9 12.3 31.6-84.1 33 19.4 49.6 89.2-34.9ZM5961 3310l-16.2-51.3h-74.2l-16.2 51.3H5809l73.4-211.4h52L6008 3310h-47Zm-53.8-171-27.1 86.6h55.2l-27-86.5h-1.1Z"/>
  <rect width="1763.9" height="654.1" x="2938.1" y="5019.9" fill="#777D89" rx="12" transform="rotate(-21.4 2938 5019.9)"/>
  <path fill="#fff" d="m3962.3 5085.1-52.1-133.1-1.6.6-37.3 168.1-39.7 15.6-77-196.9 41-16 52.2 133.2 1.6-.6 37.2-168.3 39.7-15.5 77 196.8-41 16.1Z"/>
  <defs>
    <clipPath id="a">
      <path fill="#fff" d="m3157.2 4461.2 44.6-17.8 17.8 44.6-44.6 17.8z"/>
    </clipPath>
    <clipPath id="b">
      <path fill="#fff" d="m2577.5 4692 44.6-17.7 17.8 44.6-44.6 17.7z"/>
    </clipPath>
    <clipPath id="c">
      <path fill="#fff" d="m3090.3 4487.8 44.6-17.8 17.8 44.6-44.6 17.8z"/>
    </clipPath>
    <clipPath id="d">
      <path fill="#fff" d="m9225 4253.5 46.4 12.2-12.3 46.5-46.4-12.3z"/>
    </clipPath>
    <clipPath id="e">
      <path fill="#fff" d="m8668 4106.9 46.4 12.2-12.3 46.4-46.4-12.2z"/>
    </clipPath>
    <clipPath id="f">
      <use href="#u"/>
    </clipPath>
    <clipPath id="h">
      <use href="#u"/>
    </clipPath>
    <clipPath id="i">
      <path fill="#fff" d="m8613 3892.8 46.4 12.2-12.3 46.4-46.4-12.2z"/>
    </clipPath>
    <clipPath id="j">
      <path fill="#fff" d="m8602 3938.8 46.4 12.2-12.3 46.4-46.4-12.2z"/>
    </clipPath>
    <clipPath id="k">
      <path fill="#fff" d="m5143 3670.7 44.6-17.7 17.8 44.6-44.6 17.7z"/>
    </clipPath>
    <clipPath id="l">
      <path fill="#fff" d="m6552.4 3529.9 31 8.1-8.2 31-31-8.2z"/>
    </clipPath>
    <clipPath id="m">
      <path fill="#fff" d="m6521 3563 46.3 12.2-12.2 46.4-46.4-12.2z"/>
    </clipPath>
    <clipPath id="n">
      <path fill="#fff" d="m6548 3570 46.4 12.3-12.2 46.4-46.4-12.2z"/>
    </clipPath>
    <clipPath id="o">
      <path fill="#fff" d="m8737.6 4125.2 46.4 12.2-12.2 46.5-46.5-12.3z"/>
    </clipPath>
    <clipPath id="p">
      <path fill="#fff" d="m8598.3 4088.6 46.4 12.2-12.2 46.4-46.4-12.2z"/>
    </clipPath>
    <clipPath id="q">
      <path fill="#fff" d="m3870.7 4177 44.6-17.7 17.8 44.6-44.6 17.7z"/>
    </clipPath>
    <clipPath id="r">
      <path fill="#fff" d="m9803.7 755.3 43.6 20.1L9827 819l-43.6-20.1z"/>
    </clipPath>
    <clipPath id="s">
      <path fill="#fff" d="m9856.4 779.6 43.6 20.1-20.4 43.5L9836 823z"/>
    </clipPath>
    <clipPath id="t">
      <path fill="#fff" d="m9909 804 43.7 20-20.4 43.5-43.6-20.1z"/>
    </clipPath>
  </defs>
</svg>
