<svg xmlns="http://www.w3.org/2000/svg" width="544" height="546" fill="none" viewBox="0 0 544 546">
  <g>
    <path fill="#262A34"
      d="M145 390a12 12 0 0 0 12 12h230a12 12 0 0 0 12-12V179a12 12 0 0 0-12-12H157a12 12 0 0 0-12 12v211Z" />
    <g>
      <rect width="23" height="23" x="186" y="157" fill="#262A34" rx="3" />
    </g>
    <g>
      <rect width="23" height="23" x="339" y="158" fill="#262A34" rx="3" />
    </g>
    <g>
      <rect width="26" height="23" x="389" y="169" fill="#262A34" rx="3" />
    </g>
    <g>
      <rect width="23" height="23" x="392" y="224" fill="#262A34" rx="3" />
    </g>
    <g>
      <rect width="23" height="23" x="392" y="284" fill="#262A34" rx="3" />
    </g>
    <g>
      <rect width="23" height="23" x="163" y="394" fill="#262A34" rx="3" />
    </g>
    <g>
      <rect width="23" height="23" x="130" y="169" fill="#262A34" rx="3" />
    </g>
    <g>
      <rect width="23" height="23" x="132" y="224" fill="#262A34" rx="3" />
    </g>
    <g>
      <rect width="23" height="23" x="132" y="292" fill="#262A34" rx="3" />
    </g>
    <g>
      <rect width="23" height="23" x="125" y="430" fill="#262A34" rx="3" />
    </g>
    <g>
      <rect width="23" height="23" x="125" y="495" fill="#262A34" rx="3" />
    </g>
    <g>
      <rect width="23" height="23" x="329" y="395" fill="#262A34" rx="3" />
    </g>
    <g>
      <rect width="23" height="23" x="130" y="362" fill="#262A34" rx="3" />
    </g>
    <g>
      <rect width="23" height="23" x="392" y="362" fill="#262A34" rx="3" />
    </g>
    <g data-object="Сокол__s__2127:748">
      <rect width="138" height="62" x="406" y="274" fill="#fff" rx="12" />
      <g>
        <path fill="#000"
          d="M497.45 288h-7.49v7.5c0 .13-.01.22-.04.28a1.47 1.47 0 0 1-1.46 1.22h-7.49v7.5c0 .13-.02.22-.05.28a1.48 1.48 0 0 1-1.45 1.22h-7.49v7.5c0 .13-.02.22-.05.28-.06.35-.22.63-.49.87a1.4 1.4 0 0 1-.96.35h-7.5v7.5c0 .13 0 .22-.04.28a1.48 1.48 0 0 1-1.45 1.22h-9c-.4 0-.75-.15-1.05-.44a1.5 1.5 0 0 1 0-2.12c.3-.3.65-.44 1.06-.44h7.5v-7.5c0-.13 0-.22.04-.28.06-.35.23-.63.51-.87.28-.23.6-.35.94-.35h7.5v-7.5c0-.13 0-.22.04-.28.06-.35.23-.63.51-.87.28-.23.6-.35.94-.35h7.5v-7.5c0-.1 0-.19.04-.28.06-.35.24-.63.52-.87.28-.23.59-.35.93-.35h7.5v-7.5c0-.13.01-.22.04-.28a1.48 1.48 0 0 1 1.45-1.22h9c.4 0 .75.15 1.05.44.3.3.44.65.44 1.06 0 .4-.14.76-.44 1.06-.3.3-.65.44-1.06.44Z" />
      </g>
    </g>
    <g data-object="Сокол__s__2127:749">
      <rect width="141" height="60" y="206" fill="#fff" rx="12" />
      <g clip-path="url(#a)">
        <path fill="#000"
          d="M92.95 219h-7.49v7.5c0 .13-.01.22-.04.28a1.48 1.48 0 0 1-1.46 1.22h-7.49v7.5c0 .13-.01.22-.05.28a1.48 1.48 0 0 1-1.45 1.22h-7.49v7.5c0 .13-.02.22-.05.28a1.48 1.48 0 0 1-1.45 1.22h-7.5v7.5c0 .13 0 .22-.04.28A1.48 1.48 0 0 1 57 255h-9c-.4 0-.75-.15-1.05-.44a1.5 1.5 0 0 1 0-2.12c.3-.3.65-.44 1.06-.44h7.5v-7.5c0-.13 0-.22.04-.28.06-.34.23-.63.51-.87.28-.23.6-.35.94-.35h7.5v-7.5c0-.13 0-.22.04-.28.06-.34.23-.63.51-.87.29-.23.6-.35.94-.35h7.5v-7.5c0-.1 0-.19.04-.28.06-.34.23-.63.52-.87.28-.23.59-.35.93-.35h7.5v-7.5c0-.13.01-.22.04-.28a1.48 1.48 0 0 1 1.45-1.22h9c.4 0 .75.15 1.05.44a1.5 1.5 0 0 1 0 2.12c-.3.3-.65.44-1.06.44Z" />
      </g>
    </g>
    <g data-object="Сокол__r__2127:747">
      <path fill="#78B500"
        d="M0 416a12 12 0 0 1 12-12h117a12 12 0 0 1 12 12v38a12 12 0 0 1-12 12H12a12 12 0 0 1-12-12v-38Z" />
      <path fill="#fff"
        d="M34.1 446.8c-1.7 0-3.2-.28-4.5-.85a7.49 7.49 0 0 1-3.08-2.33 5.46 5.46 0 0 1-1.09-3.37c0-.98.2-1.88.64-2.7a6 6 0 0 1 4.23-3.1v-.16a4.92 4.92 0 0 1-2.91-1.83 5.28 5.28 0 0 1-1.1-3.32c0-1.2.33-2.27 1-3.21a6.83 6.83 0 0 1 2.78-2.22 9.45 9.45 0 0 1 4.02-.81c1.5 0 2.82.27 3.99.81a6.83 6.83 0 0 1 2.77 2.22c.68.94 1.03 2 1.03 3.2 0 1.26-.38 2.37-1.13 3.33a4.9 4.9 0 0 1-2.87 1.83v.16a6 6 0 0 1 4.86 5.8c0 1.26-.37 2.38-1.11 3.37a7.49 7.49 0 0 1-3.07 2.33c-1.3.57-2.79.86-4.47.86Zm0-3.25a5.3 5.3 0 0 0 2.26-.44 3.44 3.44 0 0 0 2.05-3.16c0-.74-.2-1.4-.58-1.96a3.8 3.8 0 0 0-1.53-1.36 4.81 4.81 0 0 0-2.2-.48c-.84 0-1.58.16-2.24.49-.65.32-1.16.77-1.54 1.35a3.45 3.45 0 0 0-.55 1.96 3.3 3.3 0 0 0 2.03 3.15c.65.3 1.41.45 2.3.45Zm0-10.6c.7 0 1.33-.14 1.88-.43a3.28 3.28 0 0 0 1.8-2.99 3.14 3.14 0 0 0-1.78-2.92 4.17 4.17 0 0 0-1.9-.42 4.3 4.3 0 0 0-1.95.42 3.08 3.08 0 0 0-1.74 2.92c0 .68.14 1.27.45 1.79.32.5.76.9 1.31 1.2.56.29 1.2.43 1.92.43Zm23 .2v3.4H46.62v-3.4H57.1Zm12.88 13.78a8.14 8.14 0 0 1-4.81-1.42 9.05 9.05 0 0 1-3.08-4.13 17.74 17.74 0 0 1-1.07-6.5c0-2.55.37-4.7 1.08-6.48a8.9 8.9 0 0 1 3.08-4.1 8.17 8.17 0 0 1 4.8-1.4c1.87 0 3.47.47 4.81 1.4a8.8 8.8 0 0 1 3.08 4.1 17.35 17.35 0 0 1 1.08 6.47c0 2.55-.36 4.72-1.08 6.53a8.88 8.88 0 0 1-3.08 4.11 8.08 8.08 0 0 1-4.8 1.42Zm0-3.56c1.46 0 2.6-.71 3.45-2.14.85-1.44 1.27-3.56 1.27-6.36 0-1.85-.2-3.4-.58-4.66a6.19 6.19 0 0 0-1.64-2.84 3.58 3.58 0 0 0-2.5-.96c-1.44 0-2.59.72-3.43 2.16-.84 1.43-1.26 3.53-1.27 6.3 0 1.86.18 3.42.56 4.69a6.27 6.27 0 0 0 1.63 2.86c.7.63 1.54.95 2.51.95Zm12.97 3.12 9.9-19.6v-.15H81.36v-3.53h15.85v3.6l-9.88 19.68h-4.38Zm33.13-23.28v3.54h-10.75v19.74h-4.22V423.2h14.97Z" />
    </g>
    <g data-object="Сокол__r__2127:751">
      <path fill="#78B500"
        d="M276 418a12 12 0 0 1 12-12h244a12 12 0 0 1 12 12v116a12 12 0 0 1-12 12H288a12 12 0 0 1-12-12V418Z" />
      <path fill="#fff"
        d="M381.7 488.58c-1.7 0-3.2-.28-4.5-.85a7.48 7.48 0 0 1-3.07-2.33c-.74-1-1.1-2.12-1.1-3.38 0-.97.21-1.87.64-2.7a6 6 0 0 1 4.23-3.1v-.15a4.92 4.92 0 0 1-2.9-1.83 5.28 5.28 0 0 1-1.1-3.33c0-1.2.33-2.27 1-3.2a6.83 6.83 0 0 1 2.77-2.22 9.45 9.45 0 0 1 4.03-.82 9.2 9.2 0 0 1 3.98.82 6.82 6.82 0 0 1 2.78 2.21 5.33 5.33 0 0 1 1.02 3.2c0 1.27-.38 2.38-1.13 3.34a4.9 4.9 0 0 1-2.87 1.83v.16a5.99 5.99 0 0 1 4.86 5.8 5.5 5.5 0 0 1-1.11 3.37 7.48 7.48 0 0 1-3.07 2.33c-1.3.56-2.78.85-4.46.85Zm0-3.25c.87 0 1.63-.15 2.27-.44a3.44 3.44 0 0 0 2.05-3.16c-.01-.75-.2-1.4-.59-1.97a3.8 3.8 0 0 0-1.53-1.35 4.81 4.81 0 0 0-2.2-.49 4.9 4.9 0 0 0-2.23.49c-.65.32-1.17.77-1.55 1.35a3.44 3.44 0 0 0-.54 1.97 3.3 3.3 0 0 0 2.02 3.14c.65.3 1.42.46 2.3.46Zm0-10.6c.7 0 1.34-.15 1.88-.44a3.28 3.28 0 0 0 1.8-2.98 3.34 3.34 0 0 0-.48-1.75c-.31-.51-.74-.9-1.3-1.17a4.17 4.17 0 0 0-1.9-.43 4.3 4.3 0 0 0-1.95.43c-.55.27-.98.66-1.3 1.17-.3.5-.44 1.08-.44 1.75 0 .67.15 1.26.46 1.78.32.5.75.91 1.3 1.2.57.3 1.2.44 1.93.44Zm23 .2v3.39h-10.47v-3.39h10.47Zm12.89 13.77a8.14 8.14 0 0 1-4.82-1.42 9.05 9.05 0 0 1-3.08-4.12 17.74 17.74 0 0 1-1.07-6.51c.01-2.54.37-4.7 1.08-6.48a8.9 8.9 0 0 1 3.08-4.1 8.17 8.17 0 0 1 4.8-1.4c1.87 0 3.47.47 4.81 1.4a8.8 8.8 0 0 1 3.08 4.1 17.34 17.34 0 0 1 1.08 6.48c0 2.54-.36 4.72-1.08 6.52a8.87 8.87 0 0 1-3.08 4.11 8.09 8.09 0 0 1-4.8 1.42Zm0-3.55c1.45 0 2.6-.72 3.44-2.15.85-1.44 1.27-3.56 1.27-6.35 0-1.85-.19-3.4-.58-4.66a6.19 6.19 0 0 0-1.63-2.84 3.58 3.58 0 0 0-2.5-.97c-1.45 0-2.6.72-3.43 2.16-.85 1.43-1.27 3.53-1.28 6.3 0 1.86.18 3.42.56 4.69a6.27 6.27 0 0 0 1.64 2.86c.7.64 1.54.96 2.5.96Zm21.26 3.43c-1.11 0-2.2-.2-3.26-.58a7.69 7.69 0 0 1-2.86-1.88 9.23 9.23 0 0 1-2.03-3.46c-.5-1.45-.74-3.24-.73-5.38 0-1.99.2-3.76.63-5.33a11.75 11.75 0 0 1 1.83-3.95 8.06 8.06 0 0 1 2.88-2.48 8.3 8.3 0 0 1 3.78-.85c1.46 0 2.76.29 3.89.86a7.32 7.32 0 0 1 4.04 5.73h-4.14c-.22-.9-.65-1.6-1.31-2.13a3.76 3.76 0 0 0-2.48-.81c-1.61 0-2.85.7-3.73 2.1-.86 1.4-1.3 3.33-1.3 5.77h.16c.37-.66.85-1.24 1.44-1.71a7.05 7.05 0 0 1 4.38-1.5 6.98 6.98 0 0 1 6.25 3.67 7.7 7.7 0 0 1 .95 3.9 8 8 0 0 1-1.05 4.13 7.6 7.6 0 0 1-2.94 2.87 8.84 8.84 0 0 1-4.4 1.03Zm-.02-3.41c.82 0 1.56-.2 2.22-.6a4.56 4.56 0 0 0 2.1-3.92c0-.84-.18-1.59-.55-2.26a4.16 4.16 0 0 0-3.71-2.2 4.2 4.2 0 0 0-3.1 1.33 4.58 4.58 0 0 0 .82 7.04c.65.4 1.4.61 2.22.61Z" />
    </g>
    <g data-object="Сокол__r__2127:752">
      <path fill="#78B500"
        d="M0 483a12 12 0 0 1 12-12h117a12 12 0 0 1 12 12v51a12 12 0 0 1-12 12H12a12 12 0 0 1-12-12v-51Z" />
      <path fill="#fff"
        d="M32.89 521.1c-1.7 0-3.2-.28-4.5-.85a7.5 7.5 0 0 1-3.07-2.33 5.5 5.5 0 0 1-1.09-3.38c0-.97.2-1.87.64-2.69a6.01 6.01 0 0 1 4.22-3.1v-.16a4.92 4.92 0 0 1-2.9-1.83 5.28 5.28 0 0 1-1.1-3.33c0-1.2.33-2.26 1-3.2a6.82 6.82 0 0 1 2.78-2.22 9.44 9.44 0 0 1 4.02-.82c1.5 0 2.82.27 3.99.82a6.82 6.82 0 0 1 2.77 2.22c.68.94 1.02 2 1.02 3.2 0 1.26-.37 2.37-1.12 3.33a4.91 4.91 0 0 1-2.88 1.83v.16a6.01 6.01 0 0 1 4.86 5.8c0 1.25-.36 2.38-1.1 3.37a7.5 7.5 0 0 1-3.08 2.33c-1.3.57-2.78.85-4.46.85Zm0-3.25c.87 0 1.63-.15 2.27-.44a3.44 3.44 0 0 0 2.05-3.16c-.01-.74-.2-1.4-.58-1.97a3.8 3.8 0 0 0-1.54-1.35 4.83 4.83 0 0 0-2.2-.49 5 5 0 0 0-2.23.49 3.9 3.9 0 0 0-1.54 1.35 3.44 3.44 0 0 0-.55 1.97 3.3 3.3 0 0 0 2.02 3.15c.65.3 1.42.45 2.3.45Zm0-10.6c.71 0 1.34-.14 1.89-.43a3.3 3.3 0 0 0 1.8-3 3.43 3.43 0 0 0-.49-1.74c-.3-.51-.74-.9-1.3-1.17a4.16 4.16 0 0 0-1.9-.42c-.74 0-1.38.14-1.94.42a3.07 3.07 0 0 0-1.74 2.92c-.01.67.14 1.27.45 1.78.32.51.76.91 1.3 1.2.57.3 1.2.44 1.93.44Zm23 .2v3.39H45.43v-3.39H55.9Zm12.9 13.78a8.14 8.14 0 0 1-4.83-1.43 9.04 9.04 0 0 1-3.08-4.12 17.73 17.73 0 0 1-1.07-6.51c.01-2.54.37-4.7 1.08-6.48a8.9 8.9 0 0 1 3.08-4.09 8.16 8.16 0 0 1 4.81-1.4c1.86 0 3.47.46 4.8 1.4a8.8 8.8 0 0 1 3.09 4.1 17.35 17.35 0 0 1 1.08 6.47c0 2.54-.36 4.72-1.08 6.52a8.87 8.87 0 0 1-3.08 4.11 8.08 8.08 0 0 1-4.8 1.43Zm0-3.56c1.45 0 2.6-.72 3.43-2.15.85-1.44 1.28-3.56 1.28-6.35 0-1.85-.2-3.4-.58-4.66a6.18 6.18 0 0 0-1.64-2.84 3.58 3.58 0 0 0-2.5-.97c-1.45 0-2.59.72-3.43 2.16-.84 1.43-1.27 3.54-1.27 6.3-.01 1.86.17 3.43.55 4.7a6.27 6.27 0 0 0 1.64 2.85c.7.64 1.54.96 2.51.96Zm12.96 3.11 9.9-19.59v-.16h-11.5v-3.52h15.86v3.6l-9.89 19.67h-4.37Zm18.16 0v-23.27h14.96v3.53h-10.75v5.46h4.49a11 11 0 0 1 4.58.87 6.64 6.64 0 0 1 2.94 2.45 6.68 6.68 0 0 1 1.03 3.71c0 1.43-.34 2.7-1.03 3.79a6.9 6.9 0 0 1-2.94 2.54c-1.27.62-2.8.92-4.58.92h-8.7Zm4.21-3.45h4.49a4.9 4.9 0 0 0 2.39-.54 3.69 3.69 0 0 0 1.98-3.3c0-.99-.37-1.82-1.13-2.51-.75-.7-1.83-1.05-3.24-1.05h-4.49v7.4Z" />
    </g>
    <g data-object="Сокол__r__2127:754">
      <path fill="#78B500"
        d="M0 12A12 12 0 0 1 12 0h117a12 12 0 0 1 12 12v177a12 12 0 0 1-12 12H12a12 12 0 0 1-12-12V12Z" />
      <path fill="#fff"
        d="M45.25 112.74c-1.7 0-3.2-.29-4.5-.86a7.49 7.49 0 0 1-3.07-2.33 5.53 5.53 0 0 1-1.1-3.37c0-.98.21-1.88.65-2.7a6 6 0 0 1 4.22-3.1v-.16a4.92 4.92 0 0 1-2.9-1.83 5.28 5.28 0 0 1-1.1-3.32c0-1.2.33-2.27 1-3.2a6.82 6.82 0 0 1 2.78-2.23 9.45 9.45 0 0 1 4.02-.81c1.49 0 2.82.27 3.99.81A6.82 6.82 0 0 1 52 91.86c.68.94 1.02 2 1.02 3.2 0 1.26-.37 2.37-1.12 3.33a4.91 4.91 0 0 1-2.88 1.83v.16a6 6 0 0 1 4.86 5.8 5.5 5.5 0 0 1-1.1 3.37 7.49 7.49 0 0 1-3.08 2.33c-1.3.57-2.78.86-4.46.86Zm0-3.25a5.4 5.4 0 0 0 2.27-.45 3.6 3.6 0 0 0 1.5-1.27 3.53 3.53 0 0 0-.03-3.85 3.81 3.81 0 0 0-1.54-1.36 4.81 4.81 0 0 0-2.2-.48c-.84 0-1.58.16-2.23.48a3.9 3.9 0 0 0-1.54 1.36 3.45 3.45 0 0 0-.55 1.96 3.31 3.31 0 0 0 2.02 3.15c.65.3 1.42.46 2.3.46Zm0-10.6c.71 0 1.34-.15 1.88-.44a3.29 3.29 0 0 0 1.8-2.99c0-.66-.17-1.25-.48-1.75-.3-.5-.74-.9-1.3-1.17a4.17 4.17 0 0 0-1.9-.42c-.74 0-1.38.14-1.95.42a3.08 3.08 0 0 0-1.73 2.92c-.01.68.14 1.27.45 1.79.32.5.75.9 1.3 1.2.57.29 1.2.43 1.93.43Zm23 .2v3.38H57.79V99.1h10.48Zm12.89 13.77a8.14 8.14 0 0 1-4.82-1.42 9.04 9.04 0 0 1-3.08-4.13 17.73 17.73 0 0 1-1.07-6.5c.01-2.54.37-4.7 1.08-6.48a8.9 8.9 0 0 1 3.08-4.1 8.16 8.16 0 0 1 4.81-1.4c1.86 0 3.47.47 4.8 1.4a8.8 8.8 0 0 1 3.09 4.1 17.35 17.35 0 0 1 1.08 6.47c0 2.55-.36 4.72-1.08 6.53a8.87 8.87 0 0 1-3.08 4.11 8.08 8.08 0 0 1-4.81 1.42Zm0-3.56c1.45 0 2.6-.71 3.44-2.14.85-1.44 1.28-3.56 1.28-6.36 0-1.84-.2-3.4-.58-4.66a6.18 6.18 0 0 0-1.64-2.84 3.58 3.58 0 0 0-2.5-.96c-1.45 0-2.6.72-3.43 2.16-.84 1.43-1.27 3.53-1.27 6.3-.01 1.86.17 3.42.55 4.69a6.27 6.27 0 0 0 1.64 2.86c.7.64 1.54.95 2.51.95Zm22.2-20.16v23.28h-4.2V93.25H99l-5.45 3.47v-3.86l5.79-3.72h4Z" />
    </g>
    <g data-object="Сокол__r__2127:807">
      <path fill="#78B500"
        d="M410 12a12 12 0 0 1 12-12h110a12 12 0 0 1 12 12v180a12 12 0 0 1-12 12H422a12 12 0 0 1-12-12V12Z" />
      <path fill="#fff"
        d="M448.32 114.73c-1.69 0-3.19-.29-4.5-.86a7.5 7.5 0 0 1-3.06-2.33 5.47 5.47 0 0 1-1.1-3.37c0-.98.2-1.88.64-2.7a6.01 6.01 0 0 1 4.23-3.1v-.15a4.92 4.92 0 0 1-2.91-1.83 5.28 5.28 0 0 1-1.1-3.33c0-1.2.33-2.27 1-3.2a6.82 6.82 0 0 1 2.78-2.22 9.45 9.45 0 0 1 4.02-.82c1.5 0 2.82.27 4 .82a6.82 6.82 0 0 1 2.76 2.21c.69.94 1.03 2 1.03 3.2a5.3 5.3 0 0 1-1.13 3.34 4.91 4.91 0 0 1-2.87 1.83v.16a6.01 6.01 0 0 1 4.86 5.8c0 1.25-.37 2.37-1.11 3.36a7.5 7.5 0 0 1-3.07 2.33c-1.3.57-2.79.86-4.47.86Zm0-3.25a5.4 5.4 0 0 0 2.28-.45 3.44 3.44 0 0 0 2.05-3.16 3.6 3.6 0 0 0-.59-1.96 3.82 3.82 0 0 0-1.53-1.35 4.83 4.83 0 0 0-2.2-.5c-.84 0-1.58.17-2.23.5a3.9 3.9 0 0 0-1.55 1.35 3.44 3.44 0 0 0-.55 1.97 3.3 3.3 0 0 0 2.03 3.14c.65.3 1.41.46 2.3.46Zm0-10.6c.72 0 1.34-.15 1.89-.44a3.29 3.29 0 0 0 1.8-2.99 3.37 3.37 0 0 0-.48-1.75c-.31-.5-.74-.9-1.3-1.17a4.17 4.17 0 0 0-1.9-.42 4.3 4.3 0 0 0-1.95.42 3.08 3.08 0 0 0-1.74 2.92c0 .68.15 1.27.46 1.79.31.5.75.9 1.3 1.2a4 4 0 0 0 1.92.44Zm23.01.2v3.39h-10.48v-3.4h10.48Zm12.88 13.77a8.14 8.14 0 0 1-4.81-1.42 9.05 9.05 0 0 1-3.08-4.12 17.73 17.73 0 0 1-1.07-6.52c0-2.53.37-4.7 1.08-6.47a8.9 8.9 0 0 1 3.08-4.1 8.16 8.16 0 0 1 4.8-1.4c1.87 0 3.47.47 4.81 1.4a8.8 8.8 0 0 1 3.08 4.1 17.34 17.34 0 0 1 1.08 6.48c0 2.54-.36 4.72-1.08 6.52a8.87 8.87 0 0 1-3.08 4.11 8.09 8.09 0 0 1-4.8 1.42Zm0-3.55c1.46 0 2.6-.72 3.45-2.15.85-1.44 1.27-3.56 1.27-6.36 0-1.84-.2-3.4-.58-4.65a6.17 6.17 0 0 0-1.64-2.84 3.58 3.58 0 0 0-2.5-.97c-1.44 0-2.59.72-3.43 2.16-.84 1.43-1.26 3.53-1.27 6.3 0 1.86.18 3.42.56 4.69a6.27 6.27 0 0 0 1.63 2.86c.7.64 1.55.95 2.51.95Zm12.33-1.2v-3.36l9.87-15.6h2.8v4.77h-1.7l-6.66 10.53v.19h13.79v3.46h-18.1Zm11.1 4.3v-5.33l.04-1.5V91.14h3.98v23.27h-4.02Z" />
    </g>
    <g data-object="Сокол__r__2127:755">
      <path fill="#78B500"
        d="M145 418a12 12 0 0 1 12-12h101a12 12 0 0 1 12 12v116a12 12 0 0 1-12 12H157a12 12 0 0 1-12-12V418Z" />
      <path fill="#fff"
        d="M180.6 488.58c-1.69 0-3.19-.28-4.5-.85a7.5 7.5 0 0 1-3.07-2.33 5.5 5.5 0 0 1-1.09-3.38c0-.97.2-1.87.64-2.7a5.99 5.99 0 0 1 4.22-3.1v-.15a4.92 4.92 0 0 1-2.9-1.83 5.28 5.28 0 0 1-1.1-3.33c0-1.2.33-2.27 1-3.2a6.82 6.82 0 0 1 2.78-2.22 9.45 9.45 0 0 1 4.02-.82c1.5 0 2.82.27 3.99.82a6.83 6.83 0 0 1 2.77 2.21 5.33 5.33 0 0 1 1.02 3.2c0 1.27-.37 2.38-1.12 3.34a4.9 4.9 0 0 1-2.88 1.83v.16a6 6 0 0 1 4.86 5.8c0 1.25-.36 2.38-1.1 3.37a7.48 7.48 0 0 1-3.07 2.33c-1.3.56-2.79.85-4.47.85Zm0-3.25c.87 0 1.63-.15 2.27-.44a3.44 3.44 0 0 0 2.05-3.16c0-.75-.2-1.4-.58-1.97a3.8 3.8 0 0 0-1.53-1.35 4.82 4.82 0 0 0-2.21-.49 4.9 4.9 0 0 0-2.23.49c-.65.32-1.16.77-1.54 1.35a3.44 3.44 0 0 0-.55 1.97 3.3 3.3 0 0 0 2.03 3.14c.65.3 1.41.46 2.29.46Zm0-10.6a4 4 0 0 0 1.89-.44 3.28 3.28 0 0 0 1.8-2.98 3.13 3.13 0 0 0-1.78-2.92 4.17 4.17 0 0 0-1.91-.43 4.3 4.3 0 0 0-1.94.43 3.08 3.08 0 0 0-1.74 2.92c0 .67.14 1.26.45 1.78.32.5.76.91 1.31 1.2a4 4 0 0 0 1.92.44Zm23 .2v3.39h-10.47v-3.39h10.48Zm12.9 13.77a8.14 8.14 0 0 1-4.83-1.42 9.05 9.05 0 0 1-3.07-4.12 17.72 17.72 0 0 1-1.07-6.51c0-2.54.36-4.7 1.08-6.48a8.9 8.9 0 0 1 3.07-4.1 8.17 8.17 0 0 1 4.81-1.4c1.87 0 3.47.47 4.8 1.4a8.8 8.8 0 0 1 3.09 4.1 17.36 17.36 0 0 1 1.08 6.48c0 2.54-.36 4.72-1.08 6.52a8.88 8.88 0 0 1-3.08 4.11 8.08 8.08 0 0 1-4.8 1.42Zm0-3.55c1.45 0 2.6-.72 3.44-2.15.84-1.44 1.27-3.56 1.27-6.35 0-1.85-.2-3.4-.58-4.66a6.2 6.2 0 0 0-1.64-2.84 3.58 3.58 0 0 0-2.5-.97c-1.45 0-2.59.72-3.43 2.16-.84 1.43-1.27 3.53-1.27 6.3-.01 1.86.18 3.42.56 4.69a6.26 6.26 0 0 0 1.63 2.86c.7.64 1.54.96 2.51.96Zm12.96 3.11 9.9-19.59v-.16h-11.49V465h15.85v3.6l-9.88 19.67h-4.38Z" />
    </g>
    <g data-object="Сокол__r__2127:756">
      <path fill="#78B500"
        d="M404 354a12 12 0 0 1 12-12h116a12 12 0 0 1 12 12v36a12 12 0 0 1-12 12H416a12 12 0 0 1-12-12v-36Z" />
      <path fill="#fff"
        d="M445.89 384.14c-1.7 0-3.2-.28-4.5-.85a7.48 7.48 0 0 1-3.07-2.33 5.47 5.47 0 0 1-1.1-3.37c0-.98.21-1.88.65-2.7a5.99 5.99 0 0 1 4.22-3.1v-.16a4.92 4.92 0 0 1-2.9-1.83 5.28 5.28 0 0 1-1.1-3.33c0-1.2.33-2.26 1-3.2a6.82 6.82 0 0 1 2.78-2.22 9.45 9.45 0 0 1 4.02-.81c1.5 0 2.82.27 3.99.81a6.83 6.83 0 0 1 2.77 2.22c.68.94 1.02 2 1.02 3.2 0 1.26-.37 2.37-1.12 3.33a4.9 4.9 0 0 1-2.88 1.83v.16a6 6 0 0 1 4.86 5.8c0 1.25-.36 2.38-1.1 3.37a7.48 7.48 0 0 1-3.08 2.33c-1.3.57-2.78.85-4.46.85Zm0-3.25a5.4 5.4 0 0 0 2.27-.44 3.6 3.6 0 0 0 1.5-1.27 3.52 3.52 0 0 0-.03-3.85 3.8 3.8 0 0 0-1.54-1.36 4.82 4.82 0 0 0-2.2-.49 4.9 4.9 0 0 0-2.23.5c-.65.32-1.17.77-1.54 1.35a3.44 3.44 0 0 0-.55 1.96 3.3 3.3 0 0 0 2.02 3.15c.65.3 1.42.45 2.3.45Zm0-10.6c.71 0 1.34-.14 1.88-.43a3.29 3.29 0 0 0 1.8-2.99c0-.67-.17-1.25-.48-1.75-.3-.5-.74-.9-1.3-1.17a4.17 4.17 0 0 0-1.9-.42 4.3 4.3 0 0 0-1.94.42 3.08 3.08 0 0 0-1.74 2.92c-.01.68.14 1.27.45 1.79.32.5.75.9 1.3 1.2.57.29 1.2.43 1.93.43Zm23 .2v3.4h-10.47v-3.4h10.48Zm12.89 13.78a8.14 8.14 0 0 1-4.82-1.42 9.05 9.05 0 0 1-3.08-4.13 17.72 17.72 0 0 1-1.07-6.5c.01-2.55.37-4.7 1.08-6.49a8.91 8.91 0 0 1 3.08-4.09 8.17 8.17 0 0 1 4.81-1.4c1.86 0 3.47.46 4.8 1.4a8.8 8.8 0 0 1 3.09 4.1 17.36 17.36 0 0 1 1.08 6.47c0 2.55-.36 4.72-1.08 6.53a8.87 8.87 0 0 1-3.08 4.1 8.08 8.08 0 0 1-4.81 1.43Zm0-3.56c1.46 0 2.6-.71 3.44-2.14.85-1.44 1.28-3.56 1.28-6.36 0-1.85-.2-3.4-.58-4.66a6.2 6.2 0 0 0-1.64-2.84 3.59 3.59 0 0 0-2.5-.96c-1.45 0-2.6.72-3.43 2.16-.84 1.43-1.27 3.53-1.27 6.3-.01 1.86.17 3.42.55 4.68a6.26 6.26 0 0 0 1.64 2.87c.7.63 1.54.95 2.51.95Zm20.83 3.43a9.37 9.37 0 0 1-4.06-.85 7.26 7.26 0 0 1-2.86-2.36 6.2 6.2 0 0 1-1.11-3.43h4.09c.07.95.49 1.73 1.24 2.34.75.6 1.65.9 2.7.9a4.07 4.07 0 0 0 3.73-2.15c.37-.68.55-1.45.55-2.3 0-.89-.18-1.67-.56-2.35a4.17 4.17 0 0 0-1.56-1.6 4.35 4.35 0 0 0-2.27-.6c-.7 0-1.38.13-2.06.4-.67.26-1.2.6-1.6 1.04l-3.8-.63 1.2-12h13.5v3.53h-10l-.67 6.17h.13a4.8 4.8 0 0 1 1.83-1.26 6.46 6.46 0 0 1 2.6-.52 7.16 7.16 0 0 1 6.38 3.73 8.1 8.1 0 0 1 .95 3.98 7.57 7.57 0 0 1-4.01 6.94 8.93 8.93 0 0 1-4.34 1.02Z" />
    </g>
    <g data-object="Сокол__t__2127:757">
      <rect width="140" height="61" x="404" y="208" fill="#60A5FA" rx="12" />
      <g fill="#fff" clip-path="url(#b)">
        <path
          d="M474 225a5.25 5.25 0 1 0 0-10.5 5.25 5.25 0 0 0 0 10.5Zm4.5 1.5h-9a6.01 6.01 0 0 0-6 6v10.08a1.9 1.9 0 0 0 1.8 1.92 1.88 1.88 0 0 0 1.95-1.88v-9.34a.77.77 0 0 1 .7-.78.74.74 0 0 1 .74.45c.04.1.06.2.06.3v27.1a2.15 2.15 0 1 0 4.31 0v-13.38a.96.96 0 0 1 .88-.97.93.93 0 0 1 1 .94v13.4a2.15 2.15 0 1 0 4.31 0v-27.06a.77.77 0 0 1 .7-.78.74.74 0 0 1 .74.45c.04.1.06.2.06.3v9.33a1.9 1.9 0 0 0 1.8 1.92 1.88 1.88 0 0 0 1.95-1.88V232.5a6.01 6.01 0 0 0-6-6Z" />
      </g>
    </g>
    <g data-object="Сокол__t__2127:758">
      <rect width="141" height="61" y="270" fill="#60A5FA" rx="12" />
      <g fill="#fff" clip-path="url(#c)">
        <path
          d="M70.48 287a5.25 5.25 0 1 0 0-10.5 5.25 5.25 0 0 0 0 10.5Zm13.02 15.55-.97-3.22v-.01l-2.1-7.02h-.01l-.24-.8a4.2 4.2 0 0 0-4.03-3H64.9a4.2 4.2 0 0 0-4.03 3l-.24.8-2.1 7.02-.98 3.23a1.9 1.9 0 0 0 1.18 2.36 1.89 1.89 0 0 0 2.05-.58c.16-.19.28-.41.35-.66l2.4-7.99.2-.68a.75.75 0 0 1 1.28-.23.75.75 0 0 1 .16.63l-4.1 13.67a1.5 1.5 0 0 0 1.44 1.93h2.72v10.75c0 1.55.98 2.75 2.25 2.75 1.26 0 2.25-1.2 2.25-2.75V311h1.5v10.75c0 1.55.98 2.75 2.25 2.75 1.26 0 2.25-1.2 2.25-2.75V311h2.8a1.51 1.51 0 0 0 1.21-.6 1.5 1.5 0 0 0 .24-1.33l-4.1-13.67a.75.75 0 0 1 1.44-.4l.2.68 2.4 8a1.88 1.88 0 0 0 2.4 1.23 1.9 1.9 0 0 0 1.18-2.36Z" />
      </g>
    </g>
    <g data-object="Сокол__r__2127:759">
      <path fill="#78B500"
        d="M0 349a12 12 0 0 1 12-12h117a12 12 0 0 1 12 12v36a12 12 0 0 1-12 12H12a12 12 0 0 1-12-12v-36Z" />
      <path fill="#fff"
        d="M42.1 379.14c-1.68 0-3.18-.28-4.5-.85a7.49 7.49 0 0 1-3.06-2.33 5.47 5.47 0 0 1-1.1-3.37c0-.98.21-1.88.64-2.7a6 6 0 0 1 4.23-3.1v-.16a4.92 4.92 0 0 1-2.9-1.83 5.28 5.28 0 0 1-1.1-3.33c0-1.2.33-2.26 1-3.2a6.83 6.83 0 0 1 2.77-2.22 9.45 9.45 0 0 1 4.03-.81c1.49 0 2.82.27 3.99.81a6.83 6.83 0 0 1 2.77 2.22c.68.94 1.02 2 1.02 3.2 0 1.26-.37 2.37-1.12 3.33a4.9 4.9 0 0 1-2.88 1.83v.16a6 6 0 0 1 4.86 5.8c0 1.25-.37 2.38-1.1 3.37a7.49 7.49 0 0 1-3.08 2.33c-1.3.57-2.78.85-4.46.85Zm0-3.25a5.4 5.4 0 0 0 2.28-.44 3.6 3.6 0 0 0 1.5-1.27 3.53 3.53 0 0 0-.03-3.85 3.8 3.8 0 0 0-1.54-1.36 4.81 4.81 0 0 0-2.2-.49c-.84 0-1.58.17-2.23.5-.65.32-1.17.77-1.55 1.35a3.45 3.45 0 0 0-.54 1.96 3.3 3.3 0 0 0 2.02 3.15c.65.3 1.42.45 2.3.45Zm0-10.6a4 4 0 0 0 1.9-.43 3.29 3.29 0 0 0 1.79-2.99c0-.67-.17-1.25-.48-1.75-.3-.5-.74-.9-1.3-1.17a4.17 4.17 0 0 0-1.9-.42 4.3 4.3 0 0 0-1.95.42 3.08 3.08 0 0 0-1.73 2.92c-.01.68.14 1.27.45 1.79.32.5.75.9 1.3 1.2.57.29 1.2.43 1.93.43Zm23.02.2v3.4H54.64v-3.4h10.48ZM78 379.28a8.14 8.14 0 0 1-4.82-1.42 9.05 9.05 0 0 1-3.08-4.13 17.73 17.73 0 0 1-1.07-6.5c.01-2.55.37-4.7 1.08-6.49a8.9 8.9 0 0 1 3.08-4.09 8.17 8.17 0 0 1 4.81-1.4c1.86 0 3.47.46 4.8 1.4a8.8 8.8 0 0 1 3.09 4.1 17.35 17.35 0 0 1 1.08 6.47c0 2.55-.36 4.72-1.08 6.53a8.87 8.87 0 0 1-3.08 4.1 8.08 8.08 0 0 1-4.81 1.43Zm0-3.56c1.45 0 2.6-.71 3.44-2.14.85-1.44 1.28-3.56 1.28-6.36 0-1.85-.2-3.4-.58-4.66a6.19 6.19 0 0 0-1.64-2.84 3.59 3.59 0 0 0-2.5-.96c-1.45 0-2.6.72-3.43 2.16-.84 1.43-1.27 3.53-1.27 6.3-.01 1.86.17 3.42.55 4.68a6.27 6.27 0 0 0 1.64 2.87c.7.63 1.54.95 2.51.95Zm21.01 3.43c-1.69 0-3.19-.28-4.5-.85a7.49 7.49 0 0 1-3.06-2.33 5.47 5.47 0 0 1-1.1-3.37c0-.98.2-1.88.64-2.7a6 6 0 0 1 4.23-3.1v-.16a4.92 4.92 0 0 1-2.91-1.83 5.28 5.28 0 0 1-1.1-3.33c0-1.2.33-2.26 1-3.2a6.83 6.83 0 0 1 2.78-2.22 9.45 9.45 0 0 1 4.02-.81c1.5 0 2.83.27 4 .81a6.82 6.82 0 0 1 2.77 2.22c.68.94 1.02 2 1.02 3.2 0 1.26-.38 2.37-1.13 3.33a4.91 4.91 0 0 1-2.87 1.83v.16a5.99 5.99 0 0 1 4.86 5.8 5.5 5.5 0 0 1-1.11 3.37 7.5 7.5 0 0 1-3.07 2.33 11 11 0 0 1-4.47.85Zm0-3.25a5.4 5.4 0 0 0 2.28-.44 3.6 3.6 0 0 0 1.5-1.27c.35-.55.53-1.18.54-1.89 0-.74-.2-1.4-.58-1.96a3.8 3.8 0 0 0-1.53-1.36 4.81 4.81 0 0 0-2.2-.49c-.84 0-1.58.17-2.23.5-.66.32-1.17.77-1.55 1.35a3.45 3.45 0 0 0-.54 1.96 3.3 3.3 0 0 0 2.02 3.15c.65.3 1.41.45 2.3.45Zm0-10.6c.72 0 1.34-.14 1.89-.43a3.29 3.29 0 0 0 1.8-2.99 3.34 3.34 0 0 0-.48-1.75c-.31-.5-.74-.9-1.3-1.17a4.17 4.17 0 0 0-1.9-.42 4.3 4.3 0 0 0-1.95.42 3.08 3.08 0 0 0-1.74 2.92c0 .68.15 1.27.46 1.79.31.5.75.9 1.3 1.2.56.29 1.2.43 1.92.43Z" />
    </g>
    <g data-object="Сокол__r__2127:810">
      <path fill="#78B500"
        d="M146 13a12 12 0 0 1 12-12h103a12 12 0 0 1 12 12v136a12 12 0 0 1-12 12H158a12 12 0 0 1-12-12V13Z" />
      <path fill="#fff"
        d="M182.09 93.19c-1.7 0-3.2-.29-4.5-.85a7.5 7.5 0 0 1-3.07-2.33c-.74-1-1.1-2.12-1.1-3.38 0-.98.21-1.87.64-2.7a6 6 0 0 1 4.23-3.1v-.15a4.92 4.92 0 0 1-2.9-1.83 5.28 5.28 0 0 1-1.1-3.33c0-1.2.33-2.27 1-3.2a6.82 6.82 0 0 1 2.77-2.22 9.45 9.45 0 0 1 4.03-.82 9.2 9.2 0 0 1 3.98.82 6.82 6.82 0 0 1 2.78 2.21 5.33 5.33 0 0 1 1.02 3.2 5.3 5.3 0 0 1-1.13 3.34 4.91 4.91 0 0 1-2.87 1.83v.16a6 6 0 0 1 4.86 5.8 5.5 5.5 0 0 1-1.11 3.37 7.5 7.5 0 0 1-3.07 2.33c-1.3.56-2.78.85-4.46.85Zm0-3.25a5.4 5.4 0 0 0 2.27-.45 3.4 3.4 0 0 0 2.04-3.15c0-.75-.2-1.4-.58-1.97a3.8 3.8 0 0 0-1.53-1.35 4.82 4.82 0 0 0-2.2-.5c-.84 0-1.58.17-2.23.5a3.9 3.9 0 0 0-1.55 1.35 3.45 3.45 0 0 0-.54 1.97 3.31 3.31 0 0 0 2.02 3.14c.65.3 1.42.46 2.3.46Zm0-10.6c.7 0 1.34-.15 1.88-.44a3.29 3.29 0 0 0 1.8-2.98 3.34 3.34 0 0 0-.48-1.75 3.1 3.1 0 0 0-1.3-1.18 4.17 4.17 0 0 0-1.9-.42 4.3 4.3 0 0 0-1.95.42 3.08 3.08 0 0 0-1.74 2.93c0 .67.15 1.26.46 1.78.32.5.75.9 1.3 1.2.57.3 1.2.44 1.93.44Zm23 .2v3.39h-10.47v-3.39h10.47Zm12.89 13.77a8.14 8.14 0 0 1-4.82-1.42 9.05 9.05 0 0 1-3.08-4.12 17.74 17.74 0 0 1-1.07-6.51c0-2.54.37-4.7 1.08-6.48a8.9 8.9 0 0 1 3.08-4.1 8.16 8.16 0 0 1 4.8-1.4c1.87 0 3.47.47 4.81 1.4a8.8 8.8 0 0 1 3.08 4.1 17.34 17.34 0 0 1 1.08 6.48c0 2.54-.36 4.72-1.08 6.52a8.87 8.87 0 0 1-3.08 4.11 8.08 8.08 0 0 1-4.8 1.42Zm0-3.55c1.45 0 2.6-.72 3.44-2.15.85-1.44 1.27-3.56 1.27-6.35 0-1.85-.19-3.4-.58-4.66a6.18 6.18 0 0 0-1.63-2.84 3.58 3.58 0 0 0-2.5-.97c-1.45 0-2.6.72-3.43 2.16-.84 1.43-1.27 3.53-1.28 6.3 0 1.86.18 3.42.56 4.69a6.27 6.27 0 0 0 1.64 2.86c.7.64 1.54.96 2.5.96Zm12.74 3.11v-3.05l8.08-7.92c.77-.78 1.41-1.47 1.93-2.08.52-.6.9-1.19 1.16-1.76.26-.57.39-1.17.39-1.82a3.32 3.32 0 0 0-1.88-3.11 4.43 4.43 0 0 0-1.99-.43 4.1 4.1 0 0 0-2 .48c-.59.3-1.03.75-1.35 1.33a4.27 4.27 0 0 0-.47 2.05h-4c0-1.47.33-2.76 1-3.85a6.82 6.82 0 0 1 2.79-2.53c1.19-.6 2.55-.9 4.09-.9a9.2 9.2 0 0 1 4.11.87 6.7 6.7 0 0 1 2.75 2.4c.66 1.02 1 2.18 1 3.48a6.9 6.9 0 0 1-.5 2.57 10.9 10.9 0 0 1-1.77 2.8 44.5 44.5 0 0 1-3.51 3.7l-4.01 4.09v.16h10.13v3.52h-15.95Z" />
    </g>
    <g data-object="Сокол__e__2372:121">
      <rect width="94" height="123" x="273" y="208" fill="#fff" rx="12" />
      <g>
        <g>
          <mask id="d" fill="#fff">
            <path
              d="M296 239.5a3 3 0 0 1 3-3h42a3 3 0 0 1 3 3v59a3 3 0 0 1-3 3h-42a3 3 0 0 1-3-3v-59Z" />
          </mask>
          <path fill="#000"
            d="M293 239.5a6 6 0 0 1 6-6h52a6 6 0 0 1 6 6h-64Zm64 59a6 6 0 0 1-6 6h-52a6 6 0 0 1-6-6h64Zm-58 6a6 6 0 0 1-6-6v-59a6 6 0 0 1 6-6v71Zm52-71a6 6 0 0 1 6 6v59a6 6 0 0 1-6 6l-20-6v-59l20-6Z"
            mask="url(#d)" />
        </g>
        <path fill="#fff"
          d="m335.71 263.7.8-.8v4.6a1 1 0 1 0 1.99 0v-4.6l.79.8a.99.99 0 0 0 1.09.23 1 1 0 0 0 .32-1.64l-2.5-2.5a.87.87 0 0 0-.32-.22 1 1 0 0 0-.76 0 1 1 0 0 0-.33.22l-2.5 2.5a1 1 0 0 0 1.42 1.42Zm3.58 11.59-.8.8v-4.6a1 1 0 1 0-1.99 0v4.6l-.79-.8a1.01 1.01 0 0 0-1.1-.22 1.01 1.01 0 0 0-.53 1.31c.05.13.12.24.21.33l2.5 2.5c.1.1.2.16.33.21a.93.93 0 0 0 .76 0c.12-.05.23-.12.33-.21l2.5-2.5a1 1 0 0 0-1.42-1.42Z" />
        <path fill="#000"
          d="M314.5 257a5.25 5.25 0 1 0 0-10.5 5.25 5.25 0 0 0 0 10.5Zm4.5 0h-9a6.01 6.01 0 0 0-6 6v10.08a1.9 1.9 0 0 0 1.8 1.92 1.88 1.88 0 0 0 1.95-1.88v-9.35a.77.77 0 0 1 .7-.77.74.74 0 0 1 .74.45c.04.1.06.2.06.3v27.1a2.15 2.15 0 1 0 4.31 0v-13.38a.96.96 0 0 1 .88-.97.93.93 0 0 1 1 .94v13.4a2.15 2.15 0 1 0 4.31 0v-27.06a.77.77 0 0 1 .7-.78.74.74 0 0 1 .74.45c.04.1.06.2.06.3v9.33a1.9 1.9 0 0 0 1.8 1.92 1.88 1.88 0 0 0 1.95-1.88V263a6.01 6.01 0 0 0-6-6Z" />
      </g>
    </g>
    <g data-object="Сокол__r__2127:813">
      <path fill="#78B500"
        d="M279 12a12 12 0 0 1 12-12h103a12 12 0 0 1 12 12v137a12 12 0 0 1-12 12H291a12 12 0 0 1-12-12V12Z" />
      <path fill="#fff"
        d="M314.1 92.52c-1.69 0-3.19-.29-4.5-.85a7.49 7.49 0 0 1-3.07-2.33 5.5 5.5 0 0 1-1.09-3.38c0-.98.2-1.87.64-2.7a6.01 6.01 0 0 1 4.23-3.1v-.15a4.92 4.92 0 0 1-2.91-1.83 5.28 5.28 0 0 1-1.1-3.33c0-1.2.33-2.27 1-3.2a6.82 6.82 0 0 1 2.78-2.22 9.45 9.45 0 0 1 4.02-.82c1.5 0 2.82.27 3.99.82a6.83 6.83 0 0 1 2.77 2.21 5.33 5.33 0 0 1 1.02 3.2c0 1.27-.37 2.38-1.12 3.34a4.91 4.91 0 0 1-2.88 1.83v.16a6 6 0 0 1 4.86 5.8c0 1.25-.36 2.37-1.1 3.37a7.49 7.49 0 0 1-3.07 2.33c-1.3.56-2.79.85-4.47.85Zm0-3.25a5.4 5.4 0 0 0 2.27-.44 3.44 3.44 0 0 0 2.04-3.16c0-.75-.2-1.4-.57-1.97a3.8 3.8 0 0 0-1.53-1.35 4.82 4.82 0 0 0-2.2-.5 4.9 4.9 0 0 0-2.24.5 3.9 3.9 0 0 0-1.54 1.35 3.44 3.44 0 0 0-.55 1.97 3.3 3.3 0 0 0 2.03 3.14c.65.3 1.41.46 2.3.46Zm0-10.6a4 4 0 0 0 1.89-.44 3.28 3.28 0 0 0 1.8-2.98 3.44 3.44 0 0 0-.48-1.75c-.31-.51-.75-.9-1.3-1.17a4.17 4.17 0 0 0-1.9-.43c-.74 0-1.4.14-1.95.42a3.08 3.08 0 0 0-1.74 2.93c0 .67.14 1.26.45 1.78.32.5.76.9 1.31 1.2a4 4 0 0 0 1.92.44Zm23.01.2v3.39h-10.48v-3.39h10.48Zm12.88 13.77a8.14 8.14 0 0 1-4.81-1.42 9.05 9.05 0 0 1-3.08-4.12 17.74 17.74 0 0 1-1.07-6.51c0-2.54.37-4.7 1.08-6.48a8.9 8.9 0 0 1 3.08-4.1 8.17 8.17 0 0 1 4.8-1.4c1.87 0 3.47.47 4.81 1.4a8.81 8.81 0 0 1 3.08 4.1 17.36 17.36 0 0 1 1.08 6.48c0 2.54-.36 4.72-1.08 6.52a8.88 8.88 0 0 1-3.08 4.11 8.08 8.08 0 0 1-4.8 1.42Zm0-3.55c1.46 0 2.6-.72 3.45-2.15.85-1.44 1.27-3.56 1.27-6.35 0-1.85-.2-3.4-.58-4.66a6.18 6.18 0 0 0-1.64-2.84 3.58 3.58 0 0 0-2.5-.97c-1.44 0-2.59.72-3.43 2.16-.84 1.43-1.26 3.53-1.27 6.3 0 1.86.18 3.42.56 4.69a6.27 6.27 0 0 0 1.63 2.86c.7.64 1.54.96 2.51.96Zm21.1 3.43c-1.64 0-3.1-.28-4.37-.84a7.3 7.3 0 0 1-3-2.34 6.06 6.06 0 0 1-1.17-3.47h4.28c.03.63.24 1.18.62 1.65.38.46.88.82 1.51 1.08.63.26 1.34.38 2.12.38.83 0 1.57-.14 2.21-.43.64-.3 1.15-.7 1.51-1.22a3 3 0 0 0 .54-1.81c0-.7-.18-1.33-.55-1.87a3.66 3.66 0 0 0-1.61-1.26 6.3 6.3 0 0 0-2.53-.45h-2.05v-3.25h2.05c.82 0 1.52-.14 2.13-.42.61-.28 1.1-.68 1.44-1.18.35-.52.52-1.11.51-1.79a3.1 3.1 0 0 0-.44-1.71 3 3 0 0 0-1.26-1.15 5 5 0 0 0-3.88-.02c-.6.25-1.09.62-1.46 1.1a2.8 2.8 0 0 0-.6 1.68h-4.05a5.9 5.9 0 0 1 1.13-3.43c.72-1 1.7-1.77 2.9-2.32a9.6 9.6 0 0 1 4.08-.84c1.56 0 2.9.3 4.05.87a6.6 6.6 0 0 1 2.67 2.33c.63.98.94 2.06.94 3.24a4.77 4.77 0 0 1-1.16 3.3 5.44 5.44 0 0 1-3.04 1.74v.18a5.9 5.9 0 0 1 3.76 1.82 5.17 5.17 0 0 1 1.3 3.64c0 1.3-.36 2.47-1.1 3.5a7.38 7.38 0 0 1-3.05 2.41c-1.29.59-2.77.88-4.43.88Z" />
    </g>
  </g>
  <defs>
    <clipPath id="a">
      <path fill="#fff" d="M46.5 212h48v48h-48z" />
    </clipPath>
    <clipPath id="b">
      <path fill="#fff" d="M450 214.5h48v48h-48z" />
    </clipPath>
    <clipPath id="c">
      <path fill="#fff" d="M46.5 276.5h48v48h-48z" />
    </clipPath>
  </defs>
</svg>