<svg xmlns="http://www.w3.org/2000/svg" width="547" height="549" fill="none" viewBox="0 0 547 549">
  <g>
    <g>
      <rect width="25" height="19" x="129" y="437" fill="#262A34" rx="3" />
    </g>
    <g>
      <path fill="#262A34"
        d="M144 394.75c0 5.1 4.14 9.25 9.25 9.25h35a7.75 7.75 0 0 1 7.75 7.75 7.75 7.75 0 0 0 7.75 7.75h5.5a7.75 7.75 0 0 0 7.75-7.75 7.75 7.75 0 0 1 7.75-7.75H323a7.5 7.5 0 0 1 7.5 7.5 7.5 7.5 0 0 0 7.5 7.5h5a7.5 7.5 0 0 0 7.5-7.5 7.5 7.5 0 0 1 7.5-7.5h50a6.5 6.5 0 0 1 6.5 6.5 6.5 6.5 0 0 0 6.5 6.5h7.5a6.5 6.5 0 0 0 6.5-6.5v-4.75c0-.97.78-1.75 1.75-1.75s1.75-.78 1.75-1.75V389.5a5.5 5.5 0 0 1 5.5-5.5 5.5 5.5 0 0 0 5.5-5.5v-9a5.5 5.5 0 0 0-5.5-5.5 5.5 5.5 0 0 1-5.5-5.5v-4.75c0-5.66-4.59-10.25-10.25-10.25H408.5a12 12 0 0 1-12-12v-14.75a7.75 7.75 0 0 1 7.75-7.75 7.75 7.75 0 0 0 7.75-7.75V299a7.75 7.75 0 0 0-7.75-7.75 7.75 7.75 0 0 1-7.75-7.75v-39a5.5 5.5 0 0 1 5.5-5.5 5.5 5.5 0 0 0 5.5-5.5V226a5.5 5.5 0 0 0-5.5-5.5 5.5 5.5 0 0 1-5.5-5.5v-12a2.5 2.5 0 0 1 2.5-2.5 2.5 2.5 0 0 0 2.5-2.5v-8.25c0-2.9 2.35-5.25 5.25-5.25s5.25-2.35 5.25-5.25v-8.5c0-2.9-2.35-5.25-5.25-5.25h-.5a4.75 4.75 0 0 1-4.75-4.75v-1.25a3.5 3.5 0 0 0-3.5-3.5h-.5a3 3 0 0 1-3-3 3 3 0 0 0-3-3h-8a3 3 0 0 0-3 3v1.25c0 .97-.78 1.75-1.75 1.75s-1.75.78-1.75 1.75v47.5a6.75 6.75 0 0 1-6.75 6.75 6.75 6.75 0 0 0-6.75 6.75V247a3 3 0 0 1-3 3 3 3 0 0 0-3 3v1.5a3.5 3.5 0 0 1-3.5 3.5 3.5 3.5 0 0 0-3.5 3.5V273a3.5 3.5 0 0 0 3.5 3.5 3.5 3.5 0 0 1 3.5 3.5v1.5a3 3 0 0 0 3 3 3 3 0 0 1 3 3V325a12 12 0 0 1-12 12H281a12 12 0 0 1-12-12v-41a4.5 4.5 0 0 1 4.5-4.5 4.5 4.5 0 0 0 4.5-4.5v-9.5a4.5 4.5 0 0 0-4.5-4.5 4.5 4.5 0 0 1-4.5-4.5v-14a4.5 4.5 0 0 1 4.5-4.5 4.5 4.5 0 0 0 4.5-4.5V225a4.5 4.5 0 0 0-4.5-4.5 4.5 4.5 0 0 1-4.5-4.5v-1.25a5.75 5.75 0 0 0-5.75-5.75h-42.5a2.75 2.75 0 1 1 0-5.5h5a7.75 7.75 0 0 0 7.75-7.75v-40.5c0-3.45-2.8-6.25-6.25-6.25h-1a5.25 5.25 0 0 1-5.25-5.25c0-2.9-2.35-5.25-5.25-5.25h-8a5.25 5.25 0 0 0-5.25 5.25c0 2.9-2.35 5.25-5.25 5.25h-47.5a5.75 5.75 0 0 0-5.75 5.75 5.75 5.75 0 0 1-5.75 5.75h-1a6.75 6.75 0 0 0-6.75 6.75v4a6.75 6.75 0 0 0 6.75 6.75 6.75 6.75 0 0 1 6.75 6.75v6.75a12 12 0 0 0 12 12h38.25a2.75 2.75 0 1 1 0 5.5h-41a9.25 9.25 0 0 0-9.25 9.25v3c0 3.45-2.8 6.25-6.25 6.25a6.25 6.25 0 0 0-6.25 6.25v5c0 3.45 2.8 6.25 6.25 6.25s6.25 2.8 6.25 6.25v46c0 2.9-2.35 5.25-5.25 5.25a5.25 5.25 0 0 0-5.25 5.25v9c0 2.9 2.35 5.25 5.25 5.25s5.25 2.35 5.25 5.25v33.25a4.5 4.5 0 0 1-4.5 4.5 4.5 4.5 0 0 0-4.5 4.5V381a4.5 4.5 0 0 0 4.5 4.5 4.5 4.5 0 0 1 4.5 4.5v4.75Z" />
    </g>
    <g>
      <rect width="25" height="19" x="127" y="498" fill="#262A34" rx="3" />
    </g>
    <g data-object="Сокол__e__2213:144">
      <rect width="81" height="74" x="273" y="211" fill="#fff" rx="12" />
      <g clip-path="url(#a)">
        <g>
          <mask id="b" fill="#fff">
            <path
              d="M289.5 218a3 3 0 0 1 3-3h42a3 3 0 0 1 3 3v59a3 3 0 0 1-3 3h-42a3 3 0 0 1-3-3v-59Z" />
          </mask>
          <path fill="#000"
            d="M286.5 218a6 6 0 0 1 6-6h52a6 6 0 0 1 6 6h-64Zm64 59a6 6 0 0 1-6 6h-52a6 6 0 0 1-6-6h64Zm-58 6a6 6 0 0 1-6-6v-59a6 6 0 0 1 6-6v71Zm52-71a6 6 0 0 1 6 6v59a6 6 0 0 1-6 6l-20-6v-59l20-6Z"
            mask="url(#b)" />
        </g>
        <path fill="#fff"
          d="m329.21 242.2.8-.8v4.6a1 1 0 1 0 1.99 0v-4.6l.79.8a.99.99 0 0 0 1.09.23 1 1 0 0 0 .32-1.64l-2.5-2.5a.87.87 0 0 0-.32-.22 1 1 0 0 0-.76 0 1 1 0 0 0-.33.22l-2.5 2.5a1 1 0 0 0 1.42 1.42Zm3.58 11.59-.8.8v-4.6a1 1 0 1 0-1.99 0v4.6l-.79-.8a1.01 1.01 0 0 0-1.1-.22 1.01 1.01 0 0 0-.53 1.31c.05.13.12.24.21.33l2.5 2.5c.1.1.2.16.33.21a.93.93 0 0 0 .76 0c.12-.05.23-.12.33-.21l2.5-2.5a1 1 0 0 0-1.42-1.42Z" />
        <path fill="#000"
          d="M308 235.5a5.25 5.25 0 1 0 0-10.5 5.25 5.25 0 0 0 0 10.5Zm4.5 0h-9a6.01 6.01 0 0 0-6 6v10.08a1.9 1.9 0 0 0 1.8 1.92 1.88 1.88 0 0 0 1.95-1.88v-9.34a.77.77 0 0 1 .7-.78.74.74 0 0 1 .74.45c.04.1.06.2.06.3v27.1a2.15 2.15 0 1 0 4.31 0v-13.38a.96.96 0 0 1 .88-.97.93.93 0 0 1 1 .94v13.4a2.15 2.15 0 1 0 4.31 0v-27.06a.77.77 0 0 1 .7-.78.74.74 0 0 1 .74.45c.04.1.06.2.06.3v9.33a1.9 1.9 0 0 0 1.8 1.92 1.88 1.88 0 0 0 1.95-1.88V241.5a6.01 6.01 0 0 0-6-6Z" />
      </g>
    </g>
    <g data-object="Сокол__s__2213:212">
      <rect width="138" height="61" x="1" y="209" fill="#fff" rx="12" />
      <g>
        <path fill="#000"
          d="M92.45 222.5h-7.49v7.5c0 .13-.01.22-.04.28a1.48 1.48 0 0 1-1.46 1.22h-7.49v7.5c0 .13-.01.22-.05.28a1.48 1.48 0 0 1-1.45 1.22h-7.49v7.5c0 .13-.02.22-.05.28a1.48 1.48 0 0 1-1.45 1.22h-7.5v7.5c0 .13 0 .22-.04.28a1.48 1.48 0 0 1-1.45 1.22h-9c-.4 0-.75-.15-1.05-.44a1.5 1.5 0 0 1 0-2.12c.3-.3.65-.44 1.06-.44H55V248c0-.13 0-.22.04-.28.06-.34.23-.63.51-.87.28-.23.6-.35.94-.35h7.5V239c0-.13 0-.22.04-.28.06-.34.23-.63.51-.87.29-.23.6-.35.94-.35h7.5V230c0-.1 0-.19.04-.28.06-.34.23-.63.52-.87.28-.23.59-.35.93-.35h7.5V221c0-.13.01-.22.04-.28a1.48 1.48 0 0 1 1.45-1.22h9c.4 0 .75.15 1.05.44a1.5 1.5 0 0 1 0 2.12c-.3.3-.65.44-1.06.44Z" />
      </g>
    </g>
    <g data-object="Сокол__t__2213:222">
      <rect width="146" height="60" x="401" y="213" fill="#60A5FA" rx="12" />
      <g fill="#fff">
        <path
          d="M474 229.5a5.25 5.25 0 1 0 0-10.5 5.25 5.25 0 0 0 0 10.5Zm4.5 1.5h-9a6.01 6.01 0 0 0-6 6v10.08a1.9 1.9 0 0 0 1.8 1.92 1.88 1.88 0 0 0 1.95-1.88v-9.34a.77.77 0 0 1 .7-.78.74.74 0 0 1 .74.45c.04.1.06.2.06.3v27.1a2.15 2.15 0 1 0 4.31 0v-13.38a.96.96 0 0 1 .88-.97.93.93 0 0 1 1 .94v13.4a2.15 2.15 0 1 0 4.31 0v-27.06a.77.77 0 0 1 .7-.78.74.74 0 0 1 .74.45c.04.1.06.2.06.3v9.33a1.9 1.9 0 0 0 1.8 1.92 1.88 1.88 0 0 0 1.95-1.88V237a6.01 6.01 0 0 0-6-6Z" />
      </g>
    </g>
    <g data-object="Сокол__s__2213:215">
      <rect width="142" height="62" x="405" y="276" fill="#fff" rx="12" />
      <g>
        <path fill="#000"
          d="M498.45 290h-7.49v7.5c0 .13-.01.22-.04.28a1.47 1.47 0 0 1-1.46 1.22h-7.49v7.5c0 .13-.02.22-.05.28a1.48 1.48 0 0 1-1.45 1.22h-7.49v7.5c0 .13-.02.22-.05.28-.06.35-.22.63-.49.87a1.4 1.4 0 0 1-.96.35h-7.5v7.5c0 .13 0 .22-.04.28a1.48 1.48 0 0 1-1.45 1.22h-9c-.4 0-.75-.15-1.05-.44a1.5 1.5 0 0 1 0-2.12c.3-.3.65-.44 1.06-.44h7.5v-7.5c0-.13 0-.22.04-.28.06-.35.23-.63.51-.87.28-.23.6-.35.94-.35h7.5v-7.5c0-.13 0-.22.04-.28.06-.35.23-.63.51-.87.28-.23.6-.35.94-.35h7.5v-7.5c0-.1 0-.19.04-.28.06-.35.24-.63.52-.87.28-.23.59-.35.93-.35h7.5v-7.5c0-.13.01-.22.04-.28a1.48 1.48 0 0 1 1.45-1.22h9c.4 0 .75.15 1.05.44.3.3.44.65.44 1.06 0 .4-.14.76-.44 1.06-.3.3-.65.44-1.06.44Z" />
      </g>
    </g>
    <g data-object="Сокол__r__2880:2547">
      <path fill="#78B500"
        d="M442 353a12 12 0 0 1 12-12h81a12 12 0 0 1 12 12v41a12 12 0 0 1-12 12h-81a12 12 0 0 1-12-12v-41Z" />
      <path fill="#fff"
        d="M460.32 362.2v23.28h-4.22V366.3h-.14l-5.44 3.48v-3.87l5.78-3.71h4.02Zm14.5 23.72a8.14 8.14 0 0 1-4.81-1.42 9.06 9.06 0 0 1-3.08-4.12 17.74 17.74 0 0 1-1.07-6.51c0-2.54.37-4.7 1.08-6.48a8.9 8.9 0 0 1 3.08-4.1 8.17 8.17 0 0 1 4.8-1.4c1.87 0 3.47.47 4.81 1.4a8.8 8.8 0 0 1 3.08 4.1 17.34 17.34 0 0 1 1.08 6.48c0 2.54-.36 4.71-1.08 6.52a8.87 8.87 0 0 1-3.08 4.11 8.08 8.08 0 0 1-4.8 1.42Zm0-3.56c1.46 0 2.6-.71 3.45-2.14.85-1.44 1.27-3.56 1.27-6.36 0-1.84-.19-3.4-.58-4.65a6.17 6.17 0 0 0-1.63-2.84 3.58 3.58 0 0 0-2.5-.97c-1.45 0-2.6.72-3.44 2.16-.84 1.43-1.26 3.53-1.27 6.3 0 1.86.18 3.42.56 4.69a6.27 6.27 0 0 0 1.64 2.86c.7.64 1.54.95 2.5.95Zm23.37-10.21v3.39h-10.47v-3.4h10.47Zm12.89 13.77a8.14 8.14 0 0 1-4.82-1.42 9.06 9.06 0 0 1-3.08-4.12 17.74 17.74 0 0 1-1.07-6.51c0-2.54.37-4.7 1.08-6.48a8.9 8.9 0 0 1 3.08-4.1 8.17 8.17 0 0 1 4.8-1.4c1.87 0 3.47.47 4.81 1.4a8.8 8.8 0 0 1 3.08 4.1 17.34 17.34 0 0 1 1.08 6.48c0 2.54-.36 4.71-1.08 6.52a8.87 8.87 0 0 1-3.08 4.11 8.08 8.08 0 0 1-4.8 1.42Zm0-3.56c1.45 0 2.6-.71 3.44-2.14.85-1.44 1.27-3.56 1.27-6.36 0-1.84-.19-3.4-.58-4.65a6.17 6.17 0 0 0-1.63-2.84 3.58 3.58 0 0 0-2.5-.97c-1.45 0-2.6.72-3.44 2.16-.84 1.43-1.26 3.53-1.27 6.3 0 1.86.18 3.42.56 4.69a6.27 6.27 0 0 0 1.64 2.86c.7.64 1.54.95 2.5.95Zm12.97 3.12 9.9-19.6v-.15h-11.5v-3.52h15.86v3.6l-9.89 19.67h-4.37Z" />
    </g>
    <g data-object="Сокол__r__2880:2543">
      <path fill="#78B500"
        d="M405 421a12 12 0 0 1 12-12h118a12 12 0 0 1 12 12v116a12 12 0 0 1-12 12H417a12 12 0 0 1-12-12V421Z" />
      <path fill="#fff"
        d="M440.64 467.99v23.27h-4.21V472.1h-.14l-5.44 3.48v-3.87l5.78-3.71h4.01Zm14.52 23.71a8.14 8.14 0 0 1-4.82-1.42 9.06 9.06 0 0 1-3.08-4.12 17.74 17.74 0 0 1-1.07-6.51c0-2.54.37-4.7 1.08-6.48a8.9 8.9 0 0 1 3.08-4.1 8.17 8.17 0 0 1 4.8-1.4c1.87 0 3.47.47 4.81 1.4a8.8 8.8 0 0 1 3.08 4.1 17.36 17.36 0 0 1 1.08 6.48c0 2.54-.36 4.72-1.08 6.52a8.88 8.88 0 0 1-3.08 4.11 8.08 8.08 0 0 1-4.8 1.42Zm0-3.55c1.45 0 2.6-.72 3.44-2.15.85-1.44 1.27-3.56 1.27-6.35 0-1.85-.2-3.4-.58-4.66a6.2 6.2 0 0 0-1.63-2.84 3.58 3.58 0 0 0-2.5-.97c-1.45 0-2.6.72-3.44 2.16-.84 1.43-1.26 3.53-1.27 6.3 0 1.86.18 3.42.56 4.69a6.27 6.27 0 0 0 1.63 2.86c.7.64 1.55.96 2.52.96Zm23.36-10.22v3.39h-10.47v-3.39h10.47Zm12.89 13.77a8.14 8.14 0 0 1-4.82-1.42 9.06 9.06 0 0 1-3.08-4.12 17.74 17.74 0 0 1-1.07-6.51c0-2.54.37-4.7 1.08-6.48a8.9 8.9 0 0 1 3.08-4.1 8.17 8.17 0 0 1 4.8-1.4c1.87 0 3.47.47 4.81 1.4a8.8 8.8 0 0 1 3.08 4.1 17.36 17.36 0 0 1 1.08 6.48c0 2.54-.36 4.72-1.08 6.52a8.88 8.88 0 0 1-3.08 4.11 8.08 8.08 0 0 1-4.8 1.42Zm0-3.55c1.45 0 2.6-.72 3.44-2.15.85-1.44 1.27-3.56 1.27-6.35 0-1.85-.2-3.4-.58-4.66a6.2 6.2 0 0 0-1.63-2.84 3.58 3.58 0 0 0-2.5-.97c-1.45 0-2.6.72-3.44 2.16-.84 1.43-1.26 3.53-1.27 6.3 0 1.86.18 3.42.56 4.69a6.27 6.27 0 0 0 1.63 2.86c.7.64 1.55.96 2.52.96Zm21.26 3.43c-1.11 0-2.2-.2-3.26-.58a7.69 7.69 0 0 1-2.87-1.88 9.23 9.23 0 0 1-2.02-3.46c-.5-1.45-.74-3.24-.74-5.38 0-1.99.22-3.76.64-5.33a11.77 11.77 0 0 1 1.83-3.95 8.07 8.07 0 0 1 2.88-2.48 8.3 8.3 0 0 1 3.78-.85c1.46 0 2.76.29 3.88.86a7.3 7.3 0 0 1 4.05 5.73h-4.15a3.7 3.7 0 0 0-1.3-2.13 3.76 3.76 0 0 0-2.48-.81c-1.61 0-2.86.7-3.73 2.1-.86 1.4-1.3 3.33-1.3 5.77h.15c.38-.66.86-1.24 1.45-1.71a7.05 7.05 0 0 1 4.38-1.5 6.99 6.99 0 0 1 6.25 3.67 7.8 7.8 0 0 1 .95 3.9c0 1.54-.34 2.91-1.05 4.13a7.58 7.58 0 0 1-2.94 2.87 8.83 8.83 0 0 1-4.4 1.03Zm-.02-3.41a4.15 4.15 0 0 0 3.76-2.23c.38-.68.56-1.44.56-2.3 0-.83-.18-1.58-.55-2.25a4.15 4.15 0 0 0-3.72-2.2 4.18 4.18 0 0 0-3.1 1.33 4.6 4.6 0 0 0 .83 7.04c.65.4 1.4.61 2.22.61Z" />
    </g>
    <g data-object="Сокол__r__2880:2539">
      <path fill="#78B500"
        d="M273 421a12 12 0 0 1 12-12h103a12 12 0 0 1 12 12v116a12 12 0 0 1-12 12H285a12 12 0 0 1-12-12V421Z" />
      <path fill="#fff"
        d="M301.56 467.99v23.27h-4.22V472.1h-.13l-5.44 3.48v-3.87l5.78-3.71h4.01Zm14.51 23.71a8.14 8.14 0 0 1-4.82-1.42 9.05 9.05 0 0 1-3.08-4.12 17.72 17.72 0 0 1-1.06-6.51c0-2.54.36-4.7 1.07-6.48a8.9 8.9 0 0 1 3.08-4.1 8.16 8.16 0 0 1 4.81-1.4c1.87 0 3.47.47 4.8 1.4a8.8 8.8 0 0 1 3.09 4.1 17.36 17.36 0 0 1 1.08 6.48c0 2.54-.36 4.72-1.08 6.52a8.88 8.88 0 0 1-3.08 4.11 8.08 8.08 0 0 1-4.8 1.42Zm0-3.55c1.46 0 2.6-.72 3.44-2.15.85-1.44 1.28-3.56 1.28-6.35 0-1.85-.2-3.4-.58-4.66a6.2 6.2 0 0 0-1.64-2.84 3.58 3.58 0 0 0-2.5-.97c-1.45 0-2.59.72-3.43 2.16-.84 1.43-1.27 3.53-1.27 6.3-.01 1.86.18 3.42.55 4.69a6.26 6.26 0 0 0 1.64 2.86c.7.64 1.54.96 2.51.96Zm23.37-10.22v3.39h-10.48v-3.39h10.48Zm12.88 13.77a8.14 8.14 0 0 1-4.82-1.42 9.05 9.05 0 0 1-3.08-4.12 17.72 17.72 0 0 1-1.06-6.51c0-2.54.36-4.7 1.07-6.48a8.9 8.9 0 0 1 3.08-4.1 8.16 8.16 0 0 1 4.81-1.4c1.87 0 3.47.47 4.8 1.4a8.8 8.8 0 0 1 3.09 4.1 17.36 17.36 0 0 1 1.08 6.48c0 2.54-.36 4.72-1.08 6.52a8.88 8.88 0 0 1-3.08 4.11 8.08 8.08 0 0 1-4.8 1.42Zm0-3.55c1.46 0 2.6-.72 3.44-2.15.85-1.44 1.28-3.56 1.28-6.35 0-1.85-.2-3.4-.58-4.66a6.2 6.2 0 0 0-1.64-2.84 3.58 3.58 0 0 0-2.5-.97c-1.45 0-2.59.72-3.43 2.16-.84 1.43-1.27 3.53-1.27 6.3-.01 1.86.18 3.42.55 4.69a6.26 6.26 0 0 0 1.64 2.86c.7.64 1.54.96 2.51.96Zm20.83 3.43a9.38 9.38 0 0 1-4.06-.85 7.26 7.26 0 0 1-2.86-2.37c-.7-1-1.06-2.14-1.11-3.43h4.1c.07.96.48 1.74 1.23 2.34.75.6 1.65.9 2.7.9a4.08 4.08 0 0 0 3.73-2.15c.37-.67.55-1.44.55-2.3 0-.88-.18-1.66-.56-2.35a4.17 4.17 0 0 0-1.56-1.6 4.27 4.27 0 0 0-2.27-.59c-.7 0-1.38.12-2.06.39a4.2 4.2 0 0 0-1.6 1.04l-3.8-.62 1.21-12h13.5v3.52h-10.01l-.67 6.17h.13a4.8 4.8 0 0 1 1.83-1.26 6.46 6.46 0 0 1 2.6-.51 7.16 7.16 0 0 1 6.38 3.73c.64 1.16.96 2.48.96 3.97 0 1.54-.36 2.91-1.07 4.12a7.56 7.56 0 0 1-2.94 2.83 8.92 8.92 0 0 1-4.35 1.02Z" />
    </g>
    <g data-object="Сокол__r__2880:2535">
      <path fill="#78B500"
        d="M0 286a12 12 0 0 1 12-12h115a12 12 0 0 1 12 12v38a12 12 0 0 1-12 12H12a12 12 0 0 1-12-12v-38Z" />
      <path fill="#fff"
        d="M34.58 293.21v23.28h-4.21v-19.17h-.14l-5.44 3.47v-3.86l5.78-3.72h4.01Zm14.51 23.72a8.14 8.14 0 0 1-4.82-1.42 9.05 9.05 0 0 1-3.08-4.13 17.74 17.74 0 0 1-1.06-6.5c0-2.55.36-4.7 1.08-6.48a8.9 8.9 0 0 1 3.08-4.1 8.17 8.17 0 0 1 4.8-1.4c1.87 0 3.47.47 4.8 1.4a8.8 8.8 0 0 1 3.09 4.1 17.35 17.35 0 0 1 1.08 6.47c0 2.55-.36 4.72-1.08 6.53a8.87 8.87 0 0 1-3.08 4.11 8.08 8.08 0 0 1-4.8 1.42Zm0-3.56c1.46 0 2.6-.71 3.45-2.14.84-1.44 1.27-3.56 1.27-6.36 0-1.85-.2-3.4-.58-4.66a6.19 6.19 0 0 0-1.64-2.84 3.58 3.58 0 0 0-2.5-.96c-1.44 0-2.59.72-3.43 2.16-.84 1.43-1.26 3.53-1.27 6.3-.01 1.86.18 3.42.55 4.69a6.27 6.27 0 0 0 1.64 2.86c.7.63 1.54.95 2.51.95Zm23.37-10.21v3.38H61.98v-3.38h10.48Zm12.88 13.77a8.14 8.14 0 0 1-4.82-1.42 9.05 9.05 0 0 1-3.08-4.13 17.74 17.74 0 0 1-1.06-6.5c0-2.55.36-4.7 1.08-6.48a8.9 8.9 0 0 1 3.08-4.1 8.17 8.17 0 0 1 4.8-1.4c1.87 0 3.47.47 4.8 1.4a8.8 8.8 0 0 1 3.09 4.1 17.35 17.35 0 0 1 1.08 6.47c0 2.55-.36 4.72-1.08 6.53a8.87 8.87 0 0 1-3.08 4.11 8.08 8.08 0 0 1-4.8 1.42Zm0-3.56c1.46 0 2.6-.71 3.45-2.14.84-1.44 1.27-3.56 1.27-6.36 0-1.85-.2-3.4-.58-4.66a6.19 6.19 0 0 0-1.64-2.84 3.58 3.58 0 0 0-2.5-.96c-1.44 0-2.59.72-3.43 2.16-.84 1.43-1.26 3.53-1.27 6.3-.01 1.86.18 3.42.55 4.69a6.27 6.27 0 0 0 1.64 2.86c.7.63 1.54.95 2.51.95Zm21.35 3.56a8.14 8.14 0 0 1-4.82-1.42 9.06 9.06 0 0 1-3.08-4.13 17.74 17.74 0 0 1-1.07-6.5c0-2.55.37-4.7 1.08-6.48a8.91 8.91 0 0 1 3.08-4.1 8.17 8.17 0 0 1 4.8-1.4c1.87 0 3.47.47 4.81 1.4a8.8 8.8 0 0 1 3.08 4.1 17.34 17.34 0 0 1 1.08 6.47c0 2.55-.36 4.72-1.08 6.53a8.87 8.87 0 0 1-3.08 4.11 8.08 8.08 0 0 1-4.8 1.42Zm0-3.56c1.45 0 2.6-.71 3.44-2.14.85-1.44 1.27-3.56 1.27-6.36 0-1.85-.2-3.4-.58-4.66a6.18 6.18 0 0 0-1.63-2.84 3.58 3.58 0 0 0-2.5-.96c-1.45 0-2.6.72-3.44 2.16-.84 1.43-1.26 3.53-1.27 6.3 0 1.86.18 3.42.56 4.69a6.27 6.27 0 0 0 1.63 2.86c.7.63 1.55.95 2.52.95Z" />
    </g>
    <g data-object="Сокол__r__2880:2531">
      <path fill="#78B500"
        d="M0 352a12 12 0 0 1 12-12h115a12 12 0 0 1 12 12v38a12 12 0 0 1-12 12H12a12 12 0 0 1-12-12v-38Z" />
      <path fill="#fff"
        d="M37.57 359.21v23.28h-4.22v-19.17h-.14l-5.44 3.47v-3.86l5.78-3.72h4.02Zm14.5 23.72a8.14 8.14 0 0 1-4.81-1.42 9.05 9.05 0 0 1-3.08-4.13 17.74 17.74 0 0 1-1.07-6.5c0-2.55.37-4.7 1.08-6.48a8.9 8.9 0 0 1 3.08-4.1 8.17 8.17 0 0 1 4.8-1.4c1.87 0 3.47.47 4.81 1.4a8.8 8.8 0 0 1 3.08 4.1 17.35 17.35 0 0 1 1.08 6.47c0 2.55-.36 4.72-1.08 6.53a8.88 8.88 0 0 1-3.08 4.11 8.08 8.08 0 0 1-4.8 1.42Zm0-3.56c1.46 0 2.6-.71 3.45-2.14.85-1.44 1.27-3.56 1.27-6.36 0-1.85-.2-3.4-.58-4.66a6.19 6.19 0 0 0-1.63-2.84 3.58 3.58 0 0 0-2.5-.96c-1.45 0-2.6.72-3.44 2.16-.84 1.43-1.26 3.53-1.27 6.3 0 1.86.18 3.42.56 4.69a6.27 6.27 0 0 0 1.64 2.86c.7.63 1.54.95 2.5.95Zm23.37-10.21v3.38H64.97v-3.38h10.47Zm12.89 13.77a8.14 8.14 0 0 1-4.82-1.42 9.05 9.05 0 0 1-3.08-4.13 17.74 17.74 0 0 1-1.07-6.5c0-2.55.37-4.7 1.08-6.48a8.9 8.9 0 0 1 3.08-4.1 8.17 8.17 0 0 1 4.8-1.4c1.87 0 3.47.47 4.81 1.4a8.8 8.8 0 0 1 3.08 4.1 17.35 17.35 0 0 1 1.08 6.47c0 2.55-.36 4.72-1.08 6.53a8.88 8.88 0 0 1-3.08 4.11 8.08 8.08 0 0 1-4.8 1.42Zm0-3.56c1.45 0 2.6-.71 3.44-2.14.85-1.44 1.27-3.56 1.27-6.36 0-1.85-.2-3.4-.58-4.66a6.19 6.19 0 0 0-1.63-2.84 3.58 3.58 0 0 0-2.5-.96c-1.45 0-2.6.72-3.44 2.16-.84 1.43-1.26 3.53-1.27 6.3 0 1.86.18 3.42.56 4.69a6.27 6.27 0 0 0 1.64 2.86c.7.63 1.54.95 2.5.95Zm22.2-20.16v23.28h-4.21v-19.17h-.14l-5.44 3.47v-3.86l5.78-3.72h4.01Z" />
    </g>
    <g data-object="Сокол__r__2880:2525">
      <path fill="#78B500"
        d="M0 418a12 12 0 0 1 12-12h115a12 12 0 0 1 12 12v38a12 12 0 0 1-12 12H12a12 12 0 0 1-12-12v-38Z" />
      <path fill="#fff"
        d="M34.33 425.21v23.28h-4.21v-19.17h-.14l-5.44 3.47v-3.86l5.78-3.72h4.01Zm14.51 23.72a8.14 8.14 0 0 1-4.82-1.42 9.05 9.05 0 0 1-3.08-4.13 17.74 17.74 0 0 1-1.06-6.5c0-2.55.36-4.7 1.08-6.48a8.9 8.9 0 0 1 3.08-4.1 8.17 8.17 0 0 1 4.8-1.4c1.87 0 3.47.47 4.8 1.4a8.8 8.8 0 0 1 3.09 4.1 17.35 17.35 0 0 1 1.08 6.47c0 2.55-.36 4.72-1.08 6.53a8.88 8.88 0 0 1-3.08 4.11 8.08 8.08 0 0 1-4.8 1.42Zm0-3.56c1.46 0 2.6-.71 3.45-2.14.84-1.44 1.27-3.56 1.27-6.36 0-1.85-.2-3.4-.58-4.66a6.19 6.19 0 0 0-1.64-2.84 3.58 3.58 0 0 0-2.5-.96c-1.44 0-2.59.72-3.43 2.16-.84 1.43-1.26 3.53-1.27 6.3-.01 1.86.18 3.42.55 4.69a6.27 6.27 0 0 0 1.64 2.86c.7.63 1.54.95 2.51.95Zm23.37-10.21v3.38H61.73v-3.38h10.48Zm12.88 13.77a8.14 8.14 0 0 1-4.82-1.42 9.05 9.05 0 0 1-3.08-4.13 17.74 17.74 0 0 1-1.06-6.5c0-2.55.36-4.7 1.08-6.48a8.9 8.9 0 0 1 3.08-4.1 8.17 8.17 0 0 1 4.8-1.4c1.87 0 3.47.47 4.8 1.4a8.8 8.8 0 0 1 3.09 4.1 17.35 17.35 0 0 1 1.08 6.47c0 2.55-.36 4.72-1.08 6.53a8.88 8.88 0 0 1-3.08 4.11 8.08 8.08 0 0 1-4.8 1.42Zm0-3.56c1.46 0 2.6-.71 3.45-2.14.84-1.44 1.27-3.56 1.27-6.36 0-1.85-.2-3.4-.58-4.66a6.19 6.19 0 0 0-1.64-2.84 3.58 3.58 0 0 0-2.5-.96c-1.44 0-2.59.72-3.43 2.16-.84 1.43-1.26 3.53-1.27 6.3-.01 1.86.18 3.42.55 4.69a6.27 6.27 0 0 0 1.64 2.86c.7.63 1.54.95 2.51.95Zm21.1 3.44c-1.64 0-3.1-.29-4.37-.85a7.29 7.29 0 0 1-3-2.34 6.07 6.07 0 0 1-1.17-3.46h4.27c.04.63.25 1.17.63 1.64s.88.83 1.51 1.08c.63.26 1.33.4 2.11.4.84 0 1.58-.15 2.22-.44.64-.3 1.15-.7 1.51-1.23.37-.52.54-1.12.54-1.8a3.24 3.24 0 0 0-2.16-3.13 6.4 6.4 0 0 0-2.53-.45h-2.05v-3.25h2.05c.81 0 1.52-.15 2.13-.43.61-.28 1.1-.67 1.44-1.18.35-.51.52-1.1.51-1.78a3.1 3.1 0 0 0-.44-1.72c-.3-.49-.72-.87-1.26-1.14a5 5 0 0 0-3.88-.02c-.6.25-1.09.62-1.46 1.1a2.8 2.8 0 0 0-.6 1.68h-4.05a5.9 5.9 0 0 1 1.13-3.44 7.24 7.24 0 0 1 2.9-2.31 9.6 9.6 0 0 1 4.08-.84c1.56 0 2.9.29 4.05.87a6.6 6.6 0 0 1 2.67 2.33c.63.98.94 2.06.94 3.24a4.79 4.79 0 0 1-1.16 3.3 5.44 5.44 0 0 1-3.04 1.73v.19a5.9 5.9 0 0 1 3.76 1.81 5.2 5.2 0 0 1 1.3 3.65c0 1.3-.36 2.47-1.1 3.5a7.37 7.37 0 0 1-3.05 2.41c-1.29.58-2.77.88-4.43.88Z" />
    </g>
    <g data-object="Сокол__r__2880:2517">
      <path fill="#78B500"
        d="M0 488a12 12 0 0 1 12-12h115a12 12 0 0 1 12 12v47a12 12 0 0 1-12 12H12a12 12 0 0 1-12-12v-47Z" />
      <path fill="#fff"
        d="M34.6 500.19v23.27h-4.22V504.3h-.14l-5.44 3.48v-3.87l5.79-3.71h4Zm14.5 23.71a8.14 8.14 0 0 1-4.81-1.42 9.05 9.05 0 0 1-3.08-4.12 17.73 17.73 0 0 1-1.07-6.51c.01-2.54.37-4.7 1.08-6.48a8.9 8.9 0 0 1 3.08-4.1 8.17 8.17 0 0 1 4.8-1.4c1.87 0 3.47.47 4.81 1.4a8.8 8.8 0 0 1 3.08 4.1 17.35 17.35 0 0 1 1.08 6.48c0 2.54-.36 4.72-1.08 6.52a8.88 8.88 0 0 1-3.08 4.11 8.08 8.08 0 0 1-4.8 1.42Zm0-3.55c1.46 0 2.61-.72 3.45-2.15.85-1.44 1.27-3.56 1.27-6.35 0-1.85-.19-3.4-.58-4.66a6.19 6.19 0 0 0-1.63-2.84 3.58 3.58 0 0 0-2.5-.97c-1.45 0-2.6.72-3.43 2.16-.84 1.43-1.27 3.53-1.28 6.3 0 1.86.18 3.42.56 4.69a6.27 6.27 0 0 0 1.64 2.86c.7.64 1.54.96 2.5.96Zm23.37-10.22v3.39H62v-3.39h10.47Zm12.89 13.77a8.14 8.14 0 0 1-4.82-1.42 9.05 9.05 0 0 1-3.08-4.12 17.73 17.73 0 0 1-1.07-6.51c.01-2.54.37-4.7 1.08-6.48a8.9 8.9 0 0 1 3.08-4.1 8.17 8.17 0 0 1 4.8-1.4c1.87 0 3.47.47 4.81 1.4a8.8 8.8 0 0 1 3.08 4.1 17.35 17.35 0 0 1 1.08 6.48c0 2.54-.36 4.72-1.08 6.52a8.88 8.88 0 0 1-3.08 4.11 8.08 8.08 0 0 1-4.8 1.42Zm0-3.55c1.45 0 2.6-.72 3.44-2.15.85-1.44 1.27-3.56 1.27-6.35 0-1.85-.19-3.4-.58-4.66a6.19 6.19 0 0 0-1.63-2.84 3.58 3.58 0 0 0-2.5-.97c-1.45 0-2.6.72-3.43 2.16-.84 1.43-1.27 3.53-1.28 6.3 0 1.86.18 3.42.56 4.69a6.27 6.27 0 0 0 1.64 2.86c.7.64 1.54.96 2.5.96Zm12.32-1.2v-3.36l9.87-15.6h2.8v4.77h-1.7L102 515.5v.18h13.78v3.46h-18.1Zm11.1 4.31v-5.34l.05-1.5v-16.43h3.97v23.27h-4.02Z" />
    </g>
    <g data-object="Сокол__r__2880:2521">
      <path fill="#78B500"
        d="M143 421a12 12 0 0 1 12-12h102a12 12 0 0 1 12 12v116a12 12 0 0 1-12 12H155a12 12 0 0 1-12-12V421Z" />
      <path fill="#fff"
        d="M171.82 467.99v23.27h-4.21V472.1h-.14l-5.44 3.48v-3.87l5.78-3.71h4.01Zm14.52 23.71a8.14 8.14 0 0 1-4.82-1.42 9.05 9.05 0 0 1-3.08-4.12 17.74 17.74 0 0 1-1.07-6.51c0-2.54.37-4.7 1.08-6.48a8.9 8.9 0 0 1 3.08-4.1 8.17 8.17 0 0 1 4.8-1.4c1.87 0 3.47.47 4.81 1.4a8.8 8.8 0 0 1 3.08 4.1 17.34 17.34 0 0 1 1.08 6.48c0 2.54-.36 4.72-1.08 6.52a8.88 8.88 0 0 1-3.08 4.11 8.08 8.08 0 0 1-4.8 1.42Zm0-3.55c1.45 0 2.6-.72 3.44-2.15.85-1.44 1.27-3.56 1.27-6.35 0-1.85-.2-3.4-.58-4.66a6.19 6.19 0 0 0-1.63-2.84 3.58 3.58 0 0 0-2.5-.97c-1.45 0-2.6.72-3.44 2.16-.84 1.43-1.26 3.53-1.27 6.3 0 1.86.18 3.42.56 4.69a6.27 6.27 0 0 0 1.63 2.86c.71.64 1.55.96 2.52.96Zm23.36-10.22v3.39h-10.47v-3.39h10.47Zm12.89 13.77a8.14 8.14 0 0 1-4.82-1.42 9.05 9.05 0 0 1-3.08-4.12 17.74 17.74 0 0 1-1.07-6.51c0-2.54.37-4.7 1.08-6.48a8.9 8.9 0 0 1 3.08-4.1 8.17 8.17 0 0 1 4.8-1.4c1.87 0 3.47.47 4.81 1.4a8.8 8.8 0 0 1 3.08 4.1 17.34 17.34 0 0 1 1.08 6.48c0 2.54-.36 4.72-1.08 6.52a8.88 8.88 0 0 1-3.08 4.11 8.08 8.08 0 0 1-4.8 1.42Zm0-3.55c1.45 0 2.6-.72 3.44-2.15.85-1.44 1.27-3.56 1.27-6.35 0-1.85-.2-3.4-.58-4.66a6.19 6.19 0 0 0-1.63-2.84 3.58 3.58 0 0 0-2.5-.97c-1.45 0-2.6.72-3.44 2.16-.84 1.43-1.26 3.53-1.27 6.3 0 1.86.18 3.42.56 4.69a6.27 6.27 0 0 0 1.63 2.86c.71.64 1.55.96 2.52.96Zm12.74 3.11v-3.05l8.08-7.91c.77-.79 1.41-1.48 1.93-2.09.51-.6.9-1.19 1.16-1.76.26-.56.38-1.17.38-1.81a3.33 3.33 0 0 0-1.88-3.11 4.44 4.44 0 0 0-1.98-.44 4.1 4.1 0 0 0-2.01.48c-.58.3-1.02.75-1.34 1.33a4.27 4.27 0 0 0-.47 2.05h-4c0-1.47.33-2.76 1-3.85a6.82 6.82 0 0 1 2.79-2.53c1.19-.6 2.55-.9 4.09-.9 1.56 0 2.93.3 4.11.88a6.71 6.71 0 0 1 2.75 2.4c.66 1 .99 2.17.99 3.47a6.9 6.9 0 0 1-.5 2.57 10.9 10.9 0 0 1-1.76 2.8 44.7 44.7 0 0 1-3.51 3.71l-4.01 4.08v.16h10.13v3.52h-15.95Z" />
    </g>
    <g data-object="Сокол__r__2880:2513">
      <path fill="#78B500"
        d="M0 12A12 12 0 0 1 12 0h113a12 12 0 0 1 12 12v181a12 12 0 0 1-12 12H12a12 12 0 0 1-12-12V12Z" />
      <path fill="#fff"
        d="M37.46 91.47v23.27h-4.22V95.57h-.14l-5.44 3.48v-3.87l5.78-3.71h4.02Zm14.5 23.71a8.14 8.14 0 0 1-4.81-1.42 9.05 9.05 0 0 1-3.08-4.12 17.74 17.74 0 0 1-1.07-6.52c0-2.53.37-4.7 1.08-6.47a8.9 8.9 0 0 1 3.08-4.1 8.16 8.16 0 0 1 4.8-1.4c1.87 0 3.47.47 4.81 1.4a8.8 8.8 0 0 1 3.08 4.1 17.35 17.35 0 0 1 1.08 6.47c0 2.55-.36 4.72-1.08 6.53a8.87 8.87 0 0 1-3.08 4.11 8.08 8.08 0 0 1-4.8 1.42Zm0-3.56c1.46 0 2.6-.71 3.45-2.14.85-1.44 1.27-3.56 1.27-6.36 0-1.84-.2-3.4-.58-4.65a6.18 6.18 0 0 0-1.63-2.84 3.58 3.58 0 0 0-2.5-.97c-1.45 0-2.6.72-3.44 2.16-.84 1.43-1.26 3.53-1.27 6.3 0 1.86.18 3.42.56 4.69a6.27 6.27 0 0 0 1.64 2.86c.7.64 1.54.95 2.5.95Zm23.37-10.21v3.39H64.86v-3.39h10.47Zm13.75-9.94v23.27h-4.22V95.57h-.13l-5.45 3.48v-3.87l5.79-3.71h4.01Zm5.9 23.27v-3.05l8.09-7.92c.77-.78 1.42-1.47 1.93-2.08.52-.6.9-1.19 1.16-1.76.26-.57.39-1.17.39-1.82a3.32 3.32 0 0 0-1.88-3.11 4.43 4.43 0 0 0-1.99-.43 4.1 4.1 0 0 0-2 .48c-.59.3-1.03.75-1.35 1.33a4.27 4.27 0 0 0-.47 2.05h-4a7.2 7.2 0 0 1 1-3.85 6.82 6.82 0 0 1 2.79-2.53c1.19-.6 2.55-.9 4.09-.9a9.2 9.2 0 0 1 4.11.87 6.7 6.7 0 0 1 2.75 2.4c.66 1.02 1 2.18 1 3.48a6.9 6.9 0 0 1-.5 2.57 10.9 10.9 0 0 1-1.77 2.8c-.83 1.02-2 2.25-3.51 3.7l-4.01 4.09v.16h10.13v3.52H95Z" />
    </g>
    <g data-object="Сокол__r__2880:2509">
      <path fill="#78B500"
        d="M407 12a12 12 0 0 1 12-12h112a12 12 0 0 1 12 12v184a12 12 0 0 1-12 12H419a12 12 0 0 1-12-12V12Z" />
      <path fill="#fff"
        d="M442.3 93.46v23.27h-4.22V97.56h-.13l-5.45 3.48v-3.87l5.79-3.71h4Zm14.51 23.71a8.13 8.13 0 0 1-4.82-1.42 9.04 9.04 0 0 1-3.08-4.12 17.73 17.73 0 0 1-1.07-6.51c.01-2.54.37-4.7 1.08-6.48a8.91 8.91 0 0 1 3.08-4.1 8.16 8.16 0 0 1 4.81-1.4c1.86 0 3.47.47 4.8 1.4a8.8 8.8 0 0 1 3.09 4.1 17.34 17.34 0 0 1 1.08 6.48c0 2.54-.36 4.72-1.08 6.52a8.88 8.88 0 0 1-3.08 4.11 8.09 8.09 0 0 1-4.81 1.42Zm0-3.55c1.45 0 2.6-.72 3.44-2.15.85-1.44 1.28-3.56 1.28-6.35 0-1.85-.2-3.4-.58-4.66a6.18 6.18 0 0 0-1.64-2.84 3.58 3.58 0 0 0-2.5-.97c-1.45 0-2.6.72-3.43 2.16-.84 1.43-1.27 3.53-1.27 6.3-.01 1.86.17 3.42.55 4.69a6.27 6.27 0 0 0 1.64 2.86c.7.64 1.54.96 2.51.96Zm23.37-10.22v3.39H469.7v-3.39h10.48Zm13.74-9.94v23.27h-4.21V97.56h-.14l-5.44 3.48v-3.87l5.78-3.71h4.01Zm14.51 23.71a8.13 8.13 0 0 1-4.81-1.42 9.04 9.04 0 0 1-3.08-4.12 17.73 17.73 0 0 1-1.07-6.51c0-2.54.37-4.7 1.08-6.48a8.91 8.91 0 0 1 3.08-4.1 8.16 8.16 0 0 1 4.8-1.4c1.87 0 3.47.47 4.81 1.4a8.8 8.8 0 0 1 3.08 4.1 17.34 17.34 0 0 1 1.08 6.48c0 2.54-.36 4.72-1.08 6.52a8.88 8.88 0 0 1-3.08 4.11 8.09 8.09 0 0 1-4.8 1.42Zm0-3.55c1.46 0 2.6-.72 3.45-2.15.85-1.44 1.27-3.56 1.27-6.35 0-1.85-.2-3.4-.58-4.66a6.18 6.18 0 0 0-1.64-2.84 3.58 3.58 0 0 0-2.5-.97c-1.44 0-2.59.72-3.43 2.16-.84 1.43-1.26 3.53-1.27 6.3 0 1.86.18 3.42.56 4.69a6.27 6.27 0 0 0 1.63 2.86c.7.64 1.54.96 2.51.96Z" />
    </g>
    <g data-object="Сокол__r__6056:3392">
      <path fill="#78B500"
        d="M143 12a12 12 0 0 1 12-12h102a12 12 0 0 1 12 12v124.5a12 12 0 0 0 12 12h79a12 12 0 0 1 12 12v31a12 12 0 0 1-12 12H248.5a12 12 0 0 1-12-12V158a12 12 0 0 0-12-12H155a12 12 0 0 1-12-12V12Z" />
      <path fill="#fff"
        d="M173.82 61.97v23.27h-4.21V66.07h-.14l-5.44 3.48v-3.86l5.78-3.72h4.01Zm14.52 23.72a8.14 8.14 0 0 1-4.82-1.42 9.05 9.05 0 0 1-3.08-4.13 17.74 17.74 0 0 1-1.07-6.51c0-2.54.37-4.7 1.08-6.48a8.9 8.9 0 0 1 3.08-4.09 8.16 8.16 0 0 1 4.8-1.4c1.87 0 3.47.46 4.81 1.4a8.8 8.8 0 0 1 3.08 4.1 17.34 17.34 0 0 1 1.08 6.47c0 2.55-.36 4.72-1.08 6.52a8.87 8.87 0 0 1-3.08 4.12 8.08 8.08 0 0 1-4.8 1.42Zm0-3.56c1.45 0 2.6-.72 3.44-2.15.85-1.44 1.27-3.55 1.27-6.35 0-1.85-.2-3.4-.58-4.66a6.18 6.18 0 0 0-1.63-2.84 3.58 3.58 0 0 0-2.5-.97c-1.45 0-2.6.72-3.44 2.16-.84 1.43-1.26 3.54-1.27 6.31 0 1.86.18 3.42.56 4.68a6.27 6.27 0 0 0 1.63 2.87c.71.63 1.55.95 2.52.95Zm23.36-10.22v3.39h-10.47v-3.39h10.47Zm13.75-9.94v23.27h-4.22V66.07h-.13l-5.44 3.48v-3.86l5.78-3.72h4.01Zm14.26 23.6a10.7 10.7 0 0 1-4.36-.85 7.3 7.3 0 0 1-3-2.34 6.07 6.07 0 0 1-1.17-3.47h4.27c.04.63.25 1.18.63 1.65.37.46.88.82 1.5 1.08.63.26 1.34.39 2.12.39.83 0 1.57-.15 2.22-.43a3.6 3.6 0 0 0 1.5-1.23c.37-.52.55-1.13.54-1.8 0-.71-.17-1.33-.54-1.87a3.65 3.65 0 0 0-1.62-1.26 6.3 6.3 0 0 0-2.52-.46h-2.06v-3.25h2.06c.81 0 1.52-.14 2.13-.42a3.5 3.5 0 0 0 1.44-1.18c.35-.52.52-1.11.5-1.78a3.1 3.1 0 0 0-.43-1.72 3 3 0 0 0-1.26-1.15 5 5 0 0 0-3.88-.02c-.6.26-1.1.62-1.47 1.1a2.8 2.8 0 0 0-.59 1.68h-4.05a5.9 5.9 0 0 1 1.12-3.43 7.3 7.3 0 0 1 2.91-2.32 9.6 9.6 0 0 1 4.08-.84c1.55 0 2.9.3 4.04.88a6.6 6.6 0 0 1 2.68 2.33c.62.97.94 2.05.94 3.24 0 1.3-.38 2.4-1.16 3.3a5.44 5.44 0 0 1-3.05 1.73v.18a5.9 5.9 0 0 1 3.77 1.82c.87.98 1.31 2.2 1.3 3.65 0 1.3-.37 2.47-1.11 3.5a7.38 7.38 0 0 1-3.05 2.4c-1.28.59-2.76.88-4.43.88Z" />
    </g>
    <g data-object="Сокол__r__6056:3396">
      <path fill="#78B500"
        d="M273 12a12 12 0 0 1 12-12h104a12 12 0 0 1 12 12v120.7a3.36 3.36 0 0 1-2.75 3.3 3.35 3.35 0 0 0-2.75 3.3v8.7a4 4 0 0 1-4 4h-10a3.75 3.75 0 0 1-3.75-3.48 3.75 3.75 0 0 0-3.78-3.49l-88.86.85a12 12 0 0 1-12.11-12V12Z" />
      <path fill="#fff"
        d="M307.9 61.97v23.27h-4.21V66.07h-.14l-5.44 3.48v-3.86l5.78-3.72h4.01Zm14.52 23.72a8.14 8.14 0 0 1-4.82-1.42 9.05 9.05 0 0 1-3.08-4.13 17.74 17.74 0 0 1-1.07-6.51c0-2.54.37-4.7 1.08-6.48a8.9 8.9 0 0 1 3.08-4.09 8.16 8.16 0 0 1 4.8-1.4c1.87 0 3.47.46 4.81 1.4a8.8 8.8 0 0 1 3.08 4.1 17.34 17.34 0 0 1 1.08 6.47c0 2.55-.36 4.72-1.08 6.52a8.87 8.87 0 0 1-3.08 4.12 8.08 8.08 0 0 1-4.8 1.42Zm0-3.56c1.45 0 2.6-.72 3.44-2.15.85-1.44 1.27-3.55 1.27-6.35 0-1.85-.2-3.4-.58-4.66a6.18 6.18 0 0 0-1.63-2.84 3.58 3.58 0 0 0-2.5-.97c-1.45 0-2.6.72-3.44 2.16-.84 1.43-1.26 3.54-1.27 6.31 0 1.86.18 3.42.56 4.68a6.27 6.27 0 0 0 1.63 2.87c.7.63 1.55.95 2.52.95Zm23.36-10.22v3.39h-10.47v-3.39h10.47Zm13.75-9.94v23.27h-4.22V66.07h-.13l-5.45 3.48v-3.86l5.79-3.72h4Zm15.37 0v23.27h-4.21V66.07h-.14l-5.44 3.48v-3.86l5.78-3.72h4.01Z" />
    </g>
  </g>
  <defs>
    <clipPath id="a">
      <path fill="#fff" d="M289.5 210h48v76h-48z" />
    </clipPath>
  </defs>
</svg>