<svg xmlns="http://www.w3.org/2000/svg" width="549" height="549" fill="none" viewBox="0 0 549 549">
  <g>
    <path fill="#262A34" fill-rule="evenodd"
      d="M155 141a12 12 0 0 0-12 12v4.5c0 .83-.67 1.5-1.5 1.5s-1.5.67-1.5 1.5v16c0 .83.67 1.5 1.5 1.5s1.5.67 1.5 1.5v23a6.5 6.5 0 0 0 6.5 6.5h5.5a1 1 0 0 1 0 2h-4a5 5 0 0 0-5 5v7a3 3 0 0 1-3 3 3 3 0 0 0-3 3v14a3 3 0 0 0 3 3 3 3 0 0 1 3 3v48.5a4.5 4.5 0 0 1-4.5 4.5 4.5 4.5 0 0 0-4.5 4.5v11a4.5 4.5 0 0 0 4.5 4.5 4.5 4.5 0 0 1 4.5 4.5V360a3 3 0 0 1-3 3 3 3 0 0 0-3 3v17a3 3 0 0 0 3 3 3 3 0 0 1 3 3v1a12 12 0 0 0 12 12h10a2 2 0 0 1 2 2c0 1.1.9 2 2 2h19a2 2 0 0 0 2-2c0-1.1.9-2 2-2h31a3 3 0 0 1 3 3 3 3 0 0 0 3 3h17a3 3 0 0 0 3-3 3 3 0 0 1 3-3h11a2 2 0 0 0 2-2c0-1.1.9-2 2-2h2a4 4 0 0 0 4-4v-45a4 4 0 0 0-4-4 4 4 0 0 1-4-4v-54c0-1.1.9-2 2-2a2 2 0 0 0 2-2v-1a3 3 0 0 1 3-3h2.5a5.5 5.5 0 0 0 5.5-5.5v-9a5.5 5.5 0 0 0-5.5-5.5 5.5 5.5 0 0 1-5.5-5.5V244a6 6 0 0 1 6-6 6 6 0 0 0 6-6v-8a6 6 0 0 0-6-6h-2.5a3.5 3.5 0 0 1-3.5-3.5 3.5 3.5 0 0 0-3.5-3.5H177a1 1 0 0 1 0-2h4.5a5.5 5.5 0 0 0 5.5-5.5v-18c0-.83.67-1.5 1.5-1.5s1.5-.67 1.5-1.5v-18c0-.83-.67-1.5-1.5-1.5a1.5 1.5 0 0 1-1.5-1.5V153a12 12 0 0 0-12-12h-20Zm267-84a4 4 0 0 0-4 4 4 4 0 0 1-4 4h-1a5 5 0 0 0-5 5v86a12 12 0 0 0 12 12h20.5a1.5 1.5 0 0 1 0 3H406a2 2 0 0 0-2 2v11a1 1 0 0 0 1 1 1 1 0 0 1 1 1v9.5c0 5.8 4.7 10.5 10.5 10.5H428a2 2 0 1 1 0 4h-19.5a4.5 4.5 0 0 0-4.5 4.5v2a2.5 2.5 0 1 1-5 0v-.5a3 3 0 0 0-3-3 3 3 0 0 1-3-3v-1.5a4.5 4.5 0 0 0-4.5-4.5h-12a4.5 4.5 0 0 0-4.5 4.5v1.5a3 3 0 0 1-3 3 3 3 0 0 0-3 3v28a3 3 0 0 1-3 3 3 3 0 0 0-3 3v1.5a4.5 4.5 0 0 1-4.5 4.5 4.5 4.5 0 0 0-4.5 4.5v11a4.5 4.5 0 0 0 4.5 4.5 4.5 4.5 0 0 1 4.5 4.5v1.5a3 3 0 0 0 3 3 3 3 0 0 1 3 3v46a4 4 0 0 0 4 4 4 4 0 0 1 4 4v1a5 5 0 0 0 5 5h11a5 5 0 0 0 5-5v-3c0-1.1.9-2 2-2a2 2 0 0 0 2-2v-20a6 6 0 0 1 6-6 6 6 0 0 0 6-6v-8a6 6 0 0 0-6-6 6 6 0 0 1-6-6v-44.5a2.5 2.5 0 1 1 5 0V260a12 12 0 0 0 12 12h29a12 12 0 0 0 12-12v-23a10 10 0 0 1 10-10h3a7 7 0 1 0 0-14h-16.12c-.6 0-1.19-.23-1.68-.6a2.86 2.86 0 0 1-1.2-2.24v-1.66a2.5 2.5 0 0 1 2.5-2.5 2.5 2.5 0 0 0 2.5-2.5V171a3 3 0 0 1 3-3h2.5a5.5 5.5 0 0 0 5.5-5.5v-8a5.5 5.5 0 0 0-5.5-5.5 5.5 5.5 0 0 1-5.5-5.5V136a7 7 0 1 0-14 0v11a2 2 0 1 1-4 0V68a3 3 0 0 0-3-3 3 3 0 0 1-3-3v-1a4 4 0 0 0-4-4h-6Z"
      clip-rule="evenodd" />
    <g data-object="Сокол__s__2215:121">
      <rect width="142" height="63" x="407" y="275" fill="#fff" rx="12" />
      <g>
        <path fill="#000"
          d="M500.45 289.5h-7.49v7.5c0 .13-.01.22-.04.28a1.47 1.47 0 0 1-1.46 1.22h-7.49v7.5c0 .13-.02.22-.05.28a1.48 1.48 0 0 1-1.45 1.22h-7.49v7.5c0 .13-.02.22-.05.28-.06.35-.22.63-.49.87a1.4 1.4 0 0 1-.96.35h-7.5v7.5c0 .13 0 .22-.04.28a1.48 1.48 0 0 1-1.45 1.22h-9c-.4 0-.75-.15-1.05-.44a1.5 1.5 0 0 1 0-2.12c.3-.3.65-.44 1.06-.44h7.5V315c0-.13 0-.22.04-.28.06-.35.23-.63.51-.87.28-.23.6-.35.94-.35h7.5V306c0-.13 0-.22.04-.28.06-.35.23-.63.51-.87.28-.23.6-.35.94-.35h7.5V297c0-.1 0-.19.04-.28.06-.35.24-.63.52-.87.28-.23.59-.35.93-.35h7.5V288c0-.13.01-.22.04-.28a1.48 1.48 0 0 1 1.45-1.22h9c.4 0 .75.15 1.05.44.3.3.44.65.44 1.06 0 .4-.14.76-.44 1.06-.3.3-.65.44-1.06.44Z" />
      </g>
    </g>
    <g data-object="Сокол__t__2215:229">
      <rect width="140" height="63" y="272" fill="#60A5FA" rx="12" />
      <g fill="#fff" clip-path="url(#a)">
        <path
          d="M56 290a5.25 5.25 0 1 0 0-10.5 5.25 5.25 0 0 0 0 10.5Zm4.5 1.5h-9a6.02 6.02 0 0 0-6 6v10.08a1.9 1.9 0 0 0 1.8 1.92 1.88 1.88 0 0 0 1.95-1.88v-9.35a.77.77 0 0 1 .7-.77.74.74 0 0 1 .56.2.76.76 0 0 1 .24.55v27.1a2.15 2.15 0 1 0 4.31 0v-13.38a.96.96 0 0 1 .88-.97.93.93 0 0 1 1 .94v13.4a2.15 2.15 0 1 0 4.31 0v-27.06a.77.77 0 0 1 .7-.78.74.74 0 0 1 .56.2.76.76 0 0 1 .24.55v9.33a1.9 1.9 0 0 0 1.8 1.92 1.88 1.88 0 0 0 1.95-1.88V297.5a6.02 6.02 0 0 0-6-6Z" />
      </g>
      <g fill="#fff" clip-path="url(#b)">
        <path
          d="M83.98 290a5.25 5.25 0 1 0 0-10.5 5.25 5.25 0 0 0 0 10.5ZM97 305.55l-.97-3.22v-.01l-2.1-7.02h-.01l-.24-.8a4.2 4.2 0 0 0-4.03-3H78.4a4.2 4.2 0 0 0-4.03 3l-.24.8-2.1 7.02-.98 3.23a1.9 1.9 0 0 0 1.18 2.36 1.89 1.89 0 0 0 2.05-.58c.16-.19.28-.41.35-.66l2.4-7.99.2-.68a.75.75 0 0 1 1.28-.23.75.75 0 0 1 .16.63l-4.1 13.67a1.5 1.5 0 0 0 1.44 1.93h2.72v10.75c0 1.55.98 2.75 2.25 2.75 1.26 0 2.25-1.2 2.25-2.75V314h1.5v10.75c0 1.55.98 2.75 2.25 2.75 1.26 0 2.25-1.2 2.25-2.75V314h2.8a1.51 1.51 0 0 0 1.21-.6 1.5 1.5 0 0 0 .24-1.33l-4.1-13.67a.75.75 0 0 1 1.44-.4l.2.68 2.4 8a1.88 1.88 0 0 0 2.4 1.23 1.9 1.9 0 0 0 1.18-2.36Z" />
      </g>
    </g>
    <g data-object="Сокол__s__2215:124">
      <rect width="140" height="62" y="207" fill="#fff" rx="12" />
      <g>
        <path fill="#000"
          d="M92.45 221h-7.49v7.5c0 .13-.01.22-.04.28a1.48 1.48 0 0 1-1.46 1.22h-7.49v7.5c0 .13-.01.22-.05.28a1.48 1.48 0 0 1-1.45 1.22h-7.49v7.5c0 .13-.02.22-.05.28a1.48 1.48 0 0 1-1.45 1.22h-7.5v7.5c0 .13 0 .22-.04.28A1.48 1.48 0 0 1 56.5 257h-9c-.4 0-.75-.15-1.05-.44a1.5 1.5 0 0 1 0-2.12c.3-.3.65-.44 1.06-.44H55v-7.5c0-.13 0-.22.04-.28.06-.34.23-.63.51-.87.28-.23.6-.35.94-.35h7.5v-7.5c0-.13 0-.22.04-.28.06-.34.23-.63.51-.87.29-.23.6-.35.94-.35h7.5v-7.5c0-.1 0-.19.04-.28.06-.34.23-.63.52-.87.28-.23.59-.35.93-.35h7.5v-7.5c0-.13.01-.22.04-.28a1.48 1.48 0 0 1 1.45-1.22h9c.4 0 .75.15 1.05.44a1.5 1.5 0 0 1 0 2.12c-.3.3-.65.44-1.06.44Z" />
      </g>
    </g>
    <g data-object="Сокол__e__2215:115">
      <rect width="82" height="77" x="274" y="213" fill="#fff" rx="12" />
      <g>
        <g>
          <mask id="c" fill="#fff">
            <path
              d="M291 221.5a3 3 0 0 1 3-3h42a3 3 0 0 1 3 3v59a3 3 0 0 1-3 3h-42a3 3 0 0 1-3-3v-59Z" />
          </mask>
          <path fill="#000"
            d="M288 221.5a6 6 0 0 1 6-6h52a6 6 0 0 1 6 6h-64Zm64 59a6 6 0 0 1-6 6h-52a6 6 0 0 1-6-6h64Zm-58 6a6 6 0 0 1-6-6v-59a6 6 0 0 1 6-6v71Zm52-71a6 6 0 0 1 6 6v59a6 6 0 0 1-6 6l-20-6v-59l20-6Z"
            mask="url(#c)" />
        </g>
        <path fill="#fff"
          d="m330.71 245.7.8-.8v4.6a1 1 0 1 0 1.99 0v-4.6l.79.8a.99.99 0 0 0 1.09.23 1 1 0 0 0 .32-1.64l-2.5-2.5a.87.87 0 0 0-.32-.22 1 1 0 0 0-.76 0 1 1 0 0 0-.33.22l-2.5 2.5a1 1 0 0 0 1.42 1.42Zm3.58 11.59-.8.8v-4.6a1 1 0 1 0-1.99 0v4.6l-.79-.8a1.01 1.01 0 0 0-1.1-.22 1.01 1.01 0 0 0-.53 1.31c.05.13.12.24.21.33l2.5 2.5c.1.1.2.16.33.21a.93.93 0 0 0 .76 0c.12-.05.23-.12.33-.21l2.5-2.5a1 1 0 0 0-1.42-1.42Z" />
        <path fill="#000"
          d="M309.5 239a5.25 5.25 0 1 0 0-10.5 5.25 5.25 0 0 0 0 10.5Zm4.5 0h-9a6.01 6.01 0 0 0-6 6v10.08a1.9 1.9 0 0 0 1.8 1.92 1.88 1.88 0 0 0 1.95-1.88v-9.34a.77.77 0 0 1 .7-.78.74.74 0 0 1 .74.45c.04.1.06.2.06.3v27.1a2.15 2.15 0 1 0 4.31 0v-13.38a.96.96 0 0 1 .88-.97.93.93 0 0 1 1 .94v13.4a2.15 2.15 0 1 0 4.31 0v-27.06a.77.77 0 0 1 .7-.78.74.74 0 0 1 .74.45c.04.1.06.2.06.3v9.33a1.9 1.9 0 0 0 1.8 1.92 1.88 1.88 0 0 0 1.95-1.88V245a6.01 6.01 0 0 0-6-6Z" />
      </g>
    </g>
    <g data-object="Сокол__r__6056:3404">
      <path fill="#78B500"
        d="M142 12a12 12 0 0 1 12-12h113a12 12 0 0 1 12 12v185.5a12 12 0 0 1-12 12h-65a12 12 0 0 1-12-12V151a12 12 0 0 0-12-12h-24a12 12 0 0 1-12-12V12Z" />
      <path fill="#fff"
        d="M178.61 93.73V117h-4.22V97.83h-.13l-5.44 3.48v-3.87l5.78-3.71h4.01Zm15.38 0V117h-4.22V97.83h-.14l-5.44 3.48v-3.87l5.78-3.71H194Zm16.53 9.94v3.39h-10.48v-3.39h10.48Zm12.88 13.77a8.14 8.14 0 0 1-4.81-1.42 9.05 9.05 0 0 1-3.08-4.12 17.72 17.72 0 0 1-1.07-6.51c0-2.54.37-4.7 1.08-6.48a8.9 8.9 0 0 1 3.08-4.1 8.17 8.17 0 0 1 4.8-1.4c1.87 0 3.47.47 4.81 1.4a8.8 8.8 0 0 1 3.08 4.1 17.36 17.36 0 0 1 1.08 6.48c0 2.54-.36 4.72-1.08 6.52a8.87 8.87 0 0 1-3.08 4.11 8.08 8.08 0 0 1-4.8 1.42Zm0-3.55c1.46 0 2.6-.72 3.45-2.15.84-1.44 1.27-3.56 1.27-6.35 0-1.85-.2-3.4-.58-4.66a6.18 6.18 0 0 0-1.64-2.84 3.58 3.58 0 0 0-2.5-.97c-1.44 0-2.59.72-3.43 2.16-.84 1.43-1.26 3.53-1.27 6.3 0 1.86.18 3.42.56 4.69a6.26 6.26 0 0 0 1.63 2.86c.7.64 1.54.96 2.51.96Zm12.75 3.11v-3.05l8.07-7.92c.78-.78 1.42-1.47 1.94-2.08.51-.6.9-1.19 1.16-1.76.25-.56.38-1.17.38-1.81 0-.74-.16-1.37-.5-1.9a3.38 3.38 0 0 0-1.37-1.22 4.44 4.44 0 0 0-2-.43c-.76 0-1.43.16-2 .48-.58.3-1.03.75-1.34 1.33a4.27 4.27 0 0 0-.47 2.05h-4.01a6.82 6.82 0 0 1 3.8-6.39c1.18-.6 2.55-.9 4.09-.9 1.56 0 2.93.3 4.1.88a6.7 6.7 0 0 1 2.76 2.4c.66 1.02.99 2.18.99 3.48a7 7 0 0 1-.5 2.57 10.9 10.9 0 0 1-1.76 2.8c-.84 1.02-2 2.25-3.52 3.7l-4 4.09v.16h10.13V117h-15.95Z" />
    </g>
    <g data-object="Сокол__r__2358:102">
      <g data-object="Сокол__r__I2358:102;2219:182">
        <path fill="#78B500"
          d="M0 12A12 12 0 0 1 12 0h116a12 12 0 0 1 12 12v180a12 12 0 0 1-12 12H12a12 12 0 0 1-12-12V12Z" />
        <path fill="#fff"
          d="M39.97 91.14v23.27h-4.21V95.24h-.14l-5.44 3.48v-3.87l5.78-3.71h4.01Zm15.38 0v23.27h-4.22V95.24H51l-5.44 3.48v-3.87l5.79-3.71h4Zm16.53 9.94v3.39H61.4v-3.4h10.48Zm12.88 13.77a8.14 8.14 0 0 1-4.81-1.42 9.04 9.04 0 0 1-3.08-4.12 17.73 17.73 0 0 1-1.07-6.52c0-2.53.37-4.7 1.08-6.47a8.9 8.9 0 0 1 3.08-4.1 8.16 8.16 0 0 1 4.8-1.4c1.87 0 3.47.47 4.81 1.4a8.8 8.8 0 0 1 3.08 4.1 17.35 17.35 0 0 1 1.08 6.48c0 2.54-.36 4.72-1.08 6.52a8.87 8.87 0 0 1-3.08 4.11 8.08 8.08 0 0 1-4.8 1.42Zm0-3.55c1.46 0 2.6-.72 3.45-2.15.85-1.44 1.27-3.56 1.27-6.36 0-1.84-.2-3.4-.58-4.65a6.18 6.18 0 0 0-1.64-2.84 3.58 3.58 0 0 0-2.5-.97c-1.44 0-2.59.72-3.43 2.16-.84 1.43-1.26 3.53-1.27 6.3 0 1.86.18 3.42.56 4.69a6.27 6.27 0 0 0 1.63 2.86c.7.64 1.55.95 2.51.95Zm22.21-20.16v23.27h-4.21V95.24h-.14l-5.44 3.48v-3.87l5.78-3.71h4.01Z" />
      </g>
    </g>
    <g data-object="Сокол__r__2358:112">
      <g data-object="Сокол__r__I2358:112;2219:182">
        <path fill="#78B500"
          d="M0 350a12 12 0 0 1 12-12h116a12 12 0 0 1 12 12v187a12 12 0 0 1-12 12H12a12 12 0 0 1-12-12V350Z" />
        <path fill="#fff"
          d="M37 432.45v23.27h-4.2v-19.17h-.14l-5.44 3.48v-3.86l5.78-3.72h4Zm15.38 0v23.27h-4.22v-19.17h-.13l-5.45 3.48v-3.86l5.79-3.72h4Zm16.53 9.94v3.39H58.44v-3.39H68.9Zm12.89 13.78a8.14 8.14 0 0 1-4.82-1.43 9.04 9.04 0 0 1-3.08-4.12 17.73 17.73 0 0 1-1.07-6.51c0-2.54.37-4.7 1.08-6.48a8.9 8.9 0 0 1 3.08-4.09 8.17 8.17 0 0 1 4.8-1.4c1.87 0 3.47.46 4.81 1.4a8.8 8.8 0 0 1 3.08 4.1 17.35 17.35 0 0 1 1.08 6.47c0 2.54-.36 4.72-1.08 6.52a8.87 8.87 0 0 1-3.08 4.11 8.08 8.08 0 0 1-4.8 1.43Zm0-3.56c1.45 0 2.6-.72 3.44-2.15.85-1.44 1.27-3.56 1.27-6.35 0-1.85-.2-3.4-.58-4.66a6.18 6.18 0 0 0-1.63-2.84 3.58 3.58 0 0 0-2.5-.97c-1.45 0-2.6.72-3.44 2.16-.84 1.43-1.26 3.53-1.27 6.3 0 1.86.18 3.42.56 4.69a6.27 6.27 0 0 0 1.63 2.86c.7.64 1.55.96 2.52.96Zm12.32-1.2v-3.36l9.87-15.6h2.8v4.77h-1.7l-6.65 10.54v.18h13.78v3.46h-18.1Zm11.1 4.31v-5.34l.05-1.5v-16.43h3.97v23.27h-4.02Z" />
      </g>
    </g>
    <g data-object="Сокол__r__2358:117">
      <g data-object="Сокол__r__I2358:117;2219:182">
        <path fill="#78B500"
          d="M262 408a12 12 0 0 1 12 12v117a12 12 0 0 1-12 12h-28a12 12 0 0 1-12-12V420a12 12 0 0 1 12-12h28Z" />
        <path fill="#fff"
          d="M259.09 445.2h-23.27V441h19.17v-.14l-3.48-5.45h3.86l3.72 5.79v4Zm0 15.38h-23.27v-4.21h19.17v-.14l-3.48-5.44h3.86l3.72 5.78v4.01Zm-9.94 16.54h-3.39v-10.48h3.39v10.48ZM235.37 490a8.2 8.2 0 0 1 1.42-4.82 9.04 9.04 0 0 1 4.13-3.08c1.8-.71 3.97-1.07 6.51-1.07 2.54.01 4.7.37 6.48 1.08a8.9 8.9 0 0 1 4.09 3.08 8.16 8.16 0 0 1 1.4 4.81c0 1.86-.46 3.46-1.4 4.8a8.8 8.8 0 0 1-4.1 3.09 17.34 17.34 0 0 1-6.47 1.07 17.6 17.6 0 0 1-6.52-1.07 8.87 8.87 0 0 1-4.12-3.08 8.08 8.08 0 0 1-1.42-4.81Zm3.56 0c0 1.45.72 2.6 2.15 3.44 1.44.85 3.56 1.27 6.35 1.27 1.85 0 3.4-.19 4.66-.57a6.18 6.18 0 0 0 2.84-1.64c.64-.7.97-1.54.97-2.5 0-1.45-.72-2.6-2.16-3.43-1.43-.84-3.54-1.27-6.3-1.27a16.3 16.3 0 0 0-4.7.55 6.27 6.27 0 0 0-2.85 1.64 3.6 3.6 0 0 0-.96 2.51Zm-3.43 20.83c0-1.51.28-2.87.85-4.07a7.26 7.26 0 0 1 2.37-2.85c1-.7 2.14-1.07 3.43-1.11v4.09c-.96.07-1.74.49-2.34 1.24a4.2 4.2 0 0 0-.9 2.7 4.08 4.08 0 0 0 2.15 3.73c.67.37 1.44.55 2.3.55.88 0 1.66-.18 2.34-.56a4.34 4.34 0 0 0 2.2-3.83c0-.7-.12-1.38-.39-2.06a4.22 4.22 0 0 0-1.04-1.6l.62-3.8 12 1.2v13.5h-3.52v-10l-6.17-.67v.13c.5.44.92 1.04 1.26 1.83.34.79.51 1.65.51 2.6a7.17 7.17 0 0 1-3.73 6.38 8.13 8.13 0 0 1-3.97.95 7.57 7.57 0 0 1-6.94-4.01 8.92 8.92 0 0 1-1.03-4.34Z" />
      </g>
    </g>
    <g data-object="Сокол__r__2358:122">
      <g data-object="Сокол__r__I2358:122;2219:182">
        <path fill="#78B500"
          d="M207 406a12 12 0 0 1 12 12v119a12 12 0 0 1-12 12h-51a12 12 0 0 1-12-12V418a12 12 0 0 1 12-12h51Z" />
        <path fill="#fff"
          d="M192.49 444.25h-23.27v-4.21h19.17v-.14l-3.48-5.44h3.86l3.72 5.78v4.01Zm0 15.38h-23.27v-4.22h19.17v-.13l-3.48-5.45h3.86l3.72 5.79v4.01Zm-9.94 16.53h-3.39V465.7h3.39v10.47Zm-13.78 12.89a8.2 8.2 0 0 1 1.42-4.82 9.04 9.04 0 0 1 4.13-3.08c1.8-.71 3.97-1.07 6.51-1.07 2.54 0 4.7.37 6.48 1.08a8.9 8.9 0 0 1 4.09 3.08 8.16 8.16 0 0 1 1.4 4.8c0 1.87-.46 3.47-1.4 4.81a8.8 8.8 0 0 1-4.1 3.08 17.36 17.36 0 0 1-6.47 1.08c-2.54 0-4.72-.36-6.52-1.08a8.87 8.87 0 0 1-4.12-3.08 8.09 8.09 0 0 1-1.42-4.8Zm3.56 0c0 1.45.72 2.6 2.15 3.44 1.44.85 3.56 1.27 6.35 1.27 1.85 0 3.4-.19 4.66-.58a6.18 6.18 0 0 0 2.84-1.63c.64-.7.97-1.54.97-2.5 0-1.45-.72-2.6-2.16-3.44-1.43-.84-3.54-1.26-6.3-1.27-1.87 0-3.43.18-4.7.56a6.26 6.26 0 0 0-2.85 1.64 3.6 3.6 0 0 0-.96 2.5Zm-3.43 21.1c0-1.64.28-3.1.84-4.37a7.3 7.3 0 0 1 2.34-3 6 6 0 0 1 3.47-1.17v4.27c-.63.04-1.18.25-1.65.63-.46.37-.82.88-1.08 1.5a5.52 5.52 0 0 0-.39 2.12c0 .83.15 1.57.44 2.22.3.64.7 1.14 1.22 1.5.53.37 1.13.55 1.8.54.71 0 1.34-.17 1.87-.54.54-.38.96-.91 1.26-1.62.3-.7.46-1.54.46-2.52v-2.06h3.25v2.06c0 .81.14 1.52.42 2.12.28.62.67 1.1 1.18 1.45.52.35 1.11.52 1.78.5a3 3 0 0 0 2.86-1.7 5 5 0 0 0 .02-3.87 3.6 3.6 0 0 0-1.1-1.47 2.8 2.8 0 0 0-1.67-.59v-4.05c1.3.03 2.44.4 3.43 1.12a7.3 7.3 0 0 1 2.32 2.91 9.6 9.6 0 0 1 .84 4.08c0 1.55-.3 2.9-.88 4.05a6.6 6.6 0 0 1-2.33 2.66c-.97.63-2.05.95-3.23.95a4.82 4.82 0 0 1-3.3-1.16 5.44 5.44 0 0 1-1.74-3.05h-.18a5.9 5.9 0 0 1-1.82 3.76 5.2 5.2 0 0 1-3.65 1.31c-1.3 0-2.47-.37-3.5-1.11a7.4 7.4 0 0 1-2.4-3.05 10.64 10.64 0 0 1-.88-4.43Z" />
      </g>
    </g>
    <g data-object="Сокол__r__2358:136">
      <g data-object="Сокол__r__I2358:136;2219:182">
        <path fill="#78B500"
          d="M280 354a12 12 0 0 1 12-12h245a12 12 0 0 1 12 12v183a12 12 0 0 1-12 12H292a12 12 0 0 1-12-12V354Z" />
        <path fill="#fff"
          d="M372.93 431.3v29.1h-5.27v-23.96h-.17l-6.8 4.34v-4.83l7.23-4.64h5Zm19.22 0v29.1h-5.27v-23.96h-.17l-6.8 4.34v-4.83l7.22-4.64h5.02Zm20.67 12.44v4.23h-13.1v-4.23h13.1Zm16.1 17.21c-2.34 0-4.35-.59-6.02-1.77a11.31 11.31 0 0 1-3.85-5.16 22.17 22.17 0 0 1-1.34-8.14 22 22 0 0 1 1.35-8.1c.9-2.23 2.19-3.93 3.85-5.1a10.2 10.2 0 0 1 6.01-1.77c2.33 0 4.33.59 6 1.76a11 11 0 0 1 3.86 5.12c.9 2.23 1.35 4.93 1.35 8.1 0 3.18-.45 5.9-1.35 8.15a11.08 11.08 0 0 1-3.85 5.14 10.1 10.1 0 0 1-6.01 1.77Zm0-4.44c1.82 0 3.25-.9 4.3-2.69 1.06-1.8 1.6-4.44 1.6-7.94 0-2.3-.25-4.25-.73-5.82a7.71 7.71 0 0 0-2.04-3.55 4.48 4.48 0 0 0-3.13-1.2c-1.8 0-3.24.89-4.29 2.69-1.05 1.79-1.58 4.42-1.6 7.88 0 2.32.23 4.27.7 5.86a7.83 7.83 0 0 0 2.05 3.57c.88.8 1.93 1.2 3.14 1.2Zm26.58 4.29c-1.4-.01-2.75-.25-4.08-.73a9.6 9.6 0 0 1-3.58-2.34 11.52 11.52 0 0 1-2.52-4.33 20.4 20.4 0 0 1-.93-6.72c0-2.5.27-4.71.8-6.66a14.7 14.7 0 0 1 2.29-4.95 10.2 10.2 0 0 1 3.59-3.1 10.36 10.36 0 0 1 4.73-1.06c1.83 0 3.45.36 4.86 1.08a9.15 9.15 0 0 1 5.05 7.16h-5.18a4.7 4.7 0 0 0-1.63-2.67 4.7 4.7 0 0 0-3.1-1c-2.02 0-3.57.87-4.66 2.62-1.08 1.75-1.63 4.16-1.63 7.21h.2a7.27 7.27 0 0 1 1.8-2.14 8.85 8.85 0 0 1 5.47-1.88 8.73 8.73 0 0 1 7.82 4.6 9.71 9.71 0 0 1 1.18 4.88c.01 1.91-.42 3.63-1.3 5.16a9.48 9.48 0 0 1-3.68 3.57c-1.57.88-3.4 1.3-5.5 1.3Zm-.03-4.26a5.18 5.18 0 0 0 4.7-2.79c.48-.85.7-1.8.7-2.87 0-1.04-.22-1.98-.68-2.82a5.2 5.2 0 0 0-6.8-2.3 5.74 5.74 0 0 0-.7 10.01 5.1 5.1 0 0 0 2.78.77Z" />
      </g>
    </g>
    <g data-object="Сокол__r__2358:145">
      <g data-object="Сокол__r__I2358:145;2219:182">
        <path fill="#78B500"
          d="M282 12a12 12 0 0 1 12-12h98a12 12 0 0 1 12 12v185a12 12 0 0 1-12 12h-98a12 12 0 0 1-12-12V12Z" />
        <path fill="#fff"
          d="M310.98 93.79v23.27h-4.22V97.9h-.13l-5.45 3.48V97.5l5.79-3.71h4.01Zm15.38 0v23.27h-4.22V97.9H322l-5.44 3.48V97.5l5.78-3.71h4.02Zm16.53 9.94v3.39H332.4v-3.39h10.48Zm12.88 13.77a8.14 8.14 0 0 1-4.82-1.42 9.06 9.06 0 0 1-3.08-4.12 17.74 17.74 0 0 1-1.06-6.51c0-2.54.36-4.7 1.08-6.48a8.9 8.9 0 0 1 3.07-4.1 8.17 8.17 0 0 1 4.81-1.4c1.87 0 3.47.47 4.8 1.4a8.81 8.81 0 0 1 3.09 4.1 17.36 17.36 0 0 1 1.08 6.48c0 2.54-.36 4.72-1.08 6.52a8.88 8.88 0 0 1-3.08 4.11 8.08 8.08 0 0 1-4.8 1.42Zm0-3.55c1.46 0 2.6-.72 3.44-2.15.85-1.44 1.28-3.56 1.28-6.35 0-1.85-.2-3.4-.58-4.66a6.18 6.18 0 0 0-1.64-2.84 3.58 3.58 0 0 0-2.5-.97c-1.44 0-2.59.72-3.43 2.16-.84 1.43-1.26 3.53-1.27 6.3-.01 1.86.18 3.42.55 4.69a6.27 6.27 0 0 0 1.64 2.86c.7.64 1.54.96 2.51.96Zm12.97 3.11 9.9-19.59v-.16h-11.49V93.8H383v3.6l-9.88 19.67h-4.38Z" />
      </g>
    </g>
    <g data-object="Сокол__r__2358:149">
      <g data-object="Сокол__r__I2358:149;2219:182">
        <path fill="#78B500"
          d="M407 12a12 12 0 0 1 12-12h118a12 12 0 0 1 12 12v37a12 12 0 0 1-12 12H419a12 12 0 0 1-12-12V12Z" />
        <path fill="#fff"
          d="M445.18 18.88v23.28h-4.22V22.99h-.14l-5.44 3.47V22.6l5.79-3.72h4Zm15.37 0v23.28h-4.22V22.99h-.13l-5.44 3.47V22.6l5.78-3.72h4.01Zm16.53 9.95v3.38h-10.47v-3.38h10.47Zm12.89 13.77a8.13 8.13 0 0 1-4.82-1.42 9.05 9.05 0 0 1-3.08-4.13 17.74 17.74 0 0 1-1.07-6.5c.01-2.55.37-4.7 1.08-6.48a8.91 8.91 0 0 1 3.08-4.1 8.16 8.16 0 0 1 4.8-1.4c1.87 0 3.48.47 4.82 1.4a8.8 8.8 0 0 1 3.08 4.1 17.34 17.34 0 0 1 1.07 6.47c0 2.55-.36 4.72-1.07 6.53a8.88 8.88 0 0 1-3.08 4.1 8.09 8.09 0 0 1-4.81 1.43Zm0-3.56c1.45 0 2.6-.71 3.44-2.14.85-1.44 1.27-3.56 1.27-6.36 0-1.85-.19-3.4-.57-4.66a6.18 6.18 0 0 0-1.64-2.84 3.58 3.58 0 0 0-2.5-.96c-1.45 0-2.6.72-3.43 2.16-.84 1.43-1.27 3.53-1.28 6.3 0 1.86.18 3.42.56 4.68a6.27 6.27 0 0 0 1.64 2.87c.7.63 1.54.95 2.5.95Zm21.01 3.43c-1.69 0-3.19-.28-4.5-.85a7.49 7.49 0 0 1-3.06-2.33 5.47 5.47 0 0 1-1.1-3.37c0-.98.2-1.88.64-2.7a6 6 0 0 1 4.23-3.1v-.16a4.92 4.92 0 0 1-2.91-1.83 5.29 5.29 0 0 1-1.1-3.33c0-1.2.33-2.26 1-3.2a6.83 6.83 0 0 1 2.78-2.22 9.44 9.44 0 0 1 4.02-.81c1.5 0 2.82.27 4 .81a6.82 6.82 0 0 1 2.76 2.22c.69.94 1.03 2 1.03 3.2 0 1.26-.38 2.37-1.13 3.33a4.91 4.91 0 0 1-2.87 1.83v.16a6.01 6.01 0 0 1 4.2 3.1c.44.82.66 1.72.66 2.7a5.5 5.5 0 0 1-1.11 3.37 7.49 7.49 0 0 1-3.07 2.33c-1.3.57-2.79.85-4.47.85Zm0-3.25a5.4 5.4 0 0 0 2.28-.44 3.6 3.6 0 0 0 1.5-1.27c.35-.55.53-1.18.54-1.89 0-.74-.2-1.4-.58-1.96a3.81 3.81 0 0 0-1.53-1.36 4.81 4.81 0 0 0-2.2-.48c-.84 0-1.58.16-2.23.48-.66.33-1.17.78-1.55 1.36a3.44 3.44 0 0 0-.54 1.96 3.3 3.3 0 0 0 2.02 3.15c.65.3 1.41.45 2.3.45Zm0-10.6c.71 0 1.34-.14 1.89-.43a3.29 3.29 0 0 0 1.8-2.99 3.14 3.14 0 0 0-1.78-2.92 4.17 4.17 0 0 0-1.9-.42 4.3 4.3 0 0 0-1.95.42 3.08 3.08 0 0 0-1.74 2.92c0 .68.14 1.27.46 1.79.31.5.75.9 1.3 1.2.56.29 1.2.43 1.92.43Z" />
      </g>
    </g>
    <g data-object="Сокол__r__2358:153">
      <g data-object="Сокол__r__I2358:153;2219:182">
        <path fill="#78B500"
          d="M440 77a12 12 0 0 1 12-12h85a12 12 0 0 1 12 12v52a12 12 0 0 1-12 12h-85a12 12 0 0 1-12-12V77Z" />
        <path fill="#fff"
          d="M461.44 91.84v23.27h-4.21V95.94h-.14l-5.44 3.48v-3.86l5.78-3.72h4.01Zm15.38 0v23.27h-4.22V95.94h-.14l-5.44 3.48v-3.86l5.79-3.72h4Zm16.53 9.94v3.39h-10.48v-3.39h10.48Zm12.88 13.78a8.14 8.14 0 0 1-4.81-1.42 9.06 9.06 0 0 1-3.08-4.13 17.74 17.74 0 0 1-1.07-6.51c0-2.54.37-4.7 1.08-6.48a8.9 8.9 0 0 1 3.08-4.09 8.16 8.16 0 0 1 4.8-1.4c1.87 0 3.47.46 4.81 1.4a8.8 8.8 0 0 1 3.08 4.1 17.34 17.34 0 0 1 1.08 6.47c0 2.55-.36 4.72-1.08 6.52a8.87 8.87 0 0 1-3.08 4.12 8.08 8.08 0 0 1-4.8 1.42Zm0-3.56c1.46 0 2.6-.72 3.45-2.15.85-1.44 1.27-3.55 1.27-6.35 0-1.85-.2-3.4-.58-4.66a6.17 6.17 0 0 0-1.63-2.84 3.58 3.58 0 0 0-2.5-.97c-1.45 0-2.6.72-3.44 2.16-.84 1.43-1.26 3.54-1.27 6.3 0 1.87.18 3.43.56 4.7a6.27 6.27 0 0 0 1.63 2.86c.7.63 1.54.95 2.51.95Zm20.83-20.48c1.11.01 2.2.2 3.25.6 1.06.37 2.01 1 2.86 1.86a9 9 0 0 1 2.02 3.44c.5 1.44.75 3.22.75 5.34.01 2-.2 3.79-.63 5.36a11.91 11.91 0 0 1-1.83 3.98 8.08 8.08 0 0 1-2.88 2.48 8.26 8.26 0 0 1-3.78.85 8.55 8.55 0 0 1-3.91-.86 7.35 7.35 0 0 1-4.02-5.8h4.14c.22.93.65 1.66 1.3 2.2.66.55 1.49.81 2.49.81 1.61 0 2.85-.7 3.72-2.1.88-1.4 1.31-3.35 1.31-5.84h-.16a5.97 5.97 0 0 1-3.45 2.83 7.1 7.1 0 0 1-2.37.39 7.05 7.05 0 0 1-6.26-3.66 8 8 0 0 1-.95-3.9 8 8 0 0 1 1.04-4.08 7.58 7.58 0 0 1 2.95-2.86 8.7 8.7 0 0 1 4.4-1.04Zm0 3.41a4.17 4.17 0 0 0-3.75 2.22 4.76 4.76 0 0 0 0 4.51 4.14 4.14 0 0 0 3.72 2.2 4.19 4.19 0 0 0 3.1-1.34 4.62 4.62 0 0 0 1.26-3.15c0-.8-.2-1.53-.57-2.2a4.38 4.38 0 0 0-1.54-1.63 4.04 4.04 0 0 0-2.21-.6Z" />
      </g>
    </g>
    <g data-object="Сокол__r__2358:158">
      <g data-object="Сокол__r__I2358:158;2219:182">
        <path fill="#78B500"
          d="M459 157a12 12 0 0 1 12-12h66a12 12 0 0 1 12 12v40a12 12 0 0 1-12 12h-66a12 12 0 0 1-12-12v-40Z" />
        <path fill="#fff"
          d="M474.36 165.88v23.27h-4.22v-19.17H470l-5.44 3.48v-3.87l5.78-3.72h4.02Zm15.37 0v23.27h-4.22v-19.17h-.13l-5.44 3.48v-3.87l5.78-3.72h4.01Zm16.53 9.94v3.39H495.8v-3.4h10.47Zm13.75-9.94v23.27h-4.21v-19.17h-.14l-5.44 3.48v-3.87l5.78-3.72h4.01Zm14.51 23.71a8.14 8.14 0 0 1-4.81-1.42 9.05 9.05 0 0 1-3.08-4.12 17.74 17.74 0 0 1-1.07-6.52c0-2.53.37-4.7 1.08-6.47a8.9 8.9 0 0 1 3.08-4.1 8.17 8.17 0 0 1 4.8-1.4c1.87 0 3.47.47 4.81 1.4a8.8 8.8 0 0 1 3.08 4.1 17.36 17.36 0 0 1 1.08 6.47c0 2.55-.36 4.72-1.08 6.53a8.88 8.88 0 0 1-3.08 4.11 8.08 8.08 0 0 1-4.8 1.42Zm0-3.56c1.46 0 2.6-.71 3.45-2.14.85-1.44 1.27-3.56 1.27-6.36 0-1.84-.2-3.4-.58-4.66a6.2 6.2 0 0 0-1.64-2.84 3.58 3.58 0 0 0-2.5-.96c-1.44 0-2.59.72-3.43 2.16-.84 1.43-1.26 3.53-1.27 6.3 0 1.86.18 3.42.56 4.69a6.27 6.27 0 0 0 1.63 2.86c.7.64 1.54.95 2.51.95Z" />
      </g>
    </g>
    <g data-object="Сокол__r__2358:162">
      <g data-object="Сокол__r__I2358:162;2219:182">
        <path fill="#78B500"
          d="M460 224a12 12 0 0 1 12-12h65a12 12 0 0 1 12 12v36a12 12 0 0 1-12 12h-65a12 12 0 0 1-12-12v-36Z" />
        <path fill="#fff"
          d="M477.17 230.55v23.28h-4.22v-19.17h-.13l-5.45 3.47v-3.86l5.79-3.72h4Zm15.37 0v23.28h-4.21v-19.17h-.14l-5.44 3.47v-3.86l5.78-3.72h4.01Zm16.54 9.95v3.38H498.6v-3.38h10.48Zm13.74-9.95v23.28h-4.21v-19.17h-.14l-5.44 3.47v-3.86l5.78-3.72h4.01Zm15.38 0v23.28h-4.22v-19.17h-.13l-5.45 3.47v-3.86l5.79-3.72h4Z" />
      </g>
    </g>
  </g>
  <defs>
    <clipPath id="a">
      <path fill="#fff" d="M32 279.5h48v48H32z" />
    </clipPath>
    <clipPath id="b">
      <path fill="#fff" d="M60 279.5h48v48H60z" />
    </clipPath>
  </defs>
</svg>