<svg xmlns="http://www.w3.org/2000/svg" width="2012" height="412" fill="none" viewBox="0 0 2012 412">
  <g>
    <g>
      <rect width="14" height="20" x="989" y="310" fill="#262A34" rx="3" />
    </g>
    <g>
      <rect width="14" height="20" x="1120" y="192" fill="#262A34" rx="3" />
    </g>
    <g>
      <rect width="20" height="20" x="1195" y="192" fill="#262A34" rx="3" />
    </g>
    <g>
      <rect width="20" height="20" x="1086" y="266" fill="#262A34" rx="3" />
    </g>
    <g>
      <rect width="20" height="20" x="1308" y="266" fill="#262A34" rx="3" />
    </g>
    <g>
      <rect width="20" height="20" x="1709" y="267" fill="#262A34" rx="3" />
    </g>
    <g>
      <rect width="29" height="16" x="1782" y="243" fill="#262A34" rx="3" />
    </g>
    <g>
      <rect width="29" height="22" x="1448" y="291" fill="#262A34" rx="3"
        transform="rotate(-90 1448 291)" />
    </g>
    <g>
      <rect width="29" height="22" x="1591" y="216" fill="#262A34" rx="3"
        transform="rotate(-90 1591 216)" />
    </g>
    <g>
      <rect width="29" height="22" x="1349" y="210" fill="#262A34" rx="3"
        transform="rotate(-90 1349 210)" />
    </g>
    <g>
      <rect width="14" height="20" x="1072" y="192" fill="#262A34" rx="3" />
    </g>
    <g>
      <rect width="14" height="20" x="984" y="287" fill="#262A34" rx="3"
        transform="rotate(90 984 287)" />
    </g>
    <g>
      <path fill="#262A34"
        d="M1035 269.75c0 1.8 1.46 3.25 3.25 3.25H1777a12 12 0 0 0 12-12v-53.75c0-1.8-1.46-3.25-3.25-3.25a3.25 3.25 0 0 1-3.25-3.25v-8c0-2.35 1.9-4.25 4.25-4.25s4.25-1.9 4.25-4.25V16a12 12 0 0 0-12-12h-122a12 12 0 0 0-12 12v160.5a12 12 0 0 0 12 12h88.25a7.75 7.75 0 0 1 0 15.5h-701a3.75 3.75 0 0 0-3.75 3.75 3.75 3.75 0 0 1-3.75 3.75h-8.5a3.75 3.75 0 0 1-3.75-3.75 3.75 3.75 0 0 0-3.75-3.75h-2.25a6 6 0 0 1-6-6v-3.5a6 6 0 0 1 6-6 6 6 0 0 0 6-6V12a12 12 0 0 0-12-12h-130a12 12 0 0 0-12 12v164.5a12 12 0 0 0 12 12h98.25a7.75 7.75 0 0 1 7.75 7.75v3a4.75 4.75 0 0 1-4.75 4.75 4.75 4.75 0 0 0-4.75 4.75v92.75a12 12 0 0 0 12 12h14a12 12 0 0 0 12-12v-26a9 9 0 0 1 9-9h5.75a3.25 3.25 0 0 1 3.25 3.25Z" />
    </g>
    <g data-object="Сокол__t__2536:847">
      <rect width="107" height="131" x="1040" y="65" fill="#60A5FA" rx="12" />
      <g fill="#fff" clip-path="url(#a)">
        <path
          d="M1079.48 117a5.25 5.25 0 1 0 0-10.5 5.25 5.25 0 0 0 0 10.5Zm13.02 15.55-.97-3.22v-.01l-2.11-7.02-.24-.8a4.24 4.24 0 0 0-4.03-3h-11.25a4.17 4.17 0 0 0-4.03 3l-.24.8-2.11 7.02-.97 3.23a1.9 1.9 0 0 0 1.18 2.36 1.87 1.87 0 0 0 2.4-1.24l2.4-7.99.2-.68c.06-.16.18-.3.33-.39a.76.76 0 0 1 .95.16c.11.13.18.3.18.48l-.02.15-4.1 13.67c-.07.22-.08.46-.04.69.04.23.14.45.27.64a1.51 1.51 0 0 0 1.21.6h2.72v10.75c0 1.54.98 2.75 2.25 2.75 1.26 0 2.25-1.2 2.25-2.75V141h1.5v10.75c0 1.54.98 2.75 2.25 2.75 1.26 0 2.25-1.2 2.25-2.75V141h2.81a1.51 1.51 0 0 0 1.48-1.24c.04-.23.02-.47-.04-.7l-4.1-13.66a.72.72 0 0 1 .16-.63.73.73 0 0 1 .45-.25c.17-.03.35 0 .5.09.15.09.27.23.33.4l.2.67 2.4 8a1.85 1.85 0 0 0 1.66 1.32 1.9 1.9 0 0 0 1.92-2.45Z" />
      </g>
      <g fill="#fff" clip-path="url(#b)">
        <path
          d="M1107.5 117a5.25 5.25 0 1 0 0-10.5 5.25 5.25 0 0 0 0 10.5Zm4.5 1.5h-9a6.03 6.03 0 0 0-6 6v10.08a1.9 1.9 0 0 0 1.81 1.92 1.85 1.85 0 0 0 1.94-1.87v-9.35a.77.77 0 0 1 .7-.77.69.69 0 0 1 .56.2.7.7 0 0 1 .18.24c.04.1.06.2.06.3v27.1a2.17 2.17 0 0 0 2.16 2.15 2.14 2.14 0 0 0 2.15-2.16v-13.37a.96.96 0 0 1 .88-.97.9.9 0 0 1 .7.25.99.99 0 0 1 .3.69v13.4a2.14 2.14 0 0 0 3.68 1.52c.4-.4.63-.94.63-1.52v-27.06a.77.77 0 0 1 .7-.77.69.69 0 0 1 .56.2.7.7 0 0 1 .18.24c.04.1.06.2.06.3v9.33a1.9 1.9 0 0 0 1.81 1.92 1.9 1.9 0 0 0 1.37-.52 1.9 1.9 0 0 0 .57-1.35V124.5a6.01 6.01 0 0 0-6-6Z" />
      </g>
    </g>
    <g data-object="Сокол__s__2536:844">
      <rect width="153" height="135" x="871" fill="#fff" rx="12" />
      <g clip-path="url(#c)">
        <path fill="#000"
          d="M969.96 50.5h-7.5V58c0 .13-.01.22-.05.28a1.48 1.48 0 0 1-1.45 1.22h-7.49V67c0 .13-.01.22-.05.28a1.48 1.48 0 0 1-1.45 1.22h-7.49V76c0 .13-.02.22-.05.28-.06.34-.22.63-.49.87a1.4 1.4 0 0 1-.96.35h-7.5V85c0 .13 0 .22-.04.28-.06.34-.23.63-.49.87a1.4 1.4 0 0 1-.96.35h-9c-.4 0-.75-.15-1.04-.45-.3-.3-.45-.64-.45-1.05 0-.4.15-.76.45-1.05.3-.3.64-.45 1.05-.45h7.5V76c0-.13 0-.22.04-.28.06-.34.23-.63.51-.87.28-.23.6-.35.94-.35h7.5V67c0-.13 0-.22.04-.28.06-.34.23-.63.51-.87.29-.23.6-.35.94-.35h7.5V58c0-.1 0-.19.04-.28.06-.34.24-.63.52-.87.28-.23.59-.35.93-.35h7.5V49c0-.13.01-.22.04-.28a1.5 1.5 0 0 1 1.45-1.22h9c.4 0 .75.15 1.05.45.3.3.44.64.44 1.05 0 .4-.15.76-.44 1.05-.3.3-.65.45-1.05.45Z" />
      </g>
    </g>
    <g data-object="Сокол__s__2536:841">
      <rect width="146" height="134" x="1645" y="4" fill="#fff" rx="12" />
      <g>
        <path fill="#000"
          d="M1740.45 54h-7.49v7.5c0 .13-.01.22-.04.28a1.5 1.5 0 0 1-.5.87 1.4 1.4 0 0 1-.96.35h-7.49v7.5c0 .13-.01.22-.05.28-.06.34-.22.63-.49.87a1.4 1.4 0 0 1-.96.35h-7.49v7.5c0 .13-.02.22-.05.28-.06.34-.22.63-.49.87a1.4 1.4 0 0 1-.96.35h-7.49v7.5c0 .13-.02.22-.05.28-.06.34-.22.63-.49.87-.27.23-.59.35-.96.35h-8.99c-.41 0-.76-.15-1.06-.45-.29-.3-.44-.64-.44-1.05 0-.4.15-.76.44-1.05.3-.3.65-.45 1.06-.45h7.49v-7.5c0-.13.02-.22.05-.28.06-.34.23-.63.51-.87.28-.23.6-.35.94-.35h7.49v-7.5c0-.13.02-.22.05-.28.06-.34.23-.63.51-.87.29-.23.6-.35.94-.35h7.49v-7.5c0-.1.02-.19.05-.28.06-.34.23-.63.52-.87.28-.23.59-.35.93-.35h7.49v-7.5c0-.13.02-.22.05-.28.06-.34.23-.63.49-.87.27-.23.59-.35.96-.35h8.99c.41 0 .76.15 1.06.45.29.3.44.64.44 1.05 0 .4-.15.76-.44 1.05-.3.3-.65.45-1.06.45Z" />
      </g>
    </g>
    <g data-object="Сокол__r__2518:1436">
      <rect width="202" height="131" x="1430" y="65" fill="#78B500" rx="12" />
      <path fill="#fff"
        d="M1486.64 142.29h-4.5l8.19-23.28h5.21l8.2 23.28h-4.5l-6.21-18.5h-.18l-6.21 18.5Zm.15-9.13h12.27v3.39h-12.27v-3.39Zm30.42-4.2v3.38h-10.48v-3.38h10.48Zm12.37 13.64a9.38 9.38 0 0 1-4.07-.85 7.2 7.2 0 0 1-2.85-2.36c-.7-1-1.07-2.14-1.12-3.43h4.09c.08.95.49 1.73 1.24 2.34.75.6 1.66.9 2.71.9a4.1 4.1 0 0 0 3.73-2.15 4.6 4.6 0 0 0 .54-2.3 4.62 4.62 0 0 0-.56-2.35 4.09 4.09 0 0 0-1.55-1.6c-.66-.4-1.42-.6-2.28-.6a5.4 5.4 0 0 0-2.05.4c-.68.26-1.21.6-1.6 1.04L1522 131l1.21-12h13.5v3.53h-10.01l-.67 6.17h.14a4.72 4.72 0 0 1 1.83-1.26 6.45 6.45 0 0 1 2.59-.52 7.13 7.13 0 0 1 6.39 3.73 8.2 8.2 0 0 1 .95 3.98c0 1.54-.36 2.9-1.07 4.11a7.5 7.5 0 0 1-2.94 2.83 8.93 8.93 0 0 1-4.34 1.02Zm20.76.13a8.14 8.14 0 0 1-4.82-1.42 9.08 9.08 0 0 1-3.08-4.13 17.78 17.78 0 0 1-1.07-6.5c.01-2.55.37-4.7 1.08-6.48a8.93 8.93 0 0 1 3.08-4.1 8.18 8.18 0 0 1 4.81-1.4c1.86 0 3.47.47 4.81 1.4a8.87 8.87 0 0 1 3.08 4.1 17.34 17.34 0 0 1 1.08 6.47c0 2.55-.36 4.72-1.08 6.53a8.93 8.93 0 0 1-3.08 4.11 8.11 8.11 0 0 1-4.81 1.42Zm0-3.56c1.45 0 2.6-.71 3.44-2.14.85-1.44 1.28-3.56 1.28-6.36 0-1.84-.2-3.4-.58-4.66a6.26 6.26 0 0 0-1.64-2.84 3.6 3.6 0 0 0-2.5-.96c-1.45 0-2.59.72-3.43 2.16-.84 1.43-1.27 3.53-1.28 6.3 0 1.86.18 3.42.56 4.69a6.26 6.26 0 0 0 1.64 2.86c.7.63 1.54.95 2.51.95Zm20.83 3.44a9.41 9.41 0 0 1-4.07-.86 7.34 7.34 0 0 1-2.85-2.36c-.7-1-1.07-2.14-1.11-3.43h4.09a3.2 3.2 0 0 0 1.24 2.34c.75.6 1.65.9 2.7.9a4.08 4.08 0 0 0 3.73-2.15 4.6 4.6 0 0 0 .54-2.3 4.61 4.61 0 0 0-.55-2.35 4.18 4.18 0 0 0-1.56-1.6 4.3 4.3 0 0 0-2.27-.6c-.7 0-1.38.13-2.06.4a4.2 4.2 0 0 0-1.6 1.04l-3.81-.63 1.22-12h13.5v3.53h-10.01l-.67 6.17h.13a4.72 4.72 0 0 1 1.83-1.26 7.2 7.2 0 0 1 6.37.49 7.13 7.13 0 0 1 2.61 2.72 8.1 8.1 0 0 1 .95 3.98 7.6 7.6 0 0 1-4.01 6.94 8.9 8.9 0 0 1-4.34 1.02Z" />
    </g>
    <g data-object="Сокол__r__2518:1445">
      <rect width="149" height="131" x="1275" y="65" fill="#78B500" rx="12" />
      <path fill="#fff"
        d="M1305.23 142.29h-4.5l8.19-23.28h5.2l8.21 23.28h-4.5l-6.22-18.5h-.18l-6.2 18.5Zm.14-9.13h12.28v3.39h-12.28v-3.39Zm30.42-4.2v3.38h-10.48v-3.38h10.48Zm12.37 13.64a9.33 9.33 0 0 1-4.06-.85 7.3 7.3 0 0 1-2.86-2.36 6.26 6.26 0 0 1-1.11-3.43h4.09c.08.95.49 1.73 1.24 2.34.75.6 1.65.9 2.7.9a4.08 4.08 0 0 0 3.73-2.15c.37-.68.55-1.44.55-2.3 0-.89-.18-1.67-.56-2.35a4.33 4.33 0 0 0-3.83-2.2c-.7 0-1.38.13-2.06.4a4.2 4.2 0 0 0-1.6 1.04l-3.81-.63 1.22-12h13.5v3.53h-10.01l-.67 6.17h.13a4.87 4.87 0 0 1 1.83-1.26 7.2 7.2 0 0 1 6.37.49 7.13 7.13 0 0 1 2.61 2.72 8.1 8.1 0 0 1 .96 3.98 7.6 7.6 0 0 1-4.02 6.94 8.9 8.9 0 0 1-4.34 1.02Zm20.76.13a8.11 8.11 0 0 1-4.81-1.42 9.01 9.01 0 0 1-3.08-4.13 17.78 17.78 0 0 1-1.07-6.5c.01-2.55.37-4.7 1.08-6.48a8.87 8.87 0 0 1 3.08-4.1 8.15 8.15 0 0 1 4.8-1.4c1.87 0 3.47.47 4.81 1.4a8.8 8.8 0 0 1 3.08 4.1 17.34 17.34 0 0 1 1.08 6.47c0 2.55-.36 4.72-1.08 6.53a8.86 8.86 0 0 1-3.08 4.11 8.07 8.07 0 0 1-4.81 1.42Zm0-3.56c1.46 0 2.61-.71 3.45-2.14.85-1.44 1.27-3.56 1.27-6.36a16 16 0 0 0-.58-4.66 6.18 6.18 0 0 0-1.64-2.84 3.56 3.56 0 0 0-2.5-.96c-1.44 0-2.59.72-3.43 2.16-.84 1.43-1.26 3.53-1.27 6.3-.01 1.86.18 3.42.56 4.69a6.25 6.25 0 0 0 1.63 2.86c.71.63 1.55.95 2.51.95Zm12.33-1.2v-3.35l9.87-15.6h2.8v4.77h-1.71l-6.65 10.53v.18h13.79v3.47h-18.1Zm11.1 4.32v-5.34l.04-1.5V119h3.98v23.28h-4.02Z" />
    </g>
    <g data-object="Сокол__r__2535:803">
      <rect width="113" height="131" x="1158" y="65" fill="#78B500" rx="12" />
      <path fill="#fff"
        d="M1170.26 142.29h-4.5l8.19-23.28h5.2l8.21 23.28h-4.5l-6.22-18.5h-.18l-6.2 18.5Zm.14-9.13h12.28v3.39h-12.28v-3.39Zm30.42-4.2v3.38h-10.48v-3.38h10.48Zm12.37 13.64a9.33 9.33 0 0 1-4.06-.85 7.3 7.3 0 0 1-2.86-2.36 6.35 6.35 0 0 1-1.11-3.43h4.09c.08.95.49 1.73 1.24 2.34.75.6 1.65.9 2.7.9a4.08 4.08 0 0 0 3.73-2.15c.37-.68.55-1.44.55-2.3 0-.89-.18-1.67-.56-2.35a4.33 4.33 0 0 0-3.83-2.2c-.7 0-1.38.13-2.06.4-.67.26-1.2.6-1.6 1.04l-3.81-.63 1.22-12h13.5v3.53h-10.01l-.67 6.17h.14a4.75 4.75 0 0 1 1.82-1.26 6.5 6.5 0 0 1 2.6-.52 7.06 7.06 0 0 1 6.38 3.73 8.1 8.1 0 0 1 .96 3.98 7.63 7.63 0 0 1-4.01 6.94 8.94 8.94 0 0 1-4.35 1.02Zm20.77.13a8.12 8.12 0 0 1-4.82-1.42 9.01 9.01 0 0 1-3.08-4.13 17.78 17.78 0 0 1-1.07-6.5c.01-2.55.37-4.7 1.08-6.48a8.93 8.93 0 0 1 3.08-4.1 8.16 8.16 0 0 1 4.81-1.4c1.86 0 3.46.47 4.8 1.4a8.8 8.8 0 0 1 3.08 4.1 17.34 17.34 0 0 1 1.08 6.47c0 2.55-.36 4.72-1.08 6.53a8.86 8.86 0 0 1-3.08 4.11 8.06 8.06 0 0 1-4.8 1.42Zm0-3.56c1.45 0 2.6-.71 3.44-2.14.85-1.44 1.27-3.56 1.27-6.36a16 16 0 0 0-.58-4.66 6.17 6.17 0 0 0-1.63-2.84 3.6 3.6 0 0 0-2.5-.96c-1.45 0-2.6.72-3.44 2.16-.84 1.43-1.26 3.53-1.27 6.3-.01 1.86.18 3.42.56 4.69a6.25 6.25 0 0 0 1.63 2.86c.71.63 1.55.95 2.52.95Zm21.09 3.44a10.7 10.7 0 0 1-4.36-.85 7.23 7.23 0 0 1-3-2.34 5.99 5.99 0 0 1-1.17-3.46h4.27c.04.63.24 1.17.62 1.64s.89.83 1.51 1.09c.63.25 1.34.38 2.12.38.83 0 1.57-.14 2.21-.43.65-.3 1.15-.7 1.52-1.23a3 3 0 0 0 .53-1.8 3.1 3.1 0 0 0-.55-1.87 3.66 3.66 0 0 0-1.61-1.26c-.7-.3-1.54-.45-2.52-.45h-2.06v-3.25h2.06c.81 0 1.52-.15 2.12-.43a3.4 3.4 0 0 0 1.45-1.18c.34-.51.51-1.1.51-1.78a3.11 3.11 0 0 0-1.71-2.86 4.95 4.95 0 0 0-3.87-.02c-.61.25-1.1.62-1.47 1.1a2.78 2.78 0 0 0-.59 1.68H1247a5.9 5.9 0 0 1 1.13-3.44 7.3 7.3 0 0 1 2.91-2.31 9.59 9.59 0 0 1 4.08-.84c1.55 0 2.9.29 4.04.87a6.6 6.6 0 0 1 2.67 2.33c.63.98.95 2.06.95 3.24a4.8 4.8 0 0 1-1.16 3.3 5.47 5.47 0 0 1-3.05 1.73v.19c1.64.22 2.89.83 3.76 1.81a5.2 5.2 0 0 1 1.31 3.65c0 1.3-.37 2.47-1.11 3.5a7.4 7.4 0 0 1-3.05 2.41c-1.29.58-2.76.88-4.43.88Z" />
    </g>
    <g data-object="Сокол__r__2518:1450">
      <rect width="101" height="208" x="871" y="204" fill="#78B500" rx="12" />
      <path fill="#fff"
        d="M880.16 320.73h-4.5l8.2-23.27h5.2l8.2 23.27h-4.5l-6.22-18.5h-.18l-6.2 18.5Zm.14-9.13h12.28v3.4H880.3v-3.4Zm30.42-4.2v3.39h-10.47v-3.39h10.47Zm12.38 13.65a9.36 9.36 0 0 1-4.07-.85 7.24 7.24 0 0 1-2.86-2.37c-.7-1-1.06-2.14-1.1-3.43h4.08c.08.96.5 1.74 1.24 2.34.75.6 1.65.9 2.7.9a4.06 4.06 0 0 0 3.73-2.15c.37-.67.56-1.44.55-2.3 0-.88-.18-1.66-.56-2.35a4.16 4.16 0 0 0-1.56-1.6 4.25 4.25 0 0 0-2.27-.59c-.7 0-1.38.12-2.06.39a4.2 4.2 0 0 0-1.6 1.04l-3.8-.62 1.21-12h13.5v3.52h-10.01l-.67 6.17h.14a4.8 4.8 0 0 1 1.83-1.26 6.45 6.45 0 0 1 2.59-.51 7.17 7.17 0 0 1 6.38 3.73c.64 1.15.96 2.48.96 3.97 0 1.54-.36 2.91-1.07 4.12a7.55 7.55 0 0 1-2.94 2.83 8.92 8.92 0 0 1-4.35 1.02Zm21.62-23.6v23.28h-4.22v-19.17h-.13l-5.45 3.48v-3.87l5.79-3.71h4.01Zm5.9 23.28v-3.05l8.09-7.92a39 39 0 0 0 1.93-2.07c.52-.61.9-1.2 1.16-1.77.26-.56.39-1.17.39-1.81 0-.74-.17-1.37-.5-1.9-.34-.52-.8-.93-1.38-1.22a4.43 4.43 0 0 0-1.99-.43 4.1 4.1 0 0 0-2 .48c-.59.3-1.03.75-1.35 1.33a4.28 4.28 0 0 0-.47 2.05h-4c0-1.47.33-2.76 1-3.85a6.82 6.82 0 0 1 2.79-2.53c1.19-.6 2.55-.9 4.09-.9 1.56 0 2.93.3 4.11.88a6.7 6.7 0 0 1 2.75 2.4c.66 1 1 2.17 1 3.47a6.9 6.9 0 0 1-.5 2.57 10.9 10.9 0 0 1-1.77 2.8c-.83 1.02-2 2.25-3.51 3.7l-4.01 4.09v.16h10.13v3.52h-15.95Z" />
    </g>
    <g data-object="Сокол__r__2518:1457">
      <rect width="43" height="94" x="975" y="318" fill="#78B500" rx="12" />
      <path fill="#fff"
        d="M979.49 370.06h-1.97l3.59-10.18h2.27l3.6 10.18H985l-2.72-8.1h-.08l-2.71 8.1Zm.06-4h5.37v1.49h-5.37v-1.48Zm13.31-1.83v1.48h-4.58v-1.48h4.58Zm5.41 5.97a4.1 4.1 0 0 1-1.77-.37c-.53-.25-.95-.6-1.25-1.04-.3-.43-.47-.94-.49-1.5h1.79c.03.42.21.76.54 1.03.33.26.72.39 1.18.39a1.78 1.78 0 0 0 1.63-.94c.17-.3.25-.63.24-1.01a1.92 1.92 0 0 0-.92-1.72 1.9 1.9 0 0 0-1-.26c-.3 0-.6.05-.9.17-.29.11-.52.26-.7.45l-1.66-.27.53-5.25h5.91v1.54h-4.38l-.3 2.7h.06c.2-.22.46-.4.8-.55a3.15 3.15 0 0 1 3.93 1.4c.28.51.42 1.1.42 1.75a3.33 3.33 0 0 1-1.76 3.04c-.54.3-1.18.44-1.9.44Zm9.47-10.32v10.18h-1.85v-8.39h-.06l-2.38 1.52v-1.69l2.53-1.62h1.76Zm6.72 0v10.18h-1.84v-8.39h-.06l-2.38 1.52v-1.69l2.53-1.62h1.75Z" />
    </g>
    <g data-object="Сокол__r__2518:1439">
      <rect width="143" height="131" x="1646" y="281" fill="#78B500" rx="12" />
      <path fill="#fff"
        d="M1673.77 358.29h-4.5l8.19-23.28h5.21l8.2 23.28h-4.5l-6.21-18.5h-.19l-6.2 18.5Zm.15-9.13h12.27v3.39h-12.27v-3.39Zm30.42-4.2v3.38h-10.48v-3.38h10.48Zm12.37 13.65a9.38 9.38 0 0 1-4.07-.86 7.2 7.2 0 0 1-2.85-2.36c-.7-1-1.07-2.14-1.12-3.43h4.09c.08.95.49 1.73 1.24 2.34.75.6 1.65.9 2.71.9a4.1 4.1 0 0 0 3.73-2.15 4.6 4.6 0 0 0 .54-2.3 4.62 4.62 0 0 0-.56-2.35 4.15 4.15 0 0 0-1.55-1.6c-.66-.4-1.42-.6-2.28-.6a5.4 5.4 0 0 0-2.05.4c-.68.26-1.21.6-1.6 1.04l-3.81-.63 1.21-12h13.5v3.53h-10.01l-.67 6.17h.14a4.72 4.72 0 0 1 1.83-1.26 6.45 6.45 0 0 1 2.59-.51 7.13 7.13 0 0 1 6.39 3.72 8.2 8.2 0 0 1 .95 3.98c0 1.54-.36 2.9-1.07 4.11a7.5 7.5 0 0 1-2.94 2.83 8.93 8.93 0 0 1-4.34 1.03Zm20.76.12a8.14 8.14 0 0 1-4.82-1.42 9.08 9.08 0 0 1-3.08-4.13 17.78 17.78 0 0 1-1.07-6.5c.01-2.55.37-4.7 1.08-6.48a8.93 8.93 0 0 1 3.08-4.1 8.18 8.18 0 0 1 4.81-1.4c1.86 0 3.47.47 4.81 1.4a8.87 8.87 0 0 1 3.08 4.1 17.34 17.34 0 0 1 1.08 6.47c0 2.55-.36 4.72-1.08 6.53a8.93 8.93 0 0 1-3.08 4.11 8.11 8.11 0 0 1-4.81 1.42Zm0-3.56c1.45 0 2.6-.71 3.44-2.14.85-1.44 1.28-3.56 1.28-6.36 0-1.85-.2-3.4-.58-4.66a6.26 6.26 0 0 0-1.64-2.84 3.6 3.6 0 0 0-2.5-.96c-1.45 0-2.59.72-3.43 2.16-.84 1.43-1.27 3.53-1.28 6.3 0 1.86.18 3.42.56 4.69a6.26 6.26 0 0 0 1.64 2.86c.7.63 1.54.95 2.51.95Zm12.97 3.12 9.9-19.6v-.15h-11.49V335h15.85v3.6l-9.89 19.68h-4.37Z" />
    </g>
    <g data-object="Сокол__r__2536:808">
      <rect width="206" height="347" x="1806" y="65" fill="#78B500" rx="12" />
      <path fill="#fff"
        d="M1864.58 251.66h-4.5l8.19-23.27h5.21l8.2 23.27h-4.5l-6.21-18.5h-.19l-6.2 18.5Zm.15-9.12H1877v3.38h-12.27v-3.38Zm30.42-4.2v3.38h-10.48v-3.39h10.48Zm12.37 13.64a9.38 9.38 0 0 1-4.07-.85 7.2 7.2 0 0 1-2.85-2.37c-.7-1-1.07-2.14-1.12-3.43h4.09c.08.96.49 1.74 1.24 2.34.75.6 1.65.9 2.71.9.82 0 1.56-.19 2.2-.57.65-.38 1.15-.9 1.52-1.58a4.5 4.5 0 0 0 .55-2.3 4.61 4.61 0 0 0-.56-2.34 4.15 4.15 0 0 0-1.55-1.6c-.66-.4-1.42-.6-2.28-.6a5.4 5.4 0 0 0-2.05.39 4.2 4.2 0 0 0-1.61 1.04l-3.8-.62 1.21-12h13.5v3.52h-10.01l-.67 6.17h.14c.43-.5 1.04-.93 1.83-1.26a6.45 6.45 0 0 1 2.59-.51 7.13 7.13 0 0 1 6.39 3.73 8.2 8.2 0 0 1 .95 3.97c0 1.54-.36 2.91-1.07 4.12a7.5 7.5 0 0 1-2.94 2.83 8.93 8.93 0 0 1-4.34 1.02Zm20.76.12a8.14 8.14 0 0 1-4.82-1.42 9.08 9.08 0 0 1-3.08-4.12 17.78 17.78 0 0 1-1.07-6.51c.01-2.54.37-4.7 1.08-6.48a8.93 8.93 0 0 1 3.08-4.1 8.18 8.18 0 0 1 4.81-1.4 8.2 8.2 0 0 1 4.81 1.4 8.86 8.86 0 0 1 3.08 4.1 17.56 17.56 0 0 1 1.07 6.48c0 2.54-.36 4.72-1.07 6.52a8.94 8.94 0 0 1-3.08 4.11 8.11 8.11 0 0 1-4.81 1.42Zm0-3.55c1.45 0 2.6-.72 3.44-2.15.85-1.44 1.27-3.56 1.27-6.35 0-1.85-.19-3.4-.57-4.66a6.26 6.26 0 0 0-1.64-2.84 3.6 3.6 0 0 0-2.5-.97c-1.45 0-2.59.72-3.43 2.16-.84 1.43-1.27 3.53-1.28 6.3 0 1.86.18 3.42.56 4.69a6.26 6.26 0 0 0 1.64 2.86c.7.64 1.54.96 2.51.96Zm21.26 3.43c-1.11 0-2.2-.2-3.26-.58a7.69 7.69 0 0 1-2.86-1.88 9.2 9.2 0 0 1-2.02-3.46 16.4 16.4 0 0 1-.74-5.38c0-1.99.21-3.77.63-5.33a12 12 0 0 1 1.83-3.95 8.13 8.13 0 0 1 2.88-2.48 8.3 8.3 0 0 1 3.78-.85c1.46 0 2.76.29 3.89.86a7.38 7.38 0 0 1 4.04 5.73h-4.14a3.8 3.8 0 0 0-1.31-2.13 3.77 3.77 0 0 0-2.48-.81c-1.61 0-2.85.7-3.73 2.1-.86 1.4-1.29 3.33-1.3 5.77h.16c.37-.66.85-1.24 1.44-1.71a7.04 7.04 0 0 1 4.37-1.5 7.02 7.02 0 0 1 6.27 3.67 7.8 7.8 0 0 1 .94 3.9 7.94 7.94 0 0 1-1.05 4.13 7.53 7.53 0 0 1-2.94 2.86 8.84 8.84 0 0 1-4.4 1.04Zm-.02-3.41a4.17 4.17 0 0 0 3.76-2.23 4.5 4.5 0 0 0 .56-2.3 4.51 4.51 0 0 0-2.06-3.86 4.16 4.16 0 0 0-2.2-.59 4.18 4.18 0 0 0-3.11 1.33 4.7 4.7 0 0 0-1.27 3.16c.01.81.2 1.56.57 2.24a4.18 4.18 0 0 0 3.75 2.25Z" />
    </g>
    <g data-object="Сокол__r__2518:1442">
      <rect width="208" height="131" x="1424" y="281" fill="#78B500" rx="12" />
      <path fill="#fff"
        d="M1483.47 358.29h-4.5l8.19-23.28h5.21l8.2 23.28h-4.5l-6.21-18.5h-.18l-6.21 18.5Zm.15-9.13h12.27v3.39h-12.27v-3.39Zm30.42-4.2v3.38h-10.48v-3.38h10.48Zm12.37 13.65a9.38 9.38 0 0 1-4.07-.86 7.2 7.2 0 0 1-2.85-2.36c-.7-1-1.07-2.14-1.12-3.43h4.1a3.2 3.2 0 0 0 1.23 2.34c.75.6 1.66.9 2.71.9a4.1 4.1 0 0 0 3.73-2.15 4.6 4.6 0 0 0 .54-2.3 4.62 4.62 0 0 0-.56-2.35 4.09 4.09 0 0 0-1.55-1.6 4.3 4.3 0 0 0-2.27-.6c-.7 0-1.39.13-2.06.4-.68.26-1.21.6-1.6 1.04l-3.81-.63 1.22-12h13.5v3.53h-10.02l-.67 6.17h.14a4.72 4.72 0 0 1 1.83-1.26 6.45 6.45 0 0 1 2.59-.51 7.13 7.13 0 0 1 6.39 3.72 8.2 8.2 0 0 1 .95 3.98c0 1.54-.35 2.9-1.07 4.11a7.5 7.5 0 0 1-2.94 2.83 8.93 8.93 0 0 1-4.34 1.03Zm20.76.12a8.14 8.14 0 0 1-4.82-1.42 9.08 9.08 0 0 1-3.08-4.13 17.78 17.78 0 0 1-1.07-6.5c.01-2.55.37-4.7 1.08-6.48a8.93 8.93 0 0 1 3.08-4.1 8.18 8.18 0 0 1 4.81-1.4c1.86 0 3.47.47 4.81 1.4a8.87 8.87 0 0 1 3.08 4.1 17.34 17.34 0 0 1 1.08 6.47c0 2.55-.36 4.72-1.08 6.53a8.93 8.93 0 0 1-3.08 4.11 8.11 8.11 0 0 1-4.81 1.42Zm0-3.56c1.45 0 2.6-.71 3.44-2.14.85-1.44 1.28-3.56 1.28-6.36 0-1.85-.2-3.4-.58-4.66a6.26 6.26 0 0 0-1.64-2.84 3.58 3.58 0 0 0-2.5-.96c-1.45 0-2.59.72-3.43 2.16-.84 1.43-1.27 3.53-1.27 6.3a16.2 16.2 0 0 0 .55 4.69 6.26 6.26 0 0 0 1.64 2.86c.7.63 1.54.95 2.51.95Zm21.01 3.44c-1.68 0-3.18-.29-4.5-.86a7.46 7.46 0 0 1-3.06-2.33 5.4 5.4 0 0 1-1.09-3.37 5.6 5.6 0 0 1 .63-2.7 6.03 6.03 0 0 1 1.75-2.04c.74-.55 1.57-.9 2.48-1.06v-.16a4.9 4.9 0 0 1-2.91-1.83 5.3 5.3 0 0 1-1.09-3.32 5.25 5.25 0 0 1 1-3.21 6.82 6.82 0 0 1 2.77-2.22 9.48 9.48 0 0 1 4.02-.81c1.5 0 2.83.27 3.99.81a6.85 6.85 0 0 1 2.78 2.22c.68.94 1.02 2 1.02 3.2a5.27 5.27 0 0 1-4 5.16v.16a5.92 5.92 0 0 1 4.86 5.8 5.5 5.5 0 0 1-1.11 3.37 7.5 7.5 0 0 1-3.07 2.33 11 11 0 0 1-4.47.86Zm0-3.25c.88 0 1.63-.15 2.28-.45a3.6 3.6 0 0 0 1.5-1.27c.35-.55.54-1.18.54-1.89 0-.74-.2-1.4-.58-1.96a3.79 3.79 0 0 0-1.53-1.36 4.81 4.81 0 0 0-2.21-.48c-.83 0-1.57.16-2.22.49-.65.32-1.17.77-1.55 1.35a3.43 3.43 0 0 0-.54 1.96 3.28 3.28 0 0 0 2.02 3.15c.65.3 1.42.46 2.29.46Zm0-10.6c.72 0 1.35-.15 1.89-.44a3.33 3.33 0 0 0 1.32-4.74c-.31-.5-.74-.9-1.3-1.17a4.16 4.16 0 0 0-1.91-.42 4.3 4.3 0 0 0-1.94.42 3.08 3.08 0 0 0-1.74 2.92c0 .68.15 1.27.46 1.79.32.5.75.9 1.3 1.2.56.29 1.2.43 1.92.43Z" />
    </g>
    <g data-object="Сокол__r__2535:795">
      <rect width="154" height="131" x="1266" y="281" fill="#78B500" rx="12" />
      <path fill="#fff"
        d="M1298.62 358.29h-4.5l8.19-23.28h5.21l8.2 23.28h-4.5l-6.21-18.5h-.19l-6.2 18.5Zm.15-9.13h12.27v3.39h-12.27v-3.39Zm30.41-4.2v3.38h-10.47v-3.38h10.47Zm12.38 13.65a9.38 9.38 0 0 1-4.07-.86 7.2 7.2 0 0 1-2.85-2.36c-.7-1-1.07-2.14-1.12-3.43h4.09c.08.95.49 1.73 1.24 2.34.75.6 1.65.9 2.71.9a4.08 4.08 0 0 0 3.72-2.15 4.6 4.6 0 0 0 .55-2.3 4.62 4.62 0 0 0-.56-2.35 4.23 4.23 0 0 0-3.83-2.2 5.4 5.4 0 0 0-2.05.4c-.68.26-1.21.6-1.61 1.04l-3.8-.63 1.21-12h13.5v3.53h-10.01l-.67 6.17h.14a4.72 4.72 0 0 1 1.83-1.26 6.42 6.42 0 0 1 2.59-.51 7.16 7.16 0 0 1 6.38 3.72 8.1 8.1 0 0 1 .96 3.98c0 1.54-.36 2.9-1.07 4.11a7.56 7.56 0 0 1-2.94 2.83 8.93 8.93 0 0 1-4.34 1.03Zm20.76.12a8.14 8.14 0 0 1-4.82-1.42 9.08 9.08 0 0 1-3.08-4.13 17.78 17.78 0 0 1-1.07-6.5c.01-2.55.37-4.7 1.08-6.48a8.93 8.93 0 0 1 3.08-4.1 8.16 8.16 0 0 1 4.81-1.4c1.86 0 3.46.47 4.8 1.4a8.73 8.73 0 0 1 3.08 4.1 17.34 17.34 0 0 1 1.08 6.47c0 2.55-.36 4.72-1.08 6.53a8.8 8.8 0 0 1-3.08 4.11 8.06 8.06 0 0 1-4.8 1.42Zm0-3.56c1.45 0 2.6-.71 3.44-2.14.85-1.44 1.27-3.56 1.27-6.36 0-1.85-.19-3.4-.58-4.66a6.17 6.17 0 0 0-1.63-2.84 3.6 3.6 0 0 0-2.5-.96c-1.45 0-2.59.72-3.43 2.16-.84 1.43-1.27 3.53-1.28 6.3 0 1.86.18 3.42.56 4.69a6.26 6.26 0 0 0 1.64 2.86c.7.63 1.54.95 2.51.95Zm20.82-20.47c1.11 0 2.2.2 3.25.59a7.6 7.6 0 0 1 2.86 1.86 9 9 0 0 1 2.03 3.44c.5 1.44.75 3.22.75 5.35 0 2-.21 3.78-.64 5.36a12.13 12.13 0 0 1-1.83 3.98 8.05 8.05 0 0 1-2.88 2.47 8.24 8.24 0 0 1-3.78.86 8.56 8.56 0 0 1-3.91-.87 7.36 7.36 0 0 1-4.02-5.8h4.15c.21.93.64 1.67 1.29 2.21.66.54 1.49.8 2.49.8 1.61 0 2.86-.7 3.73-2.1.87-1.4 1.3-3.34 1.3-5.84h-.15a6.16 6.16 0 0 1-3.46 2.83c-.74.26-1.53.39-2.36.39a7.02 7.02 0 0 1-6.26-3.66 8.02 8.02 0 0 1-.96-3.9 8 8 0 0 1 1.05-4.08 7.53 7.53 0 0 1 2.94-2.86 8.73 8.73 0 0 1 4.41-1.03Zm.01 3.4a4.2 4.2 0 0 0-3.76 2.22 4.83 4.83 0 0 0 0 4.51 4.13 4.13 0 0 0 3.71 2.2 4.18 4.18 0 0 0 3.11-1.33 4.65 4.65 0 0 0 1.26-3.15c0-.8-.19-1.53-.57-2.2a4.38 4.38 0 0 0-1.53-1.63 4.08 4.08 0 0 0-2.22-.62Z" />
    </g>
    <g data-object="Сокол__r__2535:800">
      <rect width="224" height="131" x="1035" y="281" fill="#78B500" rx="12" />
      <path fill="#fff"
        d="M1105.37 358.29h-4.5l8.19-23.28h5.21l8.2 23.28h-4.5l-6.21-18.5h-.19l-6.2 18.5Zm.15-9.13h12.27v3.39h-12.27v-3.39Zm30.41-4.2v3.38h-10.47v-3.38h10.47Zm12.38 13.65a9.38 9.38 0 0 1-4.07-.86 7.2 7.2 0 0 1-2.85-2.36c-.7-1-1.07-2.14-1.12-3.43h4.09c.08.95.49 1.73 1.24 2.34.75.6 1.65.9 2.71.9.82 0 1.56-.2 2.2-.57.65-.38 1.15-.9 1.52-1.58a4.5 4.5 0 0 0 .55-2.3 4.62 4.62 0 0 0-.56-2.35 4.23 4.23 0 0 0-3.83-2.2 5.4 5.4 0 0 0-2.05.4c-.68.26-1.21.6-1.61 1.04l-3.8-.63 1.21-12h13.5v3.53h-10.01l-.67 6.17h.14a4.72 4.72 0 0 1 1.83-1.26 6.45 6.45 0 0 1 2.59-.51 7.16 7.16 0 0 1 6.38 3.72 8.1 8.1 0 0 1 .96 3.98c0 1.54-.36 2.9-1.07 4.11a7.5 7.5 0 0 1-2.94 2.83 8.93 8.93 0 0 1-4.34 1.03Zm21.62-23.6v23.28h-4.21v-19.17h-.14l-5.44 3.47v-3.86l5.78-3.72h4.01Zm14.51 23.72a8.16 8.16 0 0 1-4.82-1.42 9.06 9.06 0 0 1-3.07-4.13 17.57 17.57 0 0 1-1.07-6.5c0-2.55.36-4.7 1.08-6.48a8.87 8.87 0 0 1 3.08-4.1 8.15 8.15 0 0 1 4.8-1.4c1.87 0 3.47.47 4.81 1.4a8.8 8.8 0 0 1 3.08 4.1 17.34 17.34 0 0 1 1.08 6.47c0 2.55-.36 4.72-1.08 6.53a8.86 8.86 0 0 1-3.08 4.11 8.09 8.09 0 0 1-4.81 1.42Zm0-3.56c1.46 0 2.61-.71 3.45-2.14.84-1.44 1.27-3.56 1.27-6.36 0-1.85-.19-3.4-.58-4.66a6.18 6.18 0 0 0-1.64-2.84 3.56 3.56 0 0 0-2.5-.96c-1.44 0-2.59.72-3.43 2.16-.84 1.43-1.26 3.53-1.27 6.3-.01 1.86.18 3.42.56 4.69a6.25 6.25 0 0 0 1.63 2.86c.71.63 1.54.95 2.51.95Z" />
    </g>
    <g>
      <path fill="#262A34"
        d="M107 88.25a9.75 9.75 0 0 0 9.75 9.75h2.5a9.75 9.75 0 0 0 9.75-9.75 9.75 9.75 0 0 1 9.75-9.75h8.75a12 12 0 0 0 12-12V52.25c0-5.1 4.14-9.25 9.25-9.25h3.5a5.75 5.75 0 1 0 0-11.5H165a5.5 5.5 0 0 1-5.5-5.5 5.5 5.5 0 0 0-5.5-5.5H12a12 12 0 0 0-12 12v34a12 12 0 0 0 12 12h85.25a9.75 9.75 0 0 1 9.75 9.75Z" />
    </g>
    <g data-object="Сокол__r__2784:267">
      <rect width="131" height="282" y="92" fill="#78B500" rx="12" />
      <path fill="#fff"
        d="M10.92 246.18h-4.5l8.2-23.27h5.2l8.2 23.27h-4.5l-6.21-18.5h-.18l-6.2 18.5Zm.15-9.12h12.27v3.38H11.07v-3.38Zm30.42-4.2v3.38H31v-3.39h10.48Zm12.37 13.64a9.38 9.38 0 0 1-4.07-.85 7.26 7.26 0 0 1-2.85-2.37c-.7-1-1.07-2.14-1.12-3.43h4.1c.07.96.48 1.74 1.23 2.34.75.6 1.66.9 2.7.9a4.08 4.08 0 0 0 3.73-2.15c.38-.67.56-1.44.55-2.3 0-.88-.18-1.66-.56-2.34a4.16 4.16 0 0 0-1.55-1.6c-.66-.4-1.42-.6-2.28-.6-.7 0-1.38.12-2.05.39-.68.26-1.21.61-1.6 1.04l-3.81-.62 1.21-12H61v3.52H51l-.68 6.17h.14a4.8 4.8 0 0 1 1.83-1.26 6.45 6.45 0 0 1 2.59-.51 7.17 7.17 0 0 1 6.39 3.73c.63 1.16.95 2.48.95 3.97 0 1.54-.36 2.91-1.07 4.12a7.56 7.56 0 0 1-2.94 2.83 8.92 8.92 0 0 1-4.34 1.02Zm20.76.13a8.14 8.14 0 0 1-4.82-1.42 9.04 9.04 0 0 1-3.08-4.13 17.73 17.73 0 0 1-1.07-6.51c.01-2.54.37-4.7 1.08-6.48a8.9 8.9 0 0 1 3.08-4.09 8.16 8.16 0 0 1 4.81-1.4c1.86 0 3.47.46 4.8 1.4a8.8 8.8 0 0 1 3.09 4.1 17.35 17.35 0 0 1 1.08 6.47c0 2.54-.36 4.72-1.08 6.52a8.87 8.87 0 0 1-3.08 4.12 8.08 8.08 0 0 1-4.81 1.42Zm0-3.56c1.45 0 2.6-.72 3.44-2.15.85-1.44 1.28-3.56 1.28-6.35 0-1.85-.2-3.4-.58-4.66a6.18 6.18 0 0 0-1.64-2.84 3.58 3.58 0 0 0-2.5-.97c-1.45 0-2.6.72-3.43 2.16-.84 1.43-1.27 3.54-1.27 6.3a16.3 16.3 0 0 0 .55 4.7 6.27 6.27 0 0 0 1.64 2.85c.7.64 1.54.96 2.51.96Zm21.34 3.56a8.14 8.14 0 0 1-4.81-1.42 9.04 9.04 0 0 1-3.08-4.13 17.73 17.73 0 0 1-1.07-6.51c0-2.54.37-4.7 1.08-6.48a8.9 8.9 0 0 1 3.08-4.09 8.16 8.16 0 0 1 4.8-1.4c1.87 0 3.47.46 4.81 1.4a8.8 8.8 0 0 1 3.08 4.1 17.34 17.34 0 0 1 1.08 6.47c0 2.54-.36 4.72-1.08 6.52a8.87 8.87 0 0 1-3.08 4.12 8.09 8.09 0 0 1-4.8 1.42Zm0-3.56c1.46 0 2.6-.72 3.45-2.15.84-1.44 1.27-3.56 1.27-6.35 0-1.85-.2-3.4-.58-4.66a6.18 6.18 0 0 0-1.64-2.84 3.58 3.58 0 0 0-2.5-.97c-1.44 0-2.59.72-3.43 2.16-.84 1.43-1.26 3.54-1.27 6.3 0 1.87.18 3.43.56 4.7a6.27 6.27 0 0 0 1.63 2.85c.7.64 1.54.96 2.51.96Zm26.78-20.8 1.43 2.66a4.8 4.8 0 0 1-1.7.96c-.63.2-1.37.32-2.22.38-.84.06-1.84.1-3 .12-1.3.03-2.37.27-3.2.74a4.52 4.52 0 0 0-1.89 2.1 10.8 10.8 0 0 0-.86 3.57h.19a5.74 5.74 0 0 1 2.3-2.45 6.88 6.88 0 0 1 3.46-.84 7.4 7.4 0 0 1 3.83.98 6.6 6.6 0 0 1 2.6 2.8 9.7 9.7 0 0 1 .95 4.46c0 1.8-.34 3.35-1.02 4.67a7.21 7.21 0 0 1-2.87 3.04 8.65 8.65 0 0 1-4.4 1.06 8.54 8.54 0 0 1-4.4-1.1 7.35 7.35 0 0 1-2.9-3.28 12.75 12.75 0 0 1-1-5.38v-1.57c0-4.1.76-7.17 2.29-9.19 1.53-2.02 3.8-3.05 6.8-3.09.9-.01 1.7-.02 2.4-.01.72 0 1.34-.03 1.87-.1.53-.08.98-.25 1.34-.53Zm-6.38 20.96a3.7 3.7 0 0 0 2.19-.65 4.12 4.12 0 0 0 1.4-1.86c.34-.8.5-1.76.5-2.86 0-1.08-.16-2-.5-2.76a3.87 3.87 0 0 0-1.42-1.75c-.6-.4-1.34-.6-2.19-.6-.64 0-1.2.11-1.71.34-.51.23-.94.56-1.3 1-.36.44-.63.97-.82 1.6a7.9 7.9 0 0 0-.3 2.17 6.3 6.3 0 0 0 1.1 3.92 3.64 3.64 0 0 0 3.05 1.45Z" />
    </g>
    <g data-object="Сокол__r__2784:270">
      <rect width="85" height="70" x="171" y="16" fill="#78B500" rx="12" />
      <path fill="#fff"
        d="M185.7 57.13h-2.25l4.1-11.64h2.6l4.1 11.64H192l-3.11-9.25h-.1l-3.1 9.25Zm.07-4.56h6.14v1.7h-6.14v-1.7Zm15.2-2.1v1.69h-5.23v-1.7h5.24Zm6.2 6.82c-.76 0-1.44-.14-2.04-.43a3.63 3.63 0 0 1-1.43-1.18 3.13 3.13 0 0 1-.55-1.71h2.04c.04.47.25.86.62 1.17.38.3.83.45 1.35.45a2.1 2.1 0 0 0 2.14-2.23c0-.44-.09-.83-.28-1.17a2.17 2.17 0 0 0-1.91-1.1 2.62 2.62 0 0 0-1.83.72l-1.9-.32.6-6h6.75v1.77h-5l-.34 3.08h.07c.22-.25.52-.46.91-.63a3.58 3.58 0 0 1 4.49 1.6c.32.59.48 1.25.48 2a3.78 3.78 0 0 1-2 3.47 4.5 4.5 0 0 1-2.18.5Zm10.38.06c-.94 0-1.74-.23-2.41-.7a4.53 4.53 0 0 1-1.54-2.07 8.87 8.87 0 0 1-.54-3.26c0-1.27.19-2.34.54-3.23.36-.9.88-1.58 1.54-2.05.67-.47 1.47-.7 2.4-.7.94 0 1.74.23 2.4.7a4.4 4.4 0 0 1 1.55 2.05c.36.89.54 1.97.54 3.23a8.8 8.8 0 0 1-.54 3.27 4 4 0 0 1-3.94 2.76Zm0-1.78c.72 0 1.3-.35 1.72-1.07.42-.72.63-1.78.63-3.18a8 8 0 0 0-.29-2.33 3.05 3.05 0 0 0-.82-1.42 1.8 1.8 0 0 0-1.25-.48c-.72 0-1.29.36-1.71 1.08a6.37 6.37 0 0 0-.64 3.15c0 .93.1 1.71.28 2.34.2.64.47 1.11.82 1.44.35.31.77.47 1.25.47Zm10.67 1.78c-.94 0-1.74-.23-2.41-.7a4.52 4.52 0 0 1-1.54-2.07 8.87 8.87 0 0 1-.54-3.26c0-1.27.19-2.34.54-3.23.36-.9.88-1.58 1.54-2.05.67-.47 1.47-.7 2.4-.7.94 0 1.74.23 2.41.7a4.4 4.4 0 0 1 1.54 2.05c.36.89.54 1.97.54 3.23a8.8 8.8 0 0 1-.54 3.27 4 4 0 0 1-3.94 2.76Zm0-1.78c.72 0 1.3-.35 1.72-1.07.42-.72.63-1.78.63-3.18a8 8 0 0 0-.28-2.33 3.1 3.1 0 0 0-.82-1.42 1.8 1.8 0 0 0-1.25-.48c-.73 0-1.3.36-1.72 1.08a6.37 6.37 0 0 0-.63 3.15c0 .93.08 1.71.27 2.34.2.64.47 1.11.82 1.44.35.31.77.47 1.26.47Zm8.9 1.74c-.55 0-1.05-.1-1.5-.3a2.5 2.5 0 0 1-1.04-.89 2.6 2.6 0 0 1-.38-1.44c0-.5.1-.9.27-1.22.19-.32.43-.58.75-.77.31-.2.67-.34 1.06-.44.4-.1.81-.18 1.23-.22l1.25-.14c.32-.05.55-.12.7-.2.14-.1.21-.25.21-.45v-.03c0-.43-.12-.76-.38-1-.25-.23-.62-.35-1.1-.35-.5 0-.9.11-1.2.33-.28.22-.48.48-.58.78l-1.92-.27a3.06 3.06 0 0 1 2.02-2.14 5.43 5.43 0 0 1 2.93-.13c.42.1.8.27 1.14.5.35.22.62.52.83.91.21.39.32.87.32 1.45v5.84h-1.98v-1.2h-.06a2.52 2.52 0 0 1-1.38 1.19c-.34.12-.73.19-1.19.19Zm.54-1.51c.4 0 .77-.09 1.07-.25.3-.17.54-.39.7-.66.16-.27.25-.57.25-.89v-1.03a.97.97 0 0 1-.33.15l-.51.12a15.43 15.43 0 0 1-1.05.16c-.3.04-.58.1-.82.2s-.44.23-.57.4a.97.97 0 0 0-.22.65c0 .38.14.66.42.86.28.19.63.29 1.06.29Z" />
    </g>
    <g data-object="Сокол__s__2787:1103">
      <rect width="124" height="59" y="20" fill="#fff" rx="12" />
      <g>
        <path fill="#000"
          d="M84.45 32.5h-7.49V40c0 .13-.01.22-.04.28a1.48 1.48 0 0 1-1.46 1.22h-7.49V49c0 .13-.01.22-.05.28a1.48 1.48 0 0 1-1.45 1.22h-7.49V58c0 .13-.02.22-.05.28-.06.34-.22.63-.49.87a1.4 1.4 0 0 1-.96.35h-7.5V67c0 .13 0 .22-.04.28-.06.34-.22.63-.49.87a1.4 1.4 0 0 1-.96.35h-9c-.4 0-.75-.15-1.05-.45-.3-.3-.44-.64-.44-1.05 0-.4.15-.76.44-1.05.3-.3.65-.45 1.06-.45H47V58c0-.13 0-.22.04-.28.06-.34.23-.63.51-.87.28-.23.6-.35.94-.35h7.5V49c0-.13 0-.22.04-.28.06-.34.23-.63.51-.87.29-.23.6-.35.94-.35h7.5V40c0-.1 0-.19.04-.28.06-.34.23-.63.52-.87.28-.23.59-.35.93-.35h7.5V31c0-.13.01-.22.04-.28a1.5 1.5 0 0 1 1.45-1.22h9c.4 0 .75.15 1.05.45.3.3.44.64.44 1.05 0 .4-.15.76-.44 1.05-.3.3-.65.45-1.06.45Z" />
      </g>
    </g>
  </g>
  <defs>
    <clipPath id="a">
      <path fill="#fff" d="M1055.5 106.5h48v48h-48z" />
    </clipPath>
    <clipPath id="b">
      <path fill="#fff" d="M1083.5 106.5h48v48h-48z" />
    </clipPath>
    <clipPath id="c">
      <path fill="#fff" d="M923.5 43.5h48v48h-48z" />
    </clipPath>
  </defs>
</svg>